<svg xmlns="http://www.w3.org/2000/svg" xmlns:xlink="http://www.w3.org/1999/xlink" width="32" height="32" viewBox="0 0 32 32">
  <defs>
    <linearGradient id="linear-gradient" x1="0.5" x2="0.288" y2="1" gradientUnits="objectBoundingBox">
      <stop offset="0" stop-color="#3a4aec"/>
      <stop offset="0.37" stop-color="#a939be"/>
      <stop offset="0.712" stop-color="#f04c3b"/>
      <stop offset="1" stop-color="#eec167"/>
    </linearGradient>
  </defs>
  <g id="그룹_10403" data-name="그룹 10403" transform="translate(-124 -1324)">
    <rect id="사각형_5684" data-name="사각형 5684" width="32" height="32" rx="7" transform="translate(124 1324)" fill="url(#linear-gradient)"/>
    <path id="패스_6367" data-name="패스 6367" d="M35.835,37.73a7.759,7.759,0,1,1,7.653-7.759A7.715,7.715,0,0,1,35.835,37.73Zm0-13.034a5.276,5.276,0,1,0,5.2,5.276A5.246,5.246,0,0,0,35.835,24.7Zm8.51-4.966a1.862,1.862,0,1,0,1.837,1.862A1.85,1.85,0,0,0,44.345,19.73Zm0,0" transform="translate(103.818 1310.27)" fill="#fff"/>
  </g>
</svg>
