<svg xmlns="http://www.w3.org/2000/svg" width="32" height="32" viewBox="0 0 32 32">
  <g id="그룹_10403" data-name="그룹 10403" transform="translate(-166 -1324)">
    <rect id="사각형_5685" data-name="사각형 5685" width="32" height="32" rx="7" transform="translate(166 1324)" fill="#ee3023"/>
    <path id="패스_6366" data-name="패스 6366" d="M15.67,1.878A2.081,2.081,0,0,0,14.26.367,43.744,43.744,0,0,0,8,0,45.456,45.456,0,0,0,1.74.353,2.125,2.125,0,0,0,.329,1.878,24.2,24.2,0,0,0,0,6a24.113,24.113,0,0,0,.329,4.122,2.081,2.081,0,0,0,1.41,1.511A43.835,43.835,0,0,0,8,12a45.456,45.456,0,0,0,6.26-.353,2.081,2.081,0,0,0,1.41-1.511A24.2,24.2,0,0,0,16,6.014,22.972,22.972,0,0,0,15.67,1.878Zm0,0" transform="translate(174 1334)" fill="#fff"/>
    <path id="패스_6368" data-name="패스 6368" d="M204.969,107.237l4.126-2.376-4.126-2.376Zm0,0" transform="translate(-24.542 1235.139)" fill="#ee3023"/>
  </g>
</svg>
