<svg width="80" height="73" viewBox="0 0 80 73" fill="none" xmlns="http://www.w3.org/2000/svg">
<g clip-path="url(#clip0_374_311)">
<path d="M66.8833 12.4998C65.4857 11.3786 63.7437 11.0016 44.3852 3.45469C42.0908 1.07532 38.581 0.872909 36.0827 2.81966C34.9682 2.22234 33.4855 2.07152 32.169 2.64503L26.7964 4.88746C26.1847 5.14346 26.3688 6.06028 27.03 6.06028C27.2735 6.06028 27.0775 6.07417 32.6441 3.76823C33.4043 3.43683 34.2476 3.42889 35.1186 3.74838C33.2321 5.95113 33.1212 8.94964 34.6415 11.2119L21.6554 14.5617C21.7009 12.4284 20.4913 10.5233 18.6919 9.59062L23.5459 7.5506C24.2843 7.24103 23.825 6.11782 23.0767 6.4274L16.8964 9.02505C11.8504 8.23127 8.57018 14.4506 12.2324 18.2409L6.68758 24.6447C6.14319 25.2738 6.21841 26.26 6.84397 26.7701L9.14625 28.7823C8.45338 29.0819 8.57612 29.58 7.11121 32.5567C6.91523 33.0846 7.16268 33.6641 7.62195 33.8347L8.5781 34.2733C8.47516 34.948 8.45338 35.6465 8.50881 36.3609C7.63779 36.7439 7.1607 36.7221 6.8994 37.2619C6.59652 37.9009 7.00827 38.1509 8.13269 41.4491C8.36826 41.9253 8.92057 42.1496 9.39766 41.967L10.4686 41.5701C10.8705 42.102 11.3456 42.6001 11.892 43.0624C11.5633 43.9257 11.1694 44.271 11.405 44.8723C11.6445 45.4795 11.9276 45.3346 15.1939 46.9123C15.6869 47.1008 16.255 46.8845 16.4945 46.4023L17.0112 45.2751C17.5635 45.3346 18.1178 45.3465 18.6721 45.3088L19.0621 46.3408C19.2383 46.8706 19.7985 47.1504 20.3607 46.9599L23.6924 45.7156C24.2051 45.5212 24.4783 44.9298 24.2902 44.4198L23.8943 43.368C24.4268 42.9592 24.9158 42.4929 25.3552 41.9749L26.4994 42.5028C26.9904 42.6854 27.5625 42.4691 27.7981 41.9888L29.2986 38.6827C29.4807 38.1906 29.2709 37.6449 28.7859 37.4028L27.6001 36.863C27.6674 36.3153 27.6892 35.7338 27.6634 35.1504L28.77 34.7277C29.2867 34.5352 29.554 33.9736 29.3778 33.4517C29.2828 33.1977 28.0119 29.7825 28.1069 30.0365C27.8693 29.5602 27.3269 29.3399 26.8459 29.5165L25.7393 29.9214C25.377 29.4491 24.989 29.0224 24.5852 28.6434C24.9672 27.6789 25.3057 27.4249 25.1454 26.8336L26.3787 25.4127C26.9587 24.7915 26.8815 23.8092 26.2619 23.2695L20.2835 18.0642C20.8497 17.4292 21.2456 16.6652 21.4455 15.8555C21.693 15.792 35.766 12.1764 35.5185 12.2399C36.6786 13.3988 38.2286 14.0795 39.8637 14.0795C40.2973 14.0795 40.7447 13.9981 41.1921 13.9009L52.8875 20.5031C52.9865 21.5053 53.0578 21.9439 53.5012 23.0194C53.0538 23.6386 52.9054 23.8866 50.1438 27.9409C48.96 27.4845 48.4572 27.1392 47.8356 27.1392C46.4895 27.1392 45.3631 28.4092 45.86 29.8837C43.8249 30.3163 43.6131 33.0866 45.468 33.8684L45.9609 34.0748L34.596 50.8256C32.6976 53.6455 32.7946 57.3168 34.7366 60.2161L31.5237 68.1142C31.5019 68.1678 31.5316 68.2194 31.5237 68.2749H25.4423C23.8309 68.2749 22.5244 69.5847 22.5244 71.2V73.504H65.7371C65.7371 70.6166 63.4012 68.2749 60.5209 68.2749H56.1064C56.1004 68.2253 56.1301 68.1777 56.1103 68.1281L51.7295 56.5289L54.0476 51.7226C54.1941 51.421 54.0674 51.0558 53.7645 50.9109C53.4636 50.7641 53.0994 50.8931 52.9529 51.1947L49.0412 59.3052C46.6657 64.1612 39.7232 64.5124 36.154 60.1406C34.0754 57.5747 33.8537 54.1079 35.6017 51.5122L47.1071 34.5571L58.6799 39.3912L55.3601 46.2495C55.2136 46.5531 55.3403 46.9162 55.6412 47.0651C55.9381 47.2099 56.3043 47.0909 56.4548 46.7813L59.8043 39.8595C61.1445 40.3794 61.6631 40.7406 62.3006 40.7406C63.7259 40.7406 64.7533 39.415 64.2742 37.9941C66.2994 37.5456 66.531 34.821 64.6721 34.0133L62.9736 33.3029C65.0225 28.9172 65.1215 29.2685 65.3293 27.6988C71.092 25.0753 72.6341 17.0482 66.8833 12.5078V12.4998ZM45.1414 64.0341C49.6252 62.6669 50.4467 58.8428 51.001 58.0332L54.8671 68.269H32.7708L35.6056 61.2996C38.2147 64.1453 41.97 65.0006 45.1433 64.0341H45.1414ZM52.8717 19.0922L42.7163 13.3591C45.5274 11.9045 47.024 8.46742 45.5591 5.2149L60.3685 10.9242C60.0755 10.9678 59.7845 10.9797 59.4895 11.0551C55.9361 11.9541 53.1211 14.9883 52.8697 19.0922H52.8717ZM16.1917 10.1741C19.074 10.1741 20.9684 13.0456 20.3548 15.2344C19.7866 18.4314 15.8809 19.8225 13.44 17.7467C10.3558 15.1947 12.1572 10.1741 16.1917 10.1741ZM15.867 29.6058C19.1947 28.3596 22.9084 30.0762 24.1516 33.414C26.1451 38.772 20.6398 43.888 15.4513 41.5225C10.2707 39.155 10.4963 31.6141 15.867 29.6058ZM25.474 24.5931L24.2486 26.0041L21.394 24.7142C20.9249 24.476 20.3072 24.6526 20.0341 25.2003L19.5748 26.2065C18.9591 26.1092 18.3573 26.0735 17.7654 26.0874C17.3715 25.1984 17.3952 24.6169 16.7895 24.3689C16.5341 24.2617 16.2392 24.2716 16.0491 24.3708C12.8026 25.6647 12.4383 25.5218 12.1513 26.1211C11.8741 26.7006 12.2542 27.1034 12.4878 27.8972C12.0365 28.2187 11.6366 28.6037 11.2466 28.9986C7.59226 25.754 7.56058 25.9108 7.53683 25.6568C7.51505 25.4107 7.35668 25.7758 13.153 19.0307C15.1227 20.3444 17.5417 20.2055 19.365 18.8739L25.4661 24.1843C25.5769 24.2796 25.6007 24.4601 25.476 24.5931H25.474ZM36.1045 11.1266C33.1925 7.97527 35.5086 2.72044 39.8637 2.72044C42.6451 2.72044 44.9177 4.9847 44.9177 7.78874C44.9177 12.3947 39.1927 14.6649 36.1025 11.1266H36.1045ZM61.9719 39.4368C61.7284 39.3356 44.8603 32.2888 45.9312 32.7373C44.9533 32.3265 45.4561 30.6854 46.6003 31.1041C47.1843 31.3482 62.9202 37.9465 62.645 37.8314C63.6605 38.2561 63.1439 39.8714 61.97 39.4368H61.9719ZM63.5279 36.7578C46.7666 29.6277 47.2754 30.1972 47.0101 29.5483C46.725 28.8478 47.3961 28.1433 48.1603 28.4291L64.195 35.1266C65.2442 35.581 64.5731 37.2043 63.5279 36.7578ZM63.6348 29.1415L61.8492 32.8246L51.29 28.4152L54.1268 24.2399C56.0529 27.4051 59.9052 29.2824 63.9931 28.1731C63.9219 28.4171 64.0228 28.3874 63.6348 29.1435V29.1415ZM63.5259 27.0538C59.446 28.0838 55.2967 25.6012 54.2653 21.5172C53.0518 16.7009 56.6943 12.0037 61.6552 12.0037C65.0621 12.0037 68.174 14.3156 69.049 17.7745C70.0784 21.8585 67.6 26.0219 63.5259 27.0538Z" fill="white" fill-opacity="0.7"/>
<path d="M60.8811 16.5699C59.1866 16.9986 58.1611 18.7231 58.5887 20.4218C59.0163 22.1205 60.7366 23.1484 62.4311 22.7198C64.1257 22.2911 65.1511 20.5666 64.7235 18.8679C64.2959 17.1693 62.5757 16.1413 60.8811 16.5699Z" fill="white" fill-opacity="0.7"/>
<path d="M42.047 7.7808C42.047 6.57624 41.073 5.59988 39.8714 5.59988C38.6698 5.59988 37.6958 6.57624 37.6958 7.7808C37.6958 8.98536 38.6698 9.96172 39.8714 9.96172C41.073 9.96172 42.047 8.98536 42.047 7.7808Z" fill="white" fill-opacity="0.7"/>
<path d="M16.1126 16.3358C17.1479 16.3656 18.011 15.546 18.0407 14.5081C18.0704 13.4702 17.2528 12.605 16.2175 12.5752C15.1822 12.5475 14.3191 13.3651 14.2894 14.4029C14.2597 15.4408 15.0772 16.306 16.1126 16.3358Z" fill="white" fill-opacity="0.7"/>
<path d="M41.6611 49.9167C39.0124 50.3791 37.2367 52.9133 37.6999 55.5943C38.1869 58.2495 40.7149 60.0275 43.3636 59.5413C46.0123 59.077 47.788 56.519 47.3248 53.8638C46.8378 51.2066 44.3098 49.4286 41.6611 49.9167ZM42.7558 56.0328C42.0273 56.1559 41.3464 55.6677 41.1999 54.9612C41.1761 54.8878 41.1761 54.8144 41.1761 54.7429C41.1761 54.0841 41.6374 53.5245 42.2689 53.4272C42.3421 53.4034 42.4153 53.4034 42.5123 53.4034C43.1438 53.4034 43.7041 53.842 43.8248 54.4988C43.8486 54.5723 43.8486 54.6457 43.8486 54.7191C43.8486 55.3522 43.3873 55.9376 42.7539 56.0328H42.7558Z" fill="white" fill-opacity="0.7"/>
<path d="M15.4751 37.8592C15.5443 37.7937 15.6136 37.6905 15.677 37.5456L16.0452 36.6804L18.6068 36.6864L18.975 37.5536C19.0364 37.6925 19.1017 37.7957 19.1789 37.8632C19.4917 38.133 20.1113 37.9068 19.846 37.3531C17.8506 32.9715 17.8922 32.5766 17.3438 32.5766C16.7182 32.5706 16.841 33.0707 14.8139 37.3373C14.7307 37.5278 14.7248 37.7401 14.8891 37.8671C14.9623 37.9227 15.3345 37.9822 15.4751 37.8532V37.8592ZM17.326 33.6799H17.3398L18.2821 35.9283L16.3758 35.9224L17.324 33.6799H17.326Z" fill="white" fill-opacity="0.7"/>
<path d="M21.4972 37.8433C21.5783 37.756 21.6179 37.6369 21.6179 37.4821C21.5922 33.2453 21.7466 32.9695 21.509 32.7214C21.4279 32.6361 21.3091 32.5924 21.1547 32.5924C20.8657 32.5905 20.6776 32.7492 20.6776 33.0846C20.7014 37.1845 20.5568 37.5953 20.7865 37.8413C20.8676 37.9286 21.3408 38.014 21.4972 37.8433Z" fill="white" fill-opacity="0.7"/>
</g>
<defs>
<clipPath id="clip0_374_311">
<rect width="79" height="72" fill="white" transform="translate(0.5 0.5)"/>
</clipPath>
</defs>
</svg>
