<svg width="72" height="73" viewBox="0 0 72 73" fill="none" xmlns="http://www.w3.org/2000/svg">
<path d="M63.2031 64.4992C63.4422 64.4992 63.6797 64.389 63.8312 64.1828C64.8961 62.7284 65.3058 60.479 65.0507 57.5009C65.0141 57.0806 64.6251 56.7689 64.2138 56.8051C63.7881 56.8413 63.4725 57.2096 63.5091 57.6315C63.7291 60.1988 63.4071 62.1554 62.5781 63.2887C62.2051 63.7987 62.5829 64.4992 63.2047 64.4992H63.2031Z" fill="white" fill-opacity="0.7"/>
<path d="M26.3724 5.83187C28.6522 6.43789 31.5424 8.16465 34.7324 10.8311C34.8775 10.9523 35.0545 11.0121 35.2314 11.0121C35.9488 11.0121 36.2804 10.1244 35.732 9.66474C32.3698 6.85659 29.2723 5.02122 26.7742 4.35853C26.3613 4.24835 25.9372 4.49076 25.8272 4.89687C25.7156 5.30455 25.9611 5.72326 26.3724 5.83187Z" fill="white" fill-opacity="0.7"/>
<path d="M55.6752 14.0722C60.7464 12.5075 64.2967 12.5044 65.4174 14.0643C66.1523 15.089 66.307 16.183 64.9312 18.7503C64.7319 19.1234 64.8754 19.5846 65.2516 19.7829C65.6247 19.9781 66.0949 19.8411 66.2974 19.4665C67.8023 16.6599 67.9091 14.8985 66.6784 13.1828C65.1018 10.9838 61.1354 10.7886 55.2129 12.6161C54.8048 12.7421 54.5784 13.1702 54.706 13.5732C54.8335 13.9761 55.2655 14.2012 55.6752 14.0737V14.0722Z" fill="white" fill-opacity="0.7"/>
<path d="M41.4501 43.6695C47.9816 39.2196 54.3775 34.3541 59.4758 28.6622C59.758 28.3459 59.7293 27.8626 59.4088 27.584C59.0884 27.3054 58.599 27.3337 58.3168 27.6501C53.311 33.2396 47.0569 38.0028 40.5717 42.4118C39.9484 42.8368 40.2545 43.8048 41.0117 43.8048C41.1632 43.8048 41.3162 43.7608 41.4501 43.6695Z" fill="white" fill-opacity="0.7"/>
<path d="M11.5304 56.1456C11.524 56.5674 11.8651 56.9137 12.2924 56.92C14.3553 56.9547 16.7307 56.4163 18.6915 55.8355C26.492 65.7112 40.4093 69.2781 52.3866 63.6051C53.206 64.1765 53.6747 64.5732 54.0589 64.5732C54.8417 64.5732 55.127 63.5532 54.4591 63.1565C54.1992 63.0007 54.078 62.922 53.9393 62.8244C60.5569 59.1709 65.644 52.8731 67.4391 45.0137C68.7686 39.1959 68.1644 33.2538 65.695 27.8296C65.5196 27.4455 65.0637 27.2739 64.6731 27.4471C64.2841 27.6202 64.1104 28.072 64.2857 28.456C66.6164 33.5765 67.1856 39.1865 65.9309 44.6784C64.1789 52.3473 59.1093 58.4406 52.5556 61.8311C48.7151 59.0198 44.8667 55.1712 40.8191 50.0696C40.556 49.7375 40.0698 49.6793 39.7334 49.939C39.397 50.1987 39.338 50.6788 39.6011 51.0109C43.5069 55.9346 47.2469 59.7376 50.9821 62.5835C40.1941 67.29 27.6286 64.241 20.2698 55.3255C23.6878 54.1622 27.6063 52.3946 31.8756 50.0476C32.2486 49.843 32.3825 49.3771 32.1753 49.0087C31.9664 48.6388 31.4946 48.5066 31.1231 48.7128C26.7725 51.1054 22.7233 52.9187 19.2782 54.0489C15.7056 49.1299 14.0444 43.3342 14.4111 37.4723C14.6566 37.7872 15.103 37.8721 15.4441 37.6502C17.2089 36.4996 19.5763 36.3579 21.4718 37.285C23.3657 38.2137 24.6825 40.1593 24.8228 42.2434C24.8866 43.1673 24.7495 44.266 25.258 45.2829C26.1476 47.0647 28.3556 47.4976 30.3738 47.3245C30.7995 47.2883 31.1135 46.9168 31.0769 46.4965C31.0386 46.0762 30.6704 45.763 30.2383 45.8023C29.564 45.8622 27.313 45.9471 26.645 44.606C26.3246 43.9622 26.4266 43.0571 26.366 42.141C26.1891 39.5249 24.5375 37.0804 22.1589 35.9156C19.7804 34.7492 16.8104 34.9318 14.5928 36.3752C14.553 36.4004 14.5291 36.4382 14.4956 36.4696C15.1189 30.3638 17.8004 24.9915 21.8385 20.9461C24.0114 27.1606 27.6717 34.2738 32.3459 41.3099C32.5818 41.6657 33.0633 41.7585 33.4156 41.5303C33.7727 41.2989 33.8731 40.8251 33.6388 40.4741C28.8609 33.2821 25.1735 26.0304 23.0788 19.7829C33.6117 10.5321 49.1344 11.3238 58.6964 20.551C59.0025 20.847 59.492 20.8391 59.7901 20.5384C60.0882 20.2362 60.0818 19.753 59.7773 19.4586C49.8438 9.8741 33.7822 8.83521 22.5734 18.1915C22.5272 18.0357 22.4666 17.872 22.422 17.7161C21.7715 15.4558 21.3841 13.4315 21.2709 11.7016C21.2438 11.2797 20.8692 10.9712 20.4499 10.9885C20.0243 11.0153 19.7007 11.3789 19.7278 11.7992C19.8473 13.6377 20.2538 15.769 20.9346 18.1333C21.0446 18.5158 21.1849 18.9187 21.3092 19.3107C11.9576 28.1444 9.67949 42.9989 17.7238 54.518C16.077 54.9808 14.0317 55.4231 12.3195 55.39C11.8954 55.3869 11.5415 55.7206 11.5351 56.1424L11.5304 56.1456Z" fill="white" fill-opacity="0.7"/>
<path d="M8.11739 49.3975C8.4155 49.3975 8.69927 49.2275 8.82681 48.9395C9.42782 47.5826 9.97304 46.8963 11.1336 45.338C11.3871 44.998 11.3122 44.5195 10.9678 44.2708C10.6235 44.0205 10.1404 44.0945 9.88695 44.4345C8.76144 45.9471 8.0855 46.805 7.40956 48.3271C7.18478 48.834 7.5642 49.3975 8.11739 49.3975Z" fill="white" fill-opacity="0.7"/>
<path d="M63.6561 19.8285C61.5039 19.3453 59.3566 20.688 58.8703 22.8146C58.0908 26.2271 61.9073 28.9015 64.9123 27.0252C67.9079 25.1568 67.1283 20.6014 63.6545 19.8285H63.6561ZM62.2341 26.0509C60.9125 25.7565 60.0803 24.4563 60.3784 23.1514C60.6351 22.0259 61.6522 21.2594 62.7745 21.2594C64.3432 21.2594 65.5181 22.6981 65.1706 24.2186C64.8741 25.5188 63.5684 26.3484 62.2341 26.0509Z" fill="white" fill-opacity="0.7"/>
<path d="M59.567 62.0373C56.0869 61.255 53.4118 65.0501 55.3025 68.0031C57.2108 70.9828 61.8117 70.1753 62.5912 66.7611C63.0759 64.6361 61.7208 62.5158 59.567 62.0358V62.0373ZM61.0815 66.4258C60.5953 68.5493 57.7624 68.9916 56.6082 67.1877C55.4492 65.3744 57.0881 63.051 59.2259 63.5264C60.5475 63.8208 61.3796 65.1209 61.0815 66.4258Z" fill="white" fill-opacity="0.7"/>
<path d="M6.98683 57.6551C10.4526 58.4311 13.15 54.6534 11.2513 51.6894C10.078 49.8571 7.61495 49.2842 5.729 50.46C2.72712 52.3332 3.52263 56.8854 6.98683 57.6567V57.6551ZM5.47234 53.2666C5.76886 51.9664 7.0777 51.1384 8.40886 51.4344C10.518 51.905 11.0441 54.688 9.18045 55.8496C7.34074 57.0003 4.99408 55.3633 5.47234 53.265V53.2666Z" fill="white" fill-opacity="0.7"/>
<path d="M21.0033 10.8028C22.0443 11.0342 23.1109 10.861 24.0084 10.318C27.0087 8.5015 26.1941 4.03113 22.7283 3.25826C20.5761 2.77974 18.4383 4.0815 17.9616 6.16085C17.4865 8.2402 18.8512 10.3227 21.0049 10.8028H21.0033ZM19.4681 6.49613C19.7152 5.41631 20.7132 4.68594 21.8275 4.68594C24.2938 4.68594 25.2407 7.78057 23.2001 9.01622C21.3716 10.1228 19.0058 8.53141 19.4697 6.49613H19.4681Z" fill="white" fill-opacity="0.7"/>
<path d="M39.9101 43.6994C38.0082 40.7307 33.401 41.5287 32.6214 44.9413C32.0603 47.4 33.9558 49.7643 36.5256 49.7643C39.6455 49.7643 41.6032 46.3454 39.9101 43.7009V43.6994ZM35.9852 48.1776C34.6636 47.8833 33.8314 46.5831 34.1295 45.2782C34.6078 43.1846 37.4327 42.6872 38.6029 44.5163C38.9536 45.0641 38.1246 48.6546 35.9852 48.1776Z" fill="white" fill-opacity="0.7"/>
<path d="M33.2896 14.7207C32.8831 14.601 32.4494 14.8293 32.3267 15.2322C31.9233 16.556 32.7603 17.8342 33.7678 18.511C34.5602 19.0447 35.5278 19.3406 36.1783 19.8364C38.356 21.4986 37.8442 25.2308 38.9299 28.0625C39.5691 29.7279 40.9864 31.2532 42.8102 31.1257C45.0612 30.9746 46.3142 28.4545 47.9132 28.1916C49.2205 27.9822 50.9836 29.177 52.6049 28.1145C53.8596 27.2928 54.0652 25.6369 54.2007 24.5397C54.3602 23.2569 54.7013 22.4934 55.2147 22.2731C55.6068 22.1047 55.7854 21.6545 55.6132 21.2672C55.4426 20.8816 54.9867 20.7037 54.5945 20.8737C53.1757 21.486 52.8138 23.153 52.6639 24.354C52.3164 27.17 51.6691 27.2424 49.8262 26.8552C47.7251 26.416 46.8993 26.5404 44.8444 28.3285C44.1206 28.9582 43.4383 29.5532 42.7049 29.602C41.6751 29.6728 40.7919 28.6072 40.3758 27.521C39.3523 24.8498 39.9071 20.7541 37.1236 18.6275C36.258 17.9664 35.3812 17.7492 34.6383 17.2486C34.0978 16.885 33.6387 16.2255 33.8077 15.6698C33.9304 15.2669 33.6993 14.8403 33.2896 14.7191V14.7207Z" fill="white" fill-opacity="0.7"/>
<path d="M56.3595 43.49C57.8182 42.0497 57.5328 40.0223 58.5116 38.7867C58.9867 38.1854 59.8332 37.784 60.8344 37.6848C61.8228 37.5857 62.867 37.762 63.8777 37.932C64.2986 38.0059 64.6971 37.7242 64.7689 37.3071C64.8406 36.8915 64.5568 36.498 64.136 36.4271C63.0248 36.2414 61.8754 36.0462 60.6766 36.1674C59.2386 36.3107 58.035 36.9088 57.2905 37.8485C56.1187 39.3313 56.2781 41.4107 55.2626 42.4134C53.45 44.2062 48.9831 41.8577 46.6811 44.5226C45.53 45.8543 45.7118 47.814 46.4021 49.1661C47.6742 51.6563 50.5821 53.0557 51.1145 55.4325C51.2453 56.0165 51.2325 56.6855 51.4063 57.3859C51.655 58.3965 52.2863 59.1521 53.0929 59.4086C53.4947 59.5361 53.9347 59.3189 54.0654 58.9144C54.1961 58.513 53.9713 58.0833 53.5648 57.9542C53.2826 57.8645 53.026 57.5008 52.908 57.0255C52.7821 56.5171 52.7693 55.7473 52.6242 55.102C51.9595 52.1458 48.9305 50.7276 47.7811 48.4783C47.3363 47.6062 47.1689 46.3076 47.856 45.5143C49.5395 43.5656 53.8868 45.933 56.3563 43.4916L56.3595 43.49Z" fill="white" fill-opacity="0.7"/>
<path d="M35.4627 63.2982C35.662 63.2982 35.8628 63.2226 36.0143 63.0699C36.6328 62.4497 36.7715 61.4234 36.3618 60.5199C35.772 59.2166 34.4328 58.6358 33.9594 57.7307C33.5656 56.9751 33.7489 55.9457 33.8908 54.8233C34.1012 53.0195 33.7107 51.7319 32.7286 50.9952C32.3875 50.7402 31.9028 50.8047 31.6446 51.1416C31.3863 51.4769 31.4517 51.957 31.7928 52.212C32.4353 52.6936 32.4528 53.8033 32.354 54.6486C32.1866 55.963 31.9714 57.2553 32.5836 58.4296C33.2276 59.6652 34.5381 60.2334 34.9478 61.1433C35.0928 61.4644 35.0769 61.8327 34.9079 61.9996C34.4249 62.4859 34.782 63.2982 35.4595 63.2982H35.4627Z" fill="white" fill-opacity="0.7"/>
</svg>
