<svg width="16" height="16" viewBox="0 0 16 16" fill="none" xmlns="http://www.w3.org/2000/svg">
<path d="M7.74358 0.248163C7.79651 0.0262686 8.20349 0.0262692 8.25642 0.248164C8.60734 1.71951 9.34272 4.12427 10.6092 5.39078C11.8757 6.65728 14.2805 7.39266 15.7518 7.74358C15.9737 7.79651 15.9737 8.20349 15.7518 8.25642C14.2805 8.60734 11.8757 9.34272 10.6092 10.6092C9.34272 11.8757 8.60734 14.2805 8.25642 15.7518C8.20349 15.9737 7.79651 15.9737 7.74358 15.7518C7.39266 14.2805 6.65728 11.8757 5.39078 10.6092C4.12427 9.34272 1.71951 8.60734 0.248164 8.25642C0.026269 8.20349 0.0262692 7.79651 0.248164 7.74358C1.71951 7.39266 4.12427 6.65728 5.39078 5.39078C6.65728 4.12427 7.39266 1.71951 7.74358 0.248163Z" fill="white"/>
</svg>
