<svg width="16" height="16" viewBox="0 0 16 16" fill="none" xmlns="http://www.w3.org/2000/svg">
<path fill-rule="evenodd" clip-rule="evenodd" d="M3.99984 2.33329V1.66663H5.33317V2.33329H10.6665V1.66663H11.9998V2.33329H13.3332C13.8855 2.33329 14.3332 2.78101 14.3332 3.33329V13.3333C14.3332 13.8856 13.8855 14.3333 13.3332 14.3333H2.6665C2.11422 14.3333 1.6665 13.8856 1.6665 13.3333V3.33329C1.6665 2.78101 2.11422 2.33329 2.6665 2.33329H3.99984ZM3.99984 3.66663H2.99984V6.66663H12.9998V3.66663H11.9998V4.33329H10.6665V3.66663H5.33317V4.33329H3.99984V3.66663ZM12.9998 7.99996H2.99984V13H12.9998V7.99996Z" fill="#212121"/>
</svg>
