<svg width="14" height="14" viewBox="0 0 14 14" fill="none" xmlns="http://www.w3.org/2000/svg">
<path d="M3.02402 2.00432L3.25102 2.44982L3.25102 2.44982L3.02402 2.00432ZM2.00432 3.02402L1.55881 2.79703L1.55881 2.79703L2.00432 3.02402ZM10.976 11.9957L11.203 12.4412H11.203L10.976 11.9957ZM11.9957 10.976L11.5502 10.749L11.9957 10.976ZM3.02402 11.9957L3.25102 11.5502L3.02402 11.9957ZM2.00432 10.976L2.44982 10.749H2.44982L2.00432 10.976ZM12.75 7C12.75 6.72386 12.5261 6.5 12.25 6.5C11.9739 6.5 11.75 6.72386 11.75 7H12.75ZM7 2.25C7.27614 2.25 7.5 2.02614 7.5 1.75C7.5 1.47386 7.27614 1.25 7 1.25V2.25ZM7.14771 6.12301L7.62206 6.28112V6.28112L7.14771 6.12301ZM7.41768 5.31312L6.94333 5.15501V5.15501L7.41768 5.31312ZM7.69623 4.86241L8.04979 5.21596L8.04979 5.21596L7.69623 4.86241ZM10.3865 2.17216L10.0329 1.81861V1.81861L10.3865 2.17216ZM11.8278 3.61352L12.1814 3.96708H12.1814L11.8278 3.61352ZM9.13759 6.30377L8.78404 5.95021L8.78404 5.95021L9.13759 6.30377ZM8.68688 6.58232L8.84499 7.05667H8.84499L8.68688 6.58232ZM7.87699 6.85229L8.0351 7.32663L8.0351 7.32663L7.87699 6.85229ZM8.98984 6.44168L9.29096 6.84083L9.29096 6.84083L8.98984 6.44168ZM8.87631 6.51184L8.65395 6.06401H8.65395L8.87631 6.51184ZM11.8278 2.17216L11.4743 2.52572V2.52572L11.8278 2.17216ZM12.1751 2.57285L12.6231 2.35084V2.35084L12.1751 2.57285ZM12.1751 3.21284L12.6231 3.43485V3.43485L12.1751 3.21284ZM10.7872 1.82494L11.0092 2.27295V2.27295L10.7872 1.82494ZM11.4271 1.82494L11.2051 2.27295L11.2051 2.27295L11.4271 1.82494ZM7.48816 5.12369L7.93599 5.34605L7.93599 5.34604L7.48816 5.12369ZM7.55832 5.01016L7.15917 4.70904L7.15916 4.70904L7.55832 5.01016ZM7.01342 6.76821L7.48437 6.60027L7.01342 6.76821ZM7.23179 6.98658L7.06385 7.45754L7.23179 6.98658ZM5.48333 12.25V12.75H8.51667V12.25V11.75H5.48333V12.25ZM1.75 5.48333H1.25V8.51667H1.75H2.25V5.48333H1.75ZM5.48333 1.75V1.25C4.83819 1.25 4.32426 1.24961 3.91009 1.28345C3.49008 1.31777 3.12882 1.38976 2.79703 1.55882L3.02402 2.00432L3.25102 2.44982C3.41835 2.36456 3.63335 2.30939 3.99152 2.28013C4.35553 2.25039 4.82169 2.25 5.48333 2.25V1.75ZM1.75 5.48333H2.25C2.25 4.82169 2.25039 4.35553 2.28013 3.99152C2.30939 3.63335 2.36456 3.41835 2.44982 3.25102L2.00432 3.02402L1.55881 2.79703C1.38976 3.12882 1.31777 3.49008 1.28345 3.91009C1.24961 4.32426 1.25 4.83819 1.25 5.48333H1.75ZM3.02402 2.00432L2.79703 1.55881C2.2639 1.83046 1.83046 2.2639 1.55881 2.79703L2.00432 3.02402L2.44982 3.25102C2.62559 2.90605 2.90605 2.62559 3.25102 2.44982L3.02402 2.00432ZM8.51667 12.25V12.75C9.16181 12.75 9.67574 12.7504 10.0899 12.7165C10.5099 12.6822 10.8712 12.6102 11.203 12.4412L10.976 11.9957L10.749 11.5502C10.5817 11.6354 10.3666 11.6906 10.0085 11.7199C9.64447 11.7496 9.17831 11.75 8.51667 11.75V12.25ZM12.25 8.51667H11.75C11.75 9.17831 11.7496 9.64447 11.7199 10.0085C11.6906 10.3666 11.6354 10.5817 11.5502 10.749L11.9957 10.976L12.4412 11.203C12.6102 10.8712 12.6822 10.5099 12.7165 10.0899C12.7504 9.67574 12.75 9.16181 12.75 8.51667H12.25ZM10.976 11.9957L11.203 12.4412C11.7361 12.1695 12.1695 11.7361 12.4412 11.203L11.9957 10.976L11.5502 10.749C11.3744 11.0939 11.0939 11.3744 10.749 11.5502L10.976 11.9957ZM5.48333 12.25V11.75C4.82169 11.75 4.35553 11.7496 3.99152 11.7199C3.63335 11.6906 3.41835 11.6354 3.25102 11.5502L3.02402 11.9957L2.79703 12.4412C3.12882 12.6102 3.49008 12.6822 3.91009 12.7165C4.32426 12.7504 4.83819 12.75 5.48333 12.75V12.25ZM1.75 8.51667H1.25C1.25 9.16181 1.24961 9.67574 1.28345 10.0899C1.31777 10.5099 1.38976 10.8712 1.55881 11.203L2.00432 10.976L2.44982 10.749C2.36456 10.5817 2.30939 10.3666 2.28013 10.0085C2.25039 9.64447 2.25 9.17831 2.25 8.51667H1.75ZM3.02402 11.9957L3.25102 11.5502C2.90605 11.3744 2.62559 11.0939 2.44982 10.749L2.00432 10.976L1.55881 11.203C1.83046 11.7361 2.2639 12.1695 2.79703 12.4412L3.02402 11.9957ZM12.25 8.51667H12.75V7H12.25H11.75V8.51667H12.25ZM5.48333 1.75V2.25H7V1.75V1.25H5.48333V1.75ZM7.14771 6.12301L7.62206 6.28112L7.89202 5.47124L7.41768 5.31312L6.94333 5.15501L6.67337 5.9649L7.14771 6.12301ZM7.69623 4.86241L8.04979 5.21596L10.74 2.52572L10.3865 2.17216L10.0329 1.81861L7.34268 4.50885L7.69623 4.86241ZM11.8278 3.61352L11.4743 3.25997L8.78404 5.95021L9.13759 6.30377L9.49115 6.65732L12.1814 3.96708L11.8278 3.61352ZM8.68688 6.58232L8.52876 6.10798L7.71888 6.37794L7.87699 6.85229L8.0351 7.32663L8.84499 7.05667L8.68688 6.58232ZM9.13759 6.30377L8.78404 5.95021C8.70282 6.03143 8.69463 6.03806 8.68872 6.04252L8.98984 6.44168L9.29096 6.84083C9.3652 6.78483 9.4288 6.71967 9.49115 6.65732L9.13759 6.30377ZM8.68688 6.58232L8.84499 7.05667C8.92864 7.02878 9.01536 7.00104 9.09866 6.95968L8.87631 6.51184L8.65395 6.06401C8.64732 6.0673 8.63773 6.07166 8.52876 6.10798L8.68688 6.58232ZM8.98984 6.44168L8.68872 6.04252C8.67782 6.05074 8.66618 6.05793 8.65395 6.06401L8.87631 6.51184L9.09866 6.95968C9.1663 6.9261 9.23067 6.88631 9.29096 6.84083L8.98984 6.44168ZM11.8278 2.17216L11.4743 2.52572C11.5765 2.62795 11.6384 2.69009 11.6825 2.73945C11.7242 2.7862 11.7291 2.79899 11.7271 2.79486L12.1751 2.57285L12.6231 2.35084C12.5249 2.15281 12.3493 1.98654 12.1814 1.81861L11.8278 2.17216ZM11.8278 3.61352L12.1814 3.96708C12.3493 3.79915 12.5249 3.63288 12.6231 3.43485L12.1751 3.21284L11.7271 2.99083C11.7291 2.9867 11.7242 2.99949 11.6825 3.04624C11.6384 3.0956 11.5765 3.15774 11.4743 3.25997L11.8278 3.61352ZM12.1751 2.57285L11.7271 2.79486C11.7576 2.8566 11.7576 2.92909 11.7271 2.99083L12.1751 3.21284L12.6231 3.43485C12.7923 3.09333 12.7923 2.69236 12.6231 2.35084L12.1751 2.57285ZM10.3865 2.17216L10.74 2.52572C10.8423 2.42349 10.9044 2.36161 10.9538 2.31754C11.0005 2.2758 11.0133 2.2709 11.0092 2.27295L10.7872 1.82494L10.5652 1.37693C10.3671 1.47506 10.2008 1.65069 10.0329 1.81861L10.3865 2.17216ZM11.8278 2.17216L12.1814 1.81861C12.0135 1.65068 11.8472 1.47506 11.6492 1.37693L11.4271 1.82494L11.2051 2.27295C11.201 2.2709 11.2138 2.2758 11.2605 2.31754C11.3099 2.36161 11.3721 2.42349 11.4743 2.52572L11.8278 2.17216ZM10.7872 1.82494L11.0092 2.27295C11.0709 2.24235 11.1434 2.24235 11.2051 2.27295L11.4271 1.82494L11.6492 1.37693C11.3076 1.20769 10.9067 1.20769 10.5652 1.37693L10.7872 1.82494ZM7.41768 5.31312L7.89202 5.47124C7.92834 5.36227 7.9327 5.35268 7.93599 5.34605L7.48816 5.12369L7.04032 4.90134C6.99896 4.98463 6.97122 5.07136 6.94333 5.15501L7.41768 5.31312ZM7.69623 4.86241L7.34268 4.50885C7.28033 4.5712 7.21517 4.6348 7.15917 4.70904L7.55832 5.01016L7.95748 5.31128C7.96194 5.30537 7.96857 5.29718 8.04979 5.21596L7.69623 4.86241ZM7.48816 5.12369L7.93599 5.34604C7.94207 5.33382 7.94926 5.32218 7.95748 5.31128L7.55832 5.01016L7.15916 4.70904C7.11369 4.76933 7.0739 4.8337 7.04032 4.90134L7.48816 5.12369ZM7.14771 6.12301L6.67337 5.9649C6.61784 6.13148 6.56474 6.2892 6.53416 6.41936C6.50531 6.54211 6.47087 6.73538 6.54246 6.93615L7.01342 6.76821L7.48437 6.60027C7.50035 6.64508 7.50023 6.6784 7.49992 6.68654C7.4997 6.69229 7.49952 6.68268 7.50764 6.64812C7.5253 6.57297 7.56022 6.46662 7.62206 6.28112L7.14771 6.12301ZM7.87699 6.85229L7.71888 6.37794C7.53338 6.43978 7.42703 6.4747 7.35188 6.49236C7.31732 6.50048 7.3077 6.5003 7.31346 6.50008C7.3216 6.49977 7.35492 6.49965 7.39973 6.51563L7.23179 6.98658L7.06385 7.45754C7.26462 7.52913 7.45789 7.49468 7.58064 7.46584C7.7108 7.43526 7.86852 7.38216 8.0351 7.32663L7.87699 6.85229ZM7.01342 6.76821L6.54246 6.93615C6.6292 7.17938 6.82061 7.3708 7.06385 7.45754L7.23179 6.98658L7.39973 6.51563C7.43922 6.52971 7.47029 6.56078 7.48437 6.60027L7.01342 6.76821Z" fill="#212121"/>
</svg>
