<svg width="20" height="20" viewBox="0 0 20 20" fill="none" xmlns="http://www.w3.org/2000/svg">
<path d="M13.0581 5.79977L7.19498 11.8101C6.93356 12.0727 6.7867 12.4289 6.7867 12.8002C6.7867 13.1716 6.93356 13.5278 7.19498 13.7904C7.45639 14.053 7.81094 14.2006 8.18064 14.2006C8.55033 14.2006 8.90488 14.053 9.16629 13.7904L15.0294 7.78011C15.5521 7.25498 15.8458 6.54276 15.8458 5.80012C15.8458 5.05748 15.5521 4.34526 15.0294 3.82014C14.5066 3.29501 13.7977 3 13.0584 3C12.3192 3 11.6102 3.29501 11.0874 3.82014L5.24875 9.80594C4.85532 10.1948 4.54242 10.658 4.3281 11.169C4.11378 11.6799 4.00228 12.2284 4.00003 12.7828C3.99779 13.3373 4.10484 13.8867 4.31501 14.3993C4.52518 14.912 4.83431 15.3778 5.22457 15.7698C5.61483 16.1619 6.0785 16.4724 6.58884 16.6836C7.09917 16.8947 7.64606 17.0022 8.19797 17C8.74988 16.9977 9.29589 16.8857 9.80449 16.6704C10.3131 16.4551 10.7742 16.1408 11.1613 15.7455L17 9.75974" stroke="#464646" stroke-width="1.3" stroke-linecap="round" stroke-linejoin="round"/>
</svg>
