<svg width="22" height="21" viewBox="0 0 22 21" fill="none" xmlns="http://www.w3.org/2000/svg">
<path d="M17.65 9.62899C17.6496 9.6287 17.6493 9.6283 17.649 9.628L11.938 4.32522C11.6946 4.09908 11.371 3.97461 11.0267 3.97461C10.6825 3.97461 10.3588 4.09908 10.1153 4.32522L4.40739 9.62532C4.40547 9.62711 4.40344 9.62899 4.40163 9.63078C3.90175 10.0976 3.9026 10.8551 4.40408 11.3207C4.63319 11.5336 4.93569 11.6568 5.25922 11.6698C5.27246 11.671 5.28571 11.6716 5.29906 11.6716H5.52657V15.574C5.52657 16.3463 6.20333 16.9746 7.03507 16.9746H9.26936C9.4959 16.9746 9.67951 16.804 9.67951 16.5938V13.5342C9.67951 13.1818 9.98831 12.8952 10.3678 12.8952H11.6857C12.0652 12.8952 12.3738 13.1818 12.3738 13.5342V16.5938C12.3738 16.804 12.5574 16.9746 12.784 16.9746H15.0183C15.8501 16.9746 16.5268 16.3463 16.5268 15.574V11.6716H16.7378C17.082 11.6716 17.4056 11.5471 17.6493 11.3208C18.1513 10.8545 18.1515 10.0956 17.65 9.62899ZM17.0692 10.7823C16.9806 10.8645 16.8629 10.9098 16.7378 10.9098H16.1166C15.8901 10.9098 15.7065 11.0803 15.7065 11.2907V15.574C15.7065 15.9263 15.3978 16.2129 15.0183 16.2129H13.1942V13.5342C13.1942 12.7619 12.5175 12.1334 11.6857 12.1334H10.3678C9.53596 12.1334 8.8592 12.7619 8.8592 13.5342V16.2129H7.03507C6.65567 16.2129 6.34688 15.9263 6.34688 15.574V11.2907C6.34688 11.0803 6.16327 10.9098 5.93672 10.9098H5.32619C5.31978 10.9094 5.31348 10.9091 5.30696 10.909C5.18477 10.9071 5.07016 10.862 4.98428 10.7822C4.80164 10.6126 4.80164 10.3366 4.98428 10.1669C4.98418 10.167 4.98439 10.1669 4.98428 10.1669L10.6955 4.86378C10.7839 4.78156 10.9015 4.73633 11.0267 4.73633C11.1518 4.73633 11.2694 4.78156 11.358 4.86378L17.0674 10.1653C17.0682 10.1661 17.0692 10.1669 17.07 10.1677C17.2517 10.3376 17.2514 10.613 17.0692 10.7823Z" fill="#6D747B"/>
<path d="M4.98428 10.1669C4.80164 10.3366 4.80164 10.6126 4.98428 10.7822C5.07016 10.862 5.18477 10.9071 5.30696 10.909C5.31348 10.9091 5.31978 10.9094 5.32619 10.9098H5.93672C6.16327 10.9098 6.34688 11.0803 6.34688 11.2907V15.574C6.34688 15.9263 6.65567 16.2129 7.03507 16.2129H8.8592V13.5342C8.8592 12.7619 9.53596 12.1334 10.3678 12.1334H11.6857C12.5175 12.1334 13.1942 12.7619 13.1942 13.5342V16.2129H15.0183C15.3978 16.2129 15.7065 15.9263 15.7065 15.574V11.2907C15.7065 11.0803 15.8901 10.9098 16.1166 10.9098H16.7378C16.8629 10.9098 16.9806 10.8645 17.0692 10.7823C17.2514 10.613 17.2517 10.3376 17.07 10.1677C17.0692 10.1669 17.0682 10.1661 17.0674 10.1653L11.358 4.86378C11.2694 4.78156 11.1518 4.73633 11.0267 4.73633C10.9015 4.73633 10.7839 4.78156 10.6955 4.86378L4.98428 10.1669ZM4.98428 10.1669C4.98439 10.1669 4.98418 10.167 4.98428 10.1669ZM17.65 9.62899C17.6496 9.6287 17.6493 9.6283 17.649 9.628L11.938 4.32522C11.6946 4.09908 11.371 3.97461 11.0267 3.97461C10.6825 3.97461 10.3588 4.09908 10.1153 4.32522L4.40739 9.62532C4.40547 9.62711 4.40344 9.62899 4.40163 9.63078C3.90175 10.0976 3.9026 10.8551 4.40408 11.3207C4.63319 11.5336 4.93569 11.6568 5.25922 11.6698C5.27246 11.671 5.28571 11.6716 5.29906 11.6716H5.52657V15.574C5.52657 16.3463 6.20333 16.9746 7.03507 16.9746H9.26936C9.4959 16.9746 9.67951 16.804 9.67951 16.5938V13.5342C9.67951 13.1818 9.98831 12.8952 10.3678 12.8952H11.6857C12.0652 12.8952 12.3738 13.1818 12.3738 13.5342V16.5938C12.3738 16.804 12.5574 16.9746 12.784 16.9746H15.0183C15.8501 16.9746 16.5268 16.3463 16.5268 15.574V11.6716H16.7378C17.082 11.6716 17.4056 11.5471 17.6493 11.3208C18.1513 10.8545 18.1515 10.0956 17.65 9.62899Z" stroke="#6D747B" stroke-width="0.2"/>
</svg>
