<svg width="24" height="21" viewBox="0 0 24 21" fill="none" xmlns="http://www.w3.org/2000/svg">
<path d="M19.6 9.42799C19.5995 9.42763 19.5992 9.42714 19.5988 9.42677L13.0721 2.90027C12.7939 2.62195 12.424 2.46875 12.0305 2.46875C11.6371 2.46875 11.2672 2.62195 10.9889 2.90027L4.46559 9.42348C4.4634 9.42567 4.46108 9.42799 4.459 9.43019C3.88771 10.0048 3.88869 10.937 4.46181 11.5101C4.72365 11.7721 5.06935 11.9237 5.43911 11.9397C5.45424 11.9412 5.46938 11.9419 5.48464 11.9419H5.74465V16.7449C5.74465 17.6955 6.51809 18.4688 7.46865 18.4688H10.0221C10.281 18.4688 10.4909 18.2588 10.4909 18V14.2344C10.4909 13.8007 10.8438 13.4479 11.2775 13.4479H12.7836C13.2173 13.4479 13.5701 13.8007 13.5701 14.2344V18C13.5701 18.2588 13.7799 18.4688 14.0389 18.4688H16.5923C17.543 18.4688 18.3163 17.6955 18.3163 16.7449V11.9419H18.5575C18.9509 11.9419 19.3207 11.7887 19.5992 11.5103C20.1729 10.9363 20.1731 10.0023 19.6 9.42799ZM18.9362 10.8474C18.835 10.9486 18.7005 11.0044 18.5575 11.0044H17.8476C17.5887 11.0044 17.3788 11.2143 17.3788 11.4732V16.7449C17.3788 17.1785 17.026 17.5313 16.5923 17.5313H14.5076V14.2344C14.5076 13.2838 13.7343 12.5104 12.7836 12.5104H11.2775C10.3268 12.5104 9.55337 13.2838 9.55337 14.2344V17.5313H7.46865C7.03506 17.5313 6.68215 17.1785 6.68215 16.7449V11.4732C6.68215 11.2143 6.47231 11.0044 6.2134 11.0044H5.51564C5.50832 11.0039 5.50112 11.0036 5.49367 11.0034C5.35402 11.001 5.22304 10.9456 5.1249 10.8473C4.91616 10.6386 4.91616 10.2988 5.1249 10.09C5.12477 10.0901 5.12502 10.09 5.1249 10.09L11.652 3.56311C11.7531 3.46192 11.8875 3.40625 12.0305 3.40625C12.1735 3.40625 12.3079 3.46192 12.4091 3.56311L18.9341 10.088C18.9351 10.089 18.9362 10.09 18.9372 10.091C19.1448 10.3001 19.1445 10.6391 18.9362 10.8474Z" fill="#161B25"/>
<path d="M5.1249 10.09C4.91616 10.2988 4.91616 10.6386 5.1249 10.8473C5.22304 10.9456 5.35402 11.001 5.49367 11.0034C5.50112 11.0036 5.50832 11.0039 5.51564 11.0044H6.2134C6.47231 11.0044 6.68215 11.2143 6.68215 11.4732V16.7449C6.68215 17.1785 7.03506 17.5313 7.46865 17.5313H9.55337V14.2344C9.55337 13.2838 10.3268 12.5104 11.2775 12.5104H12.7836C13.7343 12.5104 14.5076 13.2838 14.5076 14.2344V17.5313H16.5923C17.026 17.5313 17.3788 17.1785 17.3788 16.7449V11.4732C17.3788 11.2143 17.5887 11.0044 17.8476 11.0044H18.5575C18.7005 11.0044 18.835 10.9486 18.9362 10.8474C19.1445 10.6391 19.1448 10.3001 18.9372 10.091C18.9362 10.09 18.9351 10.089 18.9341 10.088L12.4091 3.56311C12.3079 3.46192 12.1735 3.40625 12.0305 3.40625C11.8875 3.40625 11.7531 3.46192 11.652 3.56311L5.1249 10.09ZM5.1249 10.09C5.12502 10.09 5.12477 10.0901 5.1249 10.09ZM19.6 9.42799C19.5995 9.42763 19.5992 9.42714 19.5988 9.42677L13.0721 2.90027C12.7939 2.62195 12.424 2.46875 12.0305 2.46875C11.6371 2.46875 11.2672 2.62195 10.9889 2.90027L4.46559 9.42348C4.4634 9.42567 4.46108 9.42799 4.459 9.43019C3.88771 10.0048 3.88869 10.937 4.46181 11.5101C4.72365 11.7721 5.06935 11.9237 5.43911 11.9397C5.45424 11.9412 5.46938 11.9419 5.48464 11.9419H5.74465V16.7449C5.74465 17.6955 6.51809 18.4688 7.46865 18.4688H10.0221C10.281 18.4688 10.4909 18.2588 10.4909 18V14.2344C10.4909 13.8007 10.8438 13.4479 11.2775 13.4479H12.7836C13.2173 13.4479 13.5701 13.8007 13.5701 14.2344V18C13.5701 18.2588 13.7799 18.4688 14.0389 18.4688H16.5923C17.543 18.4688 18.3163 17.6955 18.3163 16.7449V11.9419H18.5575C18.9509 11.9419 19.3207 11.7887 19.5992 11.5103C20.1729 10.9363 20.1731 10.0023 19.6 9.42799Z" stroke="#161B25" stroke-width="0.5"/>
</svg>
