<svg width="18" height="19" viewBox="0 0 18 19" fill="none" xmlns="http://www.w3.org/2000/svg">
<path d="M14.625 7.29053H12.375V5.60303C12.375 4.70792 12.0194 3.84948 11.3865 3.21654C10.7536 2.58361 9.89511 2.22803 9 2.22803C8.10489 2.22803 7.24645 2.58361 6.61351 3.21654C5.98058 3.84948 5.625 4.70792 5.625 5.60303V7.29053H3.375C3.07663 7.29053 2.79048 7.40905 2.5795 7.62003C2.36853 7.83101 2.25 8.11716 2.25 8.41553V16.2905C2.25 16.5889 2.36853 16.875 2.5795 17.086C2.79048 17.297 3.07663 17.4155 3.375 17.4155H14.625C14.9234 17.4155 15.2095 17.297 15.4205 17.086C15.6315 16.875 15.75 16.5889 15.75 16.2905V8.41553C15.75 8.11716 15.6315 7.83101 15.4205 7.62003C15.2095 7.40905 14.9234 7.29053 14.625 7.29053ZM6.75 5.60303C6.75 5.00629 6.98705 4.43399 7.40901 4.01204C7.83097 3.59008 8.40326 3.35303 9 3.35303C9.59674 3.35303 10.169 3.59008 10.591 4.01204C11.0129 4.43399 11.25 5.00629 11.25 5.60303V7.29053H6.75V5.60303ZM14.625 16.2905H3.375V8.41553H14.625V16.2905Z" fill="#767676"/>
</svg>
