<svg width="18" height="19" viewBox="0 0 18 19" fill="none" xmlns="http://www.w3.org/2000/svg">
<path d="M3.375 7.19043H11.25V5.50293C11.25 4.90619 11.0129 4.3339 10.591 3.91194C10.169 3.48998 9.59674 3.25293 9 3.25293C7.9193 3.25293 6.94688 4.02637 6.73875 5.05223C6.70785 5.19719 6.62099 5.32409 6.49704 5.40536C6.37309 5.48663 6.22207 5.5157 6.07681 5.48624C5.93155 5.45678 5.80378 5.37118 5.72129 5.24804C5.63879 5.1249 5.60823 4.97418 5.63625 4.82863C5.95406 3.26348 7.36875 2.12793 9 2.12793C9.89482 2.12886 10.7527 2.48474 11.3855 3.11747C12.0182 3.75021 12.3741 4.60811 12.375 5.50293V7.19043H14.625C14.9234 7.19043 15.2095 7.30896 15.4205 7.51993C15.6315 7.73091 15.75 8.01706 15.75 8.31543V16.1904C15.75 16.4888 15.6315 16.7749 15.4205 16.9859C15.2095 17.1969 14.9234 17.3154 14.625 17.3154H3.375C3.07663 17.3154 2.79048 17.1969 2.57951 16.9859C2.36853 16.7749 2.25 16.4888 2.25 16.1904V8.31543C2.25 8.01706 2.36853 7.73091 2.57951 7.51993C2.79048 7.30896 3.07663 7.19043 3.375 7.19043ZM3.375 16.1904H14.625V8.31543H3.375V16.1904Z" fill="#767676"/>
</svg>
