<svg width="22" height="22" viewBox="0 0 22 22" fill="none" xmlns="http://www.w3.org/2000/svg">
<path d="M10.3125 18.5625C10.3125 18.7448 10.2401 18.9197 10.1111 19.0486C9.9822 19.1776 9.80734 19.25 9.625 19.25H4.125C3.94266 19.25 3.7678 19.1776 3.63886 19.0486C3.50993 18.9197 3.4375 18.7448 3.4375 18.5625V3.4375C3.4375 3.25516 3.50993 3.0803 3.63886 2.95136C3.7678 2.82243 3.94266 2.75 4.125 2.75H9.625C9.80734 2.75 9.9822 2.82243 10.1111 2.95136C10.2401 3.0803 10.3125 3.25516 10.3125 3.4375C10.3125 3.61984 10.2401 3.7947 10.1111 3.92364C9.9822 4.05257 9.80734 4.125 9.625 4.125H4.8125V17.875H9.625C9.80734 17.875 9.9822 17.9474 10.1111 18.0764C10.2401 18.2053 10.3125 18.3802 10.3125 18.5625ZM19.7364 10.5136L16.2989 7.07609C16.1699 6.94709 15.9949 6.87462 15.8125 6.87462C15.6301 6.87462 15.4551 6.94709 15.3261 7.07609C15.1971 7.2051 15.1246 7.38006 15.1246 7.5625C15.1246 7.74494 15.1971 7.9199 15.3261 8.04891L17.5905 10.3125H9.625C9.44266 10.3125 9.2678 10.3849 9.13886 10.5139C9.00993 10.6428 8.9375 10.8177 8.9375 11C8.9375 11.1823 9.00993 11.3572 9.13886 11.4861C9.2678 11.6151 9.44266 11.6875 9.625 11.6875H17.5905L15.3261 13.9511C15.1971 14.0801 15.1246 14.2551 15.1246 14.4375C15.1246 14.6199 15.1971 14.7949 15.3261 14.9239C15.4551 15.0529 15.6301 15.1254 15.8125 15.1254C15.9949 15.1254 16.1699 15.0529 16.2989 14.9239L19.7364 11.4864C19.8003 11.4226 19.851 11.3467 19.8856 11.2633C19.9202 11.1798 19.938 11.0903 19.938 11C19.938 10.9097 19.9202 10.8202 19.8856 10.7367C19.851 10.6533 19.8003 10.5774 19.7364 10.5136Z" fill="#565656"/>
</svg>
