<svg width="22" height="22" viewBox="0 0 22 22" fill="none" xmlns="http://www.w3.org/2000/svg">
<path d="M12.1739 11.4864L8.73641 14.9239C8.67253 14.9878 8.5967 15.0385 8.51324 15.073C8.42978 15.1076 8.34033 15.1254 8.25 15.1254C8.15967 15.1254 8.07022 15.1076 7.98676 15.073C7.9033 15.0385 7.82747 14.9878 7.76359 14.9239C7.69972 14.86 7.64905 14.7842 7.61448 14.7007C7.57991 14.6173 7.56212 14.5278 7.56212 14.4375C7.56212 14.3472 7.57991 14.2577 7.61448 14.1743C7.64905 14.0908 7.69972 14.015 7.76359 13.9511L10.028 11.6875H2.0625C1.88016 11.6875 1.7053 11.6151 1.57636 11.4861C1.44743 11.3572 1.375 11.1823 1.375 11C1.375 10.8177 1.44743 10.6428 1.57636 10.5139C1.7053 10.3849 1.88016 10.3125 2.0625 10.3125H10.028L7.76359 8.04891C7.63459 7.9199 7.56212 7.74494 7.56212 7.5625C7.56212 7.38006 7.63459 7.2051 7.76359 7.07609C7.8926 6.94709 8.06756 6.87462 8.25 6.87462C8.43244 6.87462 8.6074 6.94709 8.73641 7.07609L12.1739 10.5136C12.2378 10.5774 12.2885 10.6533 12.3231 10.7367C12.3577 10.8202 12.3755 10.9097 12.3755 11C12.3755 11.0903 12.3577 11.1798 12.3231 11.2633C12.2885 11.3467 12.2378 11.4226 12.1739 11.4864ZM17.1875 2.75H11.6875C11.5052 2.75 11.3303 2.82243 11.2014 2.95136C11.0724 3.0803 11 3.25516 11 3.4375C11 3.61984 11.0724 3.7947 11.2014 3.92364C11.3303 4.05257 11.5052 4.125 11.6875 4.125H16.5V17.875H11.6875C11.5052 17.875 11.3303 17.9474 11.2014 18.0764C11.0724 18.2053 11 18.3802 11 18.5625C11 18.7448 11.0724 18.9197 11.2014 19.0486C11.3303 19.1776 11.5052 19.25 11.6875 19.25H17.1875C17.3698 19.25 17.5447 19.1776 17.6736 19.0486C17.8026 18.9197 17.875 18.7448 17.875 18.5625V3.4375C17.875 3.25516 17.8026 3.0803 17.6736 2.95136C17.5447 2.82243 17.3698 2.75 17.1875 2.75Z" fill="#212121"/>
</svg>
