<svg width="21" height="21" viewBox="0 0 21 21" fill="none" xmlns="http://www.w3.org/2000/svg">
<g clip-path="url(#clip0_1_63)">
<path d="M0.21875 15.05C1.00625 14.4375 1.96875 14.0875 3.01875 14.0875H3.28125V0.350006C1.53125 0.787506 0.21875 2.31876 0.21875 4.06876V15.05Z" fill="#C4C4C4"/>
<path d="M2.58124 17.4562H19.7312C19.8187 16.8437 19.95 16.2312 20.2125 15.6187H3.01874C2.18749 15.6187 1.44374 15.925 0.91874 16.45C0.43749 16.9312 0.17499 17.5437 0.21874 18.2C0.21874 18.8562 0.48124 19.4687 0.91874 19.95C1.44374 20.475 2.18749 20.7812 3.01874 20.7812H20.2125C19.95 20.2125 19.775 19.5562 19.7312 18.9437H2.58124V17.4562Z" fill="#C4C4C4"/>
<path d="M20.7812 0.21875H4.76874V14.0875H20.7812V0.21875ZM17.7625 9.58125H8.18124V8.09375H17.7187V9.58125H17.7625ZM8.18124 6.3V4.8125H17.7187V6.3H8.18124Z" fill="#C4C4C4"/>
</g>
<defs>
<clipPath id="clip0_1_63">
<rect width="21" height="21" fill="white"/>
</clipPath>
</defs>
</svg>
