<svg width="20" height="20" viewBox="0 0 20 20" fill="none" xmlns="http://www.w3.org/2000/svg">
<path d="M8.75 3.73038C8.75 4.0619 8.8817 4.37984 9.11612 4.61426C9.35054 4.84868 9.66848 4.98038 10 4.98038C10.3315 4.98038 10.6495 4.84868 10.8839 4.61426C11.1183 4.37984 11.25 4.0619 11.25 3.73038C11.25 3.39886 11.1183 3.08091 10.8839 2.84649C10.6495 2.61207 10.3315 2.48038 10 2.48038C9.66848 2.48038 9.35054 2.61207 9.11612 2.84649C8.8817 3.08091 8.75 3.39886 8.75 3.73038ZM8.75 9.98038C8.75 10.3119 8.8817 10.6298 9.11612 10.8643C9.35054 11.0987 9.66848 11.2304 10 11.2304C10.3315 11.2304 10.6495 11.0987 10.8839 10.8643C11.1183 10.6298 11.25 10.3119 11.25 9.98038C11.25 9.64886 11.1183 9.33091 10.8839 9.09649C10.6495 8.86207 10.3315 8.73038 10 8.73038C9.66848 8.73038 9.35054 8.86207 9.11612 9.09649C8.8817 9.33091 8.75 9.64886 8.75 9.98038ZM8.75 16.2304C8.75 16.5619 8.8817 16.8798 9.11612 17.1143C9.35054 17.3487 9.66848 17.4804 10 17.4804C10.3315 17.4804 10.6495 17.3487 10.8839 17.1143C11.1183 16.8798 11.25 16.5619 11.25 16.2304C11.25 15.8989 11.1183 15.5809 10.8839 15.3465C10.6495 15.1121 10.3315 14.9804 10 14.9804C9.66848 14.9804 9.35054 15.1121 9.11612 15.3465C8.8817 15.5809 8.75 15.8989 8.75 16.2304Z" fill="#212121"/>
</svg>
