<svg width="15" height="15" viewBox="0 0 15 15" fill="none" xmlns="http://www.w3.org/2000/svg">
<g clip-path="url(#clip0_1_48)">
<path d="M13.5938 7.03151C13.4694 7.03151 13.3502 7.0809 13.2623 7.1688C13.1744 7.25671 13.125 7.37594 13.125 7.50026V11.719C13.125 12.092 12.9768 12.4497 12.7131 12.7134C12.4494 12.9771 12.0917 13.1253 11.7188 13.1253H3.28125C2.90829 13.1253 2.5506 12.9771 2.28688 12.7134C2.02316 12.4497 1.875 12.092 1.875 11.719V3.28151C1.875 2.90855 2.02316 2.55086 2.28688 2.28714C2.5506 2.02342 2.90829 1.87526 3.28125 1.87526H7.5C7.62432 1.87526 7.74355 1.82587 7.83146 1.73797C7.91936 1.65006 7.96875 1.53083 7.96875 1.40651C7.96875 1.28219 7.91936 1.16296 7.83146 1.07505C7.74355 0.987145 7.62432 0.937759 7.5 0.937759H3.28125C2.65965 0.937759 2.06351 1.18469 1.62397 1.62423C1.18443 2.06377 0.9375 2.65991 0.9375 3.28151V11.719C0.9375 12.3406 1.18443 12.9368 1.62397 13.3763C2.06351 13.8158 2.65965 14.0628 3.28125 14.0628H11.7188C12.3404 14.0628 12.9365 13.8158 13.376 13.3763C13.8156 12.9368 14.0625 12.3406 14.0625 11.719V7.50026C14.0625 7.37594 14.0131 7.25671 13.9252 7.1688C13.8373 7.0809 13.7181 7.03151 13.5938 7.03151Z" fill="#8EAAF1"/>
<path d="M10.3125 1.875H12.4641L7.16722 7.16719C7.12328 7.21076 7.08841 7.26261 7.06461 7.31973C7.04082 7.37685 7.02856 7.43812 7.02856 7.5C7.02856 7.56188 7.04082 7.62315 7.06461 7.68027C7.08841 7.73739 7.12328 7.78924 7.16722 7.83281C7.2108 7.87675 7.26264 7.91162 7.31976 7.93542C7.37688 7.95922 7.43815 7.97147 7.50003 7.97147C7.56191 7.97147 7.62318 7.95922 7.6803 7.93542C7.73742 7.91162 7.78927 7.87675 7.83284 7.83281L13.125 2.54063V4.6875C13.125 4.81182 13.1744 4.93105 13.2623 5.01896C13.3502 5.10686 13.4695 5.15625 13.5938 5.15625C13.7181 5.15625 13.8373 5.10686 13.9252 5.01896C14.0131 4.93105 14.0625 4.81182 14.0625 4.6875V1.40625C14.0629 1.34456 14.0511 1.28341 14.0277 1.22629C14.0044 1.16918 13.97 1.11724 13.9266 1.07344C13.8828 1.02999 13.8308 0.995622 13.7737 0.972295C13.7166 0.948968 13.6555 0.937144 13.5938 0.9375H10.3125C10.1882 0.9375 10.069 0.986886 9.98108 1.07479C9.89317 1.1627 9.84378 1.28193 9.84378 1.40625C9.84378 1.53057 9.89317 1.6498 9.98108 1.73771C10.069 1.82561 10.1882 1.875 10.3125 1.875Z" fill="#8EAAF1"/>
</g>
<defs>
<clipPath id="clip0_1_48">
<rect width="15" height="15" fill="white"/>
</clipPath>
</defs>
</svg>
