<svg width="19" height="18" viewBox="0 0 19 18" fill="none" xmlns="http://www.w3.org/2000/svg">
<path d="M9.88689 10.2536L9.89291 10.2254C10.0094 9.74531 10.1561 9.14665 10.0416 8.60424C9.96523 8.17634 9.64983 8.0096 9.38064 7.99754C9.06323 7.98348 8.77997 8.16429 8.70965 8.42745C8.57707 8.9096 8.69559 9.56853 8.91256 10.4083C8.63934 11.0592 8.2034 12.0054 7.88399 12.5679C7.28934 12.8752 6.4918 13.3493 6.37327 13.948C6.34916 14.0585 6.37729 14.1991 6.44358 14.3257C6.51791 14.4663 6.63644 14.5748 6.77506 14.627C6.83532 14.6491 6.90765 14.6672 6.99202 14.6672C7.34559 14.6672 7.91814 14.3819 8.68153 13.0721C8.79805 13.0339 8.91858 12.9937 9.0351 12.9536C9.58153 12.7687 10.148 12.5759 10.6603 12.4895C11.2268 12.7929 11.8717 12.9877 12.3097 12.9877C12.7436 12.9877 12.9143 12.7306 12.9786 12.5759C13.0911 12.3047 13.0369 11.9632 12.8541 11.7804C12.5889 11.5192 11.944 11.4509 10.9396 11.5754C10.4454 11.2741 10.1219 10.8643 9.88689 10.2536ZM7.68309 13.3051C7.40385 13.7109 7.19291 13.9138 7.0784 14.0022C7.213 13.7551 7.47617 13.494 7.68309 13.3051ZM9.44291 8.57411C9.54738 8.7529 9.53332 9.2933 9.45296 9.56652C9.35452 9.16674 9.34046 8.60022 9.39872 8.53393C9.41479 8.53594 9.42885 8.54799 9.44291 8.57411ZM9.41077 10.9949C9.62573 11.3665 9.89693 11.6859 10.1963 11.923C9.76233 12.0214 9.36657 12.1842 9.013 12.3288C8.92863 12.3629 8.84626 12.3971 8.7659 12.4292C9.03309 11.9451 9.25608 11.3967 9.41077 10.9949ZM12.5367 12.3107C12.5387 12.3147 12.5407 12.3208 12.5286 12.3288H12.5246L12.5206 12.3348C12.5045 12.3449 12.3398 12.4413 11.6306 12.1621C12.4463 12.1239 12.5347 12.3087 12.5367 12.3107ZM16.3818 4.51205L12.0585 0.188839C11.938 0.0683036 11.7753 0 11.6045 0H3.07059C2.71501 0 2.42773 0.287277 2.42773 0.642857V17.3571C2.42773 17.7127 2.71501 18 3.07059 18H15.9277C16.2833 18 16.5706 17.7127 16.5706 17.3571V4.96808C16.5706 4.79732 16.5023 4.63259 16.3818 4.51205ZM15.088 5.26339H11.3072V1.48259L15.088 5.26339ZM15.1242 16.5536H3.87416V1.44643H9.94113V5.78571C9.94113 6.00949 10.03 6.2241 10.1883 6.38234C10.3465 6.54057 10.5611 6.62946 10.7849 6.62946H15.1242V16.5536Z" fill="#212121"/>
</svg>
