<svg width="16" height="17" viewBox="0 0 16 17" fill="none" xmlns="http://www.w3.org/2000/svg">
<path d="M13.2773 3.94531H10.7773V3.44531C10.7773 3.04749 10.6193 2.66596 10.338 2.38465C10.0567 2.10335 9.67517 1.94531 9.27734 1.94531H6.27734C5.87952 1.94531 5.49799 2.10335 5.21668 2.38465C4.93538 2.66596 4.77734 3.04749 4.77734 3.44531V3.94531H2.27734C2.14474 3.94531 2.01756 3.99799 1.92379 4.09176C1.83002 4.18553 1.77734 4.3127 1.77734 4.44531C1.77734 4.57792 1.83002 4.7051 1.92379 4.79887C2.01756 4.89263 2.14474 4.94531 2.27734 4.94531H2.77734V13.9453C2.77734 14.2105 2.8827 14.4649 3.07024 14.6524C3.25777 14.84 3.51213 14.9453 3.77734 14.9453H11.7773C12.0426 14.9453 12.2969 14.84 12.4845 14.6524C12.672 14.4649 12.7773 14.2105 12.7773 13.9453V4.94531H13.2773C13.41 4.94531 13.5371 4.89263 13.6309 4.79887C13.7247 4.7051 13.7773 4.57792 13.7773 4.44531C13.7773 4.3127 13.7247 4.18553 13.6309 4.09176C13.5371 3.99799 13.41 3.94531 13.2773 3.94531ZM5.77734 3.44531C5.77734 3.3127 5.83002 3.18553 5.92379 3.09176C6.01756 2.99799 6.14474 2.94531 6.27734 2.94531H9.27734C9.40995 2.94531 9.53713 2.99799 9.6309 3.09176C9.72467 3.18553 9.77734 3.3127 9.77734 3.44531V3.94531H5.77734V3.44531ZM11.7773 13.9453H3.77734V4.94531H11.7773V13.9453ZM6.77734 7.44531V11.4453C6.77734 11.5779 6.72467 11.7051 6.6309 11.7989C6.53713 11.8926 6.40995 11.9453 6.27734 11.9453C6.14474 11.9453 6.01756 11.8926 5.92379 11.7989C5.83002 11.7051 5.77734 11.5779 5.77734 11.4453V7.44531C5.77734 7.3127 5.83002 7.18553 5.92379 7.09176C6.01756 6.99799 6.14474 6.94531 6.27734 6.94531C6.40995 6.94531 6.53713 6.99799 6.6309 7.09176C6.72467 7.18553 6.77734 7.3127 6.77734 7.44531ZM9.77734 7.44531V11.4453C9.77734 11.5779 9.72467 11.7051 9.6309 11.7989C9.53713 11.8926 9.40995 11.9453 9.27734 11.9453C9.14474 11.9453 9.01756 11.8926 8.92379 11.7989C8.83002 11.7051 8.77734 11.5779 8.77734 11.4453V7.44531C8.77734 7.3127 8.83002 7.18553 8.92379 7.09176C9.01756 6.99799 9.14474 6.94531 9.27734 6.94531C9.40995 6.94531 9.53713 6.99799 9.6309 7.09176C9.72467 7.18553 9.77734 7.3127 9.77734 7.44531Z" fill="#363636"/>
</svg>
