<svg width="18" height="18" viewBox="0 0 18 18" fill="none" xmlns="http://www.w3.org/2000/svg">
<path d="M15.8818 4.51205L11.5585 0.188839C11.438 0.0683036 11.2753 0 11.1045 0H2.57059C2.21501 0 1.92773 0.287277 1.92773 0.642857V17.3571C1.92773 17.7127 2.21501 18 2.57059 18H15.4277C15.7833 18 16.0706 17.7127 16.0706 17.3571V4.96808C16.0706 4.79732 16.0023 4.63259 15.8818 4.51205ZM14.588 5.26339H10.8072V1.48259L14.588 5.26339ZM14.6242 16.5536H3.37416V1.44643H9.44113V5.78571C9.44113 6.00949 9.53002 6.2241 9.68826 6.38234C9.84649 6.54057 10.0611 6.62946 10.2849 6.62946H14.6242V16.5536ZM8.83845 11.1295H5.14202C5.05363 11.1295 4.98131 11.2018 4.98131 11.2902V12.2545C4.98131 12.3429 5.05363 12.4152 5.14202 12.4152H8.83845C8.92684 12.4152 8.99916 12.3429 8.99916 12.2545V11.2902C8.99916 11.2018 8.92684 11.1295 8.83845 11.1295ZM4.98131 8.55804V9.52232C4.98131 9.61071 5.05363 9.68304 5.14202 9.68304H12.8563C12.9447 9.68304 13.017 9.61071 13.017 9.52232V8.55804C13.017 8.46964 12.9447 8.39732 12.8563 8.39732H5.14202C5.05363 8.39732 4.98131 8.46964 4.98131 8.55804Z" fill="#212121"/>
</svg>
