<svg width="15" height="16" viewBox="0 0 15 16" fill="none" xmlns="http://www.w3.org/2000/svg">
<path d="M12.4473 3.73047H10.1035V3.26172C10.1035 2.88876 9.95536 2.53107 9.69163 2.26735C9.42791 2.00363 9.07023 1.85547 8.69727 1.85547H5.88477C5.5118 1.85547 5.15412 2.00363 4.8904 2.26735C4.62667 2.53107 4.47852 2.88876 4.47852 3.26172V3.73047H2.13477C2.01045 3.73047 1.89122 3.77985 1.80331 3.86776C1.7154 3.95567 1.66602 4.0749 1.66602 4.19922C1.66602 4.32354 1.7154 4.44277 1.80331 4.53067C1.89122 4.61858 2.01045 4.66797 2.13477 4.66797H2.60352V13.1055C2.60352 13.3541 2.70229 13.5926 2.8781 13.7684C3.05392 13.9442 3.29238 14.043 3.54102 14.043H11.041C11.2897 14.043 11.5281 13.9442 11.7039 13.7684C11.8797 13.5926 11.9785 13.3541 11.9785 13.1055V4.66797H12.4473C12.5716 4.66797 12.6908 4.61858 12.7787 4.53067C12.8666 4.44277 12.916 4.32354 12.916 4.19922C12.916 4.0749 12.8666 3.95567 12.7787 3.86776C12.6908 3.77985 12.5716 3.73047 12.4473 3.73047ZM5.41602 3.26172C5.41602 3.1374 5.4654 3.01817 5.55331 2.93026C5.64122 2.84235 5.76045 2.79297 5.88477 2.79297H8.69727C8.82159 2.79297 8.94081 2.84235 9.02872 2.93026C9.11663 3.01817 9.16602 3.1374 9.16602 3.26172V3.73047H5.41602V3.26172ZM11.041 13.1055H3.54102V4.66797H11.041V13.1055ZM6.35352 7.01172V10.7617C6.35352 10.886 6.30413 11.0053 6.21622 11.0932C6.12831 11.1811 6.00909 11.2305 5.88477 11.2305C5.76045 11.2305 5.64122 11.1811 5.55331 11.0932C5.4654 11.0053 5.41602 10.886 5.41602 10.7617V7.01172C5.41602 6.8874 5.4654 6.76817 5.55331 6.68026C5.64122 6.59235 5.76045 6.54297 5.88477 6.54297C6.00909 6.54297 6.12831 6.59235 6.21622 6.68026C6.30413 6.76817 6.35352 6.8874 6.35352 7.01172ZM9.16602 7.01172V10.7617C9.16602 10.886 9.11663 11.0053 9.02872 11.0932C8.94081 11.1811 8.82159 11.2305 8.69727 11.2305C8.57295 11.2305 8.45372 11.1811 8.36581 11.0932C8.2779 11.0053 8.22852 10.886 8.22852 10.7617V7.01172C8.22852 6.8874 8.2779 6.76817 8.36581 6.68026C8.45372 6.59235 8.57295 6.54297 8.69727 6.54297C8.82159 6.54297 8.94081 6.59235 9.02872 6.68026C9.11663 6.76817 9.16602 6.8874 9.16602 7.01172Z" fill="#FF4D4F"/>
</svg>
