<svg width="19" height="19" viewBox="0 0 19 19" fill="none" xmlns="http://www.w3.org/2000/svg">
<g clip-path="url(#clip0_862_29642)">
<path d="M18.3694 8.84378C18.3448 8.78824 17.7493 7.46706 16.4253 6.14308C14.6612 4.37894 12.433 3.44659 9.98046 3.44659C7.52796 3.44659 5.29976 4.37894 3.53562 6.14308C2.21163 7.46706 1.61327 8.79034 1.59148 8.84378C1.55949 8.91572 1.54297 8.99357 1.54297 9.0723C1.54297 9.15102 1.55949 9.22887 1.59148 9.30081C1.61609 9.35636 2.21163 10.6768 3.53562 12.0008C5.29976 13.7643 7.52796 14.6966 9.98046 14.6966C12.433 14.6966 14.6612 13.7643 16.4253 12.0008C17.7493 10.6768 18.3448 9.35636 18.3694 9.30081C18.4014 9.22887 18.418 9.15102 18.418 9.0723C18.418 8.99357 18.4014 8.91572 18.3694 8.84378ZM9.98046 13.5716C7.81624 13.5716 5.92554 12.7848 4.36038 11.2337C3.71818 10.5951 3.17181 9.8668 2.73827 9.07159C3.1717 8.27632 3.71808 7.54805 4.36038 6.90948C5.92554 5.35839 7.81624 4.57159 9.98046 4.57159C12.1447 4.57159 14.0354 5.35839 15.6005 6.90948C16.244 7.54789 16.7916 8.27616 17.2262 9.07159C16.7192 10.018 14.5107 13.5716 9.98046 13.5716ZM9.98046 5.69659C9.31295 5.69659 8.66043 5.89453 8.10541 6.26538C7.5504 6.63623 7.11781 7.16334 6.86237 7.78004C6.60692 8.39674 6.54009 9.07534 6.67031 9.73002C6.80054 10.3847 7.12197 10.9861 7.59398 11.4581C8.06598 11.9301 8.66735 12.2515 9.32203 12.3817C9.97672 12.512 10.6553 12.4451 11.272 12.1897C11.8887 11.9342 12.4158 11.5017 12.7867 10.9466C13.1575 10.3916 13.3555 9.73911 13.3555 9.07159C13.3545 8.17677 12.9987 7.31887 12.3659 6.68614C11.7332 6.0534 10.8753 5.69752 9.98046 5.69659ZM9.98046 11.3216C9.53545 11.3216 9.10044 11.1896 8.73043 10.9424C8.36042 10.6952 8.07203 10.3438 7.90173 9.93263C7.73144 9.5215 7.68688 9.0691 7.7737 8.63264C7.86051 8.19618 8.0748 7.79527 8.38947 7.4806C8.70414 7.16594 9.10505 6.95164 9.54151 6.86483C9.97797 6.77801 10.4304 6.82257 10.8415 6.99287C11.2526 7.16316 11.604 7.45155 11.8513 7.82156C12.0985 8.19157 12.2305 8.62659 12.2305 9.07159C12.2305 9.66833 11.9934 10.2406 11.5715 10.6626C11.1495 11.0845 10.5772 11.3216 9.98046 11.3216Z" fill="#212121"/>
</g>
<defs>
<clipPath id="clip0_862_29642">
<rect width="18" height="18" fill="white" transform="translate(0.980469 0.0715942)"/>
</clipPath>
</defs>
</svg>
