<svg xmlns="http://www.w3.org/2000/svg" width="13" height="15" viewBox="0 0 13 15">
  <path id="패스_2527" data-name="패스 2527" d="M43.648,5.866,37.49.137a.508.508,0,0,0-.7.01L30.97,5.876a.525.525,0,0,0-.156.374v8.229a.517.517,0,0,0,.513.521H35.6a.517.517,0,0,0,.513-.521V10.659h2.395v3.819a.517.517,0,0,0,.513.521H43.3a.517.517,0,0,0,.513-.521V6.25A.525.525,0,0,0,43.648,5.866Zm-.86,8.092h-3.25V10.139a.517.517,0,0,0-.513-.521H35.6a.517.517,0,0,0-.513.521v3.819H31.84V6.47l5.313-5.234,5.635,5.242v7.479Z" transform="translate(-30.814 0)" fill="#fff"/>
</svg>
