<svg width="320" height="181" viewBox="0 0 320 181" fill="none" xmlns="http://www.w3.org/2000/svg">
<mask id="mask0_154_183" style="mask-type:alpha" maskUnits="userSpaceOnUse" x="0" y="0" width="320" height="181">
<rect width="320" height="181" fill="#D9D9D9"/>
</mask>
<g mask="url(#mask0_154_183)">
<path d="M268 0V169.284C268 169.979 268.588 170.674 269.758 171.206C272.1 172.265 275.9 172.265 278.242 171.206C279.412 170.674 280 169.979 280 169.284V0H268.005H268Z" fill="url(#paint0_linear_154_183)"/>
<path opacity="0.5" d="M5.58389 172.004H314.516C314.516 172.004 322.506 146.522 308.497 132.442C291.509 115.373 272.943 122.151 265.478 115.28C255.581 106.174 256.998 64.0039 195.621 64.0039C158.91 64.0039 144.762 102.417 132.942 102.417C117.901 102.417 97.0309 83.4383 59.1963 90.9899C-6.01764 104.009 5.58389 172.004 5.58389 172.004Z" fill="#DBF1FF"/>
<path d="M2.78491 173.504C2.78491 177.646 73.7468 181.004 161.285 181.004C248.823 181.004 319.785 177.646 319.785 173.504C319.785 169.362 248.823 166.004 161.285 166.004C73.7468 166.004 2.78491 169.362 2.78491 173.504Z" fill="#C5EAE2"/>
<g opacity="0.7">
<path d="M258.508 41.3032C257.201 41.3032 256.141 40.2566 256.141 38.9655C256.141 37.6745 257.201 36.6279 258.508 36.6279C259.816 36.6279 260.876 37.6745 260.876 38.9655C260.876 40.2566 259.816 41.3032 258.508 41.3032Z" fill="#848E96"/>
<path d="M259.704 37.3056C259.704 38.293 257.332 38.3317 257.376 37.3056V34.8857H259.704V37.3056Z" fill="#BBCAD5"/>
<path d="M259.552 40.9492C258.685 40.4604 259.832 38.4083 260.709 38.9552L268.728 43.4901L267.571 45.4841L259.552 40.9492Z" fill="#BBCAD5"/>
<path d="M260.881 33.5202C260.881 34.8125 259.822 35.8579 258.513 35.8579C257.204 35.8579 256.146 34.8125 256.146 33.5202C256.146 32.228 257.204 31.1826 258.513 31.1826C259.822 31.1826 260.881 32.228 260.881 33.5202Z" fill="#848E96"/>
<path d="M253.896 34.2849L254.239 35.098L259.253 33.7622L262.719 31.8166L262.4 31.1777L253.896 34.2849Z" fill="#575E63"/>
<path d="M242.602 24.7411L237.632 27.6402V30.515L239.745 33.1527L240.872 33.2543L241.622 33.0317L242.843 35.6355L245.039 36.6228L260.88 32.4461L265.351 29.8858L266.008 27.4853L264.65 24.5766L265.297 24.1943L264.292 20.9903L261.542 19.79L242.602 24.7411Z" fill="#DAECFA"/>
<path d="M245.039 36.6225L242.843 35.6352L258.763 31.5068L260.881 32.4458L245.039 36.6225Z" fill="#575E63"/>
<path d="M258.763 31.5071L260.88 32.446L265.351 29.8858L266.008 27.4852L264.65 24.5765L263.336 21.842L261.302 20.8789L257.204 23.2552L256.646 25.68L257.44 28.6613L258.763 31.5071Z" fill="#BBCAD5"/>
<path d="M241.622 33.0315L242.843 35.6353L258.763 31.5069L257.44 28.6611L256.807 29.0774L241.622 33.0315Z" fill="#575E63"/>
<path d="M237.632 30.5154L255.881 25.7627L256.807 29.078L241.622 33.0321L240.872 33.2547L239.745 33.1531L237.632 30.5154Z" fill="#848E96"/>
<path d="M261.302 20.879L261.675 20.666L263.826 21.5807L264.65 24.5766L263.336 21.8421L261.302 20.879Z" fill="#575E63"/>
<path d="M237.632 30.515V27.6402L256.646 22.6504L255.881 25.7624L237.632 30.515Z" fill="#BBCAD5"/>
<path d="M267.096 42.3769V49.3752L268.346 50.106L271.924 48.1556V41.1766L270.566 40.3926L267.096 42.3769Z" fill="#575E63"/>
<path d="M268.346 50.1061V43.0981L267.096 42.377V49.3753L268.346 50.1061Z" fill="#575E63"/>
<path d="M267.096 42.3769L268.346 43.098L271.924 41.1766L270.566 40.3926L267.096 42.3769Z" fill="#DAECFA"/>
<path d="M267.12 57.967V64.9653L270.61 66.969L272.007 66.2478V59.2785L268.404 57.2168L267.12 57.967Z" fill="#BBCAD5"/>
<path d="M267.12 57.9668V64.9651L270.61 66.9688V59.8882L267.12 57.9668Z" fill="#DAECFA"/>
<path d="M259.238 66.5965L268.375 61.4421C269.145 61.0453 270.213 63.0586 269.468 63.4894L260.018 68.9632L259.238 66.6013V66.5965Z" fill="#BBCAD5"/>
<path d="M260.969 68.4791C260.969 69.781 259.9 70.836 258.582 70.836C257.263 70.836 256.195 69.781 256.195 68.4791C256.195 67.1771 257.263 66.1221 258.582 66.1221C259.9 66.1221 260.969 67.1771 260.969 68.4791Z" fill="#848E96"/>
<path d="M257.332 66.7804C257.332 66.7804 257.592 67.4434 258.582 67.3708C259.577 67.2982 259.719 66.7997 259.734 66.4174C259.748 66.0351 259.636 62.2891 259.636 62.2891L257.332 66.7852V66.7804Z" fill="#BBCAD5"/>
<path d="M267.238 56.9698L248.901 75.9708L247.984 76.4015L243.446 73.8558L243.039 73.3186L237.377 70.1533L237 69.7468L258.141 47.8661L259.238 47.416L264.189 50.2667L266.61 52.7011L266.998 55.4888L266.669 55.8034L267.238 56.9698Z" fill="#DAECFA"/>
<path d="M267.238 56.9699L248.901 75.9709L247.984 76.4016L243.446 73.8559L243.039 73.3187L266.61 52.7012L266.998 55.4889L266.669 55.8035L267.238 56.9699Z" fill="#575E63"/>
<path d="M237 69.7468L237.377 70.1533L259.238 47.416L258.141 47.8613L237 69.7468Z" fill="#BBCAD5"/>
<path d="M264.189 50.2666L266.61 52.701L245.534 74.6156L242.372 72.9459L264.189 50.2666Z" fill="#BBCAD5"/>
<path d="M270.61 59.8881V66.9687L272.007 66.2476V59.2783L270.61 59.8881Z" fill="#575E63"/>
<path d="M281.531 48.7365V55.6816L278.07 57.666L276.683 56.9497V50.0384L280.256 47.9912L281.531 48.7365Z" fill="#BBCAD5"/>
<path d="M281.531 48.7363V55.6814L278.07 57.6657V50.6432L281.531 48.7363Z" fill="#DAECFA"/>
<path d="M289.354 57.2934L280.286 52.1777C279.526 51.7808 278.462 53.7845 279.203 54.2056L288.579 59.6358L289.354 57.2934Z" fill="#BBCAD5"/>
<path d="M278.07 50.644V57.6666L276.683 56.9503V50.0391L278.07 50.644Z" fill="#575E63"/>
<path d="M282.893 40.7559L282.8 43.6017L287.962 65.1678H288.413V66.1357L290.334 67.1763L296.358 66.4987L298.284 65.1145L298.495 63.3432L298.76 64.0207H299.632L300 63.1883L294.51 39.5314L292.211 38.2295L285.374 38.9603L282.893 40.7559Z" fill="#DAECFA"/>
<path d="M282.893 40.7559L288.462 64.4127L291.138 63.4932L297.932 62.7817L300 63.1883L299.632 64.0207H298.76L298.495 63.3432L297.834 63.1254L291.202 63.7594L289.221 64.4805L288.878 65.1532L288.413 65.1678H287.962L282.8 43.6017L282.893 40.7559Z" fill="#575E63"/>
<path d="M298.495 63.3428L298.284 65.119L296.358 66.4983L290.334 67.1759L288.413 66.1354V65.1674L288.878 65.1529L289.221 64.4801L289.501 64.3785L290.354 64.0688L291.202 63.759L296.304 63.2702L297.618 63.1492L297.834 63.125L298.495 63.3428Z" fill="#BBCAD5"/>
<path d="M297.618 63.1494C297.314 64.8675 295.084 66.0048 292.898 66.1694C290.957 66.3146 289.756 65.4289 289.501 64.3787L290.354 64.0689L291.202 63.7592L296.304 63.2704L297.618 63.1445V63.1494Z" fill="#575E63"/>
<path d="M296.304 63.2705C296.02 64.3352 294.608 65.1483 293.03 65.1483C291.834 65.1483 290.707 64.8773 290.354 64.0642L291.202 63.7544L296.304 63.2656V63.2705Z" fill="#34383B"/>
<path d="M285.374 38.96L291.138 63.4929L288.462 64.4124L282.893 40.7555L285.374 38.96Z" fill="#BBCAD5"/>
<path d="M292.211 38.2295L297.932 62.7817L300 63.1883L294.51 39.5314L292.211 38.2295Z" fill="#BBCAD5"/>
</g>
<path d="M19.6325 168.165C19.6325 168.165 30.5431 148.108 23.3036 145.556C18.5193 143.867 16.964 162.632 16.964 162.632C16.964 162.632 16.5377 141.83 10.1903 144.493C5.39819 146.499 11.8009 161.514 11.8009 161.514C11.8009 161.514 4.84556 155.854 3.96923 159.405C2.57186 165.058 10.5772 168.268 10.5772 168.268L19.6404 168.165H19.6325Z" fill="#A2DDD0"/>
<path d="M17.3825 168.189L22.6641 151.565C22.6957 151.47 22.6404 151.375 22.5536 151.343C22.4588 151.311 22.3641 151.359 22.3325 151.454L17.0114 168.189H17.3746H17.3825Z" fill="#E0FBF0"/>
<path d="M16.0088 168.205L12.2272 150.082C12.2114 149.987 12.1166 149.924 12.0219 149.947C11.9272 149.971 11.864 150.058 11.8877 150.154L15.6614 168.205H16.0167H16.0088Z" fill="#E0FBF0"/>
<path d="M14.0667 168.229L6.87451 162.014C6.80346 161.95 6.69293 161.958 6.62977 162.03C6.56661 162.101 6.57451 162.212 6.64556 162.275L13.5377 168.237H14.0588L14.0667 168.229Z" fill="#E0FBF0"/>
<path d="M27.5904 144.121L27.8825 143.923C27.8825 143.923 25.6641 140.68 22.4667 141.315L22.5378 141.656C25.5141 141.069 27.5746 144.081 27.5983 144.113L27.5904 144.121Z" fill="#A2DDD0"/>
<path d="M0.187644 159.865L0.52712 159.786C0.187644 158.39 0.32975 157.336 0.929754 156.638C1.89292 155.529 3.75609 155.695 3.77977 155.703L3.81135 155.354C3.7324 155.354 1.75081 155.164 0.669226 156.409C-0.00972556 157.193 -0.175516 158.359 0.187644 159.865Z" fill="#A2DDD0"/>
<path d="M272.384 165.897C272.384 165.897 258.173 139.07 269.723 139.356C274.468 139.475 278.565 160.8 278.565 160.8C278.565 160.8 277.634 141.338 287.131 144.39C292.263 146.047 284.494 160.8 284.494 160.8C284.494 160.8 291.529 151.271 295.492 153.974C301.942 158.382 290.108 165.961 290.108 165.961L272.392 165.881L272.384 165.897Z" fill="#A2DDD0"/>
<path d="M266.147 165.874C266.147 165.874 263.644 151.675 258.142 151.913C254.21 152.088 257.755 161.704 261.094 165.858C261.094 165.858 265.989 165.866 266.147 165.866V165.874Z" fill="#A2DDD0"/>
<path d="M275.834 165.914L269.913 144.89C269.873 144.747 269.723 144.668 269.581 144.707C269.439 144.747 269.36 144.89 269.4 145.04L275.273 165.914H275.826H275.834Z" fill="#E0FBF0"/>
<path d="M280.736 165.93L284.842 148.917C284.873 148.774 284.786 148.632 284.644 148.6C284.502 148.576 284.36 148.655 284.321 148.798L280.192 165.937H280.736V165.93Z" fill="#E0FBF0"/>
<path d="M263.557 165.866L259.776 156.376C259.72 156.242 259.57 156.178 259.428 156.226C259.294 156.281 259.223 156.44 259.278 156.567L262.989 165.858H263.557V165.866Z" fill="#E0FBF0"/>
<path d="M285.086 165.953L292.539 157.518C292.634 157.407 292.626 157.24 292.515 157.145C292.405 157.05 292.239 157.058 292.144 157.169L284.384 165.96H285.086V165.953Z" fill="#E0FBF0"/>
<path d="M275.471 138.745C275.471 138.745 275.534 138.745 275.565 138.73C275.7 138.674 275.771 138.524 275.715 138.389C275.621 138.135 273.315 132.15 269.392 130.762C267.947 130.247 266.471 130.429 264.994 131.301C264.868 131.373 264.828 131.539 264.9 131.666C264.971 131.793 265.136 131.833 265.263 131.761C266.597 130.976 267.923 130.81 269.218 131.262C272.913 132.57 275.202 138.516 275.226 138.579C275.265 138.682 275.368 138.753 275.471 138.753V138.745Z" fill="#A2DDD0"/>
<path d="M48.2589 157.899H53.9116C53.8721 157.241 53.8484 156.599 53.8484 155.941C53.8563 153.698 54.109 151.446 54.4011 149.227C54.6774 147.078 55.1116 144.985 55.8774 142.964C56.2879 141.886 56.73 140.816 56.9748 139.69C57.1563 138.818 57.2037 137.93 57.1327 137.042H49.0879C49.1826 138.635 49.2774 140.221 48.7563 141.751C48.48 142.583 48.1721 143.392 47.9668 144.248C47.7694 145.073 47.6352 145.913 47.5563 146.761C47.2089 150.321 47.73 153.92 48.1958 157.44C48.2116 157.59 48.2431 157.741 48.2589 157.892V157.899Z" fill="#FEC9AC"/>
<path d="M53.9984 157.899C54.0616 157.337 54.1248 156.774 54.1721 156.219C54.1721 156.219 52.459 156.409 47.7852 156.147C47.7852 156.147 47.8563 156.932 47.9431 157.899H53.9905H53.9984Z" fill="#98D4FC"/>
<path d="M60.6459 169.276C60.5117 168.547 60.0064 168.063 59.4301 167.675C58.3327 166.937 54.9143 165.954 54.5511 165.629C53.8485 165.003 53.7221 163.972 53.7537 163.069C53.8169 161.158 54.0616 159.24 54.2274 157.337C54.2274 157.337 51.8195 157.932 47.6984 157.258C47.6984 157.258 47.9826 160.675 48.1169 162.387C48.18 163.219 48.259 164.06 48.1958 164.892C48.1405 165.629 47.9826 166.351 47.8326 167.072C47.6826 167.794 47.5405 168.515 47.5168 169.244C47.5168 169.371 47.5168 169.641 47.5168 169.641C47.9747 170.108 49.0484 170.069 49.5537 170.045C50.8327 169.989 52.0642 169.791 53.359 169.879C55.0169 169.982 56.6669 170.259 58.3327 170.322C58.9011 170.346 59.4459 170.338 59.959 170.259C60.6222 170.085 60.6774 169.474 60.638 169.276H60.6459Z" fill="#091317"/>
<path d="M38.5799 157.899H44.2326C44.1931 157.241 44.1615 156.599 44.1694 155.941C44.1773 153.698 44.4299 151.446 44.722 149.227C44.9984 147.078 45.4326 144.985 46.1984 142.964C46.601 141.886 47.051 140.816 47.2878 139.69C47.4773 138.818 47.5247 137.93 47.4457 137.042H39.401C39.4957 138.635 39.5904 140.221 39.0694 141.751C38.7931 142.583 38.4852 143.392 38.2799 144.248C38.0825 145.073 37.9483 145.913 37.8615 146.761C37.5141 150.321 38.0352 153.92 38.5009 157.44C38.5246 157.59 38.5483 157.741 38.5641 157.892L38.5799 157.899Z" fill="#FEC9AC"/>
<path d="M44.3194 157.899C44.3826 157.337 44.4378 156.774 44.4931 156.219C44.4931 156.219 42.7799 156.409 38.1062 156.147C38.1062 156.147 38.1773 156.932 38.2641 157.899H44.3194Z" fill="#98D4FC"/>
<path d="M50.9668 169.276C50.8326 168.547 50.3274 168.063 49.7589 167.675C48.6616 166.937 45.2431 165.954 44.88 165.629C44.1773 165.003 44.051 163.972 44.0826 163.069C44.1536 161.158 44.3905 159.24 44.5563 157.337C44.5563 157.337 42.1484 157.932 38.0273 157.258C38.0273 157.258 38.3036 160.675 38.4457 162.387C38.5168 163.219 38.5878 164.06 38.5247 164.892C38.4694 165.629 38.3115 166.351 38.1615 167.072C38.0115 167.794 37.8694 168.515 37.8457 169.244C37.8457 169.371 37.8457 169.641 37.8457 169.641C38.2957 170.108 39.3773 170.069 39.8826 170.045C41.1615 169.989 42.3931 169.791 43.6878 169.879C45.3457 169.982 46.9958 170.259 48.6616 170.322C49.23 170.346 49.7747 170.338 50.2879 170.259C50.951 170.085 51.0063 169.474 50.9668 169.276Z" fill="#12252E"/>
<path d="M76.1512 74.0731C75.788 73.7005 75.3775 74.5487 75.2196 74.7548C74.7696 75.3732 74.1459 75.7458 73.4985 76.1104C73.6959 75.8805 73.8933 75.6506 74.1064 75.4366C74.2801 75.2622 74.4775 75.0878 74.6275 74.8975C74.8091 74.6756 74.9196 74.406 75.0538 74.1523C75.1722 73.9145 75.3064 73.6767 75.4012 73.4309C75.4565 73.3041 75.488 73.1455 75.3854 73.0345C75.1407 72.765 74.7538 73.0583 74.5328 73.3041C74.5643 73.1693 74.5643 73.0425 74.517 72.9156C74.3275 72.4717 73.9407 72.8998 73.7433 73.0821C73.1354 73.645 72.5275 74.2158 71.888 74.7548C71.6196 74.9768 71.3354 75.3018 71.0196 75.4525C70.9801 75.4842 70.9406 75.5159 70.8933 75.5476C70.7748 75.4921 70.6643 75.4445 70.5459 75.389C70.5222 75.3415 70.6485 75.1195 70.6643 75.0719C70.7196 74.9451 70.7906 74.8183 70.8301 74.6835C70.9012 74.4457 70.9091 73.8907 70.5301 73.9621C70.3169 73.9938 70.088 74.3426 69.9696 74.5011C69.7564 74.7628 69.5511 75.0402 69.3775 75.3335C69.0854 75.8488 69.0459 76.4038 69.0538 76.9825C69.0617 77.7752 68.9906 78.5442 68.7143 79.2973C68.5643 79.6937 68.3748 80.0822 68.138 80.431C67.9169 80.7639 67.6564 81.0493 67.4748 81.4061C67.4748 81.4219 70.0643 82.5397 70.6722 82.7062C70.7906 81.4457 72.0064 80.5895 72.7959 79.7175C73.167 79.3053 73.538 78.8851 73.9643 78.5284C74.3907 78.1875 74.8959 77.9338 75.2433 77.4978C75.567 77.0935 75.7959 76.594 76.0407 76.1422C76.1275 75.9757 76.3407 75.6269 76.0486 75.5238C75.8038 75.4366 75.4722 75.8409 75.3222 75.9677C75.2749 76.0153 75.2275 76.055 75.1801 76.0946C75.3222 75.936 75.4643 75.7696 75.5907 75.5952C75.8117 75.3018 76.5222 74.4536 76.1433 74.0572L76.1512 74.0731Z" fill="#FEC9AC"/>
<path d="M71.4696 81.8733C69.8512 81.4452 69.267 80.9616 67.838 80.0896C66.0222 81.8891 64.159 84.6162 62.2564 86.3365C60.2116 88.1836 59.1301 86.0908 56.5721 83.7918C54.7484 82.1507 53.2169 80.5573 51.6853 79.9231C48.6774 78.6705 46.3563 79.0194 43.6563 78.8291C39.022 78.5041 36.172 78.4406 33.4404 80.8031C30.4641 83.3795 28.0562 89.9911 27.5825 91.4894C27.1167 92.9798 26.4535 94.3989 25.972 95.8813C25.2456 98.101 24.8114 100.043 26.2483 102.065C27.093 103.254 33.1246 107.654 34.8062 108.716C34.8062 108.716 35.7378 107.004 36.3141 106.33C35.6904 111.039 35.4536 115.787 35.2088 120.528C34.9246 125.959 34.6483 131.389 34.3641 136.819C43.1352 140.252 52.5695 138.135 61.3722 136.788C60.4801 129.637 59.3037 122.518 57.8274 115.455C57.0853 111.895 56.2563 108.367 55.3721 104.847C54.4879 101.351 53.1063 98.7987 53.5326 95.1599C53.6984 93.725 53.9116 91.9809 53.5326 90.1418C53.9195 90.3875 55.2458 91.0851 55.6248 91.315C57.6379 92.5597 59.9669 93.5982 62.3827 93.2969C64.7117 93.0115 66.188 90.6967 67.5775 88.8971C69.2827 86.6933 69.8748 84.1564 71.4775 81.8733H71.4696ZM36.8904 105.212C35.8404 104.055 31.6641 98.9017 31.0009 98.3547C32.7457 95.9685 34.972 92.9719 35.6667 90.11C36.4246 92.6944 37.2378 94.5495 37.7352 97.2052C37.7352 97.229 37.9957 99.1078 37.9957 99.1316C37.8694 101.534 37.2694 103.127 36.8825 105.22L36.8904 105.212Z" fill="#FFD471"/>
<path d="M54.3017 103.12L51.9523 100.124L33.1713 114.975L35.5206 117.971L54.3017 103.12Z" fill="#254D62"/>
<path d="M60.9301 97.2686L56.7695 100.559L55.0248 98.3388L59.1853 95.0489C57.5117 93.8835 55.2064 93.8994 53.5248 95.2312C51.4485 96.8643 51.0932 99.8768 52.7274 101.962C54.3537 104.039 57.3617 104.403 59.4301 102.762C61.1196 101.431 61.6643 99.1871 60.9301 97.2766V97.2686Z" fill="#254D62"/>
<path d="M29.8325 121.836L33.9931 118.546L32.2483 116.326L28.0878 119.616C27.3536 117.705 27.9062 115.462 29.5878 114.13C31.6562 112.489 34.6641 112.846 36.2905 114.931C37.9168 117.008 37.5615 120.02 35.4931 121.653C33.8036 122.985 31.5062 123.001 29.8246 121.836H29.8325Z" fill="#254D62"/>
<path d="M36.8352 114.511C36.6615 114.297 36.701 113.98 36.9141 113.806L51.1169 102.58C51.3379 102.406 51.6537 102.445 51.8195 102.659C51.9932 102.881 51.9537 103.198 51.7406 103.365L37.5378 114.59C37.3168 114.765 37.0089 114.725 36.8352 114.503V114.511Z" fill="#4693B9"/>
<path d="M39.7878 74.16C39.6931 73.3038 39.5905 72.7251 39.5905 72.7251C39.5905 72.7251 40.972 72.519 41.2326 71.203C41.2326 71.1871 42.2668 64.0047 44.7142 63.7352C47.6037 63.4181 48.93 64.195 49.5063 67.0252C49.751 68.2301 50.3747 68.6424 51.0063 69.1735C51.251 69.3796 51.0853 69.8553 50.73 69.8236L50.3037 69.8474C50.2089 69.8553 50.1379 69.9346 50.1379 70.0297C50.1537 70.8462 50.0905 71.6152 49.9247 72.3049C49.53 73.9222 49.7431 75.5949 46.9642 75.5632C46.6405 75.5632 46.3247 75.5314 46.0168 75.4997C46.0168 75.4997 46.08 77.4261 46.7273 80.3356C46.7984 80.6447 46.8537 80.9856 46.8537 80.9856C45.8352 82.3175 42.4878 81.818 41.051 80.4862C40.4668 79.9471 39.5826 79.1147 39.622 78.9482C39.9773 77.3548 39.9378 75.4918 39.7957 74.152L39.7878 74.16Z" fill="#FEC9AC"/>
<path d="M41.0747 113.972C41.501 113.671 40.7273 113.132 40.5536 112.95C40.0168 112.403 39.7483 111.721 39.4878 111.031C39.6773 111.261 39.8747 111.499 40.0562 111.737C40.2062 111.943 40.3326 112.157 40.5062 112.339C40.6957 112.553 40.9405 112.712 41.1694 112.878C41.3905 113.029 41.5957 113.203 41.8247 113.338C41.9431 113.41 42.0931 113.473 42.2194 113.386C42.5194 113.188 42.2984 112.759 42.0852 112.498C42.2115 112.545 42.3378 112.569 42.472 112.538C42.9378 112.419 42.5826 111.975 42.4326 111.745C41.9668 111.055 41.5089 110.357 41.0826 109.644C40.901 109.343 40.6326 109.01 40.5299 108.677C40.4983 108.629 40.4826 108.582 40.451 108.534C40.522 108.431 40.5931 108.328 40.6641 108.217C40.7115 108.201 40.9089 108.36 40.9562 108.383C41.0747 108.463 41.1852 108.55 41.3115 108.613C41.5405 108.724 42.0773 108.819 42.0694 108.423C42.0694 108.201 41.7615 107.932 41.6273 107.789C41.3984 107.535 41.1615 107.282 40.901 107.075C40.4431 106.703 39.8983 106.576 39.3299 106.497C38.5483 106.386 37.8062 106.188 37.1036 105.799C36.7404 105.593 36.3931 105.339 36.0773 105.046C35.7852 104.776 35.5404 104.467 35.2246 104.237C35.2088 104.229 33.7088 106.631 33.4483 107.202C34.672 107.519 35.3194 108.859 36.0536 109.771C36.401 110.207 36.7562 110.635 37.0325 111.118C37.301 111.594 37.4746 112.141 37.8457 112.553C38.1931 112.942 38.651 113.243 39.0536 113.56C39.2036 113.671 39.5115 113.941 39.6536 113.663C39.772 113.425 39.4325 113.037 39.3299 112.878C39.2904 112.823 39.2589 112.767 39.2273 112.72C39.3615 112.886 39.5036 113.053 39.6615 113.211C39.9141 113.473 40.6326 114.313 41.0826 114.004L41.0747 113.972Z" fill="#FEC9AC"/>
<path d="M37.3247 105.521C37.3247 105.521 36.4641 106.092 35.7773 106.996C35.2167 107.725 34.8062 108.724 34.8062 108.724L32.7062 107.273L35.1457 103.167L37.3247 105.521Z" fill="#FFD471"/>
<path d="M34.4431 67.3425C35.0825 66.9144 35.6746 66.954 36.0773 67.0412C35.8325 65.5746 35.872 64.6709 36.2589 63.7671C37.001 62.0072 38.422 60.6199 40.2457 59.9143C44.1378 58.4081 44.4852 60.2314 46.6168 60.1204C47.3826 60.0808 48.0695 59.7875 48.7642 60.2631C49.4826 60.7467 49.8774 61.6425 49.8853 62.4829C49.8853 65.3209 47.6352 64.6709 46.4668 65.6777C45.63 66.3991 45.0536 67.6992 44.9115 68.1035C44.5168 69.2451 43.2694 69.697 42.7563 70.783C42.2273 71.9008 42.0299 73.6449 41.0905 74.5011C40.3484 75.1749 38.6194 74.4773 37.9799 73.6687C37.7431 73.8986 36.8589 74.1602 35.9983 73.962C34.9167 73.7083 34.1036 72.4558 33.622 70.9099C33.093 69.2134 33.7088 67.8419 34.4431 67.3504V67.3425Z" fill="#A55852"/>
<path d="M207.939 153.293C208.326 151.85 209.273 150.645 210.244 149.543C212.257 147.268 214.412 145.12 216.662 143.074H231.844C231.378 144.271 230.715 145.405 229.87 146.38C229.128 147.236 228.252 147.926 227.336 148.584C226.389 149.266 225.457 149.955 224.573 150.74C224.352 150.93 224.139 151.129 223.934 151.335C226.184 152.12 228.71 154.316 230.865 155.37L230.147 162.727C228.315 162.489 218.305 160.412 216.56 159.841C216.56 159.841 213.852 159.564 212.368 159.175C211.183 158.866 208.973 157.764 208.302 156.694C207.67 155.695 207.631 154.434 207.931 153.309L207.939 153.293Z" fill="#8DC5EA"/>
<path d="M192.497 134.227C195.804 134.687 207.165 135.226 208.705 135.076C208.736 134.98 212.541 122.36 217.839 118.229C221.462 120.576 219.978 130.818 219.978 130.818C219.544 131.912 218.952 133.633 218.478 134.719C218.068 135.638 217.886 136.003 217.026 136.526C216.11 137.081 215.076 137.375 214.041 137.62C212.889 137.906 211.768 138.207 210.67 138.675C209.573 139.142 208.499 139.642 207.394 140.07C206.289 140.498 204.378 140.998 203.194 141.093C202.033 141.188 191.549 138.944 191.549 138.833C191.549 137.454 192.497 134.227 192.497 134.227Z" fill="#25716D"/>
<path d="M192.67 132.816C192.97 132.745 193.136 132.697 193.531 132.531C193.823 132.404 194.849 131.96 195.118 131.952C195.291 131.952 195.52 132.008 195.583 132.19C195.654 132.38 195.528 132.586 195.402 132.729C195.228 132.927 194.991 133.078 194.747 133.197C194.565 133.284 193.72 133.839 193.025 134.291C193.886 135.607 195.402 136.939 192.568 135.773C192.402 136.09 194.478 136.582 193.886 137.676C193.933 137.953 194.052 138.635 193.041 138.548C193.799 140.046 188.131 138.413 189.82 135.559C190.681 134.521 189.654 133.95 192.662 132.808L192.67 132.816Z" fill="#BF7968"/>
<path d="M195.789 175.942C195.354 175.942 194.999 175.585 194.999 175.149V166.73C194.999 166.294 195.354 165.938 195.789 165.938C196.223 165.938 196.578 166.294 196.578 166.73V175.149C196.578 175.585 196.223 175.942 195.789 175.942Z" fill="#12252E"/>
<path d="M165.37 175.942C164.936 175.942 164.581 175.585 164.581 175.149V166.73C164.581 166.294 164.936 165.938 165.37 165.938C165.804 165.938 166.16 166.294 166.16 166.73V175.149C166.16 175.585 165.804 175.942 165.37 175.942Z" fill="#12252E"/>
<path d="M153.141 175.942C152.707 175.942 152.352 175.585 152.352 175.149V166.73C152.352 166.294 152.707 165.938 153.141 165.938C153.575 165.938 153.93 166.294 153.93 166.73V175.149C153.93 175.585 153.575 175.942 153.141 175.942Z" fill="#12252E"/>
<path d="M122.636 175.942C122.201 175.942 121.846 175.585 121.846 175.149V166.73C121.846 166.294 122.201 165.938 122.636 165.938C123.07 165.938 123.425 166.294 123.425 166.73V175.149C123.425 175.585 123.07 175.942 122.636 175.942Z" fill="#12252E"/>
<path d="M109.933 175.942C109.499 175.942 109.143 175.585 109.143 175.149V166.73C109.143 166.294 109.499 165.938 109.933 165.938C110.367 165.938 110.722 166.294 110.722 166.73V175.149C110.722 175.585 110.367 175.942 109.933 175.942Z" fill="#12252E"/>
<path d="M79.3169 175.942C78.8827 175.942 78.5274 175.585 78.5274 175.149V166.73C78.5274 166.294 78.8827 165.938 79.3169 165.938C79.7511 165.938 80.1064 166.294 80.1064 166.73V175.149C80.1064 175.585 79.7511 175.942 79.3169 175.942Z" fill="#12252E"/>
<path d="M107.02 175.942H82.1985C80.7617 175.942 79.5774 174.824 79.4906 173.382L77.1458 134.584H112.649L109.728 173.421C109.617 174.84 108.441 175.942 107.02 175.942Z" fill="#2A817D"/>
<path d="M114.007 134.592H75.78C75.78 131.881 77.9669 129.685 80.6669 129.685H109.112C111.812 129.685 113.999 131.881 113.999 134.592H114.007Z" fill="#2A817D"/>
<path d="M77.2721 134.671H110.904C111.33 134.671 111.859 134.758 112.278 134.671C112.293 134.671 112.317 134.671 112.341 134.671C112.443 134.671 112.443 134.505 112.341 134.505H78.709C78.2827 134.505 77.7537 134.417 77.3353 134.505C77.3195 134.505 77.2958 134.505 77.2721 134.505C77.1695 134.505 77.1695 134.671 77.2721 134.671Z" fill="#25716D"/>
<g opacity="0.8">
<path d="M89.3354 152.119C89.1854 152.294 88.9722 152.436 88.7038 152.539C88.4275 152.634 88.1275 152.69 87.7959 152.69C87.4485 152.69 87.1406 152.611 86.8801 152.46C86.6196 152.309 86.4143 152.087 86.2722 151.802C86.1301 151.509 86.059 151.168 86.0511 150.779V150.502C86.0511 150.098 86.1143 149.749 86.2564 149.456C86.3906 149.162 86.588 148.932 86.8406 148.782C87.0933 148.623 87.3933 148.552 87.7327 148.552C88.2064 148.552 88.5854 148.663 88.8538 148.893C89.1222 149.123 89.2801 149.456 89.3275 149.884H88.5222C88.4827 149.654 88.4038 149.487 88.2775 149.376C88.1512 149.273 87.9775 149.218 87.7564 149.218C87.4722 149.218 87.259 149.321 87.1169 149.535C86.9669 149.749 86.8959 150.066 86.8959 150.486V150.748C86.8959 151.168 86.9748 151.493 87.1327 151.707C87.2906 151.921 87.5275 152.032 87.8354 152.032C88.1433 152.032 88.3722 151.969 88.4985 151.834V151.136H87.7485V150.526H89.3275V152.135L89.3354 152.119Z" fill="white"/>
<path d="M90.8354 151.961H92.5959V152.627H90.0064V148.592H90.8354V151.961Z" fill="white"/>
<path d="M95.3986 151.795H93.9459L93.6696 152.627H92.7933L94.2854 148.592H95.0512L96.5512 152.627H95.6749L95.3986 151.795ZM94.167 151.121H95.1696L94.6644 149.607L94.167 151.121Z" fill="white"/>
<path d="M99.0144 151.564C99.0144 151.406 98.9591 151.287 98.8486 151.2C98.7381 151.121 98.5407 151.033 98.2486 150.938C97.9644 150.843 97.7354 150.748 97.5696 150.661C97.1117 150.415 96.8828 150.074 96.8828 149.662C96.8828 149.44 96.9459 149.25 97.0644 149.075C97.1907 148.909 97.3644 148.774 97.5933 148.679C97.8223 148.584 98.0828 148.536 98.367 148.536C98.6512 148.536 98.9117 148.592 99.1328 148.695C99.3539 148.798 99.5354 148.948 99.6539 149.139C99.7802 149.329 99.8433 149.543 99.8433 149.789H99.0144C99.0144 149.606 98.9591 149.464 98.8407 149.361C98.7223 149.258 98.5644 149.21 98.3512 149.21C98.1381 149.21 97.9881 149.25 97.8775 149.337C97.767 149.424 97.7117 149.535 97.7117 149.678C97.7117 149.812 97.7749 149.916 97.9091 150.003C98.0433 150.09 98.2328 150.177 98.4933 150.256C98.967 150.399 99.3065 150.574 99.5196 150.788C99.7328 151.002 99.8433 151.263 99.8433 151.572C99.8433 151.921 99.7091 152.199 99.4486 152.397C99.1881 152.595 98.8328 152.698 98.3828 152.698C98.0749 152.698 97.7907 152.643 97.5381 152.524C97.2854 152.413 97.0881 152.254 96.9538 152.056C96.8196 151.858 96.7565 151.628 96.7565 151.366H97.5854C97.5854 151.81 97.8538 152.032 98.3828 152.032C98.5802 152.032 98.7381 151.993 98.8486 151.913C98.9591 151.834 99.0144 151.723 99.0144 151.58V151.564Z" fill="white"/>
<path d="M102.496 151.564C102.496 151.406 102.441 151.287 102.33 151.2C102.22 151.121 102.022 151.033 101.73 150.938C101.446 150.843 101.217 150.748 101.051 150.661C100.593 150.415 100.364 150.074 100.364 149.662C100.364 149.44 100.428 149.25 100.546 149.075C100.672 148.909 100.846 148.774 101.075 148.679C101.304 148.584 101.564 148.536 101.849 148.536C102.133 148.536 102.393 148.592 102.614 148.695C102.835 148.798 103.009 148.948 103.135 149.139C103.262 149.329 103.325 149.543 103.325 149.789H102.496C102.496 149.606 102.441 149.464 102.322 149.361C102.204 149.258 102.046 149.21 101.833 149.21C101.62 149.21 101.47 149.25 101.359 149.337C101.249 149.424 101.193 149.535 101.193 149.678C101.193 149.812 101.256 149.916 101.391 150.003C101.525 150.09 101.714 150.177 101.975 150.256C102.449 150.399 102.788 150.574 103.001 150.788C103.214 151.002 103.325 151.263 103.325 151.572C103.325 151.921 103.191 152.199 102.93 152.397C102.67 152.595 102.314 152.698 101.864 152.698C101.557 152.698 101.272 152.643 101.02 152.524C100.767 152.413 100.578 152.254 100.443 152.056C100.309 151.858 100.246 151.628 100.246 151.366H101.075C101.075 151.81 101.335 152.032 101.872 152.032C102.07 152.032 102.22 151.993 102.33 151.913C102.441 151.834 102.496 151.723 102.496 151.58V151.564Z" fill="white"/>
</g>
<path d="M79.6958 171.606H108.464C108.812 171.606 109.293 171.693 109.641 171.606C109.657 171.606 109.672 171.606 109.688 171.606C109.791 171.606 109.791 171.439 109.688 171.439H80.9195C80.5722 171.439 80.0906 171.352 79.7432 171.439C79.7274 171.439 79.7116 171.439 79.6958 171.439C79.5932 171.439 79.5932 171.606 79.6958 171.606Z" fill="#25716D"/>
<path d="M86.4696 135.622H85.2854C84.7643 135.622 84.338 135.194 84.338 134.671H87.4091C87.4091 135.194 86.9827 135.622 86.4617 135.622H86.4696Z" fill="#25716D"/>
<path d="M105.362 135.622H104.185C103.664 135.622 103.238 135.194 103.238 134.671H106.309C106.309 135.194 105.883 135.622 105.362 135.622Z" fill="#25716D"/>
<path d="M150.22 175.942H125.399C123.962 175.942 122.778 174.824 122.691 173.382L120.346 134.584H155.849L152.928 173.421C152.817 174.84 151.641 175.942 150.22 175.942Z" fill="#98D4FC"/>
<path d="M157.207 134.592H118.98C118.98 131.881 121.167 129.685 123.867 129.685H152.312C155.012 129.685 157.199 131.881 157.199 134.592H157.207Z" fill="#98D4FC"/>
<path d="M120.48 134.671H154.112C154.538 134.671 155.067 134.758 155.486 134.671C155.502 134.671 155.525 134.671 155.549 134.671C155.652 134.671 155.652 134.505 155.549 134.505H121.917C121.491 134.505 120.962 134.417 120.543 134.505C120.528 134.505 120.504 134.505 120.488 134.505C120.386 134.505 120.386 134.671 120.488 134.671H120.48Z" fill="#84B8DA"/>
<path d="M122.896 171.606H151.649C152.004 171.606 152.486 171.693 152.833 171.606C152.849 171.606 152.873 171.606 152.888 171.606C152.991 171.606 152.991 171.439 152.888 171.439H124.136C123.78 171.439 123.299 171.352 122.951 171.439C122.936 171.439 122.912 171.439 122.896 171.439C122.793 171.439 122.793 171.606 122.896 171.606Z" fill="#84B8DA"/>
<path d="M129.67 135.622H128.486C127.965 135.622 127.538 135.194 127.538 134.671H130.609C130.609 135.194 130.183 135.622 129.662 135.622H129.67Z" fill="#84B8DA"/>
<path d="M148.562 135.622H147.378C146.857 135.622 146.43 135.194 146.43 134.671H149.502C149.502 135.194 149.075 135.622 148.554 135.622H148.562Z" fill="#84B8DA"/>
<path d="M130.001 151.224V152.69H129.149V148.521H130.767C131.075 148.521 131.351 148.576 131.588 148.695C131.825 148.814 132.007 148.972 132.133 149.186C132.259 149.4 132.322 149.638 132.322 149.908C132.322 150.312 132.18 150.637 131.904 150.875C131.628 151.113 131.241 151.232 130.751 151.232H130.001V151.224ZM130.001 150.526H130.767C130.996 150.526 131.162 150.471 131.288 150.368C131.407 150.257 131.47 150.106 131.47 149.908C131.47 149.71 131.407 149.535 131.288 149.416C131.17 149.289 131.004 149.226 130.791 149.218H130.009V150.526H130.001Z" fill="white"/>
<path d="M134.778 151.834H133.278L132.994 152.69H132.086L133.633 148.521H134.422L135.978 152.69H135.07L134.786 151.834H134.778ZM133.507 151.137H134.541L134.02 149.575L133.507 151.137Z" fill="white"/>
<path d="M137.217 151.224V152.69H136.365V148.521H137.983C138.291 148.521 138.567 148.576 138.804 148.695C139.041 148.814 139.223 148.972 139.349 149.186C139.475 149.4 139.538 149.638 139.538 149.908C139.538 150.312 139.396 150.637 139.12 150.875C138.844 151.113 138.457 151.232 137.967 151.232H137.217V151.224ZM137.217 150.526H137.983C138.212 150.526 138.386 150.471 138.496 150.368C138.615 150.257 138.678 150.106 138.678 149.908C138.678 149.71 138.615 149.535 138.496 149.416C138.378 149.289 138.212 149.226 137.999 149.218H137.217V150.526Z" fill="white"/>
<path d="M142.617 150.883H140.975V152.001H142.901V152.69H140.123V148.521H142.901V149.218H140.983V150.209H142.625V150.883H142.617Z" fill="white"/>
<path d="M144.938 151.168H144.259V152.69H143.407V148.521H144.946C145.436 148.521 145.815 148.631 146.083 148.853C146.351 149.075 146.486 149.385 146.486 149.781C146.486 150.066 146.423 150.304 146.304 150.494C146.186 150.685 145.996 150.835 145.744 150.946L146.644 152.651V152.69H145.728L144.954 151.168H144.938ZM144.259 150.471H144.946C145.159 150.471 145.325 150.415 145.444 150.304C145.562 150.193 145.617 150.043 145.617 149.852C145.617 149.662 145.562 149.504 145.451 149.385C145.341 149.274 145.167 149.218 144.938 149.218H144.251V150.471H144.259Z" fill="white"/>
<path d="M192.97 175.942H168.149C166.712 175.942 165.528 174.824 165.441 173.382L163.096 134.584H198.599L195.678 173.421C195.575 174.84 194.391 175.942 192.97 175.942Z" fill="#FFD471"/>
<path d="M199.957 134.592H161.731C161.731 131.881 163.917 129.685 166.617 129.685H195.062C197.762 129.685 199.949 131.881 199.949 134.592H199.957Z" fill="#FFD471"/>
<path d="M163.231 134.671H196.862C197.289 134.671 197.818 134.758 198.236 134.671C198.252 134.671 198.275 134.671 198.299 134.671C198.402 134.671 198.402 134.505 198.299 134.505H164.667C164.241 134.505 163.712 134.417 163.294 134.505C163.278 134.505 163.254 134.505 163.231 134.505C163.128 134.505 163.128 134.671 163.231 134.671Z" fill="#FFBC33"/>
<path d="M165.646 171.606H194.399C194.754 171.606 195.236 171.693 195.583 171.606C195.599 171.606 195.623 171.606 195.639 171.606C195.741 171.606 195.741 171.439 195.639 171.439H166.886C166.531 171.439 166.049 171.352 165.702 171.439C165.686 171.439 165.662 171.439 165.646 171.439C165.544 171.439 165.544 171.606 165.646 171.606Z" fill="#FFBC33"/>
<path d="M172.42 135.622H171.236C170.715 135.622 170.288 135.194 170.288 134.671H173.36C173.36 135.194 172.933 135.622 172.412 135.622H172.42Z" fill="#FFBC33"/>
<path d="M191.312 135.622H190.128C189.607 135.622 189.181 135.194 189.181 134.671H192.252C192.252 135.194 191.825 135.622 191.304 135.622H191.312Z" fill="#FFBC33"/>
<g opacity="0.8">
<path d="M170.202 150.986V152.453H169.349V148.299H170.96C171.267 148.299 171.544 148.354 171.781 148.473C172.017 148.584 172.199 148.751 172.325 148.957C172.452 149.171 172.515 149.409 172.515 149.678C172.515 150.09 172.373 150.408 172.096 150.645C171.82 150.883 171.433 151.002 170.944 151.002H170.194L170.202 150.986ZM170.202 150.297H170.96C171.188 150.297 171.354 150.241 171.473 150.138C171.591 150.035 171.646 149.876 171.646 149.686C171.646 149.496 171.583 149.314 171.465 149.195C171.346 149.068 171.181 149.004 170.967 148.996H170.186V150.297H170.202Z" fill="white"/>
<path d="M173.952 151.763H175.76V152.453H173.099V148.299H173.952V151.763Z" fill="white"/>
<path d="M178.649 151.597H177.157L176.873 152.453H175.965L177.504 148.299H178.294L179.841 152.453H178.933L178.649 151.597ZM177.378 150.899H178.412L177.891 149.345L177.378 150.899Z" fill="white"/>
<path d="M182.368 151.359C182.368 151.2 182.312 151.073 182.194 150.986C182.083 150.899 181.878 150.812 181.578 150.709C181.286 150.614 181.049 150.518 180.875 150.423C180.41 150.17 180.173 149.821 180.173 149.393C180.173 149.171 180.236 148.973 180.362 148.798C180.489 148.624 180.67 148.481 180.907 148.386C181.144 148.291 181.404 148.235 181.704 148.235C182.004 148.235 182.265 148.291 182.494 148.394C182.723 148.505 182.904 148.656 183.031 148.846C183.157 149.044 183.22 149.266 183.22 149.512H182.368C182.368 149.321 182.312 149.171 182.186 149.068C182.068 148.965 181.902 148.909 181.681 148.909C181.46 148.909 181.31 148.957 181.191 149.044C181.073 149.131 181.017 149.25 181.017 149.393C181.017 149.528 181.089 149.639 181.223 149.734C181.357 149.821 181.554 149.908 181.823 149.987C182.304 150.13 182.66 150.312 182.881 150.534C183.102 150.748 183.212 151.018 183.212 151.343C183.212 151.7 183.078 151.985 182.81 152.191C182.541 152.397 182.17 152.5 181.712 152.5C181.396 152.5 181.104 152.445 180.844 152.326C180.583 152.207 180.386 152.049 180.244 151.85C180.11 151.644 180.039 151.406 180.039 151.145H180.891C180.891 151.605 181.167 151.834 181.712 151.834C181.917 151.834 182.075 151.795 182.186 151.708C182.304 151.62 182.36 151.509 182.36 151.359H182.368Z" fill="white"/>
<path d="M186.915 148.989H185.652V152.453H184.799V148.989H183.552V148.291H186.923V148.989H186.915Z" fill="white"/>
<path d="M188.304 152.453H187.452V148.299H188.304V152.453Z" fill="white"/>
<path d="M192.339 151.065C192.307 151.509 192.141 151.866 191.849 152.12C191.557 152.373 191.162 152.508 190.681 152.508C190.152 152.508 189.733 152.326 189.433 151.969C189.133 151.612 188.975 151.121 188.975 150.495V150.241C188.975 149.845 189.046 149.488 189.189 149.187C189.331 148.885 189.528 148.647 189.789 148.489C190.049 148.33 190.349 148.243 190.697 148.243C191.17 148.243 191.557 148.37 191.849 148.632C192.141 148.885 192.307 149.25 192.354 149.718H191.502C191.478 149.448 191.407 149.25 191.281 149.131C191.154 149.012 190.957 148.949 190.697 148.949C190.412 148.949 190.199 149.052 190.057 149.258C189.915 149.464 189.844 149.781 189.844 150.209V150.518C189.844 150.97 189.915 151.295 190.049 151.501C190.183 151.708 190.396 151.811 190.689 151.811C190.949 151.811 191.146 151.747 191.281 151.628C191.407 151.509 191.486 151.319 191.502 151.065H192.354H192.339Z" fill="white"/>
</g>
<path d="M194.454 145.596C191.762 148.465 192.939 148.711 193.649 148.331C193.468 149.322 194.257 149.171 194.533 148.751C197.162 148.315 198.315 144.121 200.833 144.906C200.833 144.906 200.32 143.463 200.028 141.093C192.141 141.243 192.994 144.018 195.26 143.098C192.086 146.333 192.449 145.754 192.078 146.269C191.675 148.87 194.423 145.501 194.454 145.596Z" fill="#FEC9AC"/>
<path d="M223.61 116.723C222.702 117.428 219.876 121.242 218.281 120.29L216.149 110.468L222.631 108.978C222.631 108.978 222.749 109.604 222.994 110.515C223.373 111.935 224.581 113.187 225.576 114.67C225.678 114.82 223.768 116.604 223.618 116.715L223.61 116.723Z" fill="#FEC9AC"/>
<path d="M222.631 108.978C220.728 109.659 218.328 103.967 214.776 101.938C203.952 99.956 211.776 125.689 222.631 108.978Z" fill="#FEC9AC"/>
<path d="M209.32 104.467C208.791 104.229 208.176 104.229 207.741 103.801C207.402 103.468 207.236 103 207.149 102.549C206.912 101.233 206.628 100.083 207.094 98.8702C207.781 97.0547 209.747 96.0717 210.718 95.8894C212.873 95.4772 215.968 95.2076 218.612 96.1272C219.307 96.373 219.726 97.0389 220.389 97.3322C224.699 99.2269 222.686 103.944 222.891 104.903C223.231 106.552 224.202 108.47 223.641 110.072C223.365 110.873 221.92 111.475 221.028 111.554C220.499 111.61 220.152 111.475 219.891 111.221C219.828 111.055 219.828 110.873 219.931 110.714C217.152 106.512 221.912 108.455 213.805 104.657C213.055 104.166 211.397 104.61 209.983 104.229C210.007 104.356 209.833 104.546 209.36 104.491C209.352 104.491 209.344 104.475 209.328 104.467H209.32Z" fill="#12252E"/>
<path d="M219.26 105.981C219.323 106.726 219.047 107.36 218.297 107.44C217.626 107.511 216.97 107.099 216.82 106.361C216.67 105.632 217.081 104.934 217.744 104.792C218.944 104.522 219.189 105.267 219.26 105.981Z" fill="#FEC9AC"/>
<path d="M199.594 140.854C202.065 139.745 204.41 139.285 206.818 138.508C208.057 138.104 214.712 135.036 215.36 134.845C215.36 134.845 215.368 134.829 215.376 134.806C215.21 134.203 215.162 133.624 215.131 132.951C215.099 132.102 215.573 127.853 215.857 126.379C216.157 124.801 216.433 123.216 216.797 121.646C217.065 120.465 217.412 119.331 217.839 118.229C217.934 118.665 218.012 119.077 218.099 119.458C218.826 117.611 221.344 115.716 223.294 114.781C225.797 113.584 227.96 113.726 230.226 115.177C232.626 116.707 234.07 118.586 235.318 121.123C238.42 127.457 239.455 129.042 242.163 135.305C243.513 138.421 244.847 143.003 243.678 147.006C243.639 146.975 243.56 146.927 243.56 146.927C238.113 143.439 231.647 142.931 225.591 144.065C223.744 144.414 219.931 145.294 219.931 145.294C219.362 144.01 218.786 142.725 218.202 141.441C217.444 141.584 216.702 141.758 215.968 141.996C214.839 142.369 213.726 142.781 212.581 143.114C211.444 143.447 210.291 143.74 209.123 143.986C206.857 144.469 204.56 144.771 202.247 144.913C201.583 144.953 199.539 145.135 199.539 145.135C200.226 142.749 199.507 140.831 199.586 140.854H199.594Z" fill="#2A817D"/>
<path d="M221.881 150.645C222.047 153.483 221.107 156.417 221.068 159.255H213.773C213.528 158.153 211.381 148.901 211.239 147.062C211.239 147.062 210.449 144.446 210.244 142.916C210.078 141.695 210.244 139.222 210.97 138.199C211.657 137.232 212.794 136.709 213.939 136.558C215.415 136.36 216.884 136.78 218.265 137.256C221.281 138.302 224.226 139.547 227.099 140.926C227.21 140.958 227.32 140.982 227.431 141.013C228.781 141.434 230.005 142.123 231.315 142.623C232.626 143.122 233.999 143.415 235.357 143.717C236.739 144.018 238.105 144.351 239.431 144.85C240.876 145.389 242.249 146.087 243.552 146.919C242.044 150.598 238.87 153.571 234.97 154.498C232.91 154.99 230.707 154.918 228.694 154.252C227.62 153.896 226.649 153.341 225.702 152.746C224.707 152.128 223.712 151.525 222.67 151.01C222.41 150.883 222.141 150.764 221.881 150.637V150.645Z" fill="#98D4FC"/>
<path d="M204.773 173.889C204.947 172.962 205.594 172.335 206.32 171.844C207.718 170.9 212.091 169.648 212.557 169.228C213.449 168.419 213.623 167.111 213.576 165.954C213.489 163.512 213.181 161.054 212.968 158.621C212.968 158.621 216.047 159.374 221.313 158.518C221.313 158.518 220.957 162.894 220.776 165.082C220.689 166.152 220.594 167.222 220.673 168.292C220.744 169.228 220.949 170.155 221.139 171.075C221.328 171.994 221.51 172.922 221.541 173.857C221.541 174.024 221.541 174.365 221.541 174.365C220.965 174.959 219.584 174.912 218.936 174.88C217.302 174.809 215.723 174.555 214.073 174.666C211.949 174.801 209.841 175.15 207.718 175.237C206.983 175.261 206.289 175.253 205.633 175.15C204.789 174.928 204.718 174.143 204.765 173.889H204.773Z" fill="#12252E"/>
<path d="M241.815 174.562C240.947 174.19 240.489 173.413 240.165 172.596C239.549 171.019 239.281 166.46 238.981 165.913C238.397 164.859 237.157 164.415 236.028 164.201C233.636 163.749 231.181 163.527 228.765 163.194C228.765 163.194 230.17 160.34 230.486 154.989C230.486 154.989 234.663 156.289 236.747 156.947C237.765 157.264 238.784 157.59 239.849 157.74C240.781 157.875 241.72 157.883 242.652 157.899C243.584 157.915 244.523 157.938 245.439 158.113C245.605 158.144 245.936 158.224 245.936 158.224C246.386 158.921 246.039 160.261 245.873 160.887C245.447 162.481 244.855 163.963 244.602 165.604C244.27 167.713 244.152 169.853 243.765 171.954C243.631 172.676 243.473 173.357 243.228 173.976C242.834 174.761 242.044 174.658 241.815 174.555V174.562Z" fill="#12252E"/>
<path d="M230.312 75.6846H210.968V78.1238H230.312V75.6846Z" fill="#9CBDFF"/>
<path d="M230.312 75.6846H227.112V78.1238H230.312V75.6846Z" fill="#7385FF"/>
<path d="M229.212 64.7794C229.212 64.7794 229.212 59.2871 221.148 59.2871C213.084 59.2871 213.084 64.7794 213.084 64.7794V75.6819H229.208V64.7794H229.212Z" fill="#FF3552"/>
<path d="M228.114 71.8787L221.328 68.5409L214.541 71.8787V65.2031L221.328 68.2499L228.114 65.2031V71.8787Z" fill="#B33552"/>
<path opacity="0.87" d="M214.541 71.8786L161 80V54L214.541 65.203V71.8786Z" fill="url(#paint1_linear_154_183)"/>
</g>
<defs>
<linearGradient id="paint0_linear_154_183" x1="274" y1="171.997" x2="274" y2="0" gradientUnits="userSpaceOnUse">
<stop stop-color="white"/>
<stop offset="1" stop-color="#BBCAD5"/>
</linearGradient>
<linearGradient id="paint1_linear_154_183" x1="215.74" y1="67" x2="179.737" y2="67" gradientUnits="userSpaceOnUse">
<stop stop-color="#D04F51"/>
<stop offset="1" stop-color="#B33552" stop-opacity="0"/>
</linearGradient>
</defs>
</svg>
