<svg width="162" height="137" viewBox="0 0 162 137" fill="none" xmlns="http://www.w3.org/2000/svg">
<path d="M46.3273 45.5261H45.0384V45.204H46.3273V45.5261ZM43.7495 45.5261H42.4606V45.204H43.7495V45.5261ZM41.1713 45.5261H39.8824V45.204H41.1713V45.5261ZM38.5931 45.5261H37.3041V45.204H38.5931V45.5261ZM36.0148 45.5261H34.9673C34.8813 45.5261 34.7961 45.5223 34.7121 45.515L34.7405 45.194C34.8149 45.2005 34.8909 45.204 34.9673 45.204H36.0148V45.5261ZM33.4309 45.0832C33.046 44.8404 32.7198 44.506 32.4873 44.1152L32.7643 43.9506C32.9708 44.2977 33.2609 44.5953 33.6028 44.8109L33.4309 45.0832ZM32.089 42.8235C32.0855 42.764 32.0836 42.7042 32.0836 42.6436V41.5252H32.4059V42.6444C32.4059 42.698 32.4075 42.751 32.4105 42.8039L32.089 42.8238V42.8235ZM32.4059 40.2366H32.0836V38.9484H32.4059V40.2366ZM32.4059 37.6601H32.0836V36.3718H32.4059V37.6601ZM32.4059 35.0832H32.0836V33.795H32.4059V35.0832ZM32.4059 32.5063H32.0836V31.2181H32.4059V32.5063ZM32.4059 29.9295H32.0836V28.6412H32.4059V29.9295ZM32.4059 27.353H32.0836V26.0647H32.4059V27.353ZM32.4059 24.7761H32.0836V23.4878H32.4059V24.7761ZM32.4059 22.1992H32.0836V21.9971H32.4059V22.1992Z" fill="#111228"/>
<path d="M46.165 1.06348H111.039C113.445 1.06348 115.398 3.0156 115.398 5.42028V100.115C115.398 102.52 113.445 104.472 111.039 104.472H46.165C43.759 104.472 41.8059 102.52 41.8059 100.115V5.42028C41.8059 3.0156 43.759 1.06348 46.165 1.06348Z" fill="#373A50"/>
<path d="M46.165 102.471C44.8657 102.471 43.8086 101.415 43.8086 100.116V5.42064C43.8086 4.12203 44.8657 3.06543 46.165 3.06543H111.039C112.338 3.06543 113.396 4.12203 113.396 5.42064V100.116C113.396 101.414 112.338 102.471 111.039 102.471H46.165V102.471Z" fill="white"/>
<path d="M113.395 9.76134V5.42064C113.395 4.12203 112.338 3.06543 111.039 3.06543H46.1645C44.8653 3.06543 43.8081 4.12203 43.8081 5.42064V9.76134H113.395H113.395Z" fill="url(#paint0_linear_89_2060)"/>
<path d="M49.0505 6.41468C49.0505 7.06858 48.5179 7.60091 47.8598 7.60091C47.2017 7.60091 46.673 7.06858 46.673 6.41468C46.673 5.76077 47.2056 5.22461 47.8598 5.22461C48.5141 5.22461 49.0505 5.75694 49.0505 6.41468Z" fill="url(#paint1_linear_89_2060)"/>
<path d="M52.1422 6.41468C52.1422 7.06858 51.6096 7.60091 50.9515 7.60091C50.2934 7.60091 49.7646 7.06858 49.7646 6.41468C49.7646 5.76077 50.2973 5.22461 50.9515 5.22461C51.6057 5.22461 52.1422 5.75694 52.1422 6.41468Z" fill="url(#paint2_linear_89_2060)"/>
<path d="M55.2335 6.41468C55.2335 7.06858 54.7009 7.60091 54.0428 7.60091C53.3847 7.60091 52.856 7.06858 52.856 6.41468C52.856 5.76077 53.3886 5.22461 54.0428 5.22461C54.697 5.22461 55.2335 5.75694 55.2335 6.41468Z" fill="url(#paint3_linear_89_2060)"/>
<path d="M106.63 14.2178H50.5739C49.4049 14.2178 48.4573 15.1649 48.4573 16.3333V47.9328C48.4573 49.1012 49.4049 50.0483 50.5739 50.0483H106.63C107.799 50.0483 108.746 49.1012 108.746 47.9328V16.3333C108.746 15.1649 107.799 14.2178 106.63 14.2178Z" fill="url(#paint4_linear_89_2060)"/>
<path d="M65.7976 36.8986L67.468 39.9951C61.97 42.1927 55.875 38.1224 55.875 32.1118C55.875 27.7704 59.1455 24.1883 63.3472 23.6924V27.2139C61.0794 27.6891 59.368 29.7033 59.368 32.1115C59.368 35.4926 62.6619 37.8739 65.7973 36.8978L65.7976 36.8986Z" fill="#B2C7FF"/>
<path d="M68.0456 28.7522C67.3572 27.9828 66.4358 27.4363 65.3726 27.2139V23.6924C67.691 23.9655 69.7263 25.1797 71.0931 26.9408L68.0456 28.7522Z" fill="#FADF68"/>
<path d="M69.2604 39.0444L67.5797 35.9379C69.2439 34.5361 69.7412 32.2967 69.0881 30.4834L72.1153 28.6924C73.7162 32.1982 72.664 36.6282 69.26 39.0448L69.2604 39.0444Z" fill="#F34B6D"/>
<path d="M68.1157 41.1902L69.4135 43.5773C61.2506 47.1866 51.9177 41.2708 51.8245 32.2415C51.7527 25.6235 56.8462 20.1406 63.3469 19.624V22.3466C58.3439 22.8633 54.4768 27.0943 54.537 32.2116C54.6199 39.2228 61.7721 43.8526 68.1157 41.1902Z" fill="#909EFF"/>
<path d="M65.3729 22.3466V19.624C69.1683 19.9293 72.4998 21.9321 74.5864 24.8771L72.2473 26.2647C70.6476 24.1078 68.1875 22.6293 65.3729 22.3466Z" fill="#B2C7FF"/>
<path d="M71.1947 42.6158L69.897 40.2288C73.9283 37.4751 75.2737 32.3068 73.2814 27.9921L75.6282 26.6084C78.348 32.161 76.6129 39.0963 71.1951 42.6158H71.1947Z" fill="#B2C7FF"/>
<path d="M103.235 21.8662H81.2762C80.9384 21.8662 80.6646 22.1399 80.6646 22.4775V27.0457C80.6646 27.3833 80.9384 27.657 81.2762 27.657H103.235C103.572 27.657 103.846 27.3833 103.846 27.0457V22.4775C103.846 22.1399 103.572 21.8662 103.235 21.8662Z" fill="#B2C7FF"/>
<path d="M105.848 30.9453H81.0729V31.9827H105.848V30.9453Z" fill="#B2C7FF"/>
<path d="M105.848 34.418H81.0729V35.4554H105.848V34.418Z" fill="#B2C7FF"/>
<path d="M105.848 37.8896H81.0729V38.9271H105.848V37.8896Z" fill="#B2C7FF"/>
<path d="M100.381 41.3623H91.5922V42.3997H100.381V41.3623Z" fill="#B2C7FF"/>
<path d="M85.0866 41.3623H81.0729V42.3997H85.0866V41.3623Z" fill="#B2C7FF"/>
<path d="M89.3773 41.3623H87.3705V42.3997H89.3773V41.3623Z" fill="#B2C7FF"/>
<path d="M75.3351 53.1514H107.805C108.324 53.1514 108.746 53.5732 108.746 54.0925V71.4956C108.746 72.0149 108.324 72.4368 107.805 72.4368H75.3351C74.8155 72.4368 74.3934 72.0149 74.3934 71.4956V54.0925C74.3934 53.5732 74.8155 53.1514 75.3351 53.1514Z" fill="url(#paint5_linear_89_2060)"/>
<path d="M96.6531 69.797C93.2162 69.797 91.3927 67.0812 89.6287 64.4549C88.0985 62.176 86.653 60.0233 84.267 59.723C79.9413 59.1769 77.8888 63.6054 77.8689 63.6503L77.2814 63.3856C77.3036 63.3365 79.5507 58.4812 84.3476 59.0841C87.0244 59.4212 88.6207 61.7978 90.164 64.0963C91.9103 66.6966 93.56 69.1534 96.6531 69.1534H96.6566C101.573 69.1503 103.967 63.3285 103.99 63.2698L104.588 63.5095C104.485 63.7661 102.005 69.7943 96.657 69.7977H96.6528L96.6531 69.797Z" fill="#373A50"/>
<path d="M104.29 64.6291C104.975 64.6291 105.53 64.0738 105.53 63.3888C105.53 62.7037 104.975 62.1484 104.29 62.1484C103.604 62.1484 103.049 62.7037 103.049 63.3888C103.049 64.0738 103.604 64.6291 104.29 64.6291Z" fill="#909EFF"/>
<path d="M77.7284 64.6291C78.4137 64.6291 78.9693 64.0738 78.9693 63.3888C78.9693 62.7037 78.4137 62.1484 77.7284 62.1484C77.043 62.1484 76.4874 62.7037 76.4874 63.3888C76.4874 64.0738 77.043 64.6291 77.7284 64.6291Z" fill="#909EFF"/>
<path d="M80.4969 55.0439H76.7429V57.0275H80.4969V55.0439Z" fill="#909EFF"/>
<path d="M85.0877 55.0439H81.3337V57.0275H85.0877V55.0439Z" fill="#B2C7FF"/>
<path d="M89.6781 55.0439H85.9242V57.0275H89.6781V55.0439Z" fill="#909EFF"/>
<path d="M94.2686 55.0439H90.5146V57.0275H94.2686V55.0439Z" fill="#B2C7FF"/>
<path d="M70.6717 53.1514H49.6377C49.149 53.1514 48.7528 53.5473 48.7528 54.0358V71.5527C48.7528 72.0412 49.149 72.4371 49.6377 72.4371H70.6717C71.1604 72.4371 71.5566 72.0412 71.5566 71.5527V54.0358C71.5566 53.5473 71.1604 53.1514 70.6717 53.1514Z" fill="#B2C7FF"/>
<path d="M54.5493 55.8789H51.1898V59.2366H54.5493V55.8789Z" fill="white"/>
<path d="M69.1196 56.8818H55.8195V58.2338H69.1196V56.8818Z" fill="white"/>
<path d="M54.5493 60.6221H51.1898V63.9798H54.5493V60.6221Z" fill="white"/>
<path d="M69.1196 61.625H55.8195V62.9769H69.1196V61.625Z" fill="white"/>
<path d="M54.5493 65.3643H51.1898V68.722H54.5493V65.3643Z" fill="white"/>
<path d="M69.1196 66.3672H55.8195V67.7191H69.1196V66.3672Z" fill="white"/>
<path d="M85.9242 75.9023H48.7528V98.4458H85.9242V75.9023Z" fill="url(#paint6_linear_89_2060)"/>
<path d="M108.264 75.9023H88.9299V98.4458H108.264V75.9023Z" fill="url(#paint7_linear_89_2060)"/>
<path d="M58.842 82.5097C58.842 84.6026 57.1459 86.2978 55.052 86.2978C52.958 86.2978 51.262 84.6026 51.262 82.5097C51.262 80.4168 52.9611 78.7217 55.052 78.7217C57.1429 78.7217 58.842 80.4168 58.842 82.5097Z" fill="#B2C7FF"/>
<path d="M59.708 82.5094H55.0531V77.8569C58.106 77.8251 59.6029 79.434 59.708 82.5094Z" fill="#FF4129"/>
<path d="M83.399 79.749H61.9781V80.6169H83.399V79.749Z" fill="#B2C7FF"/>
<path d="M83.399 81.8066H61.9781V82.6745H83.399V81.8066Z" fill="#B2C7FF"/>
<path d="M65.2778 83.8633H61.9781V84.7312H65.2778V83.8633Z" fill="#B2C7FF"/>
<path d="M70.7734 83.8633H67.5367V84.7312H70.7734V83.8633Z" fill="#B2C7FF"/>
<path d="M76.7072 83.8633H72.5266V84.7312H76.7072V83.8633Z" fill="#B2C7FF"/>
<path d="M58.842 92.5019C58.842 94.5948 57.1459 96.29 55.052 96.29C52.958 96.29 51.262 94.5948 51.262 92.5019C51.262 90.409 52.9611 88.7139 55.052 88.7139C57.1429 88.7139 58.842 90.409 58.842 92.5019Z" fill="#B2C7FF"/>
<path d="M59.708 92.5006H55.0531V87.8481C58.106 87.8163 59.6029 89.4252 59.708 92.5006Z" fill="url(#paint8_linear_89_2060)"/>
<path d="M83.399 89.7402H61.9781V90.6081H83.399V89.7402Z" fill="#B2C7FF"/>
<path d="M83.399 91.7979H61.9781V92.6658H83.399V91.7979Z" fill="#B2C7FF"/>
<path d="M65.2778 93.8545H61.9781V94.7224H65.2778V93.8545Z" fill="#B2C7FF"/>
<path d="M70.7734 93.8545H67.5367V94.7224H70.7734V93.8545Z" fill="#B2C7FF"/>
<path d="M76.7072 93.8545H72.5266V94.7224H76.7072V93.8545Z" fill="#B2C7FF"/>
<path d="M94.8561 78.7227H92.0975V95.6268H94.8561V78.7227Z" fill="#B2C7FF"/>
<path d="M99.9761 78.7227H97.2175V95.6268H99.9761V78.7227Z" fill="#B2C7FF"/>
<path d="M105.096 78.7227H102.338V95.6268H105.096V78.7227Z" fill="#B2C7FF"/>
<path d="M94.8561 88.3955H92.0975V95.626H94.8561V88.3955Z" fill="url(#paint9_linear_89_2060)"/>
<path d="M99.9761 81.165H97.2175V95.6261H99.9761V81.165Z" fill="url(#paint10_linear_89_2060)"/>
<path d="M105.096 84.2969H102.338V95.6261H105.096V84.2969Z" fill="url(#paint11_linear_89_2060)"/>
<path d="M135.541 124.703L141.116 124.644L140.77 119.34L135.382 119.507L135.489 124.659C135.493 124.684 135.514 124.703 135.54 124.703H135.541Z" fill="#FEC9AC"/>
<path d="M141.248 124.48L142.214 128.511C142.38 129.362 141.746 130.159 140.88 130.188C137.321 130.307 130.325 130.189 129.033 130.178C128.93 130.177 128.848 130.095 128.843 129.993C128.786 128.759 129.605 127.975 130.813 127.369L135.469 124.235C135.477 124.229 135.487 124.227 135.498 124.228L141.248 124.479V124.48Z" fill="#373A50"/>
<path d="M155.108 124.703L160.684 124.644L160.337 119.34L154.95 119.507L155.056 124.659C155.06 124.684 155.082 124.703 155.107 124.703H155.108Z" fill="#FEC9AC"/>
<path d="M160.815 124.48L161.781 128.511C161.947 129.362 161.314 130.159 160.447 130.188C156.888 130.307 149.892 130.189 148.601 130.178C148.497 130.177 148.416 130.095 148.411 129.993C148.353 128.759 149.173 127.975 150.38 127.369L155.036 124.235C155.044 124.229 155.054 124.227 155.065 124.228L160.815 124.479V124.48Z" fill="#373A50"/>
<path d="M136.513 57.28C136.513 57.28 132.812 61.5931 130.399 60.3923C128.014 59.2057 125.538 56.2875 123.626 53.5948C121.591 50.7391 120.185 48.1365 120.185 48.1365L122.633 45.5723L130.955 53.4076L132.628 51.5893L132.934 52.0335L136.513 57.28Z" fill="#FFAB90"/>
<path d="M136.513 57.2802C136.513 57.2802 132.812 61.5933 130.399 60.3924C128.014 59.2058 125.538 56.2876 123.626 53.5949C125.104 54.2128 126.632 54.7121 128.188 55.0937C129.212 55.3438 130.323 55.5344 131.288 55.1144C132.135 54.7466 132.712 53.886 132.83 52.9874C132.868 52.7097 132.77 52.2902 132.934 52.0332L136.513 57.2798V57.2802Z" fill="#FECDCB"/>
<path d="M135.844 32.8279C136.022 33.7683 136.297 34.7359 136.954 35.4328C137.266 35.7642 137.72 36.0338 138.161 35.9191C138.606 35.8033 138.868 35.3446 139.014 34.9081C139.397 33.7633 139.314 32.4705 138.788 31.3836C138.465 30.7163 137.956 30.1088 137.271 29.8246C136.802 29.6297 135.461 29.5181 135.291 30.2138C135.214 30.5322 135.514 31.0936 135.583 31.4143C135.684 31.8825 135.754 32.357 135.844 32.8275V32.8279Z" fill="#111228"/>
<path d="M158.5 46.7997C158.121 47.8655 157.217 48.6858 156.197 49.1737C155.174 49.6615 154.036 49.851 152.91 49.9629C149.158 50.3327 145.371 49.8912 141.656 49.2419C140.469 49.0367 139.278 48.807 138.174 48.3222C137.074 47.8375 136.06 47.07 135.488 46.0104C134.916 44.9538 134.854 43.5773 135.513 42.5736C136.176 41.57 137.823 40.9828 138.877 41.5638C139.222 41.8246 139.623 41.9987 140.08 42.0674C140.479 42.1257 140.898 42.0712 140.932 42.0551C141.698 41.9585 142.666 41.3912 143.279 40.9053C143.291 40.8992 143.304 40.89 143.316 40.8773C144.161 40.2549 144.853 39.4498 145.452 38.7242C145.452 38.7242 147.053 38.2022 147.1 36.7602C147.14 35.48 145.881 35.9863 145.598 36.117L145.57 36.0112L145.567 36.005C145.567 36.0081 145.57 36.0143 145.567 36.0204C145.555 36.0825 145.548 36.1228 145.545 36.1354V36.1416C145.449 36.3157 145.11 36.359 144.945 36.1945C144.743 35.9955 144.731 35.6787 144.703 35.396C144.491 33.4013 142.601 31.7261 140.596 31.7606C139.896 31.7729 139.212 31.9658 138.528 32.1146C138.052 32.217 137.564 32.3044 137.086 32.2918C136.871 32.2887 136.657 32.2699 136.448 32.2205C135.761 32.0651 135.112 31.5991 134.922 30.9249C134.676 30.0547 135.242 29.1661 135.867 28.5137C137.537 26.7675 139.865 25.6737 142.271 25.4965C144.681 25.3224 147.143 26.0684 149.046 27.5538C149.692 28.0573 150.305 28.697 150.445 29.5021C150.581 30.2695 150.41 31.0745 150.507 31.8573C150.628 32.836 150.858 33.6065 151.548 34.3524C152.267 35.1291 153.181 35.6948 153.964 36.4062C154.744 37.1211 155.419 38.0718 155.406 39.1284C155.39 40.0543 154.859 41.0085 155.223 41.8564C155.646 42.8383 156.954 43.0124 157.775 43.6962C158.642 44.4199 158.879 45.7377 158.5 46.8004L158.5 46.7997Z" fill="#111228"/>
<path d="M141.61 41.874C141.524 41.9055 141.439 41.9327 141.354 41.958C141.439 41.9323 141.526 41.9066 141.61 41.874Z" fill="#373A50"/>
<path d="M141.153 42.0109C141.22 41.996 141.287 41.9776 141.354 41.958C141.311 41.9707 141.263 41.9937 141.153 42.0109Z" fill="#373A50"/>
<path d="M143.876 40.4113C143.935 40.3584 143.994 40.3059 144.05 40.2529C144.003 40.3001 143.931 40.3668 143.876 40.4113Z" fill="#373A50"/>
<path d="M145.568 36.0205C145.574 36.0638 145.564 36.101 145.546 36.1356C145.549 36.1233 145.555 36.0826 145.568 36.0205Z" fill="#373A50"/>
<path d="M141.519 121.446L143.214 84.4447L154.488 121.72C154.511 122.265 161.229 121.992 161.207 121.447L152.061 67.8018L132.764 69.2427L134.763 121.447C134.763 122.214 141.52 122.214 141.52 121.447L141.519 121.446Z" fill="#373A50"/>
<path d="M136.965 45.8965C134.305 47.2929 133.427 49.235 131.476 51.6823L135.819 55.7492L136.965 45.8965H136.965Z" fill="#5062EB"/>
<path d="M152.603 47.1736C151.621 45.2932 147.956 44.6439 145.975 44.4571C144.693 44.3363 141.696 44.3175 140.427 44.5342C138.772 44.8169 135.892 46.1228 135.103 47.6411C133.661 50.4117 133.177 61.3839 133.177 61.3839L131.297 75.0173C131.787 78.1403 154.988 77.04 154.57 73.7241C154.57 73.7241 152.329 63.754 152.487 61.3747C152.735 57.6269 154.202 50.2337 152.604 47.1736H152.603Z" fill="#657BFF"/>
<path d="M154.575 56.3194C154.575 56.3194 155.031 63.4153 153.018 65.9957C151.324 68.1683 129.604 61.1537 129.604 61.1537L130.328 57.4132L147.401 59.2062L148.063 55.3438L154.575 56.3194Z" fill="#FEC9AC"/>
<path d="M155.316 57.2785C155.316 57.9565 147.34 57.9565 147.34 57.2785C147.34 57.2785 147.246 52.5623 147.348 50.9899C147.535 48.0916 149.51 45.899 151.145 45.8975C151.8 45.8967 153.425 47.1278 154.575 49.2475C155.581 51.103 155.316 57.2785 155.316 57.2785Z" fill="#5062EB"/>
<path d="M145.975 44.4586C145.975 44.4586 144.597 47.5755 142.046 47.1736C140.325 46.9032 140.245 44.5683 140.245 44.5683C140.245 44.5683 141.178 43.9006 141.247 42.9744C141.295 42.3393 141.28 41.5845 141.169 40.8347C141.157 40.7592 141.145 40.6836 141.132 40.6058C141.04 40.0501 142.744 39.4702 143.883 39.1434C144.297 39.0264 144.907 38.8853 145.232 38.8539C145.346 38.8416 145.453 38.7246 145.453 38.7246C145.453 38.7246 145.107 43.0477 145.975 44.459L145.975 44.4586Z" fill="#FEC9AC"/>
<path d="M144.202 39.5479C144.19 39.8083 144.091 40.0967 143.975 40.3229C143.363 41.5805 141.825 42.616 141.247 42.9746C141.295 42.3395 141.28 41.5847 141.169 40.8349C141.703 40.3306 143.156 39.8481 144.202 39.5482V39.5479Z" fill="#F4BEBE"/>
<path d="M145.591 36.0842C145.56 36.1 145.544 36.1095 145.538 36.1095C145.444 36.2844 145.105 36.3308 144.939 36.1678C144.735 35.9707 144.72 35.6539 144.689 35.3713C144.46 33.3785 142.555 31.7205 140.55 31.7727C139.85 31.7915 139.169 31.9901 138.486 32.1455C138.011 32.2525 137.524 32.3437 137.045 32.3357C136.571 34.5835 136.616 39.906 138.919 41.5916C139.266 41.8493 139.669 42.02 140.126 42.084C140.532 42.1397 140.945 42.0806 140.978 42.0641C142.748 41.7527 144.343 40.0832 145.468 38.6929C145.468 38.6929 147.065 38.1564 147.099 36.7144C147.127 35.4338 145.873 35.9515 145.591 36.0846L145.591 36.0842ZM145.559 35.9726C145.559 35.9757 145.562 35.9818 145.559 35.988C145.559 35.9849 145.559 35.9818 145.562 35.9784L145.559 35.9722V35.9726Z" fill="#FEC9AC"/>
<path d="M122.633 45.5727L120.185 48.1369C120.185 48.1369 115.255 45.2049 117.112 42.3212C118.973 39.4344 121.657 44.49 121.657 44.49C121.657 44.49 121.702 43.3034 123.07 43.1473C124.434 42.9912 122.632 45.5727 122.632 45.5727H122.633Z" fill="#FFDAD9"/>
<path d="M105.906 43.2842V59.712C105.906 60.8273 106.81 61.7328 107.928 61.7328H127.611C128.727 61.7328 129.633 60.8269 129.633 59.712V43.2842C129.633 42.1666 128.727 41.2607 127.611 41.2607H107.928C106.81 41.2607 105.906 42.1662 105.906 43.2842Z" fill="#FADF68"/>
<path d="M111.287 48.9803L114.287 49.7938C114.815 48.7245 115.833 47.944 117.045 47.7323V44.6377C114.414 44.8878 112.217 46.614 111.287 48.9803Z" fill="white"/>
<path d="M119.966 57.9955L118.69 55.1781C116.013 55.8823 113.564 53.6049 113.914 51.061L110.93 50.2529C109.956 55.3346 114.935 59.7566 119.966 57.9955Z" fill="white"/>
<path d="M118.146 44.6182V47.6994C120.046 47.9191 121.525 49.5326 121.525 51.4924C121.525 52.8666 120.794 54.0731 119.702 54.7439L120.975 57.5555C123.131 56.39 124.597 54.1115 124.597 51.4924C124.597 47.834 121.745 44.8464 118.145 44.6185L118.146 44.6182Z" fill="white"/>
<path d="M121.525 51.492C121.525 52.8662 120.794 54.0727 119.702 54.7435L120.975 57.5551C123.131 56.3896 124.597 54.1111 124.597 51.492C124.597 47.8336 121.745 44.846 118.145 44.6182V47.6994C120.045 47.9191 121.525 49.5326 121.525 51.4924L121.525 51.492Z" fill="white"/>
<path d="M130.328 57.4128L129.604 61.1533C129.604 61.1533 123.454 61.3156 123.857 56.9062C124.257 52.5433 128.793 56.9035 128.886 56.9929C128.854 56.9265 128.399 55.965 129.196 55.5367C130.021 55.0968 130.328 57.4128 130.328 57.4128H130.328Z" fill="#FEC9AC"/>
<path d="M1.80572 131.405L0.867909 135.32C0.706746 136.147 1.32185 136.921 2.16373 136.949C5.62068 137.065 12.4152 136.95 13.67 136.939C13.7701 136.938 13.8496 136.859 13.8546 136.759C13.9106 135.561 13.0583 135.028 11.9417 134.211L7.41956 131.167C7.41112 131.162 7.40153 131.16 7.39155 131.16L1.80572 131.405V131.405Z" fill="#373A50"/>
<path d="M7.50123 126.576C7.50123 126.576 7.44406 131.166 7.41912 131.166C7.48243 132.66 1.86898 132.897 1.80566 131.404L2.2715 126.412L7.50123 126.576Z" fill="#FEC9AC"/>
<path d="M7.9767 76.0755L0.30957 129.021C0.30957 130.178 8.47131 130.178 8.47131 129.021L16.7121 90.1124L10.8155 74.3643L7.9767 76.0755Z" fill="#5062EB"/>
<path d="M18.2404 131.405L17.3026 135.32C17.1414 136.147 17.7565 136.921 18.5984 136.949C22.0554 137.065 28.8499 136.95 30.1047 136.939C30.2048 136.938 30.2843 136.859 30.2893 136.759C30.3453 135.561 29.493 135.028 28.3764 134.211L23.8543 131.167C23.8458 131.162 23.8362 131.16 23.8262 131.16L18.2404 131.405V131.405Z" fill="#373A50"/>
<path d="M23.9359 126.576C23.9359 126.576 23.8788 131.166 23.8538 131.166C23.9171 132.66 18.3037 132.897 18.2404 131.404L18.7062 126.412L23.9359 126.576Z" fill="#FEC9AC"/>
<path d="M26.0047 77.7389L27.1187 104.807L25.3743 129.133C25.3743 130.806 17.2766 130.806 17.2766 129.133L17.726 105.436C17.726 105.436 15.7149 95.9746 14.6197 92.9501C12.4916 87.0746 8.90536 81.9089 12.8792 76.5596L26.0047 77.7389Z" fill="#657BFF"/>
<path d="M49.1135 60.7276C48.465 61.9384 47.0058 62.4113 47.0058 62.4113C47.0058 62.4113 39.39 72.9171 35.3502 72.9217C32.414 72.9217 29.2026 67.0791 29.2026 67.0791L35.0528 62.74L37.1468 65.4051L44.9383 60.1339C44.9383 60.1339 44.3842 57.154 45.3707 57.3523C46.3527 57.5502 45.9609 58.563 45.9609 58.563C45.9609 58.563 48.7486 54.2553 49.3656 54.9621C49.9873 55.6644 47.4516 58.563 47.4516 58.563C47.4516 58.563 49.762 59.5172 49.1135 60.728V60.7276Z" fill="#FEC9AC"/>
<path d="M3.01172 64.6999C3.01172 64.6999 0.842549 68.8128 1.06779 70.2706C1.81298 75.088 9.96283 76.1454 9.96283 76.1454L11.1834 67.1982L10.7368 64.4736L3.01172 64.7003V64.6999Z" fill="#FEC9AC"/>
<path d="M22.6087 47.3158L22.4702 49.643L22.3385 51.8498L17.1587 52.1413L17.7312 45.5815L20.7707 42.7393L21.4713 44.4801L22.6087 47.3158Z" fill="#FEC9AC"/>
<path d="M22.6088 47.3152L22.4703 49.6425C22.1111 49.3617 20.2838 47.8802 19.8287 46.6046C19.427 45.4782 20.8705 44.7353 21.471 44.4795L22.6088 47.3152Z" fill="#FECDCB"/>
<path d="M26.0929 43.0659C26.0503 43.1226 26.0039 43.1828 25.9544 43.2361C25.9793 43.6626 25.99 44.0784 25.9828 44.4834C25.9793 44.7783 25.9686 45.0663 25.9471 45.3398C25.8511 46.587 25.5772 47.6068 25.1079 48.1149C23.3731 49.9873 17.7308 45.5814 17.7308 45.5814V39.0611C17.7308 39.0611 21.4886 35.0568 23.0281 35.6961C24.2652 36.2077 25.1578 38.2937 25.6232 40.6351C25.7333 41.1751 25.9114 41.7009 26.1493 42.1983C26.3312 42.5715 26.3584 42.7172 26.0925 43.0655L26.0929 43.0659Z" fill="#FEC9AC"/>
<path d="M10.9693 62.4633C10.3224 65.4624 9.64319 67.9994 9.64319 67.9994C9.46169 68.422 7.99703 68.0811 6.42224 67.477C4.33518 66.6705 2.0459 65.4018 2.28765 64.8403C2.28765 64.8403 6.81709 55.4348 10.9409 52.9864C12.9248 51.8067 11.9896 57.7122 10.9693 62.4633Z" fill="#F34B6D"/>
<path d="M8.48779 60.5798C8.82201 59.3752 9.06031 58.0781 9.5154 56.916C9.83888 57.1293 9.9137 58.1065 10.0096 58.4831C10.1662 59.0979 10.3224 59.7092 10.4789 60.3202C10.5215 60.4977 10.7491 61.539 10.9697 62.4629C10.3227 65.462 9.64356 67.999 9.64356 67.999C9.46206 68.4217 7.9974 68.0807 6.42261 67.4767C6.84931 66.4569 7.15858 65.3731 7.45367 64.3072" fill="#E24067"/>
<path d="M29.058 61.1561C28.5212 68.6321 26.2933 83.0985 26.2933 83.0985C26.233 83.4291 25.4506 83.6101 24.2312 83.678C19.229 83.948 6.89274 82.2885 7.13448 80.9385C7.13448 80.9385 8.34551 55.1655 10.9406 52.9874C14.8369 49.7148 26.5158 51.1822 28.8869 55.2652C29.2779 55.9402 29.271 58.2217 29.0576 61.1564L29.058 61.1561Z" fill="#F34B6D"/>
<path d="M29.058 61.1562C28.5211 68.6322 26.2933 83.0987 26.2933 83.0987C26.233 83.4293 25.4506 83.6103 24.2311 83.6782C25.5573 81.084 27.177 75.6434 27.035 72.7758C26.9141 70.2211 25.6877 67.8759 24.7987 65.4808C23.9061 63.0823 23.3658 60.3071 24.5535 58.0439L24.3543 59.1243C26.1175 58.9502 27.8631 59.8423 29.0576 61.1566L29.058 61.1562Z" fill="#E24067"/>
<path d="M28.1447 54.3325C29.0937 54.805 35.96 62.1471 35.96 62.1471C36.7777 62.8225 30.6988 70.1773 29.8811 69.5019C29.8811 69.5019 25.4433 64.6297 24.5343 62.1617C23.0942 58.2517 26.3681 53.4473 28.1444 54.3321L28.1447 54.3325Z" fill="#F34B6D"/>
<path d="M17.321 49.155C17.321 49.155 20.4058 47.1442 20.3835 45.3125C20.3613 43.4804 18.2692 41.3135 19.8851 40.6431C21.5013 39.9727 21.613 42.2516 22.3282 41.7377C23.0435 41.2238 22.6102 40.1963 22.6102 40.1963C22.6102 40.1963 25.9049 39.2579 25.8377 36.1747C25.7706 33.0916 23.6455 31.0363 21.8582 32.0193C20.0708 33.0022 21.6801 34.231 19.5789 34.3427C17.4776 34.4543 12.7835 36.5322 13.074 38.4981C13.3645 40.464 10.8162 40.7659 12.1128 42.7372C13.4094 44.7089 17.321 49.1546 17.321 49.1546V49.155Z" fill="#111228"/>
<path d="M38.8778 3.11258V23.4385C38.8778 24.6508 37.8955 25.6353 36.6798 25.6353H15.2855C14.0725 25.6353 13.0875 24.6508 13.0875 23.4385V3.11258C13.0875 1.89759 14.0725 0.913086 15.2855 0.913086H36.6798C37.8955 0.913086 38.8778 1.89759 38.8778 3.11258Z" fill="#B2C7FF"/>
<path d="M25.888 21.2143L25.88 21.2181C25.0216 21.7148 24.0281 21.9967 22.9629 21.9967C19.7281 21.9967 17.1012 19.3711 17.1012 16.138C17.1012 12.9049 19.7281 10.2793 22.9629 10.2793C25.4786 10.2793 27.6205 11.8602 28.4551 14.0804C29.4436 16.7309 28.4083 19.7607 25.888 21.2139V21.2143Z" fill="white"/>
<path d="M28.4551 14.0804L22.9629 16.138V10.2793C25.4786 10.2793 27.6205 11.8602 28.4551 14.0804Z" fill="#FF4129"/>
<path d="M25.888 21.214L25.8799 21.2178L22.9629 16.1377L28.4551 14.0801C29.4436 16.7306 28.4083 19.7604 25.888 21.2136V21.214Z" fill="#FADF68"/>
<path d="M34.8651 13.1947V13.8264C34.8651 13.9694 34.7539 14.0806 34.6146 14.0806H30.7478C30.6089 14.0806 30.4934 13.9694 30.4934 13.8264V13.1947C30.4934 13.0555 30.6085 12.9404 30.7478 12.9404H34.6146C34.7539 12.9404 34.8651 13.0555 34.8651 13.1947Z" fill="white"/>
<path d="M34.8651 15.8226V16.4543C34.8651 16.5973 34.7539 16.7086 34.6146 16.7086H30.7478C30.6089 16.7086 30.4934 16.5973 30.4934 16.4543V15.8226C30.4934 15.6834 30.6085 15.5684 30.7478 15.5684H34.6146C34.7539 15.5684 34.8651 15.6834 34.8651 15.8226Z" fill="white"/>
<path d="M34.8651 18.4496V19.0812C34.8651 19.2243 34.7539 19.3355 34.6146 19.3355H30.7478C30.6089 19.3355 30.4934 19.2243 30.4934 19.0812V18.4496C30.4934 18.3104 30.6085 18.1953 30.7478 18.1953H34.6146C34.7539 18.1953 34.8651 18.3104 34.8651 18.4496Z" fill="white"/>
<path d="M35.0797 5.6122C35.0797 6.19323 34.6077 6.6688 34.0187 6.6688H17.9477C17.3595 6.6688 16.8867 6.1963 16.8867 5.6122C16.8867 5.02809 17.3595 4.55176 17.9477 4.55176H34.0187C34.607 4.55176 35.0797 5.02426 35.0797 5.6122Z" fill="url(#paint12_linear_89_2060)"/>
<defs>
<linearGradient id="paint0_linear_89_2060" x1="78.602" y1="2.20711" x2="78.602" y2="11.7737" gradientUnits="userSpaceOnUse">
<stop stop-color="#EBF2FF"/>
<stop offset="1" stop-color="#E1E8FF"/>
</linearGradient>
<linearGradient id="paint1_linear_89_2060" x1="47.8621" y1="5.78225" x2="47.8621" y2="6.62063" gradientUnits="userSpaceOnUse">
<stop stop-color="#F34B6D"/>
<stop offset="1" stop-color="#E24067"/>
</linearGradient>
<linearGradient id="paint2_linear_89_2060" x1="50.9534" y1="5.78225" x2="50.9534" y2="6.62063" gradientUnits="userSpaceOnUse">
<stop stop-color="#FADF68"/>
<stop offset="1" stop-color="#EAC250"/>
</linearGradient>
<linearGradient id="paint3_linear_89_2060" x1="54.0447" y1="5.78225" x2="54.0447" y2="6.62063" gradientUnits="userSpaceOnUse">
<stop stop-color="#3DCFA4"/>
<stop offset="1" stop-color="#30BB93"/>
</linearGradient>
<linearGradient id="paint4_linear_89_2060" x1="48.4573" y1="32.1332" x2="108.746" y2="32.1332" gradientUnits="userSpaceOnUse">
<stop stop-color="#EBF2FF"/>
<stop offset="1" stop-color="#E1E8FF"/>
</linearGradient>
<linearGradient id="paint5_linear_89_2060" x1="74.3934" y1="62.7939" x2="108.746" y2="62.7939" gradientUnits="userSpaceOnUse">
<stop stop-color="#EBF2FF"/>
<stop offset="1" stop-color="#E1E8FF"/>
</linearGradient>
<linearGradient id="paint6_linear_89_2060" x1="48.7528" y1="87.1741" x2="85.9242" y2="87.1741" gradientUnits="userSpaceOnUse">
<stop stop-color="#EBF2FF"/>
<stop offset="1" stop-color="#E1E8FF"/>
</linearGradient>
<linearGradient id="paint7_linear_89_2060" x1="88.9299" y1="87.1741" x2="108.264" y2="87.1741" gradientUnits="userSpaceOnUse">
<stop stop-color="#EBF2FF"/>
<stop offset="1" stop-color="#E1E8FF"/>
</linearGradient>
<linearGradient id="paint8_linear_89_2060" x1="55.0531" y1="90.1746" x2="59.708" y2="90.1746" gradientUnits="userSpaceOnUse">
<stop stop-color="#909EFF"/>
<stop offset="1" stop-color="#6977E3"/>
</linearGradient>
<linearGradient id="paint9_linear_89_2060" x1="92.0975" y1="92.011" x2="94.8561" y2="92.011" gradientUnits="userSpaceOnUse">
<stop stop-color="#909EFF"/>
<stop offset="1" stop-color="#6977E3"/>
</linearGradient>
<linearGradient id="paint10_linear_89_2060" x1="97.2175" y1="88.3956" x2="99.9761" y2="88.3956" gradientUnits="userSpaceOnUse">
<stop stop-color="#909EFF"/>
<stop offset="1" stop-color="#6977E3"/>
</linearGradient>
<linearGradient id="paint11_linear_89_2060" x1="102.338" y1="89.9615" x2="105.096" y2="89.9615" gradientUnits="userSpaceOnUse">
<stop stop-color="#909EFF"/>
<stop offset="1" stop-color="#6977E3"/>
</linearGradient>
<linearGradient id="paint12_linear_89_2060" x1="16.8867" y1="5.61028" x2="35.0797" y2="5.61028" gradientUnits="userSpaceOnUse">
<stop stop-color="#909EFF"/>
<stop offset="1" stop-color="#6977E3"/>
</linearGradient>
</defs>
</svg>
