<svg width="320" height="224" viewBox="0 0 320 224" fill="none" xmlns="http://www.w3.org/2000/svg">
<path d="M268 29V198.284C268 198.979 268.588 199.674 269.758 200.206C272.1 201.265 275.9 201.265 278.242 200.206C279.412 199.674 280 198.979 280 198.284V29H268.005H268Z" fill="url(#paint0_linear_138_18)"/>
<path opacity="0.5" d="M5.58389 201.004H314.516C314.516 201.004 322.506 175.522 308.497 161.442C291.509 144.373 272.943 151.151 265.478 144.28C255.581 135.174 256.998 93.0039 195.621 93.0039C158.91 93.0039 144.762 131.417 132.942 131.417C117.901 131.417 97.0309 112.438 59.1963 119.99C-6.01764 133.009 5.58389 201.004 5.58389 201.004Z" fill="#DBF1FF"/>
<path d="M2.78491 202.504C2.78491 206.646 73.7468 210.004 161.285 210.004C248.823 210.004 319.785 206.646 319.785 202.504C319.785 198.362 248.823 195.004 161.285 195.004C73.7468 195.004 2.78491 198.362 2.78491 202.504Z" fill="#C5EAE2"/>
<g opacity="0.7">
<path d="M258.508 70.3032C257.201 70.3032 256.141 69.2566 256.141 67.9655C256.141 66.6745 257.201 65.6279 258.508 65.6279C259.816 65.6279 260.875 66.6745 260.875 67.9655C260.875 69.2566 259.816 70.3032 258.508 70.3032Z" fill="#848E96"/>
<path d="M259.704 66.3056C259.704 67.293 257.332 67.3317 257.376 66.3056V63.8857H259.704V66.3056Z" fill="#BBCAD5"/>
<path d="M259.552 69.9492C258.685 69.4604 259.832 67.4083 260.709 67.9552L268.728 72.4901L267.571 74.4841L259.552 69.9492Z" fill="#BBCAD5"/>
<path d="M260.88 62.5202C260.88 63.8125 259.822 64.8579 258.513 64.8579C257.204 64.8579 256.146 63.8125 256.146 62.5202C256.146 61.228 257.204 60.1826 258.513 60.1826C259.822 60.1826 260.88 61.228 260.88 62.5202Z" fill="#848E96"/>
<path d="M253.896 63.2849L254.239 64.098L259.253 62.7622L262.719 60.8166L262.4 60.1777L253.896 63.2849Z" fill="#575E63"/>
<path d="M242.602 53.7411L237.632 56.6402V59.515L239.745 62.1527L240.872 62.2543L241.622 62.0317L242.843 64.6355L245.038 65.6228L260.88 61.4461L265.351 58.8858L266.007 56.4853L264.65 53.5766L265.297 53.1943L264.292 49.9903L261.542 48.79L242.602 53.7411Z" fill="#DAECFA"/>
<path d="M245.039 65.6225L242.843 64.6352L258.763 60.5068L260.88 61.4458L245.039 65.6225Z" fill="#575E63"/>
<path d="M258.763 60.5071L260.88 61.446L265.351 58.8858L266.007 56.4852L264.65 53.5765L263.336 50.842L261.302 49.8789L257.204 52.2552L256.645 54.68L257.439 57.6613L258.763 60.5071Z" fill="#BBCAD5"/>
<path d="M241.622 62.0315L242.843 64.6353L258.763 60.5069L257.44 57.6611L256.807 58.0774L241.622 62.0315Z" fill="#575E63"/>
<path d="M237.632 59.5154L255.881 54.7627L256.807 58.078L241.622 62.0321L240.872 62.2547L239.745 62.1531L237.632 59.5154Z" fill="#848E96"/>
<path d="M261.302 49.879L261.675 49.666L263.826 50.5807L264.65 53.5766L263.336 50.8421L261.302 49.879Z" fill="#575E63"/>
<path d="M237.632 59.515V56.6402L256.646 51.6504L255.881 54.7624L237.632 59.515Z" fill="#BBCAD5"/>
<path d="M267.096 71.3769V78.3752L268.346 79.106L271.924 77.1556V70.1766L270.566 69.3926L267.096 71.3769Z" fill="#575E63"/>
<path d="M268.346 79.1061V72.0981L267.096 71.377V78.3753L268.346 79.1061Z" fill="#575E63"/>
<path d="M267.096 71.3769L268.346 72.098L271.924 70.1766L270.566 69.3926L267.096 71.3769Z" fill="#DAECFA"/>
<path d="M267.12 86.967V93.9653L270.61 95.969L272.007 95.2478V88.2785L268.404 86.2168L267.12 86.967Z" fill="#BBCAD5"/>
<path d="M267.12 86.9668V93.9651L270.61 95.9688V88.8882L267.12 86.9668Z" fill="#DAECFA"/>
<path d="M259.238 95.5965L268.375 90.4421C269.145 90.0453 270.213 92.0586 269.468 92.4894L260.018 97.9632L259.238 95.6013V95.5965Z" fill="#BBCAD5"/>
<path d="M260.969 97.4791C260.969 98.781 259.9 99.836 258.582 99.836C257.263 99.836 256.195 98.781 256.195 97.4791C256.195 96.1771 257.263 95.1221 258.582 95.1221C259.9 95.1221 260.969 96.1771 260.969 97.4791Z" fill="#848E96"/>
<path d="M257.332 95.7804C257.332 95.7804 257.592 96.4434 258.582 96.3708C259.577 96.2982 259.719 95.7997 259.734 95.4174C259.748 95.0351 259.636 91.2891 259.636 91.2891L257.332 95.7852V95.7804Z" fill="#BBCAD5"/>
<path d="M267.238 85.9698L248.901 104.971L247.984 105.402L243.446 102.856L243.039 102.319L237.377 99.1533L237 98.7468L258.14 76.8661L259.238 76.416L264.189 79.2667L266.61 81.7011L266.998 84.4888L266.669 84.8034L267.238 85.9698Z" fill="#DAECFA"/>
<path d="M267.238 85.9699L248.901 104.971L247.984 105.402L243.446 102.856L243.039 102.319L266.61 81.7012L266.998 84.4889L266.669 84.8035L267.238 85.9699Z" fill="#575E63"/>
<path d="M237 98.7468L237.377 99.1533L259.238 76.416L258.14 76.8613L237 98.7468Z" fill="#BBCAD5"/>
<path d="M264.189 79.2666L266.61 81.701L245.534 103.616L242.372 101.946L264.189 79.2666Z" fill="#BBCAD5"/>
<path d="M270.61 88.8881V95.9687L272.007 95.2476V88.2783L270.61 88.8881Z" fill="#575E63"/>
<path d="M281.531 77.7365V84.6816L278.07 86.666L276.683 85.9497V79.0384L280.256 76.9912L281.531 77.7365Z" fill="#BBCAD5"/>
<path d="M281.531 77.7363V84.6814L278.07 86.6657V79.6432L281.531 77.7363Z" fill="#DAECFA"/>
<path d="M289.354 86.2934L280.286 81.1777C279.526 80.7808 278.462 82.7845 279.203 83.2056L288.579 88.6358L289.354 86.2934Z" fill="#BBCAD5"/>
<path d="M278.07 79.644V86.6666L276.683 85.9503V79.0391L278.07 79.644Z" fill="#575E63"/>
<path d="M282.893 69.7559L282.8 72.6017L287.962 94.1678H288.413V95.1357L290.334 96.1763L296.358 95.4987L298.284 94.1145L298.495 92.3432L298.76 93.0207H299.632L300 92.1883L294.51 68.5314L292.211 67.2295L285.374 67.9603L282.893 69.7559Z" fill="#DAECFA"/>
<path d="M282.893 69.7559L288.462 93.4127L291.138 92.4932L297.932 91.7817L300 92.1883L299.632 93.0207H298.76L298.495 92.3432L297.834 92.1254L291.202 92.7594L289.221 93.4805L288.878 94.1532L288.413 94.1678H287.962L282.8 72.6017L282.893 69.7559Z" fill="#575E63"/>
<path d="M298.495 92.3428L298.284 94.119L296.358 95.4983L290.334 96.1759L288.413 95.1354V94.1674L288.878 94.1529L289.221 93.4801L289.501 93.3785L290.354 93.0688L291.202 92.759L296.304 92.2702L297.618 92.1492L297.834 92.125L298.495 92.3428Z" fill="#BBCAD5"/>
<path d="M297.618 92.1494C297.314 93.8675 295.084 95.0048 292.898 95.1694C290.957 95.3146 289.756 94.4289 289.501 93.3787L290.354 93.0689L291.202 92.7592L296.304 92.2704L297.618 92.1445V92.1494Z" fill="#575E63"/>
<path d="M296.304 92.2705C296.02 93.3352 294.608 94.1483 293.03 94.1483C291.834 94.1483 290.707 93.8773 290.354 93.0642L291.202 92.7544L296.304 92.2656V92.2705Z" fill="#34383B"/>
<path d="M285.374 67.96L291.138 92.4929L288.462 93.4124L282.893 69.7555L285.374 67.96Z" fill="#BBCAD5"/>
<path d="M292.211 67.2295L297.932 91.7817L300 92.1883L294.51 68.5314L292.211 67.2295Z" fill="#BBCAD5"/>
</g>
<path d="M19.6325 197.165C19.6325 197.165 30.5431 177.108 23.3036 174.556C18.5193 172.867 16.964 191.632 16.964 191.632C16.964 191.632 16.5377 170.83 10.1903 173.493C5.39819 175.499 11.8009 190.514 11.8009 190.514C11.8009 190.514 4.84556 184.854 3.96923 188.405C2.57186 194.058 10.5772 197.268 10.5772 197.268L19.6404 197.165H19.6325Z" fill="#A2DDD0"/>
<path d="M17.3825 197.189L22.6641 180.565C22.6957 180.47 22.6404 180.375 22.5536 180.343C22.4588 180.311 22.3641 180.359 22.3325 180.454L17.0114 197.189H17.3746H17.3825Z" fill="#E0FBF0"/>
<path d="M16.0088 197.205L12.2272 179.082C12.2114 178.987 12.1166 178.924 12.0219 178.947C11.9272 178.971 11.864 179.058 11.8877 179.154L15.6614 197.205H16.0167H16.0088Z" fill="#E0FBF0"/>
<path d="M14.0667 197.229L6.87454 191.014C6.80349 190.95 6.69296 190.958 6.6298 191.03C6.56664 191.101 6.57454 191.212 6.64559 191.275L13.5377 197.237H14.0588L14.0667 197.229Z" fill="#E0FBF0"/>
<path d="M27.5905 173.121L27.8826 172.923C27.8826 172.923 25.6641 169.68 22.4667 170.315L22.5378 170.656C25.5141 170.069 27.5747 173.081 27.5983 173.113L27.5905 173.121Z" fill="#A2DDD0"/>
<path d="M0.187644 188.865L0.52712 188.786C0.187644 187.39 0.32975 186.336 0.929754 185.638C1.89292 184.529 3.75609 184.695 3.77977 184.703L3.81135 184.354C3.7324 184.354 1.75081 184.164 0.669226 185.409C-0.00972556 186.193 -0.175516 187.359 0.187644 188.865Z" fill="#A2DDD0"/>
<path d="M272.384 194.897C272.384 194.897 258.173 168.07 269.723 168.356C274.468 168.475 278.565 189.8 278.565 189.8C278.565 189.8 277.634 170.338 287.131 173.39C292.263 175.047 284.494 189.8 284.494 189.8C284.494 189.8 291.529 180.271 295.492 182.974C301.942 187.382 290.107 194.961 290.107 194.961L272.392 194.881L272.384 194.897Z" fill="#A2DDD0"/>
<path d="M266.147 194.874C266.147 194.874 263.644 180.675 258.142 180.913C254.21 181.088 257.755 190.704 261.094 194.858C261.094 194.858 265.989 194.866 266.147 194.866V194.874Z" fill="#A2DDD0"/>
<path d="M275.834 194.914L269.913 173.89C269.873 173.747 269.723 173.668 269.581 173.707C269.439 173.747 269.36 173.89 269.4 174.04L275.273 194.914H275.826H275.834Z" fill="#E0FBF0"/>
<path d="M280.736 194.93L284.842 177.917C284.873 177.774 284.786 177.632 284.644 177.6C284.502 177.576 284.36 177.655 284.321 177.798L280.192 194.937H280.736V194.93Z" fill="#E0FBF0"/>
<path d="M263.557 194.866L259.776 185.376C259.72 185.242 259.57 185.178 259.428 185.226C259.294 185.281 259.223 185.44 259.278 185.567L262.989 194.858H263.557V194.866Z" fill="#E0FBF0"/>
<path d="M285.086 194.953L292.539 186.518C292.634 186.407 292.626 186.24 292.515 186.145C292.405 186.05 292.239 186.058 292.144 186.169L284.384 194.96H285.086V194.953Z" fill="#E0FBF0"/>
<path d="M275.471 167.745C275.471 167.745 275.534 167.745 275.565 167.73C275.7 167.674 275.771 167.524 275.715 167.389C275.621 167.135 273.315 161.15 269.392 159.762C267.947 159.247 266.471 159.429 264.994 160.301C264.868 160.373 264.828 160.539 264.899 160.666C264.971 160.793 265.136 160.833 265.263 160.761C266.597 159.976 267.923 159.81 269.218 160.262C272.913 161.57 275.202 167.516 275.226 167.579C275.265 167.682 275.368 167.753 275.471 167.753V167.745Z" fill="#A2DDD0"/>
<path d="M48.2589 186.899H53.9116C53.8721 186.241 53.8484 185.599 53.8484 184.941C53.8563 182.698 54.109 180.446 54.4011 178.227C54.6774 176.078 55.1116 173.985 55.8774 171.964C56.2879 170.886 56.73 169.816 56.9748 168.69C57.1563 167.818 57.2037 166.93 57.1327 166.042H49.0879C49.1826 167.635 49.2774 169.221 48.7563 170.751C48.48 171.583 48.1721 172.392 47.9668 173.248C47.7694 174.073 47.6352 174.913 47.5563 175.761C47.2089 179.321 47.73 182.92 48.1958 186.44C48.2116 186.59 48.2431 186.741 48.2589 186.892V186.899Z" fill="#FEC9AC"/>
<path d="M53.9984 186.899C54.0616 186.337 54.1247 185.774 54.1721 185.219C54.1721 185.219 52.4589 185.409 47.7852 185.147C47.7852 185.147 47.8563 185.932 47.9431 186.899H53.9905H53.9984Z" fill="#98D4FC"/>
<path d="M60.6459 198.276C60.5117 197.547 60.0064 197.063 59.4301 196.675C58.3327 195.937 54.9143 194.954 54.5511 194.629C53.8485 194.003 53.7221 192.972 53.7537 192.069C53.8169 190.158 54.0616 188.24 54.2274 186.337C54.2274 186.337 51.8195 186.932 47.6984 186.258C47.6984 186.258 47.9826 189.675 48.1169 191.387C48.18 192.219 48.259 193.06 48.1958 193.892C48.1405 194.629 47.9826 195.351 47.8326 196.072C47.6826 196.794 47.5405 197.515 47.5168 198.244C47.5168 198.371 47.5168 198.641 47.5168 198.641C47.9747 199.108 49.0484 199.069 49.5537 199.045C50.8327 198.989 52.0642 198.791 53.359 198.879C55.0169 198.982 56.6669 199.259 58.3327 199.322C58.9011 199.346 59.4459 199.338 59.959 199.259C60.6222 199.085 60.6774 198.474 60.638 198.276H60.6459Z" fill="#091317"/>
<path d="M38.5799 186.899H44.2326C44.1931 186.241 44.1615 185.599 44.1694 184.941C44.1773 182.698 44.4299 180.446 44.722 178.227C44.9984 176.078 45.4326 173.985 46.1984 171.964C46.601 170.886 47.051 169.816 47.2878 168.69C47.4773 167.818 47.5247 166.93 47.4457 166.042H39.401C39.4957 167.635 39.5904 169.221 39.0694 170.751C38.7931 171.583 38.4852 172.392 38.2799 173.248C38.0825 174.073 37.9483 174.913 37.8615 175.761C37.5141 179.321 38.0352 182.92 38.5009 186.44C38.5246 186.59 38.5483 186.741 38.5641 186.892L38.5799 186.899Z" fill="#FEC9AC"/>
<path d="M44.3194 186.899C44.3826 186.337 44.4378 185.774 44.4931 185.219C44.4931 185.219 42.7799 185.409 38.1062 185.147C38.1062 185.147 38.1773 185.932 38.2641 186.899H44.3194Z" fill="#98D4FC"/>
<path d="M50.9668 198.276C50.8326 197.547 50.3274 197.063 49.7589 196.675C48.6616 195.937 45.2431 194.954 44.88 194.629C44.1773 194.003 44.051 192.972 44.0826 192.069C44.1536 190.158 44.3905 188.24 44.5563 186.337C44.5563 186.337 42.1484 186.932 38.0273 186.258C38.0273 186.258 38.3036 189.675 38.4457 191.387C38.5168 192.219 38.5878 193.06 38.5247 193.892C38.4694 194.629 38.3115 195.351 38.1615 196.072C38.0115 196.794 37.8694 197.515 37.8457 198.244C37.8457 198.371 37.8457 198.641 37.8457 198.641C38.2957 199.108 39.3773 199.069 39.8826 199.045C41.1615 198.989 42.3931 198.791 43.6878 198.879C45.3457 198.982 46.9958 199.259 48.6616 199.322C49.23 199.346 49.7747 199.338 50.2879 199.259C50.951 199.085 51.0063 198.474 50.9668 198.276Z" fill="#12252E"/>
<path d="M76.1512 103.073C75.7881 102.7 75.3775 103.549 75.2196 103.755C74.7696 104.373 74.1459 104.746 73.4986 105.11C73.6959 104.881 73.8933 104.651 74.1065 104.437C74.2802 104.262 74.4775 104.088 74.6275 103.898C74.8091 103.676 74.9196 103.406 75.0538 103.152C75.1723 102.915 75.3065 102.677 75.4012 102.431C75.4565 102.304 75.4881 102.146 75.3854 102.035C75.1407 101.765 74.7538 102.058 74.5328 102.304C74.5644 102.169 74.5644 102.042 74.517 101.916C74.3275 101.472 73.9407 101.9 73.7433 102.082C73.1354 102.645 72.5275 103.216 71.888 103.755C71.6196 103.977 71.3354 104.302 71.0196 104.452C70.9801 104.484 70.9407 104.516 70.8933 104.548C70.7749 104.492 70.6643 104.445 70.5459 104.389C70.5222 104.341 70.6486 104.119 70.6643 104.072C70.7196 103.945 70.7907 103.818 70.8301 103.683C70.9012 103.446 70.9091 102.891 70.5301 102.962C70.317 102.994 70.088 103.343 69.9696 103.501C69.7564 103.763 69.5512 104.04 69.3775 104.334C69.0854 104.849 69.0459 105.404 69.0538 105.982C69.0617 106.775 68.9907 107.544 68.7143 108.297C68.5643 108.694 68.3749 109.082 68.138 109.431C67.917 109.764 67.6564 110.049 67.4749 110.406C67.4749 110.422 70.0643 111.54 70.6722 111.706C70.7907 110.446 72.0065 109.59 72.7959 108.717C73.167 108.305 73.538 107.885 73.9644 107.528C74.3907 107.187 74.8959 106.934 75.2433 106.498C75.567 106.093 75.796 105.594 76.0407 105.142C76.1275 104.976 76.3407 104.627 76.0486 104.524C75.8039 104.437 75.4723 104.841 75.3223 104.968C75.2749 105.015 75.2275 105.055 75.1802 105.095C75.3223 104.936 75.4644 104.77 75.5907 104.595C75.8117 104.302 76.5223 103.454 76.1433 103.057L76.1512 103.073Z" fill="#FEC9AC"/>
<path d="M71.4696 110.873C69.8512 110.445 69.267 109.962 67.838 109.09C66.0222 110.889 64.159 113.616 62.2564 115.337C60.2116 117.184 59.1301 115.091 56.5721 112.792C54.7484 111.151 53.2169 109.557 51.6853 108.923C48.6774 107.671 46.3563 108.019 43.6563 107.829C39.022 107.504 36.172 107.441 33.4404 109.803C30.4641 112.38 28.0562 118.991 27.5825 120.489C27.1167 121.98 26.4535 123.399 25.972 124.881C25.2456 127.101 24.8114 129.043 26.2483 131.065C27.093 132.254 33.1246 136.654 34.8062 137.716C34.8062 137.716 35.7378 136.004 36.3141 135.33C35.6904 140.039 35.4536 144.787 35.2088 149.528C34.9246 154.959 34.6483 160.389 34.3641 165.819C43.1352 169.252 52.5695 167.135 61.3722 165.788C60.4801 158.637 59.3037 151.518 57.8274 144.455C57.0853 140.895 56.2563 137.367 55.3721 133.847C54.4879 130.351 53.1063 127.799 53.5326 124.16C53.6984 122.725 53.9116 120.981 53.5326 119.142C53.9195 119.388 55.2458 120.085 55.6248 120.315C57.6379 121.56 59.9669 122.598 62.3827 122.297C64.7117 122.012 66.188 119.697 67.5775 117.897C69.2827 115.693 69.8748 113.156 71.4775 110.873H71.4696ZM36.8904 134.212C35.8404 133.055 31.6641 127.902 31.0009 127.355C32.7457 124.969 34.972 121.972 35.6667 119.11C36.4246 121.694 37.2378 123.549 37.7352 126.205C37.7352 126.229 37.9957 128.108 37.9957 128.132C37.8694 130.534 37.2694 132.127 36.8825 134.22L36.8904 134.212Z" fill="#FFD471"/>
<path d="M54.3017 132.12L51.9523 129.124L33.1713 143.975L35.5206 146.971L54.3017 132.12Z" fill="#254D62"/>
<path d="M60.9301 126.269L56.7695 129.559L55.0248 127.339L59.1853 124.049C57.5116 122.884 55.2063 122.899 53.5248 124.231C51.4484 125.864 51.0932 128.877 52.7274 130.962C54.3537 133.039 57.3616 133.403 59.4301 131.762C61.1195 130.431 61.6643 128.187 60.9301 126.277V126.269Z" fill="#254D62"/>
<path d="M29.8325 150.836L33.9931 147.546L32.2483 145.326L28.0878 148.616C27.3536 146.705 27.9062 144.462 29.5878 143.13C31.6562 141.489 34.6641 141.846 36.2905 143.931C37.9168 146.008 37.5615 149.02 35.4931 150.653C33.8036 151.985 31.5062 152.001 29.8246 150.836H29.8325Z" fill="#254D62"/>
<path d="M36.8352 143.511C36.6615 143.297 36.701 142.98 36.9141 142.806L51.1168 131.58C51.3379 131.406 51.6537 131.445 51.8195 131.659C51.9932 131.881 51.9537 132.198 51.7405 132.365L37.5378 143.59C37.3168 143.765 37.0089 143.725 36.8352 143.503V143.511Z" fill="#4693B9"/>
<path d="M39.7878 103.16C39.6931 102.304 39.5905 101.725 39.5905 101.725C39.5905 101.725 40.972 101.519 41.2326 100.203C41.2326 100.187 42.2668 93.0047 44.7142 92.7352C47.6037 92.4181 48.93 93.195 49.5063 96.0252C49.751 97.2301 50.3747 97.6424 51.0063 98.1735C51.251 98.3796 51.0853 98.8553 50.73 98.8236L50.3037 98.8474C50.2089 98.8553 50.1379 98.9346 50.1379 99.0297C50.1537 99.8462 50.0905 100.615 49.9247 101.305C49.53 102.922 49.7431 104.595 46.9642 104.563C46.6405 104.563 46.3247 104.531 46.0168 104.5C46.0168 104.5 46.08 106.426 46.7273 109.336C46.7984 109.645 46.8537 109.986 46.8537 109.986C45.8352 111.317 42.4878 110.818 41.051 109.486C40.4668 108.947 39.5826 108.115 39.622 107.948C39.9773 106.355 39.9378 104.492 39.7957 103.152L39.7878 103.16Z" fill="#FEC9AC"/>
<path d="M41.0747 142.972C41.501 142.671 40.7273 142.132 40.5536 141.95C40.0168 141.403 39.7483 140.721 39.4878 140.031C39.6773 140.261 39.8747 140.499 40.0562 140.737C40.2062 140.943 40.3326 141.157 40.5062 141.339C40.6957 141.553 40.9405 141.712 41.1694 141.878C41.3905 142.029 41.5957 142.203 41.8247 142.338C41.9431 142.41 42.0931 142.473 42.2194 142.386C42.5194 142.188 42.2984 141.759 42.0852 141.498C42.2115 141.545 42.3378 141.569 42.472 141.538C42.9378 141.419 42.5826 140.975 42.4326 140.745C41.9668 140.055 41.5089 139.357 41.0826 138.644C40.901 138.343 40.6326 138.01 40.5299 137.677C40.4983 137.629 40.4826 137.582 40.451 137.534C40.522 137.431 40.5931 137.328 40.6641 137.217C40.7115 137.201 40.9089 137.36 40.9562 137.383C41.0747 137.463 41.1852 137.55 41.3115 137.613C41.5405 137.724 42.0773 137.819 42.0694 137.423C42.0694 137.201 41.7615 136.932 41.6273 136.789C41.3984 136.535 41.1615 136.282 40.901 136.075C40.4431 135.703 39.8983 135.576 39.3299 135.497C38.5483 135.386 37.8062 135.188 37.1036 134.799C36.7404 134.593 36.3931 134.339 36.0773 134.046C35.7852 133.776 35.5404 133.467 35.2246 133.237C35.2088 133.229 33.7088 135.631 33.4483 136.202C34.672 136.519 35.3194 137.859 36.0536 138.771C36.401 139.207 36.7562 139.635 37.0325 140.118C37.301 140.594 37.4746 141.141 37.8457 141.553C38.1931 141.942 38.651 142.243 39.0536 142.56C39.2036 142.671 39.5115 142.941 39.6536 142.663C39.772 142.425 39.4325 142.037 39.3299 141.878C39.2904 141.823 39.2589 141.767 39.2273 141.72C39.3615 141.886 39.5036 142.053 39.6615 142.211C39.9141 142.473 40.6326 143.313 41.0826 143.004L41.0747 142.972Z" fill="#FEC9AC"/>
<path d="M37.3246 134.521C37.3246 134.521 36.4641 135.092 35.7772 135.996C35.2167 136.725 34.8062 137.724 34.8062 137.724L32.7062 136.273L35.1457 132.167L37.3246 134.521Z" fill="#FFD471"/>
<path d="M34.4431 96.3425C35.0825 95.9144 35.6746 95.954 36.0773 96.0412C35.8325 94.5746 35.872 93.6709 36.2589 92.7671C37.001 91.0072 38.422 89.6199 40.2457 88.9143C44.1378 87.4081 44.4852 89.2314 46.6168 89.1204C47.3826 89.0808 48.0695 88.7875 48.7642 89.2631C49.4826 89.7467 49.8774 90.6425 49.8853 91.4829C49.8853 94.3209 47.6352 93.6709 46.4668 94.6777C45.63 95.3991 45.0536 96.6992 44.9115 97.1035C44.5168 98.2451 43.2694 98.697 42.7563 99.783C42.2273 100.901 42.0299 102.645 41.0905 103.501C40.3484 104.175 38.6194 103.477 37.9799 102.669C37.7431 102.899 36.8589 103.16 35.9983 102.962C34.9167 102.708 34.1036 101.456 33.622 99.9099C33.093 98.2134 33.7088 96.8419 34.4431 96.3504V96.3425Z" fill="#A55852"/>
<path d="M207.939 182.293C208.326 180.85 209.273 179.645 210.244 178.543C212.257 176.268 214.412 174.12 216.662 172.074H231.844C231.378 173.271 230.715 174.405 229.87 175.38C229.128 176.236 228.252 176.926 227.336 177.584C226.389 178.266 225.457 178.955 224.573 179.74C224.352 179.93 224.139 180.129 223.934 180.335C226.184 181.12 228.71 183.316 230.865 184.37L230.147 191.727C228.315 191.489 218.305 189.412 216.56 188.841C216.56 188.841 213.852 188.564 212.368 188.175C211.183 187.866 208.973 186.764 208.302 185.694C207.67 184.695 207.631 183.434 207.931 182.309L207.939 182.293Z" fill="#8DC5EA"/>
<path d="M192.497 163.227C195.804 163.687 207.165 164.226 208.704 164.076C208.736 163.98 212.541 151.36 217.839 147.229C221.462 149.576 219.978 159.818 219.978 159.818C219.544 160.912 218.952 162.633 218.478 163.719C218.068 164.638 217.886 165.003 217.026 165.526C216.11 166.081 215.076 166.375 214.041 166.62C212.889 166.906 211.768 167.207 210.67 167.675C209.573 168.142 208.499 168.642 207.394 169.07C206.289 169.498 204.378 169.998 203.194 170.093C202.033 170.188 191.549 167.944 191.549 167.833C191.549 166.454 192.497 163.227 192.497 163.227Z" fill="#25716D"/>
<path d="M192.67 161.816C192.97 161.745 193.136 161.697 193.531 161.531C193.823 161.404 194.849 160.96 195.118 160.952C195.291 160.952 195.52 161.008 195.583 161.19C195.654 161.38 195.528 161.586 195.402 161.729C195.228 161.927 194.991 162.078 194.747 162.197C194.565 162.284 193.72 162.839 193.025 163.291C193.886 164.607 195.402 165.939 192.568 164.773C192.402 165.09 194.478 165.582 193.886 166.676C193.933 166.953 194.052 167.635 193.041 167.548C193.799 169.046 188.131 167.413 189.82 164.559C190.681 163.521 189.654 162.95 192.662 161.808L192.67 161.816Z" fill="#BF7968"/>
<path d="M195.789 204.942C195.354 204.942 194.999 204.585 194.999 204.149V195.73C194.999 195.294 195.354 194.938 195.789 194.938C196.223 194.938 196.578 195.294 196.578 195.73V204.149C196.578 204.585 196.223 204.942 195.789 204.942Z" fill="#12252E"/>
<path d="M165.37 204.942C164.936 204.942 164.581 204.585 164.581 204.149V195.73C164.581 195.294 164.936 194.938 165.37 194.938C165.804 194.938 166.16 195.294 166.16 195.73V204.149C166.16 204.585 165.804 204.942 165.37 204.942Z" fill="#12252E"/>
<path d="M153.141 204.942C152.707 204.942 152.352 204.585 152.352 204.149V195.73C152.352 195.294 152.707 194.938 153.141 194.938C153.575 194.938 153.931 195.294 153.931 195.73V204.149C153.931 204.585 153.575 204.942 153.141 204.942Z" fill="#12252E"/>
<path d="M122.636 204.942C122.201 204.942 121.846 204.585 121.846 204.149V195.73C121.846 195.294 122.201 194.938 122.636 194.938C123.07 194.938 123.425 195.294 123.425 195.73V204.149C123.425 204.585 123.07 204.942 122.636 204.942Z" fill="#12252E"/>
<path d="M109.933 204.942C109.499 204.942 109.143 204.585 109.143 204.149V195.73C109.143 195.294 109.499 194.938 109.933 194.938C110.367 194.938 110.722 195.294 110.722 195.73V204.149C110.722 204.585 110.367 204.942 109.933 204.942Z" fill="#12252E"/>
<path d="M79.3169 204.942C78.8827 204.942 78.5274 204.585 78.5274 204.149V195.73C78.5274 195.294 78.8827 194.938 79.3169 194.938C79.7511 194.938 80.1064 195.294 80.1064 195.73V204.149C80.1064 204.585 79.7511 204.942 79.3169 204.942Z" fill="#12252E"/>
<path d="M107.02 204.942H82.1985C80.7616 204.942 79.5774 203.824 79.4906 202.382L77.1458 163.584H112.649L109.728 202.421C109.617 203.84 108.441 204.942 107.02 204.942Z" fill="#2A817D"/>
<path d="M114.007 163.592H75.78C75.78 160.881 77.9669 158.685 80.6669 158.685H109.112C111.812 158.685 113.999 160.881 113.999 163.592H114.007Z" fill="#2A817D"/>
<path d="M77.2722 163.671H110.904C111.33 163.671 111.859 163.758 112.278 163.671C112.293 163.671 112.317 163.671 112.341 163.671C112.443 163.671 112.443 163.505 112.341 163.505H78.709C78.2827 163.505 77.7537 163.417 77.3353 163.505C77.3195 163.505 77.2958 163.505 77.2722 163.505C77.1695 163.505 77.1695 163.671 77.2722 163.671Z" fill="#25716D"/>
<g opacity="0.8">
<path d="M89.3354 181.119C89.1854 181.294 88.9722 181.436 88.7038 181.539C88.4275 181.634 88.1275 181.69 87.7959 181.69C87.4485 181.69 87.1406 181.611 86.8801 181.46C86.6196 181.309 86.4143 181.087 86.2722 180.802C86.1301 180.509 86.059 180.168 86.0511 179.779V179.502C86.0511 179.098 86.1143 178.749 86.2564 178.456C86.3906 178.162 86.588 177.932 86.8406 177.782C87.0933 177.623 87.3933 177.552 87.7327 177.552C88.2064 177.552 88.5854 177.663 88.8538 177.893C89.1222 178.123 89.2801 178.456 89.3275 178.884H88.5222C88.4827 178.654 88.4038 178.487 88.2775 178.376C88.1512 178.273 87.9775 178.218 87.7564 178.218C87.4722 178.218 87.259 178.321 87.1169 178.535C86.9669 178.749 86.8959 179.066 86.8959 179.486V179.748C86.8959 180.168 86.9748 180.493 87.1327 180.707C87.2906 180.921 87.5275 181.032 87.8354 181.032C88.1433 181.032 88.3722 180.969 88.4985 180.834V180.136H87.7485V179.526H89.3275V181.135L89.3354 181.119Z" fill="white"/>
<path d="M90.8354 180.961H92.5959V181.627H90.0064V177.592H90.8354V180.961Z" fill="white"/>
<path d="M95.3985 180.795H93.9459L93.6696 181.627H92.7933L94.2854 177.592H95.0512L96.5512 181.627H95.6749L95.3985 180.795ZM94.167 180.121H95.1696L94.6643 178.607L94.167 180.121Z" fill="white"/>
<path d="M99.0144 180.564C99.0144 180.406 98.9591 180.287 98.8486 180.2C98.7381 180.121 98.5407 180.033 98.2486 179.938C97.9644 179.843 97.7354 179.748 97.5696 179.661C97.1117 179.415 96.8828 179.074 96.8828 178.662C96.8828 178.44 96.9459 178.25 97.0644 178.075C97.1907 177.909 97.3644 177.774 97.5933 177.679C97.8223 177.584 98.0828 177.536 98.367 177.536C98.6512 177.536 98.9117 177.592 99.1328 177.695C99.3539 177.798 99.5354 177.948 99.6539 178.139C99.7802 178.329 99.8433 178.543 99.8433 178.789H99.0144C99.0144 178.606 98.9591 178.464 98.8407 178.361C98.7223 178.258 98.5644 178.21 98.3512 178.21C98.1381 178.21 97.9881 178.25 97.8775 178.337C97.767 178.424 97.7117 178.535 97.7117 178.678C97.7117 178.812 97.7749 178.916 97.9091 179.003C98.0433 179.09 98.2328 179.177 98.4933 179.256C98.967 179.399 99.3065 179.574 99.5196 179.788C99.7328 180.002 99.8433 180.263 99.8433 180.572C99.8433 180.921 99.7091 181.199 99.4486 181.397C99.1881 181.595 98.8328 181.698 98.3828 181.698C98.0749 181.698 97.7907 181.643 97.5381 181.524C97.2854 181.413 97.0881 181.254 96.9538 181.056C96.8196 180.858 96.7565 180.628 96.7565 180.366H97.5854C97.5854 180.81 97.8538 181.032 98.3828 181.032C98.5802 181.032 98.7381 180.993 98.8486 180.913C98.9591 180.834 99.0144 180.723 99.0144 180.58V180.564Z" fill="white"/>
<path d="M102.496 180.564C102.496 180.406 102.441 180.287 102.33 180.2C102.22 180.121 102.022 180.033 101.73 179.938C101.446 179.843 101.217 179.748 101.051 179.661C100.593 179.415 100.364 179.074 100.364 178.662C100.364 178.44 100.428 178.25 100.546 178.075C100.672 177.909 100.846 177.774 101.075 177.679C101.304 177.584 101.564 177.536 101.849 177.536C102.133 177.536 102.393 177.592 102.614 177.695C102.835 177.798 103.009 177.948 103.135 178.139C103.262 178.329 103.325 178.543 103.325 178.789H102.496C102.496 178.606 102.441 178.464 102.322 178.361C102.204 178.258 102.046 178.21 101.833 178.21C101.62 178.21 101.47 178.25 101.359 178.337C101.249 178.424 101.193 178.535 101.193 178.678C101.193 178.812 101.256 178.916 101.391 179.003C101.525 179.09 101.714 179.177 101.975 179.256C102.449 179.399 102.788 179.574 103.001 179.788C103.214 180.002 103.325 180.263 103.325 180.572C103.325 180.921 103.191 181.199 102.93 181.397C102.67 181.595 102.314 181.698 101.864 181.698C101.557 181.698 101.272 181.643 101.02 181.524C100.767 181.413 100.578 181.254 100.443 181.056C100.309 180.858 100.246 180.628 100.246 180.366H101.075C101.075 180.81 101.335 181.032 101.872 181.032C102.07 181.032 102.22 180.993 102.33 180.913C102.441 180.834 102.496 180.723 102.496 180.58V180.564Z" fill="white"/>
</g>
<path d="M79.6959 200.606H108.464C108.812 200.606 109.293 200.693 109.641 200.606C109.657 200.606 109.672 200.606 109.688 200.606C109.791 200.606 109.791 200.439 109.688 200.439H80.9196C80.5722 200.439 80.0906 200.352 79.7432 200.439C79.7275 200.439 79.7117 200.439 79.6959 200.439C79.5932 200.439 79.5932 200.606 79.6959 200.606Z" fill="#25716D"/>
<path d="M86.4696 164.622H85.2854C84.7643 164.622 84.338 164.194 84.338 163.671H87.4091C87.4091 164.194 86.9828 164.622 86.4617 164.622H86.4696Z" fill="#25716D"/>
<path d="M105.362 164.622H104.185C103.664 164.622 103.238 164.194 103.238 163.671H106.309C106.309 164.194 105.883 164.622 105.362 164.622Z" fill="#25716D"/>
<path d="M150.22 204.942H125.399C123.962 204.942 122.778 203.824 122.691 202.382L120.346 163.584H155.849L152.928 202.421C152.817 203.84 151.641 204.942 150.22 204.942Z" fill="#98D4FC"/>
<path d="M157.207 163.592H118.98C118.98 160.881 121.167 158.685 123.867 158.685H152.312C155.012 158.685 157.199 160.881 157.199 163.592H157.207Z" fill="#98D4FC"/>
<path d="M120.48 163.671H154.112C154.538 163.671 155.067 163.758 155.486 163.671C155.502 163.671 155.525 163.671 155.549 163.671C155.652 163.671 155.652 163.505 155.549 163.505H121.917C121.491 163.505 120.962 163.417 120.543 163.505C120.528 163.505 120.504 163.505 120.488 163.505C120.386 163.505 120.386 163.671 120.488 163.671H120.48Z" fill="#84B8DA"/>
<path d="M122.896 200.606H151.649C152.004 200.606 152.486 200.693 152.833 200.606C152.849 200.606 152.873 200.606 152.888 200.606C152.991 200.606 152.991 200.439 152.888 200.439H124.136C123.78 200.439 123.299 200.352 122.951 200.439C122.936 200.439 122.912 200.439 122.896 200.439C122.793 200.439 122.793 200.606 122.896 200.606Z" fill="#84B8DA"/>
<path d="M129.67 164.622H128.486C127.965 164.622 127.538 164.194 127.538 163.671H130.609C130.609 164.194 130.183 164.622 129.662 164.622H129.67Z" fill="#84B8DA"/>
<path d="M148.562 164.622H147.378C146.857 164.622 146.43 164.194 146.43 163.671H149.501C149.501 164.194 149.075 164.622 148.554 164.622H148.562Z" fill="#84B8DA"/>
<path d="M130.001 180.224V181.69H129.149V177.521H130.767C131.075 177.521 131.351 177.576 131.588 177.695C131.825 177.814 132.007 177.972 132.133 178.186C132.259 178.4 132.322 178.638 132.322 178.908C132.322 179.312 132.18 179.637 131.904 179.875C131.628 180.113 131.241 180.232 130.751 180.232H130.001V180.224ZM130.001 179.526H130.767C130.996 179.526 131.162 179.471 131.288 179.368C131.407 179.257 131.47 179.106 131.47 178.908C131.47 178.71 131.407 178.535 131.288 178.416C131.17 178.289 131.004 178.226 130.791 178.218H130.009V179.526H130.001Z" fill="white"/>
<path d="M134.778 180.834H133.278L132.994 181.69H132.086L133.633 177.521H134.422L135.978 181.69H135.07L134.786 180.834H134.778ZM133.507 180.137H134.541L134.02 178.575L133.507 180.137Z" fill="white"/>
<path d="M137.217 180.224V181.69H136.365V177.521H137.983C138.291 177.521 138.567 177.576 138.804 177.695C139.041 177.814 139.222 177.972 139.349 178.186C139.475 178.4 139.538 178.638 139.538 178.908C139.538 179.312 139.396 179.637 139.12 179.875C138.844 180.113 138.457 180.232 137.967 180.232H137.217V180.224ZM137.217 179.526H137.983C138.212 179.526 138.386 179.471 138.496 179.368C138.615 179.257 138.678 179.106 138.678 178.908C138.678 178.71 138.615 178.535 138.496 178.416C138.378 178.289 138.212 178.226 137.999 178.218H137.217V179.526Z" fill="white"/>
<path d="M142.617 179.883H140.975V181.001H142.901V181.69H140.122V177.521H142.901V178.218H140.983V179.209H142.625V179.883H142.617Z" fill="white"/>
<path d="M144.938 180.168H144.259V181.69H143.407V177.521H144.946C145.436 177.521 145.815 177.631 146.083 177.853C146.351 178.075 146.486 178.385 146.486 178.781C146.486 179.066 146.423 179.304 146.304 179.494C146.186 179.685 145.996 179.835 145.744 179.946L146.644 181.651V181.69H145.728L144.954 180.168H144.938ZM144.259 179.471H144.946C145.159 179.471 145.325 179.415 145.444 179.304C145.562 179.193 145.617 179.043 145.617 178.852C145.617 178.662 145.562 178.504 145.451 178.385C145.341 178.274 145.167 178.218 144.938 178.218H144.251V179.471H144.259Z" fill="white"/>
<path d="M192.97 204.942H168.149C166.712 204.942 165.528 203.824 165.441 202.382L163.096 163.584H198.599L195.678 202.421C195.575 203.84 194.391 204.942 192.97 204.942Z" fill="#FFD471"/>
<path d="M199.957 163.592H161.731C161.731 160.881 163.917 158.685 166.617 158.685H195.062C197.762 158.685 199.949 160.881 199.949 163.592H199.957Z" fill="#FFD471"/>
<path d="M163.231 163.671H196.862C197.289 163.671 197.818 163.758 198.236 163.671C198.252 163.671 198.275 163.671 198.299 163.671C198.402 163.671 198.402 163.505 198.299 163.505H164.667C164.241 163.505 163.712 163.417 163.294 163.505C163.278 163.505 163.254 163.505 163.231 163.505C163.128 163.505 163.128 163.671 163.231 163.671Z" fill="#FFBC33"/>
<path d="M165.646 200.606H194.399C194.754 200.606 195.236 200.693 195.583 200.606C195.599 200.606 195.623 200.606 195.639 200.606C195.741 200.606 195.741 200.439 195.639 200.439H166.886C166.531 200.439 166.049 200.352 165.702 200.439C165.686 200.439 165.662 200.439 165.646 200.439C165.544 200.439 165.544 200.606 165.646 200.606Z" fill="#FFBC33"/>
<path d="M172.42 164.622H171.236C170.715 164.622 170.288 164.194 170.288 163.671H173.36C173.36 164.194 172.933 164.622 172.412 164.622H172.42Z" fill="#FFBC33"/>
<path d="M191.312 164.622H190.128C189.607 164.622 189.181 164.194 189.181 163.671H192.252C192.252 164.194 191.825 164.622 191.304 164.622H191.312Z" fill="#FFBC33"/>
<g opacity="0.8">
<path d="M170.202 179.986V181.453H169.349V177.299H170.96C171.267 177.299 171.544 177.354 171.781 177.473C172.017 177.584 172.199 177.751 172.325 177.957C172.452 178.171 172.515 178.409 172.515 178.678C172.515 179.09 172.373 179.408 172.096 179.645C171.82 179.883 171.433 180.002 170.944 180.002H170.194L170.202 179.986ZM170.202 179.297H170.96C171.188 179.297 171.354 179.241 171.473 179.138C171.591 179.035 171.646 178.876 171.646 178.686C171.646 178.496 171.583 178.314 171.465 178.195C171.346 178.068 171.181 178.004 170.967 177.996H170.186V179.297H170.202Z" fill="white"/>
<path d="M173.952 180.763H175.76V181.453H173.099V177.299H173.952V180.763Z" fill="white"/>
<path d="M178.649 180.597H177.157L176.873 181.453H175.965L177.504 177.299H178.294L179.841 181.453H178.933L178.649 180.597ZM177.378 179.899H178.412L177.891 178.345L177.378 179.899Z" fill="white"/>
<path d="M182.368 180.359C182.368 180.2 182.312 180.073 182.194 179.986C182.083 179.899 181.878 179.812 181.578 179.709C181.286 179.614 181.049 179.518 180.875 179.423C180.41 179.17 180.173 178.821 180.173 178.393C180.173 178.171 180.236 177.973 180.362 177.798C180.489 177.624 180.67 177.481 180.907 177.386C181.144 177.291 181.404 177.235 181.704 177.235C182.004 177.235 182.265 177.291 182.494 177.394C182.723 177.505 182.904 177.656 183.031 177.846C183.157 178.044 183.22 178.266 183.22 178.512H182.368C182.368 178.321 182.312 178.171 182.186 178.068C182.068 177.965 181.902 177.909 181.681 177.909C181.46 177.909 181.31 177.957 181.191 178.044C181.073 178.131 181.018 178.25 181.018 178.393C181.018 178.528 181.089 178.639 181.223 178.734C181.357 178.821 181.554 178.908 181.823 178.987C182.304 179.13 182.66 179.312 182.881 179.534C183.102 179.748 183.212 180.018 183.212 180.343C183.212 180.7 183.078 180.985 182.81 181.191C182.541 181.397 182.17 181.5 181.712 181.5C181.396 181.5 181.104 181.445 180.844 181.326C180.583 181.207 180.386 181.049 180.244 180.85C180.11 180.644 180.039 180.406 180.039 180.145H180.891C180.891 180.605 181.168 180.834 181.712 180.834C181.918 180.834 182.075 180.795 182.186 180.708C182.304 180.62 182.36 180.509 182.36 180.359H182.368Z" fill="white"/>
<path d="M186.915 177.989H185.652V181.453H184.799V177.989H183.552V177.291H186.923V177.989H186.915Z" fill="white"/>
<path d="M188.304 181.453H187.452V177.299H188.304V181.453Z" fill="white"/>
<path d="M192.339 180.065C192.307 180.509 192.141 180.866 191.849 181.12C191.557 181.373 191.162 181.508 190.681 181.508C190.152 181.508 189.733 181.326 189.433 180.969C189.133 180.612 188.975 180.121 188.975 179.495V179.241C188.975 178.845 189.047 178.488 189.189 178.187C189.331 177.885 189.528 177.647 189.789 177.489C190.049 177.33 190.349 177.243 190.697 177.243C191.17 177.243 191.557 177.37 191.849 177.632C192.141 177.885 192.307 178.25 192.354 178.718H191.502C191.478 178.448 191.407 178.25 191.281 178.131C191.154 178.012 190.957 177.949 190.697 177.949C190.412 177.949 190.199 178.052 190.057 178.258C189.915 178.464 189.844 178.781 189.844 179.209V179.518C189.844 179.97 189.915 180.295 190.049 180.501C190.183 180.708 190.397 180.811 190.689 180.811C190.949 180.811 191.147 180.747 191.281 180.628C191.407 180.509 191.486 180.319 191.502 180.065H192.354H192.339Z" fill="white"/>
</g>
<path d="M194.454 174.596C191.762 177.465 192.939 177.711 193.649 177.331C193.468 178.322 194.257 178.171 194.533 177.751C197.162 177.315 198.315 173.121 200.833 173.906C200.833 173.906 200.32 172.463 200.028 170.093C192.141 170.243 192.994 173.018 195.26 172.098C192.086 175.333 192.449 174.754 192.078 175.269C191.675 177.87 194.423 174.501 194.454 174.596Z" fill="#FEC9AC"/>
<path d="M223.61 145.723C222.702 146.428 219.876 150.242 218.281 149.29L216.149 139.468L222.631 137.978C222.631 137.978 222.749 138.604 222.994 139.515C223.373 140.935 224.581 142.187 225.576 143.67C225.678 143.82 223.768 145.604 223.618 145.715L223.61 145.723Z" fill="#FEC9AC"/>
<path d="M222.631 137.978C220.728 138.659 218.328 132.967 214.776 130.938C203.952 128.956 211.776 154.689 222.631 137.978Z" fill="#FEC9AC"/>
<path d="M209.32 133.467C208.791 133.229 208.176 133.229 207.741 132.801C207.402 132.468 207.236 132 207.149 131.549C206.912 130.233 206.628 129.083 207.094 127.87C207.781 126.055 209.747 125.072 210.718 124.889C212.873 124.477 215.968 124.208 218.612 125.127C219.307 125.373 219.726 126.039 220.389 126.332C224.699 128.227 222.686 132.944 222.891 133.903C223.231 135.552 224.202 137.47 223.641 139.072C223.365 139.873 221.92 140.475 221.028 140.554C220.499 140.61 220.152 140.475 219.891 140.221C219.828 140.055 219.828 139.873 219.931 139.714C217.152 135.512 221.912 137.455 213.805 133.657C213.055 133.166 211.397 133.61 209.983 133.229C210.007 133.356 209.833 133.546 209.36 133.491C209.352 133.491 209.344 133.475 209.328 133.467H209.32Z" fill="#12252E"/>
<path d="M219.26 134.981C219.323 135.726 219.047 136.36 218.297 136.44C217.626 136.511 216.97 136.099 216.82 135.361C216.67 134.632 217.081 133.934 217.744 133.792C218.944 133.522 219.189 134.267 219.26 134.981Z" fill="#FEC9AC"/>
<path d="M199.594 169.854C202.065 168.745 204.41 168.285 206.818 167.508C208.057 167.104 214.712 164.036 215.36 163.845C215.36 163.845 215.368 163.829 215.376 163.806C215.21 163.203 215.162 162.624 215.131 161.951C215.099 161.102 215.573 156.853 215.857 155.379C216.157 153.801 216.434 152.216 216.797 150.646C217.065 149.465 217.412 148.331 217.839 147.229C217.934 147.665 218.012 148.077 218.099 148.458C218.826 146.611 221.344 144.716 223.294 143.781C225.797 142.584 227.96 142.726 230.226 144.177C232.626 145.707 234.07 147.586 235.318 150.123C238.421 156.457 239.455 158.042 242.163 164.305C243.513 167.421 244.847 172.003 243.678 176.006C243.639 175.975 243.56 175.927 243.56 175.927C238.113 172.439 231.647 171.931 225.591 173.065C223.744 173.414 219.931 174.294 219.931 174.294C219.362 173.01 218.786 171.725 218.202 170.441C217.444 170.584 216.702 170.758 215.968 170.996C214.839 171.369 213.726 171.781 212.581 172.114C211.444 172.447 210.291 172.74 209.123 172.986C206.857 173.469 204.56 173.771 202.247 173.913C201.583 173.953 199.539 174.135 199.539 174.135C200.226 171.749 199.507 169.831 199.586 169.854H199.594Z" fill="#2A817D"/>
<path d="M221.881 179.645C222.047 182.483 221.107 185.417 221.068 188.255H213.773C213.528 187.153 211.381 177.901 211.239 176.062C211.239 176.062 210.449 173.446 210.244 171.916C210.078 170.695 210.244 168.222 210.97 167.199C211.657 166.232 212.794 165.709 213.939 165.558C215.415 165.36 216.884 165.78 218.265 166.256C221.281 167.302 224.226 168.547 227.099 169.926C227.21 169.958 227.32 169.982 227.431 170.013C228.781 170.434 230.005 171.123 231.315 171.623C232.626 172.122 233.999 172.415 235.357 172.717C236.739 173.018 238.105 173.351 239.431 173.85C240.876 174.389 242.249 175.087 243.552 175.919C242.044 179.598 238.87 182.571 234.97 183.498C232.91 183.99 230.707 183.918 228.694 183.252C227.62 182.896 226.649 182.341 225.702 181.746C224.707 181.128 223.712 180.525 222.67 180.01C222.41 179.883 222.141 179.764 221.881 179.637V179.645Z" fill="#98D4FC"/>
<path d="M204.773 202.889C204.947 201.962 205.594 201.335 206.32 200.844C207.718 199.9 212.091 198.648 212.557 198.228C213.449 197.419 213.623 196.111 213.576 194.954C213.489 192.512 213.181 190.054 212.968 187.621C212.968 187.621 216.047 188.374 221.313 187.518C221.313 187.518 220.957 191.894 220.776 194.082C220.689 195.152 220.594 196.222 220.673 197.292C220.744 198.228 220.949 199.155 221.139 200.075C221.328 200.994 221.51 201.922 221.541 202.857C221.541 203.024 221.541 203.365 221.541 203.365C220.965 203.959 219.584 203.912 218.936 203.88C217.302 203.809 215.723 203.555 214.073 203.666C211.949 203.801 209.841 204.15 207.718 204.237C206.983 204.261 206.289 204.253 205.633 204.15C204.789 203.928 204.718 203.143 204.765 202.889H204.773Z" fill="#12252E"/>
<path d="M241.815 203.562C240.947 203.19 240.489 202.413 240.165 201.596C239.549 200.019 239.281 195.46 238.981 194.913C238.397 193.859 237.157 193.415 236.028 193.201C233.636 192.749 231.181 192.527 228.765 192.194C228.765 192.194 230.17 189.34 230.486 183.989C230.486 183.989 234.663 185.289 236.747 185.947C237.765 186.264 238.784 186.59 239.849 186.74C240.781 186.875 241.72 186.883 242.652 186.899C243.584 186.915 244.523 186.938 245.439 187.113C245.605 187.144 245.936 187.224 245.936 187.224C246.386 187.921 246.039 189.261 245.873 189.887C245.447 191.481 244.855 192.963 244.602 194.604C244.27 196.713 244.152 198.853 243.765 200.954C243.631 201.676 243.473 202.357 243.228 202.976C242.834 203.761 242.044 203.658 241.815 203.555V203.562Z" fill="#12252E"/>
<path d="M230.312 104.685H210.968V107.124H230.312V104.685Z" fill="#9CBDFF"/>
<path d="M230.312 104.685H227.112V107.124H230.312V104.685Z" fill="#7385FF"/>
<path d="M229.212 93.7794C229.212 93.7794 229.212 88.2871 221.148 88.2871C213.084 88.2871 213.084 93.7794 213.084 93.7794V104.682H229.208V93.7794H229.212Z" fill="#FF3552"/>
<path d="M228.114 100.879L221.328 97.5409L214.541 100.879V94.2031L221.328 97.2499L228.114 94.2031V100.879Z" fill="#B33552"/>
<path opacity="0.87" d="M214.541 100.879L161 109V83L214.541 94.203V100.879Z" fill="url(#paint1_linear_138_18)"/>
<defs>
<linearGradient id="paint0_linear_138_18" x1="274" y1="200.997" x2="274" y2="29" gradientUnits="userSpaceOnUse">
<stop stop-color="white"/>
<stop offset="1" stop-color="#BBCAD5"/>
</linearGradient>
<linearGradient id="paint1_linear_138_18" x1="215.74" y1="96" x2="179.737" y2="96" gradientUnits="userSpaceOnUse">
<stop stop-color="#D04F51"/>
<stop offset="1" stop-color="#B33552" stop-opacity="0"/>
</linearGradient>
</defs>
</svg>
