<svg xmlns="http://www.w3.org/2000/svg" width="60" height="60" viewBox="0 0 60 60">
  <g id="그룹_10106" data-name="그룹 10106" transform="translate(-1 -1)">
    <path id="패스_2579" data-name="패스 2579" d="M32,29A12,12,0,1,0,20,17,12.013,12.013,0,0,0,32,29ZM32,7A10,10,0,1,1,22,17,10.011,10.011,0,0,1,32,7Z" transform="translate(-1)" fill="#0319de"/>
    <path id="패스_2580" data-name="패스 2580" d="M38,17h2a8.009,8.009,0,0,0-8-8v2A6.006,6.006,0,0,1,38,17Z" transform="translate(-1.148)" fill="#403e3e"/>
    <path id="패스_2581" data-name="패스 2581" d="M61,39.71V26.161H54.226V15.516H46.435a15.464,15.464,0,0,0-30.869,0H7.774V26.161H1V39.71H7.774v7.742H1V61H16.484V55.194H22.66l.6,1.2V61H36.806V56.39l.4-.808c.063-.126.107-.26.166-.388h8.14V61H61V47.452H54.226V39.71Zm-1.935-1.935H47.452V28.1H59.065ZM31,2.935A13.548,13.548,0,1,1,17.452,16.484,13.563,13.563,0,0,1,31,2.935Zm4.479,51.781-.238.477H24.824L23.977,53.5a9.292,9.292,0,0,1-.928-3.144l-.7-6.315a9.337,9.337,0,0,1,2.678-7.634l1.136-1.137V48.26a3.064,3.064,0,0,0,6.086.5l1.508-9.052a2.4,2.4,0,0,1,2.392,2.165l.6,5.969c.042.412.062.834.062,1.25A12.627,12.627,0,0,1,35.479,54.716ZM33.755,37.774a1.929,1.929,0,0,0-1.909,1.618l-1.509,9.052a1.128,1.128,0,0,1-2.24-.185V31.685a15.055,15.055,0,0,0,5.806,0v6.1C33.853,37.787,33.805,37.774,33.755,37.774ZM2.935,28.1H14.548v9.677H2.935ZM14.548,59.065H2.935V49.387H14.548ZM9.71,47.452V39.71h6.774V26.161H9.71v-8.71h5.856a15.5,15.5,0,0,0,10.6,13.731v1.352l-2.5,2.505a11.191,11.191,0,0,0-3.3,7.969,11.465,11.465,0,0,0,.069,1.245l.7,6.315a11.231,11.231,0,0,0,.646,2.687H16.484V47.451H9.71ZM34.871,59.065H25.194V57.129h9.677Zm24.194,0H47.452V49.387H59.065ZM52.29,47.452H45.516v5.806H38.1a14.514,14.514,0,0,0,.638-4.164c0-.481-.024-.967-.072-1.443l-.6-5.969a4.314,4.314,0,0,0-2.235-3.363V31.182a15.5,15.5,0,0,0,10.6-13.73H52.29v8.71H45.516V39.71H52.29Z" fill="#403e3e"/>
    <path id="패스_2582" data-name="패스 2582" d="M51,53h8v2H51Z" transform="translate(-2 -2)" fill="#0319de"/>
    <path id="패스_2583" data-name="패스 2583" d="M51,57h8v2H51Z" transform="translate(-2 -2)" fill="#0319de"/>
    <path id="패스_2584" data-name="패스 2584" d="M58.707,31.707l-1.414-1.414L53,34.586l-1.293-1.293-1.414,1.414L53,37.414Z" transform="translate(-2 -1.068)" fill="#0319de"/>
    <path id="패스_2585" data-name="패스 2585" d="M5,53h8v2H5Z" transform="translate(0 -2)" fill="#0319de"/>
    <path id="패스_2586" data-name="패스 2586" d="M5,57h8v2H5Z" transform="translate(0 -2)" fill="#0319de"/>
    <path id="패스_2587" data-name="패스 2587" d="M7,34.586,5.707,33.293,4.293,34.707,7,37.414l5.707-5.707-1.414-1.414Z" transform="translate(0 -1.068)" fill="#0319de"/>
  </g>
</svg>
