<svg xmlns="http://www.w3.org/2000/svg" width="74.88" height="65.81" viewBox="0 0 74.88 65.81">
  <g id="그룹_10102" data-name="그룹 10102" transform="translate(0 -30.724)">
    <g id="그룹_10098" data-name="그룹 10098" transform="translate(9.446 47.255)">
      <path id="패스_2548" data-name="패스 2548" d="M178.627,150.3l-2.016-2.016h-4.723L168,144.394l1.67-1.67,3.2,3.2h4.723l2.708,2.708Z" transform="translate(-152.65 -142.724)" fill="#403e3e"/>
      <path id="패스_2549" data-name="패스 2549" d="M321.335,300.578a4.5,4.5,0,0,1-3.2-1.321l-6.14-6.14,1.67-1.67,6.14,6.14a2.159,2.159,0,1,0,3.054-3.054l-6.14-6.14,1.67-1.67,6.14,6.14a4.518,4.518,0,0,1-3.2,7.714Z" transform="translate(-275.395 -265.469)" fill="#403e3e"/>
      <path id="패스_2550" data-name="패스 2550" d="M289.335,332.578a4.5,4.5,0,0,1-3.2-1.321l-6.14-6.14,1.67-1.67,6.14,6.14a2.159,2.159,0,1,0,3.054-3.054l-6.14-6.14,1.67-1.67,6.14,6.14a4.518,4.518,0,0,1-3.2,7.714Z" transform="translate(-248.118 -292.746)" fill="#403e3e"/>
      <path id="패스_2551" data-name="패스 2551" d="M257.335,364.578a4.5,4.5,0,0,1-3.2-1.321l-6.14-6.14,1.67-1.67,6.14,6.14a2.159,2.159,0,1,0,3.054-3.054l-6.14-6.14,1.67-1.67,6.14,6.14a4.518,4.518,0,0,1-3.2,7.714Z" transform="translate(-220.841 -320.023)" fill="#403e3e"/>
      <path id="패스_2552" data-name="패스 2552" d="M95.771,280.652a4.5,4.5,0,0,1-3.2-1.321L67.2,253.952V251.59l-3.2-3.2,1.67-1.67,3.888,3.888v2.362l24.687,24.687a2.159,2.159,0,0,0,3.054-3.054l-6.14-6.14,1.67-1.67,6.14,6.14a4.518,4.518,0,0,1-3.2,7.714Z" transform="translate(-64 -231.374)" fill="#403e3e"/>
    </g>
    <g id="그룹_10099" data-name="그룹 10099" transform="translate(0 30.724)">
      <path id="패스_2553" data-name="패스 2553" d="M7.92,66.511a2.25,2.25,0,0,1-1.661-.7L0,59.552l1.67-1.67,6.258,6.258,18.4-18.421L12.989,32.394l1.67-1.67L28,44.067a2.321,2.321,0,0,1,0,3.323L9.581,65.81A2.255,2.255,0,0,1,7.92,66.511Z" transform="translate(0 -30.724)" fill="#0319de"/>
      <rect id="사각형_2986" data-name="사각형 2986" width="2.362" height="2.362" transform="translate(6.739 25.632)" fill="#0319de"/>
    </g>
    <g id="그룹_10100" data-name="그룹 10100" transform="translate(14.974 47.255)">
      <path id="패스_2554" data-name="패스 2554" d="M377.67,259.021l-1.67-1.67,4.377-4.377v-2.362l3.888-3.888,1.67,1.67-3.2,3.2v2.362Z" transform="translate(-335.476 -231.374)" fill="#403e3e"/>
      <path id="패스_2555" data-name="패스 2555" d="M201.966,423.855a4.518,4.518,0,0,1-3.2-7.714l1.417-1.417,1.67,1.67-1.417,1.417a2.159,2.159,0,0,0,3.052,3.054l1.417-1.417,1.67,1.67-1.417,1.417A4.5,4.5,0,0,1,201.966,423.855Z" transform="translate(-183.278 -374.577)" fill="#403e3e"/>
      <path id="패스_2556" data-name="패스 2556" d="M169.966,391.855a4.518,4.518,0,0,1-3.2-7.714l1.417-1.417,1.67,1.67-1.417,1.417a2.159,2.159,0,1,0,3.052,3.054l1.417-1.417,1.67,1.67-1.417,1.417A4.5,4.5,0,0,1,169.966,391.855Z" transform="translate(-156.002 -347.3)" fill="#403e3e"/>
      <path id="패스_2557" data-name="패스 2557" d="M137.966,359.855a4.518,4.518,0,0,1-3.2-7.714l1.417-1.417,1.67,1.67-1.417,1.417a2.159,2.159,0,0,0,3.052,3.054l1.417-1.417,1.67,1.67-1.417,1.417A4.5,4.5,0,0,1,137.966,359.855Z" transform="translate(-128.725 -320.023)" fill="#403e3e"/>
      <path id="패스_2558" data-name="패스 2558" d="M105.966,327.855a4.518,4.518,0,0,1-3.2-7.714l1.417-1.417,1.67,1.67-1.417,1.417a2.159,2.159,0,0,0,3.052,3.054l1.417-1.417,1.67,1.67-1.417,1.417A4.5,4.5,0,0,1,105.966,327.855Z" transform="translate(-101.448 -292.746)" fill="#403e3e"/>
      <path id="패스_2559" data-name="패스 2559" d="M185.966,163.663a4.518,4.518,0,0,1-3.2-7.714L192.8,145.92h7.085l3.2-3.2,1.67,1.67-3.888,3.888h-7.085l-9.337,9.337a2.159,2.159,0,0,0,3.052,3.054l7.668-7.667h4.031v1.181a5.611,5.611,0,0,0,1.743,4.089,5.684,5.684,0,0,0,4.161,1.815h2.362a2.309,2.309,0,0,0,2.362-2.362h2.362a4.673,4.673,0,0,1-4.723,4.723h-2.362a8.015,8.015,0,0,1-5.831-2.508,7.816,7.816,0,0,1-2.347-4.577h-.779l-6.975,6.975A4.507,4.507,0,0,1,185.966,163.663Z" transform="translate(-169.64 -142.724)" fill="#403e3e"/>
    </g>
    <g id="그룹_10101" data-name="그룹 10101" transform="translate(46.178 30.724)">
      <path id="패스_2560" data-name="패스 2560" d="M333.638,66.511a2.248,2.248,0,0,1-1.661-.7L313.556,47.39a2.321,2.321,0,0,1,0-3.323L326.9,30.724l1.67,1.67L315.226,45.737l18.421,18.4,6.242-6.258,1.67,1.67L335.3,65.81A2.253,2.253,0,0,1,333.638,66.511Z" transform="translate(-312.856 -30.724)" fill="#0319de"/>
      <rect id="사각형_2987" data-name="사각형 2987" width="2.362" height="2.362" transform="translate(19.601 25.632)" fill="#0319de"/>
    </g>
  </g>
</svg>
