<svg xmlns="http://www.w3.org/2000/svg" width="60" height="60" viewBox="0 0 60 60">
  <g id="folder" transform="translate(-6 -6)">
    <path id="패스_2561" data-name="패스 2561" d="M64.846,22.154H61.385v-15A1.154,1.154,0,0,0,60.231,6H11.769a1.154,1.154,0,0,0-1.154,1.154V30.231H7.154A1.154,1.154,0,0,0,6,31.385V60.231A5.769,5.769,0,0,0,11.769,66H60.231A5.769,5.769,0,0,0,66,60.231V23.308A1.154,1.154,0,0,0,64.846,22.154ZM12.923,8.308H59.077V56.769H56.769v-30a1.154,1.154,0,0,0-1.154-1.154c-14.723,0-14.181-.15-14.665.335l-4.269,4.281H12.923ZM11.769,63.692a3.462,3.462,0,0,1-3.462-3.462V32.538H37.154c.646,0,.485,0,5.088-4.615H54.462c0,35.988-.346,33.762,1.154,35.769Zm51.923-3.462a3.462,3.462,0,1,1-6.923,0V59.077h3.462a1.154,1.154,0,0,0,1.154-1.154V24.462h2.308Z" transform="translate(0 0)" fill="#403e3e"/>
    <path id="패스_2562" data-name="패스 2562" d="M36.309,40.232V37.924a6.924,6.924,0,1,0-13.848,0v2.308A3.462,3.462,0,0,0,19,43.694v9.232a3.462,3.462,0,0,0,3.462,3.462H36.309a3.462,3.462,0,0,0,3.462-3.462V43.694A3.462,3.462,0,0,0,36.309,40.232ZM24.77,37.924a4.616,4.616,0,1,1,9.232,0v2.308H24.77Zm12.694,15a1.154,1.154,0,0,1-1.154,1.154H22.462a1.154,1.154,0,0,1-1.154-1.154V43.694a1.154,1.154,0,0,1,1.154-1.154H36.309a1.154,1.154,0,0,1,1.154,1.154Z" transform="translate(1.999 3.843)" fill="#0319de"/>
    <path id="패스_2563" data-name="패스 2563" d="M31.259,43.335l-3.8,3.808-1.489-1.5a1.159,1.159,0,1,0-1.639,1.639c3.8,3.785,2.308,3.923,8.562-2.308a1.159,1.159,0,0,0-1.639-1.639Z" transform="translate(2.768 5.691)" fill="#403e3e"/>
    <path id="패스_2564" data-name="패스 2564" d="M26.26,18.792a4.616,4.616,0,1,0-6.67,0C16.14,20.7,14.847,26,17.155,26h11.54C31,26,29.722,20.7,26.26,18.792Zm-5.643-3.173a2.308,2.308,0,1,1,2.308,2.308A2.308,2.308,0,0,1,20.617,15.618ZM18.459,23.7a4.616,4.616,0,0,1,8.932,0Z" transform="translate(1.537 0.767)" fill="#0319de"/>
    <path id="패스_2565" data-name="패스 2565" d="M36.154,15.308H48.848a1.154,1.154,0,1,0,0-2.308H36.154a1.154,1.154,0,1,0,0,2.308Z" transform="translate(4.46 1.078)" fill="#403e3e"/>
    <path id="패스_2566" data-name="패스 2566" d="M36.154,20.308H48.848a1.154,1.154,0,1,0,0-2.308H36.154a1.154,1.154,0,1,0,0,2.308Z" transform="translate(4.46 1.846)" fill="#403e3e"/>
  </g>
</svg>
