<svg xmlns="http://www.w3.org/2000/svg" width="60" height="59.99" viewBox="0 0 60 59.99">
  <g id="_OUTLINE" data-name="/ OUTLINE" transform="translate(-16 -16)">
    <path id="패스_2598" data-name="패스 2598" d="M74.27,56.119a3.8,3.8,0,0,0-3.622-.3L70,56.107V24.828a2.98,2.98,0,0,0-.879-2.121l-5.828-5.828A2.98,2.98,0,0,0,61.172,16H37a3,3,0,0,0-3,3v2H31a3,3,0,0,0-3,3v2H25a3,3,0,0,0-3,3V59H16v2h9.515a6.955,6.955,0,0,0,4.95-2.05l.485-.485A4.967,4.967,0,0,1,34.485,57H46.5a1.5,1.5,0,0,1,0,3H34v2h2.814L48.1,66.342a4.968,4.968,0,0,0,3.809-.09l19.542-8.6a1.815,1.815,0,0,1,1.588,3.262L51.586,72.409A13.253,13.253,0,0,1,41.738,73.5L29.531,70.109a3,3,0,0,0-.8-.11H16v2H28.727a1,1,0,0,1,.268.036L41.2,75.428a15.25,15.25,0,0,0,11.327-1.256L73.986,62.677a3.815,3.815,0,0,0,.283-6.558ZM63,19.414,66.586,23H64a1,1,0,0,1-1-1ZM56,62.267l-4.894,2.153a2.982,2.982,0,0,1-2.285.054L42.386,62H46.5a3.5,3.5,0,1,0,0-7H34.485a6.955,6.955,0,0,0-4.95,2.05l-.485.485A4.967,4.967,0,0,1,25.515,59H24V29a1,1,0,0,1,1-1H49v4a3,3,0,0,0,3,3h4ZM51,32V29.414L54.586,33H52A1,1,0,0,1,51,32ZM62,59.627l-4,1.76V58h2V56H58V53h2V51H58V48h2V46H58V43h2V41H58V38h2V36H58V34.828a2.981,2.981,0,0,0-.879-2.121l-5.828-5.828A2.98,2.98,0,0,0,49.172,26H30V24a1,1,0,0,1,1-1H55v4a3,3,0,0,0,3,3h4ZM57,27V24.414L60.586,28H58A1,1,0,0,1,57,27ZM68,56.987l-4,1.76V53h2V51H64V48h2V46H64V43h2V41H64V38h2V36H64V33h2V31H64V29.828a2.98,2.98,0,0,0-.879-2.121l-5.828-5.828A2.98,2.98,0,0,0,55.172,21H36V19a1,1,0,0,1,1-1H61v4a3,3,0,0,0,3,3h4Z" transform="translate(0 0)" fill="#403e3e"/>
    <rect id="사각형_3000" data-name="사각형 3000" width="17.848" height="1.983" transform="translate(27.548 30.849)" fill="#0319de"/>
    <rect id="사각형_3001" data-name="사각형 3001" width="19.435" height="1.587" transform="translate(27.645 36.285)" fill="#0319de"/>
    <rect id="사각형_3002" data-name="사각형 3002" width="23.004" height="1.587" transform="translate(27.901 41.281)" fill="#0319de"/>
    <rect id="사각형_3003" data-name="사각형 3003" width="23.004" height="1.587" transform="translate(27.901 46.277)" fill="#0319de"/>
    <rect id="사각형_3004" data-name="사각형 3004" width="23.004" height="1.587" transform="translate(27.901 51.274)" fill="#0319de"/>
  </g>
</svg>
