<svg xmlns="http://www.w3.org/2000/svg" width="57.443" height="61.273" viewBox="0 0 57.443 61.273">
  <g id="그룹_10097" data-name="그룹 10097" transform="translate(-16)">
    <g id="그룹_10094" data-name="그룹 10094" transform="translate(16)">
      <path id="패스_2542" data-name="패스 2542" d="M17.915,56.486H16V4.787a4.736,4.736,0,0,1,1.429-3.358A4.736,4.736,0,0,1,20.787,0H63.869V8.616H61.955v-6.7H20.787a2.834,2.834,0,0,0-2,.868,2.835,2.835,0,0,0-.869,2Z" transform="translate(-16)" fill="#403e3e"/>
      <path id="패스_2543" data-name="패스 2543" d="M52.381,441.574H20.787a4.787,4.787,0,0,1,0-9.574H52.381v1.915H20.787a2.873,2.873,0,0,0,0,5.744H52.381Z" transform="translate(-16 -380.301)" fill="#403e3e"/>
      <rect id="사각형_2974" data-name="사각형 2974" width="31" height="2" transform="translate(5.145 55.622)" fill="#403e3e"/>
      <rect id="사각형_2975" data-name="사각형 2975" width="14" height="1" transform="translate(16.145 28.622)" fill="#403e3e"/>
      <rect id="사각형_2976" data-name="사각형 2976" width="15" height="2" transform="translate(16.145 31.622)" fill="#403e3e"/>
      <rect id="사각형_2977" data-name="사각형 2977" width="14" height="2" transform="translate(16.145 23.622)" fill="#403e3e"/>
      <rect id="사각형_2978" data-name="사각형 2978" width="9" height="1" transform="translate(21.145 20.622)" fill="#403e3e"/>
    </g>
    <path id="패스_2544" data-name="패스 2544" d="M129.849,77.955H104V32h33.509v4.787h-1.915V33.915H105.915V76.04h23.935Z" transform="translate(-77.469 -28.17)" fill="#0319de"/>
    <rect id="사각형_2979" data-name="사각형 2979" width="1" height="52" transform="translate(23.145 0.622)" fill="#403e3e"/>
    <path id="패스_2545" data-name="패스 2545" d="M340.787,335.935A4.883,4.883,0,0,1,336,331.148V312h1.915v19.148a2.873,2.873,0,0,0,5.744,0V312h1.915v19.148a4.883,4.883,0,0,1-4.787,4.787Z" transform="translate(-281.704 -274.662)" fill="#0319de"/>
    <g id="그룹_10095" data-name="그룹 10095" transform="translate(44.722 10.531)">
      <path id="패스_2546" data-name="패스 2546" d="M270.361,116.722a14.361,14.361,0,1,1,14.361-14.361A14.377,14.377,0,0,1,270.361,116.722Zm0-26.807a12.446,12.446,0,1,0,12.446,12.446A12.46,12.46,0,0,0,270.361,89.915Z" transform="translate(-256 -88)" fill="#403e3e"/>
      <rect id="사각형_2980" data-name="사각형 2980" width="2" height="2" transform="translate(13.423 31.09)" fill="#403e3e"/>
      <rect id="사각형_2981" data-name="사각형 2981" width="2" height="2" transform="translate(13.423 34.09)" fill="#403e3e"/>
      <rect id="사각형_2982" data-name="사각형 2982" width="2" height="2" transform="translate(13.423 38.09)" fill="#403e3e"/>
    </g>
    <path id="패스_2547" data-name="패스 2547" d="M298.531,141.063a10.531,10.531,0,1,1,10.531-10.531A10.544,10.544,0,0,1,298.531,141.063Zm0-19.148a8.616,8.616,0,1,0,8.616,8.617A8.626,8.626,0,0,0,298.531,121.915Z" transform="translate(-239.449 -105.639)" fill="#0319de"/>
    <g id="그룹_10096" data-name="그룹 10096" transform="translate(58.404 19.631)">
      <rect id="사각형_2983" data-name="사각형 2983" width="2" height="7" transform="translate(-0.258 -0.009)" fill="#403e3e"/>
      <rect id="사각형_2984" data-name="사각형 2984" width="2" height="2" transform="translate(-0.258 8.991)" fill="#403e3e"/>
    </g>
  </g>
</svg>
