<svg xmlns="http://www.w3.org/2000/svg" width="60" height="59.998" viewBox="0 0 60 59.998">
  <g id="그룹_10105" data-name="그룹 10105" transform="translate(-2 -2.002)">
    <path id="패스_2567" data-name="패스 2567" d="M31,56h2v2H31Z" fill="#403e3e"/>
    <path id="패스_2568" data-name="패스 2568" d="M48.678,48.678h2v2h-2Z" transform="translate(-20.577 49.678) rotate(-45)" fill="#403e3e"/>
    <path id="패스_2569" data-name="패스 2569" d="M56,31h2v2H56Z" fill="#403e3e"/>
    <path id="패스_2570" data-name="패스 2570" d="M61,25H53.91a22.548,22.548,0,0,0-1.465-3.542l5.011-5.012a1,1,0,0,0,0-1.414L53.213,10.79A30,30,0,1,0,10.786,53.214l4.243,4.242a1,1,0,0,0,1.414,0l5.012-5.011A22.559,22.559,0,0,0,25,53.909V61a1,1,0,0,0,1,1H38a1,1,0,0,0,1-1V53.91a22.559,22.559,0,0,0,3.542-1.464l5.012,5.011a1,1,0,0,0,1.414,0l8.485-8.485a1,1,0,0,0,0-1.414l-5.011-5.012A22.56,22.56,0,0,0,53.909,39H61a1,1,0,0,0,1-1V26a1,1,0,0,0-1-1ZM12.2,12.2a27.989,27.989,0,0,1,38.874-.69l-1.412,1.412a26,26,0,0,0-36.74,36.74L11.51,51.074A27.989,27.989,0,0,1,12.2,12.2ZM40.485,23.515a12,12,0,1,1-16.97,16.97,1,1,0,0,0-1.414,0l-7.764,7.764A24,24,0,0,1,43.214,10.773a23.478,23.478,0,0,1,5.035,3.564L40.485,22.1a1,1,0,0,0,0,1.415ZM60,37H53.164a1,1,0,0,0-.964.732,20.49,20.49,0,0,1-1.861,4.5,1,1,0,0,0,.166,1.2l4.829,4.83-7.07,7.07L43.434,50.5a1,1,0,0,0-1.2-.166,20.49,20.49,0,0,1-4.5,1.861,1,1,0,0,0-.732.964V60H27V53.164a1,1,0,0,0-.732-.964,20.49,20.49,0,0,1-4.5-1.861,1,1,0,0,0-1.2.166l-4.83,4.829L12.91,52.506l9.925-9.924A14,14,0,0,0,42.582,22.833l9.924-9.925,2.828,2.828-4.829,4.83a1,1,0,0,0-.166,1.2,20.473,20.473,0,0,1,1.861,4.5,1,1,0,0,0,.964.732H60Z" fill="#403e3e"/>
    <path id="패스_2571" data-name="패스 2571" d="M33,28.142V17a1,1,0,0,0-2,0V28.142A4,4,0,0,0,28.142,31H21a1,1,0,0,0,0,2h7.142A3.992,3.992,0,1,0,33,28.142ZM32,34a2,2,0,1,1,2-2A2,2,0,0,1,32,34Z" fill="#0319de"/>
    <path id="패스_2572" data-name="패스 2572" d="M32,13a1,1,0,0,1-1-1V10a1,1,0,0,1,2,0v2A1,1,0,0,1,32,13Z" fill="#0319de"/>
    <path id="패스_2573" data-name="패스 2573" d="M42,15.68a1,1,0,0,1-.865-1.5l1-1.733a1,1,0,1,1,1.732,1l-1,1.733a1,1,0,0,1-.867.5Z" fill="#0319de"/>
    <path id="패스_2574" data-name="패스 2574" d="M22,15.68a1,1,0,0,1-.867-.5l-1-1.733a1,1,0,1,1,1.732-1l1,1.733A1,1,0,0,1,22,15.68Z" fill="#0319de"/>
    <path id="패스_2575" data-name="패스 2575" d="M14.679,23a.992.992,0,0,1-.5-.134l-1.733-1a1,1,0,1,1,1-1.732l1.733,1a1,1,0,0,1-.5,1.866Z" fill="#0319de"/>
    <path id="패스_2576" data-name="패스 2576" d="M12,33H10a1,1,0,0,1,0-2h2a1,1,0,0,1,0,2Z" fill="#0319de"/>
    <path id="패스_2577" data-name="패스 2577" d="M12.948,44a1,1,0,0,1-.5-1.866l1.733-1a1,1,0,1,1,1,1.732l-1.733,1a.992.992,0,0,1-.5.134Z" fill="#0319de"/>
    <path id="패스_2578" data-name="패스 2578" d="M32,42a9.914,9.914,0,0,1-7.068-2.934,1,1,0,1,1,1.416-1.412A7.995,7.995,0,1,0,37.654,26.348a1,1,0,1,1,1.412-1.416A10,10,0,0,1,32,42Z" fill="#0319de"/>
  </g>
</svg>
