<svg xmlns="http://www.w3.org/2000/svg" width="60" height="60" viewBox="0 0 60 60">
  <g id="그룹_10107" data-name="그룹 10107" transform="translate(-1 -1)">
    <path id="패스_2588" data-name="패스 2588" d="M60.032,10.677h-8.71V3.9a2.9,2.9,0,0,0-2.9-2.9H13.581a2.9,2.9,0,0,0-2.9,2.9v6.774H1.968A.968.968,0,0,0,1,11.645V48.419a.968.968,0,0,0,.968.968H22.884l-1.29,3.871H20.355a3.871,3.871,0,0,0-3.871,3.871v2.9a.968.968,0,0,0,.968.968h27.1a.968.968,0,0,0,.968-.968v-2.9a3.871,3.871,0,0,0-3.871-3.871H40.406l-1.29-3.871H60.032A.968.968,0,0,0,61,48.419V11.645A.968.968,0,0,0,60.032,10.677ZM13.581,41.645H48.419a2.9,2.9,0,0,0,2.9-2.9V16.484h3.871v27.1H6.806v-27.1h3.871V38.742A2.9,2.9,0,0,0,13.581,41.645Zm-.968-32.9H49.387v30a.968.968,0,0,1-.968.968H13.581a.968.968,0,0,1-.968-.968Zm.968-5.806H48.419a.968.968,0,0,1,.968.968v2.9H12.613V3.9A.968.968,0,0,1,13.581,2.935Zm30,54.194v1.935H18.419V57.129a1.935,1.935,0,0,1,1.935-1.935h21.29A1.935,1.935,0,0,1,43.581,57.129Zm-5.213-3.871H23.633l1.29-3.871H37.077Zm20.7-5.806H2.935V12.613h7.742v1.935H5.839a.968.968,0,0,0-.968.968V44.548a.968.968,0,0,0,.968.968H56.161a.968.968,0,0,0,.968-.968V15.516a.968.968,0,0,0-.968-.968H51.323V12.613h7.742Z" fill="#403e3e"/>
    <path id="패스_2589" data-name="패스 2589" d="M24.03,28.757l-2,8a1,1,0,0,0,1.212,1.212l8-2a1,1,0,0,0,.465-.263L47.465,19.95a5.242,5.242,0,1,0-7.415-7.413L24.293,28.293a1,1,0,0,0-.263.464ZM40.586,24,32,32.585V31a1,1,0,0,0-1-1H30V29a1,1,0,0,0-1-1H27.415L36,19.414Zm-3.172-6L39,16.414,43.586,21,42,22.586ZM28,30v1a1,1,0,0,0,1,1h1v2.219l-1.094.273-3.4-3.4L25.781,30Zm-3.058,3.356,1.7,1.7-2.27.568ZM43.758,13a3.243,3.243,0,0,1,2.292,5.536L45,19.586,40.415,15l1.051-1.051A3.217,3.217,0,0,1,43.758,13Z" transform="translate(-1.2 -0.571)" fill="#0319de"/>
    <path id="패스_2590" data-name="패스 2590" d="M34,37h2v2H34Z" transform="translate(-1.1 -1.2)" fill="#403e3e"/>
    <path id="패스_2591" data-name="패스 2591" d="M38,37h2v2H38Z" transform="translate(-1.233 -1.2)" fill="#403e3e"/>
    <path id="패스_2592" data-name="패스 2592" d="M42,37h2v2H42Z" transform="translate(-1.367 -1.2)" fill="#403e3e"/>
    <path id="패스_2593" data-name="패스 2593" d="M17,11H29v2H17Z" transform="translate(-0.64)" fill="#0319de"/>
    <path id="패스_2594" data-name="패스 2594" d="M31,11h2v2H31Z" transform="translate(-1)" fill="#0319de"/>
    <path id="패스_2595" data-name="패스 2595" d="M15,15H33v2H15Z" transform="translate(-0.636 -0.467)" fill="#0319de"/>
  </g>
</svg>
