<svg width="160" height="160" viewBox="0 0 160 160" fill="none" xmlns="http://www.w3.org/2000/svg">
<mask id="mask0_204_117" style="mask-type:luminance" maskUnits="userSpaceOnUse" x="7" y="7" width="146" height="147">
<path d="M153 7H7V153.632H153V7Z" fill="white"/>
</mask>
<g mask="url(#mask0_204_117)">
<path d="M30.5879 134.119L48.738 123.379L67.0748 134.01L48.738 144.536L30.5879 134.119Z" fill="#AEFFFD"/>
<g opacity="0.59">
<path d="M48.7285 108.488V113.983L86.7405 136.476V130.302L48.7285 108.488Z" fill="#76AADB"/>
<path d="M48.7285 108.489L86.7405 85.9961L125.14 108.261L86.7405 130.303L48.7285 108.489Z" fill="#009BDB"/>
<path d="M125.14 108.26V113.983L86.7402 136.476V130.302L125.14 108.26Z" fill="#4A72B2"/>
</g>
<path style="mix-blend-mode:color-dodge" d="M48.7285 108.489L86.7405 85.9961L125.14 108.261L86.7405 130.303L48.7285 108.489Z" fill="url(#paint0_radial_204_117)"/>
<g opacity="0.59">
<path d="M48.7285 98.2949V103.789L86.7405 126.282V120.108L48.7285 98.2949Z" fill="#76AADB"/>
<path d="M48.7285 98.2957L86.7405 75.8027L125.14 98.0702L86.7405 120.109L48.7285 98.2957Z" fill="#009BDB"/>
<path d="M125.14 98.0703V103.79L86.7402 126.283V120.109L125.14 98.0703Z" fill="#4A72B2"/>
</g>
<g opacity="0.59">
<path d="M105.317 97.8193C105.317 103.047 97.0436 107.285 86.8371 107.285C76.6305 107.285 68.3574 103.047 68.3574 97.8193C68.3574 92.5915 76.6305 88.3535 86.8371 88.3535C97.0436 88.3535 105.317 92.5915 105.317 97.8193Z" fill="#76AADB"/>
<path d="M105.317 33.5664H68.3574V97.8178H105.317V33.5664Z" fill="#76AADB"/>
<path d="M105.317 33.5674C105.317 38.7952 97.0436 43.0302 86.8371 43.0302C76.6305 43.0302 68.3574 38.7923 68.3574 33.5674C68.3574 28.3424 76.6305 24.1016 86.8371 24.1016C97.0436 24.1016 105.317 28.3395 105.317 33.5674Z" fill="#4A72B2"/>
</g>
<path d="M57.7987 98.6008L57.5391 78.3982C57.5304 77.7245 58.2478 77.294 58.8339 77.622L84.1286 91.7416C84.3998 91.8939 84.5719 92.181 84.5777 92.4943L84.846 113.368C84.8547 114.047 84.1228 114.478 83.5366 114.138L58.2332 99.3477C57.9707 99.1924 57.8045 98.9113 57.8016 98.6038L57.7987 98.6008Z" fill="white"/>
<path d="M57.4569 98.7506L57.1973 78.5479C57.1886 77.8743 57.906 77.4438 58.4921 77.7689L83.7868 91.8885C84.058 92.0408 84.2301 92.3278 84.2359 92.6412L84.5042 113.515C84.5129 114.194 83.781 114.625 83.1948 114.285L57.8914 99.4945C57.6289 99.3393 57.4627 99.0581 57.4598 98.7506H57.4569Z" fill="#C2C3C9"/>
<path d="M58.5234 79.4961V98.3574L82.7741 112.266L83.0308 93.1793L58.5234 79.4961Z" fill="#A9D4FF"/>
<path d="M114.451 98.6008L114.71 78.3982C114.719 77.7245 114.002 77.294 113.415 77.622L88.1237 91.7416C87.8525 91.8939 87.6804 92.181 87.6746 92.4943L87.4063 113.368C87.3976 114.047 88.1295 114.478 88.7157 114.138L114.019 99.3477C114.284 99.1924 114.448 98.9113 114.451 98.6038V98.6008Z" fill="white"/>
<path d="M114.794 98.7506L115.054 78.5479C115.063 77.8743 114.345 77.4438 113.759 77.7689L88.4674 91.8885C88.1962 92.0408 88.0242 92.3278 88.0184 92.6412L87.7501 113.515C87.7413 114.194 88.4733 114.625 89.0594 114.285L114.363 99.4945C114.628 99.3393 114.792 99.0581 114.794 98.7506Z" fill="#C2C3C9"/>
<path d="M113.727 79.4961V98.3574L89.4734 112.266L89.2168 93.1793L113.727 79.4961Z" fill="#AEFFFD"/>
<path opacity="0.75" d="M54.9316 73.7266V92.5849L79.1853 106.494L79.4419 87.4098L54.9316 73.7266Z" fill="white"/>
<path opacity="0.75" d="M54.9316 29.1191V47.9804L79.1853 61.8892L79.4419 42.8024L54.9316 29.1191Z" fill="white"/>
<path opacity="0.75" d="M117 56.3008V92.5853L92.7498 106.494L92.4902 69.984L117 56.3008Z" fill="white"/>
<path opacity="0.75" d="M117 30.9141V51.2661L92.7498 65.1748L92.4902 44.5973L117 30.9141Z" fill="white"/>
<path d="M117 56.3008V92.5853L92.7498 106.494L92.4902 69.984L117 56.3008Z" stroke="white" stroke-miterlimit="10"/>
<path d="M117 30.9141V51.2661L92.7498 65.1748L92.4902 44.5973L117 30.9141Z" stroke="white" stroke-miterlimit="10"/>
<path opacity="0.75" d="M54.9316 51.4395V71.0154L66.0305 77.567L66.2988 57.7597L54.9316 51.4395Z" fill="white"/>
<path opacity="0.75" d="M68.334 59.0039V78.5798L79.4329 85.1344L79.7011 65.3242L68.334 59.0039Z" fill="white"/>
<path d="M54.9434 73.7266V92.5849L79.1941 106.494L79.4507 87.4098L54.9434 73.7266Z" stroke="white" stroke-miterlimit="10"/>
<path d="M54.9434 29.1191V47.9804L79.1941 61.8892L79.4507 42.8024L54.9434 29.1191Z" stroke="white" stroke-miterlimit="10"/>
<path opacity="0.75" d="M54.9434 51.4395V71.0154L66.0393 77.567L66.3076 57.7597L54.9434 51.4395Z" stroke="white" stroke-miterlimit="10"/>
<path opacity="0.75" d="M68.3438 59.0039V78.5798L79.4426 85.1344L79.7109 65.3242L68.3438 59.0039Z" stroke="white" stroke-miterlimit="10"/>
<path d="M66.9961 84.2734V90.0519L77.188 95.6634L77.2668 89.8147L66.9961 84.2734Z" fill="white"/>
<path d="M66.9961 91.7715V97.55L77.188 103.161L77.2668 97.3156L66.9961 91.7715Z" fill="white"/>
<path opacity="0.75" d="M57.1973 87.9941V91.5467L59.4135 92.7417V89.1861L57.1973 87.9941Z" fill="#BA007C"/>
<path opacity="0.75" d="M59.9004 87.1855V93.1192L62.1196 94.3142V88.3776L59.9004 87.1855Z" fill="#BA007C"/>
<path opacity="0.75" d="M62.7207 85.9961V94.6887L64.9399 95.8807V87.1852L62.7207 85.9961Z" fill="#BA007C"/>
<path d="M114.941 84.0293V91.9516L101.434 99.2677V91.3424L114.941 84.0293Z" fill="#AEFFFD"/>
<path d="M100.948 91.3301V99.6478L98.7285 100.84V92.5221L100.948 91.3301Z" fill="#AEFFFD"/>
<path d="M98.1274 92.5234V101.216L95.9082 102.411V93.7125L98.1274 92.5234Z" fill="#AEFFFD"/>
<path d="M59.5094 83.9593C59.9934 83.6811 59.9439 82.6824 59.3985 81.7305C58.8532 80.7787 58.0192 80.2339 57.538 80.5122C57.054 80.7904 57.1035 81.7891 57.6489 82.7409C58.1942 83.6928 59.0282 84.2375 59.5094 83.9593Z" fill="#76AADB"/>
<path d="M97.1984 90.5138C95.9299 89.7817 96.0611 87.1663 97.4871 84.668C98.916 82.1727 101.1 80.7405 102.369 81.4727C103.637 82.2049 103.506 84.8203 102.08 87.3186C100.651 89.8139 98.4669 91.246 97.1984 90.5138Z" fill="#76AADB"/>
<path d="M98.3702 88.4608C97.6791 88.0624 97.7491 86.6332 98.5277 85.2713C99.3063 83.9094 100.499 83.1275 101.193 83.5258C101.884 83.9241 101.814 85.3533 101.036 86.7152C100.257 88.0771 99.0643 88.8591 98.3702 88.4608Z" fill="#4A72B2"/>
<g opacity="0.8">
<path opacity="0.75" d="M56.0215 54.9121V57.425L64.9187 62.3951L64.9391 59.8647L56.0215 54.9121Z" fill="#BA007C"/>
<path opacity="0.56" d="M56.0215 57.8965V58.7693L64.9187 63.7394L64.9391 62.849L56.0215 57.8965Z" fill="white"/>
<path opacity="0.56" d="M56.0215 59.2402V60.113L64.9187 65.0831L64.9391 64.1928L56.0215 59.2402Z" fill="white"/>
<path opacity="0.56" d="M56.0215 60.5859V61.4616L64.9187 66.4318L64.9391 65.5414L56.0215 60.5859Z" fill="white"/>
<path opacity="0.56" d="M56.0215 61.9316V62.8044L60.0108 65.0654L60.0283 64.1751L56.0215 61.9316Z" fill="white"/>
<path opacity="0.56" d="M56.0215 63.2773V64.1501L64.9187 69.1202L64.9391 68.2299L56.0215 63.2773Z" fill="white"/>
<path opacity="0.56" d="M56.0215 64.6211V65.4968L64.9187 70.4669L64.9391 69.5766L56.0215 64.6211Z" fill="white"/>
<path opacity="0.56" d="M56.0215 65.9688V66.8415L64.9187 71.8117L64.9391 70.9213L56.0215 65.9688Z" fill="white"/>
<path opacity="0.56" d="M56.0215 67.3125V68.1853L64.9187 73.1554L64.9391 72.2651L56.0215 67.3125Z" fill="white"/>
</g>
<g opacity="0.8">
<path d="M69.5664 61.4395V66.4564L78.4636 71.4266L78.484 66.392L69.5664 61.4395Z" fill="#76AADB"/>
<path d="M57.3105 33.375V46.5633L66.2106 51.5334L66.2311 38.3276L57.3105 33.375Z" fill="#76AADB"/>
<path opacity="0.56" d="M69.5664 67.8633V68.739L78.4636 73.7091L78.484 72.8188L69.5664 67.8633Z" fill="white"/>
<path opacity="0.56" d="M69.5664 69.2109V70.0837L78.4636 75.0538L78.484 74.1635L69.5664 69.2109Z" fill="white"/>
<path opacity="0.56" d="M69.5664 70.5566V71.4294L73.5557 73.6934L73.5732 72.803L69.5664 70.5566Z" fill="white"/>
<path opacity="0.56" d="M69.5664 71.9004V72.7761L78.4636 77.7462L78.484 76.8559L69.5664 71.9004Z" fill="white"/>
<path opacity="0.56" d="M69.5664 73.248V74.1208L78.4636 79.091L78.484 78.2006L69.5664 73.248Z" fill="white"/>
<path opacity="0.56" d="M69.5664 74.5918V75.4646L78.4636 80.4347L78.484 79.5444L69.5664 74.5918Z" fill="white"/>
<path opacity="0.56" d="M69.5664 75.9355V76.8113L78.4636 81.7814L78.484 80.891L69.5664 75.9355Z" fill="white"/>
</g>
<path opacity="0.75" d="M70.03 42.8367C70.4616 42.5877 70.4149 41.7003 69.9309 40.8539C69.4468 40.0075 68.7061 39.5213 68.2745 39.7703C67.8429 40.0192 67.8896 40.9066 68.3736 41.753C68.8577 42.5995 69.5984 43.0856 70.03 42.8367Z" fill="#BA007C"/>
<path d="M73.5972 44.5652C74.0259 44.3163 73.9821 43.4288 73.4981 42.5824C73.014 41.736 72.2733 41.2498 71.8417 41.4988C71.413 41.7477 71.4567 42.6351 71.9408 43.4816C72.4249 44.328 73.1656 44.8141 73.5972 44.5652Z" fill="#76AADB"/>
<path d="M77.1636 46.2918C77.5923 46.0428 77.5485 45.1554 77.0645 44.309C76.5804 43.4626 75.8397 42.9764 75.4081 43.2253C74.9794 43.4743 75.0232 44.3617 75.5072 45.2081C75.9913 46.0545 76.732 46.5407 77.1636 46.2918Z" fill="#AEFFFD"/>
<g opacity="0.8">
<path opacity="0.56" d="M67.668 43.4688V44.403L77.2154 49.7363L77.2359 48.7815L67.668 43.4688Z" fill="white"/>
<path opacity="0.56" d="M67.668 44.9102V45.8474L77.2154 51.1777L77.2359 50.2229L67.668 44.9102Z" fill="white"/>
<path opacity="0.56" d="M67.668 46.3535V47.2907L71.9489 49.7157L71.9693 48.761L67.668 46.3535Z" fill="white"/>
<path opacity="0.56" d="M67.668 47.7969V48.7312L77.2154 54.0644L77.2359 53.1097L67.668 47.7969Z" fill="white"/>
<path opacity="0.56" d="M67.668 49.2383V50.1755L77.2154 55.5059L77.2359 54.5511L67.668 49.2383Z" fill="white"/>
<path opacity="0.56" d="M67.668 50.6816V51.6189L77.2154 56.9492L77.2359 55.9944L67.668 50.6816Z" fill="white"/>
<path opacity="0.56" d="M67.668 52.123V53.0603L77.2154 58.3935L77.2359 57.4388L67.668 52.123Z" fill="white"/>
</g>
<g opacity="0.8">
<path d="M115.823 34.1289V40.2735L106.278 45.6038L106.258 39.4417L115.823 34.1289Z" fill="#76AADB"/>
<path opacity="0.56" d="M115.823 41.623V42.5603L106.278 47.8906L106.258 46.9358L115.823 41.623Z" fill="white"/>
<path opacity="0.56" d="M115.823 43.0684V44.0056L106.267 49.3154L106.246 48.3607L115.823 43.0684Z" fill="white"/>
<path opacity="0.56" d="M115.823 44.5078V45.445L106.278 50.7754L106.258 49.8206L115.823 44.5078Z" fill="white"/>
<path opacity="0.56" d="M115.823 45.9531V46.8903L106.278 52.2207L106.258 51.2659L115.823 45.9531Z" fill="white"/>
<path opacity="0.56" d="M115.823 47.3965V48.3337L106.278 53.6641L106.258 52.7093L115.823 47.3965Z" fill="white"/>
<path opacity="0.56" d="M115.823 48.8379V49.7751L106.278 55.1055L106.258 54.1507L115.823 48.8379Z" fill="white"/>
</g>
<g opacity="0.8">
<path opacity="0.56" d="M103.77 67.7266V68.6638L94.2255 73.9971L94.2051 73.0423L103.77 67.7266Z" fill="white"/>
<path opacity="0.56" d="M103.77 69.1699V70.1071L94.2138 75.4199L94.1934 74.4651L103.77 69.1699Z" fill="white"/>
<path opacity="0.56" d="M103.77 70.6152V71.5524L94.2255 76.8828L94.2051 75.928L103.77 70.6152Z" fill="white"/>
<path opacity="0.56" d="M103.77 72.0547V72.9919L94.2255 78.3252L94.2051 77.3704L103.77 72.0547Z" fill="white"/>
<path opacity="0.56" d="M103.77 73.5V74.4372L94.2255 79.7676L94.2051 78.8128L103.77 73.5Z" fill="white"/>
<path opacity="0.56" d="M103.77 74.9434V75.8806L94.2255 81.2109L94.2051 80.2562L103.77 74.9434Z" fill="white"/>
</g>
<g opacity="0.8">
<path opacity="0.56" d="M114.943 73.6797V74.6169L105.395 79.9473L105.375 78.9925L114.943 73.6797Z" fill="white"/>
<path opacity="0.56" d="M114.942 75.123V76.0603L105.386 81.373L105.365 80.4183L114.942 75.123Z" fill="white"/>
<path opacity="0.56" d="M114.941 76.5684V77.5056L105.393 82.8359L105.373 81.8812L114.941 76.5684Z" fill="white"/>
<path opacity="0.56" d="M114.941 78.0078V78.945L105.393 84.2754L105.373 83.3206L114.941 78.0078Z" fill="white"/>
<path opacity="0.56" d="M114.941 79.4531V80.3903L105.393 85.7207L105.373 84.7659L114.941 79.4531Z" fill="white"/>
<path opacity="0.56" d="M114.941 80.8965V81.8337L105.393 87.1641L105.373 86.2093L114.941 80.8965Z" fill="white"/>
</g>
<path d="M95.1836 57.0442L98.9833 54.8418L102.783 57.0442L98.9308 59.2145L95.1836 57.0442Z" fill="#4A72B2"/>
<path d="M95.1836 55.7337L98.9833 53.5312L102.783 55.7337L98.9308 57.9068L95.1836 55.7337Z" fill="#76AADB"/>
<path d="M95.1836 54.0892L98.9833 51.8867L102.783 54.0892L98.9308 56.2594L95.1836 54.0892Z" fill="#4A72B2"/>
<path d="M95.1836 52.6692L98.9833 50.4668L102.783 52.6692L98.9308 54.8424L95.1836 52.6692Z" fill="#76AADB"/>
<path d="M95.1836 51.2493L98.9833 49.0469L102.783 51.2493L98.9308 53.4225L95.1836 51.2493Z" fill="#4A72B2"/>
<path d="M95.1836 49.9114L98.9833 47.709L102.783 49.9114L98.9308 52.0816L95.1836 49.9114Z" fill="#76AADB"/>
<path d="M95.1836 48.5696L98.9833 46.3672L102.783 48.5696L98.9308 50.7428L95.1836 48.5696Z" fill="#4A72B2"/>
<path d="M95.1836 47.2278L98.9833 45.0254L102.783 47.2278L98.9308 49.401L95.1836 47.2278Z" fill="#76AADB"/>
<path d="M114.366 69.2344V70.6314L113.162 71.3284V69.9314L114.366 69.2344Z" fill="white"/>
<path d="M114.366 67.1406V68.5377L113.162 69.2347V67.8406L114.366 67.1406Z" fill="white"/>
<path d="M114.366 65.0469V66.4439L113.162 67.1409V65.7469L114.366 65.0469Z" fill="white"/>
<path d="M114.366 62.9551V64.3492L113.162 65.0462V63.6521L114.366 62.9551Z" fill="white"/>
<path d="M114.366 60.8613V62.2554L113.162 62.9554V61.5584L114.366 60.8613Z" fill="white"/>
<path d="M112.562 70.2832V71.6773L111.357 72.3743V70.9802L112.562 70.2832Z" fill="white"/>
<path d="M112.562 68.1895V69.5835L111.357 70.2835V68.8865L112.562 68.1895Z" fill="white"/>
<path d="M112.562 66.0957V67.4898L111.357 68.1898V66.7927L112.562 66.0957Z" fill="#76AADB"/>
<path d="M112.562 64V65.397L111.357 66.0941V64.697L112.562 64Z" fill="#76AADB"/>
<path d="M112.562 61.9062V63.3033L111.357 64.0003V62.6033L112.562 61.9062Z" fill="#76AADB"/>
<path d="M110.755 71.3281V72.7222L109.551 73.4222V72.0252L110.755 71.3281Z" fill="white"/>
<path d="M110.755 69.2344V70.6314L109.551 71.3284V69.9314L110.755 69.2344Z" fill="white"/>
<path d="M110.755 67.1406V68.5377L109.551 69.2347V67.8406L110.755 67.1406Z" fill="white"/>
<path d="M110.755 65.0469V66.4439L109.551 67.1409V65.7469L110.755 65.0469Z" fill="#76AADB"/>
<path d="M110.755 62.9551V64.3492L109.551 65.0462V63.6521L110.755 62.9551Z" fill="#76AADB"/>
<path d="M108.95 72.375V73.772L107.746 74.4691V73.075L108.95 72.375Z" fill="white"/>
<path d="M108.95 70.2832V71.6773L107.746 72.3743V70.9802L108.95 70.2832Z" fill="white"/>
<path d="M108.95 68.1895V69.5835L107.746 70.2835V68.8865L108.95 68.1895Z" fill="#76AADB"/>
<path d="M108.95 66.0957V67.4898L107.746 68.1898V66.7927L108.95 66.0957Z" fill="#76AADB"/>
<path d="M108.95 64V65.397L107.746 66.0941V64.697L108.95 64Z" fill="#76AADB"/>
<path d="M107.146 73.4219V74.816L105.941 75.516V74.1189L107.146 73.4219Z" fill="white"/>
<path d="M107.146 71.3281V72.7222L105.941 73.4222V72.0252L107.146 71.3281Z" fill="#76AADB"/>
<path d="M107.146 69.2344V70.6314L105.941 71.3284V69.9314L107.146 69.2344Z" fill="#76AADB"/>
<path d="M107.146 67.1406V68.5377L105.941 69.2347V67.8406L107.146 67.1406Z" fill="#76AADB"/>
<path d="M107.146 65.0469V66.4439L105.941 67.1409V65.7469L107.146 65.0469Z" fill="#76AADB"/>
<path d="M46.6768 130.395C46.6768 130.395 47.7645 131.024 48.8318 130.875C49.8991 130.728 51.2202 130.802 51.366 131.686C51.5118 132.571 50.1849 133.528 48.8318 133.713C47.4787 133.897 45.3499 133.971 45.3499 133.971L45.0933 134.375C45.0933 134.375 42.9295 134.706 42.1218 134.117C42.1218 134.117 41.731 132.74 42.3609 131.619C42.3842 131.578 42.4075 131.537 42.4338 131.499C42.4338 131.499 45.2508 132.199 46.6768 130.395Z" fill="#0C0C0C"/>
<path d="M48.7846 104.199C48.7846 104.199 49.1345 110.903 47.9068 115.492C46.6791 120.082 46.6762 130.403 46.6762 130.403C46.6762 130.403 45.3581 132.872 42.4595 132.078C42.4595 132.078 42.0191 122.726 42.4595 119.549C42.8998 116.374 42.2845 110.285 41.3163 107.992C40.3511 105.698 40.5261 103.051 40.5261 103.051L48.7846 104.199Z" fill="#0C0C0C"/>
<path d="M53.5585 106.58C53.5585 106.58 53.9084 113.284 52.6807 117.873C51.4501 122.46 51.4501 132.783 51.4501 132.783C51.4501 132.783 50.132 135.252 47.2334 134.459C47.2334 134.459 46.793 125.107 47.2334 121.929C47.6737 118.752 47.0584 112.666 46.0902 110.372C45.1221 108.079 45.3 105.432 45.3 105.432L53.5585 106.58Z" fill="#1E1E1E"/>
<path d="M51.4502 132.783C51.4502 132.783 52.538 133.413 53.6053 133.264C54.6726 133.117 55.9936 133.19 56.1394 134.075C56.2852 134.959 54.9584 135.917 53.6053 136.101C52.2522 136.286 50.1234 136.359 50.1234 136.359L49.8668 136.763C49.8668 136.763 47.703 137.094 46.8952 136.506C46.8952 136.506 46.5044 135.129 47.1343 134.007C47.1577 133.966 47.181 133.925 47.2072 133.887C47.2072 133.887 50.0242 134.587 51.4502 132.783Z" fill="#0C0C0C"/>
<path d="M45.2116 82.5306C43.3015 82.2055 41.5372 83.6347 41.4848 85.5824C41.4556 86.7012 40.9978 88.4526 41.269 90.2596C41.998 95.095 41.269 94.4507 41.0269 99.2041C40.8228 103.217 39.6738 106.793 39.6738 106.793C39.6738 106.793 41.4002 109.484 52.3153 108.775L53.1785 109.721L55.2198 108.617C55.2198 108.617 52.7061 102.467 52.7061 99.4706C52.7061 96.4745 53.9863 91.4223 53.0415 88.271C52.0995 85.1167 50.1924 83.9393 49.093 83.5439C48.5039 83.3331 46.8155 82.8059 45.2058 82.5306H45.2116Z" fill="#193F7D"/>
<path d="M49.3357 90.875C49.3357 90.875 47.6881 97.1045 48.0788 102.23C48.4696 107.355 48.0176 108.676 48.0176 108.676L52.3189 108.776C52.3189 108.776 48.942 104.201 48.8633 102.151C48.7845 100.101 48.3908 93.0833 49.3357 90.875Z" fill="#3A5F9B"/>
<path d="M55.1878 108.631C55.1878 108.631 56.3776 110.051 56.1501 111.018C55.9256 111.984 55.9868 112.438 55.6835 112.664C55.3803 112.889 53.9018 113.63 53.2281 112.954C52.5545 112.277 53.9659 112.47 54.0942 112.019C54.2225 111.568 53.3565 110.696 53.3565 110.696V109.632L55.1878 108.634V108.631Z" fill="#FACAA9"/>
<path d="M48.8457 83.8288L49.0586 81.8694C49.0586 81.8694 51.3449 81.8694 52.2285 78.8996C53.1121 75.9299 51.8027 73.1417 49.0586 72.9601C46.3145 72.7756 45.186 74.9809 45.1568 76.4219C45.1276 77.8599 46.2533 81.351 46.2533 81.351L46.1308 83.6794C46.1308 83.6794 47.2594 84.9651 48.8457 83.8317V83.8288Z" fill="#FACAA9"/>
<path d="M45.6484 83.6824C45.6484 83.6824 46.777 85.015 48.6637 84.2974C48.6637 84.2974 49.1799 84.0221 49.6931 84.1715L48.9291 83.0527C48.9291 83.0527 47.8764 83.6501 46.1733 82.8652L45.6484 83.6853V83.6824Z" fill="#3A5F9B"/>
<path d="M50.1657 77.5083C50.1657 77.5083 50.1862 79.5906 52.2275 78.8965C52.2275 78.8965 53.2306 82.9997 51.1951 83.4302C49.4425 83.8022 49.0547 81.8663 49.0547 81.8663C49.0547 81.8663 50.0112 80.6655 49.6904 79.4969C49.3696 78.3283 49.5883 77.1246 50.1628 77.5083H50.1657Z" fill="#0C0C0C"/>
<path d="M52.2305 76.2578L52.8429 78.059C52.9478 78.3695 52.7845 78.7063 52.4754 78.8117L52.2305 78.8966V76.2578Z" fill="#FACAA9"/>
<path d="M51.6358 74.2985C51.6358 74.2985 50.5743 77.2068 45.2057 75.9357C45.2057 75.9357 44.9111 74.1784 46.1709 73.2442C47.4278 72.3128 49.9911 72.4856 50.4227 72.1049C51.6008 71.0681 53.0443 72.8839 51.6358 74.2956V74.2985Z" fill="#0C0C0C"/>
<path opacity="0.19" d="M45.2058 75.9366C45.2058 75.9366 44.9287 77.1725 46.2527 81.349L47.4483 81.7824C48.291 81.8615 49.1717 80.3737 49.0609 79.5302C49.0609 79.5214 49.0609 79.5097 49.058 79.5009C48.9122 78.511 48.5885 77.8227 48.9588 77.2955C49.3292 76.7684 49.6121 77.3248 49.5829 78.0014L50.1661 77.5152C50.1661 77.5152 49.9999 76.5926 50.3236 76.2646C50.6473 75.9366 51.2772 75.5002 51.2043 74.9613C51.1343 74.4224 45.2028 75.9424 45.2028 75.9424L45.2058 75.9366Z" fill="#0C0C0C"/>
</g>
<defs>
<radialGradient id="paint0_radial_204_117" cx="0" cy="0" r="1" gradientUnits="userSpaceOnUse" gradientTransform="translate(86.9359 108.149) scale(31.1941 31.3291)">
<stop offset="0.27" stop-color="#D6D5D5"/>
<stop offset="0.41" stop-color="#9B9B9B"/>
<stop offset="0.56" stop-color="#646464"/>
<stop offset="0.7" stop-color="#393838"/>
<stop offset="0.82" stop-color="#191919"/>
<stop offset="0.92" stop-color="#060606"/>
<stop offset="0.99"/>
</radialGradient>
</defs>
</svg>
