<svg width="160" height="160" viewBox="0 0 160 160" fill="none" xmlns="http://www.w3.org/2000/svg">
<g clip-path="url(#clip0_204_5)">
<path d="M41.3306 82.416H32.2266V84.0096H41.3306V82.416Z" fill="#2E3D4D"/>
<path d="M46.3167 102.479L38.4316 106.992L39.2348 108.372L47.1199 103.859L46.3167 102.479Z" fill="#2E3D4D"/>
<path d="M60.7551 117.384L56.2031 125.203L57.5947 126L62.1467 118.181L60.7551 117.384Z" fill="#2E3D4D"/>
<path d="M82.3744 123.119H80.7676V132.148H82.3744V123.119Z" fill="#2E3D4D"/>
<path d="M102.388 117.381L100.996 118.178L105.547 125.998L106.938 125.201L102.388 117.381Z" fill="#2E3D4D"/>
<path d="M116.817 102.471L116.014 103.852L123.899 108.365L124.702 106.984L116.817 102.471Z" fill="#2E3D4D"/>
<path d="M130.915 82.416H121.811V84.0096H130.915V82.416Z" fill="#2E3D4D"/>
<path d="M123.9 58.0501L116.016 62.5645L116.819 63.9445L124.703 59.4301L123.9 58.0501Z" fill="#2E3D4D"/>
<path d="M105.545 40.432L100.994 48.252L102.386 49.0485L106.936 41.2286L105.545 40.432Z" fill="#2E3D4D"/>
<path d="M82.3744 34.2754H80.7676V43.3042H82.3744V34.2754Z" fill="#2E3D4D"/>
<path d="M57.5947 40.4337L56.2031 41.2305L60.7551 49.0496L62.1467 48.2528L57.5947 40.4337Z" fill="#2E3D4D"/>
<path d="M39.237 58.0555L38.4336 59.4355L46.3179 63.9499L47.1213 62.5699L39.237 58.0555Z" fill="#2E3D4D"/>
<path d="M83.6248 29.4624C83.6248 30.5844 82.7066 31.4991 81.5712 31.4991C80.4358 31.4991 79.5176 30.5885 79.5176 29.4624C79.5176 28.3364 80.4358 27.4258 81.5712 27.4258C82.7066 27.4258 83.6248 28.3364 83.6248 29.4624Z" fill="#2E3D4D"/>
<path d="M82.4525 52.8869C81.9647 53.3666 81.1777 53.3666 80.694 52.8869C80.2062 52.4032 80.2062 51.6227 80.694 51.143C81.1777 50.6633 81.9688 50.6633 82.4525 51.143C82.9361 51.6227 82.9361 52.4072 82.4525 52.8869Z" fill="#2E3D4D"/>
<path d="M67.0396 56.5131C66.8633 57.1717 66.1788 57.5619 65.5147 57.3831C64.8507 57.2083 64.4572 56.5294 64.6375 55.8708C64.8138 55.2123 65.4983 54.822 66.1624 54.9968C66.8264 55.1716 67.2199 55.8505 67.0396 56.5091V56.5131Z" fill="#2E3D4D"/>
<path d="M55.5261 67.2947C55.7024 67.9532 55.3089 68.628 54.649 68.8069C53.9849 68.9817 53.3045 68.5915 53.1241 67.9329C52.9478 67.2743 53.3414 66.5995 54.0054 66.4207C54.6694 66.2458 55.3499 66.6361 55.5302 67.2906L55.5261 67.2947Z" fill="#2E3D4D"/>
<path d="M50.9884 82.3433C51.4721 82.823 51.4721 83.6076 50.9884 84.0873C50.5007 84.571 49.7136 84.571 49.23 84.0873C48.7463 83.6076 48.7463 82.827 49.23 82.3433C49.7136 81.8595 50.5048 81.8595 50.9884 82.3433Z" fill="#2E3D4D"/>
<path d="M54.6491 97.6235C55.3132 97.7983 55.7067 98.4772 55.5263 99.1317C55.3501 99.7902 54.6655 100.18 54.0015 100.006C53.3375 99.8309 52.9439 99.152 53.1202 98.4934C53.2965 97.8349 53.981 97.4446 54.645 97.6235H54.6491Z" fill="#2E3D4D"/>
<path d="M65.5189 109.044C66.1829 108.869 66.8634 109.259 67.0437 109.914C67.22 110.572 66.8265 111.247 66.1665 111.426C65.5025 111.601 64.8221 111.21 64.6417 110.552C64.4654 109.893 64.859 109.219 65.5189 109.044Z" fill="#2E3D4D"/>
<path d="M80.6901 113.543C81.1737 113.064 81.9649 113.064 82.4485 113.543C82.9322 114.023 82.9322 114.808 82.4485 115.287C81.9608 115.767 81.1737 115.767 80.6901 115.287C80.2023 114.804 80.2023 114.023 80.6901 113.543Z" fill="#2E3D4D"/>
<path d="M96.1026 109.917C96.2789 109.259 96.9634 108.868 97.6275 109.047C98.2915 109.222 98.685 109.901 98.5047 110.555C98.3284 111.214 97.6439 111.604 96.9839 111.43C96.3199 111.255 95.9264 110.576 96.1026 109.917Z" fill="#2E3D4D"/>
<path d="M107.616 99.1359C107.44 98.4773 107.834 97.8025 108.494 97.6277C109.158 97.4529 109.838 97.8431 110.018 98.4976C110.195 99.1562 109.801 99.831 109.137 100.01C108.473 100.185 107.793 99.7944 107.616 99.1359Z" fill="#2E3D4D"/>
<path d="M112.154 84.0873C111.67 83.6076 111.67 82.827 112.154 82.3433C112.637 81.8595 113.429 81.8595 113.912 82.3433C114.396 82.823 114.396 83.6076 113.912 84.0873C113.424 84.571 112.637 84.571 112.154 84.0873Z" fill="#2E3D4D"/>
<path d="M108.493 68.8065C107.829 68.6317 107.436 67.9528 107.616 67.2942C107.792 66.6357 108.477 66.2454 109.137 66.4243C109.801 66.5991 110.194 67.278 110.018 67.9365C109.842 68.5951 109.157 68.9853 108.493 68.8105V68.8065Z" fill="#2E3D4D"/>
<path d="M97.6236 57.3829C96.9595 57.5577 96.2791 57.1675 96.0987 56.513C95.9225 55.8544 96.316 55.1796 96.98 55.0007C97.6441 54.8259 98.3245 55.2162 98.5008 55.8747C98.677 56.5333 98.2835 57.2081 97.6236 57.387V57.3829Z" fill="#2E3D4D"/>
<path d="M56.2524 35.6492C56.8181 36.6207 56.4819 37.8687 55.5023 38.4297C54.5226 38.9907 53.2642 38.6574 52.6985 37.6858C52.1328 36.7142 52.469 35.4662 53.4486 34.9052C54.4283 34.3442 55.6867 34.6776 56.2524 35.6492Z" fill="#2E3D4D"/>
<path d="M35.6624 54.5771C36.6421 55.1381 36.9782 56.382 36.4125 57.3577C35.8469 58.3293 34.5926 58.6626 33.6088 58.1016C32.6291 57.5406 32.293 56.2967 32.8587 55.321C33.4243 54.3494 34.6786 54.0161 35.6624 54.5771Z" fill="#2E3D4D"/>
<path d="M27.3739 81.1797C28.5053 81.1797 29.4276 82.0903 29.4276 83.2163C29.4276 84.3424 28.5094 85.253 27.3739 85.253C26.2385 85.253 25.3203 84.3424 25.3203 83.2163C25.3203 82.0903 26.2385 81.1797 27.3739 81.1797Z" fill="#2E3D4D"/>
<path d="M33.6088 108.327C34.5885 107.766 35.8469 108.099 36.4125 109.071C36.9782 110.043 36.6421 111.291 35.6624 111.852C34.6827 112.413 33.4243 112.079 32.8587 111.108C32.293 110.136 32.6291 108.888 33.6088 108.327Z" fill="#2E3D4D"/>
<path d="M52.6946 128.747C53.2603 127.775 54.5146 127.442 55.4984 128.003C56.478 128.564 56.8141 129.808 56.2485 130.783C55.6828 131.755 54.4285 132.088 53.4447 131.527C52.4651 130.966 52.1289 129.722 52.6946 128.747Z" fill="#2E3D4D"/>
<path d="M81.5712 139.003C82.7054 139.003 83.6248 138.091 83.6248 136.966C83.6248 135.842 82.7054 134.93 81.5712 134.93C80.437 134.93 79.5176 135.842 79.5176 136.966C79.5176 138.091 80.437 139.003 81.5712 139.003Z" fill="#2E3D4D"/>
<path d="M106.896 130.78C106.33 129.808 106.666 128.56 107.646 127.999C108.626 127.438 109.884 127.771 110.45 128.743C111.015 129.714 110.679 130.962 109.7 131.523C108.72 132.084 107.461 131.751 106.896 130.78Z" fill="#2E3D4D"/>
<path d="M127.482 111.852C126.502 111.291 126.166 110.047 126.732 109.071C127.297 108.099 128.552 107.766 129.535 108.327C130.515 108.888 130.851 110.132 130.286 111.108C129.72 112.079 128.466 112.413 127.482 111.852Z" fill="#2E3D4D"/>
<path d="M135.768 85.2491C134.637 85.2491 133.715 84.3385 133.715 83.2124C133.715 82.0864 134.633 81.1758 135.768 81.1758C136.904 81.1758 137.822 82.0864 137.822 83.2124C137.822 84.3385 136.904 85.2491 135.768 85.2491Z" fill="#2E3D4D"/>
<path d="M129.535 58.1016C128.556 58.6626 127.297 58.3293 126.732 57.3577C126.166 56.3861 126.502 55.1381 127.482 54.5771C128.462 54.0161 129.72 54.3494 130.286 55.321C130.851 56.2926 130.515 57.5406 129.535 58.1016Z" fill="#2E3D4D"/>
<path d="M110.45 37.6819C109.884 38.6535 108.63 38.9868 107.646 38.4258C106.666 37.8648 106.33 36.6209 106.896 35.6452C107.461 34.6737 108.716 34.3403 109.7 34.9013C110.683 35.4623 111.015 36.7063 110.45 37.6819Z" fill="#2E3D4D"/>
<path d="M118.11 90.649C122.824 70.6887 110.329 50.7184 90.2021 46.0441C70.0755 41.3698 49.9387 53.7615 45.2255 73.7219C40.5123 93.6822 53.0073 113.653 73.1339 118.327C93.2605 123.001 113.397 110.609 118.11 90.649Z" fill="#2E3D4D"/>
<path d="M94.1271 26.5603C95.4093 25.2887 95.4093 23.227 94.1271 21.9553C92.8449 20.6837 90.766 20.6837 89.4838 21.9553C88.2016 23.227 88.2016 25.2887 89.4838 26.5603C90.766 27.8319 92.8449 27.8319 94.1271 26.5603Z" fill="#FF764D"/>
<path d="M29.834 100.941C29.834 103.908 27.4073 106.315 24.415 106.315C21.4227 106.315 18.9961 103.908 18.9961 100.941C18.9961 97.973 21.4227 95.5664 24.415 95.5664C27.4073 95.5664 29.834 97.973 29.834 100.941Z" fill="#FFDF80"/>
<path d="M141.001 93.1772C141.001 95.5146 139.091 97.409 136.734 97.409C134.377 97.409 132.467 95.5146 132.467 93.1772C132.467 90.8397 134.377 88.9453 136.734 88.9453C139.091 88.9453 141.001 90.8397 141.001 93.1772Z" fill="#91EAF2"/>
<path d="M92.1269 89.8409C89.0608 88.1051 88.4336 85.1619 88.4008 83.1659C88.4336 81.1699 89.0608 78.2267 92.1269 76.4908C97.0867 73.6777 106.301 73.3281 111.97 64.1896C117.639 55.0511 115.512 43.1035 115.512 43.1035H48.5786C48.5786 43.1035 46.4512 55.0511 52.1201 64.1896C57.7891 73.3281 67.0038 73.6777 71.9636 76.4908C75.0297 78.2267 75.6569 81.1699 75.6897 83.1659C75.6569 85.1619 75.0297 88.1051 71.9636 89.8409C67.0038 92.654 57.7891 93.0036 52.1201 102.142C46.4512 111.281 48.5786 123.228 48.5786 123.228H115.512C115.512 123.228 117.639 111.281 111.97 102.142C106.301 93.0077 97.0867 92.654 92.1269 89.8409Z" fill="#91EAF2"/>
<path d="M92.0491 76.4869C97.009 73.6738 106.224 73.3242 111.893 64.1857C117.562 55.0472 115.434 43.0996 115.434 43.0996H81.9941V123.22H115.434C115.434 123.22 117.562 111.273 111.893 102.134C106.224 92.9997 97.009 92.646 92.0491 89.8329C88.983 88.0971 88.3559 85.1539 88.3231 83.1579C88.3559 81.1619 88.983 78.2187 92.0491 76.4829V76.4869Z" fill="#73D2E6"/>
<path d="M76.3085 75.6039C78.5261 77.0633 78.9811 80.2545 79.0057 81.9334C78.9811 83.6123 78.5261 88.641 76.3085 90.1044H87.7941C85.7609 88.4621 85.3264 83.5595 85.3059 81.9334C85.3305 80.2545 85.7855 77.0674 88.0031 75.6039C91.5939 73.2421 98.6934 73.2827 105.379 65.9776C105.891 65.4166 106.039 46.668 106.297 45.9688H50.3984C50.4886 46.2289 50.5296 50.9811 51.2797 54.5341C52.7349 61.4042 54.3048 62.9124 57.1496 66.0467C63.1096 72.6119 72.7137 73.2421 76.3044 75.6039H76.3085Z" fill="#FFDF80"/>
<path d="M82.0195 90.1053H87.8279C85.7907 88.4629 85.3603 83.5603 85.3398 81.9342C85.3644 80.2553 85.7333 76.93 88.0369 75.6048C91.7261 73.4868 98.7764 72.3485 106.073 66.7467C110.291 63.5068 111.84 59.2749 113.017 52.3885C113.144 51.6405 113.369 48.5185 113.369 45.998H82.0195V90.1012V90.1053Z" fill="#F2B63D"/>
<path d="M88.4212 92.3405C88.4212 95.7715 85.6175 98.5562 82.1579 98.5562C78.6983 98.5562 75.8945 95.7756 75.8945 92.3405C75.8945 88.9054 78.6983 86.1289 82.1579 86.1289C85.6175 86.1289 88.4212 88.9095 88.4212 92.3405Z" fill="#F2B63D"/>
<path d="M86.7487 92.3403C86.7487 94.8566 84.6909 96.8973 82.1536 96.8973C79.6163 96.8973 77.5586 94.8566 77.5586 92.3403C77.5586 89.8239 79.6163 87.7832 82.1536 87.7832C84.6909 87.7832 86.7487 89.8239 86.7487 92.3403Z" fill="#FFDF80"/>
<path d="M88.4212 106.509C88.4212 109.94 85.6175 112.72 82.1579 112.72C78.6983 112.72 75.8945 109.94 75.8945 106.509C75.8945 103.078 78.6983 100.293 82.1579 100.293C85.6175 100.293 88.4212 103.074 88.4212 106.509Z" fill="#F2B63D"/>
<path d="M86.7487 106.508C86.7487 109.025 84.6909 111.065 82.1536 111.065C79.6163 111.065 77.5586 109.025 77.5586 106.508C77.5586 103.992 79.6163 101.951 82.1536 101.951C84.6909 101.951 86.7487 103.992 86.7487 106.508Z" fill="#FFDF80"/>
<path d="M72.7218 93.8699C75.7182 95.5854 76.743 99.3863 75.0132 102.358C73.2834 105.33 69.4508 106.35 66.4544 104.634C63.458 102.919 62.4332 99.118 64.163 96.1464C65.8928 93.1747 69.7254 92.1543 72.7218 93.8699Z" fill="#F2B63D"/>
<path d="M71.8852 95.3056C74.0823 96.5658 74.8365 99.3505 73.5658 101.529C72.2951 103.708 69.4873 104.456 67.2902 103.196C65.0931 101.94 64.3389 99.1513 65.6096 96.9724C66.8762 94.7934 69.6881 94.0454 71.8852 95.3056Z" fill="#FFDF80"/>
<path d="M66.2044 108.117C69.2008 106.401 73.0334 107.418 74.7632 110.389C76.493 113.361 75.4682 117.162 72.4718 118.878C69.4754 120.593 65.6428 119.577 63.913 116.605C62.1832 113.633 63.208 109.832 66.2044 108.117Z" fill="#F2B63D"/>
<path d="M67.0403 109.552C69.2374 108.292 72.0493 109.04 73.3159 111.218C74.5867 113.397 73.8324 116.182 71.6353 117.442C69.4382 118.702 66.6263 117.954 65.3597 115.776C64.0931 113.597 64.8432 110.808 67.0403 109.552Z" fill="#FFDF80"/>
<path d="M75.3906 120.837C75.3906 117.406 78.1944 114.621 81.654 114.621C85.1136 114.621 87.9173 117.402 87.9173 120.837C87.9173 124.272 85.1136 127.048 81.654 127.048C78.1944 127.048 75.3906 124.268 75.3906 120.837Z" fill="#F2B63D"/>
<path d="M77.0586 120.836C77.0586 118.32 79.1163 116.279 81.6536 116.279C84.1909 116.279 86.2487 118.32 86.2487 120.836C86.2487 123.353 84.1909 125.393 81.6536 125.393C79.1163 125.393 77.0586 123.353 77.0586 120.836Z" fill="#FFDF80"/>
<path d="M91.0909 119.308C88.0945 117.593 87.0657 113.792 88.7996 110.82C90.5294 107.849 94.362 106.828 97.3584 108.544C100.355 110.259 101.384 114.06 99.6498 117.032C97.92 120.003 94.0873 121.024 91.0909 119.308Z" fill="#F2B63D"/>
<path d="M91.9269 117.874C89.7298 116.618 88.9756 113.829 90.2463 111.65C91.5129 109.471 94.3248 108.723 96.5219 109.983C98.719 111.244 99.4732 114.028 98.2025 116.207C96.9359 118.386 94.124 119.134 91.9269 117.874Z" fill="#FFDF80"/>
<path d="M83.9081 121.887C83.9081 122.366 83.7319 122.749 83.3835 123.041C83.035 123.33 82.5473 123.505 81.9201 123.562V124.488H81.297V123.582C80.5551 123.566 79.9075 123.44 79.35 123.196V122.005C79.6123 122.135 79.9321 122.249 80.301 122.346C80.674 122.444 81.0019 122.505 81.2929 122.521V121.123L80.9896 121.005C80.3911 120.769 79.9648 120.517 79.7148 120.24C79.4648 119.964 79.3418 119.627 79.3418 119.22C79.3418 118.785 79.514 118.423 79.8583 118.143C80.2026 117.862 80.6822 117.692 81.297 117.631V116.939H81.9201V117.61C82.6128 117.639 83.24 117.781 83.8016 118.025L83.3753 119.082C82.9039 118.891 82.4161 118.773 81.9201 118.728V120.057C82.5104 120.281 82.9326 120.48 83.1826 120.643C83.4326 120.81 83.6171 120.988 83.7319 121.188C83.8507 121.387 83.9081 121.618 83.9081 121.883V121.887ZM80.7109 119.216C80.7109 119.346 80.756 119.456 80.8502 119.541C80.9445 119.627 81.0921 119.716 81.297 119.805V118.744C80.9076 118.801 80.7109 118.96 80.7109 119.212V119.216ZM82.5391 121.956C82.5391 121.83 82.4858 121.724 82.3833 121.635C82.2808 121.549 82.125 121.456 81.9201 121.362V122.484C82.3341 122.415 82.5391 122.236 82.5391 121.952V121.956Z" fill="#F2B63D"/>
<path d="M97.6085 105.06C94.6121 106.776 90.7795 105.755 89.0497 102.784C87.3199 99.8121 88.3447 96.0111 91.3411 94.2956C94.3375 92.5801 98.1701 93.6005 99.8999 96.5721C101.63 99.5438 100.605 103.345 97.6085 105.06Z" fill="#F2B63D"/>
<path d="M96.7719 103.626C94.5748 104.882 91.7629 104.138 90.4963 101.959C89.2256 99.7802 89.9798 96.9915 92.1769 95.7353C94.374 94.4751 97.1859 95.2231 98.4525 97.402C99.7232 99.581 98.969 102.37 96.7719 103.626Z" fill="#FFDF80"/>
<path d="M118.915 33.1191H44.2344V43.5585H118.915V33.1191Z" fill="#FF764D"/>
<path d="M118.915 33.1191H44.2344V40.5747H118.915V33.1191Z" fill="#FF916E"/>
<path d="M118.915 33.2734H44.2344V36.6638H118.915V33.2734Z" fill="#FFA694"/>
<path d="M118.915 122.764H44.2344V133.203H118.915V122.764Z" fill="#FF764D"/>
<path d="M118.915 125.748H44.2344V133.204H118.915V125.748Z" fill="#FF916E"/>
<path d="M84.5976 93.3051C84.5976 93.7848 84.4254 94.1669 84.0729 94.4555C83.7245 94.7441 83.2367 94.9189 82.6095 94.9759V95.9027H81.9865V94.9962C81.2446 94.9799 80.5969 94.8498 80.0394 94.6059V93.4148C80.3018 93.5449 80.6215 93.6587 80.9904 93.7563C81.3634 93.8539 81.6914 93.9148 81.9824 93.9311V92.5327L81.6791 92.4148C81.0806 92.179 80.6543 91.927 80.4043 91.6505C80.1542 91.3741 80.0312 91.0367 80.0312 90.6302C80.0312 90.1952 80.2034 89.8334 80.5477 89.5529C80.892 89.2724 81.3716 89.1017 81.9865 89.0407V88.3496H82.6095V89.0204C83.3023 89.0488 83.9294 89.187 84.491 89.435L84.0647 90.492C83.5933 90.3009 83.1055 90.183 82.6095 90.1383V91.4676C83.1998 91.6912 83.622 91.8904 83.8721 92.053C84.1221 92.2197 84.3066 92.4026 84.4213 92.5977C84.5402 92.7969 84.5976 93.0286 84.5976 93.2929V93.3051ZM81.4003 90.6342C81.4003 90.7643 81.4454 90.8741 81.5397 90.9595C81.634 91.0448 81.7815 91.1343 81.9865 91.2237V90.1627C81.5971 90.2196 81.4003 90.3781 81.4003 90.6302V90.6342ZM83.2285 93.3742C83.2285 93.2482 83.1793 93.1425 83.0727 93.053C82.9703 92.9677 82.8145 92.8742 82.6095 92.7807V93.9026C83.0195 93.8335 83.2285 93.6547 83.2285 93.3701V93.3742Z" fill="#F2B63D"/>
<path d="M71.9394 100.264C71.9394 100.744 71.7631 101.126 71.4147 101.418C71.0663 101.707 70.5785 101.882 69.9513 101.939V102.862H69.3283V101.955C68.5864 101.939 67.9387 101.813 67.3812 101.569V100.378C67.6436 100.508 67.9633 100.622 68.3322 100.719C68.7052 100.817 69.0332 100.878 69.3242 100.894V99.4956L69.0209 99.3777C68.4224 99.1419 67.9961 98.8899 67.7461 98.6134C67.496 98.337 67.373 97.9996 67.373 97.5931C67.373 97.1581 67.5452 96.8004 67.8895 96.5158C68.2338 96.2353 68.7134 96.0646 69.3283 96.0036V95.3125H69.9513V95.9833C70.6441 96.0117 71.2712 96.1499 71.8328 96.3979L71.4065 97.4549C70.9351 97.2638 70.4473 97.1459 69.9513 97.1012V98.4305C70.5416 98.6541 70.9638 98.8533 71.2139 99.0159C71.4639 99.1826 71.6484 99.3614 71.7631 99.5606C71.882 99.7598 71.9394 99.9915 71.9394 100.256V100.264ZM68.7421 97.5931C68.7421 97.7232 68.7872 97.8329 68.8815 97.9183C68.9758 98.0037 69.1233 98.0931 69.3283 98.1825V97.1215C68.9389 97.1784 68.7421 97.337 68.7421 97.5931ZM70.5703 100.333C70.5703 100.207 70.5211 100.101 70.4145 100.012C70.3121 99.9265 70.1563 99.833 69.9513 99.7395V100.861C70.3654 100.792 70.5703 100.613 70.5703 100.329V100.333Z" fill="#F2B63D"/>
<path d="M84.4706 107.719C84.4706 108.199 84.2985 108.581 83.946 108.869C83.5975 109.158 83.1098 109.333 82.4826 109.39V110.316H81.8595V109.41C81.1176 109.394 80.47 109.264 79.9125 109.024V107.833C80.1748 107.963 80.4946 108.077 80.8635 108.174C81.2365 108.276 81.5644 108.333 81.8554 108.349V106.95L81.5521 106.833C80.9537 106.597 80.5274 106.341 80.2773 106.068C80.0273 105.792 79.9043 105.455 79.9043 105.048C79.9043 104.613 80.0765 104.255 80.4208 103.975C80.7651 103.694 81.2447 103.524 81.8595 103.463V102.771H82.4826V103.442C83.1753 103.471 83.8025 103.609 84.3641 103.857L83.9378 104.914C83.4664 104.723 82.9786 104.605 82.4826 104.56V105.889C83.0729 106.117 83.4951 106.312 83.7451 106.475C83.9951 106.642 84.1796 106.82 84.2944 107.02C84.4132 107.219 84.4706 107.451 84.4706 107.715V107.719ZM81.2734 105.048C81.2734 105.182 81.3185 105.288 81.4127 105.373C81.507 105.459 81.6546 105.548 81.8595 105.637V104.576C81.4701 104.633 81.2734 104.792 81.2734 105.044V105.048ZM83.1016 107.788C83.1016 107.662 83.0524 107.556 82.9458 107.467C82.8433 107.381 82.6875 107.288 82.4826 107.194V108.316C82.8925 108.247 83.1016 108.068 83.1016 107.784V107.788Z" fill="#F2B63D"/>
<path d="M96.9394 100.76C96.9394 101.24 96.7672 101.622 96.4147 101.914C96.0663 102.203 95.5785 102.378 94.9513 102.435V103.358H94.3283V102.451C93.5864 102.435 92.9387 102.309 92.3812 102.065V100.874C92.6436 101.004 92.9633 101.118 93.3363 101.215C93.7093 101.313 94.0373 101.374 94.3283 101.39V99.9917L94.025 99.8738C93.4265 99.638 93.0002 99.386 92.7502 99.1095C92.5001 98.8331 92.373 98.4957 92.373 98.0892C92.373 97.6542 92.5452 97.2924 92.8895 97.0119C93.2338 96.7314 93.7134 96.5607 94.3283 96.4997V95.8086H94.9513V96.4793C95.6441 96.5078 96.2712 96.646 96.8328 96.894L96.4065 97.9509C95.9351 97.7599 95.4473 97.642 94.9513 97.5973V98.9266C95.5416 99.1502 95.9638 99.3494 96.2139 99.512C96.4639 99.6786 96.6484 99.8575 96.7631 100.057C96.882 100.256 96.9394 100.488 96.9394 100.752V100.76ZM93.7421 98.0932C93.7421 98.2233 93.7872 98.3331 93.8815 98.4184C93.9758 98.5038 94.1233 98.5932 94.3283 98.6827V97.6217C93.9389 97.6786 93.7421 97.8371 93.7421 98.0932ZM95.5703 100.829C95.5703 100.703 95.5211 100.597 95.4145 100.508C95.3121 100.423 95.1563 100.329 94.9513 100.236V101.358C95.3613 101.288 95.5703 101.11 95.5703 100.825V100.829Z" fill="#F2B63D"/>
<path d="M96.6247 115.113C96.6247 115.593 96.4485 115.975 96.1001 116.268C95.7516 116.557 95.2639 116.731 94.6367 116.788V117.715H94.0136V116.809C93.2717 116.792 92.6241 116.662 92.0666 116.418V115.227C92.3289 115.357 92.6487 115.471 93.0217 115.569C93.3906 115.666 93.7226 115.727 94.0136 115.744V114.345L93.7103 114.227C93.1119 113.992 92.6856 113.739 92.4355 113.463C92.1855 113.187 92.0625 112.849 92.0625 112.443C92.0625 112.008 92.2347 111.65 92.579 111.365C92.9233 111.085 93.4029 110.914 94.0177 110.853V110.162H94.6408V110.833C95.3335 110.861 95.9607 111.004 96.5223 111.248L96.096 112.304C95.6246 112.113 95.1368 111.996 94.6408 111.951V113.28C95.2311 113.504 95.6533 113.703 95.9033 113.865C96.1533 114.032 96.3378 114.215 96.4526 114.41C96.5715 114.609 96.6288 114.841 96.6288 115.105L96.6247 115.113ZM93.4275 112.443C93.4275 112.573 93.4726 112.683 93.5669 112.768C93.6611 112.853 93.8087 112.943 94.0136 113.032V111.971C93.6242 112.028 93.4275 112.187 93.4275 112.439V112.443ZM95.2557 115.183C95.2557 115.057 95.2024 114.951 95.0999 114.861C94.9974 114.776 94.8417 114.683 94.6367 114.589V115.711C95.0507 115.642 95.2557 115.463 95.2557 115.179V115.183Z" fill="#F2B63D"/>
<path d="M71.5661 114.553C71.5661 115.033 71.394 115.415 71.0456 115.707C70.6971 115.996 70.2094 116.171 69.5822 116.228V117.151H68.9592V116.244C68.2172 116.228 67.5696 116.102 67.0121 115.858V114.667C67.2744 114.797 67.5942 114.911 67.9631 115.008C68.3361 115.106 68.664 115.167 68.9551 115.183V113.785L68.6517 113.667C68.0533 113.431 67.627 113.179 67.3769 112.902C67.1269 112.626 67.0039 112.289 67.0039 111.882C67.0039 111.447 67.1761 111.089 67.5204 110.805C67.8647 110.524 68.3443 110.354 68.9592 110.293V109.602H69.5822V110.272C70.2749 110.301 70.9021 110.439 71.4637 110.687L71.0374 111.744C70.566 111.553 70.0782 111.435 69.5822 111.39V112.72C70.1725 112.943 70.5947 113.142 70.8447 113.305C71.0948 113.472 71.2792 113.65 71.394 113.85C71.5129 114.049 71.5702 114.281 71.5702 114.545L71.5661 114.553ZM68.3689 111.886C68.3689 112.016 68.414 112.126 68.5083 112.211C68.6025 112.297 68.7501 112.386 68.9551 112.476V111.415C68.5656 111.472 68.3689 111.63 68.3689 111.886ZM70.1971 114.622C70.1971 114.496 70.1479 114.39 70.0413 114.301C69.9388 114.216 69.7831 114.122 69.5781 114.029V115.151C69.9921 115.081 70.1971 114.903 70.1971 114.618V114.622Z" fill="#F2B63D"/>
<path d="M63.7121 50.1758H59.2031V60.8631H63.7121V50.1758Z" fill="white"/>
<path d="M83.3272 34.6758H51.248V36.6637H83.3272V34.6758Z" fill="white"/>
<path d="M87.1455 73.3832C94.1208 70.4483 97.3763 62.4612 94.4169 55.5436C91.4575 48.626 83.4039 45.3974 76.4286 48.3323C69.4534 51.2673 66.1979 59.2543 69.1573 66.1719C72.1167 73.0896 80.1703 76.3182 87.1455 73.3832Z" fill="#FF764D"/>
<path d="M94.7746 62.9315C95.9266 55.8225 91.0495 49.1334 83.8813 47.9909C76.7132 46.8484 69.9684 51.6852 68.8164 58.7942C67.6644 65.9031 72.5414 72.5922 79.7096 73.7347C86.8777 74.8772 93.6226 70.0404 94.7746 62.9315Z" fill="#FF916E"/>
<path d="M93.6316 60.8556C93.6316 67.3396 88.3315 72.5999 81.7894 72.5999C75.2473 72.5999 69.9473 67.3437 69.9473 60.8556C69.9473 54.3676 75.2473 49.1113 81.7894 49.1113C88.3315 49.1113 93.6316 54.3676 93.6316 60.8556Z" fill="#FF764D"/>
<path d="M92.8856 60.856C92.8856 66.9335 87.9176 71.8605 81.7895 71.8605C75.6614 71.8605 70.6934 66.9335 70.6934 60.856C70.6934 54.7786 75.6614 49.8516 81.7895 49.8516C87.9176 49.8516 92.8856 54.7786 92.8856 60.856Z" fill="#2E3D4D"/>
<path d="M81.789 61.7126L76.5586 58.7206L77.0464 57.8872L81.7931 60.6028L88.6631 56.5254L89.1468 57.3588L81.789 61.7126Z" fill="white"/>
<path d="M83.1187 60.856C83.1187 61.5837 82.5243 62.1691 81.7947 62.1691C81.0651 62.1691 80.4707 61.5796 80.4707 60.856C80.4707 60.1324 81.0651 59.543 81.7947 59.543C82.5243 59.543 83.1187 60.1324 83.1187 60.856Z" fill="#FF764D"/>
<path d="M82.2159 51.6806C82.2159 51.9123 82.0273 52.1034 81.7896 52.1034C81.5518 52.1034 81.3633 51.9164 81.3633 51.6806C81.3633 51.4448 81.5518 51.2578 81.7896 51.2578C82.0273 51.2578 82.2159 51.4448 82.2159 51.6806Z" fill="white"/>
<path d="M77.5341 52.7003C77.653 52.9035 77.5833 53.1596 77.3783 53.2775C77.1734 53.3954 76.9152 53.3263 76.7963 53.1231C76.6774 52.9198 76.7471 52.6637 76.952 52.5458C77.157 52.4279 77.4152 52.497 77.5341 52.7003Z" fill="white"/>
<path d="M73.9925 55.9032C74.1974 56.0211 74.263 56.2772 74.1483 56.4764C74.0335 56.6756 73.7711 56.7488 73.5703 56.6309C73.3694 56.513 73.2957 56.2569 73.4145 56.0577C73.5334 55.8544 73.7916 55.7853 73.9966 55.9032H73.9925Z" fill="white"/>
<path d="M72.5415 60.4336C72.7752 60.4336 72.9678 60.6206 72.9678 60.8564C72.9678 61.0922 72.7793 61.2792 72.5415 61.2792C72.3038 61.2792 72.1152 61.0922 72.1152 60.8564C72.1152 60.6206 72.3038 60.4336 72.5415 60.4336Z" fill="white"/>
<path d="M73.5675 65.079C73.7724 64.9611 74.0307 65.0302 74.1454 65.2335C74.2643 65.4367 74.1946 65.6928 73.9897 65.8107C73.7847 65.9286 73.5265 65.8595 73.4076 65.6563C73.2887 65.453 73.3584 65.1969 73.5634 65.0831L73.5675 65.079Z" fill="white"/>
<path d="M76.7963 68.587C76.9152 68.3837 77.1734 68.3146 77.3783 68.4325C77.5833 68.5504 77.6489 68.8065 77.5341 69.0098C77.4152 69.213 77.157 69.2781 76.952 69.1643C76.7471 69.0464 76.6774 68.7903 76.7963 68.587Z" fill="white"/>
<path d="M81.3672 70.0302C81.3672 69.7985 81.5557 69.6074 81.7935 69.6074C82.0312 69.6074 82.2198 69.7944 82.2198 70.0302C82.2198 70.266 82.0312 70.453 81.7935 70.453C81.5557 70.453 81.3672 70.266 81.3672 70.0302Z" fill="white"/>
<path d="M86.0482 69.0098C85.9294 68.8065 85.999 68.5504 86.204 68.4325C86.4089 68.3146 86.6672 68.3837 86.782 68.587C86.9008 68.7903 86.8311 69.0464 86.6262 69.1643C86.4212 69.2821 86.163 69.213 86.0482 69.0098Z" fill="white"/>
<path d="M89.5907 65.8068C89.3858 65.6889 89.3161 65.4328 89.435 65.2296C89.5538 65.0263 89.8121 64.9572 90.0129 65.0751C90.2179 65.193 90.2835 65.4491 90.1687 65.6483C90.0539 65.8475 89.7916 65.9166 89.5907 65.8028V65.8068Z" fill="white"/>
<path d="M91.0415 61.2733C90.8079 61.2733 90.6152 61.0863 90.6152 60.8505C90.6152 60.6147 90.8038 60.4277 91.0415 60.4277C91.2793 60.4277 91.4678 60.6147 91.4678 60.8505C91.4678 61.0863 91.2793 61.2733 91.0415 61.2733Z" fill="white"/>
<path d="M90.0168 56.6309C89.8119 56.7488 89.5536 56.6797 89.4389 56.4764C89.32 56.2732 89.3897 56.017 89.5946 55.9032C89.7996 55.7853 90.0578 55.8544 90.1726 56.0577C90.2915 56.261 90.2218 56.5171 90.0168 56.6309Z" fill="white"/>
<path d="M86.7821 53.1192C86.6632 53.3224 86.405 53.3915 86.2041 53.2736C85.9992 53.1557 85.9336 52.8996 86.0484 52.6964C86.1672 52.4931 86.4255 52.424 86.6263 52.5419C86.8313 52.6598 86.901 52.9159 86.7821 53.1192Z" fill="white"/>
<path d="M118.915 129.924H44.2344V133.314H118.915V129.924Z" fill="#FFA694"/>
<path d="M96.6125 127.916H49.748V129.904H96.6125V127.916Z" fill="white"/>
</g>
<defs>
<clipPath id="clip0_204_5">
<rect width="122" height="118" fill="white" transform="translate(19 21)"/>
</clipPath>
</defs>
</svg>
