<svg width="160" height="160" viewBox="0 0 160 160" fill="none" xmlns="http://www.w3.org/2000/svg">
<g clip-path="url(#clip0_204_341)">
<g opacity="0.1">
<path d="M137.9 130.777C139.362 131.628 139.37 133.019 137.914 133.871L126.819 140.362C125.367 141.213 122.98 141.213 121.519 140.362L24.5923 84.5584C23.1296 83.7079 23.1221 82.3173 24.5746 81.4669L35.6694 74.9752C37.1253 74.1231 39.5107 74.1231 40.9733 74.9736L137.899 130.777H137.9Z" fill="black"/>
</g>
<path d="M21 81.5623L21.0311 70.4355C21.0294 70.9808 21.3846 71.5269 22.0966 71.9403L22.0655 83.0671C21.3535 82.6537 20.9983 82.1076 21 81.5623Z" fill="#F4F5F5"/>
<path d="M132.703 118.127L132.672 129.254C132.671 129.792 132.321 130.331 131.621 130.74L131.652 119.613C132.352 119.204 132.702 118.665 132.703 118.127Z" fill="#E3E2E2"/>
<path d="M131.652 119.613L131.62 130.739L120.895 137.015L120.926 125.889L131.652 119.613Z" fill="#E3E2E2"/>
<path d="M115.802 125.891L115.771 137.016L22.0664 83.0674L22.0975 71.9414L115.802 125.891Z" fill="#F4F5F5"/>
<path d="M120.926 125.891L120.895 137.017C119.49 137.839 117.183 137.839 115.77 137.017L115.801 125.891C117.215 126.712 119.521 126.712 120.926 125.891Z" fill="#E3E2E2"/>
<path d="M131.638 116.623C133.052 117.445 133.06 118.79 131.652 119.613L120.926 125.889C119.521 126.711 117.214 126.711 115.8 125.889L22.0966 71.9408C20.6827 71.1191 20.6752 69.7741 22.0799 68.9524L32.8061 62.6764C34.2133 61.853 36.5197 61.853 37.9336 62.6747L131.638 116.624V116.623Z" fill="white"/>
<path d="M40.6387 42.2255L51.4572 35.8954C59.6226 31.1173 70.9298 31.7911 83.41 39.0452L72.5914 45.3754C60.1112 38.1204 48.804 37.4475 40.6387 42.2255Z" fill="#E5E5E4"/>
<path d="M72.5898 45.3751L83.4084 39.0449C108.213 53.4636 128.252 88.4138 128.171 117.108L117.353 123.438C117.433 94.744 97.394 59.7937 72.5898 45.3751Z" fill="#E5E5E4"/>
<path d="M72.5905 45.375C97.3947 59.7937 117.434 94.7439 117.353 123.438L83.0758 103.513L76.7055 99.8094L74.3982 98.4686L71.5679 96.8235L68.1842 94.8572L61.8139 91.1536L27.5371 71.2282C27.6177 42.5337 47.7889 30.958 72.5905 45.3759V45.375Z" fill="#61B3DB"/>
<path d="M108.689 117.046C108.545 111.043 107.342 104.732 105.292 98.4825L108.138 98.3329C110.398 105.148 111.733 112.033 111.917 118.593L108.689 117.046ZM36.2071 74.8281L32.9812 72.6242C33.2113 66.2729 34.6067 60.9437 36.9292 56.7743L39.7646 60.226C37.6546 64.0741 36.396 68.9849 36.2071 74.8281ZM77.5712 89.497L90.0539 75.0141C90.1269 74.9313 90.2268 74.9372 90.3259 74.9947C90.5551 75.1282 90.776 75.5374 90.6273 75.7563L79.2412 91.7829C81.5938 95.4104 83.0875 99.6956 83.0766 103.513L61.8131 91.1523C61.8324 84.358 66.609 81.6198 72.4797 85.0318C74.326 86.1054 76.0615 87.6592 77.572 89.497H77.5712ZM104.312 95.6733C101.528 88.1394 97.5475 80.7736 92.7457 74.2372L94.4191 71.9885C99.7121 79.1581 104.095 87.2466 107.154 95.5254L104.312 95.6725V95.6733ZM40.7646 58.5741L37.9333 55.1267C41.0702 50.4222 45.5412 47.4719 50.9173 46.52L52.5722 50.7012C47.6864 51.5956 43.6226 54.2915 40.7637 58.5741H40.7646ZM54.4194 50.4518L52.7678 46.2757C58.3018 45.7786 64.6846 47.2834 71.4873 51.0241L71.4763 54.7683C65.2799 51.375 59.468 50.0097 54.4194 50.4518ZM90.9145 71.8321C85.8281 65.3971 79.9414 59.9022 73.6443 56.0279L73.6552 52.2837C80.5586 56.5123 87.0144 62.5347 92.5862 69.5877L90.9145 71.833V71.8321ZM72.5905 45.3753C47.7889 30.9584 27.6177 42.534 27.5371 71.2277L117.353 123.438C117.434 94.7434 97.3947 59.7932 72.5905 45.3745V45.3753Z" fill="white"/>
<path d="M36.9284 56.7734C34.606 60.9428 33.2105 66.272 32.9805 72.6233L36.2063 74.8272C36.3952 68.984 37.6538 64.0732 39.7638 60.2251L36.9284 56.7734Z" fill="#B8D668"/>
<path d="M50.9176 46.5195C45.5414 47.4714 41.0704 50.4218 37.9336 55.1263L40.7648 58.5737C43.6237 54.291 47.6875 51.5951 52.5733 50.7007L50.9184 46.5195H50.9176Z" fill="#DEE687"/>
<path d="M71.487 51.0242C64.6844 47.2834 58.3024 45.7786 52.7676 46.2757L54.4191 50.4519C59.4686 50.0089 65.2797 51.375 71.4761 54.7683L71.487 51.0242Z" fill="#FDC872"/>
<path d="M73.6554 52.284L73.6445 56.0282C79.9417 59.9025 85.8283 65.3983 90.9148 71.8324L92.5865 69.5871C87.0147 62.5342 80.558 56.5118 73.6554 52.2832V52.284Z" fill="#F79850"/>
<path d="M94.4195 71.9883L92.7461 74.237C97.5479 80.7734 101.529 88.14 104.313 95.6731L107.154 95.526C104.095 87.2464 99.7116 79.1587 94.4195 71.9891V71.9883Z" fill="#EF5E80"/>
<path d="M108.137 98.332L105.291 98.4817C107.341 104.731 108.545 111.042 108.688 117.045L111.916 118.592C111.732 112.032 110.397 105.147 108.137 98.332Z" fill="#ED204C"/>
<path d="M72.4791 85.0327C66.6084 81.6199 61.8318 84.3589 61.8125 91.1532L83.076 103.514C83.0869 99.6965 81.5932 95.4105 79.2406 91.7838L75.9132 96.468C76.4144 97.5704 76.7091 98.737 76.7058 99.8115L74.3985 98.4707L71.5681 96.8256L68.1844 94.8593C68.192 92.1355 70.1055 91.0382 72.4598 92.406C73.0047 92.723 73.5253 93.144 74.003 93.6377L77.5706 89.4988C76.0601 87.6609 74.3254 86.1071 72.4783 85.0335L72.4791 85.0327Z" fill="#EAEAE9"/>
<path d="M90.3262 74.9942C90.2271 74.9367 90.1272 74.9308 90.0542 75.0136L77.5715 89.4966L74.0039 93.6355C74.7764 94.4335 75.438 95.4209 75.9132 96.4658L79.2406 91.7816L90.6268 75.755C90.7754 75.5369 90.5546 75.1269 90.3254 74.9934L90.3262 74.9942Z" fill="#69C1ED"/>
<path d="M72.4609 92.4034C70.1066 91.0347 68.1931 92.1328 68.1855 94.8566L71.5692 96.823L74.3996 98.4681L76.7069 99.8088C76.7103 98.7343 76.4156 97.5677 75.9143 96.4654C75.4391 95.4205 74.7774 94.4322 74.005 93.6351C73.5264 93.1414 73.0058 92.7195 72.4618 92.4034H72.4609Z" fill="#61B3DB"/>
<path d="M22.6426 57.7625L24.5158 56.666L25.8357 57.4649L23.9625 58.5605L22.6426 57.7625Z" fill="#B9D08A"/>
<path d="M23.9628 58.5613L25.836 57.4648C25.8259 57.8901 25.8217 58.3178 25.8209 58.7498C25.8192 59.3272 25.8226 59.8091 25.8335 60.2656L23.9603 61.3612C23.9494 60.9047 23.946 60.4228 23.9477 59.8454C23.9485 59.4134 23.9536 58.9857 23.9628 58.5604V58.5613Z" fill="#AFC482"/>
<path d="M22.6432 57.7617L23.9631 58.5606C23.953 58.9858 23.9488 59.4136 23.948 59.8456C23.9463 60.423 23.9496 60.9048 23.9606 61.3613L22.6398 60.6368C22.6314 60.166 22.6256 59.6689 22.6272 59.078C22.6281 58.6358 22.6348 58.1971 22.6432 57.7617Z" fill="#C6DF95"/>
<path d="M114.633 62.659L116.506 61.5625C117.786 63.5449 119.032 65.5915 120.211 67.6433L118.338 68.7397C117.159 66.688 115.912 64.6413 114.633 62.659Z" fill="#CDDEA7"/>
<path d="M114.633 62.659C115.913 64.6414 117.16 66.6881 118.338 68.7398L117.402 69.2766C116.252 67.2748 115.034 65.2772 113.785 63.3413L114.633 62.6582V62.659Z" fill="#C6DF95"/>
<path d="M106.387 51.2429L108.26 50.1465C109.71 51.9412 111.141 53.8146 112.512 55.7158L110.639 56.8122C109.267 54.9118 107.837 53.0377 106.387 51.2429Z" fill="#CDDEA7"/>
<path d="M110.638 56.8113L112.511 55.7148L111.758 56.5332L109.885 57.6296L110.638 56.8113Z" fill="#B9D08A"/>
<path d="M105.732 52.1915L106.386 51.2422C107.837 53.0369 109.267 54.9103 110.638 56.8115L109.885 57.6298C108.546 55.7759 107.149 53.9448 105.732 52.1915Z" fill="#C6DF95"/>
<path d="M97.2441 41.1218L99.1173 40.0254C100.693 41.5792 102.263 43.2184 103.783 44.9007L101.91 45.9971C100.39 44.3148 98.821 42.6756 97.2441 41.1218Z" fill="#CDDEA7"/>
<path d="M101.91 45.9979L103.783 44.9023L103.235 45.9751L101.361 47.0716L101.91 45.9979Z" fill="#B9D08A"/>
<path d="M96.8066 42.3131L97.2432 41.1211C98.8192 42.6749 100.389 44.3141 101.909 45.9964L101.361 47.07C99.878 45.4291 98.3448 43.828 96.8075 42.3131H96.8066Z" fill="#C6DF95"/>
<path d="M87.5 32.6405L89.3732 31.5449C91.0247 32.802 92.6838 34.1554 94.301 35.5638L92.4278 36.6603C90.8098 35.2519 89.1515 33.8984 87.5 32.6414V32.6405Z" fill="#CDDEA7"/>
<path d="M92.4287 36.6589L94.3019 35.5625L93.9787 36.8576L92.1055 37.9532L92.4287 36.6589Z" fill="#B9D08A"/>
<path d="M87.2919 34.0304L87.4992 32.6406C89.1508 33.8977 90.8099 35.2511 92.427 36.6595L92.1037 37.9546C90.5252 36.5809 88.9056 35.2596 87.291 34.0304H87.2919Z" fill="#C6DF95"/>
<path d="M77.4727 26.0565L79.3459 24.9609C79.7522 25.1867 80.1637 25.4183 80.5675 25.6533L78.6943 26.7497C78.2905 26.5147 77.879 26.2831 77.4727 26.0574V26.0565Z" fill="#CDDEA7"/>
<path d="M82.4992 29.0964L84.3724 28L84.2834 29.476L82.4102 30.5725L82.4992 29.0964Z" fill="#B9D08A"/>
<path d="M78.6953 26.7488L80.5685 25.6523C80.6147 25.6794 80.6617 25.7064 80.7079 25.7335C81.9279 26.4428 83.1613 27.2053 84.3729 27.9999L82.4997 29.0964C81.2881 28.3017 80.0547 27.5392 78.8347 26.8299C78.7885 26.8029 78.7423 26.7758 78.6962 26.7488H78.6953Z" fill="#CDDEA7"/>
<path d="M78.6943 26.749C78.7405 26.7761 78.7875 26.8031 78.8328 26.8302C80.0528 27.5394 81.2862 28.302 82.4978 29.0966L82.4088 30.5726C81.2249 29.794 80.0201 29.0501 78.827 28.3569L78.8051 28.3442C78.3727 28.0923 77.9328 27.8429 77.5004 27.6028L77.4727 26.0566C77.879 26.2824 78.2904 26.514 78.6943 26.749Z" fill="#C6DF95"/>
<path d="M67.4883 21.5672L69.3615 20.4707C70.9971 21.032 72.6688 21.6956 74.3295 22.4421L72.4563 23.5386C70.7964 22.7913 69.1239 22.1285 67.4883 21.5672Z" fill="#CDDEA7"/>
<path d="M72.457 23.539L74.3302 22.4434L74.4755 24.047L72.6023 25.1435L72.457 23.539Z" fill="#B9D08A"/>
<path d="M67.4883 21.5664C69.1239 22.1277 70.7956 22.7914 72.4563 23.5378L72.6016 25.1423C70.9786 24.4111 69.3472 23.7635 67.7511 23.2174L67.4891 21.5664H67.4883Z" fill="#C6DF95"/>
<path d="M57.8633 19.3358L59.7365 18.2402C61.2881 18.4161 62.8851 18.6934 64.4846 19.0653L62.6114 20.1618C61.011 19.7898 59.4141 19.5125 57.8633 19.3367V19.3358Z" fill="#CDDEA7"/>
<path d="M62.6094 20.1601L64.4826 19.0645L64.8604 20.7484L62.9872 21.8449L62.6094 20.1601Z" fill="#B9D08A"/>
<path d="M57.8622 19.3368C59.4138 19.5126 61.0108 19.7899 62.6102 20.1619L62.9881 21.8458C61.4255 21.4823 59.8655 21.211 58.3517 21.0385L57.8613 19.3359L57.8622 19.3368Z" fill="#C6DF95"/>
<path d="M48.9082 19.4433L50.7814 18.3477C52.1962 18.1355 53.668 18.0197 55.1559 18.002L53.2826 19.0984C51.7957 19.117 50.323 19.232 48.9082 19.4442V19.4433Z" fill="#CDDEA7"/>
<path d="M53.2812 19.0964L55.1545 18L55.7531 19.7085L53.8799 20.8049L53.2812 19.0964Z" fill="#B9D08A"/>
<path d="M48.9082 19.4415C50.323 19.2293 51.7948 19.1135 53.2826 19.0957L53.8813 20.8042C52.4296 20.822 50.9913 20.9352 49.6093 21.1423L48.909 19.4415H48.9082Z" fill="#C6DF95"/>
<path d="M40.9102 21.8696L42.7834 20.774C44.0193 20.1831 45.3173 19.6767 46.6456 19.2734L44.7724 20.3699C43.4441 20.774 42.1461 21.2795 40.9102 21.8704V21.8696Z" fill="#CDDEA7"/>
<path d="M44.7715 20.3679L46.6447 19.2715L47.444 20.9512L45.5708 22.0477L44.7715 20.3679Z" fill="#B9D08A"/>
<path d="M40.9102 21.8677C42.1461 21.2768 43.4441 20.7704 44.7724 20.3672L45.5718 22.0469C44.2754 22.4417 43.0059 22.9346 41.7993 23.512L40.9102 21.8677Z" fill="#C6DF95"/>
<path d="M26.666 37.371L28.5392 36.2754L29.7642 37.5536L27.891 38.6492L26.666 37.371Z" fill="#B9D08A"/>
<path d="M27.8909 38.6492L29.7641 37.5527C29.1537 38.9535 28.6071 40.4448 28.1369 41.9808L26.2637 43.0764C26.7339 41.5404 27.2805 40.0491 27.8909 38.6483V38.6492Z" fill="#AFC482"/>
<path d="M25 41.9065C25.4819 40.3324 26.042 38.8074 26.6667 37.3711L27.8917 38.6493C27.2813 40.0501 26.7347 41.5413 26.2645 43.0774L25 41.9057V41.9065Z" fill="#C6DF95"/>
<path d="M31.248 29.6522L33.1212 28.5566L34.2371 30.0174L32.3639 31.113L31.248 29.6522Z" fill="#B9D08A"/>
<path d="M32.364 31.1121L34.2372 30.0156C33.3674 31.1129 32.5479 32.3024 31.8048 33.5535L29.9316 34.65C30.6747 33.3988 31.4942 32.2094 32.364 31.1121Z" fill="#AFC482"/>
<path d="M28.7559 33.2756C29.5174 31.994 30.3553 30.7742 31.2479 29.6523L32.3637 31.1131C31.4939 32.2104 30.6744 33.3999 29.9313 34.651L28.7559 33.2756Z" fill="#C6DF95"/>
<path d="M37.3496 23.9285L39.2228 22.832L40.1959 24.4281L38.3227 25.5245L37.3496 23.9285Z" fill="#B9D08A"/>
<path d="M38.3233 25.5242L40.1965 24.4277C39.0932 25.1843 38.0319 26.0382 37.0412 26.9672L35.168 28.0637C36.1579 27.1355 37.2192 26.2808 38.3233 25.5242Z" fill="#AFC482"/>
<path d="M34.1191 26.5298C35.1334 25.5779 36.2199 24.7029 37.3492 23.9277L38.3223 25.5238C37.219 26.2804 36.1577 27.1342 35.167 28.0633L34.1191 26.5298Z" fill="#C6DF95"/>
<path d="M23.7695 46.8456L25.6427 45.75L26.9349 46.8016L25.0617 47.8981L23.7695 46.8456Z" fill="#B9D08A"/>
<path d="M25.0604 47.8983L26.9336 46.8027C26.6078 48.4639 26.3492 50.2054 26.1662 51.9781L24.293 53.0746C24.476 51.301 24.7346 49.5595 25.0604 47.8992V47.8983Z" fill="#AFC482"/>
<path d="M22.9824 52.1437C23.1697 50.3295 23.4341 48.5441 23.7692 46.8457L25.0613 47.8973C24.7356 49.5585 24.477 51.3 24.2939 53.0727L22.9824 52.1437Z" fill="#C6DF95"/>
<path d="M120.768 80.7753L122.641 79.6797L127.528 83.286L125.656 84.3816L120.768 80.7753Z" fill="#B9D08A"/>
<path d="M120.729 75.429L122.602 74.3334L123.616 73.9395L121.743 75.0359L120.729 75.429Z" fill="#B9D08A"/>
<path d="M121.742 75.0359L123.615 73.9395C124.143 74.9793 124.662 76.036 125.159 77.08L123.285 78.1765C122.788 77.1324 122.27 76.0757 121.742 75.0359Z" fill="#CDDEA7"/>
<path d="M121.742 75.0352C122.269 76.075 122.788 77.1317 123.285 78.1757L122.234 78.4927C121.749 77.4732 121.242 76.441 120.729 75.4291L121.743 75.0352H121.742Z" fill="#C6DF95"/>
<path d="M127.989 79.7284L129.862 78.6328L128.59 85.6131L126.717 86.7095L127.989 79.7284Z" fill="#B9D08A"/>
<path d="M126.691 78.6913L128.565 77.5957L129.862 78.633L127.989 79.7286L126.691 78.6913Z" fill="#CDDEA7"/>
<path d="M126.691 78.6914L127.988 79.7287L126.716 86.7098L120.586 82.1845L120.767 80.7753L125.656 84.3816L126.691 78.6914Z" fill="#C6DF95"/>
<path opacity="0.1" d="M89.8681 129.069C91.8458 129.069 93.4491 128.304 93.4491 127.361C93.4491 126.417 91.8458 125.652 89.8681 125.652C87.8904 125.652 86.2871 126.417 86.2871 127.361C86.2871 128.304 87.8904 129.069 89.8681 129.069Z" fill="black"/>
<path d="M89.0956 108.454C89.0956 108.454 89.1695 109.241 90.2752 109.003C90.2752 109.003 90.6438 107.652 90.3634 106.791C90.3634 106.791 89.4046 106.361 89.0947 106.791C88.7849 107.221 89.0947 108.454 89.0947 108.454H89.0956Z" fill="#FAC2B0"/>
<path d="M87.8496 109.373L88.1771 108.404L89.2115 108.361L89.8143 108.778C89.8143 108.778 89.2912 109.096 89.1309 110.016L87.8496 109.373Z" fill="#FAC2B0"/>
<path d="M88.0864 108.708C88.0864 108.708 88.8387 108.922 89.1897 108.708C89.5406 108.494 89.6951 107.736 89.9798 107.939C89.9798 107.939 90.0914 107.794 89.9798 107.47C89.8681 107.146 89.9134 106.944 90.0805 106.933C90.2468 106.921 90.5801 106.869 90.5801 106.406C90.5801 106.406 90.214 106.491 89.7379 106.281C89.5054 106.178 88.7816 105.984 88.5457 106.192C88.3097 106.4 88.2812 106.643 88.293 106.788C88.293 106.788 88.057 106.863 88.0117 107.181C87.9655 107.499 88.0176 108.245 88.0864 108.709V108.708Z" fill="#5F3D37"/>
<path d="M89.7244 108.371C89.7244 108.371 89.2466 107.937 89.4767 107.602C89.4985 107.57 89.533 107.549 89.5716 107.546C89.6631 107.539 89.8377 107.584 89.9889 107.966L89.7244 108.371V108.371Z" fill="#FAC2B0"/>
<path d="M87.454 109.558C87.8335 109.711 87.7588 110.3 87.6329 110.637C87.5069 110.974 86.6203 113.357 86.6203 113.895C86.6203 114.434 86.967 116.56 86.967 116.56C86.967 116.56 86.4633 116.877 86.1375 116.676C86.1375 116.676 85.4969 114.71 85.6648 113.653C85.8327 112.595 86.653 110.066 86.758 109.823C86.8596 109.59 87.1921 109.452 87.454 109.558Z" fill="#CC2368"/>
<path d="M86.1376 116.677C86.1376 116.677 86.1048 117.098 86.2114 117.326C86.3601 117.645 86.6967 117.882 87.0872 117.818C87.4784 117.755 86.9671 116.561 86.9671 116.561L86.1376 116.677Z" fill="#FAC2B0"/>
<path d="M87.5944 126.079C87.5944 126.079 87.4214 126.967 88.0427 126.981C88.0427 126.981 88.4004 127.137 89.0486 126.664C89.0486 126.664 89.6506 126.661 90.0906 126.501C90.0906 126.501 90.3349 126.293 90.0175 126.206C89.7002 126.12 88.7699 125.869 88.7699 125.869C88.7699 125.869 88.675 125.909 87.5952 126.08L87.5944 126.079Z" fill="#4F312B"/>
<path d="M87.1153 115.914C87.1153 115.914 88.1581 116.574 89.1875 116.445C89.1875 116.445 89.0431 120.267 89.0103 120.817C88.9784 121.368 88.7844 125.869 88.7685 125.869C88.7525 125.869 88.2227 126.392 87.5939 126.08C87.5787 125.966 87.4503 124.364 87.305 123.991C87.1606 123.618 87.0154 122.226 87.4175 121.61C87.4175 121.61 87.5141 119.392 87.321 118.906C87.1279 118.42 86.6023 117.083 87.1144 115.914H87.1153Z" fill="#1C5B8A"/>
<path d="M87.8369 109.166C88.051 109.207 88.2869 109.267 88.5388 109.351C88.9603 109.492 89.1274 109.544 89.407 109.709C89.3264 109.953 89.2449 110.197 89.1643 110.442L87.7168 109.521L87.8369 109.166Z" fill="#ED3481"/>
<path d="M88.1727 109.512C88.4355 109.551 88.6882 109.639 88.9191 109.77C89.5496 110.13 90.3809 110.784 90.4682 110.949C90.5748 111.15 90.82 111.808 90.8015 112.356C90.7831 112.905 90.7293 115.811 90.9829 116.561C90.9829 116.561 89.2306 117.064 88.0686 116.516C88.0686 116.516 87.3196 116.16 87.1131 115.915C87.1131 115.915 86.8578 113.372 86.6395 112.161C86.4212 110.95 86.6126 109.657 87.1374 109.532C87.4993 109.446 87.8931 109.472 88.1727 109.512Z" fill="#AF1E5A"/>
<path d="M95.6097 111.496C95.6097 111.496 96.1378 111.246 96.2319 110.883C96.3259 110.52 96.1764 110.166 95.9204 109.887C95.9204 109.887 96.3855 109.285 96.2596 109.099C96.1336 108.914 95.3007 109.891 95.2344 110.04C95.168 110.19 94.959 110.829 94.959 110.829L95.3049 111.387L95.6097 111.496Z" fill="#FAC2B0"/>
<path d="M89.6917 111.483C89.7672 110.965 90.1098 110.783 90.47 110.947C90.8302 111.111 92.8721 112.477 93.1971 112.297C93.522 112.116 94.9578 110.828 94.9578 110.828C94.9578 110.828 95.5413 110.997 95.6085 111.494C95.6085 111.494 94.2517 113.402 93.5002 113.482C92.7487 113.561 90.1912 112.669 90.0342 112.477C89.8772 112.285 89.6287 111.912 89.6917 111.483Z" fill="#CC2368"/>
<path d="M89.4926 127.164C89.4926 127.164 89.0812 127.861 89.6001 128.12C90.1198 128.378 90.5631 127.877 90.9846 127.99C91.4061 128.104 92.0661 128.314 92.5967 127.974C92.5967 127.974 92.6437 127.943 92.6958 127.888C92.7781 127.802 92.7394 127.657 92.6253 127.624C92.2222 127.503 91.318 127.208 91.0552 126.922C91.0552 126.922 91.0384 126.965 89.4918 127.164H89.4926Z" fill="#4F312B"/>
<path d="M90.9843 116.56C90.9843 116.56 91.2455 120.526 91.1968 121.465C91.1489 122.404 90.923 123.262 90.9071 124.023C90.8911 124.784 91.0574 126.922 91.0549 126.922C91.0523 126.922 90.2152 127.488 89.4915 127.165C89.4915 127.165 89.5721 125.238 89.4109 124.476C89.2497 123.715 89.2589 122.29 89.7131 121.74C89.7131 121.74 88.981 119.343 88.6813 118.954C88.3815 118.565 87.7896 117.555 88.0692 116.514C88.0692 116.514 89.3395 116.966 90.9835 116.559L90.9843 116.56Z" fill="#2373AD"/>
<path d="M70.8303 62.8301L56.9102 107.396L57.5667 107.472L71.4894 62.8918L70.8303 62.8301Z" fill="#734C1E"/>
<path d="M71.3971 62.7172C71.2661 62.6411 71.0545 62.6411 70.9252 62.7172C70.7951 62.7933 70.7959 62.9167 70.9269 62.9928C71.0579 63.0689 71.2695 63.0689 71.3988 62.9928C71.5289 62.9167 71.5281 62.7933 71.3971 62.7172Z" fill="#593A18"/>
<path d="M57.4732 107.297C57.3423 107.221 57.1307 107.221 57.0014 107.297C56.8712 107.373 56.8721 107.497 57.0031 107.573C57.134 107.649 57.3456 107.649 57.4749 107.573C57.6051 107.497 57.6042 107.373 57.4732 107.297Z" fill="#734C1E"/>
<path d="M70.2578 65.715C70.2562 65.8723 70.3636 65.939 70.4988 65.863C70.634 65.7869 70.7448 65.5984 70.7465 65.4411C70.7482 65.2839 70.6407 65.2171 70.5055 65.2932C70.3703 65.3693 70.2595 65.5578 70.2578 65.715Z" fill="#67431A"/>
<path d="M74.4367 68.3235C74.4803 68.3488 74.54 68.3463 74.6063 68.3091C74.7415 68.233 74.8523 68.0445 74.854 67.8873C74.8548 67.807 74.8279 67.7512 74.7826 67.7241L70.676 65.2793C70.7205 65.3055 70.7482 65.3621 70.7474 65.4425C70.7457 65.5997 70.6349 65.7891 70.4997 65.8643C70.4333 65.9015 70.3737 65.904 70.3301 65.8787C73.0614 67.4764 71.7054 66.7257 74.4367 68.3235Z" fill="#67431A"/>
<path d="M70.3292 65.878L74.4358 68.3228C74.3913 68.2966 74.3636 68.24 74.3644 68.1597L70.2578 65.7148C70.257 65.7952 70.2839 65.8509 70.3292 65.878Z" fill="#67431A"/>
<path d="M74.7817 67.7232L70.6751 65.2784C70.6314 65.2531 70.5718 65.2556 70.5055 65.2928C70.3703 65.3689 70.2595 65.5574 70.2578 65.7146L74.3644 68.1594C74.3661 68.0022 74.4769 67.8128 74.6121 67.7376C74.6784 67.7004 74.738 67.6979 74.7817 67.7232Z" fill="#67431A"/>
<path d="M74.3653 68.1603C74.3636 68.3176 74.471 68.3844 74.6062 68.3083C74.7414 68.2322 74.8522 68.0437 74.8539 67.8864C74.8556 67.7292 74.7481 67.6624 74.6129 67.7385C74.4778 67.8146 74.3669 68.0031 74.3653 68.1603Z" fill="#67431A"/>
<path d="M69.1192 69.1115C69.1175 69.2687 69.225 69.3355 69.3601 69.2594C69.4953 69.1834 69.6061 68.9948 69.6078 68.8376C69.6095 68.6804 69.502 68.6136 69.3669 68.6897C69.2317 68.7657 69.1208 68.9543 69.1192 69.1115Z" fill="#67431A"/>
<path d="M73.2961 71.72C73.3397 71.7453 73.3993 71.7428 73.4657 71.7056C73.6008 71.6295 73.7117 71.441 73.7134 71.2838C73.7142 71.2034 73.6873 71.1476 73.642 71.1206L69.5354 68.6758C69.5799 68.702 69.6076 68.7586 69.6067 68.8389C69.6051 68.9962 69.4942 69.1855 69.3591 69.2608C69.2927 69.298 69.2331 69.3005 69.1895 69.2751C71.9208 70.8729 70.5648 70.1222 73.2961 71.72Z" fill="#67431A"/>
<path d="M69.1886 69.2745L73.2952 71.7193C73.2507 71.6931 73.223 71.6365 73.2238 71.5561L69.1172 69.1113C69.1164 69.1916 69.1432 69.2474 69.1886 69.2745Z" fill="#67431A"/>
<path d="M73.643 71.1197L69.5364 68.6749C69.4928 68.6495 69.4332 68.6521 69.3668 68.6893C69.2317 68.7654 69.1208 68.9539 69.1191 69.1111L73.2257 71.5559C73.2274 71.3987 73.3383 71.2093 73.4734 71.1341C73.5398 71.0969 73.5994 71.0944 73.643 71.1197Z" fill="#67431A"/>
<path d="M73.2246 71.5568C73.2229 71.7141 73.3304 71.7808 73.4656 71.7048C73.6008 71.6287 73.7116 71.4402 73.7133 71.2829C73.715 71.1257 73.6075 71.0589 73.4723 71.135C73.3371 71.2111 73.2263 71.3996 73.2246 71.5568Z" fill="#67431A"/>
<path d="M67.9785 72.5099C67.9769 72.6672 68.0843 72.734 68.2195 72.6579C68.3547 72.5818 68.4655 72.3933 68.4672 72.236C68.4689 72.0788 68.3614 72.012 68.2262 72.0881C68.091 72.1642 67.9802 72.3527 67.9785 72.5099Z" fill="#67431A"/>
<path d="M72.1574 75.1184C72.201 75.1438 72.2607 75.1412 72.327 75.104C72.4622 75.0279 72.573 74.8394 72.5747 74.6822C72.5755 74.6019 72.5487 74.5461 72.5033 74.519L68.3967 72.0742C68.4412 72.1004 68.4689 72.1571 68.4681 72.2374C68.4664 72.3946 68.3556 72.584 68.2204 72.6592C68.1541 72.6964 68.0944 72.6989 68.0508 72.6736C70.7821 74.2713 69.4261 73.5207 72.1574 75.1184Z" fill="#67431A"/>
<path d="M68.0499 72.6729L72.1565 75.1177C72.112 75.0915 72.0843 75.0349 72.0851 74.9546L67.9785 72.5098C67.9777 72.5901 68.0046 72.6459 68.0499 72.6729Z" fill="#67431A"/>
<path d="M72.5024 74.5182L68.3958 72.0733C68.3521 72.048 68.2925 72.0505 68.2262 72.0877C68.091 72.1638 67.9802 72.3523 67.9785 72.5096L72.0851 74.9544C72.0868 74.7971 72.1976 74.6078 72.3328 74.5325C72.3991 74.4953 72.4588 74.4928 72.5024 74.5182Z" fill="#67431A"/>
<path d="M72.086 74.9553C72.0843 75.1125 72.1917 75.1793 72.3269 75.1032C72.4621 75.0271 72.5729 74.8386 72.5746 74.6814C72.5763 74.5241 72.4688 74.4573 72.3336 74.5334C72.1985 74.6095 72.0876 74.798 72.086 74.9553Z" fill="#67431A"/>
<path d="M66.8906 75.9142C66.889 76.0715 66.9964 76.1383 67.1316 76.0622C67.2668 75.9861 67.3776 75.7976 67.3793 75.6403C67.381 75.4831 67.2735 75.4163 67.1383 75.4924C67.0032 75.5685 66.8923 75.757 66.8906 75.9142Z" fill="#67431A"/>
<path d="M71.0695 78.5227C71.1132 78.5481 71.1728 78.5455 71.2391 78.5083C71.3743 78.4322 71.4851 78.2437 71.4868 78.0865C71.4876 78.0062 71.4608 77.9504 71.4154 77.9233L67.3088 75.4785C67.3533 75.5047 67.381 75.5614 67.3802 75.6417C67.3785 75.7989 67.2677 75.9883 67.1325 76.0635C67.0662 76.1007 67.0066 76.1032 66.9629 76.0779C69.6942 77.6756 68.3382 76.9249 71.0695 78.5227Z" fill="#67431A"/>
<path d="M66.962 76.0772L71.0686 78.522C71.0241 78.4958 70.9964 78.4392 70.9972 78.3589L66.8906 75.9141C66.8898 75.9944 66.9167 76.0502 66.962 76.0772Z" fill="#67431A"/>
<path d="M71.4145 77.9225L67.3079 75.4776C67.2643 75.4523 67.2046 75.4548 67.1383 75.492C67.0031 75.5681 66.8923 75.7566 66.8906 75.9139L70.9972 78.3587C70.9989 78.2014 71.1097 78.0121 71.2449 77.9368C71.3112 77.8996 71.3709 77.8971 71.4145 77.9225Z" fill="#67431A"/>
<path d="M70.9981 78.3595C70.9964 78.5168 71.1039 78.5836 71.239 78.5075C71.3742 78.4314 71.485 78.2429 71.4867 78.0856C71.4884 77.9284 71.3809 77.8616 71.2458 77.9377C71.1106 78.0138 70.9997 78.2023 70.9981 78.3595Z" fill="#67431A"/>
<path d="M65.9375 79.4142C65.9358 79.5715 66.0433 79.6383 66.1785 79.5622C66.3137 79.4861 66.4245 79.2976 66.4262 79.1403C66.4279 78.9831 66.3204 78.9163 66.1852 78.9924C66.05 79.0685 65.9392 79.257 65.9375 79.4142Z" fill="#67431A"/>
<path d="M70.1164 82.0227C70.16 82.0481 70.2196 82.0455 70.286 82.0083C70.4212 81.9322 70.532 81.7437 70.5337 81.5865C70.5345 81.5062 70.5076 81.4504 70.4623 81.4233L66.3557 78.9785C66.4002 79.0047 66.4279 79.0614 66.4271 79.1417C66.4254 79.2989 66.3146 79.4883 66.1794 79.5635C66.113 79.6007 66.0534 79.6032 66.0098 79.5779C68.7411 81.1756 67.3851 80.4249 70.1164 82.0227Z" fill="#67431A"/>
<path d="M66.0089 79.5772L70.1155 82.022C70.071 81.9958 70.0433 81.9392 70.0441 81.8589L65.9375 79.4141C65.9367 79.4944 65.9636 79.5502 66.0089 79.5772Z" fill="#67431A"/>
<path d="M70.4614 81.4225L66.3548 78.9776C66.3111 78.9523 66.2515 78.9548 66.1852 78.992C66.05 79.0681 65.9392 79.2566 65.9375 79.4139L70.0441 81.8587C70.0458 81.7014 70.1566 81.5121 70.2918 81.4368C70.3581 81.3996 70.4177 81.3971 70.4614 81.4225Z" fill="#67431A"/>
<path d="M70.0449 81.8596C70.0433 82.0168 70.1507 82.0836 70.2859 82.0075C70.4211 81.9314 70.5319 81.7429 70.5336 81.5856C70.5353 81.4284 70.4278 81.3616 70.2926 81.4377C70.1575 81.5138 70.0466 81.7023 70.0449 81.8596Z" fill="#67431A"/>
<path d="M64.8184 82.8361C64.8167 82.9934 64.9242 83.0601 65.0594 82.9841C65.1945 82.908 65.3054 82.7195 65.307 82.5622C65.3087 82.405 65.2012 82.3382 65.0661 82.4143C64.9309 82.4904 64.8201 82.6789 64.8184 82.8361Z" fill="#67431A"/>
<path d="M68.9972 85.4446C69.0409 85.4699 69.1005 85.4674 69.1668 85.4302C69.302 85.3541 69.4128 85.1656 69.4145 85.0084C69.4154 84.9281 69.3885 84.8723 69.3432 84.8452L65.2365 82.4004C65.2811 82.4266 65.3088 82.4832 65.3079 82.5635C65.3062 82.7208 65.1954 82.9101 65.0602 82.9854C64.9939 83.0226 64.9343 83.0251 64.8906 82.9998C67.6219 84.5975 66.2659 83.8468 68.9972 85.4446Z" fill="#67431A"/>
<path d="M64.8897 82.9991L68.9963 85.4439C68.9518 85.4177 68.9241 85.3611 68.925 85.2808L64.8184 82.8359C64.8175 82.9162 64.8444 82.972 64.8897 82.9991Z" fill="#67431A"/>
<path d="M69.3423 84.8443L65.2357 82.3995C65.192 82.3742 65.1324 82.3767 65.066 82.4139C64.9309 82.49 64.82 82.6785 64.8184 82.8357L68.925 85.2805C68.9266 85.1233 69.0375 84.9339 69.1727 84.8587C69.239 84.8215 69.2986 84.819 69.3423 84.8443Z" fill="#67431A"/>
<path d="M68.9258 85.2814C68.9241 85.4387 69.0316 85.5054 69.1668 85.4294C69.302 85.3533 69.4128 85.1648 69.4145 85.0075C69.4161 84.8503 69.3087 84.7835 69.1735 84.8596C69.0383 84.9357 68.9275 85.1242 68.9258 85.2814Z" fill="#67431A"/>
<path d="M63.4844 86.7931C63.4827 86.9504 63.5902 87.0172 63.7254 86.9411C63.8605 86.865 63.9714 86.6765 63.9731 86.5192C63.9747 86.362 63.8673 86.2952 63.7321 86.3713C63.5969 86.4474 63.4861 86.6359 63.4844 86.7931Z" fill="#67431A"/>
<path d="M67.6613 89.4016C67.705 89.427 67.7646 89.4244 67.8309 89.3872C67.9661 89.3112 68.0769 89.1226 68.0786 88.9654C68.0794 88.8851 68.0526 88.8293 68.0072 88.8022L63.9006 86.3574C63.9451 86.3836 63.9728 86.4403 63.972 86.5206C63.9703 86.6778 63.8595 86.8672 63.7243 86.9424C63.658 86.9796 63.5983 86.9821 63.5547 86.9568C66.286 88.5545 64.93 87.8038 67.6613 89.4016Z" fill="#67431A"/>
<path d="M63.5538 86.9561L67.6604 89.4009C67.6159 89.3747 67.5882 89.3181 67.589 89.2378L63.4824 86.793C63.4816 86.8733 63.5085 86.9291 63.5538 86.9561Z" fill="#67431A"/>
<path d="M68.0083 88.8014L63.9017 86.3565C63.858 86.3312 63.7984 86.3337 63.7321 86.3709C63.5969 86.447 63.4861 86.6355 63.4844 86.7928L67.591 89.2376C67.5927 89.0803 67.7035 88.891 67.8387 88.8157C67.905 88.7785 67.9646 88.776 68.0083 88.8014Z" fill="#67431A"/>
<path d="M67.5899 89.2385C67.5882 89.3957 67.6957 89.4625 67.8308 89.3864C67.966 89.3103 68.0768 89.1218 68.0785 88.9646C68.0802 88.8073 67.9727 88.7405 67.8375 88.8166C67.7024 88.8927 67.5915 89.0812 67.5899 89.2385Z" fill="#67431A"/>
<path d="M62.5371 90.3361C62.5354 90.4934 62.6429 90.5601 62.7781 90.4841C62.9133 90.408 63.0241 90.2195 63.0258 90.0622C63.0275 89.905 62.92 89.8382 62.7848 89.9143C62.6496 89.9904 62.5388 90.1789 62.5371 90.3361Z" fill="#67431A"/>
<path d="M66.716 92.9446C66.7596 92.9699 66.8193 92.9674 66.8856 92.9302C67.0208 92.8541 67.1316 92.6656 67.1333 92.5084C67.1341 92.4281 67.1072 92.3723 67.0619 92.3452L62.9553 89.9004C62.9998 89.9266 63.0275 89.9832 63.0267 90.0635C63.025 90.2208 62.9142 90.4101 62.779 90.4854C62.7127 90.5226 62.653 90.5251 62.6094 90.4998C65.3407 92.0975 63.9847 91.3468 66.716 92.9446Z" fill="#67431A"/>
<path d="M62.6085 90.4991L66.7151 92.9439C66.6706 92.9177 66.6429 92.8611 66.6437 92.7808L62.5371 90.3359C62.5363 90.4162 62.5632 90.472 62.6085 90.4991Z" fill="#67431A"/>
<path d="M67.061 92.3443L62.9544 89.8995C62.9107 89.8742 62.8511 89.8767 62.7848 89.9139C62.6496 89.99 62.5388 90.1785 62.5371 90.3357L66.6437 92.7805C66.6454 92.6233 66.7562 92.4339 66.8914 92.3587C66.9577 92.3215 67.0173 92.319 67.061 92.3443Z" fill="#67431A"/>
<path d="M66.6446 92.7814C66.6429 92.9387 66.7503 93.0054 66.8855 92.9294C67.0207 92.8533 67.1315 92.6648 67.1332 92.5075C67.1349 92.3503 67.0274 92.2835 66.8922 92.3596C66.7571 92.4357 66.6462 92.6242 66.6446 92.7814Z" fill="#67431A"/>
<path d="M61.4492 93.5217C61.4476 93.6789 61.555 93.7457 61.6902 93.6696C61.8254 93.5935 61.9362 93.405 61.9379 93.2478C61.9396 93.0905 61.8321 93.0237 61.6969 93.0998C61.5617 93.1759 61.4509 93.3644 61.4492 93.5217Z" fill="#67431A"/>
<path d="M65.6281 96.1301C65.6718 96.1555 65.7314 96.1529 65.7977 96.1157C65.9329 96.0397 66.0437 95.8511 66.0454 95.6939C66.0462 95.6136 66.0194 95.5578 65.974 95.5308L61.8674 93.0859C61.9119 93.1121 61.9396 93.1688 61.9388 93.2491C61.9371 93.4063 61.8263 93.5957 61.6911 93.6709C61.6248 93.7081 61.5651 93.7107 61.5215 93.6853C64.2528 95.2831 62.8968 94.5324 65.6281 96.1301Z" fill="#67431A"/>
<path d="M61.5206 93.6846L65.6272 96.1295C65.5827 96.1033 65.555 96.0466 65.5558 95.9663L61.4492 93.5215C61.4484 93.6018 61.4753 93.6576 61.5206 93.6846Z" fill="#67431A"/>
<path d="M65.9731 95.5299L61.8665 93.0851C61.8229 93.0597 61.7632 93.0622 61.6969 93.0994C61.5617 93.1755 61.4509 93.364 61.4492 93.5213L65.5558 95.9661C65.5575 95.8089 65.6683 95.6195 65.8035 95.5442C65.8698 95.5071 65.9295 95.5045 65.9731 95.5299Z" fill="#67431A"/>
<path d="M65.5567 95.967C65.555 96.1242 65.6625 96.191 65.7976 96.1149C65.9328 96.0388 66.0436 95.8503 66.0453 95.6931C66.047 95.5358 65.9395 95.469 65.8044 95.5451C65.6692 95.6212 65.5583 95.8097 65.5567 95.967Z" fill="#67431A"/>
<path d="M60.4688 96.6037C60.4671 96.7609 60.5746 96.8277 60.7097 96.7516C60.8449 96.6755 60.9558 96.487 60.9574 96.3298C60.9591 96.1725 60.8516 96.1058 60.7165 96.1818C60.5813 96.2579 60.4704 96.4464 60.4688 96.6037Z" fill="#67431A"/>
<path d="M64.6476 99.2122C64.6913 99.2375 64.7509 99.235 64.8172 99.1978C64.9524 99.1217 65.0632 98.9332 65.0649 98.7759C65.0658 98.6956 65.0389 98.6398 64.9935 98.6128L60.8869 96.168C60.9314 96.1942 60.9591 96.2508 60.9583 96.3311C60.9566 96.4884 60.8458 96.6777 60.7106 96.753C60.6443 96.7902 60.5847 96.7927 60.541 96.7673C63.2723 98.3651 61.9163 97.6144 64.6476 99.2122Z" fill="#67431A"/>
<path d="M60.5401 96.7667L64.6467 99.2115C64.6022 99.1853 64.5745 99.1286 64.5754 99.0483L60.4688 96.6035C60.4679 96.6838 60.4948 96.7396 60.5401 96.7667Z" fill="#67431A"/>
<path d="M64.9927 98.6119L60.886 96.1671C60.8424 96.1417 60.7828 96.1443 60.7164 96.1815C60.5813 96.2575 60.4704 96.4461 60.4688 96.6033L64.5754 99.0481C64.577 98.8909 64.6879 98.7015 64.823 98.6263C64.8894 98.5891 64.949 98.5865 64.9927 98.6119Z" fill="#67431A"/>
<path d="M64.5762 99.049C64.5745 99.2062 64.682 99.273 64.8172 99.1969C64.9523 99.1209 65.0632 98.9323 65.0649 98.7751C65.0665 98.6179 64.9591 98.5511 64.8239 98.6272C64.6887 98.7032 64.5779 98.8918 64.5762 99.049Z" fill="#67431A"/>
<path d="M59.4317 100C59.43 100.157 59.5375 100.224 59.6726 100.148C59.8078 100.072 59.9186 99.8835 59.9203 99.7263C59.922 99.569 59.8145 99.5022 59.6793 99.5783C59.5442 99.6544 59.4333 99.8429 59.4317 100Z" fill="#67431A"/>
<path d="M63.6105 102.609C63.6542 102.634 63.7138 102.631 63.7801 102.594C63.9153 102.518 64.0261 102.33 64.0278 102.172C64.0286 102.092 64.0018 102.036 63.9564 102.009L59.8498 99.5645C59.8943 99.5907 59.922 99.6473 59.9212 99.7276C59.9195 99.8848 59.8087 100.074 59.6735 100.149C59.6072 100.187 59.5476 100.189 59.5039 100.164C62.2352 101.762 60.8792 101.011 63.6105 102.609Z" fill="#67431A"/>
<path d="M59.503 100.163L63.6096 102.608C63.5651 102.582 63.5374 102.525 63.5383 102.445L59.4317 100C59.4308 100.08 59.4577 100.136 59.503 100.163Z" fill="#67431A"/>
<path d="M63.9555 102.008L59.8489 99.5636C59.8053 99.5382 59.7457 99.5408 59.6793 99.5779C59.5441 99.654 59.4333 99.8426 59.4316 99.9998L63.5382 102.445C63.5399 102.287 63.6508 102.098 63.7859 102.023C63.8523 101.986 63.9119 101.983 63.9555 102.008Z" fill="#67431A"/>
<path d="M63.5391 102.445C63.5374 102.603 63.6449 102.67 63.7801 102.593C63.9152 102.517 64.0261 102.329 64.0277 102.172C64.0294 102.014 63.9219 101.948 63.7868 102.024C63.6516 102.1 63.5408 102.288 63.5391 102.445Z" fill="#67431A"/>
<path d="M58.3711 103.533C58.3694 103.691 58.4769 103.757 58.6121 103.681C58.7473 103.605 58.8581 103.417 58.8598 103.259C58.8615 103.102 58.754 103.035 58.6188 103.112C58.4836 103.188 58.3728 103.376 58.3711 103.533Z" fill="#67431A"/>
<path d="M62.548 106.142C62.5917 106.167 62.6513 106.165 62.7176 106.127C62.8528 106.051 62.9636 105.863 62.9653 105.706C62.9661 105.625 62.9393 105.57 62.8939 105.542L58.7873 103.098C58.8318 103.124 58.8595 103.181 58.8587 103.261C58.857 103.418 58.7462 103.607 58.611 103.683C58.5447 103.72 58.4851 103.722 58.4414 103.697C61.1727 105.295 59.8167 104.544 62.548 106.142Z" fill="#67431A"/>
<path d="M58.4405 103.696L62.5471 106.141C62.5026 106.115 62.4749 106.058 62.4758 105.978L58.3692 103.533C58.3683 103.614 58.3952 103.669 58.4405 103.696Z" fill="#67431A"/>
<path d="M62.895 105.542L58.7884 103.097C58.7447 103.071 58.6851 103.074 58.6188 103.111C58.4836 103.187 58.3728 103.376 58.3711 103.533L62.4777 105.978C62.4794 105.821 62.5902 105.631 62.7254 105.556C62.7917 105.519 62.8513 105.516 62.895 105.542Z" fill="#67431A"/>
<path d="M62.4766 105.979C62.4749 106.136 62.5824 106.203 62.7176 106.127C62.8527 106.051 62.9636 105.862 62.9652 105.705C62.9669 105.548 62.8595 105.481 62.7243 105.557C62.5891 105.633 62.4783 105.821 62.4766 105.979Z" fill="#67431A"/>
<path d="M75.3194 64.5371L61.3984 109.103L62.0559 109.179L75.9785 64.5988L75.3194 64.5371Z" fill="#734C1E"/>
<path d="M75.8873 64.4223C75.7563 64.3462 75.5447 64.3462 75.4154 64.4223C75.2853 64.4984 75.2861 64.6218 75.4171 64.6979C75.5481 64.774 75.7597 64.774 75.889 64.6979C76.0191 64.6218 76.0183 64.4984 75.8873 64.4223Z" fill="#593A18"/>
<path d="M61.9635 109.004C61.8325 108.928 61.6209 108.928 61.4916 109.004C61.3615 109.08 61.3623 109.204 61.4933 109.28C61.6243 109.356 61.8359 109.356 61.9652 109.28C62.0953 109.204 62.0945 109.08 61.9635 109.004Z" fill="#734C1E"/>
<path d="M64.9531 86.498C64.9531 86.498 64.4938 86.8607 64.5123 87.0983C64.5307 87.3358 64.9715 87.6985 65.4686 87.8988C65.9657 88.0992 66.5358 88.472 66.5929 88.3925C66.7507 88.1753 65.6987 87.0171 65.7918 86.7229L64.9531 86.498Z" fill="#2F3116"/>
<path d="M62.4552 90.6138C62.4552 90.6138 62.3175 91.0044 62.4074 91.526C62.4074 91.526 62.8549 91.8464 63.3327 91.6663C63.8104 91.4863 63.7701 91.0855 64.0295 90.9951C64.289 90.9046 64.7961 90.7846 64.7164 90.5344C64.6366 90.2841 64.2982 90.1058 63.9498 90.2867C63.6013 90.4667 62.4552 90.6147 62.4552 90.6147V90.6138Z" fill="#2F3116"/>
<path d="M62.4551 83.3093C62.4551 83.3093 63.0227 85.0246 64.262 84.8817C65.5012 84.7388 66.1461 84.011 66.1461 84.011C66.1461 84.011 65.565 84.5089 65.5138 84.8901C65.4626 85.2714 64.869 86.5192 64.869 86.5192C64.869 86.5192 65.3333 86.9351 65.7985 86.9351C65.7985 86.9351 68.0184 83.5046 68.0184 82.8553C68.0184 82.2061 67.3736 82.2188 67.0638 82.2188C66.754 82.2188 62.7145 83.0895 62.7145 83.0895L62.4568 83.3101L62.4551 83.3093Z" fill="#253B7E"/>
<path d="M61.6739 82.627C61.6739 82.627 61.0803 83.3041 62.1643 87.0618C62.1643 87.0618 61.9921 88.3975 62.3817 90.6597C62.3817 90.6597 62.5169 90.9251 63.4187 90.5692C63.4187 90.5692 63.6538 87.8032 63.7344 86.9341C63.815 86.0651 63.8326 83.1266 63.8326 83.1266L61.6748 82.6278L61.6739 82.627Z" fill="#253B7E"/>
<path d="M70.031 80.3819C70.031 80.3819 70.942 79.9583 71.0486 80.0928C71.1553 80.2272 70.7556 80.4478 70.7556 80.4478C70.7556 80.4478 71.481 80.5881 71.701 80.5484C71.921 80.5078 71.5281 81.1047 71.2879 81.1216C71.0486 81.1385 70.3711 81.2306 69.9277 81.1216L70.031 80.3827V80.3819Z" fill="#FAC2B0"/>
<path d="M67.4062 77.0344C67.4062 77.0344 68.208 76.9795 68.339 76.862C68.47 76.7445 68.0023 76.5754 68.0023 76.5754C68.0023 76.5754 68.3205 76.2466 68.5162 76.2888C68.7126 76.3311 68.6749 76.1992 68.5724 76.0487C68.47 75.8983 67.7874 75.6345 67.5531 75.7385C67.3197 75.8416 66.9688 76.4731 66.9688 76.4731L67.4054 77.0353L67.4062 77.0344Z" fill="#FAC2B0"/>
<path d="M63.8465 77.6759C63.8465 77.6759 65.1067 77.7942 65.3024 77.6759C65.498 77.5575 66.9707 76.4746 66.9707 76.4746C66.9707 76.4746 67.372 76.7612 67.4073 77.0368C67.4073 77.0368 65.8926 78.3708 65.6517 78.4477C65.4107 78.5246 64.1714 78.5906 63.6382 78.5906C63.1051 78.5906 63.2084 78.2702 63.2621 78.0208C63.3167 77.7714 63.624 77.6581 63.8473 77.6767L63.8465 77.6759Z" fill="#608AC7"/>
<path d="M64.0931 77.5493C64.0931 77.5493 65.3744 78.3617 65.4256 78.7548C65.476 79.1479 65.0713 80.503 65.0713 80.9764C65.0713 81.4498 65.0276 82.8049 65.0276 82.8049C65.0276 82.8049 64.3769 83.9267 62.9588 83.6571C61.5407 83.3874 61.3744 82.7246 61.4105 82.4769C61.4466 82.2292 61.6926 80.6704 61.6347 80.1606C61.5768 79.6509 61.136 77.0429 62.2711 76.8028C62.2711 76.8028 62.9487 76.7808 64.0931 77.5493Z" fill="#5380C0"/>
<path d="M64.4378 78.9751C64.6469 78.3005 65.1305 78.3191 65.9055 78.7561C66.6805 79.1932 67.5385 79.7655 67.5385 79.7655C67.5385 79.7655 69.2237 80.0149 70.0297 80.3792C70.0297 80.3792 70.133 80.9516 69.9264 81.1181C69.9264 81.1181 67.7812 81.1392 67.2464 80.9304C66.7115 80.7225 65.0986 80.129 64.7678 79.8483C64.437 79.5677 64.3908 79.1239 64.437 78.9742L64.4378 78.9751Z" fill="#608AC7"/>
<path d="M63.7967 74.8174C64.4265 74.9594 64.8118 75.1961 64.8555 75.514C64.8992 75.831 65.057 77.2943 64.654 77.3738C64.251 77.4533 63.4726 77.4533 63.3324 76.5276C63.1922 75.6019 63.2098 74.6855 63.7967 74.8174Z" fill="#FAC2B0"/>
<path d="M62.9234 77.1378L62.8848 77.3516C62.8848 77.3516 63.1367 77.6881 64.0921 77.5478L64.3885 76.7252L63.0048 76.3516L62.9234 77.1378Z" fill="#FAC2B0"/>
<path d="M63.451 76.5759C63.451 76.5759 63.8196 76.5015 64.0639 75.9503C64.0639 75.9503 64.9002 75.9368 65.3024 75.214C65.3024 75.214 64.367 74.6037 63.5962 74.5107C62.8255 74.4177 62.5224 74.9553 62.5358 75.2267C62.5358 75.2267 61.9825 75.4998 62.226 76.1025C62.4695 76.7061 62.9245 77.1372 62.9245 77.1372C62.9245 77.1372 63.2999 76.9158 63.4518 76.5751L63.451 76.5759Z" fill="#76411A"/>
<path d="M63.6527 76.5838C63.6527 76.5838 63.3757 76.1662 63.159 76.3251C62.9424 76.4841 63.3664 76.8425 63.6527 76.8628V76.5838Z" fill="#FAC2B0"/>
</g>
<defs>
<clipPath id="clip0_204_341">
<rect width="118" height="123" fill="white" transform="translate(21 18)"/>
</clipPath>
</defs>
</svg>
