<svg width="1281" height="534" viewBox="0 0 1281 534" fill="none" xmlns="http://www.w3.org/2000/svg">
<path fill-rule="evenodd" clip-rule="evenodd" d="M641 147L663 116.736L641 83V90C598.035 90 556.83 107.068 526.449 137.449C496.068 167.83 479 209.035 479 252C479 294.965 496.068 336.17 526.449 366.551C556.83 396.932 598.035 414 641 414V365.4C610.924 365.4 582.081 353.453 560.814 332.186C539.547 310.919 527.6 282.076 527.6 252C527.6 221.924 539.547 193.081 560.814 171.814C582.081 150.547 610.924 138.6 641 138.6V147Z" fill="url(#paint0_linear_198_3936)"/>
<path fill-rule="evenodd" clip-rule="evenodd" d="M641 358.75L618 389.014L641 422.75V414C683.965 414 725.17 396.932 755.551 366.551C785.932 336.17 803 294.965 803 252C803 209.035 785.932 167.83 755.551 137.449C725.17 107.068 683.965 90 641 90V138.6C671.076 138.6 699.919 150.547 721.186 171.814C742.453 193.081 754.4 221.924 754.4 252C754.4 282.076 742.453 310.919 721.186 332.186C699.919 353.453 671.076 365.4 641 365.4V358.75Z" fill="url(#paint1_linear_198_3936)"/>
<path d="M664 116L641 147L641 82L664 116Z" fill="#D3E2FE"/>
<rect x="1011.5" y="41.5" width="269" height="52" rx="7.5" fill="#E0E8FF"/>
<rect x="1011.5" y="41.5" width="269" height="52" rx="7.5" stroke="#CFDAFC"/>
<path d="M1119.03 59.7441V75.4941H1117.41V59.7441H1119.03ZM1115.77 60.0781V74.7031H1114.19V67.0566H1110.96V65.668H1114.19V60.0781H1115.77ZM1112.03 61.625V62.9961H1107.69V70.3965C1109.75 70.3789 1111.14 70.291 1112.77 69.9395L1112.91 71.3457C1111.1 71.7148 1109.55 71.7852 1107.09 71.7852H1106.05V61.625H1112.03ZM1134.09 59.7441V75.5293H1132.42V59.7441H1134.09ZM1125.67 60.9219C1128.01 60.9219 1129.73 63.0664 1129.73 66.4414C1129.73 69.834 1128.01 71.9785 1125.67 71.9785C1123.3 71.9785 1121.59 69.834 1121.59 66.4414C1121.59 63.0664 1123.3 60.9219 1125.67 60.9219ZM1125.67 62.416C1124.21 62.416 1123.21 63.9629 1123.21 66.4414C1123.21 68.9375 1124.21 70.4844 1125.67 70.4844C1127.11 70.4844 1128.11 68.9375 1128.11 66.4414C1128.11 63.9629 1127.11 62.416 1125.67 62.416ZM1149.74 59.7441V75.5293H1148.08V66.9336H1144.95V65.5625H1148.08V59.7441H1149.74ZM1144.69 61.1504V62.5039H1139.01V65.5625H1144.02V66.8984H1139.01V70.4141C1141.65 70.4053 1143.48 70.3438 1145.57 69.9746L1145.75 71.3281C1143.46 71.6973 1141.47 71.7852 1138.56 71.8027H1137.33V61.1504H1144.69ZM1170.92 69.2363V70.6074H1164.55V75.5117H1162.9V70.6074H1156.56V69.2363H1170.92ZM1169.55 61.6426V62.9961H1164.57C1164.67 64.7363 1167.04 66.4326 1170.04 66.8105L1169.44 68.1465C1166.91 67.7949 1164.76 66.6084 1163.75 65C1162.72 66.626 1160.55 67.7949 1158.01 68.1465L1157.4 66.8105C1160.4 66.4326 1162.79 64.7715 1162.9 62.9961H1157.91V61.6426H1162.9V59.7441H1164.55V61.6426H1169.55ZM1186.46 66.6523V67.9004H1180.11V69.2188H1184.66V72.7695H1175.49V74.0703H1185.1V75.3359H1173.85V71.6094H1183.01V70.4316H1173.83V69.2188H1178.46V67.9004H1172.13V66.6523H1186.46ZM1180.11 59.6738V61.0625H1185.03V62.3457H1180.25C1180.57 63.6816 1182.7 64.6133 1185.75 64.7715L1185.24 66.0371C1182.5 65.8438 1180.27 65.0352 1179.28 63.6465C1178.3 65.0352 1176.07 65.8438 1173.31 66.0371L1172.83 64.7715C1175.86 64.6133 1177.98 63.6816 1178.33 62.3457H1173.55V61.0625H1178.46V59.6738H1180.11Z" fill="#333333"/>
<rect x="1011.5" y="179.5" width="269" height="52" rx="7.5" fill="#E0E8FF"/>
<rect x="1011.5" y="179.5" width="269" height="52" rx="7.5" stroke="#CFDAFC"/>
<path d="M1111.25 197.744V213.494H1109.63V197.744H1111.25ZM1108 198.078V212.703H1106.41V205.057H1103.18V203.668H1106.41V198.078H1108ZM1104.25 199.625V200.996H1099.91V208.396C1101.98 208.379 1103.36 208.291 1104.99 207.939L1105.13 209.346C1103.32 209.715 1101.77 209.785 1099.31 209.785H1098.28V199.625H1104.25ZM1126.31 197.744V213.529H1124.64V197.744H1126.31ZM1117.89 198.922C1120.23 198.922 1121.95 201.066 1121.95 204.441C1121.95 207.834 1120.23 209.979 1117.89 209.979C1115.52 209.979 1113.81 207.834 1113.81 204.441C1113.81 201.066 1115.52 198.922 1117.89 198.922ZM1117.89 200.416C1116.43 200.416 1115.43 201.963 1115.43 204.441C1115.43 206.938 1116.43 208.484 1117.89 208.484C1119.33 208.484 1120.34 206.938 1120.34 204.441C1120.34 201.963 1119.33 200.416 1117.89 200.416ZM1141.96 197.744V213.529H1140.3V204.934H1137.18V203.562H1140.3V197.744H1141.96ZM1136.91 199.15V200.504H1131.23V203.562H1136.24V204.898H1131.23V208.414C1133.87 208.405 1135.7 208.344 1137.79 207.975L1137.97 209.328C1135.68 209.697 1133.7 209.785 1130.78 209.803H1129.55V199.15H1136.91ZM1161.86 197.744V213.529H1160.19V197.744H1161.86ZM1157.04 199.168V204.916H1151.38V208.361C1153.93 208.353 1156.16 208.238 1158.8 207.799L1158.96 209.17C1156.16 209.645 1153.79 209.75 1151.01 209.75H1149.67V203.58H1155.33V200.521H1149.66V199.168H1157.04ZM1178.75 210.189V211.613H1164.33V210.189H1170.66V206.832H1165.6V205.514H1167.96V200.557H1165.56V199.203H1177.43V200.557H1175.02V205.514H1177.38V206.832H1172.31V210.189H1178.75ZM1169.61 205.514H1173.39V200.557H1169.61V205.514ZM1192.67 206.129V207.465H1181.7V199.045H1192.51V200.398H1183.39V202.525H1192.18V203.844H1183.39V206.129H1192.67ZM1194.3 210.137V211.508H1179.89V210.137H1194.3Z" fill="#333333"/>
<rect x="1.5" y="242.5" width="269" height="52" rx="7.5" fill="#E0E8FF"/>
<rect x="1.5" y="242.5" width="269" height="52" rx="7.5" stroke="#CFDAFC"/>
<path d="M109.026 260.744V276.494H107.409V260.744H109.026ZM105.774 261.078V275.703H104.192V268.057H100.958V266.668H104.192V261.078H105.774ZM102.03 262.625V263.996H97.6885V271.396C99.7539 271.379 101.143 271.291 102.769 270.939L102.909 272.346C101.099 272.715 99.5518 272.785 97.0908 272.785H96.0537V262.625H102.03ZM124.091 260.744V276.529H122.421V260.744H124.091ZM115.671 261.922C118.009 261.922 119.731 264.066 119.731 267.441C119.731 270.834 118.009 272.979 115.671 272.979C113.298 272.979 111.593 270.834 111.593 267.441C111.593 264.066 113.298 261.922 115.671 261.922ZM115.671 263.416C114.212 263.416 113.21 264.963 113.21 267.441C113.21 269.938 114.212 271.484 115.671 271.484C117.112 271.484 118.114 269.938 118.114 267.441C118.114 264.963 117.112 263.416 115.671 263.416ZM139.735 260.744V276.529H138.083V267.934H134.954V266.562H138.083V260.744H139.735ZM134.69 262.15V263.504H129.013V266.562H134.022V267.898H129.013V271.414C131.649 271.405 133.478 271.344 135.569 270.975L135.745 272.328C133.46 272.697 131.474 272.785 128.556 272.803H127.325V262.15H134.69ZM159.687 260.744V268.76H158.017V267.248H154.026V265.947H158.017V264.242H154.22C153.244 266.686 150.871 268.294 147.382 269.111L146.802 267.74C150.581 266.905 152.629 265.156 152.901 262.836H147.628V261.465H154.729C154.729 261.975 154.686 262.458 154.606 262.924H158.017V260.744H159.687ZM159.687 269.428V273.418H151.073V275H160.161V276.336H149.421V272.152H158.017V270.746H149.386V269.428H159.687ZM174.487 260.744V264.699H176.772V266.105H174.487V269.92H172.817V260.744H174.487ZM166.067 270.57V272.1H172.817V270.57H174.487V276.301H164.415V270.57H166.067ZM166.067 274.965H172.817V273.4H166.067V274.965ZM171.517 262.291V263.627H162.13V262.291H165.997V260.604H167.667V262.291H171.517ZM166.823 264.277C169.091 264.277 170.638 265.35 170.638 267.037C170.638 268.707 169.091 269.814 166.823 269.797C164.521 269.814 162.991 268.707 162.991 267.037C162.991 265.35 164.521 264.277 166.823 264.277ZM166.823 265.525C165.487 265.508 164.591 266.123 164.608 267.037C164.591 267.969 165.487 268.566 166.823 268.566C168.159 268.566 169.056 267.969 169.073 267.037C169.056 266.123 168.159 265.508 166.823 265.525Z" fill="#333333"/>
<rect x="1011.5" y="110.5" width="269" height="52" rx="7.5" fill="#E0E8FF"/>
<rect x="1011.5" y="110.5" width="269" height="52" rx="7.5" stroke="#CFDAFC"/>
<path d="M1119.03 128.744V144.494H1117.41V128.744H1119.03ZM1115.77 129.078V143.703H1114.19V136.057H1110.96V134.668H1114.19V129.078H1115.77ZM1112.03 130.625V131.996H1107.69V139.396C1109.75 139.379 1111.14 139.291 1112.77 138.939L1112.91 140.346C1111.1 140.715 1109.55 140.785 1107.09 140.785H1106.05V130.625H1112.03ZM1134.09 128.744V144.529H1132.42V128.744H1134.09ZM1125.67 129.922C1128.01 129.922 1129.73 132.066 1129.73 135.441C1129.73 138.834 1128.01 140.979 1125.67 140.979C1123.3 140.979 1121.59 138.834 1121.59 135.441C1121.59 132.066 1123.3 129.922 1125.67 129.922ZM1125.67 131.416C1124.21 131.416 1123.21 132.963 1123.21 135.441C1123.21 137.938 1124.21 139.484 1125.67 139.484C1127.11 139.484 1128.11 137.938 1128.11 135.441C1128.11 132.963 1127.11 131.416 1125.67 131.416ZM1149.74 128.744V144.529H1148.08V135.934H1144.95V134.562H1148.08V128.744H1149.74ZM1144.69 130.15V131.504H1139.01V134.562H1144.02V135.898H1139.01V139.414C1141.65 139.405 1143.48 139.344 1145.57 138.975L1145.75 140.328C1143.46 140.697 1141.47 140.785 1138.56 140.803H1137.33V130.15H1144.69ZM1170.92 137.023V138.342H1156.52V137.023H1162.88V135.652H1158.4V129.166H1169.16V130.484H1160.09V131.768H1168.75V133.016H1160.09V134.352H1169.26V135.652H1164.55V137.023H1170.92ZM1163.73 139.379C1167.19 139.361 1169.16 140.275 1169.16 141.928C1169.16 143.598 1167.19 144.477 1163.73 144.459C1160.23 144.477 1158.26 143.598 1158.26 141.928C1158.26 140.275 1160.23 139.361 1163.73 139.379ZM1163.73 140.627C1161.25 140.627 1159.91 141.084 1159.93 141.928C1159.91 142.771 1161.25 143.211 1163.73 143.193C1166.17 143.211 1167.49 142.771 1167.49 141.928C1167.49 141.084 1166.17 140.627 1163.73 140.627ZM1185.65 128.744V144.494H1184.07V128.744H1185.65ZM1182.43 129.148V143.721H1180.85V138.359H1178.16V136.988H1180.85V134.422H1178.42C1177.66 137.067 1175.98 139.361 1173.01 141.137L1172.02 139.941C1175.36 137.955 1176.97 135.31 1177.26 132.066H1172.8V130.695H1178.92C1178.92 131.504 1178.85 132.286 1178.72 133.051H1180.85V129.148H1182.43Z" fill="#333333"/>
<rect x="1.5" y="173.5" width="269" height="52" rx="7.5" fill="#E0E8FF"/>
<rect x="1.5" y="173.5" width="269" height="52" rx="7.5" stroke="#CFDAFC"/>
<path d="M109.026 191.744V207.494H107.409V191.744H109.026ZM105.774 192.078V206.703H104.192V199.057H100.958V197.668H104.192V192.078H105.774ZM102.03 193.625V194.996H97.6885V202.396C99.7539 202.379 101.143 202.291 102.769 201.939L102.909 203.346C101.099 203.715 99.5518 203.785 97.0908 203.785H96.0537V193.625H102.03ZM124.091 191.744V207.529H122.421V191.744H124.091ZM115.671 192.922C118.009 192.922 119.731 195.066 119.731 198.441C119.731 201.834 118.009 203.979 115.671 203.979C113.298 203.979 111.593 201.834 111.593 198.441C111.593 195.066 113.298 192.922 115.671 192.922ZM115.671 194.416C114.212 194.416 113.21 195.963 113.21 198.441C113.21 200.938 114.212 202.484 115.671 202.484C117.112 202.484 118.114 200.938 118.114 198.441C118.114 195.963 117.112 194.416 115.671 194.416ZM139.735 191.744V207.529H138.083V198.934H134.954V197.562H138.083V191.744H139.735ZM134.69 193.15V194.504H129.013V197.562H134.022V198.898H129.013V202.414C131.649 202.405 133.478 202.344 135.569 201.975L135.745 203.328C133.46 203.697 131.474 203.785 128.556 203.803H127.325V193.15H134.69ZM159.687 191.744V201.113H158.017V197.123H155.081V195.752H158.017V191.744H159.687ZM154.413 201.553C157.718 201.553 159.739 202.643 159.739 204.523C159.739 206.404 157.718 207.477 154.413 207.494C151.108 207.477 149.069 206.404 149.087 204.523C149.069 202.643 151.108 201.553 154.413 201.553ZM154.413 202.854C152.11 202.854 150.739 203.451 150.739 204.523C150.739 205.578 152.11 206.193 154.413 206.176C156.716 206.193 158.087 205.578 158.087 204.523C158.087 203.451 156.716 202.854 154.413 202.854ZM152.198 194.521C152.198 196.525 153.622 198.459 155.995 199.268L155.134 200.586C153.367 199.971 152.066 198.714 151.39 197.158C150.695 198.925 149.315 200.34 147.435 201.025L146.556 199.689C148.999 198.846 150.493 196.719 150.493 194.539V194.188H147.083V192.834H155.573V194.188H152.198V194.521ZM175.63 191.744V207.494H174.03V191.744H175.63ZM172.431 192.078V206.703H170.849V198.688H168.405V197.316H170.849V192.078H172.431ZM166.858 196.139C166.858 198.828 167.948 201.518 170.163 202.801L169.161 204.031C167.658 203.135 166.621 201.544 166.085 199.637C165.514 201.693 164.441 203.442 162.903 204.4L161.884 203.152C164.116 201.799 165.259 198.934 165.259 196.139V194.873H162.358V193.52H169.565V194.873H166.858V196.139Z" fill="#333333"/>
<rect x="1011.5" y="248.5" width="269" height="52" rx="7.5" fill="#E0E8FF"/>
<rect x="1011.5" y="248.5" width="269" height="52" rx="7.5" stroke="#CFDAFC"/>
<path d="M1103.47 266.744V282.494H1101.85V266.744H1103.47ZM1100.22 267.078V281.703H1098.64V274.057H1095.4V272.668H1098.64V267.078H1100.22ZM1096.47 268.625V269.996H1092.13V277.396C1094.2 277.379 1095.59 277.291 1097.21 276.939L1097.35 278.346C1095.54 278.715 1094 278.785 1091.53 278.785H1090.5V268.625H1096.47ZM1118.53 266.744V282.529H1116.86V266.744H1118.53ZM1110.11 267.922C1112.45 267.922 1114.17 270.066 1114.17 273.441C1114.17 276.834 1112.45 278.979 1110.11 278.979C1107.74 278.979 1106.04 276.834 1106.04 273.441C1106.04 270.066 1107.74 267.922 1110.11 267.922ZM1110.11 269.416C1108.66 269.416 1107.65 270.963 1107.65 273.441C1107.65 275.938 1108.66 277.484 1110.11 277.484C1111.56 277.484 1112.56 275.938 1112.56 273.441C1112.56 270.963 1111.56 269.416 1110.11 269.416ZM1134.18 266.744V282.529H1132.53V273.934H1129.4V272.562H1132.53V266.744H1134.18ZM1129.13 268.15V269.504H1123.46V272.562H1128.47V273.898H1123.46V277.414C1126.09 277.405 1127.92 277.344 1130.01 276.975L1130.19 278.328C1127.9 278.697 1125.92 278.785 1123 278.803H1121.77V268.15H1129.13ZM1155.36 274.285V275.621H1149V277.309H1153.6V282.301H1142.72V277.309H1147.34V275.621H1141V274.285H1155.36ZM1154.01 267.236V268.59H1151.72V271.596H1153.94V272.949H1142.39V271.596H1144.62V268.59H1142.32V267.236H1154.01ZM1144.37 278.627V280.947H1151.99V278.627H1144.37ZM1146.27 271.596H1150.05V268.59H1146.27V271.596ZM1169.6 266.744V274.883H1167.95V266.744H1169.6ZM1169.62 275.604V279.506H1160.93V281.035H1170.14V282.336H1159.32V278.293H1167.96V276.887H1159.26V275.604H1169.62ZM1162.39 268.941C1162.39 270.857 1163.9 272.633 1166.35 273.336L1165.54 274.619C1163.68 274.065 1162.29 272.879 1161.58 271.367C1160.88 273.037 1159.45 274.347 1157.5 274.953L1156.73 273.635C1159.17 272.879 1160.69 270.98 1160.7 268.941H1157.17V267.588H1165.85V268.941H1162.39ZM1180.25 267.729C1180.25 271.736 1177.51 274.584 1172.94 275.867L1172.25 274.566C1175.88 273.547 1178.14 271.578 1178.48 269.1H1173.08V267.729H1180.25ZM1185.24 266.762V275.674H1183.57V272.088H1180.32V270.699H1183.57V266.762H1185.24ZM1185.24 276.324V282.283H1174.94V276.324H1185.24ZM1176.58 277.66V280.947H1183.59V277.66H1176.58ZM1202.03 274.162V275.516H1187.67V274.162H1202.03ZM1194.84 276.729C1198.23 276.729 1200.27 277.783 1200.27 279.611C1200.27 281.439 1198.23 282.477 1194.84 282.459C1191.43 282.477 1189.37 281.439 1189.37 279.611C1189.37 277.783 1191.43 276.729 1194.84 276.729ZM1194.84 278.029C1192.43 278.047 1191.06 278.592 1191.06 279.611C1191.06 280.613 1192.43 281.141 1194.84 281.141C1197.21 281.141 1198.6 280.613 1198.6 279.611C1198.6 278.592 1197.21 278.047 1194.84 278.029ZM1200.75 267.518V268.889H1195.97C1196.15 270.418 1198.38 271.719 1201.29 272.018L1200.69 273.336C1197.97 273.02 1195.71 271.868 1194.86 270.207C1193.98 271.868 1191.73 273.02 1189 273.336L1188.42 272.018C1191.28 271.719 1193.53 270.427 1193.73 268.889H1188.99V267.518H1200.75Z" fill="#333333"/>
<mask id="path-16-inside-1_198_3936" fill="white">
<path d="M1 8C1 3.58172 4.58172 0 9 0H263C267.418 0 271 3.58172 271 8V53H1V8Z"/>
</mask>
<path d="M1 8C1 3.58172 4.58172 0 9 0H263C267.418 0 271 3.58172 271 8V53H1V8Z" fill="#E0E8FF"/>
<path d="M0 8C0 3.02944 4.02944 -1 9 -1H263C267.971 -1 272 3.02944 272 8H270C270 4.13401 266.866 1 263 1H9C5.13401 1 2 4.13401 2 8H0ZM271 53H1H271ZM0 53V8C0 3.02944 4.02944 -1 9 -1V1C5.13401 1 2 4.13401 2 8V53H0ZM263 -1C267.971 -1 272 3.02944 272 8V53H270V8C270 4.13401 266.866 1 263 1V-1Z" fill="#CFDAFC" mask="url(#path-16-inside-1_198_3936)"/>
<path d="M109.026 18.7441V34.4941H107.409V18.7441H109.026ZM105.774 19.0781V33.7031H104.192V26.0566H100.958V24.668H104.192V19.0781H105.774ZM102.03 20.625V21.9961H97.6885V29.3965C99.7539 29.3789 101.143 29.291 102.769 28.9395L102.909 30.3457C101.099 30.7148 99.5518 30.7852 97.0908 30.7852H96.0537V20.625H102.03ZM124.091 18.7441V34.5293H122.421V18.7441H124.091ZM115.671 19.9219C118.009 19.9219 119.731 22.0664 119.731 25.4414C119.731 28.834 118.009 30.9785 115.671 30.9785C113.298 30.9785 111.593 28.834 111.593 25.4414C111.593 22.0664 113.298 19.9219 115.671 19.9219ZM115.671 21.416C114.212 21.416 113.21 22.9629 113.21 25.4414C113.21 27.9375 114.212 29.4844 115.671 29.4844C117.112 29.4844 118.114 27.9375 118.114 25.4414C118.114 22.9629 117.112 21.416 115.671 21.416ZM139.735 18.7441V34.5293H138.083V25.9336H134.954V24.5625H138.083V18.7441H139.735ZM134.69 20.1504V21.5039H129.013V24.5625H134.022V25.8984H129.013V29.4141C131.649 29.4053 133.478 29.3438 135.569 28.9746L135.745 30.3281C133.46 30.6973 131.474 30.7852 128.556 30.8027H127.325V20.1504H134.69ZM154.624 20.1328C154.606 22.2246 157.173 24.1934 160.267 24.5977L159.616 25.9688C157.041 25.5557 154.773 24.2197 153.763 22.3652C152.726 24.2285 150.467 25.5557 147.909 25.9688L147.241 24.5977C150.335 24.1934 152.866 22.2422 152.884 20.1328V19.2715H154.624V20.1328ZM160.917 27.5156V28.8867H154.519V34.4941H152.884V28.8867H146.556V27.5156H160.917ZM167.948 21.2578C167.948 23.209 169.478 25.0371 171.903 25.7402L171.06 27.041C169.223 26.4873 167.834 25.2832 167.122 23.7363C166.41 25.3887 165.004 26.6982 163.114 27.3223L162.271 26.0039C164.714 25.248 166.243 23.332 166.261 21.2578V21.082H162.728V19.7285H171.411V21.082H167.948V21.2578ZM175.173 18.7441V27.2695H173.503V18.7441H175.173ZM166.507 28.0078V29.7656H173.521V28.0078H175.173V34.3008H164.872V28.0078H166.507ZM166.507 32.9473H173.521V31.084H166.507V32.9473Z" fill="#333333"/>
<mask id="path-19-inside-2_198_3936" fill="white">
<path d="M1 53H271V149C271 153.418 267.418 157 263 157H9C4.58173 157 1 153.418 1 149V53Z"/>
</mask>
<path d="M1 53H271V149C271 153.418 267.418 157 263 157H9C4.58173 157 1 153.418 1 149V53Z" fill="#F5F6F8"/>
<path d="M1 53H271H1ZM272 149C272 153.971 267.971 158 263 158H9C4.02944 158 0 153.971 0 149H2C2 152.866 5.13401 156 9 156H263C266.866 156 270 152.866 270 149H272ZM9 158C4.02944 158 0 153.971 0 149V53H2V149C2 152.866 5.13401 156 9 156V158ZM272 53V149C272 153.971 267.971 158 263 158V156C266.866 156 270 152.866 270 149V53H272Z" fill="#EAEAEA" mask="url(#path-19-inside-2_198_3936)"/>
<circle cx="25.5" cy="87.5" r="2.5" fill="#3649D8"/>
<path d="M51.6963 79.7969V89.1133H50.3076V85.0176H47.1611V83.875H50.3076V79.7969H51.6963ZM46.5107 89.6055C49.7627 89.6055 51.749 90.6602 51.749 92.5059C51.749 94.3516 49.7627 95.4062 46.5107 95.4238C43.2588 95.4062 41.2725 94.3516 41.2725 92.5059C41.2725 90.6602 43.2588 89.6055 46.5107 89.6055ZM46.5107 90.6777C44.1201 90.6777 42.626 91.3633 42.6436 92.5059C42.626 93.6309 44.1201 94.3164 46.5107 94.3164C48.9014 94.3164 50.3779 93.6309 50.3779 92.5059C50.3779 91.3633 48.9014 90.6777 46.5107 90.6777ZM44.1729 82.6621C44.1729 84.7012 45.7373 86.6348 48.0225 87.4258L47.3018 88.5332C45.5439 87.9004 44.1816 86.5908 43.5225 84.9648C42.8369 86.8018 41.3867 88.2695 39.5322 88.9727L38.8115 87.8652C41.1318 87.0215 42.7842 84.9121 42.7842 82.6797V82.0996H39.251V80.9395H47.6709V82.0996H44.1729V82.6621ZM63.1572 81.5547V82.6797H54.3154V81.5547H58.1123V79.6738H59.4834V81.5547H63.1572ZM58.7803 83.4883C60.8721 83.4883 62.3486 84.6309 62.3486 86.3711C62.3486 88.1289 60.8721 89.2715 58.7803 89.2715C56.6709 89.2715 55.2295 88.1289 55.2471 86.3711C55.2295 84.6309 56.6709 83.4883 58.7803 83.4883ZM58.7803 84.5254C57.4268 84.543 56.5303 85.2812 56.5303 86.3711C56.5303 87.4785 57.4268 88.1992 58.7803 88.1992C60.1338 88.1992 61.0479 87.4785 61.0654 86.3711C61.0479 85.2812 60.1338 84.543 58.7803 84.5254ZM67.2529 79.7969V89.9043H65.8643V87.7422H63.1396V86.5996H65.8643V84.7012H63.1572V83.5586H65.8643V79.7969H67.2529ZM62.1025 90.0625C65.3545 90.0625 67.3408 91.0293 67.3408 92.7344C67.3408 94.4043 65.3545 95.3887 62.1025 95.3887C58.8154 95.3887 56.8467 94.4043 56.8467 92.7344C56.8467 91.0293 58.8154 90.0625 62.1025 90.0625ZM62.1025 91.1348C59.7295 91.1348 58.2705 91.7148 58.2705 92.7344C58.2705 93.7188 59.7295 94.3164 62.1025 94.3164C64.4404 94.3164 65.8818 93.7188 65.8818 92.7344C65.8818 91.7148 64.4404 91.1348 62.1025 91.1348ZM83.2314 79.7969V95.4238H81.8955V79.7969H83.2314ZM80.0322 80.1836V94.6152H78.7139V86.9336H75.3037V85.7734H78.7139V80.1836H80.0322ZM76.3584 81.7305V82.873H71.8057V90.502C74.0557 90.4932 75.4795 90.3965 77.167 90.0273L77.3076 91.2051C75.4971 91.5742 73.9678 91.6445 71.4541 91.6621H70.4697V81.7305H76.3584ZM98.2959 79.7969V95.459H96.9072V79.7969H98.2959ZM89.9814 81.0098C92.3018 81.0273 93.9717 83.1367 93.9717 86.459C93.9717 89.7812 92.3018 91.8906 89.9814 91.8906C87.6436 91.8906 85.9912 89.7812 85.9912 86.459C85.9912 83.1367 87.6436 81.0273 89.9814 81.0098ZM89.9814 82.2402C88.417 82.2578 87.3271 83.9102 87.3271 86.459C87.3271 89.0078 88.417 90.6602 89.9814 90.6602C91.5459 90.6602 92.6357 89.0078 92.6357 86.459C92.6357 83.9102 91.5459 82.2578 89.9814 82.2402ZM113.923 79.7969V95.459H112.552V86.8457H109.247V85.7031H112.552V79.7969H113.923ZM108.983 81.2383V82.3809H103.077V85.6328H108.298V86.7578H103.077V90.5371C105.951 90.5371 107.779 90.4404 109.933 90.0625L110.091 91.2051C107.823 91.5742 105.907 91.6797 102.884 91.6797H101.688V81.2383H108.983Z" fill="#666666"/>
<circle cx="25.5" cy="122.5" r="2.5" fill="#3649D8"/>
<path d="M51.8477 114.797V130.459H50.459V114.797H51.8477ZM41.248 116.133V120.264H45.9062V116.133H47.2598V126.68H39.877V116.133H41.248ZM41.248 125.52H45.9062V121.371H41.248V125.52ZM67.4746 114.797V124.113H66.0859V120.018H62.9395V118.875H66.0859V114.797H67.4746ZM62.2891 124.605C65.541 124.605 67.5273 125.66 67.5273 127.506C67.5273 129.352 65.541 130.406 62.2891 130.424C59.0371 130.406 57.0508 129.352 57.0508 127.506C57.0508 125.66 59.0371 124.605 62.2891 124.605ZM62.2891 125.678C59.8984 125.678 58.4043 126.363 58.4219 127.506C58.4043 128.631 59.8984 129.316 62.2891 129.316C64.6797 129.316 66.1562 128.631 66.1562 127.506C66.1562 126.363 64.6797 125.678 62.2891 125.678ZM59.9512 117.662C59.9512 119.701 61.5156 121.635 63.8008 122.426L63.0801 123.533C61.3223 122.9 59.96 121.591 59.3008 119.965C58.6152 121.802 57.165 123.27 55.3105 123.973L54.5898 122.865C56.9102 122.021 58.5625 119.912 58.5625 117.68V117.1H55.0293V115.939H63.4492V117.1H59.9512V117.662ZM78.9355 116.555V117.68H70.0938V116.555H73.8906V114.674H75.2617V116.555H78.9355ZM74.5586 118.488C76.6504 118.488 78.127 119.631 78.127 121.371C78.127 123.129 76.6504 124.271 74.5586 124.271C72.4492 124.271 71.0078 123.129 71.0254 121.371C71.0078 119.631 72.4492 118.488 74.5586 118.488ZM74.5586 119.525C73.2051 119.543 72.3086 120.281 72.3086 121.371C72.3086 122.479 73.2051 123.199 74.5586 123.199C75.9121 123.199 76.8262 122.479 76.8438 121.371C76.8262 120.281 75.9121 119.543 74.5586 119.525ZM83.0312 114.797V124.904H81.6426V122.742H78.918V121.6H81.6426V119.701H78.9355V118.559H81.6426V114.797H83.0312ZM77.8809 125.062C81.1328 125.062 83.1191 126.029 83.1191 127.734C83.1191 129.404 81.1328 130.389 77.8809 130.389C74.5938 130.389 72.625 129.404 72.625 127.734C72.625 126.029 74.5938 125.062 77.8809 125.062ZM77.8809 126.135C75.5078 126.135 74.0488 126.715 74.0488 127.734C74.0488 128.719 75.5078 129.316 77.8809 129.316C80.2188 129.316 81.6602 128.719 81.6602 127.734C81.6602 126.715 80.2188 126.135 77.8809 126.135ZM99.0098 114.797V130.424H97.6738V114.797H99.0098ZM95.8105 115.184V129.615H94.4922V121.934H91.082V120.773H94.4922V115.184H95.8105ZM92.1367 116.73V117.873H87.584V125.502C89.834 125.493 91.2578 125.396 92.9453 125.027L93.0859 126.205C91.2754 126.574 89.7461 126.645 87.2324 126.662H86.248V116.73H92.1367ZM114.074 114.797V130.459H112.686V114.797H114.074ZM105.76 116.01C108.08 116.027 109.75 118.137 109.75 121.459C109.75 124.781 108.08 126.891 105.76 126.891C103.422 126.891 101.77 124.781 101.77 121.459C101.77 118.137 103.422 116.027 105.76 116.01ZM105.76 117.24C104.195 117.258 103.105 118.91 103.105 121.459C103.105 124.008 104.195 125.66 105.76 125.66C107.324 125.66 108.414 124.008 108.414 121.459C108.414 118.91 107.324 117.258 105.76 117.24ZM129.701 114.797V130.459H128.33V121.846H125.025V120.703H128.33V114.797H129.701ZM124.762 116.238V117.381H118.855V120.633H124.076V121.758H118.855V125.537C121.729 125.537 123.558 125.44 125.711 125.062L125.869 126.205C123.602 126.574 121.686 126.68 118.662 126.68H117.467V116.238H124.762Z" fill="#666666"/>
<mask id="path-25-inside-3_198_3936" fill="white">
<path d="M0 315C0 310.582 3.58172 307 8 307H262C266.418 307 270 310.582 270 315V360H0V315Z"/>
</mask>
<path d="M0 315C0 310.582 3.58172 307 8 307H262C266.418 307 270 310.582 270 315V360H0V315Z" fill="#E0E8FF"/>
<path d="M-1 315C-1 310.029 3.02944 306 8 306H262C266.971 306 271 310.029 271 315H269C269 311.134 265.866 308 262 308H8C4.13401 308 1 311.134 1 315H-1ZM270 360H0H270ZM-1 360V315C-1 310.029 3.02944 306 8 306V308C4.13401 308 1 311.134 1 315V360H-1ZM262 306C266.971 306 271 310.029 271 315V360H269V315C269 311.134 265.866 308 262 308V306Z" fill="#CFDAFC" mask="url(#path-25-inside-3_198_3936)"/>
<path d="M83.7422 326.447V327.695C83.7422 328.917 83.7422 330.297 83.3906 332.072H85.5V333.426H71.1738V332.072H81.7207C81.8525 331.422 81.9404 330.833 82.002 330.279L72.7734 330.666L72.5625 329.365L82.0723 329.102C82.0898 328.636 82.0898 328.205 82.0898 327.783H72.9668V326.447H83.7422ZM83.8477 334.744V338.559H74.5137V339.982H84.4102V341.301H72.8438V337.311H82.1953V336.027H72.8086V334.744H83.8477ZM98.9824 325.744V331.896H101.514V333.303H98.9824V341.529H97.3301V325.744H98.9824ZM94.5352 327.168V332.951H89.0156V336.361C91.7227 336.353 93.7266 336.256 96.0293 335.834L96.1875 337.188C93.7266 337.645 91.5996 337.75 88.6465 337.768H87.3633V331.598H92.8828V328.521H87.3281V327.168H94.5352ZM116.666 334.691V336.08H110.232V341.494H108.598V336.08H102.252V334.691H116.666ZM109.424 326.342C112.746 326.342 115.031 327.695 115.031 329.84C115.031 331.967 112.746 333.303 109.424 333.303C106.084 333.303 103.816 331.967 103.816 329.84C103.816 327.695 106.084 326.342 109.424 326.342ZM109.424 327.678C107.086 327.695 105.521 328.504 105.539 329.84C105.521 331.158 107.086 331.967 109.424 331.967C111.762 331.967 113.326 331.158 113.326 329.84C113.326 328.504 111.762 327.695 109.424 327.678ZM130.588 333.215V334.586H119.619V327.15H130.447V328.521H121.271V333.215H130.588ZM132.24 338.031V339.42H117.826V338.031H132.24ZM146.549 325.762V341.494H144.861V337.732H141.381V336.467H144.861V325.762H146.549ZM133.312 333.953C136.301 333.936 140.273 333.918 143.719 333.443L143.807 334.674C142.312 334.938 140.757 335.096 139.236 335.184V341.002H137.566V335.271C136.125 335.333 134.754 335.342 133.541 335.342L133.312 333.953ZM138.498 326.482C140.818 326.482 142.488 327.766 142.488 329.629C142.488 331.527 140.818 332.758 138.498 332.758C136.125 332.758 134.473 331.527 134.473 329.629C134.473 327.766 136.125 326.482 138.498 326.482ZM138.498 327.766C137.039 327.766 136.037 328.521 136.055 329.629C136.037 330.754 137.039 331.475 138.498 331.475C139.904 331.475 140.906 330.754 140.906 329.629C140.906 328.521 139.904 327.766 138.498 327.766ZM156.973 327.344C156.955 331.984 155.443 336.115 149.854 338.963L148.922 337.697C151.682 336.282 153.387 334.586 154.336 332.582L149.238 333.074L148.975 331.633L154.863 331.264C155.101 330.455 155.25 329.594 155.32 328.697H149.783V327.344H156.973ZM162.053 325.744V341.494H160.4V333.355H156.938V331.984H160.4V325.744H162.053ZM177.662 326.939V327.818C177.645 328.873 177.645 330.438 177.258 332.477L175.605 332.318C175.948 330.569 176.001 329.304 176.027 328.311H169.717V326.939H177.662ZM173.637 330.473V333.725C175.324 333.672 177.064 333.549 178.646 333.32L178.752 334.533C175.465 335.113 171.703 335.166 168.926 335.184L168.768 333.83C169.734 333.821 170.833 333.812 171.984 333.777V330.473H173.637ZM181.354 325.744V330.754H183.516V332.16H181.354V337.574H179.648V325.744H181.354ZM181.863 339.807V341.16H171.158V336.502H172.828V339.807H181.863ZM197.525 325.744V341.529H195.855V325.744H197.525ZM192.709 327.168V332.916H187.049V336.361C189.598 336.353 191.83 336.238 194.467 335.799L194.625 337.17C191.83 337.645 189.457 337.75 186.68 337.75H185.344V331.58H191.004V328.521H185.326V327.168H192.709Z" fill="#333333"/>
<mask id="path-28-inside-4_198_3936" fill="white">
<path d="M0 360H270V526C270 530.418 266.418 534 262 534H8C3.58173 534 0 530.418 0 526V360Z"/>
</mask>
<path d="M0 360H270V526C270 530.418 266.418 534 262 534H8C3.58173 534 0 530.418 0 526V360Z" fill="#F5F6F8"/>
<path d="M0 360H270H0ZM271 526C271 530.971 266.971 535 262 535H8C3.02944 535 -1 530.971 -1 526H1C1 529.866 4.13401 533 8 533H262C265.866 533 269 529.866 269 526H271ZM8 535C3.02944 535 -1 530.971 -1 526V360H1V526C1 529.866 4.13401 533 8 533V535ZM271 360V526C271 530.971 266.971 535 262 535V533C265.866 533 269 529.866 269 526V360H271Z" fill="#EAEAEA" mask="url(#path-28-inside-4_198_3936)"/>
<circle cx="24.5" cy="394.5" r="2.5" fill="#3649D8"/>
<path d="M52.0166 394.232V395.393H37.7607V394.232H52.0166ZM50.3467 391.613V392.738H39.5713V387.43H50.2412V388.59H40.9248V391.613H50.3467ZM44.8799 396.764C48.2373 396.764 50.2412 397.783 50.2588 399.576C50.2412 401.387 48.2373 402.389 44.8799 402.389C41.5049 402.389 39.4834 401.387 39.4834 399.576C39.4834 397.783 41.5049 396.764 44.8799 396.764ZM44.8799 397.836C42.3662 397.854 40.8721 398.486 40.8896 399.576C40.8721 400.684 42.3662 401.299 44.8799 401.299C47.3584 401.299 48.8701 400.684 48.8701 399.576C48.8701 398.486 47.3584 397.854 44.8799 397.836ZM56.5518 395.744V397.818H64.374V395.744H65.7451V402.213H55.1807V395.744H56.5518ZM56.5518 401.088H64.374V398.908H56.5518V401.088ZM65.7451 387.518V388.66C65.7451 389.855 65.7451 391.244 65.3232 393.195H67.626V394.338H53.3174V393.195H63.9697C64.374 391.253 64.374 389.855 64.374 388.66H55.1279V387.518H65.7451ZM82.0576 388.01V388.836C82.04 389.855 82.04 391.42 81.6533 393.459L80.2646 393.354C80.6426 391.481 80.6777 390.154 80.7041 389.17H74.2705V388.01H82.0576ZM78.0322 391.473V394.83C79.7637 394.76 81.5566 394.637 83.1826 394.408L83.2705 395.428C80.001 395.99 76.2217 396.061 73.4443 396.061L73.3037 394.918C74.3145 394.909 75.457 394.9 76.6611 394.865V391.473H78.0322ZM85.6436 386.797V391.895H87.9287V393.072H85.6436V398.557H84.2373V386.797H85.6436ZM86.1533 400.93V402.09H75.7119V397.502H77.1006V400.93H86.1533ZM101.851 386.797V402.459H100.479V386.797H101.851ZM97.1045 388.256V393.811H91.2686V397.502C93.8613 397.502 96.1729 397.388 98.9678 396.939L99.1084 398.1C96.2256 398.557 93.8525 398.662 91.1631 398.662H89.8623V392.686H95.7158V389.398H89.8271V388.256H97.1045Z" fill="#666666"/>
<circle cx="24.5" cy="429.5" r="2.5" fill="#3649D8"/>
<path d="M52.291 434.312V435.49H37.9824V434.312H44.3984V430.709H39.2832V429.602H41.7266V424.469H39.248V423.326H50.9199V424.469H48.4414V429.602H50.8848V430.709H45.752V434.312H52.291ZM43.0977 429.602H47.0879V424.469H43.0977V429.602ZM66.4414 421.814V433.24H65.0703V421.814H66.4414ZM66.9336 435.93V437.09H56.3516V432.08H57.7227V435.93H66.9336ZM58.0039 422.904C60.3418 422.904 62.0996 424.486 62.0996 426.736C62.0996 429.021 60.3418 430.586 58.0039 430.586C55.666 430.586 53.9082 429.021 53.9082 426.736C53.9082 424.486 55.666 422.904 58.0039 422.904ZM58.0039 424.117C56.4219 424.117 55.2441 425.207 55.2617 426.736C55.2441 428.301 56.4219 429.373 58.0039 429.373C59.5508 429.373 60.7461 428.301 60.7461 426.736C60.7461 425.207 59.5508 424.117 58.0039 424.117ZM81.752 430.252V431.377H70.9414V423.15H81.5762V424.311H72.3477V426.631H81.2422V427.738H72.3477V430.252H81.752ZM83.4043 434.242V435.385H69.0957V434.242H83.4043ZM97.8359 423.01V423.836C97.8184 424.855 97.8184 426.42 97.4316 428.459L96.043 428.354C96.4209 426.481 96.4561 425.154 96.4824 424.17H90.0488V423.01H97.8359ZM93.8105 426.473V429.83C95.542 429.76 97.335 429.637 98.9609 429.408L99.0488 430.428C95.7793 430.99 92 431.061 89.2227 431.061L89.082 429.918C90.0928 429.909 91.2354 429.9 92.4395 429.865V426.473H93.8105ZM101.422 421.797V426.895H103.707V428.072H101.422V433.557H100.016V421.797H101.422ZM101.932 435.93V437.09H91.4902V432.502H92.8789V435.93H101.932ZM117.629 421.797V437.459H116.258V421.797H117.629ZM112.883 423.256V428.811H107.047V432.502C109.64 432.502 111.951 432.388 114.746 431.939L114.887 433.1C112.004 433.557 109.631 433.662 106.941 433.662H105.641V427.686H111.494V424.398H105.605V423.256H112.883Z" fill="#666666"/>
<circle cx="24.5" cy="464.5" r="2.5" fill="#3649D8"/>
<path d="M43.2734 459.697C43.2734 461.771 44.8027 463.67 47.123 464.479L46.4199 465.551C44.6357 464.918 43.2734 463.635 42.6055 462.018C41.9375 463.793 40.5049 465.173 38.668 465.85L37.9297 464.777C40.2676 463.951 41.9023 461.93 41.9199 459.697V459.029H38.3516V457.904H46.7891V459.029H43.2734V459.697ZM50.1992 456.797V460.928H52.5547V462.105H50.1992V466.219H48.8281V456.797H50.1992ZM50.1992 467.045V472.424H48.8281V468.17H39.9688V467.045H50.1992ZM57.8457 457.535C59.9463 457.518 61.5371 458.739 61.8359 460.541H65.1055V456.797H66.4941V465.182H65.1055V461.684H61.8535C61.5723 463.529 59.9639 464.76 57.8457 464.76C55.4727 464.76 53.7852 463.283 53.7852 461.139C53.7852 459.012 55.4727 457.518 57.8457 457.535ZM57.8457 458.713C56.2461 458.695 55.1035 459.697 55.1035 461.139C55.1035 462.562 56.2461 463.6 57.8457 463.6C59.4277 463.6 60.5527 462.562 60.5527 461.139C60.5527 459.697 59.4277 458.695 57.8457 458.713ZM57.8105 465.973V467.959H65.1055V465.973H66.4941V472.213H56.4219V465.973H57.8105ZM57.8105 471.088H65.1055V469.066H57.8105V471.088ZM83.6855 459.258V460.418H81.3125V462.545H83.6855V463.723H81.3125V466.271H79.9414V456.814H81.3125V459.258H83.6855ZM76.8477 457.781V462H71.1523V464.18C73.9297 464.18 75.9424 464.083 78.377 463.67L78.5176 464.83C76.0039 465.252 73.9121 465.34 71.0117 465.34H69.7988V460.91H75.4941V458.924H69.7637V457.781H76.8477ZM76.3027 466.729C79.4844 466.729 81.4531 467.783 81.4531 469.576C81.4531 471.369 79.4844 472.389 76.3027 472.389C73.0684 472.389 71.1172 471.369 71.1172 469.576C71.1172 467.783 73.0684 466.729 76.3027 466.729ZM76.3027 467.818C73.9121 467.818 72.4531 468.469 72.4707 469.576C72.4531 470.666 73.9121 471.316 76.3027 471.316C78.6758 471.316 80.1172 470.666 80.1172 469.576C80.1172 468.469 78.6758 467.818 76.3027 467.818ZM97.8359 458.01V458.836C97.8184 459.855 97.8184 461.42 97.4316 463.459L96.043 463.354C96.4209 461.481 96.4561 460.154 96.4824 459.17H90.0488V458.01H97.8359ZM93.8105 461.473V464.83C95.542 464.76 97.335 464.637 98.9609 464.408L99.0488 465.428C95.7793 465.99 92 466.061 89.2227 466.061L89.082 464.918C90.0928 464.909 91.2354 464.9 92.4395 464.865V461.473H93.8105ZM101.422 456.797V461.895H103.707V463.072H101.422V468.557H100.016V456.797H101.422ZM101.932 470.93V472.09H91.4902V467.502H92.8789V470.93H101.932ZM117.629 456.797V472.459H116.258V456.797H117.629ZM112.883 458.256V463.811H107.047V467.502C109.64 467.502 111.951 467.388 114.746 466.939L114.887 468.1C112.004 468.557 109.631 468.662 106.941 468.662H105.641V462.686H111.494V459.398H105.605V458.256H112.883Z" fill="#666666"/>
<circle cx="24.5" cy="499.5" r="2.5" fill="#3649D8"/>
<path d="M43.3086 495.049C43.3086 496.965 44.8906 498.67 47.1934 499.355L46.543 500.445C44.7412 499.883 43.335 498.714 42.6582 497.211C41.9727 498.872 40.5225 500.138 38.668 500.744L37.9824 499.654C40.3027 498.951 41.9551 497.141 41.9551 495.049V494.768H38.4219V493.66H41.9551V491.727H43.3438V493.66H46.8418V494.768H43.3086V495.049ZM50.1992 491.797V495.77H52.5547V496.93H50.1992V501.061H48.8281V491.797H50.1992ZM50.1992 501.781V507.213H40.3379V501.781H50.1992ZM41.6914 502.871V506.088H48.8281V502.871H41.6914ZM57.7402 493.01C59.1729 493.019 60.333 493.854 61.0098 495.295H65.123V491.797H66.4941V507.459H65.123V501.395H61.1152C60.4561 502.977 59.252 503.891 57.7402 503.891C55.4375 503.891 53.8203 501.781 53.8203 498.459C53.8203 495.137 55.4375 493.027 57.7402 493.01ZM57.7402 494.24C56.1934 494.258 55.1387 495.91 55.1387 498.459C55.1387 501.008 56.1934 502.66 57.7402 502.66C59.2695 502.66 60.3418 501.008 60.3418 498.459C60.3418 495.91 59.2695 494.258 57.7402 494.24ZM61.4141 496.455C61.5547 497.062 61.6426 497.729 61.6426 498.459C61.6426 499.101 61.5723 499.707 61.4668 500.252H65.123V496.455H61.4141ZM76.2148 491.99C79.6953 491.99 81.7344 492.957 81.7344 494.697C81.7344 496.455 79.6953 497.404 76.2148 497.422C72.7344 497.404 70.6777 496.455 70.6777 494.697C70.6777 492.957 72.7344 491.99 76.2148 491.99ZM76.2148 493.045C73.6133 493.062 72.1016 493.66 72.1191 494.697C72.1016 495.77 73.6133 496.35 76.2148 496.367C78.7988 496.35 80.3281 495.77 80.3281 494.697C80.3281 493.66 78.7988 493.062 76.2148 493.045ZM83.334 498.371V499.496H79.3613V501.043H81.5059V504.541H72.2246V506.158H81.9805V507.248H70.8535V503.521H80.1523V502.098H70.8184V501.043H72.9805V499.496H69.0957V498.371H83.334ZM74.334 501.043H77.9902V499.496H74.334V501.043ZM97.8359 493.01V493.836C97.8184 494.855 97.8184 496.42 97.4316 498.459L96.043 498.354C96.4209 496.481 96.4561 495.154 96.4824 494.17H90.0488V493.01H97.8359ZM93.8105 496.473V499.83C95.542 499.76 97.335 499.637 98.9609 499.408L99.0488 500.428C95.7793 500.99 92 501.061 89.2227 501.061L89.082 499.918C90.0928 499.909 91.2354 499.9 92.4395 499.865V496.473H93.8105ZM101.422 491.797V496.895H103.707V498.072H101.422V503.557H100.016V491.797H101.422ZM101.932 505.93V507.09H91.4902V502.502H92.8789V505.93H101.932ZM117.629 491.797V507.459H116.258V491.797H117.629ZM112.883 493.256V498.811H107.047V502.502C109.64 502.502 111.951 502.388 114.746 501.939L114.887 503.1C112.004 503.557 109.631 503.662 106.941 503.662H105.641V497.686H111.494V494.398H105.605V493.256H112.883Z" fill="#666666"/>
<mask id="path-38-inside-5_198_3936" fill="white">
<path d="M1011 325C1011 320.582 1014.58 317 1019 317H1273C1277.42 317 1281 320.582 1281 325V370H1011V325Z"/>
</mask>
<path d="M1011 325C1011 320.582 1014.58 317 1019 317H1273C1277.42 317 1281 320.582 1281 325V370H1011V325Z" fill="#E0E8FF"/>
<path d="M1010 325C1010 320.029 1014.03 316 1019 316H1273C1277.97 316 1282 320.029 1282 325H1280C1280 321.134 1276.87 318 1273 318H1019C1015.13 318 1012 321.134 1012 325H1010ZM1281 370H1011H1281ZM1010 370V325C1010 320.029 1014.03 316 1019 316V318C1015.13 318 1012 321.134 1012 325V370H1010ZM1273 316C1277.97 316 1282 320.029 1282 325V370H1280V325C1280 321.134 1276.87 318 1273 318V316Z" fill="#CFDAFC" mask="url(#path-38-inside-5_198_3936)"/>
<path d="M1111.25 335.744V351.494H1109.63V335.744H1111.25ZM1108 336.078V350.703H1106.41V343.057H1103.18V341.668H1106.41V336.078H1108ZM1104.25 337.625V338.996H1099.91V346.396C1101.98 346.379 1103.36 346.291 1104.99 345.939L1105.13 347.346C1103.32 347.715 1101.77 347.785 1099.31 347.785H1098.28V337.625H1104.25ZM1126.31 335.744V351.529H1124.64V335.744H1126.31ZM1117.89 336.922C1120.23 336.922 1121.95 339.066 1121.95 342.441C1121.95 345.834 1120.23 347.979 1117.89 347.979C1115.52 347.979 1113.81 345.834 1113.81 342.441C1113.81 339.066 1115.52 336.922 1117.89 336.922ZM1117.89 338.416C1116.43 338.416 1115.43 339.963 1115.43 342.441C1115.43 344.938 1116.43 346.484 1117.89 346.484C1119.33 346.484 1120.34 344.938 1120.34 342.441C1120.34 339.963 1119.33 338.416 1117.89 338.416ZM1141.96 335.744V351.529H1140.3V342.934H1137.18V341.562H1140.3V335.744H1141.96ZM1136.91 337.15V338.504H1131.23V341.562H1136.24V342.898H1131.23V346.414C1133.87 346.405 1135.7 346.344 1137.79 345.975L1137.97 347.328C1135.68 347.697 1133.7 347.785 1130.78 347.803H1129.55V337.15H1136.91ZM1157.81 335.744V346.484H1156.23V335.744H1157.81ZM1154.68 336.078V345.025H1153.08V340.596H1150.78V339.225H1153.08V336.078H1154.68ZM1153.4 346.15C1153.4 348.031 1155.72 349.719 1158.73 350.123L1158.06 351.424C1155.62 351.046 1153.53 349.903 1152.56 348.26C1151.58 349.903 1149.49 351.046 1147.04 351.424L1146.42 350.123C1149.39 349.719 1151.73 348.031 1151.73 346.15V345.693H1153.4V346.15ZM1149.15 338.697C1149.15 340.508 1150.2 342.283 1152.19 343.127L1151.29 344.41C1149.88 343.804 1148.89 342.688 1148.36 341.352C1147.78 342.793 1146.72 344.05 1145.23 344.691L1144.31 343.426C1146.4 342.494 1147.53 340.49 1147.53 338.697V336.711H1149.15V338.697ZM1173.11 336.939V337.818C1173.09 338.873 1173.09 340.438 1172.7 342.477L1171.05 342.318C1171.39 340.569 1171.44 339.304 1171.47 338.311H1165.16V336.939H1173.11ZM1169.08 340.473V343.725C1170.77 343.672 1172.51 343.549 1174.09 343.32L1174.2 344.533C1170.91 345.113 1167.15 345.166 1164.37 345.184L1164.21 343.83C1165.18 343.821 1166.28 343.812 1167.43 343.777V340.473H1169.08ZM1176.8 335.744V340.754H1178.96V342.16H1176.8V347.574H1175.09V335.744H1176.8ZM1177.31 349.807V351.16H1166.6V346.502H1168.27V349.807H1177.31ZM1192.97 335.744V351.529H1191.3V335.744H1192.97ZM1188.15 337.168V342.916H1182.49V346.361C1185.04 346.353 1187.27 346.238 1189.91 345.799L1190.07 347.17C1187.27 347.645 1184.9 347.75 1182.12 347.75H1180.79V341.58H1186.45V338.521H1180.77V337.168H1188.15Z" fill="#333333"/>
<mask id="path-41-inside-6_198_3936" fill="white">
<path d="M1011 370H1281V501C1281 505.418 1277.42 509 1273 509H1019C1014.58 509 1011 505.418 1011 501V370Z"/>
</mask>
<path d="M1011 370H1281V501C1281 505.418 1277.42 509 1273 509H1019C1014.58 509 1011 505.418 1011 501V370Z" fill="#F5F6F8"/>
<path d="M1011 370H1281H1011ZM1282 501C1282 505.971 1277.97 510 1273 510H1019C1014.03 510 1010 505.971 1010 501H1012C1012 504.866 1015.13 508 1019 508H1273C1276.87 508 1280 504.866 1280 501H1282ZM1019 510C1014.03 510 1010 505.971 1010 501V370H1012V501C1012 504.866 1015.13 508 1019 508V510ZM1282 370V501C1282 505.971 1277.97 510 1273 510V508C1276.87 508 1280 504.866 1280 501V370H1282Z" fill="#EAEAEA" mask="url(#path-41-inside-6_198_3936)"/>
<circle cx="1035.5" cy="404.5" r="2.5" fill="#3649D8"/>
<path d="M1062.36 396.797V412.424H1061.02V396.797H1062.36ZM1059.16 397.184V411.615H1057.84V403.934H1054.43V402.773H1057.84V397.184H1059.16ZM1055.49 398.73V399.873H1050.93V407.502C1053.18 407.493 1054.61 407.396 1056.29 407.027L1056.44 408.205C1054.62 408.574 1053.1 408.645 1050.58 408.662H1049.6V398.73H1055.49ZM1077.42 396.797V412.459H1076.04V396.797H1077.42ZM1069.11 398.01C1071.43 398.027 1073.1 400.137 1073.1 403.459C1073.1 406.781 1071.43 408.891 1069.11 408.891C1066.77 408.891 1065.12 406.781 1065.12 403.459C1065.12 400.137 1066.77 398.027 1069.11 398.01ZM1069.11 399.24C1067.54 399.258 1066.46 400.91 1066.46 403.459C1066.46 406.008 1067.54 407.66 1069.11 407.66C1070.67 407.66 1071.76 406.008 1071.76 403.459C1071.76 400.91 1070.67 399.258 1069.11 399.24ZM1093.05 396.797V412.459H1091.68V403.846H1088.38V402.703H1091.68V396.797H1093.05ZM1088.11 398.238V399.381H1082.21V402.633H1087.43V403.758H1082.21V407.537C1085.08 407.537 1086.91 407.44 1089.06 407.062L1089.22 408.205C1086.95 408.574 1085.04 408.68 1082.01 408.68H1080.82V398.238H1088.11ZM1108.1 397.764V398.924H1102.28V400.875H1107.8V402.018H1102.28V404.092C1105.32 404.109 1107.07 404.048 1109.12 403.652L1109.28 404.777C1107.11 405.164 1105.32 405.217 1102.09 405.199H1100.91V397.764H1108.1ZM1112.39 406.816V412.213H1102.53V406.816H1112.39ZM1103.88 407.924V411.088H1111.02V407.924H1103.88ZM1112.39 396.797V400.682H1114.74V401.859H1112.39V406.008H1111.02V396.797H1112.39ZM1120.38 399.855C1120.38 401.631 1121.58 403.424 1123.58 404.215L1122.85 405.287C1121.37 404.672 1120.29 403.529 1119.73 402.141C1119.15 403.661 1118.03 404.988 1116.5 405.674L1115.74 404.602C1117.8 403.688 1119.07 401.631 1119.07 399.855V397.764H1120.38V399.855ZM1129 396.814V406.254H1127.68V402.053H1125.61V406.166H1124.3V397.096H1125.61V400.893H1127.68V396.814H1129ZM1129 407.115V412.424H1127.64V408.258H1118.47V407.115H1129Z" fill="#666666"/>
<circle cx="1035.5" cy="439.5" r="2.5" fill="#3649D8"/>
<path d="M1062.36 431.797V447.424H1061.02V431.797H1062.36ZM1059.16 432.184V446.615H1057.84V438.934H1054.43V437.773H1057.84V432.184H1059.16ZM1055.49 433.73V434.873H1050.93V442.502C1053.18 442.493 1054.61 442.396 1056.29 442.027L1056.44 443.205C1054.62 443.574 1053.1 443.645 1050.58 443.662H1049.6V433.73H1055.49ZM1077.42 431.797V447.459H1076.04V431.797H1077.42ZM1069.11 433.01C1071.43 433.027 1073.1 435.137 1073.1 438.459C1073.1 441.781 1071.43 443.891 1069.11 443.891C1066.77 443.891 1065.12 441.781 1065.12 438.459C1065.12 435.137 1066.77 433.027 1069.11 433.01ZM1069.11 434.24C1067.54 434.258 1066.46 435.91 1066.46 438.459C1066.46 441.008 1067.54 442.66 1069.11 442.66C1070.67 442.66 1071.76 441.008 1071.76 438.459C1071.76 435.91 1070.67 434.258 1069.11 434.24ZM1093.05 431.797V447.459H1091.68V438.846H1088.38V437.703H1091.68V431.797H1093.05ZM1088.11 433.238V434.381H1082.21V437.633H1087.43V438.758H1082.21V442.537C1085.08 442.537 1086.91 442.44 1089.06 442.062L1089.22 443.205C1086.95 443.574 1085.04 443.68 1082.01 443.68H1080.82V433.238H1088.11ZM1105.6 434.68C1105.6 436.719 1107.17 438.652 1109.45 439.443L1108.73 440.533C1106.96 439.9 1105.6 438.591 1104.93 436.982C1104.26 438.784 1102.82 440.226 1100.96 440.902L1100.24 439.812C1102.54 438.986 1104.21 436.895 1104.21 434.697V434.012H1100.68V432.887H1109.1V434.012H1105.6V434.68ZM1113.12 441.992V447.424H1111.74V443.135H1102.61V441.992H1113.12ZM1113.12 431.797V441.166H1111.74V437.053H1108.61V435.893H1111.74V431.797H1113.12ZM1129.16 431.797V447.424H1127.82V439.303H1125.69V446.633H1124.38V432.131H1125.69V438.125H1127.82V431.797H1129.16ZM1120.35 436.068C1120.35 438.934 1121.53 441.447 1123.76 442.59L1122.93 443.662C1121.35 442.801 1120.27 441.254 1119.72 439.338C1119.18 441.518 1118.08 443.223 1116.43 444.189L1115.57 443.135C1117.82 441.904 1119.01 439.232 1119.01 436.068V434.82H1115.94V433.66H1123.25V434.82H1120.35V436.068Z" fill="#666666"/>
<circle cx="1035.5" cy="474.5" r="2.5" fill="#3649D8"/>
<path d="M1062.21 466.797V482.424H1060.87V466.797H1062.21ZM1059.01 467.184V481.615H1057.69V473.934H1054.28V472.773H1057.69V467.184H1059.01ZM1055.34 468.73V469.873H1050.78V477.502C1053.03 477.493 1054.46 477.396 1056.15 477.027L1056.29 478.205C1054.48 478.574 1052.95 478.645 1050.43 478.662H1049.45V468.73H1055.34ZM1077.27 466.797V482.459H1075.89V466.797H1077.27ZM1068.96 468.01C1071.28 468.027 1072.95 470.137 1072.95 473.459C1072.95 476.781 1071.28 478.891 1068.96 478.891C1066.62 478.891 1064.97 476.781 1064.97 473.459C1064.97 470.137 1066.62 468.027 1068.96 468.01ZM1068.96 469.24C1067.4 469.258 1066.31 470.91 1066.31 473.459C1066.31 476.008 1067.4 477.66 1068.96 477.66C1070.52 477.66 1071.61 476.008 1071.61 473.459C1071.61 470.91 1070.52 469.258 1068.96 469.24ZM1092.9 466.797V482.459H1091.53V473.846H1088.23V472.703H1091.53V466.797H1092.9ZM1087.96 468.238V469.381H1082.06V472.633H1087.28V473.758H1082.06V477.537C1084.93 477.537 1086.76 477.44 1088.91 477.062L1089.07 478.205C1086.8 478.574 1084.89 478.68 1081.86 478.68H1080.67V468.238H1087.96ZM1105.87 481H1104.22L1108.88 468.273H1110.55L1115.21 481H1113.54L1112.27 477.414H1107.16L1105.87 481ZM1107.63 476.025H1111.78L1109.76 470.33H1109.65L1107.63 476.025ZM1116.93 481V468.273H1121.25C1124.24 468.273 1125.6 470.049 1125.6 472.316C1125.6 474.566 1124.24 476.377 1121.27 476.377H1118.51V481H1116.93ZM1118.51 474.971H1121.2C1123.22 474.971 1124.03 473.828 1124.03 472.316C1124.03 470.787 1123.22 469.68 1121.18 469.68H1118.51V474.971ZM1129.39 468.273V481H1127.81V468.273H1129.39Z" fill="#666666"/>
<mask id="path-49-inside-7_198_3936" fill="white">
<path d="M415 215C415 210.582 418.582 207 423 207H607C611.418 207 615 210.582 615 215V260H415V215Z"/>
</mask>
<path d="M415 215C415 210.582 418.582 207 423 207H607C611.418 207 615 210.582 615 215V260H415V215Z" fill="#000B6C"/>
<path d="M414 215C414 210.029 418.029 206 423 206H607C611.971 206 616 210.029 616 215H614C614 211.134 610.866 208 607 208H423C419.134 208 416 211.134 416 215H414ZM615 260H415H615ZM414 260V215C414 210.029 418.029 206 423 206V208C419.134 208 416 211.134 416 215V260H414ZM607 206C611.971 206 616 210.029 616 215V260H614V215C614 211.134 610.866 208 607 208V206Z" fill="#000B6C" mask="url(#path-49-inside-7_198_3936)"/>
<path d="M481.707 226.201V227.59C481.707 228.847 481.707 230.183 481.391 231.809H483.359V233.584H468.84V231.809H479.158C479.246 231.325 479.308 230.877 479.369 230.455L470.404 230.807L470.158 229.084L479.475 228.891V227.959H470.598V226.201H481.707ZM481.777 234.533V238.734H472.672V239.719H482.34V241.441H470.439V237.117H479.545V236.238H470.422V234.533H481.777ZM496.982 225.621V231.668H499.338V233.514H496.982V241.652H494.768V225.621H496.982ZM492.412 226.957V233.162H487.262V236.062C489.591 236.054 491.516 235.948 493.643 235.588L493.836 237.381C491.393 237.82 489.195 237.926 486.383 237.926H485.029V231.387H490.18V228.768H485.012V226.957H492.412ZM514.543 234.568V236.396H508.285V241.635H506.07V236.396H499.9V234.568H514.543ZM507.178 226.148C510.605 226.148 513.014 227.572 513.014 229.787C513.014 231.967 510.605 233.355 507.178 233.355C503.75 233.355 501.359 231.967 501.377 229.787C501.359 227.572 503.75 226.148 507.178 226.148ZM507.178 227.941C505.033 227.941 503.662 228.609 503.68 229.787C503.662 230.93 505.033 231.58 507.178 231.58C509.34 231.58 510.693 230.93 510.693 229.787C510.693 228.609 509.34 227.941 507.178 227.941ZM528.518 233.021V234.814H517.197V226.957H528.395V228.768H519.412V233.021H528.518ZM530.117 237.82V239.666H515.475V237.82H530.117ZM544.689 225.639V241.617H542.404V238.084H539.152V236.396H542.404V225.639H544.689ZM530.961 233.742C533.949 233.742 537.939 233.725 541.385 233.268L541.508 234.902C540.102 235.157 538.651 235.315 537.236 235.412V241.143H534.969V235.518C533.642 235.562 532.385 235.57 531.242 235.57L530.961 233.742ZM536.199 226.271C538.555 226.271 540.295 227.643 540.312 229.559C540.295 231.527 538.555 232.828 536.199 232.828C533.809 232.828 532.086 231.527 532.086 229.559C532.086 227.643 533.809 226.271 536.199 226.271ZM536.199 227.977C535.004 227.977 534.195 228.592 534.195 229.559C534.195 230.561 535.004 231.123 536.199 231.123C537.359 231.123 538.168 230.561 538.186 229.559C538.168 228.592 537.359 227.977 536.199 227.977ZM554.797 227.15C554.779 232.072 553.461 236.203 547.695 239.191L546.465 237.504C548.996 236.168 550.569 234.683 551.492 232.916L546.852 233.338L546.553 231.439L552.195 231.105C552.38 230.429 552.494 229.708 552.564 228.943H547.414V227.15H554.797ZM560.07 225.621V241.617H557.838V233.602H554.762V231.773H557.838V225.621H560.07Z" fill="white"/>
<mask id="path-52-inside-8_198_3936" fill="white">
<path d="M415 260H615V305C615 309.418 611.418 313 607 313H423C418.582 313 415 309.418 415 305V260Z"/>
</mask>
<path d="M415 260H615V305C615 309.418 611.418 313 607 313H423C418.582 313 415 309.418 415 305V260Z" fill="white"/>
<path d="M415 260H615H415ZM616 305C616 309.971 611.971 314 607 314H423C418.029 314 414 309.971 414 305H416C416 308.866 419.134 312 423 312H607C610.866 312 614 308.866 614 305H616ZM423 314C418.029 314 414 309.971 414 305V260H416V305C416 308.866 419.134 312 423 312V314ZM616 260V305C616 309.971 611.971 314 607 314V312C610.866 312 614 308.866 614 305V260H616Z" fill="#000B6C" mask="url(#path-52-inside-8_198_3936)"/>
<path d="M480.248 278.744V294.494H478.631V278.744H480.248ZM476.996 279.078V293.703H475.414V286.057H472.18V284.668H475.414V279.078H476.996ZM473.252 280.625V281.996H468.91V289.396C470.976 289.379 472.364 289.291 473.99 288.939L474.131 290.346C472.32 290.715 470.773 290.785 468.312 290.785H467.275V280.625H473.252ZM495.312 278.744V294.529H493.643V278.744H495.312ZM486.893 279.922C489.23 279.922 490.953 282.066 490.953 285.441C490.953 288.834 489.23 290.979 486.893 290.979C484.52 290.979 482.814 288.834 482.814 285.441C482.814 282.066 484.52 279.922 486.893 279.922ZM486.893 281.416C485.434 281.416 484.432 282.963 484.432 285.441C484.432 287.938 485.434 289.484 486.893 289.484C488.334 289.484 489.336 287.938 489.336 285.441C489.336 282.963 488.334 281.416 486.893 281.416ZM510.957 278.744V294.529H509.305V285.934H506.176V284.562H509.305V278.744H510.957ZM505.912 280.15V281.504H500.234V284.562H505.244V285.898H500.234V289.414C502.871 289.405 504.699 289.344 506.791 288.975L506.967 290.328C504.682 290.697 502.695 290.785 499.777 290.803H498.547V280.15H505.912ZM530.047 278.744V284.896H532.578V286.303H530.047V294.529H528.395V278.744H530.047ZM525.6 280.168V285.951H520.08V289.361C522.787 289.353 524.791 289.256 527.094 288.834L527.252 290.188C524.791 290.645 522.664 290.75 519.711 290.768H518.428V284.598H523.947V281.521H518.393V280.168H525.6ZM546.764 278.762V286.988H545.182V278.762H546.764ZM543.6 279.061V286.9H542.035V283.596H540.172V286.32H534.002V279.658H535.584V281.627H538.625V279.658H540.172V282.225H542.035V279.061H543.6ZM546.764 287.691V291.559H537.904V293.035H547.361V294.336H536.234V290.311H545.111V289.01H536.199V287.691H546.764ZM535.584 285.002H538.625V282.893H535.584V285.002ZM561.951 278.762V288.412H560.281V278.762H561.951ZM556.924 279.729V284.193H551.352V286.162C554.103 286.136 556.133 286.057 558.523 285.688L558.734 287.041C556.168 287.463 554.006 287.533 551.035 287.533H549.717V282.91H555.271V281.1H549.682V279.729H556.924ZM556.695 288.711C560.018 288.711 562.057 289.748 562.057 291.594C562.057 293.404 560.018 294.477 556.695 294.459C553.355 294.477 551.334 293.404 551.334 291.594C551.334 289.748 553.355 288.711 556.695 288.711ZM556.695 290.029C554.357 290.029 552.986 290.592 552.986 291.594C552.986 292.596 554.357 293.141 556.695 293.141C559.033 293.141 560.387 292.596 560.387 291.594C560.387 290.592 559.033 290.029 556.695 290.029Z" fill="#666666"/>
<mask id="path-55-inside-9_198_3936" fill="white">
<path d="M668 215C668 210.582 671.582 207 676 207H860C864.418 207 868 210.582 868 215V260H668V215Z"/>
</mask>
<path d="M668 215C668 210.582 671.582 207 676 207H860C864.418 207 868 210.582 868 215V260H668V215Z" fill="#000B6C"/>
<path d="M667 215C667 210.029 671.029 206 676 206H860C864.971 206 869 210.029 869 215H867C867 211.134 863.866 208 860 208H676C672.134 208 669 211.134 669 215H667ZM868 260H668H868ZM667 260V215C667 210.029 671.029 206 676 206V208C672.134 208 669 211.134 669 215V260H667ZM860 206C864.971 206 869 210.029 869 215V260H867V215C867 211.134 863.866 208 860 208V206Z" fill="#000B6C" mask="url(#path-55-inside-9_198_3936)"/>
<path d="M726.542 233.109V234.885H720.354V236.256H724.802V241.441H713.64V236.256H718.122V234.885H711.952V233.109H726.542ZM725.241 226.061V227.854H723.149V230.297H725.136V232.09H713.341V230.297H715.31V227.854H713.235V226.061H725.241ZM715.854 237.996V239.648H722.604V237.996H715.854ZM717.56 230.297H720.899V227.854H717.56V230.297ZM740.886 225.621V233.83H738.653V225.621H740.886ZM740.903 234.463V238.734H732.396V239.789H741.343V241.512H730.198V237.135H738.671V236.168H730.163V234.463H740.903ZM736.966 226.359V228.152H733.767C733.925 229.752 735.12 231.299 737.581 231.949L736.509 233.672C734.654 233.162 733.371 232.09 732.659 230.719C731.921 232.248 730.567 233.452 728.599 234.006L727.579 232.23C730.075 231.545 731.297 229.857 731.446 228.152H728.177V226.359H736.966ZM751.362 226.553C751.362 230.736 748.726 233.637 744.032 234.938L743.153 233.197C746.599 232.266 748.585 230.508 748.972 228.346H744.015V226.553H751.362ZM756.548 225.639V234.586H754.315V231.264H751.468V229.436H754.315V225.639H756.548ZM756.548 235.219V241.424H745.948V235.219H756.548ZM748.146 236.977V239.666H754.333V236.977H748.146ZM767.112 226.869C767.112 228.75 769.028 230.842 772.702 231.299L771.823 233.109C769.028 232.705 766.98 231.413 765.935 229.682C764.88 231.413 762.85 232.705 760.081 233.109L759.185 231.299C762.823 230.842 764.757 228.75 764.757 226.869V226.096H767.112V226.869ZM773.212 234.322V236.15H766.989V241.617H764.774V236.15H758.622V234.322H773.212ZM791.739 225.621V241.652H789.507V225.621H791.739ZM786.782 226.957V233.127H781.509V236.062C783.943 236.054 786.018 235.913 788.364 235.535L788.558 237.346C785.921 237.803 783.548 237.908 780.63 237.908H779.188V231.352H784.497V228.768H779.171V226.957H786.782ZM808.509 234.674V236.484H805.204V241.617H802.954V236.484H799.456V241.617H797.153V236.484H793.866V234.674H808.509ZM797.804 226.219V227.994H804.519V226.219H806.769V233.162H795.589V226.219H797.804ZM797.804 231.387H804.519V229.752H797.804V231.387ZM813.853 226.746C816.015 226.746 817.623 228.53 817.948 231.404H820.726V225.621H822.94V241.652H820.726V233.197H817.966C817.729 236.273 816.085 238.154 813.853 238.154C811.427 238.154 809.687 235.957 809.704 232.441C809.687 228.961 811.427 226.746 813.853 226.746ZM813.853 228.768C812.657 228.768 811.831 230.068 811.849 232.441C811.831 234.832 812.657 236.115 813.853 236.115C815.065 236.115 815.856 234.832 815.856 232.441C815.856 230.068 815.065 228.768 813.853 228.768Z" fill="white"/>
<mask id="path-58-inside-10_198_3936" fill="white">
<path d="M668 260H868V305C868 309.418 864.418 313 860 313H676C671.582 313 668 309.418 668 305V260Z"/>
</mask>
<path d="M668 260H868V305C868 309.418 864.418 313 860 313H676C671.582 313 668 309.418 668 305V260Z" fill="white"/>
<path d="M668 260H868H668ZM869 305C869 309.971 864.971 314 860 314H676C671.029 314 667 309.971 667 305H669C669 308.866 672.134 312 676 312H860C863.866 312 867 308.866 867 305H869ZM676 314C671.029 314 667 309.971 667 305V260H669V305C669 308.866 672.134 312 676 312V314ZM869 260V305C869 309.971 864.971 314 860 314V312C863.866 312 867 308.866 867 305V260H869Z" fill="#000B6C" mask="url(#path-58-inside-10_198_3936)"/>
<path d="M741.026 278.744V294.494H739.409V278.744H741.026ZM737.774 279.078V293.703H736.192V286.057H732.958V284.668H736.192V279.078H737.774ZM734.03 280.625V281.996H729.688V289.396C731.754 289.379 733.143 289.291 734.769 288.939L734.909 290.346C733.099 290.715 731.552 290.785 729.091 290.785H728.054V280.625H734.03ZM756.091 278.744V294.529H754.421V278.744H756.091ZM747.671 279.922C750.009 279.922 751.731 282.066 751.731 285.441C751.731 288.834 750.009 290.979 747.671 290.979C745.298 290.979 743.593 288.834 743.593 285.441C743.593 282.066 745.298 279.922 747.671 279.922ZM747.671 281.416C746.212 281.416 745.21 282.963 745.21 285.441C745.21 287.938 746.212 289.484 747.671 289.484C749.112 289.484 750.114 287.938 750.114 285.441C750.114 282.963 749.112 281.416 747.671 281.416ZM771.735 278.744V294.529H770.083V285.934H766.954V284.562H770.083V278.744H771.735ZM766.69 280.15V281.504H761.013V284.562H766.022V285.898H761.013V289.414C763.649 289.405 765.478 289.344 767.569 288.975L767.745 290.328C765.46 290.697 763.474 290.785 760.556 290.803H759.325V280.15H766.69ZM786.694 279.729C786.694 283.736 783.952 286.584 779.382 287.867L778.696 286.566C782.326 285.547 784.585 283.578 784.919 281.1H779.522V279.729H786.694ZM791.687 278.762V287.674H790.017V284.088H786.765V282.699H790.017V278.762H791.687ZM791.687 288.324V294.283H781.386V288.324H791.687ZM783.021 289.66V292.947H790.034V289.66H783.021ZM802.181 280.133C802.163 282.225 804.729 284.193 807.823 284.598L807.173 285.969C804.598 285.556 802.33 284.22 801.319 282.365C800.282 284.229 798.023 285.556 795.466 285.969L794.798 284.598C797.892 284.193 800.423 282.242 800.44 280.133V279.271H802.181V280.133ZM808.474 287.516V288.887H802.075V294.494H800.44V288.887H794.112V287.516H808.474Z" fill="#666666"/>
<path fill-rule="evenodd" clip-rule="evenodd" d="M347.822 308.415L325 258.207L347.822 208L347.822 232.126H362.818V284.289H347.822L347.822 308.415Z" fill="#E5E5E5"/>
<path fill-rule="evenodd" clip-rule="evenodd" d="M347.822 308.415L325 258.207L347.822 208L347.822 232.126H362.818V284.289H347.822L347.822 308.415Z" fill="#E5E5E5"/>
<path fill-rule="evenodd" clip-rule="evenodd" d="M934.997 308.208L957.818 258L934.997 207.793L934.997 231.919H920V284.082H934.997L934.997 308.208Z" fill="#E5E5E5"/>
<defs>
<linearGradient id="paint0_linear_198_3936" x1="575" y1="90" x2="575" y2="414" gradientUnits="userSpaceOnUse">
<stop stop-color="#D7E5FF"/>
<stop offset="1" stop-color="#8CACE7"/>
</linearGradient>
<linearGradient id="paint1_linear_198_3936" x1="707" y1="414" x2="707" y2="90" gradientUnits="userSpaceOnUse">
<stop stop-color="#D7E5FF"/>
<stop offset="1" stop-color="#8CACE7"/>
</linearGradient>
</defs>
</svg>
