<svg width="160" height="160" viewBox="0 0 160 160" fill="none" xmlns="http://www.w3.org/2000/svg">
<g clip-path="url(#clip0_213_16862)">
<g opacity="0.2">
<path opacity="0.02" d="M58.9261 110.589C59.1079 114.249 70.0526 117.018 83.373 116.774C96.6934 116.53 107.345 113.365 107.163 109.706C106.981 106.046 96.0364 103.277 82.7159 103.521C69.3955 103.765 58.7444 106.929 58.9261 110.589Z" fill="#0F0A26"/>
<path opacity="0.04" d="M59.4476 110.588C59.6264 114.199 70.4334 116.931 83.585 116.69C96.7367 116.449 107.254 113.325 107.074 109.714C106.895 106.103 96.0883 103.371 82.9367 103.612C69.785 103.854 59.268 106.977 59.4476 110.588Z" fill="#0F0A26"/>
<path opacity="0.06" d="M59.969 110.585C60.1457 114.147 70.8142 116.842 83.7978 116.604C96.7814 116.365 107.164 113.284 106.987 109.721C106.81 106.159 96.1417 103.464 83.1581 103.702C70.1745 103.941 59.7923 107.022 59.969 110.585Z" fill="#0F0A26"/>
<path opacity="0.08" d="M60.4905 110.584C60.665 114.098 71.195 116.755 84.0098 116.519C96.8247 116.283 107.072 113.243 106.898 109.729C106.724 106.215 96.1936 103.558 83.3787 103.794C70.5639 104.03 60.3166 107.07 60.4905 110.584Z" fill="#0F0A26"/>
<path opacity="0.1" d="M61.01 110.582C61.1816 114.048 71.5738 116.667 84.2199 116.434C96.8667 116.201 106.979 113.203 106.807 109.738C106.636 106.272 96.2436 103.652 83.5975 103.886C70.9507 104.119 60.8383 107.117 61.01 110.582Z" fill="#0F0A26"/>
<path opacity="0.12" d="M61.5314 110.581C61.7009 113.998 71.9539 116.581 84.4327 116.351C96.9107 116.12 106.889 113.164 106.719 109.746C106.55 106.33 96.297 103.747 83.8182 103.977C71.3402 104.208 61.3619 107.164 61.5314 110.581Z" fill="#0F0A26"/>
<path opacity="0.14" d="M62.0529 110.578C62.2202 113.946 72.3348 116.492 84.6447 116.264C96.9547 116.036 106.798 113.121 106.631 109.752C106.463 106.384 96.3489 103.839 84.0389 104.067C71.7289 104.295 61.8856 107.21 62.0529 110.578Z" fill="#0F0A26"/>
<path opacity="0.16" d="M62.5743 110.577C62.7395 113.896 72.7156 116.404 84.8568 116.179C96.998 115.954 106.707 113.08 106.542 109.761C106.377 106.441 96.4008 103.933 84.2596 104.159C72.1184 104.384 62.4092 107.258 62.5743 110.577Z" fill="#0F0A26"/>
<path opacity="0.18" d="M63.0958 110.576C63.2581 113.847 73.0964 116.318 85.0696 116.095C97.0427 115.873 106.617 113.04 106.455 109.77C106.293 106.499 96.4542 104.028 84.481 104.25C72.5079 104.473 62.9335 107.305 63.0958 110.576Z" fill="#0F0A26"/>
<path opacity="0.2" d="M63.6172 110.575C63.7774 113.797 73.4772 116.23 85.2816 116.01C97.0867 115.79 106.526 113 106.366 109.778C106.206 106.555 96.5061 104.122 84.7017 104.342C72.8973 104.562 63.4571 107.352 63.6172 110.575Z" fill="#0F0A26"/>
<path opacity="0.22" d="M64.1367 110.571C64.2947 113.744 73.8553 116.141 85.4917 115.924C97.128 115.707 106.433 112.958 106.275 109.784C106.117 106.611 96.5568 104.214 84.9205 104.432C73.2841 104.649 63.9788 107.398 64.1367 110.571Z" fill="#0F0A26"/>
<path opacity="0.24" d="M64.6582 110.57C64.814 113.695 74.2362 116.055 85.7045 115.84C97.1728 115.626 106.343 112.918 106.187 109.793C106.032 106.668 96.6095 104.309 85.1412 104.523C73.6729 104.738 64.5024 107.445 64.6582 110.57Z" fill="#0F0A26"/>
<path opacity="0.25" d="M65.1797 110.569C65.3326 113.646 74.617 115.967 85.9165 115.755C97.2161 115.543 106.252 112.878 106.099 109.801C105.946 106.725 96.6614 104.403 85.3619 104.615C74.0624 104.827 65.026 107.492 65.1797 110.569Z" fill="#0F0A26"/>
<path opacity="0.27" d="M65.6999 110.568C65.8506 113.595 74.9966 115.88 86.1273 115.671C97.2588 115.461 106.16 112.837 106.009 109.81C105.858 106.782 96.7121 104.497 85.5806 104.707C74.4492 104.916 65.5477 107.54 65.6992 110.568H65.6999Z" fill="#0F0A26"/>
<path opacity="0.29" d="M66.2225 110.565C66.3711 113.544 75.3786 115.791 86.3413 115.585C97.304 115.379 106.071 112.796 105.923 109.816C105.774 106.837 96.7667 104.59 85.804 104.796C74.8413 105.003 66.0747 107.586 66.2225 110.565Z" fill="#0F0A26"/>
<path opacity="0.31" d="M66.7421 110.563C66.8885 113.494 75.7575 115.704 86.5514 115.5C97.3461 115.296 105.978 112.755 105.832 109.824C105.686 106.894 96.8167 104.684 86.0227 104.888C75.2281 105.092 66.5964 107.633 66.7421 110.563Z" fill="#0F0A26"/>
<path opacity="0.33" d="M67.2635 110.562C67.407 113.444 76.1375 115.617 86.7642 115.415C97.3901 115.214 105.888 112.715 105.744 109.833C105.601 106.951 96.8701 104.778 86.2434 104.98C75.6175 105.181 67.12 107.68 67.2635 110.562Z" fill="#0F0A26"/>
<path opacity="0.35" d="M67.785 110.559C67.9263 113.393 76.5184 115.528 86.9762 115.33C97.4341 115.131 105.797 112.673 105.655 109.84C105.514 107.006 96.922 104.871 86.4641 105.069C76.0063 105.268 67.6436 107.726 67.785 110.559Z" fill="#0F0A26"/>
<path opacity="0.37" d="M68.3064 110.558C68.4456 113.342 76.8992 115.441 87.1883 115.245C97.4774 115.049 105.706 112.633 105.567 109.848C105.428 107.064 96.9739 104.965 86.6849 105.161C76.3958 105.357 68.1672 107.774 68.3064 110.558Z" fill="#0F0A26"/>
<path opacity="0.39" d="M68.8279 110.557C68.9642 113.292 77.28 115.354 87.401 115.16C97.5221 114.967 105.616 112.592 105.479 109.857C105.343 107.121 97.0273 105.059 86.9063 105.253C76.7852 105.446 68.6916 107.821 68.8279 110.557Z" fill="#0F0A26"/>
<path opacity="0.41" d="M69.3493 110.556C69.4835 113.243 77.6608 115.267 87.6131 115.077C97.5654 114.886 105.525 112.553 105.391 109.865C105.257 107.178 97.0792 105.154 87.127 105.344C77.1747 105.535 69.2152 107.868 69.3493 110.556Z" fill="#0F0A26"/>
<path opacity="0.43" d="M69.8708 110.554C70.0028 113.193 78.0409 115.18 87.8251 114.992C97.6094 114.804 105.434 112.512 105.302 109.874C105.17 107.235 97.1319 105.248 87.3477 105.436C77.5634 105.624 69.7388 107.916 69.8708 110.554Z" fill="#0F0A26"/>
<path opacity="0.45" d="M70.3903 110.551C70.5201 113.141 78.4198 115.091 88.0359 114.905C97.6514 114.72 105.342 112.47 105.212 109.88C105.082 107.29 97.1826 105.34 87.5664 105.526C77.951 105.711 70.2605 107.961 70.3903 110.551Z" fill="#0F0A26"/>
<path opacity="0.47" d="M70.9118 110.55C71.0387 113.092 78.8006 115.004 88.248 114.821C97.6954 114.639 105.251 112.43 105.123 109.889C104.996 107.347 97.2345 105.435 87.7871 105.618C78.3397 105.8 70.7841 108.009 70.9118 110.55Z" fill="#0F0A26"/>
<path opacity="0.49" d="M71.4332 110.549C71.558 113.042 79.1814 114.917 88.46 114.737C97.7387 114.557 105.159 112.39 105.035 109.897C104.91 107.404 97.2865 105.529 88.0078 105.709C78.7292 105.889 71.3084 108.056 71.4332 110.549Z" fill="#0F0A26"/>
<path opacity="0.51" d="M71.9546 110.546C72.0772 112.99 79.5622 114.827 88.6728 114.65C97.7834 114.472 105.069 112.347 104.947 109.903C104.825 107.459 97.3398 105.621 88.2292 105.799C79.1186 105.977 71.8327 108.102 71.9546 110.546Z" fill="#0F0A26"/>
<path opacity="0.53" d="M72.4761 110.545C72.5965 112.94 79.9423 114.741 88.8848 114.566C97.8267 114.391 104.978 112.308 104.859 109.912C104.738 107.517 97.3925 105.716 88.4499 105.891C79.5081 106.065 72.3564 108.149 72.4761 110.545Z" fill="#0F0A26"/>
<path opacity="0.55" d="M72.9975 110.543C73.1151 112.89 80.3231 114.653 89.0969 114.482C97.8707 114.31 104.888 112.268 104.77 109.921C104.652 107.574 97.4444 105.81 88.6706 105.982C79.8969 106.154 72.88 108.196 72.9975 110.543Z" fill="#0F0A26"/>
<path opacity="0.57" d="M73.5171 110.542C73.6325 112.841 80.702 114.566 89.3077 114.397C97.9127 114.227 104.795 112.226 104.68 109.929C104.565 107.63 97.4951 105.904 88.8894 106.074C80.2844 106.244 73.4017 108.244 73.5171 110.542Z" fill="#0F0A26"/>
<path opacity="0.59" d="M74.0385 110.539C74.1517 112.789 81.0828 114.478 89.5198 114.311C97.9567 114.144 104.705 112.186 104.591 109.935C104.478 107.686 97.5471 105.997 89.1101 106.164C80.6731 106.33 73.9253 108.289 74.0385 110.539Z" fill="#0F0A26"/>
<path opacity="0.61" d="M74.56 110.538C74.6703 112.739 81.4636 114.39 89.7318 114.226C98.0007 114.063 104.614 112.145 104.503 109.944C104.392 107.743 97.599 106.092 89.3308 106.255C81.0619 106.419 74.4489 108.337 74.56 110.538Z" fill="#0F0A26"/>
<path opacity="0.63" d="M75.0814 110.537C75.1896 112.689 81.8444 114.303 89.9446 114.141C98.0447 113.98 104.524 112.104 104.415 109.952C104.307 107.799 97.6524 106.185 89.5522 106.347C81.4521 106.509 74.9732 108.384 75.0814 110.537Z" fill="#0F0A26"/>
<path opacity="0.65" d="M75.6029 110.536C75.7089 112.64 82.2245 114.216 90.1566 114.058C98.0887 113.899 104.433 112.064 104.327 109.961C104.221 107.857 97.705 106.28 89.7729 106.439C81.8408 106.598 75.4969 108.432 75.6029 110.536Z" fill="#0F0A26"/>
<path opacity="0.67" d="M76.1224 110.534C76.2262 112.59 82.6034 114.129 90.3667 113.973C98.13 113.817 104.34 112.025 104.236 109.969C104.132 107.914 97.755 106.375 89.9917 106.53C82.2283 106.686 76.0185 108.479 76.1224 110.534Z" fill="#0F0A26"/>
<path opacity="0.69" d="M76.6438 110.532C76.7448 112.538 82.9842 114.041 90.5795 113.888C98.1748 113.734 104.25 111.983 104.148 109.976C104.047 107.97 97.8077 106.467 90.2124 106.62C82.6171 106.774 76.5421 108.525 76.6438 110.532Z" fill="#0F0A26"/>
<path opacity="0.71" d="M77.1653 110.53C77.2641 112.488 83.365 113.953 90.7915 113.803C98.218 113.652 104.158 111.942 104.059 109.984C103.96 108.026 97.8596 106.561 90.4331 106.712C83.0065 106.863 77.0665 108.572 77.1653 110.53Z" fill="#0F0A26"/>
<path opacity="0.73" d="M77.6867 110.529C77.7834 112.438 83.7458 113.866 91.0036 113.718C98.262 113.57 104.067 111.902 103.971 109.993C103.874 108.083 97.9115 106.656 90.6538 106.804C83.3953 106.951 77.5901 108.619 77.6867 110.529Z" fill="#0F0A26"/>
<path opacity="0.75" d="M78.2082 110.526C78.3027 112.387 84.1259 113.777 91.2163 113.632C98.306 113.487 103.977 111.861 103.883 109.999C103.789 108.139 97.9656 106.748 90.8752 106.893C83.7855 107.039 78.1144 108.665 78.2082 110.526Z" fill="#0F0A26"/>
<path opacity="0.76" d="M78.7296 110.525C78.8212 112.337 84.5067 113.69 91.4284 113.547C98.35 113.404 103.886 111.82 103.795 110.007C103.703 108.195 98.0175 106.842 91.0959 106.985C84.1742 107.128 78.638 108.713 78.7296 110.525Z" fill="#0F0A26"/>
<path opacity="0.78" d="M79.2511 110.523C79.3405 112.287 84.8875 113.603 91.6404 113.463C98.3933 113.323 103.795 111.779 103.706 110.016C103.616 108.252 98.0695 106.937 91.3166 107.077C84.5637 107.217 79.1617 108.76 79.2511 110.523Z" fill="#0F0A26"/>
<path opacity="0.8" d="M79.7706 110.521C79.8579 112.236 85.2664 113.514 91.8512 113.377C98.4361 113.239 103.703 111.738 103.616 110.023C103.529 108.308 98.1202 107.029 91.5353 107.166C84.9505 107.304 79.6833 108.805 79.7706 110.521Z" fill="#0F0A26"/>
<path opacity="0.82" d="M80.2921 110.519C80.3772 112.186 85.6472 113.427 92.0633 113.292C98.4794 113.157 103.612 111.697 103.527 110.031C103.442 108.364 98.1721 107.123 91.756 107.258C85.34 107.393 80.207 108.853 80.2921 110.519Z" fill="#0F0A26"/>
<path opacity="0.84" d="M80.8135 110.518C80.8957 112.136 86.0273 113.34 92.2753 113.208C98.5234 113.076 103.522 111.657 103.439 110.04C103.356 108.421 98.2248 107.218 91.9767 107.35C85.7287 107.482 80.7306 108.901 80.8135 110.518Z" fill="#0F0A26"/>
<path opacity="0.86" d="M81.335 110.515C81.415 112.084 86.4081 113.251 92.4881 113.122C98.5674 112.993 103.431 111.616 103.351 110.046C103.271 108.477 98.2781 107.31 92.1982 107.439C86.1189 107.569 81.2549 108.946 81.335 110.515Z" fill="#0F0A26"/>
<path opacity="0.88" d="M81.8564 110.514C81.9343 112.035 86.7889 113.164 92.7001 113.037C98.6114 112.91 103.34 111.575 103.263 110.054C103.185 108.534 98.3301 107.404 92.4189 107.531C86.5076 107.658 81.7785 108.993 81.8564 110.514Z" fill="#0F0A26"/>
<path opacity="0.9" d="M82.3779 110.513C82.4529 111.984 87.1697 113.077 92.9122 112.953C98.6546 112.828 103.249 111.534 103.174 110.063C103.099 108.591 98.382 107.499 92.6395 107.623C86.8971 107.747 82.3029 109.041 82.3779 110.513Z" fill="#0F0A26"/>
<path opacity="0.92" d="M82.8974 110.512C82.9702 111.935 87.5486 112.99 93.123 112.869C98.6974 112.748 103.157 111.495 103.084 110.072C103.011 108.648 98.4327 107.593 92.8583 107.715C87.2839 107.836 82.8245 109.089 82.8974 110.512Z" fill="#0F0A26"/>
<path opacity="0.94" d="M83.4188 110.511C83.4895 111.885 87.9294 112.903 93.335 112.784C98.7407 112.665 103.066 111.455 102.995 110.08C102.925 108.705 98.4846 107.687 93.079 107.806C87.6734 107.925 83.3481 109.136 83.4188 110.511Z" fill="#0F0A26"/>
<path opacity="0.96" d="M83.9403 110.509C84.0088 111.835 88.3095 112.816 93.5471 112.699C98.7847 112.583 102.975 111.414 102.907 110.088C102.839 108.763 98.538 107.782 93.3004 107.898C88.0628 108.014 83.8725 109.183 83.9403 110.509Z" fill="#0F0A26"/>
<path opacity="0.98" d="M84.4617 110.506C84.5274 111.784 88.6903 112.727 93.7598 112.614C98.8287 112.5 102.885 111.372 102.819 110.095C102.754 108.818 98.5907 107.874 93.5211 107.988C88.4523 108.101 84.3961 109.229 84.4617 110.506Z" fill="#0F0A26"/>
<path d="M93.8976 112.535C98.7987 112.434 102.751 111.355 102.726 110.126C102.701 108.896 98.7071 107.982 93.806 108.083C88.9048 108.184 84.9522 109.262 84.9775 110.492C85.0028 111.721 88.9964 112.636 93.8976 112.535Z" fill="#0F0A26"/>
</g>
<path d="M94.8867 69.918L123.999 86.3567L94.8867 102.795L65.7734 86.3567L94.8867 69.918Z" fill="url(#paint0_linear_213_16862)"/>
<path d="M123.999 86.3574V99.7174L94.8867 116.155V102.795L123.999 86.3574Z" fill="url(#paint1_linear_213_16862)"/>
<path d="M65.7734 86.3574L94.8867 102.795V116.155L65.7734 99.7174V86.3574Z" fill="url(#paint2_linear_213_16862)"/>
<path d="M118.552 94.6113V99.267L102.582 108.273V107.443L117.876 98.8101V95.001L118.552 94.6113Z" fill="url(#paint3_linear_213_16862)"/>
<path d="M117.876 95.002V98.8111L102.582 107.444V103.636L117.876 95.002Z" fill="url(#paint4_linear_213_16862)"/>
<path d="M117.875 98.8101L118.552 99.267V94.6113L117.875 95.001V98.8101Z" fill="#415191"/>
<path d="M67.7871 92.7832V96.3744L80.1079 103.323V102.683L68.3093 96.0222V93.0834L67.7871 92.7832Z" fill="url(#paint5_linear_213_16862)"/>
<path d="M68.3086 93.084V96.0227L80.1072 102.683V99.7445L68.3086 93.084Z" fill="url(#paint6_linear_213_16862)"/>
<path d="M68.3093 96.0222L67.7871 96.3744V92.7832L68.3093 93.0834V96.0222Z" fill="#415191"/>
<path d="M107.446 102.34L106.287 103.007V102.577L107.446 101.91V102.34Z" fill="#2D3D70"/>
<path d="M108.97 101.465L107.811 102.132V101.701L108.97 101.035V101.465Z" fill="#2D3D70"/>
<path d="M110.496 100.588L109.336 101.254V100.824L110.496 100.158V100.588Z" fill="#2D3D70"/>
<path d="M112.019 99.7133L110.859 100.379V99.9493L112.019 99.2832V99.7133Z" fill="#2D3D70"/>
<path d="M113.543 98.8364L112.383 99.5025V99.0724L113.543 98.4062V98.8364Z" fill="#2D3D70"/>
<path d="M107.446 103.024L106.287 103.691V103.261L107.446 102.594V103.024Z" fill="#2D3D70"/>
<path d="M108.97 102.149L107.811 102.816V102.386L108.97 101.719V102.149Z" fill="#2D3D70"/>
<path d="M110.496 101.272L109.336 101.939V101.509L110.496 100.842V101.272Z" fill="#2D3D70"/>
<path d="M112.019 100.397L110.859 101.064V100.634L112.019 99.9668V100.397Z" fill="#2D3D70"/>
<path d="M113.543 99.52L112.383 100.187V99.7567L113.543 99.0898V99.52Z" fill="#2D3D70"/>
<path d="M107.446 103.711L106.287 104.378V103.947L107.446 103.281V103.711Z" fill="#2D3D70"/>
<path d="M108.97 102.835L107.811 103.501V103.071L108.97 102.404V102.835Z" fill="#2D3D70"/>
<path d="M110.496 101.957L109.336 102.624V102.194L110.496 101.527V101.957Z" fill="#2D3D70"/>
<path d="M112.019 101.082L110.859 101.749V101.319L112.019 100.652V101.082Z" fill="#2D3D70"/>
<path d="M113.543 100.206L112.383 100.872V100.442L113.543 99.7754V100.206Z" fill="#2D3D70"/>
<path d="M69.872 96.1531L69.6816 96.0456V94.7285L69.872 94.8361V96.1531Z" fill="#2D3D70"/>
<path d="M70.3049 96.4L70.1152 96.2917V94.9746L70.3049 95.0829V96.4Z" fill="#2D3D70"/>
<path d="M70.7373 96.6453L70.5469 96.5378V95.2207L70.7373 95.3282V96.6453Z" fill="#2D3D70"/>
<path d="M71.1702 96.8902L70.9805 96.7819V95.4648L71.1702 95.5731V96.8902Z" fill="#2D3D70"/>
<path d="M71.6045 97.1356L71.4141 97.028V95.7109L71.6045 95.8185V97.1356Z" fill="#2D3D70"/>
<path d="M72.0373 97.3824L71.8477 97.2741V95.957L72.0373 96.0646V97.3824Z" fill="#2D3D70"/>
<path d="M72.4697 97.6285L72.2793 97.5209V96.2031L72.4697 96.3114V97.6285Z" fill="#2D3D70"/>
<path d="M72.9026 97.8746L72.7129 97.7663V96.4492L72.9026 96.5568V97.8746Z" fill="#2D3D70"/>
<path d="M73.3369 98.1187L73.1465 98.0105V96.6934L73.3369 96.8016V98.1187Z" fill="#2D3D70"/>
<path d="M73.7698 98.3641L73.5801 98.2565V96.9395L73.7698 97.047V98.3641Z" fill="#2D3D70"/>
<path d="M74.2021 98.6109L74.0117 98.5026V97.1855L74.2021 97.2938V98.6109Z" fill="#2D3D70"/>
<path d="M74.635 98.8563L74.4453 98.7487V97.4316L74.635 97.5392V98.8563Z" fill="#2D3D70"/>
<path d="M75.0693 99.1011L74.8789 98.9929V97.6758L75.0693 97.784V99.1011Z" fill="#2D3D70"/>
<path d="M75.5022 99.3465L75.3125 99.239V97.9219L75.5022 98.0294V99.3465Z" fill="#2D3D70"/>
<path d="M75.9345 99.5933L75.7441 99.4851V98.168L75.9345 98.2762V99.5933Z" fill="#2D3D70"/>
<path d="M76.3674 99.8387L76.1777 99.7312V98.4141L76.3674 98.5216V99.8387Z" fill="#2D3D70"/>
<path d="M76.8017 100.086L76.6113 99.9772V98.6602L76.8017 98.7684V100.086Z" fill="#2D3D70"/>
<path d="M77.2346 100.331L77.0449 100.223V98.9062L77.2346 99.0138V100.331Z" fill="#2D3D70"/>
<path d="M77.667 100.576L77.4766 100.467V99.1504L77.667 99.2579V100.576Z" fill="#2D3D70"/>
<path d="M84.2561 104.57L84.0664 104.462V103.145L84.2561 103.253V104.57Z" fill="#2D3D70"/>
<path d="M84.6904 104.815L84.5 104.708V103.391L84.6904 103.498V104.815Z" fill="#2D3D70"/>
<path d="M85.1213 105.062L84.9316 104.954V103.637L85.1213 103.744V105.062Z" fill="#2D3D70"/>
<path d="M85.5556 105.306L85.3652 105.199V103.881L85.5556 103.989V105.306Z" fill="#2D3D70"/>
<path d="M85.9885 105.552L85.7988 105.444V104.127L85.9885 104.234V105.552Z" fill="#2D3D70"/>
<path d="M86.4228 105.798L86.2324 105.69V104.373L86.4228 104.481V105.798Z" fill="#2D3D70"/>
<path d="M86.8537 106.044L86.6641 105.936V104.619L86.8537 104.727V106.044Z" fill="#2D3D70"/>
<path d="M87.2881 106.291L87.0977 106.182V104.865L87.2881 104.973V106.291Z" fill="#2D3D70"/>
<path d="M87.7209 106.536L87.5312 106.428V105.111L87.7209 105.219V106.536Z" fill="#2D3D70"/>
<path d="M88.1552 106.781L87.9648 106.673V105.355L88.1552 105.464V106.781Z" fill="#2D3D70"/>
<path d="M88.5862 107.026L88.3965 106.919V105.602L88.5862 105.709V107.026Z" fill="#2D3D70"/>
<path d="M89.0205 107.273L88.8301 107.165V105.848L89.0205 105.956V107.273Z" fill="#2D3D70"/>
<path d="M89.4534 107.518L89.2637 107.411V106.094L89.4534 106.201V107.518Z" fill="#2D3D70"/>
<path d="M89.8877 107.763L89.6973 107.655V106.338L89.8877 106.446V107.763Z" fill="#2D3D70"/>
<path d="M90.3186 108.009L90.1289 107.901V106.584L90.3186 106.692V108.009Z" fill="#2D3D70"/>
<path d="M90.7529 108.255L90.5625 108.147V106.83L90.7529 106.938V108.255Z" fill="#2D3D70"/>
<path d="M91.1858 108.502L90.9961 108.394V107.076L91.1858 107.184V108.502Z" fill="#2D3D70"/>
<path d="M91.6201 108.747L91.4297 108.639V107.322L91.6201 107.43V108.747Z" fill="#2D3D70"/>
<path d="M92.051 108.992L91.8613 108.883V107.566L92.051 107.675V108.992Z" fill="#2D3D70"/>
<path d="M94.886 102.625L65.9242 86.2715L65.7734 86.3574L94.886 102.795L123.998 86.3574L123.848 86.2715L94.886 102.625Z" fill="white"/>
<path d="M94.8867 54.9453L123.999 71.3834L94.8867 87.8221L65.7734 71.3834L94.8867 54.9453Z" fill="url(#paint7_linear_213_16862)"/>
<path d="M123.999 71.3828V84.7428L94.8867 101.182V87.8216L123.999 71.3828Z" fill="url(#paint8_linear_213_16862)"/>
<path d="M65.7734 71.3828L94.8867 87.8216V101.182L65.7734 84.7428V71.3828Z" fill="url(#paint9_linear_213_16862)"/>
<path d="M118.552 79.6387V84.2943L102.582 93.2996V92.4704L117.876 83.8368V80.0277L118.552 79.6387Z" fill="url(#paint10_linear_213_16862)"/>
<path d="M117.876 80.0273V83.8365L102.582 92.4701V88.661L117.876 80.0273Z" fill="url(#paint11_linear_213_16862)"/>
<path d="M117.875 83.8368L118.552 84.2943V79.6387L117.875 80.0277V83.8368Z" fill="#415191"/>
<path d="M67.7871 77.8105V81.4024L80.1079 88.3502V87.7108L68.3093 81.0495V78.1115L67.7871 77.8105Z" fill="url(#paint12_linear_213_16862)"/>
<path d="M68.3086 78.1113V81.0493L80.1072 87.7106V84.7718L68.3086 78.1113Z" fill="url(#paint13_linear_213_16862)"/>
<path d="M68.3093 81.0495L67.7871 81.4024V77.8105L68.3093 78.1115V81.0495Z" fill="#415191"/>
<path d="M107.446 87.3696L106.287 88.0357V87.6056L107.446 86.9395V87.3696Z" fill="#2D3D70"/>
<path d="M108.97 86.4926L107.811 87.1588V86.7286L108.97 86.0625V86.4926Z" fill="#2D3D70"/>
<path d="M110.496 85.6176L109.336 86.2838V85.8536L110.496 85.1875V85.6176Z" fill="#2D3D70"/>
<path d="M112.019 84.7414L110.859 85.4075V84.9774L112.019 84.3105V84.7414Z" fill="#2D3D70"/>
<path d="M113.543 83.8637L112.383 84.5306V84.1004L113.543 83.4336V83.8637Z" fill="#2D3D70"/>
<path d="M107.446 88.0532L106.287 88.7193V88.2892L107.446 87.623V88.0532Z" fill="#2D3D70"/>
<path d="M108.97 87.1782L107.811 87.8443V87.4142L108.97 86.748V87.1782Z" fill="#2D3D70"/>
<path d="M110.496 86.3012L109.336 86.9673V86.5372L110.496 85.8711V86.3012Z" fill="#2D3D70"/>
<path d="M112.019 85.4262L110.859 86.0923V85.6622L112.019 84.9961V85.4262Z" fill="#2D3D70"/>
<path d="M113.543 84.5493L112.383 85.2154V84.7853L113.543 84.1191V84.5493Z" fill="#2D3D70"/>
<path d="M107.446 88.7368L106.287 89.4036V88.9735L107.446 88.3066V88.7368Z" fill="#2D3D70"/>
<path d="M108.97 87.8618L107.811 88.5286V88.0985L108.97 87.4316V87.8618Z" fill="#2D3D70"/>
<path d="M110.496 86.9848L109.336 87.6517V87.2215L110.496 86.5547V86.9848Z" fill="#2D3D70"/>
<path d="M112.019 86.1098L110.859 86.7767V86.3465L112.019 85.6797V86.1098Z" fill="#2D3D70"/>
<path d="M113.543 85.2329L112.383 85.899V85.4689L113.543 84.8027V85.2329Z" fill="#2D3D70"/>
<path d="M69.872 81.1793L69.6816 81.071V79.7539L69.872 79.8622V81.1793Z" fill="#2D3D70"/>
<path d="M70.3049 81.4246L70.1152 81.3171V80L70.3049 80.1075V81.4246Z" fill="#2D3D70"/>
<path d="M70.7373 81.6714L70.5469 81.5632V80.2461L70.7373 80.3543V81.6714Z" fill="#2D3D70"/>
<path d="M71.1702 81.9168L70.9805 81.8093V80.4922L71.1702 80.5997V81.9168Z" fill="#2D3D70"/>
<path d="M71.6045 82.1617L71.4141 82.0534V80.7363L71.6045 80.8446V82.1617Z" fill="#2D3D70"/>
<path d="M72.0373 82.4071L71.8477 82.2995V80.9824L72.0373 81.09V82.4071Z" fill="#2D3D70"/>
<path d="M72.4697 82.6539L72.2793 82.5456V81.2285L72.4697 81.3368V82.6539Z" fill="#2D3D70"/>
<path d="M72.9026 82.8992L72.7129 82.7917V81.4746L72.9026 81.5821V82.8992Z" fill="#2D3D70"/>
<path d="M73.3369 83.1461L73.1465 83.0378V81.7207L73.3369 81.829V83.1461Z" fill="#2D3D70"/>
<path d="M73.7698 83.3914L73.5801 83.2839V81.9668L73.7698 82.0743V83.3914Z" fill="#2D3D70"/>
<path d="M74.2021 83.6363L74.0117 83.528V82.2109L74.2021 82.3185V83.6363Z" fill="#2D3D70"/>
<path d="M74.635 83.8824L74.4453 83.7748V82.457L74.635 82.5653V83.8824Z" fill="#2D3D70"/>
<path d="M75.0693 84.1277L74.8789 84.0202V82.7031L75.0693 82.8107V84.1277Z" fill="#2D3D70"/>
<path d="M75.5022 84.3726L75.3125 84.2644V82.9473L75.5022 83.0555V84.3726Z" fill="#2D3D70"/>
<path d="M75.9345 84.618L75.7441 84.5105V83.1934L75.9345 83.3009V84.618Z" fill="#2D3D70"/>
<path d="M76.3674 84.8648L76.1777 84.7565V83.4395L76.3674 83.5477V84.8648Z" fill="#2D3D70"/>
<path d="M76.8017 85.1102L76.6113 85.0026V83.6855L76.8017 83.7931V85.1102Z" fill="#2D3D70"/>
<path d="M77.2346 85.357L77.0449 85.2487V83.9316L77.2346 84.0399V85.357Z" fill="#2D3D70"/>
<path d="M77.667 85.6024L77.4766 85.4948V84.1777L77.667 84.2853V85.6024Z" fill="#2D3D70"/>
<path d="M84.2561 89.5965L84.0664 89.489V88.1719L84.2561 88.2794V89.5965Z" fill="#2D3D70"/>
<path d="M84.6904 89.8433L84.5 89.7351V88.418L84.6904 88.5262V89.8433Z" fill="#2D3D70"/>
<path d="M85.1213 90.0887L84.9316 89.9812V88.6641L85.1213 88.7716V90.0887Z" fill="#2D3D70"/>
<path d="M85.5556 90.3336L85.3652 90.2253V88.9082L85.5556 89.0165V90.3336Z" fill="#2D3D70"/>
<path d="M85.9885 90.5789L85.7988 90.4714V89.1543L85.9885 89.2618V90.5789Z" fill="#2D3D70"/>
<path d="M86.4228 90.8257L86.2324 90.7175V89.4004L86.4228 89.5079V90.8257Z" fill="#2D3D70"/>
<path d="M86.8537 91.0718L86.6641 90.9643V89.6465L86.8537 89.7547V91.0718Z" fill="#2D3D70"/>
<path d="M87.2881 91.3172L87.0977 91.2097V89.8926L87.2881 90.0001V91.3172Z" fill="#2D3D70"/>
<path d="M87.7209 91.5621L87.5312 91.4538V90.1367L87.7209 90.245V91.5621Z" fill="#2D3D70"/>
<path d="M88.1552 91.8074L87.9648 91.6999V90.3828L88.1552 90.4903V91.8074Z" fill="#2D3D70"/>
<path d="M88.5862 92.0543L88.3965 91.946V90.6289L88.5862 90.7372V92.0543Z" fill="#2D3D70"/>
<path d="M89.0205 92.2996L88.8301 92.1921V90.875L89.0205 90.9825V92.2996Z" fill="#2D3D70"/>
<path d="M89.4534 92.5445L89.2637 92.4362V91.1191L89.4534 91.2274V92.5445Z" fill="#2D3D70"/>
<path d="M89.8877 92.7899L89.6973 92.6823V91.3652L89.8877 91.4728V92.7899Z" fill="#2D3D70"/>
<path d="M90.3186 93.0367L90.1289 92.9284V91.6113L90.3186 91.7196V93.0367Z" fill="#2D3D70"/>
<path d="M90.7529 93.282L90.5625 93.1745V91.8574L90.7529 91.965V93.282Z" fill="#2D3D70"/>
<path d="M91.1858 93.5289L90.9961 93.4206V92.1035L91.1858 92.2118V93.5289Z" fill="#2D3D70"/>
<path d="M91.6201 93.7742L91.4297 93.6667V92.3496L91.6201 92.4571V93.7742Z" fill="#2D3D70"/>
<path d="M92.051 94.0191L91.8613 93.9108V92.5938L92.051 92.7013V94.0191Z" fill="#2D3D70"/>
<path d="M94.886 87.6524L65.9242 71.2988L65.7734 71.384L94.886 87.8227L123.998 71.384L123.848 71.2988L94.886 87.6524Z" fill="white"/>
<path d="M94.8867 39.9727L123.999 56.4114L94.8867 72.8502L65.7734 56.4114L94.8867 39.9727Z" fill="url(#paint14_linear_213_16862)"/>
<path d="M123.999 56.4121V69.7721L94.8867 86.2109V72.8509L123.999 56.4121Z" fill="url(#paint15_linear_213_16862)"/>
<path d="M65.7734 56.4121L94.8867 72.8509V86.2109L65.7734 69.7721V56.4121Z" fill="url(#paint16_linear_213_16862)"/>
<path d="M118.552 64.666V69.3209L102.582 78.327V77.4978L117.876 68.8641V65.055L118.552 64.666Z" fill="url(#paint17_linear_213_16862)"/>
<path d="M117.876 65.0547V68.8638L102.582 77.4974V73.6883L117.876 65.0547Z" fill="url(#paint18_linear_213_16862)"/>
<path d="M117.875 68.8641L118.552 69.3209V64.666L117.875 65.055V68.8641Z" fill="#415191"/>
<path d="M67.7871 62.8379V66.4298L80.1079 73.3775V72.7374L68.3093 66.0769V63.1381L67.7871 62.8379Z" fill="url(#paint19_linear_213_16862)"/>
<path d="M68.3086 63.1387V66.0774L80.1072 72.7379V69.7999L68.3086 63.1387Z" fill="url(#paint20_linear_213_16862)"/>
<path d="M68.3093 66.0769L67.7871 66.4298V62.8379L68.3093 63.1381V66.0769Z" fill="#415191"/>
<path d="M107.446 72.395L106.287 73.0618V72.6317L107.446 71.9648V72.395Z" fill="#2D3D70"/>
<path d="M108.97 71.52L107.811 72.1868V71.7567L108.97 71.0898V71.52Z" fill="#2D3D70"/>
<path d="M110.496 70.643L109.336 71.3099V70.8797L110.496 70.2129V70.643Z" fill="#2D3D70"/>
<path d="M112.019 69.768L110.859 70.4349V70.0047L112.019 69.3379V69.768Z" fill="#2D3D70"/>
<path d="M113.543 68.8911L112.383 69.5579V69.1278L113.543 68.4609V68.8911Z" fill="#2D3D70"/>
<path d="M107.446 73.0805L106.287 73.7466V73.3165L107.446 72.6504V73.0805Z" fill="#2D3D70"/>
<path d="M108.97 72.2036L107.811 72.8697V72.4396L108.97 71.7734V72.2036Z" fill="#2D3D70"/>
<path d="M110.496 71.3266L109.336 71.9935V71.5633L110.496 70.8965V71.3266Z" fill="#2D3D70"/>
<path d="M112.019 70.4516L110.859 71.1185V70.6883L112.019 70.0215V70.4516Z" fill="#2D3D70"/>
<path d="M113.543 69.5747L112.383 70.2415V69.8114L113.543 69.1445V69.5747Z" fill="#2D3D70"/>
<path d="M107.446 73.7641L106.287 74.4302V74.0001L107.446 73.334V73.7641Z" fill="#2D3D70"/>
<path d="M108.97 72.8891L107.811 73.5552V73.1251L108.97 72.459V72.8891Z" fill="#2D3D70"/>
<path d="M110.496 72.0122L109.336 72.6783V72.2482L110.496 71.582V72.0122Z" fill="#2D3D70"/>
<path d="M112.019 71.1372L110.859 71.8033V71.3732L112.019 70.707V71.1372Z" fill="#2D3D70"/>
<path d="M113.543 70.2602L112.383 70.9263V70.4962L113.543 69.8301V70.2602Z" fill="#2D3D70"/>
<path d="M69.872 66.2086L69.6816 66.1003V64.7832L69.872 64.8907V66.2086Z" fill="#2D3D70"/>
<path d="M70.3049 66.4546L70.1152 66.3471V65.0293L70.3049 65.1376V66.4546Z" fill="#2D3D70"/>
<path d="M70.7373 66.7007L70.5469 66.5925V65.2754L70.7373 65.3829V66.7007Z" fill="#2D3D70"/>
<path d="M71.1702 66.9449L70.9805 66.8366V65.5195L71.1702 65.6278V66.9449Z" fill="#2D3D70"/>
<path d="M71.6045 67.1903L71.4141 67.0827V65.7656L71.6045 65.8732V67.1903Z" fill="#2D3D70"/>
<path d="M72.0373 67.4371L71.8477 67.3288V66.0117L72.0373 66.12V67.4371Z" fill="#2D3D70"/>
<path d="M72.4697 67.6824L72.2793 67.5749V66.2578L72.4697 66.3653V67.6824Z" fill="#2D3D70"/>
<path d="M72.9026 67.9293L72.7129 67.821V66.5039L72.9026 66.6122V67.9293Z" fill="#2D3D70"/>
<path d="M73.3369 68.1746L73.1465 68.0671V66.75L73.3369 66.8575V68.1746Z" fill="#2D3D70"/>
<path d="M73.7698 68.4195L73.5801 68.3112V66.9941L73.7698 67.1024V68.4195Z" fill="#2D3D70"/>
<path d="M74.2021 68.6649L74.0117 68.5573V67.2402L74.2021 67.3478V68.6649Z" fill="#2D3D70"/>
<path d="M74.635 68.9117L74.4453 68.8034V67.4863L74.635 67.5946V68.9117Z" fill="#2D3D70"/>
<path d="M75.0693 69.157L74.8789 69.0495V67.7324L75.0693 67.84V69.157Z" fill="#2D3D70"/>
<path d="M75.5022 69.4019L75.3125 69.2937V67.9766L75.5022 68.0841V69.4019Z" fill="#2D3D70"/>
<path d="M75.9345 69.648L75.7441 69.5405V68.2227L75.9345 68.3309V69.648Z" fill="#2D3D70"/>
<path d="M76.3674 69.8934L76.1777 69.7858V68.4688L76.3674 68.5763V69.8934Z" fill="#2D3D70"/>
<path d="M76.8017 70.1402L76.6113 70.0319V68.7148L76.8017 68.8231V70.1402Z" fill="#2D3D70"/>
<path d="M77.2346 70.3856L77.0449 70.278V68.9609L77.2346 69.0685V70.3856Z" fill="#2D3D70"/>
<path d="M77.667 70.6304L77.4766 70.5222V69.2051L77.667 69.3133V70.6304Z" fill="#2D3D70"/>
<path d="M84.2561 74.6246L84.0664 74.5163V73.1992L84.2561 73.3075V74.6246Z" fill="#2D3D70"/>
<path d="M84.6904 74.8699L84.5 74.7624V73.4453L84.6904 73.5528V74.8699Z" fill="#2D3D70"/>
<path d="M85.1213 75.1168L84.9316 75.0085V73.6914L85.1213 73.7997V75.1168Z" fill="#2D3D70"/>
<path d="M85.5556 75.3621L85.3652 75.2546V73.9375L85.5556 74.045V75.3621Z" fill="#2D3D70"/>
<path d="M85.9885 75.607L85.7988 75.4987V74.1816L85.9885 74.2899V75.607Z" fill="#2D3D70"/>
<path d="M86.4228 75.8524L86.2324 75.7448V74.4277L86.4228 74.5353V75.8524Z" fill="#2D3D70"/>
<path d="M86.8537 76.0992L86.6641 75.9909V74.6738L86.8537 74.7821V76.0992Z" fill="#2D3D70"/>
<path d="M87.2881 76.3445L87.0977 76.237V74.9199L87.2881 75.0275V76.3445Z" fill="#2D3D70"/>
<path d="M87.7209 76.5914L87.5312 76.4831V75.166L87.7209 75.2743V76.5914Z" fill="#2D3D70"/>
<path d="M88.1552 76.8367L87.9648 76.7292V75.4121L88.1552 75.5196V76.8367Z" fill="#2D3D70"/>
<path d="M88.5862 77.0816L88.3965 76.9733V75.6562L88.5862 75.7638V77.0816Z" fill="#2D3D70"/>
<path d="M89.0205 77.3277L88.8301 77.2202V75.9023L89.0205 76.0106V77.3277Z" fill="#2D3D70"/>
<path d="M89.4534 77.5731L89.2637 77.4655V76.1484L89.4534 76.256V77.5731Z" fill="#2D3D70"/>
<path d="M89.8877 77.8179L89.6973 77.7097V76.3926L89.8877 76.5008V77.8179Z" fill="#2D3D70"/>
<path d="M90.3186 78.0633L90.1289 77.9558V76.6387L90.3186 76.7462V78.0633Z" fill="#2D3D70"/>
<path d="M90.7529 78.3101L90.5625 78.2019V76.8848L90.7529 76.993V78.3101Z" fill="#2D3D70"/>
<path d="M91.1858 78.5555L90.9961 78.448V77.1309L91.1858 77.2384V78.5555Z" fill="#2D3D70"/>
<path d="M91.6201 78.8023L91.4297 78.694V77.377L91.6201 77.4852V78.8023Z" fill="#2D3D70"/>
<path d="M92.051 79.0477L91.8613 78.9401V77.623L92.051 77.7306V79.0477Z" fill="#2D3D70"/>
<path d="M94.886 72.6791L65.9242 56.3262L65.7734 56.4113L94.886 72.8501L123.998 56.4113L123.848 56.3262L94.886 72.6791Z" fill="white"/>
<path d="M94.8867 25L123.999 41.4388L94.8867 57.8768L65.7734 41.4388L94.8867 25Z" fill="url(#paint21_linear_213_16862)"/>
<path d="M123.999 41.4395V54.7995L94.8867 71.2375V57.8775L123.999 41.4395Z" fill="url(#paint22_linear_213_16862)"/>
<path d="M65.7734 41.4395L94.8867 57.8775V71.2375L65.7734 54.7995V41.4395Z" fill="url(#paint23_linear_213_16862)"/>
<path d="M118.552 49.6934V54.349L102.582 63.355V62.5251L117.876 53.8922V50.0831L118.552 49.6934Z" fill="url(#paint24_linear_213_16862)"/>
<path d="M117.876 50.084V53.8931L102.582 62.526V58.7176L117.876 50.084Z" fill="url(#paint25_linear_213_16862)"/>
<path d="M117.875 53.8922L118.552 54.349V49.6934L117.875 50.0831V53.8922Z" fill="#415191"/>
<path d="M67.7871 47.8652V51.4564L80.1079 58.4049V57.7647L68.3093 51.1042V48.1655L67.7871 47.8652Z" fill="url(#paint26_linear_213_16862)"/>
<path d="M68.3086 48.166V51.1048L80.1072 57.7653V54.8265L68.3086 48.166Z" fill="url(#paint27_linear_213_16862)"/>
<path d="M68.3093 51.1042L67.7871 51.4564V47.8652L68.3093 48.1655V51.1042Z" fill="#415191"/>
<path d="M107.446 57.4223L106.287 58.0892V57.659L107.446 56.9922V57.4223Z" fill="#2D3D70"/>
<path d="M108.97 56.5473L107.811 57.2134V56.7833L108.97 56.1172V56.5473Z" fill="#2D3D70"/>
<path d="M110.496 55.6704L109.336 56.3365V55.9064L110.496 55.2402V55.6704Z" fill="#2D3D70"/>
<path d="M112.019 54.7954L110.859 55.4615V55.0314L112.019 54.3652V54.7954Z" fill="#2D3D70"/>
<path d="M113.543 53.9184L112.383 54.5845V54.1544L113.543 53.4883V53.9184Z" fill="#2D3D70"/>
<path d="M107.446 58.1059L106.287 58.7728V58.3426L107.446 57.6758V58.1059Z" fill="#2D3D70"/>
<path d="M108.97 57.2309L107.811 57.8978V57.4676L108.97 56.8008V57.2309Z" fill="#2D3D70"/>
<path d="M110.496 56.354L109.336 57.0208V56.5907L110.496 55.9238V56.354Z" fill="#2D3D70"/>
<path d="M112.019 55.479L110.859 56.1458V55.7157L112.019 55.0488V55.479Z" fill="#2D3D70"/>
<path d="M113.543 54.602L112.383 55.2688V54.838L113.543 54.1719V54.602Z" fill="#2D3D70"/>
<path d="M107.446 58.7922L106.287 59.4583V59.0282L107.446 58.3613V58.7922Z" fill="#2D3D70"/>
<path d="M108.97 57.9165L107.811 58.5833V58.1532L108.97 57.4863V57.9165Z" fill="#2D3D70"/>
<path d="M110.496 57.0395L109.336 57.7064V57.2762L110.496 56.6094V57.0395Z" fill="#2D3D70"/>
<path d="M112.019 56.1645L110.859 56.8313V56.4012L112.019 55.7344V56.1645Z" fill="#2D3D70"/>
<path d="M113.543 55.2876L112.383 55.9544V55.5243L113.543 54.8574V55.2876Z" fill="#2D3D70"/>
<path d="M69.872 51.2352L69.6816 51.1276V49.8105L69.872 49.9181V51.2352Z" fill="#2D3D70"/>
<path d="M70.3049 51.482L70.1152 51.3737V50.0566L70.3049 50.1649V51.482Z" fill="#2D3D70"/>
<path d="M70.7373 51.7274L70.5469 51.6198V50.3027L70.7373 50.4103V51.7274Z" fill="#2D3D70"/>
<path d="M71.1702 51.9722L70.9805 51.864V50.5469L71.1702 50.6551V51.9722Z" fill="#2D3D70"/>
<path d="M71.6045 52.2176L71.4141 52.1101V50.793L71.6045 50.9005V52.2176Z" fill="#2D3D70"/>
<path d="M72.0373 52.4644L71.8477 52.3562V51.0391L72.0373 51.1466V52.4644Z" fill="#2D3D70"/>
<path d="M72.4697 52.7105L72.2793 52.603V51.2852L72.4697 51.3934V52.7105Z" fill="#2D3D70"/>
<path d="M72.9026 52.9559L72.7129 52.8483V51.5312L72.9026 51.6388V52.9559Z" fill="#2D3D70"/>
<path d="M73.3369 53.2007L73.1465 53.0925V51.7754L73.3369 51.8836V53.2007Z" fill="#2D3D70"/>
<path d="M73.7698 53.4461L73.5801 53.3386V52.0215L73.7698 52.129V53.4461Z" fill="#2D3D70"/>
<path d="M74.2021 53.6929L74.0117 53.5847V52.2676L74.2021 52.3758V53.6929Z" fill="#2D3D70"/>
<path d="M74.635 53.9383L74.4453 53.8308V52.5137L74.635 52.6212V53.9383Z" fill="#2D3D70"/>
<path d="M75.0693 54.1832L74.8789 54.0749V52.7578L75.0693 52.8661V54.1832Z" fill="#2D3D70"/>
<path d="M75.5022 54.4285L75.3125 54.321V53.0039L75.5022 53.1114V54.4285Z" fill="#2D3D70"/>
<path d="M75.9345 54.6753L75.7441 54.5671V53.25L75.9345 53.3583V54.6753Z" fill="#2D3D70"/>
<path d="M76.3674 54.9207L76.1777 54.8132V53.4961L76.3674 53.6036V54.9207Z" fill="#2D3D70"/>
<path d="M76.8017 55.1675L76.6113 55.0593V53.7422L76.8017 53.8504V55.1675Z" fill="#2D3D70"/>
<path d="M77.2346 55.4129L77.0449 55.3054V53.9883L77.2346 54.0958V55.4129Z" fill="#2D3D70"/>
<path d="M77.667 55.6578L77.4766 55.5495V54.2324L77.667 54.34V55.6578Z" fill="#2D3D70"/>
<path d="M84.2561 59.6519L84.0664 59.5437V58.2266L84.2561 58.3341V59.6519Z" fill="#2D3D70"/>
<path d="M84.6904 59.898L84.5 59.7905V58.4727L84.6904 58.5809V59.898Z" fill="#2D3D70"/>
<path d="M85.1213 60.1434L84.9316 60.0358V58.7188L85.1213 58.8263V60.1434Z" fill="#2D3D70"/>
<path d="M85.5556 60.3882L85.3652 60.28V58.9629L85.5556 59.0711V60.3882Z" fill="#2D3D70"/>
<path d="M85.9885 60.6336L85.7988 60.5261V59.209L85.9885 59.3165V60.6336Z" fill="#2D3D70"/>
<path d="M86.4228 60.8804L86.2324 60.7722V59.4551L86.4228 59.5633V60.8804Z" fill="#2D3D70"/>
<path d="M86.8537 61.1258L86.6641 61.0183V59.7012L86.8537 59.8087V61.1258Z" fill="#2D3D70"/>
<path d="M87.2881 61.3726L87.0977 61.2644V59.9473L87.2881 60.0555V61.3726Z" fill="#2D3D70"/>
<path d="M87.7209 61.618L87.5312 61.5105V60.1934L87.7209 60.3009V61.618Z" fill="#2D3D70"/>
<path d="M88.1552 61.8628L87.9648 61.7546V60.4375L88.1552 60.5458V61.8628Z" fill="#2D3D70"/>
<path d="M88.5862 62.1082L88.3965 62.0007V60.6836L88.5862 60.7911V62.1082Z" fill="#2D3D70"/>
<path d="M89.0205 62.355L88.8301 62.2468V60.9297L89.0205 61.0379V62.355Z" fill="#2D3D70"/>
<path d="M89.4534 62.6004L89.2637 62.4929V61.1758L89.4534 61.2833V62.6004Z" fill="#2D3D70"/>
<path d="M89.8877 62.8453L89.6973 62.737V61.4199L89.8877 61.5275V62.8453Z" fill="#2D3D70"/>
<path d="M90.3186 63.0914L90.1289 62.9838V61.666L90.3186 61.7743V63.0914Z" fill="#2D3D70"/>
<path d="M90.7529 63.3367L90.5625 63.2292V61.9121L90.7529 62.0196V63.3367Z" fill="#2D3D70"/>
<path d="M91.1858 63.5836L90.9961 63.4753V62.1582L91.1858 62.2665V63.5836Z" fill="#2D3D70"/>
<path d="M91.6201 63.8289L91.4297 63.7214V62.4043L91.6201 62.5118V63.8289Z" fill="#2D3D70"/>
<path d="M92.051 64.0738L91.8613 63.9655V62.6484L92.051 62.7567V64.0738Z" fill="#2D3D70"/>
<path d="M94.886 57.7071L65.9242 41.3535L65.7734 41.4394L94.886 57.8774L123.998 41.4394L123.848 41.3535L94.886 57.7071Z" fill="white"/>
<g opacity="0.07">
<path opacity="0.02" d="M35.4237 121.928C35.5709 124.895 44.4442 127.14 55.2432 126.942C66.0422 126.745 74.6775 124.179 74.5304 121.212C74.3832 118.245 65.5099 116 54.7109 116.198C43.9119 116.395 35.2766 118.961 35.4237 121.928Z" fill="#0F0A26"/>
<path opacity="0.04" d="M35.8456 121.925C35.9905 124.853 44.7521 127.068 55.4148 126.872C66.0774 126.677 74.6031 124.145 74.4582 121.217C74.3132 118.289 65.5517 116.074 54.889 116.27C44.2263 116.465 35.7006 118.997 35.8456 121.925Z" fill="#0F0A26"/>
<path opacity="0.06" d="M36.2694 121.924C36.4129 124.812 45.0619 126.997 55.5876 126.803C66.114 126.61 74.5307 124.112 74.3872 121.223C74.2437 118.335 65.5947 116.151 55.069 116.344C44.5426 116.537 36.1259 119.036 36.2694 121.924Z" fill="#0F0A26"/>
<path opacity="0.08" d="M36.6912 121.922C36.8326 124.771 45.3698 126.926 55.7592 126.735C66.1485 126.543 74.4564 124.079 74.315 121.23C74.1736 118.382 65.6364 116.227 55.2471 116.418C44.8577 116.609 36.5499 119.074 36.6912 121.922Z" fill="#0F0A26"/>
<path opacity="0.1" d="M37.115 121.921C37.2542 124.731 45.679 126.855 55.932 126.666C66.185 126.477 74.384 124.046 74.2441 121.237C74.1049 118.427 65.6802 116.303 55.4271 116.492C45.1741 116.681 36.9751 119.112 37.115 121.921Z" fill="#0F0A26"/>
<path opacity="0.12" d="M37.5369 121.921C37.6746 124.69 45.9868 126.785 56.1036 126.598C66.2203 126.411 74.3096 124.014 74.1719 121.244C74.0341 118.474 65.7219 116.379 55.6052 116.566C45.4885 116.753 37.3991 119.15 37.5369 121.921Z" fill="#0F0A26"/>
<path opacity="0.14" d="M37.9587 121.919C38.0943 124.65 46.2947 126.713 56.2744 126.528C66.2541 126.344 74.2345 123.98 74.0989 121.25C73.9633 118.519 65.7629 116.456 55.7833 116.64C45.8036 116.825 37.8231 119.189 37.9587 121.919Z" fill="#0F0A26"/>
<path opacity="0.16" d="M38.3825 121.918C38.516 124.609 46.6046 126.643 56.448 126.46C66.2913 126.278 74.1629 123.948 74.0287 121.257C73.8953 118.566 65.8067 116.532 55.9633 116.715C46.1199 116.897 38.2484 119.227 38.3825 121.918Z" fill="#0F0A26"/>
<path opacity="0.18" d="M38.8044 121.917C38.9364 124.569 46.9118 126.572 56.6188 126.392C66.3259 126.211 74.0878 123.915 73.9558 121.263C73.8238 118.612 65.8484 116.608 56.1414 116.789C46.4343 116.969 38.6724 119.265 38.8044 121.917Z" fill="#0F0A26"/>
<path opacity="0.2" d="M39.2262 121.915C39.3561 124.528 47.2197 126.501 56.7904 126.323C66.3611 126.144 74.0141 123.882 73.8843 121.27C73.7545 118.658 65.8909 116.684 56.3202 116.863C46.7494 117.041 39.0964 119.304 39.2262 121.915Z" fill="#0F0A26"/>
<path opacity="0.22" d="M39.6481 121.914C39.7757 124.487 47.5275 126.43 56.9613 126.254C66.395 126.078 73.939 123.849 73.8114 121.276C73.6837 118.704 65.9319 116.761 56.4982 116.937C47.0645 117.113 39.5204 119.342 39.6481 121.914Z" fill="#0F0A26"/>
<path opacity="0.24" d="M40.0719 121.911C40.1981 124.445 47.8374 126.358 57.1348 126.184C66.4322 126.01 73.8666 123.815 73.7411 121.281C73.6149 118.748 65.9756 116.835 56.6782 117.009C47.3808 117.183 39.9464 119.378 40.0719 121.911Z" fill="#0F0A26"/>
<path opacity="0.25" d="M40.4937 121.91C40.6178 124.404 48.1446 126.286 57.3057 126.114C66.4667 125.943 73.7923 123.781 73.6682 121.288C73.5442 118.794 66.0174 116.911 56.8563 117.083C47.6952 117.255 40.3697 119.416 40.4937 121.91Z" fill="#0F0A26"/>
<path opacity="0.27" d="M40.9175 121.909C41.0394 124.363 48.4544 126.216 57.4792 126.046C66.5032 125.877 73.7199 123.749 73.598 121.295C73.4761 118.84 66.0611 116.988 57.0363 117.157C48.0123 117.327 40.7956 119.454 40.9175 121.909Z" fill="#0F0A26"/>
<path opacity="0.29" d="M41.3394 121.908C41.4598 124.323 48.7623 126.145 57.6501 125.978C66.5378 125.81 73.6455 123.717 73.5251 121.301C73.4046 118.886 66.1022 117.064 57.2144 117.231C48.3267 117.399 41.219 119.492 41.3394 121.908Z" fill="#0F0A26"/>
<path opacity="0.31" d="M41.7612 121.907C41.8795 124.283 49.0702 126.075 57.8209 125.91C66.5723 125.744 73.5705 123.684 73.4522 121.308C73.3339 118.932 66.1432 117.14 57.3925 117.305C48.6411 117.471 41.643 119.531 41.7612 121.907Z" fill="#0F0A26"/>
<path opacity="0.33" d="M42.1831 121.905C42.2999 124.241 49.3774 126.003 57.9925 125.84C66.6076 125.677 73.4968 123.65 73.38 121.314C73.2631 118.978 66.1857 117.217 57.5706 117.38C48.9555 117.543 42.0663 119.569 42.1831 121.905Z" fill="#0F0A26"/>
<path opacity="0.35" d="M42.6069 121.904C42.7216 124.202 49.6872 125.933 58.1653 125.772C66.6434 125.611 73.4237 123.618 73.309 121.321C73.1943 119.024 66.2287 117.293 57.7506 117.454C49.2725 117.615 42.4922 119.607 42.6069 121.904Z" fill="#0F0A26"/>
<path opacity="0.37" d="M43.0287 121.903C43.1413 124.161 49.9951 125.862 58.3369 125.703C66.6787 125.544 73.3493 123.585 73.2368 121.328C73.1243 119.07 66.2704 117.369 57.9287 117.528C49.5869 117.687 42.9162 119.646 43.0287 121.903Z" fill="#0F0A26"/>
<path opacity="0.39" d="M43.4506 121.902C43.5617 124.12 50.303 125.791 58.5078 125.634C66.7132 125.478 73.275 123.552 73.1639 121.335C73.0528 119.117 66.3115 117.445 58.1068 117.602C49.9013 117.759 43.3395 119.684 43.4506 121.902Z" fill="#0F0A26"/>
<path opacity="0.41" d="M43.8744 121.899C43.9833 124.078 50.6122 125.719 58.6813 125.564C66.7497 125.409 73.2026 123.518 73.0937 121.339C72.9848 119.16 66.3559 117.519 58.2868 117.674C50.2184 117.829 43.7655 119.72 43.8744 121.899Z" fill="#0F0A26"/>
<path opacity="0.43" d="M44.2963 121.898C44.403 124.037 50.9201 125.648 58.8522 125.496C66.7843 125.343 73.1282 123.486 73.0208 121.346C72.914 119.207 66.397 117.596 58.4649 117.748C50.5328 117.901 44.1888 119.758 44.2963 121.898Z" fill="#0F0A26"/>
<path opacity="0.45" d="M44.7181 121.896C44.8234 123.997 51.2279 125.577 59.0237 125.426C66.8195 125.276 73.0539 123.452 72.9486 121.352C72.8433 119.252 66.4387 117.672 58.6429 117.822C50.8471 117.973 44.6128 119.797 44.7181 121.896Z" fill="#0F0A26"/>
<path opacity="0.47" d="M45.1419 121.895C45.245 123.956 51.5378 125.506 59.1966 125.358C66.856 125.21 72.9807 123.42 72.8776 121.359C72.7745 119.299 66.4817 117.749 58.823 117.896C51.1635 118.044 45.0388 119.835 45.1419 121.895Z" fill="#0F0A26"/>
<path opacity="0.49" d="M45.5638 121.895C45.6647 123.915 51.845 125.436 59.3681 125.289C66.8906 125.144 72.9071 123.387 72.8061 121.366C72.7051 119.345 66.5249 117.824 59.0017 117.971C51.4793 118.116 45.4628 119.873 45.5638 121.895Z" fill="#0F0A26"/>
<path opacity="0.51" d="M45.9856 121.894C46.0851 123.875 52.1528 125.365 59.539 125.221C66.9251 125.078 72.832 123.354 72.7332 121.372C72.6337 119.391 66.5659 117.901 59.1798 118.045C51.7937 118.188 45.8868 119.912 45.9856 121.894Z" fill="#0F0A26"/>
<path opacity="0.55" d="M46.8313 121.891C46.9265 123.794 52.7706 125.223 59.8834 125.084C66.9962 124.944 72.6853 123.289 72.5901 121.386C72.4948 119.483 66.6507 118.054 59.5379 118.193C52.4251 118.332 46.7361 119.988 46.8313 121.891Z" fill="#0F0A26"/>
<path opacity="0.57" d="M47.2551 121.888C47.3488 123.752 53.0805 125.151 60.0569 125.013C67.0334 124.876 72.6136 123.254 72.5198 121.39C72.4261 119.527 66.6944 118.127 59.718 118.265C52.7415 118.402 47.1613 120.025 47.2551 121.888Z" fill="#0F0A26"/>
<path opacity="0.59" d="M47.6769 121.888C47.7685 123.712 53.3876 125.081 60.2278 124.946C67.068 124.811 72.5385 123.223 72.4469 121.399C72.3553 119.575 66.7362 118.206 59.896 118.341C53.0559 118.476 47.5853 120.065 47.6769 121.888Z" fill="#0F0A26"/>
<path opacity="0.61" d="M48.0988 121.886C48.1882 123.67 53.6955 125.009 60.3994 124.876C67.1032 124.743 72.4641 123.188 72.3747 121.403C72.2853 119.619 66.7779 118.28 60.0741 118.413C53.3702 118.546 48.0093 120.101 48.0988 121.886Z" fill="#0F0A26"/>
<path opacity="0.63" d="M48.5206 121.885C48.6086 123.63 54.0034 124.938 60.5702 124.807C67.1371 124.677 72.3898 123.155 72.3018 121.41C72.2138 119.665 66.819 118.357 60.2522 118.488C53.6854 118.618 48.4326 120.139 48.5206 121.885Z" fill="#0F0A26"/>
<path opacity="0.65" d="M48.9444 121.883C49.0302 123.588 54.3133 124.867 60.7438 124.738C67.1743 124.61 72.3174 123.122 72.2315 121.417C72.1457 119.711 66.8627 118.433 60.4322 118.562C54.0017 118.69 48.8586 120.178 48.9444 121.883Z" fill="#0F0A26"/>
<path opacity="0.67" d="M49.3663 121.882C49.4499 123.548 54.6205 124.796 60.9146 124.67C67.2088 124.544 72.243 123.09 72.1586 121.424C72.075 119.757 66.9045 118.509 60.6103 118.636C54.3161 118.762 49.2819 120.216 49.3663 121.882Z" fill="#0F0A26"/>
<path opacity="0.69" d="M49.7881 121.881C49.8703 123.508 54.9283 124.726 61.0855 124.601C67.2427 124.477 72.1679 123.057 72.0857 121.43C72.0035 119.803 66.9455 118.585 60.7884 118.71C54.6312 118.834 49.7059 120.254 49.7881 121.881Z" fill="#0F0A26"/>
<path opacity="0.71" d="M50.2119 121.879C50.292 123.467 55.2382 124.654 61.259 124.532C67.2799 124.41 72.0955 123.024 72.0155 121.437C71.9354 119.849 66.9892 118.662 60.9684 118.784C54.9475 118.906 50.1319 120.292 50.2119 121.879Z" fill="#0F0A26"/>
<path opacity="0.73" d="M50.6338 121.878C50.7124 123.426 55.5461 124.584 61.4299 124.464C67.3144 124.344 72.0212 122.992 71.9426 121.444C71.864 119.896 67.0303 118.738 61.1465 118.858C55.2619 118.978 50.5552 120.33 50.6338 121.878Z" fill="#0F0A26"/>
<path opacity="0.75" d="M51.0556 121.877C51.1321 123.386 55.8533 124.513 61.6015 124.395C67.3497 124.278 71.9468 122.959 71.8704 121.45C71.7939 119.942 67.0727 118.815 61.3245 118.932C55.5763 119.05 50.9792 120.368 51.0556 121.877Z" fill="#0F0A26"/>
<path opacity="0.76" d="M51.4794 121.875C51.5537 123.344 56.1631 124.441 61.7743 124.325C67.3855 124.21 71.8744 122.925 71.8001 121.455C71.7258 119.986 67.1164 118.889 61.5053 119.004C55.8941 119.12 51.4051 120.405 51.4794 121.875Z" fill="#0F0A26"/>
<path opacity="0.78" d="M51.9013 121.873C51.9741 123.303 56.471 124.369 61.9459 124.256C67.4207 124.143 71.8001 122.891 71.7279 121.462C71.6551 120.032 67.1582 118.965 61.6833 119.079C56.2085 119.192 51.8291 120.443 51.9013 121.873Z" fill="#0F0A26"/>
<path opacity="0.8" d="M52.3231 121.872C52.3938 123.262 56.7789 124.299 62.1167 124.188C67.4553 124.077 71.7257 122.859 71.655 121.469C71.5843 120.079 67.1993 119.042 61.8614 119.153C56.5229 119.264 52.2524 120.481 52.3231 121.872Z" fill="#0F0A26"/>
<path opacity="0.82" d="M52.7469 121.871C52.8154 123.222 57.088 124.229 62.2903 124.119C67.4918 124.01 71.6533 122.826 71.5848 121.475C71.5163 120.124 67.2437 119.117 62.0414 119.227C56.8399 119.336 52.6784 120.52 52.7469 121.871Z" fill="#0F0A26"/>
<path opacity="0.84" d="M53.1688 121.869C53.2358 123.181 57.3959 124.157 62.4611 124.05C67.5263 123.944 71.5782 122.793 71.5119 121.482C71.4448 120.171 67.2847 119.194 62.2195 119.301C57.1543 119.408 53.1024 120.558 53.1688 121.869Z" fill="#0F0A26"/>
<path opacity="0.86" d="M53.5906 121.869C53.6555 123.141 57.7038 124.087 62.6327 123.982C67.5616 123.877 71.5046 122.761 71.4397 121.488C71.3748 120.216 67.3265 119.27 62.3976 119.375C57.4687 119.48 53.5257 120.596 53.5906 121.869Z" fill="#0F0A26"/>
<path opacity="0.88" d="M54.0144 121.868C54.0772 123.1 58.0137 124.016 62.8055 123.914C67.5981 123.811 71.4315 122.728 71.3687 121.495C71.306 120.263 67.3695 119.347 62.5776 119.449C57.785 119.552 53.9517 120.635 54.0144 121.868Z" fill="#0F0A26"/>
<path opacity="0.9" d="M62.9093 123.844C67.5652 123.753 71.3207 122.711 71.2974 121.517C71.2741 120.324 67.4808 119.43 62.8248 119.521C58.1689 119.612 54.4134 120.653 54.4368 121.847C54.4601 123.041 58.2534 123.935 62.9093 123.844Z" fill="#0F0A26"/>
<path opacity="0.92" d="M63.0825 123.777C67.6022 123.688 71.2477 122.68 71.2249 121.525C71.2022 120.371 67.5198 119.507 63.0001 119.596C58.4804 119.685 54.8349 120.694 54.8576 121.848C54.8804 123.003 58.5628 123.866 63.0825 123.777Z" fill="#0F0A26"/>
<path opacity="0.94" d="M63.2529 123.708C67.636 123.621 71.1713 122.646 71.1491 121.531C71.1269 120.416 67.5557 119.583 63.1726 119.67C58.7895 119.757 55.2543 120.732 55.2765 121.847C55.2987 122.962 58.8698 123.795 63.2529 123.708Z" fill="#0F0A26"/>
<path opacity="0.96" d="M63.4396 123.636C67.6861 123.55 71.1109 122.608 71.0891 121.532C71.0674 120.457 67.6073 119.655 63.3608 119.741C59.1143 119.827 55.6895 120.768 55.7113 121.844C55.733 122.919 59.1931 123.722 63.4396 123.636Z" fill="#0F0A26"/>
<path opacity="0.98" d="M63.608 123.569C67.7178 123.485 71.0324 122.577 71.0113 121.541C70.9901 120.505 67.6413 119.733 63.5314 119.817C59.4215 119.901 56.107 120.809 56.1281 121.845C56.1493 122.881 59.4981 123.653 63.608 123.569Z" fill="#0F0A26"/>
<path d="M63.7751 123.502C67.7487 123.42 70.9534 122.546 70.9329 121.549C70.9123 120.552 67.6744 119.811 63.7008 119.893C59.7271 119.975 56.5225 120.849 56.543 121.846C56.5635 122.842 59.8014 123.584 63.7751 123.502Z" fill="#0F0A26"/>
</g>
<path d="M44.1992 76.5036L47.4375 74.6207L62.5863 74.1992L59.348 76.0821L44.1992 76.5036Z" fill="#9B9B9B"/>
<path d="M74.4306 93.9681L74.3815 111.289C74.3793 111.924 74.3505 112.537 74.2978 113.13C74.2942 113.174 74.2885 113.217 74.2841 113.26C74.2322 113.812 74.1587 114.344 74.0649 114.856C74.0534 114.919 74.0396 114.98 74.0281 115.042C73.93 115.545 73.8139 116.03 73.6761 116.491C73.6603 116.545 73.6408 116.595 73.6242 116.648C73.5009 117.044 73.3603 117.419 73.2088 117.781C73.1641 117.889 73.1208 117.998 73.0732 118.102C72.9419 118.392 72.7941 118.662 72.6441 118.929C72.5683 119.064 72.4991 119.209 72.4183 119.339C72.2012 119.687 71.9675 120.013 71.7187 120.314C71.6603 120.386 71.5961 120.449 71.5363 120.518C71.3293 120.753 71.1122 120.972 70.885 121.175C70.8049 121.247 70.7256 121.319 70.6434 121.387C70.3484 121.629 70.0433 121.854 69.7188 122.043L72.9571 120.16C73.2816 119.972 73.586 119.746 73.881 119.505C73.9646 119.436 74.044 119.364 74.1255 119.291C74.3519 119.088 74.5683 118.87 74.7746 118.636C74.8352 118.566 74.8994 118.503 74.9585 118.431C75.1886 118.153 75.4085 117.858 75.6112 117.54C75.6278 117.513 75.6415 117.482 75.6581 117.455C75.7389 117.326 75.8074 117.181 75.8838 117.046C75.9992 116.839 76.1226 116.642 76.2279 116.421C76.2589 116.357 76.2834 116.284 76.3137 116.218C76.3606 116.114 76.4038 116.005 76.4486 115.898C76.5113 115.747 76.5805 115.604 76.6382 115.447C76.7197 115.227 76.7919 114.995 76.864 114.764C76.8806 114.712 76.9001 114.662 76.9159 114.608C76.9231 114.583 76.9332 114.56 76.9404 114.534C77.0234 114.249 77.0991 113.958 77.1676 113.658C77.2051 113.495 77.2354 113.325 77.2679 113.157C77.2801 113.096 77.2931 113.035 77.3047 112.973C77.3148 112.917 77.3285 112.863 77.3378 112.806C77.3854 112.531 77.4273 112.251 77.4633 111.965C77.4871 111.773 77.5052 111.576 77.5239 111.38C77.5282 111.334 77.534 111.291 77.5376 111.245C77.5412 111.207 77.5463 111.169 77.5499 111.13C77.5722 110.856 77.5896 110.577 77.6011 110.294C77.6126 110.019 77.6191 109.739 77.6206 109.456C77.6206 109.44 77.6206 109.423 77.6206 109.407L77.6696 92.0859L74.4313 93.9688L74.4306 93.9681Z" fill="#C5C5C5"/>
<path d="M59 75.8829L62.2383 74L77.3207 91.8858L74.0824 93.7694L59 75.8829Z" fill="#FCFCFC"/>
<path d="M59.3483 76.082L74.4307 93.9685L74.3816 111.289C74.3614 118.423 71.1015 123.01 66.0622 122.987L59.2156 122.968L52.3769 115.081C47.3542 109.29 44.1303 100.958 44.1505 93.8242L44.1995 76.5035L59.3483 76.082Z" fill="url(#paint28_linear_213_16862)"/>
<path d="M70.63 119.438C69.4905 120.813 67.9492 121.567 66.1064 121.567L59.8743 121.55L53.4575 114.141C48.649 108.609 45.5499 100.629 45.5665 93.8228L45.617 77.8972L46.6721 77.8633L46.6382 92.8334C46.605 99.6231 49.7042 107.603 54.5126 113.152L60.9294 120.545L67.1616 120.562C68.4851 120.562 69.6412 120.176 70.6293 119.439L70.63 119.438Z" fill="#C5C5C5"/>
<path d="M73.0086 94.4922L72.9581 111.29C72.9415 114.827 72.1208 117.627 70.6466 119.404C70.6466 119.404 70.63 119.42 70.63 119.438C69.6412 120.175 68.4858 120.561 67.1623 120.561L60.9301 120.544L54.5133 113.151C49.7049 107.602 46.6058 99.622 46.6389 92.8323L46.6728 77.8622L58.7015 77.5273L73.0086 94.4929V94.4922Z" fill="url(#paint29_linear_213_16862)"/>
<path d="M62.3264 105.452L54.8003 101.264C53.5786 100.584 52.584 98.7537 52.584 97.1855V91.6602L54.1995 92.5594V98.0847C54.1995 98.5098 54.4686 99.0056 54.7996 99.1903L62.3257 103.378C62.6567 103.562 62.9257 103.366 62.9257 102.941V97.4157L64.5413 98.3149V103.84C64.5413 105.408 63.5474 106.132 62.3249 105.452L62.3264 105.452Z" fill="white"/>
<path d="M61.0195 95.5489L58.5644 89.8359L56.1094 92.8165L57.5259 93.6046V98.6731L59.6023 99.8285V94.7601L61.0195 95.5489Z" fill="white"/>
<path d="M87.5313 111L81.4737 113.943C80.4654 114.433 80.42 115.853 81.3951 116.407L89.3178 120.905C89.9374 121.256 89.9215 122.155 89.2904 122.484L68.1901 133.502C67.3015 133.966 66.2413 133.964 65.3542 133.495L52.0453 126.463C51.0572 125.941 51.0449 124.529 52.0237 123.991L59.2915 119.988" stroke="#F6921E" stroke-miterlimit="10"/>
</g>
<defs>
<linearGradient id="paint0_linear_213_16862" x1="95.4968" y1="100.944" x2="94.4035" y2="74.8422" gradientUnits="userSpaceOnUse">
<stop stop-color="#F9FCFF"/>
<stop offset="1" stop-color="#E7EDF7"/>
</linearGradient>
<linearGradient id="paint1_linear_213_16862" x1="108.074" y1="111.915" x2="114.819" y2="59.453" gradientUnits="userSpaceOnUse">
<stop stop-color="#A2979B"/>
<stop offset="1" stop-color="#D6D8E1"/>
</linearGradient>
<linearGradient id="paint2_linear_213_16862" x1="73.5786" y1="106.323" x2="111.481" y2="77.9153" gradientUnits="userSpaceOnUse">
<stop stop-color="#C4C6CA"/>
<stop offset="1" stop-color="#E7EDF7"/>
</linearGradient>
<linearGradient id="paint3_linear_213_16862" x1="103.616" y1="106" x2="117.019" y2="97.8702" gradientUnits="userSpaceOnUse">
<stop stop-color="#6773B5"/>
<stop offset="1" stop-color="#A2A6D2"/>
</linearGradient>
<linearGradient id="paint4_linear_213_16862" x1="116.773" y1="102.963" x2="103.684" y2="99.4871" gradientUnits="userSpaceOnUse">
<stop stop-color="#6773B5"/>
<stop offset="1" stop-color="#A2A6D2"/>
</linearGradient>
<linearGradient id="paint5_linear_213_16862" x1="79.3102" y1="101.568" x2="68.97" y2="95.297" gradientUnits="userSpaceOnUse">
<stop stop-color="#6773B5"/>
<stop offset="1" stop-color="#A2A6D2"/>
</linearGradient>
<linearGradient id="paint6_linear_213_16862" x1="69.1589" y1="99.2263" x2="79.2577" y2="96.5441" gradientUnits="userSpaceOnUse">
<stop stop-color="#6773B5"/>
<stop offset="1" stop-color="#A2A6D2"/>
</linearGradient>
<linearGradient id="paint7_linear_213_16862" x1="95.4968" y1="85.9717" x2="94.4035" y2="59.8688" gradientUnits="userSpaceOnUse">
<stop stop-color="#F9FCFF"/>
<stop offset="1" stop-color="#E7EDF7"/>
</linearGradient>
<linearGradient id="paint8_linear_213_16862" x1="106.184" y1="111.671" x2="112.927" y2="59.2089" gradientUnits="userSpaceOnUse">
<stop stop-color="#A2979B"/>
<stop offset="1" stop-color="#D6D8E1"/>
</linearGradient>
<linearGradient id="paint9_linear_213_16862" x1="66.3966" y1="96.7388" x2="104.299" y2="68.331" gradientUnits="userSpaceOnUse">
<stop stop-color="#C4C6CA"/>
<stop offset="1" stop-color="#E7EDF7"/>
</linearGradient>
<linearGradient id="paint10_linear_213_16862" x1="103.616" y1="91.0263" x2="117.019" y2="82.8975" gradientUnits="userSpaceOnUse">
<stop stop-color="#6773B5"/>
<stop offset="1" stop-color="#A2A6D2"/>
</linearGradient>
<linearGradient id="paint11_linear_213_16862" x1="116.773" y1="87.9891" x2="103.684" y2="84.5132" gradientUnits="userSpaceOnUse">
<stop stop-color="#6773B5"/>
<stop offset="1" stop-color="#A2A6D2"/>
</linearGradient>
<linearGradient id="paint12_linear_213_16862" x1="79.3102" y1="86.5965" x2="68.97" y2="80.325" gradientUnits="userSpaceOnUse">
<stop stop-color="#6773B5"/>
<stop offset="1" stop-color="#A2A6D2"/>
</linearGradient>
<linearGradient id="paint13_linear_213_16862" x1="69.1589" y1="84.253" x2="79.2577" y2="81.5715" gradientUnits="userSpaceOnUse">
<stop stop-color="#6773B5"/>
<stop offset="1" stop-color="#A2A6D2"/>
</linearGradient>
<linearGradient id="paint14_linear_213_16862" x1="95.4968" y1="70.9998" x2="94.4035" y2="44.8968" gradientUnits="userSpaceOnUse">
<stop stop-color="#F9FCFF"/>
<stop offset="1" stop-color="#E7EDF7"/>
</linearGradient>
<linearGradient id="paint15_linear_213_16862" x1="104.293" y1="111.429" x2="111.036" y2="58.9673" gradientUnits="userSpaceOnUse">
<stop stop-color="#A2979B"/>
<stop offset="1" stop-color="#D6D8E1"/>
</linearGradient>
<linearGradient id="paint16_linear_213_16862" x1="59.2146" y1="87.1585" x2="97.1162" y2="58.7499" gradientUnits="userSpaceOnUse">
<stop stop-color="#C4C6CA"/>
<stop offset="1" stop-color="#E7EDF7"/>
</linearGradient>
<linearGradient id="paint17_linear_213_16862" x1="103.616" y1="76.0536" x2="117.019" y2="67.9249" gradientUnits="userSpaceOnUse">
<stop stop-color="#6773B5"/>
<stop offset="1" stop-color="#A2A6D2"/>
</linearGradient>
<linearGradient id="paint18_linear_213_16862" x1="116.773" y1="73.0157" x2="103.684" y2="69.5399" gradientUnits="userSpaceOnUse">
<stop stop-color="#6773B5"/>
<stop offset="1" stop-color="#A2A6D2"/>
</linearGradient>
<linearGradient id="paint19_linear_213_16862" x1="79.3102" y1="71.6238" x2="68.97" y2="65.3524" gradientUnits="userSpaceOnUse">
<stop stop-color="#6773B5"/>
<stop offset="1" stop-color="#A2A6D2"/>
</linearGradient>
<linearGradient id="paint20_linear_213_16862" x1="69.1589" y1="69.281" x2="79.2577" y2="66.5995" gradientUnits="userSpaceOnUse">
<stop stop-color="#6773B5"/>
<stop offset="1" stop-color="#A2A6D2"/>
</linearGradient>
<linearGradient id="paint21_linear_213_16862" x1="95.4968" y1="56.0264" x2="94.4035" y2="29.9242" gradientUnits="userSpaceOnUse">
<stop stop-color="#F9FCFF"/>
<stop offset="1" stop-color="#E7EDF7"/>
</linearGradient>
<linearGradient id="paint22_linear_213_16862" x1="102.402" y1="111.185" x2="109.145" y2="58.7237" gradientUnits="userSpaceOnUse">
<stop stop-color="#A2979B"/>
<stop offset="1" stop-color="#D6D8E1"/>
</linearGradient>
<linearGradient id="paint23_linear_213_16862" x1="52.0325" y1="77.5754" x2="89.9342" y2="49.1669" gradientUnits="userSpaceOnUse">
<stop stop-color="#C4C6CA"/>
<stop offset="1" stop-color="#E7EDF7"/>
</linearGradient>
<linearGradient id="paint24_linear_213_16862" x1="103.616" y1="61.0817" x2="117.019" y2="52.9522" gradientUnits="userSpaceOnUse">
<stop stop-color="#6773B5"/>
<stop offset="1" stop-color="#A2A6D2"/>
</linearGradient>
<linearGradient id="paint25_linear_213_16862" x1="116.773" y1="58.045" x2="103.684" y2="54.5692" gradientUnits="userSpaceOnUse">
<stop stop-color="#6773B5"/>
<stop offset="1" stop-color="#A2A6D2"/>
</linearGradient>
<linearGradient id="paint26_linear_213_16862" x1="79.3102" y1="56.6504" x2="68.97" y2="50.379" gradientUnits="userSpaceOnUse">
<stop stop-color="#6773B5"/>
<stop offset="1" stop-color="#A2A6D2"/>
</linearGradient>
<linearGradient id="paint27_linear_213_16862" x1="69.1589" y1="54.3084" x2="79.2577" y2="51.6262" gradientUnits="userSpaceOnUse">
<stop stop-color="#6773B5"/>
<stop offset="1" stop-color="#A2A6D2"/>
</linearGradient>
<linearGradient id="paint28_linear_213_16862" x1="44.1505" y1="99.5349" x2="74.4307" y2="99.5349" gradientUnits="userSpaceOnUse">
<stop stop-color="#F9FCFF"/>
<stop offset="1" stop-color="#E7EDF7"/>
</linearGradient>
<linearGradient id="paint29_linear_213_16862" x1="51.6904" y1="114.547" x2="63.6865" y2="87.7833" gradientUnits="userSpaceOnUse">
<stop stop-color="#F58B21"/>
<stop offset="1" stop-color="#F5B419"/>
</linearGradient>
<clipPath id="clip0_213_16862">
<rect width="89" height="110" fill="white" transform="translate(35 25)"/>
</clipPath>
</defs>
</svg>
