<svg width="348" height="134" viewBox="0 0 348 134" fill="none" xmlns="http://www.w3.org/2000/svg">
<g clip-path="url(#clip0_89_159)">
<path d="M177.588 54.9951C177.588 54.9951 180.425 54.932 183.077 66.1011C183.077 66.1011 184.459 72.5327 183.101 75.1927L179.751 75.6344L177.588 54.9951Z" fill="#80A6BF"/>
<path d="M175.232 60.4369C175.241 59.0487 175.562 55.6412 176.701 55.1509C177.462 54.8208 178.432 54.0199 180.168 60.4369C181.089 63.8347 182.777 75.6106 180.168 75.6397C177.419 75.6737 175.13 79.1006 175.232 60.4369Z" fill="#676F77"/>
<g style="mix-blend-mode:multiply" opacity="0.43">
<path d="M247.314 134.005C298.819 134.005 340.572 131.589 340.572 128.608C340.572 125.627 298.819 123.21 247.314 123.21C195.81 123.21 154.057 125.627 154.057 128.608C154.057 131.589 195.81 134.005 247.314 134.005Z" fill="#CECECE"/>
</g>
<g style="mix-blend-mode:multiply" opacity="0.43">
<path d="M268.285 132.874C307.137 132.874 338.632 130.964 338.632 128.608C338.632 126.251 307.137 124.341 268.285 124.341C229.434 124.341 197.939 126.251 197.939 128.608C197.939 130.964 229.434 132.874 268.285 132.874Z" fill="#CECECE"/>
</g>
<g style="mix-blend-mode:multiply" opacity="0.43">
<path d="M277.741 132.064C309.228 132.064 334.753 130.408 334.753 128.365C334.753 126.322 309.228 124.666 277.741 124.666C246.254 124.666 220.728 126.322 220.728 128.365C220.728 130.408 246.254 132.064 277.741 132.064Z" fill="#A0A0A0"/>
</g>
<path d="M316.813 0C316.425 0 316.042 0.0194161 315.659 0.0485402H250.612V129.01L316.808 128.903C334.031 128.903 348 100.095 348 64.4808C348 28.8668 334.036 0 316.813 0Z" fill="#D8D8D8"/>
<path d="M316.856 86.6882C306.068 85.7756 297.16 62.2531 286.648 63.1025C286.648 62.9957 286.663 63.8549 286.663 64.4083C286.663 100.017 267.054 129.01 250.612 129.01C249.996 129.01 318.199 128.899 318.199 128.899C334.632 128.899 348 99.8717 348 64.2578C348 63.8161 348 63.3792 348 62.9375C337.212 63.8598 327.373 87.5377 316.861 86.6882H316.856Z" fill="#727272"/>
<path d="M250.612 128.986C270.522 128.986 286.663 100.117 286.663 64.5052C286.663 28.8934 270.522 0.0244141 250.612 0.0244141C230.701 0.0244141 214.561 28.8934 214.561 64.5052C214.561 100.117 230.701 128.986 250.612 128.986Z" fill="white"/>
<path d="M265.944 24.6245C261.352 16.4115 255.761 11.6982 250.607 11.6982C245.452 11.6982 239.862 16.4115 235.27 24.6245C229.5 34.9393 226.193 49.4868 226.193 64.5294C226.193 79.572 229.5 94.1195 235.27 104.434C239.862 112.647 245.452 117.36 250.607 117.36C255.761 117.36 261.352 112.647 265.944 104.434C271.714 94.1146 274.982 79.6205 274.982 64.5779C274.982 49.5353 271.709 34.9441 265.944 24.6245Z" fill="#7C8689"/>
<path d="M214.982 63.4033C213.368 63.3887 211.685 63.4712 210.08 63.646C203.442 64.3741 185.826 67.8447 185.812 67.8496C184.687 68.1554 183.698 68.534 183.698 69.2718V74.2035C183.649 74.4753 184.284 74.3297 184.895 74.2714H242.761L242.79 64.146L214.977 63.3984L214.982 63.4033Z" fill="#79FFDB"/>
<path d="M245.045 23.7556C237.815 34.4636 233.67 49.5062 233.67 65.0196H238.519C238.519 50.4479 242.364 36.4003 249.06 26.4739C252.294 21.6829 256.037 18.0182 259.625 16.1105C258.2 14.7902 256.866 13.7272 255.465 13.0137C251.872 15.4018 248.114 19.2025 245.04 23.7556H245.045Z" fill="#70D8EF"/>
<path d="M258.622 23.7553C251.392 34.4632 247.246 49.5058 247.246 65.0193H252.095C252.095 50.4475 255.94 36.4 262.637 26.4735C263.417 25.3183 264.29 24.1873 265.109 23.1874C264.178 21.6826 263.238 20.2652 262.244 19.0469C261.022 20.4448 259.747 22.0855 258.617 23.7601L258.622 23.7553Z" fill="#70D8EF"/>
<path d="M260.823 65.02H265.672C265.672 54.8362 267.524 44.934 270.938 36.488C270.22 34.2358 269.459 32.066 268.576 30.0273C263.616 39.9684 260.823 52.3364 260.823 65.02Z" fill="#70D8EF"/>
<path d="M219.729 63.4716C218.081 63.457 216.374 63.5492 214.74 63.7386C207.976 64.5346 190.035 67.7868 190.021 67.7868C188.872 68.1266 187.868 68.5343 187.868 69.3449V74.1892C187.819 74.4853 188.464 74.3252 189.09 74.2669H248.032L248.061 62.6318L219.734 63.4667L219.729 63.4716Z" fill="#95FFE7"/>
<path d="M274.986 63.0922L274.439 62.7524C273.226 62.0825 271.306 60.6846 267.917 60.6846L248.09 62.6068L247.799 62.6359L246.485 62.6844L247.174 74.271H271.912C272.863 74.271 273.658 74.4069 274.574 74.169C274.773 71.7469 275.03 68.9947 275.03 66.4948C275.03 65.3347 275.011 64.5824 274.991 63.097L274.986 63.0922Z" fill="#6ECEB0"/>
<path d="M183.247 55.0977C183.247 55.0977 186.083 55.0346 188.736 66.2037C188.736 66.2037 190.118 72.6352 188.76 75.2952L185.409 75.7369L183.247 55.0977Z" fill="#A6CDED"/>
<path d="M180.89 60.5443C180.9 59.1561 181.22 55.7486 182.359 55.2583C183.121 54.9282 184.09 54.1273 185.826 60.5443C186.748 63.9422 188.435 75.718 185.826 75.7471C183.077 75.7811 180.788 79.208 180.89 60.5443Z" fill="#8C939B"/>
<path d="M269.483 68.3297C268.499 67.8297 264.469 67.7763 262.913 68.2617C260.721 68.9413 255.242 69.6354 253.778 69.5869C253.773 69.5869 253.768 69.5869 253.763 69.5869C251.281 69.5141 248.813 69.7228 246.388 70.1985L240.027 71.4508C238.577 71.0819 235.997 70.3878 234.218 69.7325C233.364 69.417 231.303 70.946 231.216 71.7129C231.129 72.4799 230.959 74.2662 230.959 74.2662C230.959 74.2662 236.497 74.5574 237.36 74.4312C237.592 74.3972 238.063 74.3584 238.572 74.2759C239.556 74.2662 240.414 74.3438 241.84 74.4263C246.151 74.6933 257.637 74.2662 257.637 74.2662C257.637 74.2662 260.988 74.3632 264.586 74.2564L270.579 74.2856C270.579 74.2856 273.285 70.2519 269.493 68.3248L269.483 68.3297Z" fill="#E5CCB7"/>
<path d="M247.993 89.1787H181.244V98.7217H268.702C269.856 95.8336 271.146 92.7124 271.878 89.3437L247.993 89.1787Z" fill="#B9B9B9"/>
<path d="M245.447 73.8931H176.827V89.3434H271.878C272.727 86.9601 274.201 79.2713 274.599 73.8105L245.443 73.8931H245.447Z" fill="#CECECE"/>
<g style="mix-blend-mode:multiply" opacity="0.25">
<path d="M248.221 89.3438H195.17V90.4311H271.636C271.719 90.067 271.801 89.7078 271.883 89.3438H248.221Z" fill="#4C4C4C"/>
</g>
<path d="M200.848 81.3347C200.848 85.0529 199.175 88.1352 196.993 88.6837C196.232 88.8779 195.437 89.2711 194.69 89.6011L187.451 92.6786C182.558 94.8386 180.924 94.8435 176.032 92.6883L168.739 89.4749C167.992 89.1448 167.212 88.8779 166.45 88.6837C164.264 88.1352 162.591 85.0529 162.591 81.3299C162.591 77.2234 164.632 73.8887 167.144 73.8887H196.295C198.812 73.8887 200.848 77.2185 200.848 81.3299V81.3347Z" fill="white"/>
<path d="M195.272 89.1879C195.272 91.8721 194.065 94.0953 192.489 94.4884C191.936 94.6292 191.369 94.8234 190.83 95.0612L185.603 97.3717C182.185 99.226 181.865 99.226 178.35 97.3766L173.089 95.0564C172.55 94.8185 171.988 94.6244 171.435 94.4884C169.859 94.0953 168.652 91.8673 168.652 89.183C168.652 86.2172 170.121 83.8145 171.939 83.8145H191.984C193.798 83.8145 195.272 86.2172 195.272 89.183V89.1879Z" fill="white"/>
<path d="M330.389 43.3417C330.389 43.9873 329.866 44.5115 329.221 44.5115H304.72C304.075 44.5115 303.551 43.9873 303.551 43.3417C303.551 42.6961 304.075 42.1719 304.72 42.1719H329.221C329.866 42.1719 330.389 42.6961 330.389 43.3417Z" fill="#70D8EF"/>
<path d="M331.558 47.6425C331.558 48.2881 331.034 48.8123 330.389 48.8123H305.888C305.243 48.8123 304.719 48.2881 304.719 47.6425C304.719 46.9969 305.243 46.4727 305.888 46.4727H330.389C331.034 46.4727 331.558 46.9969 331.558 47.6425Z" fill="#70D8EF"/>
<path d="M332.043 51.9433C332.043 52.5888 331.519 53.1131 330.874 53.1131H306.373C305.728 53.1131 305.205 52.5888 305.205 51.9433C305.205 51.2977 305.728 50.7734 306.373 50.7734H330.874C331.519 50.7734 332.043 51.2977 332.043 51.9433Z" fill="#70D8EF"/>
<path d="M332.431 56.244C332.431 56.8896 331.907 57.4139 331.262 57.4139H306.761C306.116 57.4139 305.592 56.8896 305.592 56.244C305.592 55.5985 306.116 55.0742 306.761 55.0742H331.262C331.907 55.0742 332.431 55.5985 332.431 56.244Z" fill="#70D8EF"/>
<path d="M54.0837 117.865C54.0837 117.865 52.3284 119.006 51.4313 121.991C51.0628 123.224 51.0725 123.564 51.0725 123.564C51.0725 123.564 53.5406 125.622 55.0049 125.86C55.194 125.889 55.6789 125.069 55.8244 125.214C57.5506 126.869 57.856 127.185 58.113 127.331C59.4319 128.073 59.6986 128.093 60.518 128.093H61.9C61.9 128.093 64.5717 126.102 63.4564 125.564C62.3363 125.02 61.0272 124.408 61.0272 124.408C61.0272 124.408 58.5688 122.098 57.7057 121.2C56.8475 120.297 54.074 117.865 54.074 117.865H54.0837Z" fill="#636363"/>
<path d="M57.0319 83.6299L64.7027 93.9349C64.7027 93.9349 68.2278 96.8037 66.4047 101.93C64.5864 107.055 59.9461 123.326 59.9461 123.326C59.9461 123.326 57.6574 123.093 55.8924 122.447C53.5989 121.603 52.3673 119.86 52.3673 119.86L57.5362 101.93C57.5362 101.93 58.1908 100.284 56.9495 98.988C54.5687 96.5076 47.5137 90.6391 47.5137 90.6391L57.0319 83.625V83.6299Z" fill="#9FB3B2"/>
<path d="M45.1425 81.6836C45.1425 81.6836 44.1873 87.8482 46.7717 90.314C48.4785 91.9401 52.5855 91.8624 52.5855 91.8624L59.1896 91.9983C59.1896 91.9983 69.7891 97.0611 71.3359 98.0465C72.5869 98.8425 72.7517 99.0707 71.8644 100.338C68.5769 105.041 60.8818 115.972 60.8818 115.972C60.8818 115.972 62.9959 116.031 64.6396 119.676C65.3573 121.268 67.3986 121.909 67.3986 121.909C67.3986 121.909 76.0295 109.74 81.3147 100.687C84.3743 95.4447 79.6128 92.576 79.6128 92.576L63.7378 82.0282L45.1425 81.6787V81.6836Z" fill="#C3E5E4"/>
<path d="M82.2361 72.873H98.6445C99.0276 72.873 99.3379 73.1837 99.3379 73.5672V73.9603C99.3379 74.3438 99.0276 74.6545 98.6445 74.6545H82.2361C81.8531 74.6545 81.5427 74.3438 81.5427 73.9603V73.5672C81.5427 73.1837 81.8531 72.873 82.2361 72.873Z" fill="#898989"/>
<path d="M92.6367 73.2812H108.09L107.857 72.5288C106.572 68.3592 104.992 63.3839 105.937 58.9473L106.005 58.6221H94.7169L94.8187 59.0444C95.8466 63.3839 94.2708 68.3544 92.9228 72.4123L92.6367 73.2812Z" fill="#D3D3D3"/>
<path d="M108.57 72.4219H92.1568C91.7738 72.4219 91.4634 72.7326 91.4634 73.116V73.5092C91.4634 73.8925 91.7738 74.2033 92.1568 74.2033H108.57C108.953 74.2033 109.263 73.8925 109.263 73.5092V73.116C109.263 72.7326 108.953 72.4219 108.57 72.4219Z" fill="#B2B2B2"/>
<path d="M83.3609 40.0264H118.437C119.78 40.0264 120.867 41.1185 120.867 42.4582V63.3208C120.867 64.6654 119.776 65.7527 118.437 65.7527H83.3609C82.0177 65.7527 80.9268 64.6605 80.9268 63.3159V42.4582C80.9268 41.1137 82.0177 40.0264 83.356 40.0264H83.3609Z" fill="#D3D3D3"/>
<path d="M92.0015 73.1162H107.455L107.222 72.3687C105.937 68.1991 104.351 63.2237 105.302 58.7871L105.37 58.4619H94.0816L94.1834 58.8842C95.2114 63.2237 93.6355 68.1942 92.2875 72.2522L92.0015 73.1162Z" fill="white"/>
<g style="mix-blend-mode:multiply" opacity="0.87">
<path d="M93.7568 67.3449C94.0623 66.1071 94.3047 64.8451 94.4259 63.5879H105.113C105.244 64.8451 105.486 66.1071 105.782 67.3449H93.752H93.7568Z" fill="#C1C1C1"/>
</g>
<path d="M82.1876 40.0264H117.264C118.607 40.0264 119.698 41.1185 119.698 42.4631V63.3257C119.698 64.6702 118.607 65.7575 117.269 65.7575H82.1924C80.8493 65.7575 79.7632 64.6654 79.7632 63.3257V42.4631C79.7632 41.1185 80.8542 40.0312 82.1924 40.0312L82.1876 40.0264Z" fill="white"/>
<path d="M117.341 42.3027H82.1147V63.476H117.341V42.3027Z" fill="#0BB4E8"/>
<path d="M91.5215 72.4219H107.93C108.313 72.4219 108.623 72.7325 108.623 73.116V73.5092C108.623 73.8926 108.313 74.2033 107.93 74.2033H91.5215C91.1384 74.2033 90.8281 73.8926 90.8281 73.5092V73.1209C90.8281 72.7374 91.1384 72.4267 91.5215 72.4267V72.4219Z" fill="#D3D3D3"/>
<path d="M99.0906 64.6603C99.0906 65.0098 99.3767 65.2962 99.7258 65.2962C100.075 65.2962 100.366 65.0098 100.366 64.6603C100.366 64.3108 100.08 64.0244 99.7258 64.0244C99.3718 64.0244 99.0906 64.3108 99.0906 64.6603Z" fill="#F5F5F5"/>
<path d="M114.073 54.8652H110.461V55.4429H114.073V54.8652Z" fill="#0A9ECC"/>
<path d="M88.1517 51.7393H84.5393V52.3169H88.1517V51.7393Z" fill="#0A9ECC"/>
<path d="M110.437 60.2773H106.824V60.855H110.437V60.2773Z" fill="#0A9ECC"/>
<path d="M103.173 57.3848L102.62 57.4964L104.347 61.5835H110.437V61.0593H104.725L103.173 57.3848Z" fill="#0A9ECC"/>
<path d="M106.693 53.8213L106.32 54.1951L108.022 56.3891H114.078V55.8309L108.289 55.8551L106.693 53.8213Z" fill="#0A9ECC"/>
<path d="M115.004 49.2148H105.932V49.7439H115.004V49.2148Z" fill="#0A9ECC"/>
<path d="M93.6114 52.8359H84.5393V53.365H93.6114V52.8359Z" fill="#0A9ECC"/>
<path d="M92.5349 60.4714H86.823V60.9956H92.9131L94.6393 56.9085L94.0865 56.7969L92.5349 60.4714Z" fill="#0A9ECC"/>
<path d="M93.1508 45.8709H87.4341V45.3467H93.529L95.2504 49.4338L94.7025 49.5454L93.1508 45.8709Z" fill="#0A9ECC"/>
<path d="M90.4354 59.6992H86.823V60.2768H90.4354V59.6992Z" fill="#0A9ECC"/>
<path d="M115.004 48.3555H110.694V48.9331H115.004V48.3555Z" fill="#0A9ECC"/>
<path d="M115.004 47.4434H110.694V48.021H115.004V47.4434Z" fill="#0A9ECC"/>
<path d="M67.4277 120.224C67.4277 120.224 67.3501 122.078 67.9174 123.962C68.4362 125.68 69.4448 126.102 69.4448 126.102C71.5879 126.597 71.8643 127.369 71.9516 128.282C71.9516 128.282 71.9662 128.685 71.7916 128.816C71.1855 129.257 70.2739 129.126 69.2072 129.117C69.2072 129.117 65.2748 128.578 62.9328 126.801C60.6296 125.054 60.4841 120.006 59.8199 120.18L59.1459 119.85C58.4088 118.273 58.8986 117.647 58.9034 117.584C58.9034 117.584 60.6975 115.356 61.997 115.569C63.1413 115.754 65.2942 118.889 66.4724 119.836C66.807 120.108 67.418 120.229 67.418 120.229L67.4277 120.224Z" fill="#636363"/>
<path d="M62.3364 118.7C62.797 119.763 63.2868 121.826 63.2868 121.826L63.9898 121.71C63.9898 121.71 65.0323 124.258 65.4057 125.282C66.0991 127.2 67.6653 128.884 69.2217 129.112C69.2411 129.112 68.0144 128.996 67.3646 128.835C65.9827 128.496 64.3971 128.17 62.671 126.641C61.0903 125.243 60.0768 120.787 60.0284 120.797L59.2041 120.501C58.821 119.559 58.4428 117.666 59.2574 117.225C59.2574 117.225 59.5483 117.021 60.0187 117.06C60.7169 117.113 61.8273 117.545 62.3316 118.695L62.3364 118.7Z" fill="#767774"/>
<path d="M50.3792 48.5788L53.1284 38.4775L59.2864 40.3172L57.8463 48.7098L50.3792 48.5788Z" fill="#FFD1B0"/>
<path d="M61.0903 29.2451L65.7307 29.8131L63.7911 41.7539C63.3014 45.1857 61.808 45.5886 60.7606 45.5158C58.5932 45.3556 56.2852 43.9383 55.1311 43.1179C52.9007 41.5355 53.2789 37.5067 53.2837 37.1766L53.1868 29.085L61.0855 29.2451H61.0903Z" fill="#FFD1B0"/>
<path d="M64.9064 27.6049C67.3114 30.129 65.7065 31.3425 65.5707 31.4396C64.3585 32.2599 63.7524 33.92 63.4906 35.2451L63.2045 36.6576C62.8942 37.9488 62.0941 37.7498 62.0796 37.7158C62.0068 37.5653 62.2008 37.2838 61.8953 36.8761C61.585 36.4586 60.6443 36.2499 59.5533 38.7546L58.5981 40.7253C57.7399 42.497 55.0439 43.2494 53.4777 42.8853C53.4777 42.8853 52.5856 43.0115 52.1395 41.9922C51.9552 41.5699 50.7333 37.5945 50.3793 36.4343C49.1671 32.5123 49.9769 29.1485 52.2704 27.037C53.3953 25.9982 55.1651 25.6681 55.684 25.6147C57.9387 25.3915 58.6417 25.3429 59.0442 25.5759C60.3922 26.3623 60.174 25.0031 60.9207 25.3041C61.3619 25.4788 61.5947 26.4836 62.1571 26.571C62.739 26.6584 62.9039 26.0565 62.9523 26.0856C63.5003 26.3962 64.9064 27.6146 64.9064 27.6146V27.6049Z" fill="#666055"/>
<path d="M61.8516 36.7256C61.8516 36.7256 60.8673 36.8421 60.4988 37.9585C60.237 38.7497 60.4988 39.4244 60.6443 39.6234C61.037 40.1622 61.4686 40.2884 61.4686 40.2884C61.4686 40.2884 61.5219 38.3759 61.5559 38.0216C61.5898 37.6721 61.8516 36.7207 61.8516 36.7207V36.7256Z" fill="#E2B7A1"/>
<path d="M62.3317 36.3227C62.3317 36.3227 62.9136 36.4635 62.5063 37.1091C62.0311 37.8663 61.9293 38.3711 61.8953 38.8225C61.8662 39.2351 61.9826 40.4341 61.9826 40.4341C61.9826 40.4341 61.5947 41.1379 61.2359 40.2108C61.0953 39.8419 61.008 39.1575 61.0565 38.274C61.0759 37.9148 61.7256 36.1188 62.3269 36.3227H62.3317Z" fill="#FFE8D9"/>
<path d="M86.9395 69.6897L93.3884 66.8841C93.3884 66.8841 95.4734 65.6803 96.2928 67.5297C97.3402 69.8839 98.0917 71.4614 98.116 72.3788C98.1451 73.7331 96.7195 73.6748 96.7195 73.6748L87.1673 73.7865L86.9395 69.6897Z" fill="#EACAB5"/>
<path d="M38.1894 73.7666H18.8281C10.9099 73.7666 4.4707 79.9118 4.4707 87.4646V128.379H26.6589C26.5959 128.379 26.6589 104.565 26.6589 91.5177C26.6589 85.0765 27.2359 78.5187 34.3588 78.5187L38.3931 78.4119L38.1943 73.7666H38.1894Z" fill="white"/>
<path d="M111.096 73.7666H134.977C142.895 73.7666 149.334 79.9118 149.334 87.4646V128.379H122.68C122.68 122.967 124.198 78.9119 118.529 78.9119L111.096 78.6109V73.7666Z" fill="white"/>
<path d="M0 128.379H5.07672V88.416C5.07672 83.0086 9.68795 78.6061 15.3611 78.6061H110.946C116.619 78.6061 121.23 83.0038 121.23 88.416V128.379H126.307V87.4646C126.307 79.9118 119.868 73.7666 111.95 73.7666H14.3574C6.43924 73.7666 0 79.9118 0 87.4646V128.379Z" fill="#9E9E9E"/>
<path d="M71.6267 53.9624C71.1564 52.7634 70.5115 50.1423 68.3974 49.6132C68.3974 49.6132 62.8794 47.9094 57.3566 47.2638C55.5044 47.0454 50.544 46.6328 50.544 46.6328L44.0224 46.7347C40.9676 47.0308 40.9676 48.2055 40.3227 49.4967C40.3227 49.4967 35.8812 62.0734 34.9648 65.3305C34.2617 67.84 35.8715 68.4516 36.8461 68.6069C38.9893 68.9564 42.5823 67.7672 42.5823 67.9225C42.5823 69.1506 44.4006 86.5959 44.4006 86.5959C44.4006 86.5959 45.1861 89.9889 53.1575 90.0083C65.0323 90.0423 68.9356 85.329 68.9356 85.329C68.9599 85.3484 64.7462 79.9362 64.6347 77.6597C64.3292 71.5291 66.1475 63.5491 66.1475 63.5491C66.1912 63.2869 66.4094 63.0782 66.6082 63.5102L69.6241 71.2475C69.6241 71.2475 70.4824 73.7279 74.6475 73.8202C76.8295 73.8687 84.0979 73.9803 88.3454 73.7619C88.3454 73.7619 88.0545 70.9611 87.8897 69.8302C87.6666 68.3157 87.2205 67.7575 86.5999 67.6798C84.0009 67.3692 75.9131 67.0973 75.9131 67.0973C75.0354 67.01 75.3264 66.7721 74.9724 65.4227L71.6267 53.9624Z" fill="#E6FFFF"/>
<path d="M39.6392 68.4954L41.2684 62.0736C42.5582 56.1954 44.3474 51.3171 44.1922 52.1471C42.6212 60.6368 42.5194 65.8354 42.5678 67.9081C42.4127 67.8741 41.1035 68.2576 39.6392 68.4954Z" fill="#ABD8D7"/>
<path d="M62.8794 64.5586H42.7568C40.5234 64.5586 38.7129 66.3711 38.7129 68.6068V73.922C38.7129 76.1578 40.5234 77.9702 42.7568 77.9702H62.8794C65.1128 77.9702 66.9233 76.1578 66.9233 73.922V68.6068C66.9233 66.3711 65.1128 64.5586 62.8794 64.5586Z" fill="#325F86"/>
<path d="M41.1133 64.5586H61.231C63.4615 64.5586 65.2749 66.374 65.2749 68.6068V73.9171C65.2749 76.15 63.4615 77.9654 61.231 77.9654H41.1133C38.8779 77.9654 37.0693 76.15 37.0693 73.9171V68.6068C37.0693 66.374 38.8828 64.5586 41.1133 64.5586Z" fill="#407CAF"/>
<path d="M50.2388 91.6732C50.2388 92.2945 50.743 92.7993 51.3637 92.7993C51.9843 92.7993 52.4935 92.2945 52.4935 91.6732V74.9122C52.4935 74.2861 51.9892 73.7812 51.3637 73.7812C50.7382 73.7812 50.2388 74.2861 50.2388 74.9122V91.6732Z" fill="#878787"/>
<path d="M49.8459 91.6732C49.8459 92.2945 50.3502 92.7993 50.9757 92.7993C51.6012 92.7993 52.1055 92.2945 52.1055 91.6732V74.9122C52.1055 74.2861 51.6012 73.7812 50.9757 73.7812C50.3551 73.7812 49.8459 74.2861 49.8459 74.9122V91.6732Z" fill="#A8A8A8"/>
<path d="M93.33 56.6318C93.4367 57.6609 94.2707 58.4618 95.2744 58.4618H97.3982C98.4795 58.4618 99.3571 57.5395 99.3571 56.4085V47.6519C99.3571 46.5209 98.4795 45.5986 97.3982 45.5986C96.5109 45.5986 95.7302 46.2442 95.5072 47.1276C96.5594 47.2587 97.4128 48.1616 97.4952 49.2828C97.5049 49.3799 97.4709 49.4721 97.4031 49.5449C97.3352 49.6178 97.2382 49.6614 97.1364 49.6614C96.9473 49.6614 96.7873 49.5158 96.7679 49.3217C96.7 48.4965 96.026 47.8557 95.2405 47.8557C93.9265 47.8557 92.8597 48.9722 92.8597 50.3507C92.8597 50.7779 92.9664 51.205 93.1652 51.5739L93.2428 51.7195L93.1119 51.8215C92.5058 52.2923 92.1421 53.0398 92.1421 53.831C92.1421 54.6659 92.5348 55.4377 93.1991 55.9037C93.5483 55.8891 93.8877 55.7484 94.1543 55.5008L94.1931 55.4668C94.4647 55.1999 94.6344 54.8358 94.6683 54.4475C94.6829 54.2533 94.8429 54.1029 95.0368 54.1029C95.1387 54.1029 95.2308 54.1466 95.2987 54.2194C95.3666 54.2922 95.4005 54.3893 95.3908 54.4912C95.3811 54.6465 95.352 54.797 95.3132 54.9426C95.3666 54.9378 95.4247 54.9329 95.4781 54.9329C96.0115 54.9329 96.4769 55.1319 96.8261 55.496C97.18 55.8649 97.3691 56.36 97.3643 56.8939C97.3594 57.3551 97.2043 57.7871 96.9182 58.1463C96.7921 58.3064 96.5303 58.321 96.3897 58.1705C96.2587 58.0346 96.2539 57.8162 96.3751 57.656C96.5448 57.4327 96.6369 57.1609 96.6418 56.8794C96.6466 56.5493 96.5303 56.2386 96.3121 56.0105C96.0987 55.7872 95.8175 55.6659 95.5072 55.6659C95.1775 55.6707 94.872 55.8066 94.6441 56.0445C94.2659 56.394 93.8149 56.593 93.33 56.6367V56.6318ZM97.854 53.4767C97.4758 53.4767 97.1218 53.3165 96.8551 53.0301C96.5933 52.7486 96.4527 52.3748 96.4527 51.9817C96.4527 51.7778 96.38 51.5836 96.249 51.4429C95.9969 51.1662 95.5605 51.1662 95.3035 51.4429C95.2017 51.5545 95.1338 51.6953 95.1047 51.8506C95.0756 52.0399 94.9205 52.1807 94.7314 52.1807C94.6295 52.1807 94.5326 52.137 94.4647 52.0593C94.3968 51.9817 94.3677 51.8846 94.3774 51.7826C94.4162 51.4623 94.552 51.1662 94.7702 50.9332C95.2987 50.3604 96.2345 50.3604 96.7679 50.9332C97.0297 51.2147 97.1703 51.5885 97.1703 51.9817C97.1703 52.1855 97.2431 52.3797 97.374 52.5205C97.6261 52.7971 98.0625 52.7971 98.3195 52.5205C98.4213 52.4088 98.4892 52.2681 98.5134 52.1127C98.5425 51.9234 98.6977 51.7826 98.8868 51.7826C98.9886 51.7826 99.0808 51.8263 99.1486 51.8991C99.2165 51.9768 99.2505 52.0787 99.2359 52.1758C99.1971 52.4962 99.0614 52.7923 98.8432 53.0253C98.5765 53.3117 98.2225 53.4718 97.8443 53.4718L97.854 53.4767Z" fill="white"/>
<path d="M106.572 51.8555C105.816 51.8894 105.181 52.5205 105.113 53.3165C105.098 53.5107 104.938 53.6612 104.744 53.6612C104.647 53.6612 104.55 53.6175 104.482 53.5495C104.415 53.4767 104.381 53.3845 104.386 53.2874C104.478 52.069 105.467 51.1128 106.635 51.1128H106.65C106.727 50.8604 106.771 50.5983 106.771 50.3362C106.771 48.9867 105.743 47.8849 104.463 47.846C103.697 48.4916 102.533 48.5256 101.728 47.9237C101.656 47.8655 101.607 47.7829 101.597 47.6907C101.588 47.5936 101.617 47.4917 101.68 47.4092C101.801 47.2587 102.024 47.2296 102.179 47.3412C102.771 47.7781 103.634 47.6907 104.138 47.1568C103.925 46.2491 103.139 45.5986 102.237 45.5986C101.156 45.5986 100.279 46.5209 100.279 47.6519V56.4085C100.279 57.5395 101.156 58.4618 102.237 58.4618H104.361C105.443 58.4618 106.32 57.5395 106.32 56.4085C106.32 56.3114 106.31 56.2192 106.301 56.127V56.1124C106.233 55.9522 106.121 55.826 105.976 55.7532C105.816 55.6707 105.637 55.6659 105.467 55.729C105.287 55.7969 105.147 55.9328 105.064 56.1173C104.841 56.5978 104.453 56.9667 103.978 57.1463C103.498 57.3308 102.979 57.3065 102.524 57.0735C102.068 56.8454 101.733 56.4377 101.573 55.9328C101.433 55.496 101.442 55.0348 101.597 54.598C101.67 54.4038 101.908 54.3067 102.087 54.399C102.252 54.4815 102.33 54.6902 102.267 54.8795C102.179 55.1513 102.174 55.4377 102.262 55.7047C102.359 56.0202 102.567 56.2678 102.844 56.4085C103.115 56.5444 103.43 56.559 103.721 56.4522C104.017 56.3357 104.259 56.1076 104.405 55.8018C104.57 55.4426 104.861 55.1708 105.21 55.0348C105.569 54.8989 105.957 54.9183 106.296 55.0882C106.509 55.195 106.689 55.3601 106.824 55.5591C107.251 55.0979 107.494 54.4766 107.494 53.831C107.494 53.0641 107.149 52.336 106.577 51.8652L106.572 51.8555ZM103.838 51.4768H103.784C103.401 51.4623 103.038 51.3021 102.756 51.0206C102.611 50.8749 102.427 50.7924 102.228 50.7827C102.024 50.7827 101.864 50.8458 101.743 50.9672C101.617 51.0934 101.554 51.2633 101.559 51.4526C101.564 51.6031 101.617 51.7535 101.709 51.8797C101.82 52.0351 101.811 52.2438 101.68 52.3748C101.612 52.4428 101.525 52.4768 101.428 52.4768C101.316 52.4768 101.214 52.4282 101.147 52.3409C100.948 52.0836 100.836 51.7778 100.826 51.4623C100.812 51.074 100.948 50.7099 101.219 50.4429C101.471 50.1905 101.816 50.0498 102.184 50.0498H102.242C102.625 50.0643 102.989 50.2294 103.265 50.506C103.411 50.6517 103.595 50.7342 103.789 50.739C103.993 50.739 104.153 50.6759 104.274 50.5546C104.4 50.4284 104.463 50.2585 104.458 50.0692C104.453 49.9187 104.4 49.7731 104.308 49.642C104.196 49.4867 104.206 49.278 104.337 49.1469C104.487 48.9964 104.744 49.0207 104.866 49.1809C105.064 49.4382 105.176 49.744 105.186 50.0595C105.2 50.4526 105.06 50.8118 104.793 51.0788C104.541 51.3312 104.196 51.472 103.828 51.472L103.838 51.4768Z" fill="white"/>
<path d="M60.3581 128.83C60.3581 127.413 59.2089 126.268 57.7979 126.268H47.4747C46.0589 126.268 44.9146 127.418 44.9146 128.83H60.3581Z" fill="white"/>
<path d="M50.7188 127.287V127.234V94.1148C50.7188 93.6148 51.577 93.2119 52.6389 93.2119C53.7008 93.2119 54.559 93.6148 54.559 94.1148V127.209L50.7236 127.287H50.7188Z" fill="white"/>
<path d="M46.7717 92.8041C46.7717 93.5904 47.2421 94.2263 47.8191 94.2263H73.9348C74.5118 94.2263 74.9822 93.5904 74.9822 92.8041C74.9822 92.0177 74.5118 91.3818 73.9348 91.3818H47.8191C47.2421 91.3818 46.7717 92.0177 46.7717 92.8041Z" fill="#325F86"/>
<path d="M37.0645 92.8041C37.0645 93.5904 37.5348 94.2263 38.1118 94.2263H64.2227C64.7997 94.2263 65.2701 93.5904 65.2701 92.8041C65.2701 92.0177 64.7997 91.3818 64.2227 91.3818H38.1118C37.5348 91.3818 37.0645 92.0177 37.0645 92.8041Z" fill="#407CAF"/>
</g>
<defs>
<clipPath id="clip0_89_159">
<rect width="348" height="134" fill="white"/>
</clipPath>
</defs>
</svg>
