<svg width="160" height="160" viewBox="0 0 160 160" fill="none" xmlns="http://www.w3.org/2000/svg">
<path d="M89.9315 48.5023L89.0312 47.9769C89.3371 47.8018 89.6081 47.7843 89.8091 47.8981L90.7093 48.4235C90.5083 48.3096 90.2374 48.3272 89.9315 48.5023Z" fill="#FFE3A6"/>
<path d="M75.8152 56.6619L74.9062 56.1366L89.0301 47.9766L89.9303 48.5019L75.8152 56.6619Z" fill="#FFD4A6"/>
<path d="M71.9959 62.7648L71.0957 62.2395L74.1285 56.9688L75.0374 57.4941L71.9959 62.7648Z" fill="#FDC394"/>
<path d="M75.0369 57.4938L74.1367 56.9685C74.3377 56.6183 74.6174 56.3118 74.9146 56.1367L75.8148 56.662C75.5176 56.8284 75.238 57.1348 75.0369 57.4938Z" fill="#FFE3A6"/>
<path d="M71.2186 63.5798L70.3184 63.0545C70.6155 62.8881 70.8952 62.5905 71.0962 62.2402L71.9964 62.7656C71.7954 63.1158 71.5157 63.4135 71.2186 63.5798Z" fill="#FFE3A6"/>
<path d="M50.6444 75.4854L49.7441 74.9513L70.3181 63.0527L71.2183 63.5781L50.6444 75.4854Z" fill="#FFD4A6"/>
<path d="M49.867 75.5651L48.9668 75.0397C49.1766 75.1536 49.4562 75.1273 49.7447 74.9609L50.6449 75.4863C50.3565 75.6526 50.068 75.6876 49.867 75.5651Z" fill="#FFE3A6"/>
<path d="M48.3026 75.189L47.4023 74.6636C47.6995 74.4973 47.9792 74.4623 48.1802 74.5848L49.0804 75.1102C48.8707 74.9963 48.5997 75.0226 48.3026 75.189Z" fill="#FFE3A6"/>
<path d="M34.0558 129.095L33.9334 84.7753L33.0332 84.25L33.1556 128.57C33.1556 128.92 33.2779 129.156 33.4789 129.279L34.3792 129.804C34.1781 129.69 34.0558 129.445 34.0558 129.095Z" fill="#D3874F"/>
<path d="M35.0261 82.8766L34.1172 82.3513L47.402 74.6641L48.3022 75.1894L35.0261 82.8766Z" fill="#FFD4A6"/>
<path d="M89.9307 48.5021C90.5337 48.1519 91.0319 48.4321 91.0319 49.1413L91.163 96.0702C91.163 96.7706 90.6736 97.6199 90.0705 97.9701L35.1572 129.735C34.5541 130.085 34.056 129.805 34.056 129.104L33.9336 84.7845C33.9336 84.084 34.423 83.2348 35.0261 82.8846L48.3109 75.2061C48.608 75.0397 48.8877 75.0047 49.0887 75.1273L49.8666 75.5826C50.0763 75.6964 50.356 75.6701 50.6444 75.5038L71.2184 63.6052C71.5155 63.4388 71.7952 63.1411 71.9962 62.7909L75.0377 57.5202C75.2388 57.17 75.5184 56.8635 75.8156 56.6884L89.9307 48.5196V48.5021Z" fill="#FDC394"/>
<path d="M33.9256 84.7749L33.0254 84.2495C33.0254 83.5491 33.5148 82.6998 34.1179 82.3496L35.0181 82.8749C34.415 83.2251 33.9256 84.0744 33.9256 84.7749Z" fill="#FFE3A6"/>
<path d="M82.8503 57.8008L37.5248 84.0144L33.9414 90.1957L34.055 129.105C34.055 129.805 34.5532 130.085 35.1563 129.735L77.9035 105.01L82.929 100.606L82.8503 57.8095V57.8008Z" fill="#D3874F"/>
<path d="M41.0972 80.9518L37.334 87.4395L38.0594 87.8617L41.8226 81.3741L41.0972 80.9518Z" fill="#CABCBB"/>
<path d="M41.827 81.379L41.1016 80.9587L86.4271 54.7363L87.1525 55.1653L41.827 81.379Z" fill="#FFF8F8"/>
<path d="M87.1521 55.166L87.2308 97.9624L38.1208 126.365L38.0684 87.8674L41.8266 81.3797L87.1521 55.166Z" fill="#EADCDB"/>
<path d="M85.308 57.8789L40.3845 83.8649L38.0684 87.8661L38.1208 126.364L85.3866 99.0205L85.308 57.8789Z" fill="#CABCBB"/>
<path d="M38.0944 101.158L38.0681 87.8675L37.334 87.4473L37.3864 125.936L38.1206 126.365L38.0944 101.158Z" fill="url(#paint0_linear_213_16823)"/>
<path d="M43.019 82.0573L39.2559 88.5449L39.9813 88.9672L43.7445 82.4796L43.019 82.0573Z" fill="#CABCBB"/>
<path d="M43.741 82.4903L43.0156 82.0613L88.3412 55.8477L89.0666 56.2767L43.741 82.4903Z" fill="#FFF8F8"/>
<path d="M89.0662 56.2773L89.1448 99.065L40.0349 127.476L39.9824 88.9787L43.7406 82.491L89.0662 56.2773Z" fill="#EADCDB"/>
<path d="M40.0084 102.269L39.9822 88.9778L39.248 88.5488L39.3005 127.046L40.0346 127.475L40.0084 102.269Z" fill="url(#paint1_linear_213_16823)"/>
<path d="M93.2791 54.6842L92.3789 54.1588C92.6848 53.9837 92.9557 53.9662 93.1568 54.0888L94.057 54.6141C93.856 54.5003 93.585 54.5091 93.2791 54.6842Z" fill="#FFE3A6"/>
<path d="M37.3859 131.023L37.2635 88.3495L36.3633 87.8242L36.4856 130.498C36.4856 130.848 36.608 131.093 36.809 131.216L37.7092 131.741C37.5082 131.627 37.3859 131.382 37.3859 131.023Z" fill="#D3874F"/>
<path d="M38.366 86.4481L37.457 85.9228L92.3791 54.1582L93.2793 54.6835L38.366 86.4481Z" fill="#FFD4A6"/>
<path d="M37.2635 88.3578L36.3633 87.8325C36.3633 87.1321 36.8527 86.274 37.4558 85.9238L38.356 86.4492C37.7529 86.7994 37.2635 87.6574 37.2635 88.3578Z" fill="#FFE3A6"/>
<path d="M93.2792 54.6841C93.8823 54.3339 94.3805 54.6229 94.3805 55.3233L94.5028 97.9971C94.5028 98.7063 94.0134 99.5555 93.4103 99.9058L38.497 131.67C37.894 132.021 37.3958 131.74 37.3958 131.031L37.2734 88.3574C37.2734 87.657 37.7629 86.7989 38.3659 86.4487L93.2792 54.6841Z" fill="#FDC394"/>
<path d="M40.803 131.738L39.8066 132.798L41.0827 133.489L41.5721 132.412L40.803 131.738Z" fill="#D3874F"/>
<path d="M95.367 51.7405L94.4668 51.2152C94.7727 51.0401 95.0436 51.0226 95.2447 51.1364L96.1449 51.6617C95.9439 51.5479 95.6729 51.5654 95.367 51.7405Z" fill="#FFE3A6"/>
<path d="M81.2507 59.9089L80.3418 59.3836L94.4656 51.2148L95.3658 51.7402L81.2507 59.9089Z" fill="#FFD4A6"/>
<path d="M77.4315 66.0031L76.5312 65.4778L79.564 60.207L80.473 60.7324L77.4315 66.0031Z" fill="#FDC394"/>
<path d="M80.4744 60.7321L79.5742 60.2068C79.7752 59.8565 80.0549 59.5501 80.3521 59.375L81.2523 59.9003C80.9551 60.0667 80.6755 60.3731 80.4744 60.7321Z" fill="#FFE3A6"/>
<path d="M76.6541 66.8259L75.7539 66.3006C76.0511 66.1342 76.3307 65.8365 76.5318 65.4863L77.432 66.0117C77.231 66.3619 76.9513 66.6595 76.6541 66.8259Z" fill="#FFE3A6"/>
<path d="M56.0808 78.7247L55.1719 78.1994L75.7545 66.3008L76.6548 66.8261L56.0808 78.7247Z" fill="#FFD4A6"/>
<path d="M55.3026 78.8033L54.4023 78.278C54.6121 78.3918 54.8918 78.3656 55.1802 78.1992L56.0804 78.7245C55.792 78.8909 55.5036 78.9259 55.3026 78.8033Z" fill="#FFE3A6"/>
<path d="M53.7381 78.4351L52.8379 77.9097C53.1351 77.7434 53.4147 77.7084 53.6157 77.8309L54.516 78.3563C54.3062 78.2424 54.0353 78.2687 53.7381 78.4351Z" fill="#FFE3A6"/>
<path d="M39.4913 132.333L39.369 88.0136L38.4688 87.4883L38.5911 131.808C38.5911 132.158 38.7135 132.395 38.9145 132.517L39.8147 133.043C39.6137 132.929 39.4913 132.684 39.4913 132.333Z" fill="#D3874F"/>
<path d="M40.4549 86.114L39.5547 85.5886L52.8395 77.9102L53.7397 78.4355L40.4549 86.114Z" fill="#FFD4A6"/>
<path d="M95.3662 51.7404C95.9693 51.3902 96.4674 51.6704 96.4674 52.3795L96.5985 99.3085C96.5985 100.009 96.1091 100.858 95.506 101.208L40.5927 132.973C39.9897 133.323 39.4915 133.043 39.4915 132.343L39.3691 88.0228C39.3691 87.3223 39.8586 86.473 40.4616 86.1228L53.7464 78.4443C54.0436 78.278 54.3233 78.243 54.5243 78.3656L55.3021 78.8208C55.5119 78.9347 55.7916 78.9084 56.08 78.742L76.6539 66.8435C76.9511 66.6771 77.2307 66.3794 77.4318 66.0292L80.4733 60.7585C80.6743 60.4082 80.954 60.1018 81.2511 59.9267L95.3662 51.7579V51.7404Z" fill="#FDC394"/>
<path d="M39.3612 88.0151L38.4609 87.4898C38.4609 86.7893 38.9504 85.9401 39.5534 85.5898L40.4537 86.1152C39.8506 86.4654 39.3612 87.3147 39.3612 88.0151Z" fill="#FFE3A6"/>
<path d="M88.2169 60.916L42.8914 87.1297L39.3691 93.1972L39.4828 132.334C39.4828 133.034 39.9809 133.314 40.584 132.964L71.2351 115.234L88.2956 103.581L88.2169 60.916Z" fill="#D3874F"/>
<path d="M46.6538 84.1686L42.8906 90.6562L43.6161 91.0785L47.3793 84.5909L46.6538 84.1686Z" fill="#CABCBB"/>
<path d="M47.3836 84.5909L46.6582 84.1707L91.9838 57.957L92.7092 58.3773L47.3836 84.5909Z" fill="#FFF8F8"/>
<path d="M92.7107 58.377L92.7894 101.042L43.6794 129.453L43.627 91.0783L47.3851 84.5906L92.7107 58.377Z" fill="#EADCDB"/>
<path d="M90.8666 61.0918L45.943 87.0778L43.627 91.079L43.6794 129.454L90.9452 102.111L90.8666 61.0918Z" fill="url(#paint2_linear_213_16823)"/>
<path d="M43.653 104.378L43.6267 91.0785L42.8926 90.6582L42.945 129.024L43.6792 129.453L43.653 104.378Z" fill="url(#paint3_linear_213_16823)"/>
<path d="M48.5757 85.2761L44.8125 91.7637L45.538 92.186L49.3011 85.6984L48.5757 85.2761Z" fill="#CABCBB"/>
<path d="M49.2996 85.7032L48.5742 85.2742L93.8998 59.0605L94.6252 59.4896L49.2996 85.7032Z" fill="#FFF8F8"/>
<path d="M94.6248 59.4902L94.7034 102.155L45.5935 130.558L45.541 92.1916L49.2992 85.7039L94.6248 59.4902Z" fill="#EADCDB"/>
<path d="M45.5661 105.482L45.5399 92.1917L44.8145 91.7715L44.8669 130.138L45.5923 130.558L45.5661 105.482Z" fill="url(#paint4_linear_213_16823)"/>
<path d="M108.486 65.4962L107.621 64.6908C107.971 64.4894 108.233 64.4631 108.364 64.5857L109.229 65.3912C109.098 65.2686 108.836 65.2949 108.486 65.4962Z" fill="#FFE3A6"/>
<path d="M41.7125 133.666L52.1568 98.9246L51.2915 98.1191L40.8472 132.861C40.7773 133.106 40.7948 133.272 40.8909 133.36L41.7562 134.165C41.66 134.078 41.6338 133.902 41.7125 133.666Z" fill="#D3874F"/>
<path d="M53.5723 97.2615L52.707 96.456L107.62 64.6914L108.486 65.4969L53.5723 97.2615Z" fill="#FFD4A6"/>
<path d="M52.166 98.9241L51.3008 98.1186C51.4756 97.5495 52.1049 96.8053 52.7079 96.4551L53.5732 97.2606C52.9701 97.6108 52.3408 98.355 52.166 98.9241Z" fill="#FFE3A6"/>
<path d="M41.5206 133.517L38.584 131.818C38.584 132.169 38.7063 132.405 38.9074 132.528L41.8353 134.226C41.6954 134.06 41.5818 133.771 41.5206 133.526V133.517Z" fill="#D3874F"/>
<path d="M108.487 65.4948C109.09 65.1445 109.448 65.3196 109.273 65.8888L98.8291 100.63C98.6543 101.199 98.025 101.943 97.422 102.294L42.5087 134.058C41.9056 134.408 41.5473 134.233 41.7221 133.664L52.1664 98.9229C52.3412 98.3538 52.9704 97.6095 53.5735 97.2593L108.487 65.4948Z" fill="url(#paint5_linear_213_16823)"/>
<path d="M36.8693 128.22L33.9239 126.521L33.5918 129.358L37.2626 131.486L36.8693 128.22Z" fill="#D3874F"/>
<path d="M109.255 57.8261L105.864 61.3545C104.789 62.4752 103.539 63.4558 102.124 64.2788C91.9589 70.1974 76.9349 65.5396 68.6144 53.9036C61.4564 43.8962 61.5613 31.9189 68.2124 25.0108L71.6035 21.4824C64.9524 28.3904 64.8475 40.3678 72.0056 50.3752C80.326 62.0111 95.35 66.6603 105.515 60.7504C106.931 59.9274 108.18 58.938 109.255 57.8261Z" fill="url(#paint6_linear_213_16823)"/>
<path d="M73.1687 49.7115C80.9648 60.6207 95.0449 64.9721 104.571 59.43C114.081 53.8878 115.496 40.5183 107.692 29.6091C99.9044 18.7174 85.8068 14.3484 76.2889 19.8906C66.7623 25.4328 65.3727 38.811 73.1687 49.7115Z" fill="#5C53C7"/>
<path d="M108.075 56.6886L104.684 60.217C110.915 53.7468 111.02 42.5311 104.308 33.1453C96.5206 22.2536 82.423 17.8847 72.9051 23.4268C71.5766 24.1973 70.4142 25.1254 69.4004 26.1673L72.7915 22.6388C73.7966 21.5882 74.9678 20.6689 76.2962 19.8984C85.8053 14.3562 99.9029 18.7252 107.699 29.6169C114.411 39.0027 114.306 50.2183 108.075 56.6886Z" fill="#3A3690"/>
<path d="M108.854 28.9427C117.174 40.5786 115.679 54.8499 105.524 60.7598C95.359 66.6784 80.335 62.0205 72.0145 50.3846C63.7028 38.7575 65.1886 24.4774 75.3445 18.5675C85.5091 12.6489 100.542 17.3155 108.854 28.9427ZM73.1682 49.7105C80.9643 60.6197 95.0444 64.9711 104.571 59.4289C114.08 53.8868 115.496 40.5173 107.691 29.6081C99.9038 18.7164 85.8062 14.3474 76.2884 19.8896C66.7618 25.4317 65.3721 38.81 73.1682 49.7105Z" fill="#FFF8F8"/>
<path d="M103.986 62.4064C103.951 62.3538 103.601 62.5114 102.963 62.8704C102.867 62.9229 102.762 62.9842 102.649 63.0455C102.115 63.3519 101.512 63.7197 100.927 64.0961C100.018 64.674 99.1438 65.2781 98.6107 65.6896C98.2698 65.9523 98.1213 66.1011 98.1475 66.1361L120.233 100.834C120.233 100.834 120.356 100.65 120.697 100.387C121.23 99.9757 122.104 99.3804 123.013 98.8025C123.598 98.426 124.201 98.0583 124.734 97.7519C124.848 97.6906 124.944 97.6293 125.049 97.5768C125.687 97.2178 126.045 97.0602 126.072 97.1127L103.986 62.4151V62.4064Z" fill="url(#paint7_linear_213_16823)"/>
<path d="M102.964 62.8711C102.868 62.9236 102.763 62.9849 102.65 63.0462C102.116 63.3526 101.513 63.7204 100.928 64.0969L123.014 98.7945C123.599 98.418 124.202 98.0503 124.735 97.7438C124.849 97.6825 124.945 97.6213 125.05 97.5687L102.964 62.8711Z" fill="#FFF8F8"/>
<path d="M110.706 68.516C110.653 68.4285 110.033 68.6999 108.923 69.3215C108.757 69.4178 108.573 69.5141 108.39 69.628C107.472 70.162 106.432 70.7924 105.418 71.4403C103.836 72.456 102.307 73.4979 101.389 74.207C100.803 74.6623 100.541 74.9162 100.585 74.9775L118.93 103.792C118.886 103.73 119.148 103.476 119.734 103.021C120.652 102.312 122.181 101.27 123.763 100.254C124.777 99.6064 125.808 98.9673 126.735 98.442C126.927 98.3281 127.102 98.2318 127.268 98.1355C128.378 97.5139 128.99 97.2425 129.051 97.33L110.706 68.516Z" fill="#2C264A"/>
<path d="M108.975 69.2959C108.975 69.2959 108.94 69.3134 108.923 69.3221C108.757 69.4184 108.573 69.5147 108.39 69.6286C107.472 70.1626 106.432 70.793 105.418 71.4409C105.375 71.4672 105.331 71.4935 105.287 71.5197L123.632 100.334C123.676 100.307 123.72 100.281 123.763 100.246C124.777 99.5983 125.809 98.9591 126.735 98.4338C126.927 98.32 127.102 98.2237 127.268 98.1274C127.286 98.1186 127.303 98.1099 127.321 98.1011L108.975 69.2871V69.2959Z" fill="#38305D"/>
<path d="M126.736 98.4416C124.384 99.8075 121.247 101.856 119.735 103.021C118.214 104.194 118.896 104.036 121.247 102.679C123.598 101.313 126.727 99.2734 128.248 98.1002C129.76 96.9357 129.087 97.0846 126.736 98.4416Z" fill="#2C264A"/>
<mask id="mask0_213_16823" style="mask-type:luminance" maskUnits="userSpaceOnUse" x="68" y="17" width="45" height="45">
<path d="M73.1668 49.7095C80.9628 60.6187 95.043 64.9702 104.57 59.428C114.079 53.8858 115.495 40.5164 107.69 29.6071C99.9024 18.7154 85.8048 14.3465 76.287 19.8886C66.7604 25.4308 65.3707 38.809 73.1668 49.7095Z" fill="white"/>
</mask>
<g mask="url(#mask0_213_16823)">
<path d="M93.8631 27.9881L92.4473 27.1651C92.9192 26.8936 93.3562 26.8674 93.6621 27.0425L95.078 27.8655C94.7634 27.6816 94.3351 27.7079 93.8631 27.9881Z" fill="#FFE3A6"/>
<path d="M71.8124 40.7456L70.3965 39.9226L92.4562 27.166L93.8633 27.989L71.8124 40.7456Z" fill="#FFD4A6"/>
<path d="M65.8514 50.2708L64.4355 49.4478L69.1901 41.209L70.5972 42.032L65.8514 50.2708Z" fill="#FDC394"/>
<path d="M70.5975 42.0309L69.1816 41.2079C69.4963 40.6563 69.9333 40.1835 70.3965 39.9121L71.8124 40.7351C71.3492 40.9978 70.9209 41.4706 70.5975 42.0309Z" fill="#FFE3A6"/>
<path d="M93.8632 27.9883C94.8072 27.4368 95.585 27.8833 95.585 28.9865L95.7948 102.287C95.7948 103.381 95.0344 104.703 94.0817 105.255L8.29882 154.872C7.3549 155.423 6.57704 154.977 6.57704 153.891L6.38477 84.6533C6.38477 83.5588 7.14514 82.2368 8.0978 81.6852L28.8465 69.6815C29.3097 69.4189 29.7467 69.3663 30.0614 69.5502L31.285 70.2594C31.6084 70.4432 32.0541 70.3907 32.4998 70.128L64.6367 51.5404C65.1 51.2777 65.5282 50.8137 65.8516 50.2621L70.5974 42.0232C70.9121 41.4716 71.3491 40.9989 71.8123 40.7274L93.8632 27.9708V27.9883Z" fill="#FDC394"/>
<path d="M82.8063 42.5137L12.0037 83.4626L6.41016 93.1111L6.58496 153.882C6.58496 154.977 7.36281 155.414 8.30673 154.863L75.0889 116.243L82.9287 109.361L82.8063 42.5137Z" fill="#D3874F"/>
<path d="M18.725 79.3468L17.5801 78.6814L88.3827 37.7324L89.5189 38.3978L18.725 79.3468Z" fill="#FFF8F8"/>
<path d="M89.5196 38.3984L89.642 105.246L12.9311 149.618L12.8438 89.4862L18.7258 79.3474L89.5196 38.3984Z" fill="#EADCDB"/>
<path d="M86.6442 42.6445L16.4708 83.2258L12.8438 89.4859L12.9311 149.618L86.7665 106.909L86.6442 42.6445Z" fill="#CABCBB"/>
<path d="M21.7143 81.0792L20.5781 80.4138L91.3807 39.4648L92.5169 40.1303L21.7143 81.0792Z" fill="#FFF8F8"/>
<path d="M92.5177 40.1309L92.64 106.978L15.9205 151.351L15.8418 91.2186L21.7151 81.0798L92.5177 40.1309Z" fill="#EADCDB"/>
<path d="M99.0975 37.6445L97.6816 36.8215C98.1536 36.5501 98.5819 36.5239 98.8965 36.7077L100.312 37.5307C99.9977 37.3469 99.5695 37.3731 99.0975 37.6445Z" fill="#FFE3A6"/>
<path d="M13.3056 87.2621L11.8984 86.4391L97.6814 36.8223L99.0972 37.6453L13.3056 87.2621Z" fill="#FFD4A6"/>
<path d="M99.0995 37.645C100.043 37.0934 100.821 37.5487 100.821 38.6431L101.014 105.298C101.014 106.401 100.253 107.732 99.3005 108.275L13.5176 157.892C12.5737 158.443 11.7958 157.997 11.7958 156.893L11.6035 90.2386C11.6035 89.1442 12.3639 87.8046 13.3166 87.2618L99.0995 37.645Z" fill="#FDC394"/>
<path d="M102.357 33.0486L100.941 32.2256C101.413 31.9542 101.85 31.9279 102.156 32.103L103.572 32.926C103.257 32.7422 102.829 32.7684 102.357 33.0486Z" fill="#FFE3A6"/>
<path d="M80.3065 45.8052L78.8906 44.9822L100.942 32.2344L102.357 33.0486L80.3065 45.8052Z" fill="#FFD4A6"/>
<path d="M74.3456 55.3392L72.9297 54.5162L77.6755 46.2773L79.0914 47.1003L74.3456 55.3392Z" fill="#FDC394"/>
<path d="M79.0917 47.1012L77.6758 46.2782C77.9904 45.7266 78.4274 45.2538 78.8906 44.9824L80.3065 45.8054C79.8433 46.0681 79.415 46.5409 79.0917 47.1012Z" fill="#FFE3A6"/>
<path d="M73.1307 56.6091L71.7148 55.7861C72.1781 55.5234 72.6063 55.0594 72.9297 54.5078L74.3456 55.3308C74.0309 55.8824 73.5939 56.3464 73.1307 56.6091Z" fill="#FFE3A6"/>
<path d="M40.9853 75.2056L39.5781 74.3826L71.715 55.7949L73.1309 56.6092L40.9853 75.2056Z" fill="#FFD4A6"/>
<path d="M102.357 33.0489C103.301 32.4973 104.079 32.9438 104.079 34.047L104.289 107.347C104.289 108.442 103.529 109.764 102.576 110.315L16.793 159.932C15.849 160.484 15.0712 160.037 15.0712 158.951L14.8789 89.7138C14.8789 88.6194 15.6393 87.2973 16.5919 86.7457L37.3407 74.7421C37.8039 74.4794 38.2409 74.4269 38.5555 74.6107L39.7791 75.3199C40.1025 75.5038 40.5482 75.4513 40.994 75.1886L73.1309 56.6009C73.5941 56.3382 74.0224 55.8742 74.3457 55.3226L79.0916 47.0838C79.4062 46.5322 79.8432 46.0594 80.3064 45.788L102.357 33.0314V33.0489Z" fill="#FDC394"/>
<path d="M91.1965 47.3906L20.3939 88.3396L14.8965 97.8217L15.0713 158.952C15.0713 160.046 15.8491 160.484 16.7931 159.932L64.6707 132.239L91.3189 114.037L91.1965 47.3906Z" fill="#D3874F"/>
<path d="M27.4038 84.3722L26.2676 83.7068L97.0702 42.7578L98.2064 43.4232L27.4038 84.3722Z" fill="#FFF8F8"/>
<path d="M98.2071 43.4238L98.3295 110.07L21.6099 154.442L21.5312 94.5115L27.4045 84.3728L98.2071 43.4238Z" fill="#EADCDB"/>
<path d="M95.3317 47.6602L25.1583 88.2502L21.5312 94.5103L21.6099 154.441L95.4453 111.732L95.3317 47.6602Z" fill="url(#paint8_linear_213_16823)"/>
<path d="M30.4018 86.1066L29.2656 85.4412L100.059 44.4922L101.204 45.1576L30.4018 86.1066Z" fill="#FFF8F8"/>
<path d="M101.205 45.1582L101.328 111.804L24.608 156.177L24.5293 96.2372L30.4026 86.1072L101.205 45.1582Z" fill="#EADCDB"/>
<path d="M37.0695 104.159L35.7148 102.898L121.498 53.2812L122.852 54.542L37.0695 104.159Z" fill="#FFD4A6"/>
<path d="M122.853 54.543C123.797 53.9914 124.347 54.2716 124.085 55.1559L107.767 109.422C107.496 110.306 106.518 111.471 105.565 112.022L19.782 161.639C18.8381 162.191 18.2875 161.91 18.5497 161.026L34.8672 106.76C35.1382 105.876 36.1171 104.711 37.0697 104.16L122.853 54.543Z" fill="url(#paint9_linear_213_16823)"/>
</g>
<g style="mix-blend-mode:color-dodge">
<path d="M106.247 31.3852C108.065 33.9592 108.083 37.0674 106.291 38.3369C104.499 39.6065 101.58 38.5471 99.7623 35.973C97.9444 33.3989 97.9269 30.2907 99.7186 29.0212C101.51 27.7517 104.429 28.8111 106.247 31.3852Z" fill="white"/>
</g>
<g style="mix-blend-mode:color-dodge">
<path d="M109.945 41.5949C109.84 42.7506 109.098 43.6349 108.293 43.5561C107.489 43.4861 106.921 42.4792 107.026 41.3235C107.131 40.1678 107.874 39.2835 108.678 39.3623C109.482 39.4411 110.05 40.4392 109.945 41.5949Z" fill="white"/>
</g>
<path d="M31.9789 143.786L31.0699 143.261L31 113.037L31.909 113.562L31.9789 143.786Z" fill="url(#paint10_linear_213_16823)"/>
<path d="M35.6892 104.958L31.0039 113.035L31.9107 113.563L36.596 105.486L35.6892 104.958Z" fill="#CABCBB"/>
<path d="M36.5945 105.482L35.6855 104.956L53.9696 94.3887L54.8785 94.914L36.5945 105.482Z" fill="#FFF8F8"/>
<path d="M54.8769 94.9141L54.973 130.487L31.9781 143.787L31.9082 113.563L36.5928 105.482L54.8769 94.9141Z" fill="#EDE0E0"/>
<path d="M40.1163 110.595L36.3145 112.793V112.224L40.1163 110.026V110.595ZM41.5934 109.168L40.8855 109.579V110.149L41.5934 109.737V109.168ZM38.4732 112.521L36.3669 113.738V114.307L38.4732 113.09V112.521ZM41.5847 110.726L39.2423 112.084V112.653L41.5847 111.296V110.726ZM36.8913 114.99L36.3145 115.323V115.892L36.8913 115.559V114.99ZM41.5934 112.276L37.6604 114.553V115.122L41.5934 112.845V112.276ZM38.4732 115.629L36.3669 116.846V117.416L38.4732 116.199V115.629ZM41.5847 113.826L39.2423 115.183V115.752L41.5847 114.395V113.826ZM37.4244 119.342L36.3669 119.955V120.524L37.4244 119.911V119.342ZM40.0989 117.792L38.1848 118.895V119.464L40.0989 118.361V117.792ZM40.868 117.346V117.915L41.6895 117.442V116.873L40.868 117.346Z" fill="#2C264A"/>
<defs>
<linearGradient id="paint0_linear_213_16823" x1="34.5984" y1="87.0445" x2="41.3952" y2="130.065" gradientUnits="userSpaceOnUse">
<stop stop-color="#B1A2A2"/>
<stop offset="1" stop-color="#CABCBB"/>
</linearGradient>
<linearGradient id="paint1_linear_213_16823" x1="36.5212" y1="88.1461" x2="43.3092" y2="131.166" gradientUnits="userSpaceOnUse">
<stop stop-color="#B1A2A2"/>
<stop offset="1" stop-color="#CABCBB"/>
</linearGradient>
<linearGradient id="paint2_linear_213_16823" x1="64.8127" y1="104.256" x2="68.39" y2="93.2278" gradientUnits="userSpaceOnUse">
<stop stop-color="#B1A2A2"/>
<stop offset="1" stop-color="#CABCBB"/>
</linearGradient>
<linearGradient id="paint3_linear_213_16823" x1="40.1744" y1="90.2555" x2="46.9449" y2="133.136" gradientUnits="userSpaceOnUse">
<stop stop-color="#B1A2A2"/>
<stop offset="1" stop-color="#CABCBB"/>
</linearGradient>
<linearGradient id="paint4_linear_213_16823" x1="42.0876" y1="91.3687" x2="48.8581" y2="134.24" gradientUnits="userSpaceOnUse">
<stop stop-color="#B1A2A2"/>
<stop offset="1" stop-color="#CABCBB"/>
</linearGradient>
<linearGradient id="paint5_linear_213_16823" x1="66.3164" y1="86.2713" x2="94.5882" y2="127.708" gradientUnits="userSpaceOnUse">
<stop stop-color="#E7A470"/>
<stop offset="1" stop-color="#FDC394"/>
</linearGradient>
<linearGradient id="paint6_linear_213_16823" x1="106.983" y1="87.6469" x2="72.7363" y2="27.8733" gradientUnits="userSpaceOnUse">
<stop stop-color="#EADCDB"/>
<stop offset="1" stop-color="#C1B2B2"/>
</linearGradient>
<linearGradient id="paint7_linear_213_16823" x1="108.417" y1="83.7082" x2="114.917" y2="79.9271" gradientUnits="userSpaceOnUse">
<stop stop-color="#EADCDB"/>
<stop offset="0.5" stop-color="#F6ECEB"/>
<stop offset="1" stop-color="#FFF8F8"/>
</linearGradient>
<linearGradient id="paint8_linear_213_16823" x1="54.6296" y1="115.085" x2="60.2147" y2="97.8518" gradientUnits="userSpaceOnUse">
<stop stop-color="#B1A2A2"/>
<stop offset="1" stop-color="#CABCBB"/>
</linearGradient>
<linearGradient id="paint9_linear_213_16823" x1="87.7616" y1="64.8044" x2="46.9429" y2="171.861" gradientUnits="userSpaceOnUse">
<stop stop-color="#E7A470"/>
<stop offset="1" stop-color="#FDC394"/>
</linearGradient>
<linearGradient id="paint10_linear_213_16823" x1="31.9701" y1="117.056" x2="30.7949" y2="144.74" gradientUnits="userSpaceOnUse">
<stop stop-color="#B1A2A2"/>
<stop offset="1" stop-color="#CABCBB"/>
</linearGradient>
</defs>
</svg>
