<svg width="243" height="187" viewBox="0 0 243 187" fill="none" xmlns="http://www.w3.org/2000/svg">
<g clip-path="url(#clip0_89_246)">
<path d="M160.913 123.181C161.167 126.703 177.865 133.741 181.602 134.703C181.366 137.457 180.049 137.384 181.361 139.653C182.222 141.142 185.408 142.76 186.848 143.768C190.545 146.353 194.225 148.731 198.013 151.197C207.858 157.606 219.111 166.472 231.301 167.005C235.965 167.208 243.052 167.861 243 161.417C242.954 155.724 234 152.331 229.935 149.652C219.461 142.75 208.404 136.736 197.794 130.169C195.644 128.837 193.591 127.21 191.278 126.126C188.061 124.618 187.418 125.85 184.285 125.536C181.934 125.3 180.125 123.534 178.14 122.374C175.751 120.978 174.318 120.617 171.722 119.948L160.913 123.184V123.181Z" fill="#E8F6FE"/>
<path d="M188.344 187H150.739C148.775 185.826 146.82 184.661 144.867 183.523C136.157 178.433 125.991 173.457 118.279 167.06C116.614 165.674 115.045 164.809 115.176 162.331C121.048 161.52 129.839 167.837 134.982 170.228C140.302 172.699 149.591 178.426 155.393 176.943C155.839 173.184 133.835 162.967 137.042 160.815L141.713 160.523C149.127 163.928 155.981 168.429 163.045 172.575C171.388 177.463 180.064 181.936 188.345 187H188.344Z" fill="#E8F6FE"/>
<path d="M97.3098 114.248C98.3869 113.618 100.154 113.624 101.232 114.251L142.479 139.183C143.557 139.812 143.557 140.842 142.477 141.47L68.4267 185.485C67.3482 186.114 65.5826 186.112 64.5041 185.483L5.2507 146.016C4.17214 145.385 13.5278 145.608 14.6078 144.979L97.3098 114.247V114.248Z" fill="#E8F6FE"/>
<path d="M161.344 52.7426C160.74 52.0914 163.059 51.9701 163.518 49.911C164.258 46.5999 165.034 43.2456 166.336 40.0991C167.212 37.9794 168.397 34.56 169.411 32.5327C170.134 31.0901 170.749 52.8105 170.749 52.8105C170.798 53.9195 170.838 55.0313 170.89 56.1461C170.89 56.1461 168.769 60.7538 161.344 52.7441V52.7426Z" fill="#ECF7FE"/>
<path d="M166.733 46.9527C167.303 42.3609 168.562 37.925 169.203 33.3533C169.216 33.2522 169.19 33.1656 169.147 33.0934C169.235 32.9028 169.324 32.7079 169.413 32.5317C170.136 31.0892 170.751 52.8095 170.751 52.8095C170.8 53.9185 170.84 55.0304 170.891 56.1451C170.891 56.1451 169.71 58.714 166.016 56.6794C166.125 53.4261 166.338 50.1772 166.733 46.9527Z" fill="#3D69B1"/>
<path d="M177.215 117.44C177.33 118.288 177.384 119.166 177.442 120.016C177.483 120.647 177.426 121.273 176.918 121.726C176.551 122.052 175.913 122.146 175.424 122.142C174.784 122.142 174.189 122.185 173.559 122.309C172.657 122.487 171.868 122.9 171.101 123.384C169.989 124.078 168.833 124.718 167.638 125.265C166.391 125.843 165.054 126.124 163.689 125.974C162.822 125.877 161.24 125.693 160.87 124.727C160.638 124.136 160.794 123.119 160.981 122.535C161.262 121.662 162.036 121.005 162.719 120.441C163.526 119.777 164.419 119.257 165.339 118.757C166.706 118.018 167.889 117.358 169.023 116.276L177.215 117.437V117.44Z" fill="#1D1E19"/>
<path d="M163.527 125.233C164.932 125.389 166.31 125.098 167.594 124.501C168.828 123.938 170.012 123.28 171.162 122.562C171.947 122.068 172.765 121.642 173.69 121.46C174.341 121.33 174.952 121.285 175.609 121.285C176.114 121.29 176.769 121.194 177.149 120.855C177.274 120.744 177.37 120.623 177.446 120.494C177.426 120.956 177.297 121.388 176.917 121.727C176.55 122.054 175.911 122.147 175.422 122.143C174.783 122.143 174.187 122.186 173.558 122.311C172.656 122.488 171.867 122.901 171.099 123.385C169.988 124.08 168.832 124.719 167.637 125.266C166.389 125.844 165.053 126.126 163.687 125.975C162.821 125.879 161.239 125.694 160.869 124.728C160.809 124.578 160.778 124.394 160.763 124.195C161.301 124.975 162.719 125.145 163.527 125.232V125.233Z" fill="#0A0901"/>
<path d="M178.238 90.8885C178.582 92.523 178.11 94.4435 178.11 96.1085C178.11 98.3755 178.129 100.635 178.126 102.892C178.123 105.165 177.964 107.523 178.11 109.787C178.15 110.384 178.434 110.937 178.48 111.511C178.529 112.161 178.242 112.384 178.107 112.996C177.628 115.168 178.535 117.28 176.512 118.906C174.864 120.227 172.428 120.909 170.316 120.419C169.182 120.157 168.116 119.393 167.598 118.341C167.015 117.154 167.376 116.366 167.425 115.186C167.449 114.604 167.22 114.093 167.233 113.497C167.247 112.656 167.652 112.164 167.874 111.381C168.079 110.668 168.069 109.87 168.066 109.127C168.05 107.689 168.219 106.255 168.317 104.808C168.531 101.665 168.485 98.6282 168.38 95.4818C168.323 93.7432 168.397 91.9888 168.142 90.2647C167.901 88.6113 167.604 86.659 167.806 85.0273L178.239 90.887L178.238 90.8885Z" fill="#3D69B1"/>
<path d="M191.999 126.383C192.23 127.58 192.488 128.812 192.345 130.053C192.214 131.196 191.712 131.721 190.905 132.472C189.61 133.681 189.023 135.494 187.824 136.821C186.664 138.107 184.385 139.477 182.591 139.431C180.706 139.379 179.867 137.939 180.094 136.179C180.204 135.324 180.432 134.43 180.683 133.581C180.961 132.637 181.347 131.714 181.69 130.783C182.025 129.857 182.39 129.025 183.012 128.257C183.288 127.922 183.615 127.721 183.599 127.249L191.999 126.383Z" fill="#1D1E19"/>
<path d="M182.313 138.319C184.249 138.37 186.696 136.894 187.945 135.512C189.236 134.084 189.868 132.132 191.262 130.826C191.741 130.388 192.114 130.014 192.384 129.564C192.374 129.726 192.361 129.891 192.344 130.054C192.213 131.196 191.711 131.722 190.904 132.473C189.609 133.681 189.022 135.495 187.823 136.822C186.663 138.107 184.384 139.477 182.589 139.431C181.095 139.392 180.264 138.475 180.092 137.22C180.538 137.872 181.278 138.29 182.311 138.319H182.313Z" fill="#0A0901"/>
<path d="M190.209 88.2506C190.151 89.3697 190.601 90.4887 190.594 91.6179C190.588 92.9738 190.523 94.259 190.607 95.6264C190.852 99.6739 190.875 103.752 191.252 107.792C191.579 111.347 192.49 114.843 192.706 118.404C192.82 120.233 192.15 121.983 192.636 123.627C193.388 126.165 192.319 127.894 190.544 129.639C189.048 131.107 186.09 132.003 184.124 131.18C182.999 130.714 182.51 129.667 182.396 128.52C182.295 127.455 182.867 126.513 182.781 125.627C182.667 124.409 182.231 123.305 182.272 121.965C182.33 120.036 182.529 118.088 182.721 116.163C182.882 114.586 182.862 113.022 182.669 111.448C182.54 110.365 182.483 109.269 182.213 108.215C181.721 106.309 180.713 104.572 180.158 102.685C179.517 100.485 179.422 98.2603 178.926 96.0452C178.372 93.5846 176.575 90.7212 176.57 88.1885L190.208 88.2477L190.209 88.2506Z" fill="#3D69B1"/>
<path d="M185.376 26.5841C188.408 27.4736 190.321 31.4157 190.924 34.2242C191.691 37.8313 191.813 41.8008 191.52 45.5306C191.183 49.7774 189.947 53.8956 189.79 58.2608C189.59 63.9125 190.013 70.0465 190.941 75.564C191.741 80.3421 192.887 85.1621 193.619 89.7814C190.457 89.6905 187.314 91.7857 184.029 92.0225C180.858 92.2463 177.017 92.5669 174.05 91.4377C173.758 91.3251 173.414 91.3019 173.099 91.2341C173.134 90.7922 172.934 90.4298 172.875 90.0067C170.516 90.089 165.919 87.9389 165.405 85.448C164.964 83.3211 165.554 80.5385 165.5 78.3725C165.405 74.5402 166.038 70.0769 166.85 66.3774C167.783 62.1277 167 57.1691 167.32 52.7953C167.614 48.8186 167.473 44.7451 168.06 40.8001C168.52 37.6898 168.411 34.1145 169.986 31.2857C171.978 27.7018 174.455 25.8275 178.652 25.7148L185.373 26.5856L185.376 26.5841Z" fill="#ECF7FE"/>
<path d="M189.31 42.195C188.989 39.5034 188.418 36.8393 188.276 34.1318C189.139 37.3996 190.37 40.5373 191.628 43.6693C191.602 44.2946 191.569 44.9141 191.52 45.5306C191.37 47.4497 191.034 49.3471 190.694 51.2517C190.189 48.2381 189.674 45.2259 189.309 42.195H189.31Z" fill="#3D69B1"/>
<path d="M184.858 31.1567C183.887 32.3379 182.903 33.5061 181.782 34.5486C180.616 35.6345 179.375 36.5861 178.046 37.4597C177.168 38.0358 176.309 38.6279 175.554 39.3513C175.64 37.0842 175.234 34.8201 175.424 32.5473C175.616 30.2513 176.224 28.0536 176.945 25.8761C177.486 25.7851 178.051 25.7302 178.655 25.7129L185.376 26.5836C185.808 26.7121 186.216 26.9042 186.602 27.1424C186.849 28.6499 185.801 30.0203 184.858 31.1567Z" fill="#3D69B1"/>
<path d="M184.652 75.855C181.676 73.8176 186.529 69.129 189.005 68.8806C192.117 68.5644 191.717 72.2234 190.194 73.8291C189.415 74.658 189.207 76.6608 188.404 77.2326C187.388 77.9575 185.524 76.4485 184.652 75.855Z" fill="#E7AC80"/>
<path d="M187.091 27.4746C187.721 28.0089 192.514 29.7561 198.038 40.4892C199.836 43.9808 201.735 47.7857 202.643 51.6353C203.542 55.4489 192.115 72.6178 191.829 73.3644C189.659 72.8575 187.717 71.3457 187.09 69.1046C187.87 67.8758 194.402 56.6156 195.028 52.8165C193.659 51.1501 191.113 46.6637 189.502 40.8921C187.808 34.8129 187.09 27.4761 187.09 27.4761L187.091 27.4746Z" fill="#ECF7FE"/>
<path d="M187.535 20.8917C187.654 21.4722 187.375 22.3227 187.11 22.8642C186.962 23.1588 186.754 23.54 186.503 23.7508C186.218 23.9847 185.888 23.9775 185.572 24.0786C185.544 24.9609 185.765 25.7204 186.066 26.5391C186.434 27.5369 186.422 28.6618 185.733 29.5094C184.406 31.1469 182.021 31.775 180 31.6479C178.684 31.57 177.303 31.1541 176.182 30.4263C175.834 30.2011 175.944 29.7505 175.812 29.16C174.903 29.1369 173.761 28.23 173.783 26.3673C173.799 25.3637 173.724 24.3212 173.618 23.3234C173.529 22.5148 173.465 21.761 173.495 20.9321C173.529 20.0542 173.202 19.26 173.351 18.398C173.473 17.7005 173.618 16.9901 173.837 16.3172C174.183 15.2602 175.21 14.3736 176.124 13.8306C177.668 12.9224 179.738 12.5152 181.508 12.739C183.447 12.9801 184.986 13.8783 185.737 15.7613L187.536 20.8932L187.535 20.8917Z" fill="#E7AC80"/>
<path d="M174.13 13.7076L174.222 13.6369C174.955 13.0289 175.497 12.1005 176.151 11.4045C177.201 10.2796 178.558 9.74676 180.022 9.26592C182.79 8.36487 185.142 9.15184 186.711 11.6312C187.143 12.3171 187.522 13.1011 187.443 13.9228C187.426 14.1105 187.317 14.3458 187.179 14.535C188.065 15.4158 188.029 18.8814 187.862 19.5846C187.793 19.8749 187.744 20.1723 187.675 20.464C187.638 20.6156 187.59 20.7571 187.535 20.8929C187.266 19.9066 186.377 19.215 185.555 20.142C184.907 20.8726 184.749 21.9542 184.749 22.8986C184.749 24.5086 184.989 26.1894 183.85 27.45C182.952 28.4507 181.125 29.4441 179.804 28.9171C179.104 28.6398 178.728 27.9121 178.862 27.1915C179.034 26.2573 179.791 26.3136 180.577 26.1143C182.024 25.7475 183.493 25.0573 183.761 23.3505C183.861 22.7238 183.874 21.8314 183.661 21.2336C183.415 20.542 182.985 20.3687 183.325 19.6135C183.612 18.9695 184.208 18.2966 184.214 17.5659C184.23 15.6454 182.665 16.0367 181.488 16.4367C179.725 17.0374 177.11 17.1804 175.302 16.7515C174.494 16.5609 173.535 16.0916 173.097 15.3523C172.472 14.2866 173.443 14.2159 174.13 13.7105V13.7076Z" fill="#4F1838"/>
<path d="M174.041 21.9964C175.141 21.5401 175.759 22.0758 176.633 22.6693C177.274 23.1097 177.947 23.4793 178.714 23.6425C179.047 23.7118 179.372 23.7782 179.712 23.7898C180.413 23.8143 180.554 24.223 180.319 24.8092C180.052 25.4605 179.967 26.2633 180.058 26.9579C180.145 27.6423 180.784 29.1441 179.737 29.3737C178.791 29.5802 178.024 29.7838 177.046 29.6206C176.646 29.5571 176.111 29.4603 175.86 29.443C174.949 29.4213 173.675 28.3037 173.698 26.4395C173.711 25.4345 173.622 24.3443 173.515 23.3494C173.475 22.9682 173.539 22.5754 173.515 22.2C173.688 22.1451 173.86 22.0743 174.04 21.9978L174.041 21.9964Z" fill="white"/>
<path d="M180.111 24.4725L180.165 24.4653C183.078 23.6191 185.491 20.7485 185.545 20.6994C185.624 20.6243 185.63 20.5059 185.561 20.4236C185.491 20.3456 185.367 20.3355 185.288 20.4106C185.276 20.4222 182.88 23.2726 180.059 24.0971C179.957 24.1231 179.898 24.2314 179.927 24.3353C179.952 24.4177 180.028 24.4725 180.111 24.4725Z" fill="white"/>
<path d="M180.071 28.8552H180.097C184.092 28.3383 185.938 24.3731 185.957 24.337C186.003 24.2388 185.96 24.1233 185.865 24.0814C185.77 24.0323 185.653 24.0785 185.607 24.171C185.59 24.2071 183.827 27.9831 180.048 28.4697C179.94 28.487 179.866 28.5809 179.88 28.6892C179.893 28.7845 179.975 28.8552 180.069 28.8552H180.071Z" fill="white"/>
<path d="M175.008 40.4057C175.008 40.4057 174.926 40.6642 174.793 41.1176C174.731 41.3443 174.652 41.623 174.567 41.9378C174.49 42.2598 174.369 42.6093 174.305 43.0092C174.23 43.4078 174.149 43.8395 174.073 44.303C173.994 44.7651 173.905 45.2532 173.859 45.7528C173.804 46.2568 173.736 46.7751 173.688 47.3036C173.632 47.8307 173.599 48.3693 173.553 48.905C173.518 49.448 173.489 49.975 173.44 50.505C173.394 51.0291 173.374 51.549 173.333 52.0572C173.291 52.5554 173.267 53.0406 173.238 53.5012C173.203 53.9633 173.209 54.4095 173.203 54.8138C173.203 55.2196 173.182 55.5892 173.219 55.9228C173.249 56.2534 173.275 56.5379 173.297 56.7762C173.343 57.2469 173.376 57.5126 173.376 57.5126C173.376 57.5126 173.407 57.2426 173.45 56.7733C173.469 56.5379 173.489 56.2563 173.518 55.9314C173.523 55.6037 173.606 55.2383 173.647 54.8412C173.698 54.4427 173.753 54.0095 173.807 53.5546C173.875 53.0983 173.948 52.6161 174.007 52.1107C174.065 51.6096 174.131 51.0912 174.18 50.5656C174.238 50.0429 174.275 49.4956 174.321 48.9642C174.391 47.8913 174.461 46.8185 174.533 45.8192C174.56 45.3138 174.599 44.8373 174.639 44.3796C174.682 43.9233 174.712 43.4886 174.737 43.0872C174.762 42.6858 174.826 42.319 174.857 41.9941C174.892 41.6649 174.922 41.3819 174.946 41.1407C174.992 40.6743 175.011 40.4043 175.011 40.4043L175.008 40.4057Z" fill="#3D69B1"/>
<path d="M190.321 77.8132C190.321 77.8132 190.181 77.7785 189.933 77.7381C189.808 77.7222 189.659 77.6875 189.495 77.6485C189.333 77.6124 189.149 77.5677 188.951 77.5099C188.752 77.4565 188.541 77.3829 188.322 77.3078C188.1 77.2341 187.876 77.1273 187.638 77.0406C187.17 76.8385 186.684 76.593 186.202 76.3331C185.726 76.0631 185.248 75.7844 184.804 75.5129C184.358 75.2342 183.942 74.9757 183.585 74.7534C183.226 74.531 182.919 74.3534 182.698 74.2278C182.482 74.1065 182.35 74.04 182.35 74.04C182.35 74.04 182.701 74.5079 183.316 75.1071C183.619 75.4089 183.995 75.7411 184.421 76.0732C184.636 76.232 184.858 76.4082 185.095 76.5583C185.33 76.7215 185.584 76.8587 185.832 77.0118C186.093 77.1417 186.348 77.2803 186.618 77.3901C186.875 77.5085 187.15 77.5865 187.41 77.6803C187.674 77.7554 187.93 77.8276 188.18 77.8623C188.424 77.9099 188.662 77.9402 188.883 77.946C189.099 77.9662 189.304 77.959 189.482 77.9431C189.66 77.9402 189.812 77.9186 189.934 77.8911C190.182 77.8478 190.323 77.8146 190.323 77.8146L190.321 77.8132Z" fill="#3D69B1"/>
<path d="M163.537 52.7583C162.807 53.2348 161.51 52.8796 160.803 52.5114C160.394 52.2977 160.107 51.9064 159.851 51.5382C159.63 51.2234 159.4 50.8595 159.362 50.461C159.264 49.443 161.496 50.3498 161.899 50.5678L163.538 52.7598L163.537 52.7583Z" fill="#E7AC80"/>
<path d="M174.103 59.0402L164.859 44.2206L151.129 36.54L160.192 50.9972L174.103 59.0402Z" fill="#3D69B1"/>
<path d="M159.4 49.8842C159.08 49.3702 159.195 48.7594 159.397 48.2164C159.508 47.9118 160.17 47.0685 159.611 46.8692C158.641 46.5183 158.35 49.1334 158.418 49.5781C158.512 50.2106 159.594 50.9196 160.265 50.9383L159.399 49.8842H159.4Z" fill="#E7AC80"/>
<path d="M159.759 50.3086C159.44 49.796 159.557 49.1837 159.759 48.6379C159.868 48.3361 160.532 47.4928 159.97 47.295C159.004 46.9441 158.713 49.5563 158.779 49.9996C158.878 50.6335 159.96 51.3411 160.624 51.3656L159.759 50.3072V50.3086Z" fill="#E7AC80"/>
<path d="M160.117 50.7342C159.8 50.2216 159.912 49.6093 160.117 49.0649C160.228 48.766 160.889 47.9227 160.331 47.7206C159.363 47.3711 159.073 49.979 159.141 50.4295C159.235 51.0605 160.317 51.7681 160.984 51.7941L160.117 50.7342Z" fill="#E7AC80"/>
<path d="M160.479 51.1606C160.159 50.6509 160.279 50.0358 160.477 49.4899C160.589 49.191 161.25 48.3477 160.691 48.1456C159.726 47.7947 159.435 50.4083 159.502 50.8531C159.597 51.4841 160.678 52.1945 161.345 52.2176L160.479 51.1592V51.1606Z" fill="#E7AC80"/>
<path d="M0.501953 140.529V132.528H8.47211L57.013 104.314C62.4331 101.168 71.2953 101.177 76.7039 104.34L104.93 120.855H112.955V128.856H112.948C112.973 130.962 111.621 133.071 108.883 134.664L56.4436 165.145C51.0236 168.291 42.157 168.283 36.7484 165.115L4.55802 146.282C1.84728 144.698 0.499085 142.614 0.503387 140.529H0.501953Z" fill="#B6BEDD"/>
<path d="M57.0131 96.3974C62.4331 93.2481 71.2954 93.2639 76.7039 96.4263L108.9 115.264C114.312 118.427 114.304 123.596 108.884 126.747L56.4451 157.232C51.0251 160.383 42.1585 160.367 36.7499 157.202L4.55808 138.365C-0.853367 135.2 -0.846196 130.032 4.57385 126.883L57.0145 96.3988L57.0131 96.3974Z" fill="#E8F6FE"/>
<path d="M56.2014 99.9139C60.9932 97.1285 68.8314 97.14 73.6189 99.937L102.095 116.599C106.879 119.399 106.871 123.969 102.079 126.759L55.6936 153.718C50.9018 156.508 43.0607 156.492 38.2717 153.694L9.80036 137.033C5.01281 134.232 5.01999 129.663 9.81613 126.873L56.2014 99.9139Z" fill="#D2D7EB"/>
<path d="M32.7525 90.9864L24.7322 86.2949L24.8986 145.209L32.916 149.905L32.7525 90.9864Z" fill="#B6BEDD"/>
<path d="M95.7149 54.5772L87.6959 49.8828L24.7322 86.2957L32.7525 90.9872L95.7149 54.5772Z" fill="#E8F6FE"/>
<path d="M32.7527 90.9871L32.9162 149.906L95.88 113.494L95.715 54.5771L32.7527 90.9871Z" fill="#E8F6FE"/>
<path d="M77.4798 8.30821C79.5308 7.12125 82.405 7.6743 83.878 9.53559L132.189 58.1083C134.529 60.9081 132.473 66.996 126.306 70.3142L49.1131 113.546C47.0478 114.702 44.1807 114.103 42.7378 112.217L1.0871 57.6231C-2.02093 54.146 2.08821 46.5737 6.42396 44.3471L77.4798 8.30821Z" fill="#B6BEDD"/>
<path d="M81.7095 0.623692C83.7605 -0.560373 86.639 -0.00877164 88.1091 1.85685L131.624 57.1339C133.095 58.9981 132.603 61.4731 130.54 62.6297L53.3442 105.86C51.2775 107.018 48.4118 106.421 46.9675 104.531L5.31822 49.9458C3.87967 48.0527 4.37448 45.5388 6.42547 44.3475L81.7095 0.623692Z" fill="#E8F6FE"/>
<path d="M87.2628 6.31454C85.7927 4.44747 82.9156 3.89443 80.8675 5.08138L11.5012 45.3656C9.45449 46.554 8.95537 49.0737 10.3982 50.961L47.881 100.09C49.3239 101.977 52.1938 102.575 54.2606 101.42L125.369 61.5945C127.432 60.435 127.922 57.9643 126.454 56.0973L87.2628 6.31454Z" fill="#3D69B1"/>
<path d="M85.4772 79.0368C72.7123 62.5595 59.9446 46.0779 47.1797 29.6006C36.1604 36.0018 25.141 42.4015 14.123 48.7998C26.6283 65.1976 39.1364 81.5883 51.6446 97.9847C62.9207 91.6716 74.2011 85.3527 85.4772 79.0368Z" fill="#AFDFF9"/>
<path d="M52.8479 53.8971C51.9902 54.4053 52.0519 55.6558 52.1853 56.5395C52.4736 58.4615 54.3797 60.6881 54.014 62.6346C53.4761 65.4865 50.2117 62.2967 49.0385 61.1906C47.151 59.4044 45.2019 57.8478 43.2284 56.1194C41.5058 54.6075 39.7775 52.8574 37.6921 51.7672C36.3941 51.0885 33.4109 48.085 32.5016 47.4309C31.6941 46.8475 30.4778 46.4331 29.765 47.132C29.0938 47.7818 29.6603 48.6323 30.1824 49.3139C31.1218 50.5311 32.2764 51.6315 33.4295 52.6913C35.5623 54.645 37.7839 56.515 39.7302 58.6405C40.2136 59.169 40.8877 59.8217 41.13 60.4816C41.3323 61.0318 40.6223 60.6405 40.3541 60.4123C39.2827 59.4997 38.643 58.834 37.7882 57.9619C36.7312 56.876 35.535 55.8176 34.4937 54.7259C33.398 53.5794 32.2907 52.4487 31.1792 51.321C30.5668 50.703 29.9988 50.0604 29.428 49.4164C28.5473 48.4215 27.159 47.2172 25.8524 48.0071C23.8745 49.1998 26.3587 51.3874 27.4817 52.5108C29.0307 54.066 30.4879 55.6948 32.0354 57.2572C33.2216 58.4485 34.3159 59.6946 35.3615 60.9957C35.809 61.5531 36.3052 62.0642 36.7886 62.6028C37.1041 62.9479 37.7868 63.605 37.8642 64.054C37.9116 64.3284 37.5602 64.0742 37.3608 63.8995C36.8775 63.4692 36.5964 63.1313 36.2378 62.7082C35.8204 62.2173 35.3916 61.7278 34.9671 61.2412C33.7967 59.9084 32.6005 58.6044 31.3283 57.3467C30.3272 56.3591 29.3433 55.3454 28.3853 54.3201C27.7685 53.6617 27.1217 52.9296 26.2956 52.4935C25.6057 52.1282 24.3693 52.1007 24.127 52.8242C23.9362 53.3931 24.2991 54.0891 24.6031 54.6234C24.7752 54.9252 24.9732 55.2111 25.1797 55.497C26.8162 57.7409 28.7625 59.79 30.6543 61.8635C31.1735 62.431 31.6869 62.997 32.1932 63.5761C33.0552 64.5551 33.9172 65.5298 34.7275 66.5377C35.1678 67.0922 35.5737 67.6279 36.0542 68.1564C36.1718 68.2748 36.889 69.1701 36.6738 69.3015C36.4429 69.4487 35.7229 68.6011 35.5393 68.3889C35.1248 67.9167 34.7404 67.4315 34.3231 66.9564C32.7985 65.2439 31.3872 63.3941 29.7693 61.7509C29.1856 61.156 27.9751 60.0195 27.2737 60.8989C26.6068 61.7278 27.4415 63.1501 28.0296 63.9761C29.5384 66.1059 31.2695 68.3889 33.0208 70.4018C34.0807 71.6205 35.2209 72.445 36.44 73.5309C37.8556 74.7843 38.917 76.2051 40.4057 77.4022C42.2818 78.9039 44.7931 79.8873 46.5702 81.4684C48.4534 83.1464 49.7169 85.5448 51.0235 87.5418C52.4305 89.6934 53.5263 92.0658 54.7096 94.304C54.8802 94.6275 55.1685 95.1603 55.5285 95.8101C59.7194 93.4636 63.9117 91.1128 68.1026 88.7649C67.4199 87.6516 66.7573 86.5643 66.2352 85.7369C64.3162 82.6843 62.238 78.4289 61.6255 75.0572C61.1494 72.419 62.2294 69.9642 61.2627 67.342C60.8295 66.1565 60.088 64.9074 59.5201 63.7522C58.9851 62.662 58.7958 61.4592 58.3153 60.3589C57.7186 58.9885 57.122 58.0254 56.2686 56.8413C55.6088 55.9273 54.5418 52.8949 52.845 53.8985L52.8479 53.8971Z" fill="#D0EBFC"/>
<path d="M58.3425 87.4161C59.391 88.4255 60.1798 89.6081 61.0088 90.7719C61.3444 91.2398 61.6801 91.7076 62.0157 92.1784C63.853 91.1503 64.7694 90.6348 66.6053 89.6081C66.5537 89.4955 66.4963 89.3799 66.4461 89.2673C65.4866 87.1129 64.3793 85.0234 63.4241 82.869C62.9479 81.7961 62.0444 79.2013 60.4552 79.0887C59.1773 78.9963 58.5735 80.6511 58.0026 81.4019C57.6756 81.8395 57.3945 82.2755 56.8997 82.5528C56.4579 82.7954 56.0535 82.869 55.6117 83.0409C55.1915 83.2026 54.843 83.6632 54.9333 84.1412C55.0266 84.6047 55.53 84.9816 55.8885 85.2964C56.696 86.001 57.5666 86.671 58.3411 87.4161H58.3425Z" fill="white"/>
<path d="M55.8741 91.2655C56.4321 92.4178 56.7935 93.6495 57.2539 94.8408C58.3224 94.2444 58.8559 93.9426 59.9245 93.3448C59.1399 92.0655 58.4773 90.7355 57.7258 89.4331C57.3787 88.8367 57.0473 88.2158 56.848 87.5675C56.7117 87.1112 56.64 86.7112 56.3489 86.3069C56.0362 85.8693 55.5959 85.5906 55.2215 85.2167C54.863 84.8557 54.7884 84.3791 54.394 84.0672C53.5363 83.3886 52.2813 83.5878 51.7937 84.3228C51.0493 85.4434 51.8812 86.3733 52.8106 87.2685C54.0196 88.4252 55.1699 89.8244 55.8727 91.2655H55.8741Z" fill="white"/>
<path d="M59.0827 74.4477C58.8174 74.4217 58.5492 74.387 58.2881 74.361C57.7273 74.3105 57.0518 74.2946 56.6574 74.6498C56.5096 74.7755 56.2759 74.8924 56.0808 74.9646C55.8786 75.0412 55.6649 75.0296 55.4813 74.8679C55.0711 74.504 54.3884 74.4419 53.9136 74.5892C53.6297 74.6744 53.3686 74.8679 53.1736 75.0614C53.0517 75.1884 52.9556 75.3242 52.8738 75.4816C52.772 75.6707 52.6874 75.8671 52.5195 76.0144C52.3474 76.1675 52.1323 76.2743 51.9071 76.3508C51.4553 76.4924 50.9361 76.5155 50.437 76.462C50.1172 76.4245 49.575 76.3032 49.3527 76.5313C49.0989 76.7913 48.9196 77.1089 48.6557 77.3587C48.3157 77.6822 47.7937 77.6909 47.4423 77.9869C47.1181 78.2511 46.9632 78.6367 46.9001 79.0352C46.7481 79.9853 47.0177 81.0149 48.1551 81.3542C48.6585 81.5073 49.0902 81.7051 49.1189 82.2394C49.1361 82.7029 48.9153 83.0177 49.1605 83.5058C49.7801 84.7259 50.8486 84.3462 51.6289 83.7339C51.9745 83.4581 52.3001 83.2054 52.7791 83.1087C53.2625 83.0134 53.6985 83.2155 54.1675 83.2213C55.2403 83.2314 55.3407 82.004 56.1095 81.6531C56.5684 81.4481 57.0102 81.5578 57.3602 81.1304C57.6097 80.8286 57.7732 80.4171 57.964 80.0835C58.4287 79.2619 59.4542 79.1854 60.0537 78.5053C60.3692 78.15 60.0738 77.6678 60.0695 77.2115C60.0652 76.6743 60.2487 76.3451 60.5485 75.9436C60.8095 75.5826 60.7823 75.1365 60.3735 74.761C59.9992 74.4159 59.546 74.4924 59.0827 74.4477Z" fill="white"/>
<path d="M57.3674 65.1621C56.1282 65.3282 55.5975 66.5036 56.1827 67.5808C56.7363 68.6002 57.5122 69.5071 57.7015 70.5828C57.7718 70.9842 57.7603 71.3842 57.7259 71.7813C57.6872 72.1856 57.5696 72.5871 57.6241 73.0015C57.7374 73.8289 58.7901 73.6513 59.4728 73.8708C59.7497 73.956 60.2058 74.2823 60.4783 74.1292C60.7163 73.9978 60.7479 73.4433 60.7508 73.2008C60.7665 72.3243 60.5686 71.4319 60.5055 70.5438C60.4438 69.7468 60.4123 68.9829 60.3879 68.1959C60.3607 67.4248 60.2359 66.6393 59.5962 66.0242C58.9723 65.4264 58.2279 65.0437 57.3659 65.1636L57.3674 65.1621Z" fill="white"/>
<path d="M56.2444 59.1835C55.5775 59.0117 54.6266 58.9091 54.2092 59.4174C53.9668 59.7178 54.0844 60.047 54.2866 60.3704C54.8517 61.2787 55.3035 62.0094 55.3236 63.0288C55.3308 63.4692 54.9335 65.3247 55.9088 65.2757C56.2487 65.2525 56.5011 64.9493 56.798 64.8367C57.1136 64.7111 57.3947 64.6186 57.7604 64.6865C58.0931 64.7472 58.4288 64.8786 58.7285 65.0316C58.9236 65.137 59.1072 65.2655 59.3051 65.3753C59.4026 65.4359 59.5202 65.4966 59.6335 65.4879C59.7813 65.4677 59.8487 65.3811 59.7927 65.2453C59.711 65.0461 59.5245 64.8338 59.4041 64.6461C59.1186 64.21 58.9551 63.7335 58.7529 63.2729C58.5507 62.8122 58.3513 62.3501 58.1606 61.8823C57.9268 61.3105 57.8092 60.6968 57.541 60.1336C57.3846 59.8087 57.1781 59.5893 56.9099 59.4347C56.7234 59.3279 56.4997 59.2441 56.2473 59.1849L56.2444 59.1835Z" fill="white"/>
<path d="M54.4471 54.8801C54.1158 54.522 53.6411 54.1711 53.2538 54.5061C52.8795 54.8252 53.0172 55.4533 53.1764 55.8938C53.3872 56.4742 53.7028 57.0157 53.7501 57.6237C53.773 57.9341 53.5866 58.942 54.1947 58.9001C54.417 58.8828 54.6279 58.7211 54.8344 58.6547C55.0538 58.5868 55.322 58.6128 55.5644 58.6547C55.8097 58.6908 56.0392 58.75 56.2615 58.8626C56.4608 58.9637 56.7964 59.1326 56.709 58.7962C56.6559 58.5955 56.4522 58.376 56.3231 58.1839C56.1668 57.9457 56.0191 57.6959 55.89 57.4489C55.5128 56.7024 55.2116 55.9154 54.7168 55.218C54.6465 55.1155 54.5533 54.9999 54.4471 54.8815V54.8801Z" fill="white"/>
<path d="M47.3592 62.8331C47.0436 63.2648 46.6148 63.5089 46.1343 63.7702C45.7169 63.9998 45.4717 64.2265 45.6739 64.7334C45.9149 65.3369 46.4269 65.8366 46.9533 66.264C47.4868 66.7015 47.9859 67.1578 48.5137 67.6098C48.9039 67.9448 49.2237 68.3144 49.5235 68.7086C50.0269 69.3642 50.5059 70.0169 50.9663 70.6927C51.289 71.1634 51.6375 71.6038 51.8111 72.128C52.0061 72.694 52.1395 73.3886 52.6387 73.8478C53.1464 74.3142 53.9223 74.2781 54.4788 74.0586C54.8072 73.933 54.9937 73.8622 55.391 73.8983C55.718 73.9272 56.1511 74.1149 56.471 74.0341C57.2899 73.8305 56.7664 72.8529 56.2558 72.4818C55.6477 72.0399 54.9449 71.7352 54.3339 71.3093L54.1661 71.1865C53.6441 70.8039 53.2339 70.3663 52.7864 69.8898C52.2672 69.331 51.8154 68.7289 51.3751 68.1195C50.7483 67.2473 50.2248 66.3304 49.8189 65.3832C49.4804 64.5789 49.3427 63.7731 49.1018 62.9573C48.9999 62.6165 48.9139 62.2324 48.6141 61.9941C48.3058 61.7515 47.9587 61.7559 47.7478 62.0245C47.5686 62.2584 47.537 62.5876 47.3577 62.8316L47.3592 62.8331Z" fill="white"/>
<path d="M48.4863 75.0291C48.6613 75.3151 48.8678 75.7353 49.2106 75.8724C49.5348 76.0038 49.9751 75.9475 50.2992 75.9519C50.7266 75.9677 51.1211 75.9475 51.5356 75.8782C52.4391 75.715 52.8221 75.0494 52.1121 74.2841C51.8697 74.0213 51.5929 73.7888 51.3075 73.5635C50.9102 73.2545 50.4857 72.9758 50.0841 72.6812C49.367 72.1527 48.7617 71.3788 48.1765 70.7362C47.7004 70.2019 47.2443 69.6027 46.8355 69.0294C46.5343 68.6092 46.2417 68.1688 45.9893 67.7255C45.744 67.2995 45.615 66.8331 45.3812 66.4057C45.2679 66.1891 44.9337 65.5942 44.6339 65.5465C44.2825 65.4801 44.1219 65.9407 44.0373 66.1689C43.8035 66.7725 43.5812 67.5479 42.9845 67.9291C42.6905 68.1154 42.2904 68.2641 42.4653 68.6684C42.5944 68.9673 42.9759 69.1897 43.2843 69.3225C43.8924 69.5752 44.3141 69.9276 44.8089 70.3319C45.113 70.5846 45.4156 70.843 45.6981 71.1188C46.322 71.7268 46.8054 72.3708 47.273 73.0754C47.7018 73.7195 48.0847 74.3794 48.4863 75.0277V75.0291Z" fill="white"/>
<path d="M46.4111 63.1484C46.6879 62.8856 46.8901 62.5708 47.1024 62.2603C47.2616 62.0264 47.5628 61.7131 47.4796 61.3983C47.4495 61.2813 47.3233 61.1441 47.2315 61.0589C47.1096 60.9362 46.969 60.89 46.8213 60.8972C46.6965 60.8972 46.576 60.9362 46.4699 60.9867C46.216 61.1152 46.0454 61.3723 45.7958 61.5152C45.5032 61.6813 45.1991 61.8863 45.1174 62.2112C45.0356 62.5347 45.2121 62.9361 45.3641 63.2552C45.4071 63.3433 45.5391 63.57 45.6524 63.6018C45.9536 63.6754 46.2533 63.3014 46.4125 63.1498L46.4111 63.1484Z" fill="white"/>
<path d="M38.8425 56.9765C38.9285 57.5858 39.6342 57.892 40.0817 58.289C40.5765 58.7208 41.1272 59.0962 41.5675 59.5872C42.0208 60.094 42.5586 60.546 42.933 61.1063C43.2169 61.5308 43.4866 62.0564 44.0717 62.1127C44.4346 62.1488 44.6139 61.9048 44.7459 61.642C45.0026 61.1149 45.4759 60.8897 45.9707 60.5619C46.1615 60.4348 46.4655 60.4016 46.454 60.1316C46.4512 59.9077 46.1772 59.6897 46.0066 59.5366C45.1847 58.7901 44.2008 58.2327 43.3976 57.4631C42.735 56.8335 42.1427 56.1447 41.4915 55.5108C41.1487 55.1744 40.6367 54.4957 40.1261 54.8942C39.8106 55.1354 39.6887 55.4458 39.5022 55.7794C39.2727 56.1909 38.7693 56.4335 38.8439 56.9779L38.8425 56.9765Z" fill="white"/>
<path d="M33.4654 52.1319C33.527 52.3947 33.8354 52.6445 34.0577 52.8163C34.3704 53.0604 34.65 53.3174 34.9512 53.5773C35.5794 54.1044 36.3123 54.6112 36.8186 55.2263C37.1026 55.5715 37.4354 56.1447 37.8714 56.3166C38.5885 56.5996 38.6588 55.9108 38.9012 55.5151C39.112 55.1845 39.5595 54.8451 39.5437 54.4264C39.5251 53.9787 38.9743 53.6437 38.6014 53.3925C37.5286 52.6719 36.4644 51.9297 35.568 51.0431C35.3414 50.8208 35.1076 50.415 34.7533 50.3731C34.3288 50.3284 34.2585 50.7948 34.1165 51.0431C33.8913 51.4402 33.3291 51.5687 33.4654 52.1333V52.1319Z" fill="white"/>
<path d="M32.3855 51.1399C32.6623 51.3248 32.8889 51.6049 33.2203 51.3767C33.345 51.2901 33.3995 51.124 33.4583 50.9883C33.5243 50.828 33.6132 50.6981 33.7423 50.5696C33.8528 50.454 33.9962 50.3674 34.0435 50.2057C34.1052 49.992 33.9689 49.7292 33.794 49.5602C33.3924 49.1848 32.8459 48.9465 32.4285 48.5711C32.1058 48.2765 31.7659 47.9227 31.3414 47.7653C31.0015 47.6397 30.7562 47.6845 30.5583 47.9285C30.3517 48.1798 30.4306 48.5711 30.5382 48.8815C30.7175 49.4043 31.0961 49.8201 31.4662 50.2591C31.7344 50.584 32.0198 50.893 32.3855 51.1399Z" fill="white"/>
<path d="M35.1578 57.9884C34.9398 58.3898 34.4479 58.579 34.5339 59.1508C34.6314 59.7905 35.3299 60.2049 35.7817 60.6728C36.2765 61.1825 36.8187 61.6431 37.2633 62.2048C37.7194 62.7868 38.2615 63.3268 38.6359 63.9506C38.9285 64.4329 39.1967 65.0091 39.7776 65.1433C40.1332 65.2228 40.3039 64.9932 40.4287 64.7361C40.6711 64.225 41.1301 64.0459 41.6105 63.7672C41.7941 63.6618 42.0939 63.6662 42.0781 63.3774C42.0666 63.142 41.7984 62.8893 41.6263 62.703C40.8045 61.8294 39.8206 61.132 39.0188 60.2324C38.3519 59.4916 37.7538 58.7003 37.1041 57.9595C36.7613 57.5697 36.2378 56.8043 35.7473 57.148C35.4475 57.3617 35.3299 57.6664 35.1578 57.9899V57.9884Z" fill="white"/>
<path d="M29.7621 52.4011C29.5527 52.7823 28.9991 52.8473 29.1454 53.4451C29.2157 53.7295 29.5197 54.0284 29.7463 54.2364C30.059 54.5266 30.3387 54.8342 30.6399 55.1331C31.2609 55.7612 31.9995 56.3764 32.5116 57.0796C32.797 57.4752 33.1355 58.1149 33.5643 58.3431C34.2771 58.73 34.3288 58.0196 34.5626 57.6427C34.7619 57.325 35.1936 57.0319 35.1693 56.5944C35.142 56.128 34.597 55.7078 34.2183 55.3973C33.1498 54.5136 32.0899 53.6111 31.1892 52.5816C30.964 52.3202 30.7259 51.8726 30.3774 51.7845C29.9572 51.6791 29.8984 52.157 29.7621 52.3996V52.4011Z" fill="white"/>
<path d="M28.8887 52.6347C29.0092 52.5639 29.0608 52.3921 29.1153 52.2636C29.177 52.1076 29.2673 51.9791 29.3878 51.8636C29.4925 51.7567 29.6302 51.6845 29.6718 51.5185C29.7306 51.3077 29.59 51.016 29.4136 50.8239C29.0077 50.3821 28.4656 50.0687 28.0482 49.6225C27.7284 49.2774 27.3856 48.8673 26.9682 48.6479C26.6297 48.4775 26.3902 48.4933 26.1994 48.72C25.9972 48.9583 26.0861 49.3713 26.1994 49.7106C26.3859 50.2738 26.7674 50.7546 27.1389 51.2571C27.4114 51.6268 27.6997 51.9863 28.0625 52.2852C28.3351 52.5148 28.566 52.8296 28.8844 52.6361L28.8887 52.6347Z" fill="white"/>
<path d="M32.8846 61.6333C32.6393 62.0073 32.1474 62.1907 32.1833 62.7163C32.2263 63.3141 32.8746 63.6896 33.279 64.1184C33.7236 64.5819 34.2156 65.005 34.6014 65.5277C35.0001 66.0606 35.482 66.5559 35.8019 67.1349C36.0428 67.571 36.2651 68.1125 36.8159 68.2251C37.1587 68.2973 37.3466 68.0821 37.4857 67.841C37.7625 67.3587 38.2229 67.1912 38.7134 66.927C38.9042 66.8259 39.1925 66.8259 39.2054 66.5573C39.2125 66.3378 38.9716 66.1053 38.8152 65.9393C38.0823 65.1306 37.1859 64.4939 36.4717 63.6679C35.8822 62.9878 35.3644 62.2629 34.7879 61.5842C34.4838 61.2218 34.0392 60.52 33.5329 60.8492C33.2174 61.05 33.0811 61.3286 32.8846 61.6362V61.6333Z" fill="white"/>
<path d="M28.0741 56.5001C27.8361 56.8597 27.2939 56.9261 27.3871 57.4835C27.433 57.7405 27.7027 58.0163 27.9049 58.2084C28.1846 58.4726 28.4399 58.7556 28.7052 59.0343C29.266 59.6076 29.9329 60.178 30.3732 60.8263C30.6185 61.1873 30.8996 61.775 31.3012 61.9873C31.9638 62.3324 32.0728 61.6725 32.3296 61.3245C32.5447 61.0227 32.9965 60.7411 33.008 60.3354C33.0166 59.9022 32.516 59.5181 32.1775 59.2322C31.2022 58.425 30.2384 57.599 29.4467 56.6518C29.2445 56.4135 29.0537 56.002 28.7181 55.9226C28.3165 55.8345 28.219 56.2778 28.0713 56.5001H28.0741Z" fill="white"/>
<path d="M27.2005 56.7322C27.3253 56.6614 27.387 56.504 27.4501 56.3827C27.5247 56.2369 27.6222 56.1141 27.747 56.0087C27.8603 55.9062 28.0008 55.8412 28.0553 55.6882C28.1285 55.4903 28.0166 55.2174 27.8603 55.0384C27.5017 54.6341 26.9983 54.3481 26.624 53.9395C26.3385 53.6247 26.0388 53.2449 25.6487 53.0515C25.3331 52.8955 25.0979 52.9099 24.8928 53.1265C24.6777 53.346 24.7293 53.7316 24.8139 54.0406C24.9502 54.5633 25.2858 55.0095 25.6056 55.4716C25.8437 55.8109 26.0976 56.1401 26.4246 56.4145C26.6785 56.6239 26.8764 56.9155 27.2005 56.7336V56.7322Z" fill="white"/>
<path d="M36.9322 71.5306C37.143 71.4872 37.338 71.4035 37.3495 71.1984C37.3653 70.8591 37.001 70.6541 36.717 70.4519C36.3427 70.1877 36.0616 69.8382 35.7346 69.5278C35.419 69.2346 35.191 68.8895 34.9228 68.5661C34.6804 68.2729 34.5169 67.8412 34.0809 67.7387C33.6907 67.6419 33.4656 67.9076 33.1457 67.9971C32.8804 68.0751 32.6423 68.1141 32.4329 68.2729C32.0973 68.5256 32.5419 68.8809 32.7527 69.1076C33.1543 69.5335 33.6032 69.935 34.0048 70.371C34.4882 70.9053 34.8037 71.5176 35.2641 72.0518C35.3659 72.1674 35.4936 72.3406 35.6571 72.3652C35.8593 72.3955 35.911 72.2208 36.0243 72.1269C36.3126 71.8771 36.522 71.6288 36.9322 71.532V71.5306Z" fill="white"/>
<path d="M29.6172 64.6863C29.6646 64.9693 29.8008 65.1513 30.0073 65.3751C30.495 65.8921 30.9109 66.5014 31.2738 67.0906C31.4301 67.3433 31.6367 67.7129 31.9751 67.7837C32.2878 67.8501 32.5847 67.6263 32.8529 67.5497C33.1727 67.453 33.6991 67.505 33.55 67.0487C33.4582 66.77 33.0508 66.4942 32.8171 66.2819C32.3954 65.9036 32.0798 65.3997 31.7328 64.9636C31.4402 64.5881 30.9497 63.6409 30.353 63.7362C29.8654 63.8156 29.5426 64.2243 29.6158 64.6863H29.6172Z" fill="white"/>
<path d="M29.2473 63.9884C29.342 63.9422 29.3965 63.8368 29.4467 63.7545C29.5055 63.6534 29.5829 63.5783 29.6733 63.509C29.7593 63.4411 29.864 63.4007 29.9071 63.2938C29.973 63.1566 29.9071 62.9704 29.8052 62.8361C29.5714 62.5386 29.2243 62.3206 28.9863 62.0217C28.7998 61.7878 28.6076 61.5076 28.3394 61.356C28.1243 61.2333 27.9608 61.239 27.8016 61.3777C27.6381 61.5235 27.6524 61.7921 27.6954 62.0159C27.7657 62.3812 27.9794 62.7047 28.1831 63.0411C28.3337 63.2881 28.4943 63.5263 28.7166 63.7299C28.8844 63.8873 29.0092 64.101 29.2473 63.9884Z" fill="white"/>
<path d="M38.382 73.1739C38.4179 72.8851 38.6086 72.7118 38.6043 72.4043C38.6 72.049 38.4752 71.6476 38.0665 71.4859L37.9345 71.444C37.553 71.3776 37.2834 71.6765 37.041 71.8859C36.7713 72.1126 36.3109 72.2469 36.3898 72.6858C36.4601 73.0771 36.823 73.3905 37.1113 73.6822C37.3264 73.9002 37.619 74.254 37.9661 74.293C38.5226 74.3551 38.3433 73.4714 38.382 73.1724V73.1739Z" fill="white"/>
<path d="M42.7696 67.3007C43.0665 66.9859 43.2601 66.5801 43.4638 66.2105C43.6545 65.874 43.9557 65.6271 43.9973 65.2257C44.0518 64.7751 43.7248 64.3391 43.2802 64.1023L43.1439 64.0344C42.4397 63.7398 42.107 64.0532 41.6193 64.3853C41.2765 64.625 40.8563 64.8416 40.5938 65.1564C40.1965 65.6285 40.2353 66.2653 40.6842 66.7938C41.2564 67.4638 42.1027 68.0154 42.771 67.3007H42.7696Z" fill="white"/>
<path d="M47.2458 77.2562C47.6087 77.2879 47.9357 77.1681 48.1508 76.9139C48.7044 76.2743 48.2326 75.5147 47.7334 74.8678C47.0507 73.9855 46.2203 73.1379 45.2995 72.4434C44.274 71.6694 43.3461 71.0369 42.6175 70.0001C42.2388 69.463 41.6307 68.302 40.8863 68.9764C40.5622 69.2695 40.4503 69.6969 40.1061 69.9843C39.6041 70.4059 38.7019 70.5994 39.4205 71.4355C39.845 71.938 40.5163 72.2759 41.1172 72.556C41.6622 72.8058 42.2001 73.1235 42.7193 73.4412C43.2844 73.7935 43.795 74.1574 44.2869 74.5992C44.9782 75.2201 45.7269 75.8151 46.2992 76.5313C46.5846 76.8908 46.7366 77.2172 47.2472 77.2562H47.2458Z" fill="white"/>
<path d="M46.0051 79.9141C46.4841 79.8274 46.3206 79.2455 46.3565 78.922C46.3995 78.5307 46.7122 78.3878 46.8872 78.086C47.1439 77.6369 46.5013 77.1315 46.084 76.9279L45.8918 76.847C45.3496 76.6377 44.7501 76.6218 44.208 76.4138C42.5069 75.7698 41.2678 74.3605 40.1103 73.1028C39.8923 72.866 39.4434 72.1613 39.0303 72.3389C38.7377 72.4631 38.7965 73.0147 38.7922 73.266C38.7879 74.0212 38.3476 74.7619 39.1164 75.4146C39.6155 75.842 40.3527 76.0745 40.9379 76.3893C41.7683 76.8312 42.6002 77.2918 43.3402 77.8665C43.9125 78.3069 44.459 78.7791 44.9624 79.2715C45.2234 79.5198 45.5777 79.9978 46.008 79.9141H46.0051Z" fill="white"/>
<path d="M40.2494 69.2185C40.5191 68.9037 40.7414 68.6207 40.6209 68.1789C40.5076 67.763 40.0831 67.441 39.6341 67.3327C39.0561 67.1955 38.6976 67.4829 38.4136 67.8568C38.1597 68.1875 37.7983 68.5398 37.6965 68.9528C37.6391 69.2012 37.7839 69.4279 37.9274 69.6488C38.1884 70.0445 38.4652 70.6149 39.0102 70.3145C39.5137 70.0416 39.8923 69.6402 40.2509 69.2185H40.2494Z" fill="white"/>
<path d="M46.7855 66.9778C40.8276 70.286 40.0717 78.1687 44.1264 83.3742C48.4234 88.8874 56.5255 91.1356 62.7301 87.7495C68.7654 84.4587 69.4983 76.5745 65.3935 71.3545C61.0735 65.8732 52.9743 63.5397 46.7855 66.9778ZM62.6197 87.608C56.5026 90.9465 48.5095 88.7242 44.2741 83.2919C40.274 78.1586 41.0183 70.3813 46.8988 67.1179C53.0015 63.7303 60.9832 66.032 65.2443 71.4354C69.2918 76.5774 68.5747 84.3619 62.6197 87.608Z" fill="#F3AE94"/>
<path d="M47.6503 68.0968C42.3723 71.0079 41.6307 78.0863 45.2752 82.7258C49.152 87.6584 56.3376 89.6266 61.8666 86.6303C67.2049 83.7351 67.9307 76.6553 64.2418 72.0042C60.342 67.0903 53.1607 65.0601 47.6503 68.0982V68.0968ZM61.7117 86.4209C56.3075 89.3537 49.2782 87.4317 45.4874 82.6074C41.9233 78.0646 42.6448 71.1494 47.8066 68.3062C53.1908 65.3359 60.2215 67.3171 64.0266 72.1197C67.6323 76.6697 66.9281 83.5922 61.7103 86.4209H61.7117Z" fill="#F3AE94"/>
<path d="M48.5122 69.2246C43.8681 71.7804 43.2256 77.9982 46.4268 82.076C49.8303 86.408 56.1511 88.1393 61.006 85.5026C65.6932 82.9554 66.3314 76.7434 63.0886 72.6511C59.6693 68.3322 53.3528 66.5561 48.5137 69.2246H48.5122ZM60.798 85.2383C56.108 87.7927 49.9981 86.1119 46.7022 81.9172C43.5985 77.9737 44.2267 71.9667 48.7145 69.4917C53.4016 66.9099 59.5072 68.6296 62.8175 72.8071C65.9485 76.7665 65.3289 82.7763 60.7966 85.2369L60.798 85.2383Z" fill="#F3AE94"/>
<path d="M49.3698 70.3433C45.4586 72.4789 44.6138 77.6267 47.577 81.4244C50.49 85.1585 55.9444 86.6531 60.1439 84.3831C64.091 82.246 64.9329 77.1069 61.9425 73.3006C59.0223 69.5765 53.5707 68.056 49.3712 70.3433H49.3698ZM59.8915 84.0539C56.1051 86.1838 50.7323 84.9188 47.9126 81.2309C45.0972 77.5502 45.8659 72.8139 49.628 70.6725C53.3857 68.5398 58.7642 69.8018 61.6026 73.4926C64.4496 77.1849 63.6808 81.924 59.8915 84.0539Z" fill="#F3AE94"/>
<path d="M50.2319 71.4703C46.9174 73.3533 46.2389 77.5264 48.7231 80.7782C51.2115 84.0229 55.9445 85.1391 59.2821 83.2561C62.6196 81.3789 63.2937 77.2058 60.7909 73.954C58.2881 70.6978 53.5508 69.583 50.2319 71.4703ZM58.9823 82.8691C55.8671 84.6236 51.4496 83.5839 49.129 80.5486C46.8055 77.5163 47.4365 73.6233 50.5331 71.8616C53.6325 70.1029 58.0558 71.1411 60.3936 74.1807C62.7257 77.2188 62.0946 81.1118 58.9823 82.8691Z" fill="#F3AE94"/>
<path d="M51.0983 72.5901C48.4119 74.1179 47.8655 77.4939 49.8777 80.1219C51.89 82.7529 55.7237 83.6568 58.4216 82.1363C61.1194 80.6143 61.6659 77.2369 59.6407 74.6045C57.617 71.9663 53.7846 71.0682 51.0983 72.5901ZM58.0731 81.6843C55.632 83.059 52.1625 82.2432 50.341 79.862C48.5195 77.4852 49.0114 74.4269 51.4454 73.0479C53.8779 71.6674 57.3488 72.4847 59.1774 74.863C61.0104 77.247 60.5156 80.3053 58.0745 81.6843H58.0731Z" fill="#F3AE94"/>
<path d="M51.9601 73.7181C49.9048 74.8834 49.4889 77.4667 51.025 79.4767C52.5697 81.4882 55.497 82.1727 57.5594 81.0103C59.6233 79.8493 60.0407 77.2689 58.496 75.2531C56.9456 73.2416 54.0168 72.55 51.9615 73.7167L51.9601 73.7181ZM57.1607 80.4976C55.3909 81.4969 52.8752 80.9048 51.5499 79.1807C50.229 77.4494 50.5904 75.2329 52.3531 74.2308C54.1158 73.2315 56.6344 73.8235 57.9639 75.5534C59.2935 77.279 58.9349 79.4998 57.1622 80.4991L57.1607 80.4976Z" fill="#F3AE94"/>
<path d="M53.043 75.1278C51.7794 75.8426 51.5226 77.4252 52.4693 78.6598C53.4116 79.8958 55.2101 80.3146 56.4737 79.5998C57.7373 78.8851 57.994 77.3082 57.0474 76.0722C56.0965 74.8333 54.3065 74.4145 53.043 75.1278Z" fill="#F3AE94"/>
<path d="M37.2045 44.0213C41.3882 41.6055 45.5691 39.1839 49.7514 36.7653C49.2723 36.1472 49.03 35.8353 48.5552 35.2188C44.3715 37.636 40.195 40.0561 36.0112 42.4733C36.4874 43.0942 36.7298 43.4032 37.2045 44.0198V44.0213Z" fill="#3D69B1"/>
<path d="M71.0659 81.4713C74.7706 79.392 76.6222 78.3509 80.3269 76.2744C80.8346 76.9242 81.0842 77.2477 81.5876 77.9003C77.8829 79.9811 76.027 81.0165 72.3195 83.0929C71.8203 82.4474 71.5708 82.1211 71.0674 81.4713H71.0659Z" fill="#3D69B1"/>
<path d="M49.8347 48.5311C52.3332 47.0958 53.5853 46.3767 56.0809 44.9414C56.2917 45.2158 56.3964 45.3515 56.6073 45.6259C54.1131 47.0612 52.861 47.7759 50.3611 49.217C50.1517 48.9441 50.0499 48.8069 49.8362 48.5311H49.8347Z" fill="white"/>
<path d="M48.9811 49.0234C49.1919 49.2978 49.2938 49.435 49.5075 49.7021C47.3045 50.9714 46.2087 51.5995 44.0057 52.863C43.7948 52.593 43.693 52.4558 43.4822 52.1843C45.6823 50.9194 46.781 50.2855 48.9811 49.0234Z" fill="white"/>
<path d="M53.6985 47.9544C55.0051 47.2021 55.6562 46.8281 56.9614 46.0801C57.1708 46.3501 57.2769 46.4873 57.4878 46.7631C56.1826 47.5111 55.5314 47.8879 54.2248 48.6374C54.014 48.363 53.9122 48.2273 53.697 47.9544H53.6985Z" fill="white"/>
<path d="M52.7045 48.5283C52.9153 48.7998 53.02 48.9384 53.2309 49.207C49.8891 51.1246 48.221 52.0834 44.8821 54.001C44.6669 53.731 44.5622 53.5938 44.3557 53.3195C47.6932 51.4033 49.3656 50.4459 52.7031 48.5283H52.7045Z" fill="white"/>
<path d="M50.3611 52.4912C53.5666 50.6559 55.1644 49.7375 58.37 47.9008C58.1591 47.6264 58.0544 47.4921 57.8436 47.2178C54.6395 49.0574 53.036 49.9758 49.8347 51.8125C50.0441 52.0869 50.1503 52.2212 50.3597 52.4912H50.3611Z" fill="white"/>
<path d="M45.7526 55.1343C47.3547 54.2159 48.1536 53.7596 49.7614 52.8412C49.5505 52.5669 49.4458 52.4297 49.235 52.1582C47.6329 53.0737 46.8326 53.5386 45.2349 54.4541C45.4414 54.7299 45.5475 54.8671 45.7541 55.1343H45.7526Z" fill="white"/>
<path d="M48.4578 54.2422C52.5626 51.8885 54.615 50.7116 58.7199 48.3594C58.935 48.628 59.0397 48.7651 59.2505 49.0395C55.1414 51.3917 53.0904 52.5671 48.9798 54.9223C48.7733 54.6523 48.6672 54.5151 48.4578 54.2422Z" fill="white"/>
<path d="M47.8739 54.5771C48.0833 54.8515 48.1937 54.9844 48.4002 55.2573C47.6946 55.6616 47.3403 55.8652 46.6261 56.2709C46.4195 56.0024 46.3148 55.8652 46.104 55.5923C46.814 55.1851 47.1682 54.9844 47.8739 54.5771Z" fill="white"/>
<path d="M74.5625 75.3454C75.9709 74.5541 76.6723 74.1599 78.0793 73.3671C77.857 73.0841 77.7436 72.9426 77.5213 72.6523C76.1172 73.4436 75.4144 73.8393 74.0117 74.6306C74.234 74.9136 74.3445 75.0638 74.561 75.3454H74.5625Z" fill="white"/>
<path d="M74.0836 75.621C73.8613 75.3293 73.7523 75.1892 73.5329 74.9033C72.2937 75.5979 71.6784 75.9488 70.4377 76.6433C70.6601 76.9278 70.7691 77.0707 70.9914 77.3595C72.2277 76.6578 72.8487 76.3155 74.0836 75.621Z" fill="white"/>
<path d="M75.3227 73.2057C76.0556 72.7928 76.4228 72.5877 77.1557 72.1747C76.9334 71.8874 76.8201 71.7444 76.5992 71.46C75.8663 71.8715 75.5034 72.0794 74.7705 72.491C74.9928 72.7798 75.1018 72.9198 75.3241 73.2057H75.3227Z" fill="white"/>
<path d="M74.7619 73.519C74.5396 73.2345 74.4306 73.0945 74.2083 72.8057C72.3295 73.8655 71.3929 74.3897 69.5183 75.451C69.7406 75.7355 69.8496 75.8785 70.0676 76.16C71.9479 75.1074 72.8859 74.5803 74.7619 73.519Z" fill="white"/>
<path d="M71.1836 72.7979C72.9807 71.7842 73.8771 71.2788 75.6757 70.2637C75.898 70.5467 76.0113 70.694 76.2293 70.9799C74.4322 71.9907 73.5343 72.5004 71.7329 73.5126C71.5149 73.2253 71.4059 73.0838 71.1836 72.7979Z" fill="white"/>
<path d="M68.5974 74.2551C69.4981 73.7468 69.947 73.4927 70.8435 72.9873C71.0658 73.2747 71.1791 73.4176 71.3971 73.7021C70.4964 74.2089 70.0474 74.4645 69.151 74.9713C68.9287 74.6854 68.8197 74.5468 68.5974 74.2566V74.2551Z" fill="white"/>
<path d="M69.55 73.0335C71.8534 71.7339 73.0036 71.087 75.3042 69.7874C75.0819 69.4972 74.9729 69.3571 74.7506 69.0654C72.45 70.3708 71.2998 71.0206 68.9963 72.3187C69.2186 72.6017 69.3277 72.749 69.55 73.0335Z" fill="white"/>
<path d="M69.2215 73.2157C68.9991 72.9313 68.8901 72.7898 68.6678 72.501C68.2734 72.7277 68.074 72.8418 67.6768 73.0641C67.8991 73.3457 68.0081 73.493 68.2304 73.7789C68.6248 73.5551 68.8242 73.4425 69.2215 73.2157Z" fill="white"/>
<path d="M58.8918 59.5933C61.2584 58.2432 62.4402 57.5689 64.811 56.2188C65.0204 56.4946 65.1222 56.6317 65.3374 56.9061C62.9709 58.249 61.7847 58.9248 59.4182 60.2735C59.2074 60.0034 59.1027 59.8677 58.8918 59.5948V59.5933Z" fill="white"/>
<path d="M62.6008 59.1211C63.8372 58.4164 64.4525 58.067 65.6888 57.3623C65.8996 57.6309 66.0043 57.7666 66.2195 58.041C64.9846 58.7471 64.3635 59.0965 63.1272 59.8041C62.9178 59.5283 62.8117 59.3911 62.6008 59.1211Z" fill="white"/>
<path d="M42.4495 50.8443C46.649 48.4299 50.8442 46.0156 55.0437 43.6027C53.6037 41.7429 52.8837 40.8129 51.4409 38.9502C47.2571 41.3718 43.0691 43.7846 38.8811 46.2033C40.3082 48.0588 41.0224 48.9902 42.4495 50.8443Z" fill="white"/>
<path d="M60.7678 64.1111C63.5876 62.5083 64.9989 61.7068 67.8129 60.1055C70.1364 63.1118 71.3024 64.6136 73.6273 67.6142C70.8004 69.2112 69.3848 70.0112 66.5579 71.6111C64.2416 68.6105 63.0841 67.1102 60.7678 64.1111Z" fill="white"/>
<path d="M122.695 58.2039C109.644 41.6299 96.5884 25.0486 83.5381 8.47461C72.5188 14.8772 61.5008 21.277 50.4814 27.6752C63.275 44.1684 76.0642 60.6558 88.8564 77.1461C100.137 70.8359 111.417 64.5184 122.695 58.2039Z" fill="#AFDFF9"/>
<path d="M84.5365 42.7401C83.3632 40.7402 82.2359 38.7821 80.6539 37.0031C79.901 36.1497 79.4291 35.1462 78.7736 34.326C78.0881 33.4567 77.0583 33.0322 76.3139 32.1398C74.676 30.1731 74.2084 28.1097 73.2919 25.9018C72.6135 24.2687 71.5995 22.6918 70.5668 21.1655C69.8253 20.0739 68.9519 18.6992 67.9766 17.5123C71.8878 15.2409 73.8412 14.1059 77.7524 11.8389C80.4703 15.121 81.6593 19.1729 84.7243 22.3872C86.3106 24.0564 87.9256 25.0398 89.0329 27.0729C90.0971 29.0208 91.712 30.4258 93.3299 31.9665C96.6244 35.1014 100.567 37.9258 103.489 41.4405C104.708 42.9076 105.976 44.5147 107.203 46.0771C107.781 46.8121 108.506 47.6742 108.451 48.5261C108.417 49.0633 107.889 49.7116 107.271 49.7679C107.945 50.1679 108.82 51.5224 108.866 51.944C108.913 52.3498 108.289 53.2205 107.77 53.4284C108.464 54.0003 109.065 55.2854 109.097 55.8774C109.135 56.5936 108.395 57.4514 107.552 57.3517C107.751 57.6434 107.84 58.0911 107.84 58.3438C107.833 59.0296 107.443 59.343 106.882 59.6433C105.621 60.3133 104.769 59.7242 103.52 58.8824C105.217 60.7436 104.858 62.4793 102.499 63.0309C100.092 63.5926 98.2293 60.8693 97.0819 59.4094C95.0897 56.8723 93.4948 55.9511 91.8884 54.3526C90.1501 52.6184 89.509 50.7267 88.4104 48.7081C87.2988 46.6648 85.7326 44.7747 84.5379 42.7401H84.5365Z" fill="#D0EBFC"/>
<path d="M72.4412 21.1502C71.3139 19.7149 70.2152 18.2594 68.9517 16.9525C70.254 16.1901 70.908 15.8147 72.2146 15.0537C73.4581 17.328 75.8648 19.6196 77.6103 21.4635C79.1908 23.1313 81.619 23.7912 83.026 25.5904C83.7948 26.5709 84.3484 27.3781 83.5753 28.3571C82.9356 29.1686 81.8571 29.2033 80.8933 29.4517C79.9079 29.7101 79.1779 30.4466 78.9599 31.3649C78.8466 31.8501 79.0961 32.4609 78.5153 32.5042C78.1409 32.5374 77.4396 31.9108 77.2001 31.6783C75.4144 29.9484 75.9566 27.6178 75.2939 25.6222C74.7977 24.1436 73.4538 22.444 72.4398 21.1502H72.4412Z" fill="white"/>
<path d="M74.1812 13.9126C74.6688 13.6281 74.914 13.4866 75.4017 13.2021C77.6119 16.0121 79.7131 18.9997 82.2603 21.5498C83.204 22.4942 84.1291 23.453 85.2077 24.2602C86.0037 24.8522 87.0364 25.3706 87.5556 26.1778C88.0461 26.9373 88.1866 27.8961 88.6542 28.6917C88.9583 29.2145 90.0067 30.6801 88.7991 30.553C88.0533 30.4779 86.9976 29.3921 86.51 28.9343C85.7255 28.2051 85.3282 27.434 84.8377 26.546C83.7964 24.6861 81.9333 24.0508 80.4474 22.5664C78.9113 21.03 77.5746 19.2322 76.3297 17.4994C75.5265 16.389 75.0001 15.0504 74.1812 13.9126Z" fill="white"/>
<path d="M87.0908 30.3857C87.4135 30.3207 87.7534 30.6341 88.0216 30.7929C88.2167 30.9041 89.6251 31.2088 89.192 31.4802C89.0945 31.5409 88.8564 31.5236 88.7359 31.5539C88.2597 31.6853 87.8553 31.9466 87.3877 32.1026C87.1066 32.1921 86.9904 32.1459 86.8413 31.8355C86.6577 31.4615 86.5802 30.6037 87.0177 30.4117L87.0922 30.3857H87.0908Z" fill="white"/>
<path d="M87.3144 32.7481L87.3718 32.6095C87.597 32.3033 88.4288 32.1272 88.8218 32.0247C89.2793 31.9106 89.7656 31.8716 90.2417 32.1517C90.4927 32.2932 90.6821 32.4867 90.9402 32.6181C91.2629 32.7799 91.6114 32.891 91.8883 33.1307C92.5165 33.665 92.614 34.1184 92.5867 34.7783C92.5581 35.2852 92.8664 35.883 92.7072 36.3595C92.4304 37.1927 91.6043 36.5674 90.9876 36.3508C90.2575 36.0967 89.4558 35.9595 88.819 35.4888C88.2381 35.0642 87.9498 34.491 87.7074 33.886C87.597 33.613 87.2671 33.073 87.3144 32.7481Z" fill="white"/>
<path d="M86.2445 31.623C86.2947 31.945 86.2919 32.2569 86.015 32.4792C85.6321 32.7825 85.1215 32.9283 84.7515 33.2648C84.3413 33.6286 84.053 34.0907 83.8551 34.586C83.6715 35.0625 83.5151 35.6531 83.0275 35.9419C82.4538 36.2711 81.8112 36.1859 81.2892 35.669C80.704 35.0798 79.9238 34.6943 79.8549 33.8568C79.776 32.8893 79.7488 31.0685 80.5563 30.4504C81.5775 29.6534 83.1379 30.0938 83.9755 28.8837C84.2437 28.4967 84.5249 27.9076 85.1602 28.1834C85.688 28.4101 86.3578 29.1667 86.4554 29.6692C86.5299 30.0447 86.2531 30.2786 86.1628 30.6122C86.081 30.9212 86.1915 31.2822 86.2445 31.623Z" fill="white"/>
<path d="M87.8437 35.2226C87.9713 35.8666 87.8623 37.2932 87.1495 37.3524C86.6662 37.3972 86.2445 37.4997 85.8558 37.7322C85.3122 38.0513 85.371 38.8282 84.783 39.0823C84.4603 39.2238 84.0458 39.3552 83.6643 39.1343C83.2469 38.8874 81.5229 36.8167 82.4667 36.6969C83.2498 36.6016 83.7575 36.2319 84.0343 35.5763C84.1978 35.185 84.3154 34.7432 84.5363 34.3778C84.7586 34.0096 86.6418 32.0314 86.9344 33.279C87.0118 33.6327 86.9731 34.0082 87.1882 34.3389C87.3747 34.6276 87.7218 34.7778 87.8164 35.1042L87.8437 35.2211V35.2226Z" fill="white"/>
<path d="M89.6611 38.6167C88.8722 38.0535 88.2498 37.7185 88.2383 36.7785C88.2383 36.5475 88.2024 35.9063 88.5653 35.8977C88.8765 35.8876 89.2365 36.2226 89.5248 36.328C90.3007 36.611 91.5098 36.8088 92.0132 37.5366C92.4062 38.1099 91.7321 39.6665 90.9089 39.4268C90.437 39.2925 90.0469 38.8853 89.6611 38.6167Z" fill="white"/>
<path d="M88.2568 40.5229L88.2023 40.4839C87.6301 39.9872 86.9158 39.6767 86.3737 39.1381C85.9606 38.7338 85.9219 38.3411 86.4009 38.0956C86.7164 37.9324 87.6014 37.5859 87.9686 37.8501C88.2138 38.0263 88.3544 38.2891 88.5882 38.4782C88.8492 38.692 89.1332 38.9244 89.4272 39.0919C89.6954 39.2493 89.9808 39.3706 90.2462 39.5266C90.9633 39.9439 90.2892 40.1359 89.9306 40.3597C89.7112 40.4912 89.6022 40.6731 89.4458 40.8651C89.126 41.2651 88.5838 40.8045 88.2568 40.52V40.5229Z" fill="white"/>
<path d="M84.8061 41.4466L84.8018 41.4409C84.5451 41.0669 83.9828 40.407 84.0617 39.9622C84.1392 39.5204 84.6584 39.7442 84.9739 39.6171C85.2421 39.5131 85.3626 39.0424 85.7455 39.1536C86.018 39.2301 86.1758 39.4987 86.3508 39.6806C86.5573 39.9001 86.7868 40.0749 87.045 40.2438C87.3878 40.4604 88.7876 41.0856 88.6944 41.5477C88.6442 41.7802 88.2038 41.8755 87.9887 41.9506C87.6172 42.069 87.3576 42.2813 86.9819 42.3896C86.7051 42.4748 86.2762 42.6278 85.9678 42.5715C85.4071 42.4834 85.0557 41.8567 84.8061 41.4466Z" fill="white"/>
<path d="M93.1735 35.5174C93.0344 35.0654 93.1936 34.8546 93.0014 34.316C92.8651 33.929 92.6041 33.5333 92.4478 33.1868C92.1781 32.5702 93.0788 33.1795 93.3356 33.3528C94.9233 34.4185 96.5024 35.7253 97.9252 36.9945C99.4111 38.3129 100.659 39.728 101.953 41.172C102.436 41.7164 103.707 42.8817 103.216 43.5618C103.06 43.7798 102.414 43.9517 102.082 43.8145C101.644 43.6325 101.433 42.9799 101.235 42.6434C100.467 41.3554 97.8592 38.2421 96.0807 37.1924C95.5042 36.853 94.9104 36.5975 94.298 36.3794C93.8261 36.2119 93.3155 35.9852 93.1706 35.5188L93.1735 35.5174Z" fill="white"/>
<path d="M92.6715 37.5016L92.6557 37.4034C92.6399 37.0814 92.835 36.654 93.1462 36.5168C93.6224 36.3132 94.0211 36.7753 94.3122 37.106C95.669 38.6323 96.7533 39.7976 98.2894 41.63C99.1442 42.6379 100.186 43.6905 101.243 44.5396C101.94 45.1042 102.868 45.3064 103.157 46.1727C103.371 46.8225 102.895 47.5907 102.087 47.5214C101.214 47.4507 100.891 46.4875 100.419 45.9258C99.1012 44.349 97.6584 42.8761 96.3015 41.3513C95.3965 40.3304 94.4686 39.2416 93.3613 38.3839C93.0687 38.1601 92.7417 37.8366 92.6715 37.5016Z" fill="white"/>
<path d="M97.7947 46.5786C97.581 46.2797 97.3472 45.9924 97.1092 45.7122C96.306 44.7476 95.5458 43.7628 94.6021 42.9066C93.7759 42.1543 92.8552 41.3846 92.1997 40.511C91.8569 40.0489 91.9157 39.7645 92.0864 39.3298C92.1997 39.041 92.4019 38.3046 92.9168 38.4519C93.2754 38.5544 93.5092 38.8533 93.6999 39.1262C94.6637 40.5052 95.6333 41.8857 96.6832 43.2257C97.865 44.726 99.0726 46.1555 100.468 47.51C101.039 48.0645 101.877 49.0623 101.182 49.611C100.817 49.8998 100.267 50.0268 99.7711 49.7611C99.1702 49.4406 98.9952 48.7778 98.7485 48.2594C98.5735 47.8912 98.3756 47.5302 98.1719 47.1706C98.0629 46.9685 97.9296 46.7692 97.7933 46.5757L97.7947 46.5786Z" fill="white"/>
<path d="M96.7921 51.2234C97.0847 51.5901 97.4146 51.5454 97.8133 51.4934C98.4874 51.4183 99.2705 50.8855 99.1587 50.1909C99.0755 49.7029 98.6395 49.3736 98.2608 49.0242C97.7703 48.5679 97.3486 48.025 96.9786 47.4806C96.217 46.3817 95.4181 45.2973 94.592 44.2273C93.8347 43.254 93.033 42.3198 92.2714 41.3509C92.0347 41.0462 91.7923 40.6809 91.5112 40.4065C90.9346 39.8477 90.2017 40.7559 89.9952 41.1458C89.6481 41.7855 90.3151 42.4295 90.8644 42.8743C91.2746 43.2122 91.7378 43.4894 92.0978 43.8706C93.1032 44.9406 93.8949 46.1911 94.7871 47.3376C95.5013 48.2473 96.2385 49.1801 96.4293 50.2545C96.4881 50.5895 96.5541 50.9302 96.7921 51.2219V51.2234Z" fill="white"/>
<path d="M90.7797 49.4231C90.0038 47.5892 88.799 45.9908 87.2629 44.58C86.8656 44.2132 85.9334 43.536 86.279 42.9931C86.4038 42.801 86.6419 42.7952 86.8915 42.7432C87.3662 42.6321 87.7377 42.4415 88.1823 42.2321C90.0898 41.3354 91.1928 43.9706 91.7034 45.2803C92.1752 46.4933 92.6199 47.7539 93.4388 48.8498C93.8433 49.3928 94.2348 49.8144 94.7842 50.2491C95.4783 50.7963 96.6386 51.7826 96.2729 52.6634C95.9961 53.3305 95.114 53.5616 94.3783 53.6179C92.3015 53.7753 91.3405 50.753 90.7797 49.4231Z" fill="white"/>
<path d="M103.258 45.0163C102.988 44.8618 102.614 44.6813 102.587 44.3781C102.571 44.2207 102.645 44.1254 102.802 44.0792L103.02 44.0359C103.109 44.0027 103.192 43.9709 103.266 43.9175C103.371 43.8424 103.453 43.7355 103.57 43.6633C103.672 43.6041 103.796 43.5623 103.929 43.5839C104.401 43.6576 104.556 44.1341 104.698 44.4806C104.83 44.8041 104.893 45.1911 105.193 45.4452C105.454 45.6705 105.898 45.6705 106.023 46.0084C106.271 46.6813 105.122 46.9657 104.659 46.4733C104.409 46.2091 104.339 45.8798 104.078 45.6055C103.84 45.3571 103.559 45.1911 103.259 45.0163H103.258Z" fill="white"/>
<path d="M105.234 46.8831L105.266 46.8514C105.406 46.7647 105.66 46.8124 105.823 46.7503C105.983 46.6969 106.107 46.4471 106.318 46.564C106.423 46.6247 106.45 46.7633 106.493 46.8514C106.571 47.0203 106.754 47.1893 106.622 47.3496C106.518 47.4708 106.314 47.5012 106.175 47.5719C106.007 47.6643 105.745 47.8304 105.531 47.816C105.313 47.7972 105.192 47.4506 105.192 47.3033C105.188 47.1618 105.122 46.9828 105.234 46.8831Z" fill="white"/>
<path d="M106.155 48.8756C106.08 48.7962 106.01 48.7038 105.933 48.6229C105.854 48.5479 105.765 48.4872 105.699 48.3991C105.486 48.1277 105.854 47.963 106.057 47.8836C106.248 47.8013 106.529 47.4403 106.792 47.6858C106.947 47.8331 106.955 48.0107 107.021 48.1825C107.099 48.376 107.116 48.5637 107.149 48.7558C107.176 48.9334 107.087 49.1717 106.892 49.2294C106.644 49.2944 106.328 49.0764 106.168 48.8944L106.156 48.8785L106.155 48.8756Z" fill="white"/>
<path d="M103.137 48.912L102.942 48.7546C102.661 48.5423 102.196 48.1279 102.376 47.7857C102.457 47.6283 102.739 47.5272 102.911 47.468C103.137 47.3915 103.344 47.1633 103.605 47.2283C103.905 47.3034 104.072 47.5474 104.202 47.7857C104.381 48.1178 104.553 48.4355 104.771 48.7503C104.966 49.0275 105.184 49.2773 105.429 49.5112C105.624 49.7004 105.811 49.8231 105.687 50.0498C105.524 50.3588 105.337 50.8541 104.83 50.7848C104.319 50.7184 104.253 50.2318 104.035 49.9083C103.79 49.5416 103.484 49.2066 103.139 48.912H103.137Z" fill="white"/>
<path d="M105.41 50.7895C105.535 50.6754 105.57 50.4545 105.713 50.3736L105.756 50.3592C105.908 50.3086 106.085 50.4241 106.244 50.4819C106.406 50.5411 106.754 50.7707 106.7 50.957C106.65 51.1432 106.371 51.2876 106.216 51.3945C106.089 51.4797 105.986 51.6328 105.811 51.6732C105.588 51.7194 105.459 51.5057 105.296 51.3786C105.21 51.3093 105.063 51.2313 105.032 51.1259C104.969 50.9079 105.291 50.8963 105.41 50.7909V50.7895Z" fill="white"/>
<path d="M106.599 51.4062C106.759 51.2762 107.071 51.0423 107.305 51.3181C107.38 51.4033 107.418 51.5001 107.477 51.591C107.543 51.6921 107.618 51.7787 107.692 51.874L107.697 51.8842C107.853 52.0834 107.992 52.4314 107.833 52.6119C107.705 52.7477 107.408 52.7332 107.222 52.6365C107.007 52.5339 106.805 52.4488 106.618 52.3174C106.446 52.1961 106.25 52.1181 106.138 51.9361C105.95 51.6315 106.449 51.5405 106.601 51.4076L106.599 51.4062Z" fill="white"/>
<path d="M100.66 50.301C100.723 50.1032 101.023 49.9819 101.205 49.9097C101.448 49.8144 101.634 49.5343 101.945 49.6209C102.301 49.7278 102.542 50.031 102.741 50.3357C103.011 50.7515 103.268 51.1602 103.585 51.5631C103.857 51.9053 104.161 52.2331 104.484 52.5247C104.745 52.7644 104.983 52.9218 104.89 53.2092C104.765 53.5962 104.652 54.2142 104.058 54.1189C103.47 54.0222 103.295 53.4085 102.978 52.9969C102.624 52.5377 102.211 52.1103 101.757 51.7334C101.673 51.6612 101.59 51.5963 101.505 51.5327C101.141 51.2526 100.521 50.7212 100.657 50.2981L100.66 50.301Z" fill="white"/>
<path d="M104.728 54.1352C104.844 53.9994 104.837 53.7193 104.989 53.6182L105.032 53.5995C105.195 53.5403 105.416 53.6904 105.611 53.7597C105.815 53.8421 106.255 54.1352 106.231 54.3763C106.208 54.6016 105.923 54.7806 105.768 54.9077C105.637 55.0189 105.553 55.2081 105.362 55.2528C105.112 55.3077 104.929 55.0333 104.718 54.8716C104.602 54.7806 104.421 54.6853 104.362 54.5525C104.246 54.2709 104.612 54.2695 104.726 54.1366L104.728 54.1352Z" fill="white"/>
<path d="M106.21 54.9382C106.362 54.775 106.666 54.4805 106.99 54.8357C107.09 54.9483 107.158 55.0696 107.244 55.1837C107.337 55.305 107.443 55.4234 107.539 55.5461L107.555 55.562C107.77 55.8003 107.995 56.2508 107.852 56.4703C107.74 56.6421 107.393 56.6161 107.159 56.4948C106.901 56.3634 106.651 56.2522 106.406 56.0775C106.192 55.923 105.954 55.8248 105.786 55.5909C105.514 55.1996 106.063 55.0985 106.211 54.9382H106.21Z" fill="white"/>
<path d="M103.433 56.0926C103.553 55.954 103.549 55.6724 103.697 55.5713L103.74 55.5496C103.9 55.4933 104.127 55.6406 104.318 55.7186C104.52 55.7937 104.96 56.0868 104.939 56.3222C104.914 56.5489 104.63 56.7323 104.478 56.8593C104.345 56.9705 104.26 57.1568 104.068 57.2044C103.823 57.2593 103.636 56.9864 103.428 56.8261C103.308 56.738 103.129 56.637 103.07 56.5056C102.956 56.2269 103.324 56.2196 103.433 56.094V56.0926Z" fill="white"/>
<path d="M104.914 56.8913C105.071 56.7282 105.37 56.4336 105.699 56.7888C105.795 56.9014 105.862 57.0242 105.951 57.1382C106.046 57.261 106.146 57.3794 106.244 57.5021L106.26 57.5151C106.466 57.7678 106.7 58.2068 106.557 58.4234C106.443 58.5967 106.096 58.5649 105.862 58.4494C105.604 58.318 105.356 58.2053 105.109 58.0335C104.891 57.8747 104.658 57.7808 104.49 57.5469C104.217 57.1556 104.767 57.0559 104.914 56.8942V56.8913Z" fill="white"/>
<path d="M99.5416 53.5066C100.002 53.7405 100.47 53.9673 100.891 54.2705C101.27 54.5521 101.558 54.9275 101.822 55.2871C102.021 55.5571 102.255 56.0249 102.68 55.9542C102.98 55.908 103.183 55.5672 103.381 55.3925C103.542 55.2625 103.905 55.1196 103.896 54.8943C103.88 54.5983 103.517 54.3687 103.248 54.2532C102.871 54.0943 102.542 54.025 102.195 53.7651C101.796 53.4604 101.339 53.02 101.178 52.5781C100.967 52.0049 100.878 51.036 100.097 50.7789C99.7482 50.662 99.5588 50.8454 99.3552 51.0316C99.2691 51.1183 99.1759 51.2064 99.0784 51.2757C98.879 51.423 98.6997 51.5356 98.4588 51.6251C98.2522 51.7002 98.0113 51.7118 97.8119 51.8128C97.7216 51.8576 97.6398 51.9283 97.6083 52.0265C97.581 52.106 97.6269 52.1998 97.6742 52.2836C97.9941 52.8669 98.9493 53.2019 99.5373 53.5066H99.5416Z" fill="white"/>
<path d="M99.2418 59.5366C99.1758 59.2319 99.6362 59.2189 99.8083 59.0644C99.9948 58.9012 100.065 58.5936 100.28 58.4767L100.342 58.4478C100.557 58.3713 100.794 58.533 101.013 58.611C101.244 58.6918 101.704 58.9979 101.607 59.2636C101.518 59.5221 101.112 59.7358 100.885 59.8831C100.69 60.0102 100.527 60.2282 100.282 60.2831C99.9618 60.3553 99.8069 60.0607 99.5917 59.8889C99.4741 59.7921 99.2748 59.6853 99.2446 59.538L99.2418 59.5366Z" fill="white"/>
<path d="M101.078 60.1705C101.346 59.9697 101.849 59.6015 102.155 59.9842C102.247 60.1055 102.291 60.2427 102.36 60.3683C102.442 60.4997 102.536 60.6268 102.621 60.7582L102.638 60.774C102.809 61.047 102.977 61.535 102.704 61.8036C102.493 62.0115 102.046 62.0072 101.779 61.8902C101.482 61.7646 101.2 61.6563 100.937 61.4744C100.705 61.3126 100.426 61.2202 100.29 60.9661C100.068 60.5358 100.828 60.3697 101.078 60.1705Z" fill="white"/>
<path d="M96.0349 56.1998C95.9273 56.1203 95.8212 56.0424 95.715 55.9658C95.2403 55.6337 94.539 55.241 94.3037 54.7226C94.1288 54.3298 94.6982 54.1594 94.9907 54.0699C95.3536 53.9587 95.6548 53.7999 95.9431 53.5833C96.2515 53.3436 96.5555 53.1226 96.7893 52.8107C96.8668 52.7082 96.9026 52.61 97.0432 52.6389C97.1407 52.6606 97.277 52.8107 97.3315 52.8786C97.581 53.1732 97.5581 53.462 97.604 53.784C97.6785 54.2865 98.0013 54.867 98.3569 55.2857C98.7428 55.7449 99.2419 56.1608 99.7137 56.5449C99.9949 56.7716 100.401 57.0532 100.517 57.3882C100.732 57.9961 99.8586 58.204 99.5589 58.5477C99.414 58.721 99.3093 58.8899 99.0511 58.9592C98.7542 59.0473 98.377 59.082 98.182 58.7614C97.8894 58.2892 97.7761 57.8026 97.3673 57.3723C96.9542 56.9376 96.5125 56.555 96.0363 56.2012L96.0349 56.1998Z" fill="white"/>
<path d="M73.4253 32.8957C75.9682 36.1504 80.7127 37.2695 84.0001 35.3866C87.2859 33.5036 87.8754 29.3161 85.3181 26.057C82.7566 22.7893 78.0149 21.6731 74.7434 23.5604C71.4761 25.4534 70.8838 29.6352 73.4253 32.8972V32.8957ZM73.5071 32.8481C71 29.6352 71.5837 25.5097 74.8051 23.6412C78.0307 21.7799 82.7092 22.8803 85.2364 26.1003C87.7592 29.3204 87.1755 33.4488 83.9341 35.3057C80.6898 37.1612 76.0156 36.0624 73.5071 32.8481Z" fill="#F3AE94"/>
<path d="M74.0679 32.5275C76.3369 35.4328 80.5636 36.4263 83.4952 34.7469C86.4283 33.0647 86.9532 29.332 84.6727 26.4209C82.388 23.5156 78.1612 22.5164 75.2454 24.2001C72.3296 25.8823 71.7974 29.6208 74.0679 32.5275ZM74.1855 32.4553C71.9667 29.6165 72.4816 25.9618 75.3314 24.3142C78.1856 22.6695 82.3234 23.6442 84.5523 26.4917C86.7868 29.3378 86.2734 32.9882 83.4063 34.6314C80.5407 36.2703 76.4043 35.2957 74.1855 32.4553Z" fill="#F3AE94"/>
<path d="M74.7119 32.155C76.704 34.7065 80.4202 35.5845 82.9975 34.1087C85.572 32.6344 86.0353 29.3494 84.0316 26.7964C82.028 24.2333 78.3075 23.3641 75.746 24.8384C73.1815 26.3184 72.7168 29.6006 74.7133 32.155H74.7119ZM74.8639 32.0655C72.9334 29.5948 73.3823 26.4239 75.8621 24.99C78.342 23.559 81.9362 24.4066 83.8782 26.8802C85.8159 29.3566 85.3684 32.5276 82.8771 33.9557C80.3886 35.3794 76.7901 34.5333 74.8639 32.0655Z" fill="#F3AE94"/>
<path d="M75.3544 31.7848C77.074 33.9869 80.2753 34.7407 82.497 33.4685C84.7157 32.1964 85.113 29.3647 83.3862 27.1598C81.6579 24.9591 78.4538 24.2025 76.2436 25.4761C74.0334 26.7525 73.6347 29.5842 75.3544 31.7848ZM75.5423 31.678C73.9043 29.5799 74.2873 26.8796 76.3928 25.6638C78.4983 24.4508 81.5518 25.1714 83.1997 27.2724C84.8463 29.3719 84.4633 32.065 82.3492 33.2808C80.2323 34.4923 77.183 33.7703 75.5423 31.6765V31.678Z" fill="#F3AE94"/>
<path d="M75.9939 31.4149C77.441 33.2603 80.1317 33.8928 81.9934 32.8242C83.8579 31.7586 84.1935 29.3803 82.7463 27.5335C81.292 25.678 78.6014 25.0455 76.7426 26.114C74.8866 27.1884 74.551 29.5637 75.9939 31.4149ZM76.2205 31.2821C74.8709 29.5579 75.1835 27.3371 76.919 26.3379C78.6544 25.3372 81.1687 25.9321 82.5226 27.6605C83.8751 29.3847 83.5639 31.607 81.8212 32.6062C80.0815 33.604 77.5701 33.0105 76.2219 31.2806L76.2205 31.2821Z" fill="#F3AE94"/>
<path d="M76.6407 31.0455C77.8068 32.5415 79.9854 33.0526 81.4957 32.1877C83.0045 31.3227 83.2727 29.4022 82.0995 27.9005C80.9263 26.4045 78.7462 25.8861 77.246 26.754C75.74 27.6233 75.4675 29.5495 76.6422 31.0455H76.6407ZM76.8975 30.8968C75.8376 29.5394 76.0871 27.798 77.4482 27.011C78.8079 26.2313 80.7771 26.6933 81.8428 28.0521C82.9027 29.4066 82.6574 31.1451 81.292 31.9292C79.9266 32.7104 77.9574 32.2512 76.8975 30.8953V30.8968Z" fill="#F3AE94"/>
<path d="M77.2804 30.6741C78.1768 31.8207 79.8434 32.2091 80.9966 31.5463C82.1468 30.8864 82.3534 29.4164 81.4555 28.2713C80.5591 27.1234 78.8939 26.7321 77.7451 27.3977C76.5934 28.0547 76.3883 29.5276 77.2804 30.6741ZM77.5773 30.5009C76.8085 29.5218 76.9878 28.2612 77.9746 27.6865C78.9657 27.1176 80.3927 27.4569 81.1644 28.4432C81.936 29.4265 81.7567 30.6886 80.7671 31.2575C79.776 31.825 78.3446 31.4856 77.5773 30.5023V30.5009Z" fill="#F3AE94"/>
<path d="M78.3763 28.201C79.0819 27.7938 80.1003 28.0306 80.6496 28.7367C81.2032 29.437 81.0741 30.3395 80.3656 30.7467C79.6599 31.151 78.6416 30.9128 78.0923 30.2095C77.543 29.5034 77.6663 28.6053 78.3763 28.201Z" fill="#F3AE94"/>
<path d="M95.9732 50.0499C98.5261 53.309 103.304 54.4353 106.622 52.5653C109.944 50.6925 110.552 46.5093 107.982 43.2415C105.413 39.9753 100.636 38.8446 97.3371 40.7276C94.0355 42.6033 93.4231 46.7865 95.9732 50.0499ZM96.0592 49.9979C93.545 46.7822 94.1445 42.6582 97.4017 40.8084C100.657 38.9587 105.368 40.0691 107.902 43.2921C110.435 46.5151 109.835 50.6376 106.559 52.483C103.284 54.3313 98.5735 53.2122 96.0578 49.9979H96.0592Z" fill="#F3AE94"/>
<path d="M96.6244 49.677C98.902 52.5823 103.165 53.5931 106.123 51.9239C109.084 50.2503 109.624 46.5248 107.333 43.6123C105.043 40.6955 100.784 39.6904 97.8378 41.364C94.8904 43.0405 94.3496 46.7717 96.6244 49.677ZM96.7463 49.6135C94.5203 46.766 95.051 43.1199 97.9267 41.4839C100.808 39.845 104.976 40.8283 107.215 43.6787C109.458 46.5248 108.923 50.1752 106.03 51.8069C103.137 53.4386 98.9694 52.4524 96.7463 49.6135Z" fill="#F3AE94"/>
<path d="M97.2712 49.3077C99.2762 51.8708 103.018 52.753 105.619 51.2845C108.22 49.8145 108.699 46.5396 106.683 43.9765C104.67 41.4163 100.929 40.5341 98.3397 42.004C95.7508 43.474 95.2747 46.7547 97.2712 49.3062V49.3077ZM97.4289 49.2225C95.4941 46.7504 95.9545 43.5837 98.4573 42.1571C100.96 40.7362 104.583 41.5896 106.528 44.0646C108.477 46.5439 108.014 49.7091 105.498 51.1285C102.984 52.5494 99.3652 51.6975 97.4275 49.2225H97.4289Z" fill="#F3AE94"/>
<path d="M97.9238 48.9437C99.6506 51.1429 102.875 51.9082 105.118 50.6404C107.361 49.3769 107.769 46.5539 106.037 44.3475C104.302 42.1425 101.073 41.3758 98.8431 42.6422C96.6086 43.9114 96.1998 46.7359 97.9238 48.9423V48.9437ZM98.1146 48.8354C96.4695 46.7373 96.8624 44.0443 98.988 42.8313C101.116 41.6227 104.193 42.3519 105.847 44.4529C107.496 46.5597 107.106 49.2484 104.973 50.4541C102.838 51.6613 99.7596 50.935 98.1146 48.8354Z" fill="#F3AE94"/>
<path d="M98.5748 48.5768C100.025 50.428 102.736 51.0663 104.614 50.002C106.498 48.9378 106.842 46.5668 105.388 44.7127C103.933 42.8616 101.222 42.2161 99.3436 43.2818C97.4676 44.3474 97.1248 46.7199 98.5748 48.5768ZM98.8 48.4454C97.4432 46.7155 97.7673 44.5048 99.5214 43.5099C101.271 42.5121 103.798 43.1143 105.159 44.8441C106.519 46.574 106.196 48.7819 104.438 49.7782C102.684 50.7731 100.152 50.1753 98.8 48.4454Z" fill="#F3AE94"/>
<path d="M99.2218 48.2072C100.396 49.7018 102.589 50.2245 104.111 49.3624C105.636 48.5018 105.917 46.5799 104.737 45.0825C103.559 43.585 101.363 43.0652 99.8458 43.9273C98.3254 44.7879 98.0486 46.7069 99.2218 48.2072ZM99.4829 48.0585C98.4172 46.7012 98.6768 44.9669 100.048 44.1843C101.425 43.4031 103.408 43.871 104.474 45.2283C105.544 46.5885 105.289 48.3227 103.913 49.1025C102.534 49.8837 100.55 49.413 99.4843 48.0571L99.4829 48.0585Z" fill="#F3AE94"/>
<path d="M99.8685 47.8365C100.768 48.983 102.446 49.3787 103.612 48.7245C104.774 48.0661 104.987 46.599 104.088 45.4467C103.186 44.3002 101.509 43.906 100.348 44.5659C99.1858 45.2258 98.9721 46.6957 99.8685 47.8365ZM100.168 47.669C99.3952 46.6856 99.5802 45.4236 100.578 44.8604C101.577 44.2901 103.015 44.6294 103.791 45.62C104.563 46.6048 104.379 47.861 103.381 48.43C102.38 48.9902 100.937 48.6523 100.168 47.6675V47.669Z" fill="#F3AE94"/>
<path d="M100.98 45.3726C101.69 44.9653 102.72 45.2079 103.269 45.9083C103.827 46.6129 103.695 47.5096 102.981 47.9183C102.267 48.3226 101.238 48.0786 100.689 47.3739C100.135 46.6736 100.269 45.7711 100.982 45.3711L100.98 45.3726Z" fill="#F3AE94"/>
<path d="M54.8674 30.54C59.0482 28.1228 61.1379 26.9099 65.3217 24.4854C64.8354 23.8674 64.5916 23.5569 64.1083 22.9346C59.9289 25.359 57.842 26.5662 53.6626 28.9906C54.1459 29.613 54.3869 29.922 54.8659 30.5386L54.8674 30.54Z" fill="#3D69B1"/>
<path d="M77.2891 59.4254C81.5316 57.0241 83.6486 55.8241 87.8868 53.4199C87.4035 52.7961 87.1625 52.4871 86.6749 51.8633C82.4395 54.2675 80.3225 55.4689 76.0886 57.8717C76.572 58.4969 76.8101 58.8045 77.2891 59.4254Z" fill="#3D69B1"/>
<path d="M70.188 40.3973C72.2691 39.206 73.3147 38.6067 75.3972 37.4111C75.6123 37.6826 75.7199 37.8212 75.9322 38.097C73.8453 39.2941 72.8055 39.889 70.7187 41.0846C70.5093 40.8146 70.3988 40.6716 70.188 40.3987V40.3973Z" fill="white"/>
<path d="M69.4753 40.8071C69.6847 41.0829 69.7908 41.2186 70.006 41.4916C68.1701 42.5457 67.2493 43.0742 65.4135 44.1239C65.2026 43.8496 65.098 43.7182 64.8828 43.4438C66.7201 42.3883 67.6351 41.8612 69.4767 40.8057L69.4753 40.8071Z" fill="white"/>
<path d="M73.5686 40.1122C74.6572 39.4884 75.2022 39.1722 76.2894 38.5498C76.5045 38.8256 76.6092 38.9613 76.8244 39.2343C75.7329 39.8595 75.1907 40.1685 74.1021 40.7909C73.887 40.5223 73.778 40.388 73.5686 40.1122Z" fill="white"/>
<path d="M72.734 40.5908C72.9491 40.8594 73.0538 41.0009 73.2689 41.2767C70.4808 42.8723 69.0852 43.6679 66.297 45.2664C66.0833 44.9935 65.9772 44.8549 65.7664 44.5805C68.5531 42.9849 69.9458 42.1879 72.734 40.5908Z" fill="white"/>
<path d="M71.0273 44.2048C73.7007 42.6742 75.0432 41.9089 77.7138 40.3768C77.5029 40.1039 77.3939 39.9653 77.1831 39.6924C74.5082 41.2244 73.17 41.9898 70.4966 43.5189C70.7074 43.7947 70.8164 43.9319 71.0273 44.2048Z" fill="white"/>
<path d="M67.1818 46.4078C68.5185 45.6396 69.1855 45.2555 70.5236 44.4974C70.3128 44.2216 70.2066 44.083 69.9929 43.8115C68.6562 44.5768 67.9878 44.9566 66.6511 45.7234C66.8648 45.9963 66.971 46.1349 67.1818 46.4092V46.4078Z" fill="white"/>
<path d="M69.4983 45.7377C72.929 43.7754 74.6415 42.7964 78.0723 40.834C78.286 41.1083 78.3921 41.2441 78.6058 41.5184C75.1751 43.4822 73.4583 44.4598 70.0318 46.4208C69.8167 46.1478 69.712 46.0107 69.4983 45.7377Z" fill="white"/>
<path d="M69.0149 46.0156C69.23 46.2885 69.3347 46.4272 69.5456 46.7015C68.9532 47.0365 68.6606 47.2084 68.0683 47.5477C67.8589 47.2733 67.7484 47.1376 67.5376 46.8632C68.1299 46.5253 68.4268 46.3521 69.0149 46.0156Z" fill="white"/>
<path d="M84.7946 59.1733C86.8958 57.9806 87.9486 57.3886 90.0497 56.1973C90.2635 56.4702 90.3739 56.6074 90.5833 56.8788C88.4778 58.0716 87.4294 58.665 85.3239 59.852C85.1131 59.5848 85.004 59.4477 84.7932 59.1733H84.7946Z" fill="white"/>
<path d="M84.0732 59.5771C84.2854 59.8515 84.3887 59.9858 84.6038 60.263C82.7522 61.307 81.8243 61.8355 79.9712 62.8781C79.7604 62.6052 79.6557 62.468 79.4448 62.1922C81.2936 61.1496 82.2215 60.6269 84.0732 59.5771Z" fill="white"/>
<path d="M88.1951 58.8897C89.2937 58.2687 89.8445 57.954 90.9402 57.3359C91.1554 57.6089 91.2629 57.746 91.4781 58.0218C90.378 58.6399 89.8287 58.9546 88.7286 59.5727C88.5135 59.2998 88.4088 59.1626 88.1951 58.8897Z" fill="white"/>
<path d="M87.3562 59.3633C87.5699 59.6391 87.676 59.7763 87.8911 60.0448C85.0786 61.6361 83.6716 62.4332 80.8561 64.0187C80.6467 63.7472 80.5406 63.6086 80.3254 63.3357C83.138 61.7502 84.545 60.9517 87.3562 59.3633Z" fill="white"/>
<path d="M85.6208 62.9717C88.3186 61.4425 89.6668 60.683 92.3618 59.161C92.1523 58.8895 92.0462 58.7509 91.8325 58.4766C89.1333 59.9985 87.7894 60.7638 85.0901 62.2858C85.3009 62.5587 85.4071 62.6959 85.6208 62.9717Z" fill="white"/>
<path d="M81.7426 65.1628C83.0908 64.4018 83.7663 64.0177 85.1145 63.2553C84.8994 62.9824 84.7947 62.8452 84.5795 62.5723C83.2299 63.3376 82.5601 63.7159 81.2119 64.4783C81.4256 64.7498 81.5318 64.8899 81.7426 65.1642V65.1628Z" fill="white"/>
<path d="M84.0774 64.4969C87.5325 62.5504 89.2637 61.57 92.7216 59.6191C92.9353 59.8921 93.0415 60.0292 93.2552 60.3021C89.7958 62.2558 88.066 63.2291 84.6081 65.1828C84.3958 64.9099 84.2882 64.7727 84.0774 64.4984V64.4969Z" fill="white"/>
<path d="M83.5854 64.7759C83.8006 65.0444 83.9053 65.1816 84.1204 65.4574C83.5195 65.7953 83.2226 65.9643 82.6259 66.2978C82.4122 66.0235 82.3061 65.8863 82.0967 65.6177C82.6933 65.2769 82.9874 65.1094 83.584 64.7744L83.5854 64.7759Z" fill="white"/>
<path d="M72.0325 48.8498C75.436 46.9062 77.137 45.9387 80.5362 43.9951C80.7513 44.2709 80.856 44.4067 81.0697 44.6796C77.6662 46.6188 75.9666 47.5906 72.566 49.5285C72.3523 49.2584 72.2462 49.1241 72.0325 48.8483V48.8498Z" fill="white"/>
<path d="M76.9851 47.669C78.7621 46.6539 79.6528 46.1485 81.4299 45.1406C81.6393 45.4135 81.7497 45.5493 81.9648 45.8236C80.1864 46.833 79.2971 47.3398 77.5186 48.3549C77.3035 48.0806 77.1988 47.9463 76.9851 47.669Z" fill="white"/>
<path d="M68.4771 39.3516C70.8078 38.0101 71.9753 37.343 74.306 36.0015C71.3973 32.2761 69.9387 30.409 67.03 26.6777C64.7065 28.0206 63.549 28.6892 61.2241 30.0335C64.1285 33.7619 65.5757 35.6232 68.4771 39.3516Z" fill="white"/>
<path d="M91.4898 69.1057C93.8921 67.7585 95.0883 67.0827 97.4936 65.734C96.2314 64.1167 95.6032 63.3124 94.3411 61.6865C91.9416 63.0424 90.7411 63.7139 88.343 65.0698C89.6037 66.6813 90.2305 67.4942 91.4898 69.1057Z" fill="white"/>
<path d="M122.15 161.033C122.125 161.977 122.58 163.428 122.852 164.341C122.966 164.722 123.128 165.184 122.709 166.01C121.841 167.737 120.132 167.552 118.65 166.865C117.091 166.137 115.721 165.251 114.086 164.683C112.513 164.129 111.087 163.649 110.09 162.087C109.765 161.573 109.132 160.41 109.391 159.395C109.581 158.652 110.627 159.112 111.236 159.026C113.538 158.704 115.816 160.135 117.962 160.883L122.15 161.034V161.033Z" fill="#0A0901"/>
<path d="M122.15 160.426C122.125 161.378 122.183 162.179 122.46 163.087C122.703 163.887 123.128 164.583 122.709 165.408C121.841 167.135 120.132 166.954 118.65 166.258C117.091 165.533 115.721 164.65 114.086 164.076C112.513 163.529 111.087 163.044 110.091 161.484C109.765 160.972 109.231 159.967 109.406 159.339C109.609 158.598 110.627 158.505 111.238 158.422C113.54 158.103 115.818 159.532 117.963 160.274L122.151 160.425L122.15 160.426Z" fill="#1D1E19"/>
<path d="M148.007 159.605C147.982 160.557 148.438 162.003 148.711 162.918C148.823 163.299 148.985 163.761 148.566 164.587C147.695 166.312 145.986 166.13 144.507 165.437C142.951 164.715 141.578 163.829 139.947 163.258C138.37 162.707 136.946 162.222 135.949 160.663C135.62 160.151 134.988 158.986 135.249 157.97C135.438 157.227 136.484 157.685 137.095 157.601C139.397 157.28 141.674 158.71 143.82 159.458L148.008 159.605H148.007Z" fill="#0A0901"/>
<path d="M148.006 159.004C147.982 159.954 148.041 160.751 148.315 161.664C148.56 162.463 148.985 163.16 148.566 163.986C147.695 165.712 145.986 165.528 144.507 164.836C142.951 164.109 141.578 163.221 139.947 162.653C138.37 162.104 136.945 161.621 135.949 160.058C135.62 159.549 135.088 158.544 135.26 157.91C135.465 157.175 136.484 157.085 137.095 157C139.397 156.677 141.674 158.108 143.82 158.851L148.008 159.003L148.006 159.004Z" fill="#1D1E19"/>
<path d="M145.372 146.413C144.427 142.127 144.399 110.983 140.328 101.355C137.121 100.309 134.9 111.211 131.602 111.887C131.653 112.265 134.558 131.624 134.599 131.938C135.312 137.293 140.125 155.699 141.551 159.199C143.314 159.573 147.147 160.204 148.837 158.961C147.166 155.521 145.989 149.211 145.372 146.413Z" fill="#3D69B1"/>
<path d="M137.204 118.325C140.421 113.403 141.536 106.165 141.181 100.21C141.04 97.8871 139.255 98.9658 138.117 96.9355L118.419 105.328C116.955 109.183 115.836 127.457 115.335 133.292C114.875 138.68 115.579 157.698 116.212 161.424C117.851 162.176 121.072 162.401 122.986 161.56C122.099 157.837 122.708 152.649 122.715 149.787C122.723 144.359 123.701 136.807 126.415 131.936C129.255 126.842 134.051 123.145 137.202 118.324L137.204 118.325Z" fill="#3D69B1"/>
<path d="M145.638 130.076C144.815 130.407 142.413 131.835 141.027 131.931C140.471 130.455 137.803 116.946 136.953 116.158C136.58 117.455 136.858 132.185 136.824 133.623C133.664 134.541 125.169 136.128 115.653 132.738C114.91 132.472 115.237 124.363 115.252 123.407C115.308 120.37 115.766 117.533 116.35 114.564C117.676 107.829 119.425 100.985 118.624 94.0679C118.472 92.7481 118.221 91.4499 117.93 90.1575C117.432 87.9107 116.824 85.6812 116.43 83.4098C116.298 82.6402 116.185 81.8691 116.114 81.0821C115.741 77.0144 116.598 72.3576 117.864 68.4964C118.502 66.5282 119.227 64.4532 120.374 62.7537C121.326 61.3429 122.679 60.7061 123.77 59.4989L135.065 55.5309C139.896 53.8414 141.656 59.6708 142.126 63.2273C142.464 65.7932 141.823 68.2899 141.851 70.8847C141.892 74.242 141.818 77.5949 140.882 80.8453C140.051 83.7477 139.491 87.0183 139.364 90.0449C139.177 94.5025 141.146 99.3485 142.463 103.559C143.884 108.124 143.897 112.613 144.503 117.277C144.686 118.724 146.895 129.571 145.64 130.079L145.638 130.076Z" fill="#ECF7FE"/>
<path d="M117.93 90.1562C117.432 87.9093 116.824 85.6798 116.43 83.4084C119.181 80.0339 121.539 76.408 122.821 72.2811C123.055 73.0638 123.261 73.8493 123.425 74.6521C123.476 74.9019 123.849 74.7937 123.799 74.5496C123.594 73.5518 123.332 72.5612 123.026 71.5923C123.267 70.7375 123.456 69.8624 123.594 68.96C123.927 69.0322 124.258 69.1 124.594 69.1636C125.413 76.7315 122.028 83.768 117.93 90.1576V90.1562Z" fill="#3D69B1"/>
<path d="M119.286 42.31L133.64 50.7068C133.761 51.0173 133.664 51.4042 133.634 51.7234C133.578 52.3067 133.512 52.8785 133.512 53.4619C133.512 54.0453 133.553 54.6359 133.512 55.2192C133.437 56.1939 132.994 56.9217 132.136 57.4184C131.416 57.8314 130.708 58.2242 129.889 58.4234C128.965 58.6415 127.874 58.9187 126.923 58.9462C126.15 58.9635 125.088 58.8913 124.361 58.6126C123.963 58.4552 123.826 58.2805 123.816 57.8559C123.811 57.2914 123.842 56.682 123.899 56.1261C123.911 55.9932 123.911 55.7174 123.974 55.5225C123.399 55.5153 122.888 55.5167 122.31 55.3044C120.978 54.8091 120.321 53.7767 119.991 52.4295C119.719 51.306 119.3 50.0888 119.208 48.961C119.121 47.8607 119.022 46.7792 118.948 45.6933C118.867 44.4905 118.913 43.445 119.286 42.3086V42.31Z" fill="#E7AC80"/>
<path d="M119.132 41.0047C119.775 38.6914 121.504 36.8431 123.925 36.2699C126.569 35.6461 128.795 35.7674 131.257 37.4308C134.213 39.4293 135.167 42.3057 135.414 45.5705C135.6 48.0354 135.438 50.9191 133.592 52.7702C132.022 54.35 128.555 55.1557 126.483 54.376C125.728 54.09 124.924 53.7522 124.303 53.2193C124.099 53.0446 123.542 52.6114 123.527 52.3082C123.512 51.8764 123.735 52.1017 123.918 51.745C124.392 50.8252 124.908 49.5213 124.026 48.5942C122.993 47.5069 122.075 49.0303 121.785 50.1018C121.757 50.0238 121.715 49.9429 121.681 49.8592C121.348 49.0173 121.281 48.4989 121.375 47.5936C121.48 46.5669 121.104 46.3777 120.462 45.7236C119.056 44.2926 118.408 43.6125 119.132 41.0047Z" fill="#4F1838"/>
<path d="M122.996 60.0696C123.055 59.6711 123.185 59.1873 123.321 58.8133C123.512 58.2935 123.726 58.3484 124.208 58.4004C125.413 58.5361 126.596 58.4365 127.788 58.2126C129.358 57.9253 131.058 57.1224 132.392 56.2387C133.15 55.7333 134.159 55.0012 134.629 54.207C135.263 54.4814 135.571 55.368 135.69 55.986C135.785 56.4669 135.904 56.9997 135.756 57.482C135.564 58.1318 134.935 58.731 134.461 59.1859C132.443 61.1439 129.433 61.58 126.725 61.5569C125.704 61.5555 124.683 61.3807 123.717 61.0934C123.243 60.949 122.926 60.5808 122.996 60.071V60.0696Z" fill="#ECF7FE"/>
<path d="M99.9203 76.4274C100.09 76.7061 100.263 76.9747 100.425 77.2577C100.523 77.4252 100.584 77.6115 100.695 77.7746C100.748 77.8584 100.954 78.1226 101.055 78.1414C101.29 78.1775 101.263 77.7414 101.303 77.5609C101.376 77.2259 101.73 76.2801 102.214 76.5299C102.503 76.6815 102.257 77.1956 102.229 77.4613C102.175 77.997 102.416 78.3768 102.571 78.8562C102.703 79.2677 102.83 79.7023 102.914 80.1312C102.978 80.4806 102.916 80.8619 103.057 81.1896C103.203 81.5275 103.338 81.8828 103.494 82.2221C103.784 82.8603 104.176 83.5116 104.767 83.9087L104.574 86.2407C102.638 85.3281 100.97 85.2472 100.057 83.3874C99.6291 82.5167 99.3466 81.4452 98.76 80.6698C98.2164 79.9406 98.2465 79.1146 98.3985 78.2353C98.5334 77.4541 98.7628 76.7003 98.7356 75.9061C98.7141 75.3097 98.7327 74.7928 99.011 74.2744C99.1931 74.8924 99.4083 75.5032 99.7353 76.0996C99.7926 76.2108 99.8572 76.3234 99.9217 76.4274H99.9203Z" fill="#E7AC80"/>
<path d="M124.411 66.4937C121.996 60.8997 120.209 62.7407 118.956 65.4641C116.535 70.713 114.517 76.1395 111.766 81.228C111.054 82.5435 109.712 84.1232 108.823 85.6972C108.098 84.7297 106.929 83.7666 106.48 83.3348C105.94 82.8106 103.702 80.9291 103.2 79.7451C102.018 81.2771 99.5845 83.9716 98.0068 84.7398C100.082 85.8603 103.976 91.2912 105.003 92.0897C112.407 97.8439 118.887 84.4784 121.775 79.67C124.046 75.894 126.333 70.9339 124.41 66.4937H124.411Z" fill="#ECF7FE"/>
<path d="M126.374 115.577C126.374 115.577 125.757 114.82 124.939 113.642C124.728 113.346 124.521 113.017 124.291 112.68C124.07 112.329 123.842 111.965 123.607 111.587C123.377 111.201 123.142 110.804 122.918 110.388C122.805 110.188 122.692 109.98 122.576 109.775L122.259 109.135C122.034 108.716 121.844 108.277 121.648 107.85C121.445 107.43 121.283 106.997 121.11 106.586C120.931 106.175 120.802 105.762 120.654 105.378C120.505 104.991 120.387 104.623 120.284 104.276C120.183 103.935 120.063 103.622 119.988 103.34C119.911 103.057 119.843 102.806 119.789 102.603C119.673 102.194 119.6 101.96 119.6 101.96C119.6 101.96 119.608 102.201 119.635 102.63C119.654 102.841 119.676 103.099 119.697 103.398C119.724 103.697 119.792 104.026 119.853 104.387C119.886 104.568 119.921 104.76 119.954 104.953C119.991 105.148 120.051 105.343 120.103 105.547C120.216 105.951 120.305 106.393 120.47 106.822C120.629 107.252 120.754 107.717 120.962 108.155C121.157 108.597 121.341 109.053 121.569 109.487L121.906 110.139C122.026 110.349 122.15 110.56 122.272 110.771C122.504 111.194 122.785 111.58 123.035 111.965C123.291 112.341 123.564 112.693 123.819 113.025C124.086 113.352 124.34 113.659 124.591 113.925C124.832 114.201 125.07 114.433 125.282 114.644C125.493 114.852 125.689 115.022 125.847 115.165C126.171 115.442 126.371 115.582 126.371 115.582L126.374 115.577Z" fill="#3D69B1"/>
<path d="M132.002 44.7503C130.807 45.3697 129.651 46.639 129.824 47.6036C130.03 48.7125 131.372 47.7638 131.799 47.3379C132.267 46.8671 132.826 46.5538 133.407 46.2448C133.868 45.9993 134.55 45.7957 134.342 45.1315C134.04 44.1698 133.004 44.2333 132 44.7503H132.002Z" fill="#3D69B1"/>
<path d="M130.744 47.4639C130.46 47.8249 130.214 48.1989 130.027 48.5627C129.381 49.8103 129.242 51.2269 128.892 52.5727C128.544 53.9156 128.32 55.2238 128.222 56.623C128.027 59.3854 129.017 62.0654 128.787 64.7815C128.485 68.4305 125.431 72.244 126.606 75.9507C127.755 79.5708 131.756 81.1101 135.229 80.1672C137.473 79.5578 139.249 78.0748 140.722 76.3233C142.636 74.049 143.116 71.8498 143.751 69.0066C144.789 64.37 143.513 60.1651 141.625 55.9617C140.555 53.5806 140.818 50.7691 139.563 48.4458C138.666 46.7924 136.375 45.217 134.451 45.2719C133.031 45.308 131.663 46.3058 130.744 47.4639Z" fill="#4F1838"/>
</g>
<defs>
<clipPath id="clip0_89_246">
<rect width="243" height="187" fill="white"/>
</clipPath>
</defs>
</svg>
