<svg width="1280" height="50" viewBox="0 0 1280 50" fill="none" xmlns="http://www.w3.org/2000/svg">
<rect width="1280" height="50" fill="#545472"/>
<path d="M91.68 24.44V26.16H84.68V27.88H89.72V33.52H77.48V27.88H82.52V26.16H75.6V24.44H91.68ZM77.04 18.36V16.6H90.2V18.36H87.76V21.36H90.08V23.12H77.12V21.36H79.48V18.36H77.04ZM79.64 31.76H87.6V29.56H79.64V31.76ZM81.64 21.36H85.6V18.36H81.64V21.36ZM107.125 16.08V25.16H105.005V16.08H107.125ZM92.6052 23.6C95.3652 22.78 96.8652 20.78 96.9652 18.72H93.1652V16.96H102.885V18.72H99.1652C99.2652 20.66 100.765 22.52 103.485 23.28L102.445 24.96C100.385 24.36 98.9052 23.1 98.1252 21.5C97.3252 23.26 95.7852 24.68 93.6052 25.32L92.6052 23.6ZM95.4452 27.6V25.92H107.165V30.48H97.6052V31.88H107.685V33.6H95.4852V28.88H105.005V27.6H95.4452ZM118.49 17.16C118.49 21.7 115.49 24.9 110.37 26.32L109.49 24.64C113.43 23.56 115.77 21.5 116.15 18.92H110.41V17.16H118.49ZM112.53 33.52V26.76H124.13V33.52H112.53ZM114.65 31.8H121.97V28.48H114.65V31.8ZM118.57 22.2V20.4H121.97V16.12H124.13V26.04H121.97V22.2H118.57ZM142.335 24.32V26.08H126.255V24.32H142.335ZM127.015 21.8C130.295 21.48 132.435 20.16 132.775 18.68H127.695V16.92H140.895V18.68H135.775C136.115 20.14 138.215 21.48 141.575 21.8L140.815 23.52C137.595 23.18 135.215 21.92 134.275 20.12C133.315 21.9 130.975 23.18 127.775 23.52L127.015 21.8ZM128.095 30.48C128.115 28.42 130.435 27.24 134.255 27.24C138.075 27.24 140.375 28.42 140.375 30.48C140.375 32.56 138.075 33.72 134.255 33.72C130.435 33.72 128.115 32.56 128.095 30.48ZM130.335 30.48C130.315 31.5 131.695 32.02 134.255 32C136.795 32.02 138.195 31.5 138.215 30.48C138.195 29.46 136.795 28.94 134.255 28.92C131.695 28.94 130.315 29.46 130.335 30.48ZM162.266 16.08V25H160.106V23.48H155.866V21.84H160.106V20.08H156.066C154.986 22.78 152.386 24.52 148.466 25.4L147.746 23.64C151.886 22.78 153.946 20.96 154.266 18.6H148.706V16.84H156.666C156.666 17.4 156.626 17.94 156.526 18.44H160.106V16.08H162.266ZM150.666 33.56V28.72H160.106V27.44H150.666V25.72H162.266V30.36H152.826V31.84H162.746V33.56H150.666ZM174.231 17.92V19.16C174.231 20.74 174.231 22.96 173.751 26L171.591 25.84C172.051 23.14 172.091 21.16 172.071 19.64H165.151V17.92H174.231ZM164.231 28.28C165.271 28.28 166.431 28.26 167.631 28.24V22.96H169.791V28.16C171.591 28.1 173.431 27.96 175.111 27.76L175.231 29.36C171.591 29.98 167.551 30.04 164.431 30.04L164.231 28.28ZM176.031 33.72V16.08H178.231V23.28H180.791V25.12H178.231V33.72H176.031ZM201.762 29.84V31.6H185.642V29.84H192.602V26.4H187.402V17.24H189.562V20.16H197.762V17.24H199.922V26.4H194.722V29.84H201.762ZM189.562 24.64H197.762V21.88H189.562V24.64ZM216.927 17.68V19.4C216.907 21.6 216.907 24.06 216.247 27.72L214.047 27.52C214.727 24.08 214.727 21.56 214.727 19.44H204.207V17.68H216.927ZM202.527 31.44V29.68H208.447V23.52H210.607V29.68H218.607V31.44H202.527ZM225.933 20.32C225.913 23.6 227.493 26.82 230.293 28.08L228.973 29.8C226.993 28.82 225.593 26.96 224.833 24.66C224.073 27.08 222.633 29.1 220.613 30.12L219.213 28.36C222.093 27.02 223.693 23.62 223.733 20.32V17.52H225.933V20.32ZM228.333 23.56V21.8H232.053V16.08H234.213V33.76H232.053V23.56H228.333Z" fill="white"/>
<circle cx="52.5" cy="25.5" r="12.5" fill="white"/>
<path d="M43.8517 25.764C43.8517 24.1493 44.1411 22.8847 44.7197 21.97C45.3077 21.0553 46.2784 20.598 47.6317 20.598C48.9851 20.598 49.9511 21.0553 50.5297 21.97C51.1177 22.8847 51.4117 24.1493 51.4117 25.764C51.4117 27.388 51.1177 28.662 50.5297 29.586C49.9511 30.51 48.9851 30.972 47.6317 30.972C46.2784 30.972 45.3077 30.51 44.7197 29.586C44.1411 28.662 43.8517 27.388 43.8517 25.764ZM49.4797 25.764C49.4797 25.0733 49.4331 24.4947 49.3397 24.028C49.2557 23.552 49.0784 23.1647 48.8077 22.866C48.5464 22.5673 48.1544 22.418 47.6317 22.418C47.1091 22.418 46.7124 22.5673 46.4417 22.866C46.1804 23.1647 46.0031 23.552 45.9097 24.028C45.8257 24.4947 45.7837 25.0733 45.7837 25.764C45.7837 26.4733 45.8257 27.0707 45.9097 27.556C45.9937 28.032 46.1711 28.4193 46.4417 28.718C46.7124 29.0073 47.1091 29.152 47.6317 29.152C48.1544 29.152 48.5511 29.0073 48.8217 28.718C49.0924 28.4193 49.2697 28.032 49.3537 27.556C49.4377 27.0707 49.4797 26.4733 49.4797 25.764ZM59.4825 22.488H54.9465V24.882C55.1425 24.6393 55.4225 24.4433 55.7865 24.294C56.1505 24.1353 56.5378 24.056 56.9485 24.056C57.6952 24.056 58.3065 24.2193 58.7825 24.546C59.2585 24.8727 59.6038 25.2927 59.8185 25.806C60.0332 26.31 60.1405 26.8513 60.1405 27.43C60.1405 28.5033 59.8325 29.3667 59.2165 30.02C58.6098 30.6733 57.7418 31 56.6125 31C55.5485 31 54.6992 30.734 54.0645 30.202C53.4298 29.67 53.0705 28.9747 52.9865 28.116H54.8905C54.9745 28.4893 55.1612 28.788 55.4505 29.012C55.7492 29.236 56.1272 29.348 56.5845 29.348C57.1352 29.348 57.5505 29.1753 57.8305 28.83C58.1105 28.4847 58.2505 28.0273 58.2505 27.458C58.2505 26.8793 58.1058 26.4407 57.8165 26.142C57.5365 25.834 57.1212 25.68 56.5705 25.68C56.1785 25.68 55.8518 25.778 55.5905 25.974C55.3292 26.17 55.1425 26.4313 55.0305 26.758H53.1545V20.766H59.4825V22.488Z" fill="#232335"/>
</svg>
