<svg width="160" height="160" viewBox="0 0 160 160" fill="none" xmlns="http://www.w3.org/2000/svg">
<g clip-path="url(#clip0_213_16901)">
<path opacity="0.25" d="M41.3906 90.4157L113.866 116.458L123.451 111.735L53.7837 88.9668L41.3906 90.4157Z" fill="url(#paint0_linear_213_16901)" fill-opacity="0.6"/>
<path opacity="0.25" d="M60.9805 83.6648L133.456 109.707L160 90.6606L95.103 74.6641L60.9805 83.6648Z" fill="url(#paint1_linear_213_16901)" fill-opacity="0.6"/>
<path opacity="0.25" d="M20.9766 96.9645L93.4524 123.007L103.035 118.283L33.367 95.5156L20.9766 96.9645Z" fill="url(#paint2_linear_213_16901)" fill-opacity="0.6"/>
<path opacity="0.25" d="M2.6582 103.958L75.134 130L84.7164 125.28L15.0486 102.512L2.6582 103.958Z" fill="url(#paint3_linear_213_16901)" fill-opacity="0.6"/>
<path d="M98.4205 30L98.375 30.0214V30.1176L98.4205 30Z" fill="#E0EAF7"/>
<path d="M71.5679 42.582L71.5625 75.6124L91.0213 82.365V66.4646V49.3667L71.5679 42.582Z" fill="#88B3DD"/>
<path d="M97.1752 33.2582L91.0215 49.3671V66.465V82.3654L98.376 75.4898V33.2582V30.1172L97.1752 33.2582Z" fill="#AECAE7"/>
<path d="M67.9336 47.2656V80.288L76.4916 83.2152V77.3581V50.1928L67.9336 47.2656Z" fill="#88B3DD"/>
<path d="M76.4922 50.1928V77.3581V83.2152L85.0475 80.288V47.2656L76.4922 50.1928Z" fill="#AECAE7"/>
<path d="M91.4684 33.2588L91.0218 33.4673L71.6432 42.5482L71.5683 42.583L71.6432 42.6097L76.5587 44.3232L67.9338 47.2665H67.9392L59.3945 50.191L67.9499 53.1181L76.5079 50.191L76.5026 50.1883L85.0205 47.2745L91.0218 49.3676L97.1756 33.2588L98.3764 30.1177V30.0215L91.4684 33.2588Z" fill="#EDF3FA"/>
<path d="M59.3945 50.1914V83.2138L67.9499 86.1409V80.2866V53.1186L59.3945 50.1914Z" fill="#88B3DD"/>
<path d="M67.9492 53.1186V80.2866V86.1409L76.5073 83.2138V50.1914L67.9492 53.1186Z" fill="#AECAE7"/>
<path d="M29.4096 76.0938L20.8516 79.0209L29.4096 81.9481L37.965 79.0209L29.4096 76.0938Z" fill="#EDF3FA"/>
<path d="M29.4102 81.9487V94.1252V99.9822L37.9655 97.0551V79.0215L29.4102 81.9487Z" fill="#AECAE7"/>
<path d="M20.8516 79.0215V97.0551L29.4096 99.9822V94.1252V81.9487L20.8516 79.0215Z" fill="#88B3DD"/>
<path d="M48.4479 60.9473L39.8926 63.8744L48.4479 66.8043L57.0033 63.8744L48.4479 60.9473Z" fill="#EDF3FA"/>
<path d="M39.8926 63.875V90.0272L48.4479 92.957V87.1V66.8049L39.8926 63.875Z" fill="#88B3DD"/>
<path d="M48.4473 66.8049V87.1V92.957L57.0026 90.0272V63.875L48.4473 66.8049Z" fill="#AECAE7"/>
<path d="M10.5554 91.9414L2 94.8686L10.5554 97.7958L19.1134 94.8686L10.5554 91.9414Z" fill="#EDF3FA"/>
<path d="M10.5547 97.7963V100.919V106.773L19.1127 103.846V94.8691L10.5547 97.7963Z" fill="#AECAE7"/>
<path d="M2 94.8691V103.846L10.5554 106.773V100.919V97.7963L2 94.8691Z" fill="#88B3DD"/>
</g>
<defs>
<linearGradient id="paint0_linear_213_16901" x1="39.6389" y1="86.6919" x2="118.256" y2="113.98" gradientUnits="userSpaceOnUse">
<stop stop-color="#213961"/>
<stop offset="0.28" stop-color="#345283"/>
<stop offset="0.56" stop-color="#44669F"/>
<stop offset="0.81" stop-color="#4D72B0"/>
<stop offset="1" stop-color="#5177B6"/>
</linearGradient>
<linearGradient id="paint1_linear_213_16901" x1="68.2735" y1="73.7766" x2="146.891" y2="100.259" gradientUnits="userSpaceOnUse">
<stop stop-color="#213961"/>
<stop offset="0.28" stop-color="#345283"/>
<stop offset="0.56" stop-color="#44669F"/>
<stop offset="0.81" stop-color="#4D72B0"/>
<stop offset="1" stop-color="#5177B6"/>
</linearGradient>
<linearGradient id="paint2_linear_213_16901" x1="27.4753" y1="95.259" x2="93.7935" y2="119.069" gradientUnits="userSpaceOnUse">
<stop stop-color="#213961"/>
<stop offset="0.28" stop-color="#345283"/>
<stop offset="0.56" stop-color="#44669F"/>
<stop offset="0.81" stop-color="#4D72B0"/>
<stop offset="1" stop-color="#5177B6"/>
</linearGradient>
<linearGradient id="paint3_linear_213_16901" x1="8.85743" y1="103.723" x2="62.073" y2="121.647" gradientUnits="userSpaceOnUse">
<stop stop-color="#213961"/>
<stop offset="0.28" stop-color="#345283"/>
<stop offset="0.56" stop-color="#44669F"/>
<stop offset="0.81" stop-color="#4D72B0"/>
<stop offset="1" stop-color="#5177B6"/>
</linearGradient>
<clipPath id="clip0_213_16901">
<rect width="158" height="100" fill="white" transform="translate(2 30)"/>
</clipPath>
</defs>
</svg>
