<svg width="160" height="160" viewBox="0 0 160 160" fill="none" xmlns="http://www.w3.org/2000/svg">
<g clip-path="url(#clip0_213_16784)">
<path d="M140.577 95.3143C139.794 96.3295 138.685 97.2793 137.249 98.1081L92.2643 124.23C85.8886 127.928 75.5324 127.918 69.138 124.23L23.827 98.0894C22.3543 97.2421 21.2265 96.2733 20.4247 95.2399C17.7402 91.7663 18.8494 87.5662 23.7521 84.7166L68.7465 58.5942C75.1222 54.8879 85.4503 54.8879 91.8636 58.5942L137.175 84.7257C142.124 87.5848 143.28 91.8221 140.577 95.3143H140.577Z" fill="#86A2E6"/>
<path d="M140.576 95.3143C139.793 96.3295 138.684 97.2793 137.248 98.108L92.2634 124.23C85.8877 127.928 75.5315 127.918 69.1371 124.23L23.8261 98.0894C22.3534 97.2421 21.2255 96.2733 20.4238 95.2398C21.2066 94.2247 22.3158 93.2843 23.7512 92.4461L68.7456 66.3237C75.1213 62.6265 85.4494 62.6265 91.8627 66.3237L137.174 92.4647C138.647 93.312 139.775 94.2809 140.576 95.3143H140.576Z" fill="#A7BBEB"/>
<path d="M128.547 89.409L128.518 94.3068C128.518 96.1638 127.279 98.05 124.8 99.4947L89.6614 119.892C84.6751 122.781 76.6207 122.781 71.6051 119.892L36.2007 99.4651C33.6929 98.0208 32.424 96.1047 32.4536 94.2181V89.3203C32.4536 91.2069 33.7221 93.123 36.2303 94.5673L71.6051 114.995C76.6207 117.883 84.7047 117.883 89.691 114.995L124.83 94.5969C127.308 93.1522 128.547 91.266 128.547 89.409Z" fill="#DDE2EF"/>
<path d="M36.2305 94.5811C31.2197 91.6906 31.1934 87.0183 36.1713 84.1282L71.3175 63.7225C76.2958 60.8321 84.3696 60.8321 89.3804 63.7225L124.775 84.1388C129.767 87.0183 129.812 91.7016 124.835 94.5916L89.6883 114.997C84.7104 117.887 76.6176 117.876 71.6258 114.997L36.2309 94.5811H36.2305Z" fill="white"/>
<path d="M95.8885 78.3997C87.3234 73.4592 73.4313 73.4581 64.9258 78.3965L65.0123 42.2146C73.5178 37.2763 87.41 37.2774 95.975 42.2179C95.9462 52.3814 95.9173 68.2359 95.8885 78.3997Z" fill="#FFD33F"/>
<path d="M94.6321 51.2168L94.5455 87.3987C94.5514 85.2964 93.1656 83.1909 90.3927 81.5915C84.8771 78.4099 75.9348 78.4102 70.459 81.5893L70.5455 45.4075C76.0213 42.2284 84.9636 42.2284 90.4792 45.4097C93.2522 47.0091 94.6379 49.1146 94.6321 51.2168Z" fill="#7370F1"/>
<path d="M74.166 87.3349L74.2526 51.1531C74.2551 50.227 74.8625 49.3027 76.077 48.5977L75.9904 84.7795C74.776 85.4845 74.1689 86.4088 74.166 87.3349Z" fill="#FC810A"/>
<path d="M58.5742 87.2913L58.6608 51.1095C58.6699 47.8863 60.7851 44.6685 65.011 42.2148L64.9244 78.3967C60.6985 80.8503 58.5833 84.0681 58.5742 87.291V87.2913Z" fill="#FFD33F"/>
<path d="M66.3711 87.3151L66.4577 51.1333C66.4635 49.0588 67.8251 46.9879 70.5459 45.4082L70.4593 81.59C67.7386 83.1697 66.3769 85.2406 66.3711 87.3151Z" fill="#7370F1"/>
<path d="M86.8351 51.195L86.7486 87.3768C86.7511 86.4383 86.1331 85.4979 84.8949 84.7838C82.431 83.3625 78.4345 83.3614 75.9902 84.7805L76.0768 48.5987C78.5207 47.1796 82.5175 47.1806 84.9815 48.602C86.2193 49.3161 86.8377 50.2561 86.8351 51.195Z" fill="#FC810A"/>
<path d="M102.34 87.4219C102.35 84.1563 100.197 80.886 95.8887 78.4006C95.9175 68.2371 95.9464 52.3826 95.9752 42.2188C100.284 44.7041 102.436 47.9748 102.427 51.24C102.401 60.3868 102.366 78.2747 102.34 87.4219Z" fill="#FFD33F"/>
<path d="M86.7482 87.3746C86.746 88.3015 86.1383 89.2273 84.9238 89.9323L85.0104 47.5342C86.2248 46.8292 86.8326 45.9034 86.8348 44.9766C86.8089 54.1234 86.7727 78.2278 86.7482 87.3746Z" fill="#E03F11"/>
<path d="M76.0215 89.9323C74.7833 89.2156 74.1642 88.2748 74.166 87.3359L74.2526 44.9375C74.2504 45.8764 74.8699 46.8175 76.108 47.5338C76.0821 56.6806 76.0474 80.7851 76.0215 89.9323Z" fill="#E03F11"/>
<path d="M94.5449 87.3967C94.5401 89.4723 93.1788 91.5453 90.457 93.1257L90.5436 56.9439C93.2654 55.3635 94.6267 53.2908 94.6314 51.2148C94.6055 60.3617 94.5682 78.2495 94.5449 87.3967Z" fill="#FC810A"/>
<path d="M90.5439 56.9438L90.4573 93.1253L84.9238 89.9334L85.0104 53.752L90.5439 56.9438Z" fill="#F8B801"/>
<path d="M70.5246 93.1234C67.7509 91.5222 66.3644 89.4177 66.3692 87.3166L66.4557 51.1348C66.451 53.2359 67.8371 55.3403 70.6111 56.9416C70.5852 66.0884 70.5505 83.9762 70.5246 93.1234Z" fill="#FC810A"/>
<path d="M90.4789 45.4093C95.9886 48.5873 96.0215 53.7624 90.5439 56.9426L85.0104 53.7508C87.4543 52.3316 87.4415 50.0199 84.9816 48.6012C82.5176 47.1798 78.5211 47.1787 76.0769 48.5979C73.6308 50.0181 73.648 52.3276 76.1079 53.7511L70.6124 56.9419C65.0987 53.7592 65.0676 48.5877 70.5456 45.4075C76.0214 42.2284 84.9637 42.2284 90.4793 45.4097L90.4789 45.4093Z" fill="#FFD100"/>
<path d="M76.1074 53.752L76.0209 89.9338L70.5254 93.1242L70.612 56.9427L76.1074 53.752Z" fill="#F8B801"/>
<path d="M102.425 51.2402L102.339 87.4221C102.33 90.6449 100.215 93.8631 95.9883 96.3167L96.0748 60.1349C100.301 57.6812 102.416 54.4631 102.425 51.2402Z" fill="#7370F1"/>
<path d="M96.0749 60.1338L95.9887 96.3156L90.457 93.1248L90.5436 56.9434L96.0749 60.1338Z" fill="#A7BBEB"/>
<path d="M58.5742 87.2912L58.6608 51.1094C58.6517 54.3749 60.8041 57.646 65.114 60.1332L65.0274 96.315C60.7179 93.8278 58.5651 90.5568 58.5742 87.2912Z" fill="#7370F1"/>
<path d="M95.9736 42.2199C104.535 47.1582 104.582 55.1953 96.0744 60.1347L90.5428 56.944C96.0204 53.7634 95.9875 48.5886 90.4778 45.4106C84.9622 42.229 76.0198 42.2294 70.5441 45.4084C65.0665 48.589 65.0975 53.7605 70.6109 56.9429L65.1132 60.1347C56.55 55.1931 56.5029 47.156 65.0102 42.2166C73.5157 37.2783 87.4079 37.2794 95.9729 42.2199H95.9736Z" fill="#C8D4F1"/>
<path d="M70.6112 56.9414L70.5247 93.1229L65.0273 96.3151L65.1139 60.1333L70.6112 56.9414Z" fill="#A7BBEB"/>
<path d="M110.224 51.2617L110.138 87.4436C110.125 91.8148 107.256 96.1795 101.523 99.5078L101.61 63.326C107.343 59.9976 110.212 55.633 110.224 51.2617Z" fill="#DDE2EF"/>
<path d="M101.608 63.3247L101.522 99.5065L95.9883 96.3146L96.0745 60.1328L101.608 63.3247Z" fill="#D1D8E9"/>
<path d="M65.1155 60.1348L65.0289 96.3166L59.5312 99.5085L59.6178 63.3266L65.1155 60.1348Z" fill="#D1D8E9"/>
<path d="M50.7774 87.2697L50.8639 51.0879C50.8515 55.5168 53.7717 59.953 59.6171 63.3258L59.5305 99.5077C53.6851 96.1348 50.765 91.6986 50.7774 87.2697Z" fill="#DDE2EF"/>
<path d="M101.473 39.0273C113.088 45.727 113.149 56.6261 101.61 63.3258L96.0765 60.134C104.584 55.1946 104.537 47.1574 95.9757 42.2191C87.4107 37.2786 73.5186 37.2775 65.0131 42.2158C56.5054 47.1552 56.5529 55.1924 65.1161 60.134L59.6184 63.3258C48.0036 56.6239 47.9382 45.7248 59.4796 39.024C71.0188 32.3242 89.8546 32.3253 101.473 39.0273H101.473Z" fill="#E9EDF6"/>
<path d="M84.9813 42.3855C87.4412 43.8047 87.4544 46.1164 85.0101 47.5351L80.5443 44.9592L76.1073 47.5351C73.6473 46.1116 73.6302 43.8021 76.0762 42.3819C78.5201 40.9628 82.517 40.9639 84.9809 42.3852L84.9813 42.3855Z" fill="url(#paint0_linear_213_16784)"/>
<path d="M85.0114 47.5349L84.9249 89.9329L80.459 87.357L80.5455 44.959L85.0114 47.5349Z" fill="url(#paint1_linear_213_16784)"/>
<path d="M80.5451 44.959L80.4585 87.357L76.0215 89.9333L76.108 47.5349L80.5451 44.959Z" fill="url(#paint2_linear_213_16784)"/>
<path d="M76.1074 53.7504C74.8692 53.0337 74.2501 52.093 74.252 51.1541V44.9375C74.2498 45.8764 74.8692 46.8175 76.1074 47.5338C76.0815 56.6806 76.1333 44.6036 76.1074 53.7504Z" fill="url(#paint3_linear_213_16784)"/>
<path d="M86.8225 51.1932C86.8203 52.12 86.2125 53.0458 84.998 53.7508L85.0108 47.5342C86.2253 46.8292 86.833 45.9034 86.8352 44.9766C86.8093 54.1234 86.8469 42.046 86.8225 51.1932Z" fill="url(#paint4_linear_213_16784)"/>
</g>
<defs>
<linearGradient id="paint0_linear_213_16784" x1="74.2525" y1="44.4268" x2="86.8349" y2="44.4268" gradientUnits="userSpaceOnUse">
<stop stop-color="#FF7755"/>
<stop offset="1" stop-color="#FF4400"/>
</linearGradient>
<linearGradient id="paint1_linear_213_16784" x1="80.459" y1="67.4461" x2="85.0114" y2="67.4461" gradientUnits="userSpaceOnUse">
<stop stop-color="#FF7755"/>
<stop offset="1" stop-color="#FF4400"/>
</linearGradient>
<linearGradient id="paint2_linear_213_16784" x1="76.0215" y1="67.4461" x2="80.5451" y2="67.4461" gradientUnits="userSpaceOnUse">
<stop stop-color="#FF7755"/>
<stop offset="1" stop-color="#FF4400"/>
</linearGradient>
<linearGradient id="paint3_linear_213_16784" x1="74.2523" y1="49.3438" x2="76.1151" y2="49.3438" gradientUnits="userSpaceOnUse">
<stop stop-color="#FF7755"/>
<stop offset="1" stop-color="#FF4400"/>
</linearGradient>
<linearGradient id="paint4_linear_213_16784" x1="84.998" y1="49.3639" x2="86.8352" y2="49.3639" gradientUnits="userSpaceOnUse">
<stop stop-color="#FF7755"/>
<stop offset="1" stop-color="#FF4400"/>
</linearGradient>
<clipPath id="clip0_213_16784">
<rect width="123" height="93" fill="white" transform="translate(19 34)"/>
</clipPath>
</defs>
</svg>
