<svg width="1280" height="589" viewBox="0 0 1280 589" fill="none" xmlns="http://www.w3.org/2000/svg">
<rect x="0.5" y="78.5" width="136" height="150" rx="7.5" fill="#F5F6F8"/>
<rect x="0.5" y="78.5" width="136" height="150" rx="7.5" stroke="#EAEAEA"/>
<g clip-path="url(#clip0_59_2)">
<path d="M84.7501 146.146H83.4621C83.2953 145.406 83.0002 144.716 82.6053 144.095L83.5177 143.181C84.0792 142.619 84.0792 141.709 83.5177 141.147C82.9561 140.586 82.0457 140.586 81.4841 141.147L80.5717 142.061C79.9488 141.667 79.2607 141.371 78.5209 141.205V139.917C78.5209 139.123 77.8769 138.479 77.0834 138.479C76.2899 138.479 75.6459 139.123 75.6459 139.917V141.205C74.9061 141.371 74.218 141.667 73.5951 142.061L72.6827 141.147C72.1212 140.586 71.2107 140.586 70.6492 141.147C70.0876 141.709 70.0876 142.619 70.6492 143.181L71.5615 144.095C71.1667 144.718 70.8715 145.406 70.7047 146.146H69.4167C68.6232 146.146 67.9792 146.79 67.9792 147.583C67.9792 148.377 68.6232 149.021 69.4167 149.021H70.7047C70.8715 149.761 71.1667 150.451 71.5615 151.072L70.6492 151.986C70.0876 152.548 70.0876 153.458 70.6492 154.02C70.929 154.299 71.297 154.441 71.665 154.441C72.033 154.441 72.401 154.301 72.6808 154.02L73.5932 153.105C74.2161 153.5 74.9042 153.795 75.644 153.962V155.25C75.644 156.043 76.288 156.688 77.0815 156.688C77.875 156.688 78.519 156.043 78.519 155.25V153.962C79.2588 153.795 79.9469 153.5 80.5698 153.105L81.4822 154.02C81.762 154.299 82.13 154.441 82.498 154.441C82.866 154.441 83.234 154.301 83.5138 154.02C84.0754 153.458 84.0754 152.548 83.5138 151.986L82.6015 151.072C82.9963 150.449 83.2915 149.761 83.4582 149.021H84.7462C85.5397 149.021 86.1837 148.377 86.1837 147.583C86.1837 146.79 85.5397 146.146 84.7462 146.146H84.7501ZM79.7092 150.144C79.6977 150.156 79.6824 150.157 79.6709 150.169C79.6594 150.18 79.6556 150.196 79.646 150.207C78.9828 150.853 78.082 151.256 77.0853 151.256C76.0887 151.256 75.1859 150.853 74.5247 150.207C74.5132 150.196 74.5093 150.18 74.4997 150.169C74.4902 150.157 74.4729 150.154 74.4614 150.144C73.8155 149.481 73.413 148.578 73.413 147.583C73.413 146.589 73.8155 145.686 74.4614 145.023C74.4729 145.011 74.4882 145.009 74.4997 144.998C74.5112 144.986 74.5151 144.971 74.5247 144.959C75.1878 144.313 76.0887 143.911 77.0853 143.911C78.082 143.911 78.9847 144.313 79.646 144.959C79.6575 144.971 79.6613 144.986 79.6709 144.998C79.6805 145.009 79.6977 145.013 79.7092 145.023C80.3552 145.686 80.7577 146.587 80.7577 147.583C80.7577 148.58 80.3552 149.483 79.7092 150.144ZM58.3959 128.417C58.3959 123.397 62.4803 119.312 67.5001 119.312C72.5198 119.312 76.6042 123.397 76.6042 128.417C76.6042 133.436 72.5198 137.521 67.5001 137.521C62.4803 137.521 58.3959 133.436 58.3959 128.417ZM68.6117 156.055C68.8609 156.304 69.1292 156.515 69.4359 156.688H56.0001C53.0867 156.688 50.7292 154.33 50.7292 151.417C50.7292 145.341 55.6742 140.396 61.7501 140.396H67.7301C67.2701 141.431 67.2317 142.6 67.6151 143.654C66.1392 144.344 65.1042 145.839 65.1042 147.583C65.1042 149.327 66.1392 150.823 67.6151 151.493C67.4426 151.972 67.3467 152.49 67.3467 153.007C67.3467 154.157 67.8067 155.231 68.6117 156.055Z" fill="url(#paint0_linear_59_2)"/>
<path d="M84.7501 146.146H83.4621C83.2953 145.406 83.0002 144.716 82.6053 144.095L83.5177 143.181C84.0792 142.619 84.0792 141.709 83.5177 141.147C82.9561 140.586 82.0457 140.586 81.4841 141.147L80.5717 142.061C79.9488 141.667 79.2607 141.371 78.5209 141.205V139.917C78.5209 139.123 77.8769 138.479 77.0834 138.479C76.2899 138.479 75.6459 139.123 75.6459 139.917V141.205C74.9061 141.371 74.218 141.667 73.5951 142.061L72.6827 141.147C72.1212 140.586 71.2107 140.586 70.6492 141.147C70.0876 141.709 70.0876 142.619 70.6492 143.181L71.5615 144.095C71.1667 144.718 70.8715 145.406 70.7047 146.146H69.4167C68.6232 146.146 67.9792 146.79 67.9792 147.583C67.9792 148.377 68.6232 149.021 69.4167 149.021H70.7047C70.8715 149.761 71.1667 150.451 71.5615 151.072L70.6492 151.986C70.0876 152.548 70.0876 153.458 70.6492 154.02C70.929 154.299 71.297 154.441 71.665 154.441C72.033 154.441 72.401 154.301 72.6808 154.02L73.5932 153.105C74.2161 153.5 74.9042 153.795 75.644 153.962V155.25C75.644 156.043 76.288 156.688 77.0815 156.688C77.875 156.688 78.519 156.043 78.519 155.25V153.962C79.2588 153.795 79.9469 153.5 80.5698 153.105L81.4822 154.02C81.762 154.299 82.13 154.441 82.498 154.441C82.866 154.441 83.234 154.301 83.5138 154.02C84.0754 153.458 84.0754 152.548 83.5138 151.986L82.6015 151.072C82.9963 150.449 83.2915 149.761 83.4582 149.021H84.7462C85.5397 149.021 86.1837 148.377 86.1837 147.583C86.1837 146.79 85.5397 146.146 84.7462 146.146H84.7501ZM79.7092 150.144C79.6977 150.156 79.6824 150.157 79.6709 150.169C79.6594 150.18 79.6556 150.196 79.646 150.207C78.9828 150.853 78.082 151.256 77.0853 151.256C76.0887 151.256 75.1859 150.853 74.5247 150.207C74.5132 150.196 74.5093 150.18 74.4997 150.169C74.4902 150.157 74.4729 150.154 74.4614 150.144C73.8155 149.481 73.413 148.578 73.413 147.583C73.413 146.589 73.8155 145.686 74.4614 145.023C74.4729 145.011 74.4882 145.009 74.4997 144.998C74.5112 144.986 74.5151 144.971 74.5247 144.959C75.1878 144.313 76.0887 143.911 77.0853 143.911C78.082 143.911 78.9847 144.313 79.646 144.959C79.6575 144.971 79.6613 144.986 79.6709 144.998C79.6805 145.009 79.6977 145.013 79.7092 145.023C80.3552 145.686 80.7577 146.587 80.7577 147.583C80.7577 148.58 80.3552 149.483 79.7092 150.144ZM58.3959 128.417C58.3959 123.397 62.4803 119.312 67.5001 119.312C72.5198 119.312 76.6042 123.397 76.6042 128.417C76.6042 133.436 72.5198 137.521 67.5001 137.521C62.4803 137.521 58.3959 133.436 58.3959 128.417ZM68.6117 156.055C68.8609 156.304 69.1292 156.515 69.4359 156.688H56.0001C53.0867 156.688 50.7292 154.33 50.7292 151.417C50.7292 145.341 55.6742 140.396 61.7501 140.396H67.7301C67.2701 141.431 67.2317 142.6 67.6151 143.654C66.1392 144.344 65.1042 145.839 65.1042 147.583C65.1042 149.327 66.1392 150.823 67.6151 151.493C67.4426 151.972 67.3467 152.49 67.3467 153.007C67.3467 154.157 67.8067 155.231 68.6117 156.055Z" fill="#9AA6B9"/>
</g>
<path d="M28.0176 173.998C28 176.846 29.9512 179.729 32.2539 180.766L31.4102 181.855C29.6348 180.985 28.0967 179.148 27.3496 176.916C26.6201 179.28 25.082 181.249 23.2539 182.172L22.375 181.012C24.6953 179.939 26.6289 176.969 26.6465 173.998V171.15H28.0176V173.998ZM35.3477 169.797V185.459H33.959V169.797H35.3477ZM45.8066 172.1C45.8066 174.771 48.8652 177.162 51.5898 177.672L50.957 178.832C48.6016 178.287 46.1143 176.608 45.1035 174.297C44.0928 176.6 41.6143 178.278 39.25 178.832L38.6172 177.672C41.3242 177.145 44.3652 174.789 44.3652 172.1V170.904H45.8066V172.1ZM52.3281 182.154V183.297H38.0195V182.154H52.3281ZM60.2734 170.816V171.977H55.6328V173.91H59.623V175H55.6328V177.127C57.8916 177.118 59.2979 177.039 60.9766 176.723L61.1172 177.83C59.3066 178.164 57.8301 178.252 55.2988 178.252H54.3145V170.816H60.2734ZM66.8477 169.797V179.219H65.5293V169.797H66.8477ZM63.8066 170.078V179.078H62.4707V174.877H60.3613V173.734H62.4707V170.078H63.8066ZM66.8477 179.939V185.213H56.5293V179.939H66.8477ZM57.8828 181.064V184.088H65.4941V181.064H57.8828ZM77.7988 171.01V171.836C77.7812 172.855 77.7812 174.42 77.3945 176.459L76.0059 176.354C76.3838 174.481 76.4189 173.154 76.4453 172.17H70.0117V171.01H77.7988ZM73.7734 174.473V177.83C75.5049 177.76 77.2979 177.637 78.9238 177.408L79.0117 178.428C75.7422 178.99 71.9629 179.061 69.1855 179.061L69.0449 177.918C70.0557 177.909 71.1982 177.9 72.4023 177.865V174.473H73.7734ZM81.3848 169.797V174.895H83.6699V176.072H81.3848V181.557H79.9785V169.797H81.3848ZM81.8945 183.93V185.09H71.4531V180.502H72.8418V183.93H81.8945ZM97.5918 169.797V185.459H96.2207V169.797H97.5918ZM92.8457 171.256V176.811H87.0098V180.502C89.6025 180.502 91.9141 180.388 94.709 179.939L94.8496 181.1C91.9668 181.557 89.5938 181.662 86.9043 181.662H85.6035V175.686H91.457V172.398H85.5684V171.256H92.8457ZM105.537 174.596C105.52 177.109 107.33 179.869 109.598 180.941L108.807 182.031C107.049 181.179 105.563 179.315 104.869 177.197C104.148 179.5 102.575 181.521 100.826 182.418L99.9824 181.328C102.232 180.238 104.166 177.268 104.184 174.596V172.557H100.545V171.414H109.053V172.557H105.537V174.596ZM112.34 169.797V176.125H114.959V177.303H112.34V185.424H110.969V169.797H112.34Z" fill="#333333"/>
<rect x="0.5" y="241.5" width="136" height="150" rx="7.5" fill="#F5F6F8"/>
<rect x="0.5" y="241.5" width="136" height="150" rx="7.5" stroke="#EAEAEA"/>
<g clip-path="url(#clip1_59_2)">
<path d="M84.7501 309.146H83.4621C83.2953 308.406 83.0002 307.716 82.6053 307.095L83.5177 306.181C84.0793 305.619 84.0793 304.709 83.5177 304.147C82.9561 303.586 82.0457 303.586 81.4841 304.147L80.5717 305.061C79.9488 304.667 79.2607 304.371 78.5209 304.205V302.917C78.5209 302.123 77.8769 301.479 77.0834 301.479C76.2899 301.479 75.6459 302.123 75.6459 302.917V304.205C74.9061 304.371 74.218 304.667 73.5951 305.061L72.6828 304.147C72.1212 303.586 71.2107 303.586 70.6492 304.147C70.0876 304.709 70.0876 305.619 70.6492 306.181L71.5615 307.095C71.1667 307.718 70.8715 308.406 70.7048 309.146H69.4167C68.6232 309.146 67.9792 309.79 67.9792 310.583C67.9792 311.377 68.6232 312.021 69.4167 312.021H70.7048C70.8715 312.761 71.1667 313.451 71.5615 314.072L70.6492 314.986C70.0876 315.548 70.0876 316.458 70.6492 317.02C70.929 317.299 71.297 317.441 71.665 317.441C72.033 317.441 72.401 317.301 72.6808 317.02L73.5932 316.105C74.2161 316.5 74.9042 316.795 75.644 316.962V318.25C75.644 319.044 76.288 319.688 77.0815 319.688C77.875 319.688 78.519 319.044 78.519 318.25V316.962C79.2588 316.795 79.9469 316.5 80.5698 316.105L81.4822 317.02C81.762 317.299 82.13 317.441 82.498 317.441C82.866 317.441 83.234 317.301 83.5138 317.02C84.0754 316.458 84.0754 315.548 83.5138 314.986L82.6015 314.072C82.9963 313.449 83.2915 312.761 83.4582 312.021H84.7462C85.5397 312.021 86.1837 311.377 86.1837 310.583C86.1837 309.79 85.5397 309.146 84.7462 309.146H84.7501ZM79.7093 313.144C79.6978 313.156 79.6824 313.157 79.6709 313.169C79.6594 313.18 79.6556 313.196 79.646 313.207C78.9828 313.853 78.082 314.256 77.0853 314.256C76.0887 314.256 75.1859 313.853 74.5247 313.207C74.5132 313.196 74.5093 313.18 74.4998 313.169C74.4902 313.157 74.4729 313.154 74.4614 313.144C73.8155 312.481 73.413 311.578 73.413 310.583C73.413 309.589 73.8155 308.686 74.4614 308.023C74.4729 308.011 74.4883 308.009 74.4998 307.998C74.5112 307.986 74.5151 307.971 74.5247 307.959C75.1878 307.313 76.0887 306.911 77.0853 306.911C78.082 306.911 78.9848 307.313 79.646 307.959C79.6575 307.971 79.6613 307.986 79.6709 307.998C79.6805 308.009 79.6978 308.013 79.7093 308.023C80.3552 308.686 80.7577 309.587 80.7577 310.583C80.7577 311.58 80.3552 312.483 79.7093 313.144ZM58.3959 291.417C58.3959 286.397 62.4803 282.312 67.5001 282.312C72.5198 282.312 76.6042 286.397 76.6042 291.417C76.6042 296.436 72.5198 300.521 67.5001 300.521C62.4803 300.521 58.3959 296.436 58.3959 291.417ZM68.6117 319.055C68.8609 319.304 69.1292 319.515 69.4359 319.688H56.0001C53.0867 319.688 50.7292 317.33 50.7292 314.417C50.7292 308.341 55.6742 303.396 61.7501 303.396H67.7301C67.2701 304.431 67.2318 305.6 67.6151 306.654C66.1393 307.344 65.1042 308.839 65.1042 310.583C65.1042 312.327 66.1393 313.823 67.6151 314.493C67.4426 314.972 67.3468 315.49 67.3468 316.007C67.3468 317.157 67.8067 318.231 68.6117 319.055Z" fill="url(#paint1_linear_59_2)"/>
<path d="M84.7501 309.146H83.4621C83.2953 308.406 83.0002 307.716 82.6053 307.095L83.5177 306.181C84.0793 305.619 84.0793 304.709 83.5177 304.147C82.9561 303.586 82.0457 303.586 81.4841 304.147L80.5717 305.061C79.9488 304.667 79.2607 304.371 78.5209 304.205V302.917C78.5209 302.123 77.8769 301.479 77.0834 301.479C76.2899 301.479 75.6459 302.123 75.6459 302.917V304.205C74.9061 304.371 74.218 304.667 73.5951 305.061L72.6828 304.147C72.1212 303.586 71.2107 303.586 70.6492 304.147C70.0876 304.709 70.0876 305.619 70.6492 306.181L71.5615 307.095C71.1667 307.718 70.8715 308.406 70.7048 309.146H69.4167C68.6232 309.146 67.9792 309.79 67.9792 310.583C67.9792 311.377 68.6232 312.021 69.4167 312.021H70.7048C70.8715 312.761 71.1667 313.451 71.5615 314.072L70.6492 314.986C70.0876 315.548 70.0876 316.458 70.6492 317.02C70.929 317.299 71.297 317.441 71.665 317.441C72.033 317.441 72.401 317.301 72.6808 317.02L73.5932 316.105C74.2161 316.5 74.9042 316.795 75.644 316.962V318.25C75.644 319.044 76.288 319.688 77.0815 319.688C77.875 319.688 78.519 319.044 78.519 318.25V316.962C79.2588 316.795 79.9469 316.5 80.5698 316.105L81.4822 317.02C81.762 317.299 82.13 317.441 82.498 317.441C82.866 317.441 83.234 317.301 83.5138 317.02C84.0754 316.458 84.0754 315.548 83.5138 314.986L82.6015 314.072C82.9963 313.449 83.2915 312.761 83.4582 312.021H84.7462C85.5397 312.021 86.1837 311.377 86.1837 310.583C86.1837 309.79 85.5397 309.146 84.7462 309.146H84.7501ZM79.7093 313.144C79.6978 313.156 79.6824 313.157 79.6709 313.169C79.6594 313.18 79.6556 313.196 79.646 313.207C78.9828 313.853 78.082 314.256 77.0853 314.256C76.0887 314.256 75.1859 313.853 74.5247 313.207C74.5132 313.196 74.5093 313.18 74.4998 313.169C74.4902 313.157 74.4729 313.154 74.4614 313.144C73.8155 312.481 73.413 311.578 73.413 310.583C73.413 309.589 73.8155 308.686 74.4614 308.023C74.4729 308.011 74.4883 308.009 74.4998 307.998C74.5112 307.986 74.5151 307.971 74.5247 307.959C75.1878 307.313 76.0887 306.911 77.0853 306.911C78.082 306.911 78.9848 307.313 79.646 307.959C79.6575 307.971 79.6613 307.986 79.6709 307.998C79.6805 308.009 79.6978 308.013 79.7093 308.023C80.3552 308.686 80.7577 309.587 80.7577 310.583C80.7577 311.58 80.3552 312.483 79.7093 313.144ZM58.3959 291.417C58.3959 286.397 62.4803 282.312 67.5001 282.312C72.5198 282.312 76.6042 286.397 76.6042 291.417C76.6042 296.436 72.5198 300.521 67.5001 300.521C62.4803 300.521 58.3959 296.436 58.3959 291.417ZM68.6117 319.055C68.8609 319.304 69.1292 319.515 69.4359 319.688H56.0001C53.0867 319.688 50.7292 317.33 50.7292 314.417C50.7292 308.341 55.6742 303.396 61.7501 303.396H67.7301C67.2701 304.431 67.2318 305.6 67.6151 306.654C66.1393 307.344 65.1042 308.839 65.1042 310.583C65.1042 312.327 66.1393 313.823 67.6151 314.493C67.4426 314.972 67.3468 315.49 67.3468 316.007C67.3468 317.157 67.8067 318.231 68.6117 319.055Z" fill="#9AA6B9"/>
</g>
<path d="M28.0176 336.998C28 339.846 29.9512 342.729 32.2539 343.766L31.4102 344.855C29.6348 343.985 28.0967 342.148 27.3496 339.916C26.6201 342.28 25.082 344.249 23.2539 345.172L22.375 344.012C24.6953 342.939 26.6289 339.969 26.6465 336.998V334.15H28.0176V336.998ZM35.3477 332.797V348.459H33.959V332.797H35.3477ZM45.8066 335.1C45.8066 337.771 48.8652 340.162 51.5898 340.672L50.957 341.832C48.6016 341.287 46.1143 339.608 45.1035 337.297C44.0928 339.6 41.6143 341.278 39.25 341.832L38.6172 340.672C41.3242 340.145 44.3652 337.789 44.3652 335.1V333.904H45.8066V335.1ZM52.3281 345.154V346.297H38.0195V345.154H52.3281ZM60.2734 333.816V334.977H55.6328V336.91H59.623V338H55.6328V340.127C57.8916 340.118 59.2979 340.039 60.9766 339.723L61.1172 340.83C59.3066 341.164 57.8301 341.252 55.2988 341.252H54.3145V333.816H60.2734ZM66.8477 332.797V342.219H65.5293V332.797H66.8477ZM63.8066 333.078V342.078H62.4707V337.877H60.3613V336.734H62.4707V333.078H63.8066ZM66.8477 342.939V348.213H56.5293V342.939H66.8477ZM57.8828 344.064V347.088H65.4941V344.064H57.8828ZM83.4238 340.742V341.885H77.0781V345.084H75.6895V341.885H69.1152V340.742H83.4238ZM81.8242 346.912V348.09H70.9609V343.52H72.3496V346.912H81.8242ZM76.252 333.201C79.5918 333.219 81.7539 334.414 81.7539 336.348C81.7539 338.281 79.5918 339.459 76.252 339.459C72.9121 339.459 70.7324 338.281 70.7324 336.348C70.7324 334.414 72.9121 333.219 76.252 333.201ZM76.252 334.326C73.8262 334.326 72.1914 335.1 72.209 336.348C72.1914 337.561 73.8262 338.334 76.252 338.334C78.6777 338.334 80.2949 337.561 80.2949 336.348C80.2949 335.1 78.6777 334.326 76.252 334.326ZM88.9961 333.746C90.3145 333.737 91.4395 334.229 92.1602 335.064H96.2559V332.797H97.6445V342.061H96.2559V339.828H92.1777C91.4395 340.663 90.3145 341.155 88.9961 341.146C86.6582 341.164 84.9355 339.635 84.9355 337.455C84.9355 335.258 86.6582 333.729 88.9961 333.746ZM88.9961 334.941C87.3965 334.924 86.2539 335.979 86.2539 337.455C86.2539 338.914 87.3965 339.969 88.9961 339.969C90.543 339.969 91.7031 338.914 91.7031 337.455C91.7031 335.979 90.543 334.924 88.9961 334.941ZM92.459 342.43C95.6934 342.43 97.6973 343.52 97.6973 345.4C97.6973 347.299 95.6934 348.389 92.459 348.389C89.207 348.389 87.2207 347.299 87.2207 345.4C87.2207 343.52 89.207 342.43 92.459 342.43ZM92.459 343.502C90.0684 343.502 88.5742 344.223 88.5742 345.4C88.5742 346.578 90.0684 347.281 92.459 347.281C94.8672 347.281 96.3438 346.578 96.3438 345.4C96.3438 344.223 94.8672 343.502 92.459 343.502ZM92.8281 336.189C92.96 336.576 93.0391 336.998 93.0391 337.455C93.0391 337.895 92.96 338.308 92.8281 338.686H96.2559V336.189H92.8281ZM105.537 337.596C105.52 340.109 107.33 342.869 109.598 343.941L108.807 345.031C107.049 344.179 105.563 342.315 104.869 340.197C104.148 342.5 102.575 344.521 100.826 345.418L99.9824 344.328C102.232 343.238 104.166 340.268 104.184 337.596V335.557H100.545V334.414H109.053V335.557H105.537V337.596ZM112.34 332.797V339.125H114.959V340.303H112.34V348.424H110.969V332.797H112.34Z" fill="#333333"/>
<rect width="137" height="56" rx="10" fill="#000B6C"/>
<path d="M59.1992 27.8125V29.5508H52.3828V32.793H50.1758V29.5508H43.0664V27.8125H59.1992ZM57.4219 34.6094V36.3867H45.0391V31.1523H47.2266V34.6094H57.4219ZM51.1133 19.4727C54.9219 19.4727 57.4414 20.8594 57.4414 23.0859C57.4414 25.3125 54.9219 26.6797 51.1133 26.6797C47.3047 26.6797 44.7852 25.3125 44.7852 23.0859C44.7852 20.8594 47.3047 19.4727 51.1133 19.4727ZM51.1133 21.1914C48.6914 21.1914 47.1094 21.875 47.1289 23.0859C47.1094 24.2578 48.6914 24.9414 51.1133 24.9414C53.5547 24.9414 55.1172 24.2578 55.1172 23.0859C55.1172 21.875 53.5547 21.1914 51.1133 21.1914ZM65.2734 20.0781C66.6992 20.0781 67.9297 20.6055 68.7695 21.4844H72.9883V19.082H75.1562V29.4727H72.9883V27.2266H68.7695C67.9297 28.1055 66.6895 28.623 65.2734 28.6133C62.6172 28.6328 60.6055 26.8359 60.6055 24.3555C60.6055 21.8555 62.6172 20.0781 65.2734 20.0781ZM65.2734 21.9336C63.75 21.9336 62.6758 22.8711 62.6758 24.3555C62.6758 25.8008 63.75 26.7773 65.2734 26.7773C66.7383 26.7773 67.8125 25.8008 67.832 24.3555C67.8125 22.8711 66.7383 21.9336 65.2734 21.9336ZM69.1797 29.8438C72.8906 29.8438 75.2148 31.1133 75.2148 33.2812C75.2148 35.4492 72.8906 36.7188 69.1797 36.7188C65.4883 36.7188 63.1641 35.4492 63.1836 33.2812C63.1641 31.1133 65.4883 29.8438 69.1797 29.8438ZM69.1797 31.5039C66.7188 31.5039 65.293 32.1289 65.3125 33.2812C65.293 34.3945 66.7188 35.0195 69.1797 35.0195C71.6797 35.0195 73.0859 34.3945 73.0859 33.2812C73.0859 32.1289 71.6797 31.5039 69.1797 31.5039ZM69.7461 23.2227C69.8438 23.584 69.9023 23.9551 69.9023 24.3555C69.9023 24.7461 69.8438 25.1172 69.7656 25.4688H72.9883V23.2227H69.7461ZM83.9844 24.1016C83.9844 26.8359 85.6055 29.9414 88.3984 31.2305L87.1875 32.9492C85.1953 32.0117 83.7207 30.1172 82.9297 27.9102C82.1289 30.332 80.5859 32.4023 78.5547 33.3789L77.2852 31.6797C80.0977 30.3516 81.7969 27.0312 81.8164 24.1016V22.6172H77.9688V20.8203H87.6758V22.6172H83.9844V24.1016ZM91.4844 19.082V25.957H94.1992V27.7734H91.4844V36.7383H89.3164V19.082H91.4844Z" fill="white"/>
<rect x="275.5" y="78.5" width="269" height="52" rx="7.5" fill="#E0E8FF"/>
<rect x="275.5" y="78.5" width="269" height="52" rx="7.5" stroke="#CFDAFC"/>
<path d="M376.979 100.998C376.979 103.758 378.808 106.588 381.022 107.678L380.179 108.785C378.456 107.88 377.015 106.034 376.329 103.863C375.626 106.175 374.149 108.144 372.392 109.084L371.513 107.977C373.798 106.852 375.608 103.846 375.626 100.998V98.1504H376.979V100.998ZM383.835 96.7969V103.143H386.454V104.338H383.835V112.424H382.464V96.7969H383.835ZM401.536 104.531V105.674H387.298V104.531H390.831V102.334C389.583 101.851 388.88 101.051 388.88 99.9961C388.88 98.1504 390.989 97.0957 394.417 97.0957C397.81 97.0957 399.937 98.1504 399.937 99.9961C399.937 101.042 399.242 101.842 398.003 102.316V104.531H401.536ZM394.417 106.869C397.774 106.869 399.778 107.836 399.796 109.629C399.778 111.404 397.774 112.389 394.417 112.389C391.024 112.389 389.021 111.404 389.021 109.629C389.021 107.836 391.024 106.869 394.417 106.869ZM394.417 107.924C391.903 107.941 390.409 108.557 390.427 109.629C390.409 110.684 391.903 111.316 394.417 111.316C396.896 111.316 398.407 110.684 398.407 109.629C398.407 108.557 396.896 107.941 394.417 107.924ZM394.417 98.1855C391.868 98.1855 390.286 98.8711 390.304 99.9961C390.286 101.139 391.868 101.807 394.417 101.807C396.948 101.807 398.53 101.139 398.53 99.9961C398.53 98.8711 396.948 98.1855 394.417 98.1855ZM392.202 104.531H396.632V102.703C395.973 102.817 395.234 102.879 394.417 102.879C393.6 102.879 392.861 102.817 392.202 102.703V104.531ZM408.146 101.596C408.128 104.109 409.938 106.869 412.206 107.941L411.415 109.031C409.657 108.179 408.172 106.315 407.478 104.197C406.757 106.5 405.184 108.521 403.435 109.418L402.591 108.328C404.841 107.238 406.774 104.268 406.792 101.596V99.5566H403.153V98.4141H411.661V99.5566H408.146V101.596ZM414.948 96.7969V103.125H417.567V104.303H414.948V112.424H413.577V96.7969H414.948ZM427.077 98.0098V98.8359C427.06 99.8555 427.06 101.42 426.673 103.459L425.284 103.354C425.662 101.481 425.697 100.154 425.724 99.1699H419.29V98.0098H427.077ZM423.052 101.473V104.83C424.783 104.76 426.576 104.637 428.202 104.408L428.29 105.428C425.021 105.99 421.241 106.061 418.464 106.061L418.323 104.918C419.334 104.909 420.477 104.9 421.681 104.865V101.473H423.052ZM430.663 96.7969V101.895H432.948V103.072H430.663V108.557H429.257V96.7969H430.663ZM431.173 110.93V112.09H420.731V107.502H422.12V110.93H431.173ZM446.87 96.7969V112.459H445.499V96.7969H446.87ZM442.124 98.2559V103.811H436.288V107.502C438.881 107.502 441.192 107.388 443.987 106.939L444.128 108.1C441.245 108.557 438.872 108.662 436.183 108.662H434.882V102.686H440.735V99.3984H434.847V98.2559H442.124Z" fill="#333333"/>
<rect x="275.5" y="208.5" width="269" height="52" rx="7.5" fill="#E0E8FF"/>
<rect x="275.5" y="208.5" width="269" height="52" rx="7.5" stroke="#CFDAFC"/>
<path d="M392.457 226.797V235.287H391.086V231.754H387.922V230.594H391.086V226.797H392.457ZM383.791 236.043V237.994H391.086V236.043H392.457V242.213H382.402V236.043H383.791ZM383.791 241.088H391.086V239.102H383.791V241.088ZM384.951 229.346C384.951 231.35 386.516 233.318 388.801 234.109L388.08 235.182C386.313 234.54 384.951 233.23 384.283 231.613C383.606 233.424 382.165 234.874 380.311 235.551L379.59 234.461C381.893 233.635 383.562 231.561 383.562 229.346V228.889H380.029V227.746H388.449V228.889H384.951V229.346ZM409.367 234.654V235.797H395.076V234.654H401.51V232.246H402.863V234.654H409.367ZM402.881 227.781C402.881 229.855 405.693 231.596 408.453 231.982L407.891 233.09C405.518 232.677 403.171 231.42 402.195 229.609C401.211 231.429 398.855 232.677 396.465 233.09L395.938 231.982C398.697 231.596 401.492 229.855 401.492 227.781V227.043H402.881V227.781ZM407.557 237.326V242.424H406.168V238.434H396.658V237.326H407.557ZM424.941 239.33V240.49H410.633V239.33H417.066V236.377H412.426V231.561H421.777V229.1H412.391V227.957H423.131V232.686H413.797V235.234H423.5V236.377H418.42V239.33H424.941ZM438.512 228.467V230.031C438.512 232 438.512 234.232 437.932 237.625L436.525 237.484C437.158 234.285 437.158 231.947 437.158 230.031V229.609H427.736V228.467H438.512ZM440.428 238.979V240.121H426.189V238.979H440.428Z" fill="#333333"/>
<rect x="275.5" y="338.5" width="269" height="52" rx="7.5" fill="#E0E8FF"/>
<rect x="275.5" y="338.5" width="269" height="52" rx="7.5" stroke="#CFDAFC"/>
<path d="M398.521 371H396.869L401.527 358.273H403.197L407.855 371H406.186L404.92 367.414H399.805L398.521 371ZM400.279 366.025H404.428L402.406 360.33H402.301L400.279 366.025ZM409.578 371V358.273H413.902C416.891 358.273 418.244 360.049 418.244 362.316C418.244 364.566 416.891 366.377 413.92 366.377H411.16V371H409.578ZM411.16 364.971H413.85C415.871 364.971 416.68 363.828 416.68 362.316C416.68 360.787 415.871 359.68 413.832 359.68H411.16V364.971ZM422.041 358.273V371H420.459V358.273H422.041Z" fill="#333333"/>
<path d="M335.42 434V419.859H340.732C343.975 419.859 345.713 421.676 345.713 424.371C345.713 426.295 344.834 427.721 343.174 428.395L346.221 434H343.389L340.615 428.824H337.959V434H335.42ZM337.959 426.695H340.342C342.256 426.695 343.115 425.875 343.115 424.371C343.115 422.867 342.256 421.988 340.342 421.988H337.959V426.695ZM355.596 423.746C355.479 422.535 354.443 421.832 352.92 421.832C351.318 421.832 350.342 422.613 350.342 423.668C350.342 424.859 351.592 425.348 352.764 425.621L354.092 425.973C356.201 426.461 358.232 427.574 358.232 430.035C358.232 432.516 356.279 434.215 352.881 434.215C349.58 434.215 347.51 432.633 347.393 429.84H349.893C350.01 431.324 351.26 432.047 352.861 432.047C354.541 432.047 355.693 431.227 355.693 430.016C355.693 428.902 354.658 428.434 353.135 428.043L351.533 427.633C349.209 427.027 347.764 425.855 347.764 423.824C347.764 421.324 349.99 419.664 352.959 419.664C355.967 419.664 357.998 421.363 358.037 423.746H355.596ZM361.924 434H359.209L364.189 419.859H367.314L372.314 434H369.6L368.428 430.504H363.096L361.924 434ZM363.779 428.453H367.744L365.811 422.75H365.693L363.779 428.453ZM381.455 428.98C385.107 428.98 387.354 430.211 387.373 432.34C387.354 434.488 385.107 435.738 381.455 435.738C377.764 435.738 375.479 434.488 375.479 432.34C375.479 430.211 377.764 428.98 381.455 428.98ZM381.455 430.68C379.033 430.68 377.646 431.246 377.646 432.34C377.646 433.434 379.033 434.02 381.455 434.02C383.877 434.02 385.225 433.434 385.225 432.34C385.225 431.246 383.877 430.68 381.455 430.68ZM387.197 418.082V422.301H389.658V424.117H387.197V428.551H385.029V418.082H387.197ZM376.025 419.195V421.578H380.146V419.195H382.295V427.438H373.877V419.195H376.025ZM376.025 425.719H380.146V423.277H376.025V425.719ZM397.139 420.602C397.139 422.926 398.584 425.113 401.396 425.992L400.322 427.711C398.281 427.027 396.826 425.689 396.045 423.961C395.234 425.816 393.76 427.291 391.67 428.004L390.576 426.305C393.428 425.328 394.893 423.004 394.893 420.602V418.922H397.139V420.602ZM405.264 429.449V435.738H403.076V431.188H393.213V429.449H405.264ZM405.264 418.082V428.648H403.076V418.082H405.264ZM413.564 419.312C416.357 419.293 418.408 421.07 418.428 423.57C418.408 426.09 416.357 427.848 413.564 427.848C410.791 427.848 408.721 426.09 408.721 423.57C408.721 421.07 410.791 419.293 413.564 419.312ZM413.564 421.188C412.021 421.188 410.869 422.105 410.869 423.57C410.869 425.055 412.021 425.953 413.564 425.953C415.127 425.953 416.299 425.055 416.299 423.57C416.299 422.105 415.127 421.188 413.564 421.188ZM422.549 418.082V435.758H420.381V418.082H422.549ZM407.92 430.289C411.104 430.289 415.518 430.25 419.326 429.703L419.502 431.285C415.537 432.047 411.299 432.066 408.193 432.066L407.92 430.289ZM439.443 419.82C439.424 425.152 437.822 429.801 431.26 433.004L430.107 431.324C433.145 429.84 435.039 428.072 436.123 425.953L430.498 426.461L430.225 424.605L436.807 424.195C437.051 423.375 437.197 422.496 437.275 421.578H431.123V419.82H439.443ZM444.619 418.082V435.738H442.432V418.082H444.619ZM461.631 419.703V421.5C461.631 423.688 461.631 426.07 460.986 429.527L458.857 429.312C459.463 426.051 459.463 423.629 459.463 421.5V421.441H448.779V419.703H461.631ZM463.252 431.676V433.453H447.158V431.676H450.771V426.051H452.939V431.676H455.186V426.051H457.314V431.676H463.252ZM478.428 418.082V424H480.811V425.797H478.428V431.871H476.26V418.082H478.428ZM479.053 433.629V435.387H466.826V430.953H468.994V433.629H479.053ZM464.287 428.336C465.605 428.336 467.139 428.326 468.74 428.258V427.145C466.777 426.91 465.537 425.943 465.537 424.527C465.537 422.789 467.236 421.773 469.795 421.793C472.373 421.773 474.053 422.789 474.053 424.527C474.053 425.934 472.842 426.891 470.908 427.145V428.16C472.412 428.082 473.926 427.945 475.342 427.73L475.518 429.254C471.787 429.957 467.568 429.996 464.521 430.035L464.287 428.336ZM474.873 419.625V421.207H464.736V419.625H468.74V418.023H470.908V419.625H474.873ZM469.795 423.258C468.428 423.258 467.607 423.707 467.627 424.527C467.607 425.289 468.428 425.738 469.795 425.738C471.162 425.738 471.982 425.289 471.982 424.527C471.982 423.707 471.162 423.258 469.795 423.258ZM370.283 446.082V449.637H372.744V451.434H370.283V454.949H368.115V446.082H370.283ZM370.283 455.711V460.34H360.908V461.805H370.83V463.523H358.76V458.758H368.115V457.391H358.74V455.711H370.283ZM361.24 446.668C363.936 446.668 365.908 448.289 365.928 450.633C365.908 452.938 363.936 454.578 361.24 454.578C358.545 454.578 356.533 452.938 356.553 450.633C356.533 448.289 358.545 446.668 361.24 446.668ZM361.24 448.426C359.756 448.426 358.662 449.285 358.682 450.633C358.662 451.961 359.756 452.859 361.24 452.859C362.725 452.859 363.818 451.961 363.818 450.633C363.818 449.285 362.725 448.426 361.24 448.426ZM388.057 447.703V449.402C388.037 451.59 388.037 454.051 387.354 457.742L385.166 457.508C385.85 454.07 385.85 451.561 385.869 449.441H375.322V447.703H388.057ZM389.736 459.676V461.453H373.643V459.676H379.58V453.543H381.729V459.676H389.736ZM405.635 446.082V463.758H403.486V446.082H405.635ZM400.205 447.625V454.246H394.131V457.801C396.914 457.781 399.316 457.645 402.061 457.176L402.256 458.953C399.248 459.48 396.611 459.578 393.447 459.578H391.904V452.527H397.998V449.383H391.885V447.625H400.205ZM422.861 446.824V448.543H417.764C418.047 450.027 420.176 451.385 423.545 451.688L422.783 453.387C419.59 453.074 417.207 451.805 416.24 450.008C415.293 451.814 412.939 453.074 409.736 453.387L408.994 451.688C412.295 451.385 414.434 450.037 414.736 448.543H409.678V446.824H422.861ZM422.354 457.43V463.523H410.107V457.43H422.354ZM412.256 459.148V461.766H420.244V459.148H412.256ZM424.307 454.207V455.906H408.213V454.207H424.307ZM436.729 449.109C436.729 451.258 438.154 453.426 440.889 454.344L439.795 456.023C437.822 455.379 436.426 454.041 435.654 452.391C434.883 454.236 433.408 455.721 431.318 456.414L430.205 454.695C433.018 453.777 434.521 451.434 434.521 449.129V448.895H430.85V447.156H440.381V448.895H436.729V449.109ZM445.029 457.449V463.738H442.861V459.188H432.998V457.449H445.029ZM445.029 446.082V456.609H442.861V452.234H439.854V450.457H442.861V446.082H445.029ZM463.623 454.578V456.316H447.529V454.578H451.279V452.332C449.951 451.775 449.189 450.887 449.189 449.734C449.189 447.625 451.67 446.375 455.557 446.375C459.443 446.375 461.904 447.625 461.924 449.734C461.914 450.896 461.152 451.785 459.814 452.332V454.578H463.623ZM455.557 457.391C459.365 457.371 461.65 458.504 461.67 460.535C461.65 462.586 459.365 463.699 455.557 463.699C451.709 463.699 449.404 462.586 449.404 460.535C449.404 458.504 451.709 457.371 455.557 457.391ZM455.557 459.031C452.979 459.031 451.592 459.539 451.611 460.535C451.592 461.531 452.979 462.059 455.557 462.059C458.076 462.059 459.482 461.531 459.502 460.535C459.482 459.539 458.076 459.031 455.557 459.031ZM455.557 448.055C452.939 448.055 451.436 448.641 451.455 449.734C451.436 450.809 452.939 451.375 455.557 451.375C458.154 451.375 459.678 450.809 459.678 449.734C459.678 448.641 458.154 448.055 455.557 448.055ZM453.467 454.578H457.646V452.898C457.012 452.986 456.309 453.035 455.557 453.035C454.805 453.035 454.102 452.986 453.467 452.898V454.578Z" fill="#131314"/>
<rect x="275.5" y="143.5" width="269" height="52" rx="7.5" fill="#E0E8FF"/>
<rect x="275.5" y="143.5" width="269" height="52" rx="7.5" stroke="#CFDAFC"/>
<path d="M392.457 161.797V170.287H391.086V166.754H387.922V165.594H391.086V161.797H392.457ZM383.791 171.043V172.994H391.086V171.043H392.457V177.213H382.402V171.043H383.791ZM383.791 176.088H391.086V174.102H383.791V176.088ZM384.951 164.346C384.951 166.35 386.516 168.318 388.801 169.109L388.08 170.182C386.313 169.54 384.951 168.23 384.283 166.613C383.606 168.424 382.165 169.874 380.311 170.551L379.59 169.461C381.893 168.635 383.562 166.561 383.562 164.346V163.889H380.029V162.746H388.449V163.889H384.951V164.346ZM407.504 162.746V163.959C407.504 165.269 407.504 166.859 407.1 168.986H409.385V170.146H395.076V168.986H405.711C406.133 166.824 406.133 165.295 406.133 163.959V163.871H396.887V162.746H407.504ZM407.979 175.912V177.072H396.975V171.904H398.346V175.912H407.979ZM423.992 161.797V177.424H422.674V161.797H423.992ZM420.828 162.184V176.615H419.527V168.564H416.891V167.439H419.527V162.184H420.828ZM415.221 166.262C415.221 168.969 416.434 171.658 418.596 172.906L417.752 173.926C416.214 173.003 415.124 171.315 414.588 169.32C414.017 171.474 412.883 173.311 411.318 174.295L410.439 173.258C412.619 171.957 413.885 169.109 413.885 166.262V164.785H410.879V163.643H418.086V164.785H415.221V166.262ZM430.391 163.01C432.518 163.027 434.047 164.847 434.275 167.773H437.773V161.797H439.145V177.459H437.773V168.916H434.293C434.126 171.975 432.57 173.891 430.391 173.891C428.088 173.891 426.471 171.781 426.471 168.459C426.471 165.137 428.088 163.027 430.391 163.01ZM430.391 164.24C428.844 164.258 427.789 165.91 427.789 168.459C427.789 171.008 428.844 172.66 430.391 172.66C431.92 172.66 432.992 171.008 432.992 168.459C432.992 165.91 431.92 164.258 430.391 164.24Z" fill="#333333"/>
<rect x="275.5" y="273.5" width="269" height="52" rx="7.5" fill="#E0E8FF"/>
<rect x="275.5" y="273.5" width="269" height="52" rx="7.5" stroke="#CFDAFC"/>
<path d="M395.683 293.432C395.665 297.949 394.03 302.115 388.388 304.875L387.614 303.768C390.541 302.361 392.352 300.56 393.345 298.441L387.913 298.969L387.685 297.738L393.784 297.334C394.065 296.464 394.232 295.541 394.294 294.574H388.476V293.432H395.683ZM400.218 291.797V307.424H398.829V291.797H400.218ZM411.521 293.01V293.836C411.503 294.855 411.503 296.42 411.116 298.459L409.728 298.354C410.105 296.481 410.141 295.154 410.167 294.17H403.733V293.01H411.521ZM407.495 296.473V299.83C409.227 299.76 411.02 299.637 412.646 299.408L412.733 300.428C409.464 300.99 405.685 301.061 402.907 301.061L402.767 299.918C403.777 299.909 404.92 299.9 406.124 299.865V296.473H407.495ZM415.106 291.797V296.895H417.392V298.072H415.106V303.557H413.7V291.797H415.106ZM415.616 305.93V307.09H405.175V302.502H406.563V305.93H415.616ZM431.313 291.797V307.459H429.942V291.797H431.313ZM426.567 293.256V298.811H420.731V302.502C423.324 302.502 425.636 302.388 428.431 301.939L428.571 303.1C425.688 303.557 423.315 303.662 420.626 303.662H419.325V297.686H425.179V294.398H419.29V293.256H426.567Z" fill="#333333"/>
<rect x="275" width="270" height="56" rx="10" fill="#000B6C"/>
<path d="M389.809 35V20.8594H392.348V27.3633H392.543L398.07 20.8594H401.176L395.707 27.207L401.234 35H398.168L393.93 28.9258L392.348 30.7812V35H389.809ZM402.797 20.8594H405.922L410.121 31.1328H410.297L414.496 20.8594H417.621V35H415.18V25.2734H415.043L411.117 34.9609H409.301L405.375 25.2344H405.258V35H402.797V20.8594ZM427.934 24.7461C427.816 23.5352 426.781 22.832 425.258 22.832C423.656 22.832 422.68 23.6133 422.68 24.668C422.68 25.8594 423.93 26.3477 425.102 26.6211L426.43 26.9727C428.539 27.4609 430.57 28.5742 430.57 31.0352C430.57 33.5156 428.617 35.2148 425.219 35.2148C421.918 35.2148 419.848 33.6328 419.73 30.8398H422.23C422.348 32.3242 423.598 33.0469 425.199 33.0469C426.879 33.0469 428.031 32.2266 428.031 31.0156C428.031 29.9023 426.996 29.4336 425.473 29.043L423.871 28.6328C421.547 28.0273 420.102 26.8555 420.102 24.8242C420.102 22.3242 422.328 20.6641 425.297 20.6641C428.305 20.6641 430.336 22.3633 430.375 24.7461H427.934Z" fill="white"/>
<rect x="683.5" y="78.5" width="269" height="52" rx="7.5" fill="#E0E8FF"/>
<rect x="683.5" y="78.5" width="269" height="52" rx="7.5" stroke="#CFDAFC"/>
<path d="M784.979 100.998C784.979 103.758 786.808 106.588 789.022 107.678L788.179 108.785C786.456 107.88 785.015 106.034 784.329 103.863C783.626 106.175 782.149 108.144 780.392 109.084L779.513 107.977C781.798 106.852 783.608 103.846 783.626 100.998V98.1504H784.979V100.998ZM791.835 96.7969V103.143H794.454V104.338H791.835V112.424H790.464V96.7969H791.835ZM809.536 104.531V105.674H795.298V104.531H798.831V102.334C797.583 101.851 796.88 101.051 796.88 99.9961C796.88 98.1504 798.989 97.0957 802.417 97.0957C805.81 97.0957 807.937 98.1504 807.937 99.9961C807.937 101.042 807.242 101.842 806.003 102.316V104.531H809.536ZM802.417 106.869C805.774 106.869 807.778 107.836 807.796 109.629C807.778 111.404 805.774 112.389 802.417 112.389C799.024 112.389 797.021 111.404 797.021 109.629C797.021 107.836 799.024 106.869 802.417 106.869ZM802.417 107.924C799.903 107.941 798.409 108.557 798.427 109.629C798.409 110.684 799.903 111.316 802.417 111.316C804.896 111.316 806.407 110.684 806.407 109.629C806.407 108.557 804.896 107.941 802.417 107.924ZM802.417 98.1855C799.868 98.1855 798.286 98.8711 798.304 99.9961C798.286 101.139 799.868 101.807 802.417 101.807C804.948 101.807 806.53 101.139 806.53 99.9961C806.53 98.8711 804.948 98.1855 802.417 98.1855ZM800.202 104.531H804.632V102.703C803.973 102.817 803.234 102.879 802.417 102.879C801.6 102.879 800.861 102.817 800.202 102.703V104.531ZM816.146 101.596C816.128 104.109 817.938 106.869 820.206 107.941L819.415 109.031C817.657 108.179 816.172 106.315 815.478 104.197C814.757 106.5 813.184 108.521 811.435 109.418L810.591 108.328C812.841 107.238 814.774 104.268 814.792 101.596V99.5566H811.153V98.4141H819.661V99.5566H816.146V101.596ZM822.948 96.7969V103.125H825.567V104.303H822.948V112.424H821.577V96.7969H822.948ZM835.077 98.0098V98.8359C835.06 99.8555 835.06 101.42 834.673 103.459L833.284 103.354C833.662 101.481 833.697 100.154 833.724 99.1699H827.29V98.0098H835.077ZM831.052 101.473V104.83C832.783 104.76 834.576 104.637 836.202 104.408L836.29 105.428C833.021 105.99 829.241 106.061 826.464 106.061L826.323 104.918C827.334 104.909 828.477 104.9 829.681 104.865V101.473H831.052ZM838.663 96.7969V101.895H840.948V103.072H838.663V108.557H837.257V96.7969H838.663ZM839.173 110.93V112.09H828.731V107.502H830.12V110.93H839.173ZM854.87 96.7969V112.459H853.499V96.7969H854.87ZM850.124 98.2559V103.811H844.288V107.502C846.881 107.502 849.192 107.388 851.987 106.939L852.128 108.1C849.245 108.557 846.872 108.662 844.183 108.662H842.882V102.686H848.735V99.3984H842.847V98.2559H850.124Z" fill="#333333"/>
<rect x="683.5" y="208.5" width="269" height="52" rx="7.5" fill="#E0E8FF"/>
<rect x="683.5" y="208.5" width="269" height="52" rx="7.5" stroke="#CFDAFC"/>
<path d="M785.234 226.797V237.379H783.916V226.797H785.234ZM782.246 227.148V235.885H780.945V232.193H779.258C779.003 234.065 777.57 235.34 775.707 235.34C773.615 235.34 772.121 233.793 772.139 231.596C772.121 229.398 773.615 227.887 775.707 227.887C777.588 227.887 779.029 229.152 779.258 231.051H780.945V227.148H782.246ZM780.699 237.115C780.699 239.172 783.336 240.859 786.043 241.281L785.551 242.354C783.178 241.958 780.963 240.754 780.014 238.996C779.064 240.754 776.841 241.958 774.494 242.354L773.984 241.281C776.709 240.859 779.311 239.172 779.328 237.115V236.57H780.699V237.115ZM775.707 229.047C774.371 229.047 773.369 230.119 773.387 231.596C773.369 233.09 774.371 234.162 775.707 234.162C777.043 234.162 778.027 233.09 778.045 231.596C778.027 230.119 777.043 229.047 775.707 229.047ZM793.109 231.596C793.109 234.25 795.043 236.939 797.346 237.941L796.572 239.031C794.744 238.196 793.162 236.395 792.441 234.232C791.703 236.526 790.13 238.521 788.346 239.418L787.52 238.328C789.752 237.256 791.703 234.303 791.721 231.596V229.557H788.029V228.414H796.836V229.557H793.109V231.596ZM800.404 226.797V242.424H799.016V226.797H800.404ZM815.961 226.797V242.459H814.572V226.797H815.961ZM807.646 228.01C809.967 228.027 811.637 230.137 811.637 233.459C811.637 236.781 809.967 238.891 807.646 238.891C805.309 238.891 803.656 236.781 803.656 233.459C803.656 230.137 805.309 228.027 807.646 228.01ZM807.646 229.24C806.082 229.258 804.992 230.91 804.992 233.459C804.992 236.008 806.082 237.66 807.646 237.66C809.211 237.66 810.301 236.008 810.301 233.459C810.301 230.91 809.211 229.258 807.646 229.24ZM826.051 227.764V232.141H820.672V234.566C823.607 234.566 825.119 234.522 826.965 234.18L827.105 235.322C825.154 235.639 823.572 235.691 820.408 235.691H819.301V231.086H824.68V228.871H819.266V227.764H826.051ZM831.588 226.814V236.412H830.199V233.512H827.088V232.369H830.199V230.26H827.088V229.135H830.199V226.814H831.588ZM831.588 237.256V242.459H830.199V238.381H821.059V237.256H831.588ZM842.855 228.01V228.836C842.838 229.855 842.838 231.42 842.451 233.459L841.062 233.354C841.44 231.481 841.476 230.154 841.502 229.17H835.068V228.01H842.855ZM838.83 231.473V234.83C840.562 234.76 842.354 234.637 843.98 234.408L844.068 235.428C840.799 235.99 837.02 236.061 834.242 236.061L834.102 234.918C835.112 234.909 836.255 234.9 837.459 234.865V231.473H838.83ZM846.441 226.797V231.895H848.727V233.072H846.441V238.557H845.035V226.797H846.441ZM846.951 240.93V242.09H836.51V237.502H837.898V240.93H846.951ZM862.648 226.797V242.459H861.277V226.797H862.648ZM857.902 228.256V233.811H852.066V237.502C854.659 237.502 856.971 237.388 859.766 236.939L859.906 238.1C857.023 238.557 854.65 238.662 851.961 238.662H850.66V232.686H856.514V229.398H850.625V228.256H857.902Z" fill="#333333"/>
<rect x="683.5" y="338.5" width="269" height="52" rx="7.5" fill="#E0E8FF"/>
<rect x="683.5" y="338.5" width="269" height="52" rx="7.5" stroke="#CFDAFC"/>
<path d="M801.828 369.26V370.42H787.52V369.26H793.953V365.445H789.207V358.115H800.053V365.445H795.307V369.26H801.828ZM790.561 359.223V364.338H798.717V359.223H790.561ZM816.383 356.814V365.129H815.064V356.814H816.383ZM813.377 357.131V364.988H812.059V361.35H808.824V360.26H812.059V357.131H813.377ZM809.809 357.729V358.836H805.221V363.213C807.348 363.204 808.807 363.143 810.582 362.791L810.67 363.934C808.789 364.268 807.242 364.338 804.834 364.338H803.85V357.729H809.809ZM816.383 365.814V369.453H807.383V371.105H816.98V372.213H806.012V368.381H815.047V366.922H805.977V365.814H816.383ZM827.299 358.01V358.836C827.281 359.855 827.281 361.42 826.895 363.459L825.506 363.354C825.884 361.481 825.919 360.154 825.945 359.17H819.512V358.01H827.299ZM823.273 361.473V364.83C825.005 364.76 826.798 364.637 828.424 364.408L828.512 365.428C825.242 365.99 821.463 366.061 818.686 366.061L818.545 364.918C819.556 364.909 820.698 364.9 821.902 364.865V361.473H823.273ZM830.885 356.797V361.895H833.17V363.072H830.885V368.557H829.479V356.797H830.885ZM831.395 370.93V372.09H820.953V367.502H822.342V370.93H831.395ZM847.092 356.797V372.459H845.721V356.797H847.092ZM842.346 358.256V363.811H836.51V367.502C839.103 367.502 841.414 367.388 844.209 366.939L844.35 368.1C841.467 368.557 839.094 368.662 836.404 368.662H835.104V362.686H840.957V359.398H835.068V358.256H842.346Z" fill="#333333"/>
<rect x="683.5" y="403.5" width="269" height="52" rx="7.5" fill="#E0E8FF"/>
<rect x="683.5" y="403.5" width="269" height="52" rx="7.5" stroke="#CFDAFC"/>
<path d="M806.521 436H804.869L809.527 423.273H811.197L815.855 436H814.186L812.92 432.414H807.805L806.521 436ZM808.279 431.025H812.428L810.406 425.33H810.301L808.279 431.025ZM817.578 436V423.273H821.902C824.891 423.273 826.244 425.049 826.244 427.316C826.244 429.566 824.891 431.377 821.92 431.377H819.16V436H817.578ZM819.16 429.971H821.85C823.871 429.971 824.68 428.828 824.68 427.316C824.68 425.787 823.871 424.68 821.832 424.68H819.16V429.971ZM830.041 423.273V436H828.459V423.273H830.041Z" fill="#333333"/>
<rect x="683" y="468" width="270" height="75" rx="8" fill="url(#paint2_linear_59_2)"/>
<path d="M789.365 499.273H792.635L796.168 507.904H796.309L799.842 499.273H803.111V512H800.545V503.668H800.439L797.117 511.947H795.359L792.037 503.633H791.932V512H789.365V499.273ZM805.256 512V499.273H807.893V509.82H813.377V512H805.256ZM826.227 505.637C826.227 509.785 823.643 512.176 820.285 512.176C816.893 512.176 814.326 509.768 814.326 505.637C814.326 501.488 816.893 499.098 820.285 499.098C823.643 499.098 826.227 501.488 826.227 505.637ZM823.537 505.637C823.537 502.912 822.254 501.436 820.285 501.436C818.316 501.436 817.016 502.912 817.016 505.637C817.016 508.361 818.316 509.838 820.285 509.838C822.254 509.838 823.537 508.361 823.537 505.637ZM828.072 515.586V502.455H830.639V504.055H830.744C831.096 503.281 831.869 502.332 833.469 502.332C835.578 502.332 837.336 503.967 837.336 507.236C837.336 510.418 835.648 512.158 833.469 512.158C831.904 512.158 831.113 511.262 830.744 510.471H830.674V515.586H828.072ZM830.621 507.219C830.621 508.941 831.359 510.084 832.643 510.084C833.979 510.084 834.682 508.906 834.682 507.219C834.682 505.549 833.979 504.406 832.643 504.406C831.342 504.406 830.621 505.496 830.621 507.219ZM844.473 505.285C844.367 504.617 843.77 504.178 842.908 504.178C842.064 504.178 841.414 504.582 841.432 505.162C841.414 505.584 841.766 505.918 842.662 506.111L844.367 506.463C846.213 506.85 847.109 507.676 847.127 509.047C847.109 510.928 845.422 512.193 842.891 512.193C840.307 512.193 838.795 511.033 838.584 509.17H841.203C841.326 509.926 841.941 510.312 842.891 510.312C843.84 510.312 844.473 509.926 844.473 509.311C844.473 508.818 844.068 508.52 843.172 508.326L841.59 508.01C839.779 507.658 838.83 506.709 838.848 505.303C838.83 503.475 840.412 502.332 842.873 502.332C845.281 502.332 846.775 503.475 846.916 505.285H844.473Z" fill="white"/>
<path d="M769.994 581.812V583.59H753.861V581.812H760.814V577.965H755.638V569.449H768.138V577.965H762.963V581.812H769.994ZM757.767 571.188V576.266H765.99V571.188H757.767ZM786.322 568.102V577.379H784.252V568.102H786.322ZM782.826 568.434V577.281H780.775V573.512H777.728V571.852H780.775V568.434H782.826ZM778.763 569V570.719H774.095V575.055C776.215 575.035 777.67 574.977 779.408 574.684L779.525 576.402C777.533 576.734 775.873 576.793 773.119 576.793H771.947V569H778.763ZM786.322 578.023V582.516H776.478V583.805H786.908V585.523H774.31V580.895H784.193V579.723H774.291V578.023H786.322ZM807.103 568.082V572.164H809.564V573.922H807.103V578.18H804.935V568.082H807.103ZM807.103 578.961V585.523H795.697V578.961H807.103ZM797.845 580.68V583.766H804.955V580.68H797.845ZM798.138 569.098C800.853 569.078 802.884 570.816 802.904 573.316C802.884 575.797 800.853 577.535 798.138 577.555C795.404 577.535 793.353 575.797 793.373 573.316C793.353 570.816 795.404 569.078 798.138 569.098ZM798.138 570.914C796.615 570.914 795.482 571.871 795.502 573.316C795.482 574.781 796.615 575.699 798.138 575.719C799.642 575.699 800.775 574.781 800.775 573.316C800.775 571.871 799.642 570.914 798.138 570.914ZM825.775 570.445V572.203H811.185V570.445H817.416V568.316H819.564V570.445H825.775ZM826.595 582.086V583.844H810.463V582.086H817.416V579.918C814.359 579.674 812.513 578.453 812.533 576.5C812.513 574.371 814.799 573.102 818.49 573.102C822.123 573.102 824.427 574.371 824.427 576.5C824.427 578.443 822.572 579.664 819.564 579.898V582.086H826.595ZM818.49 574.801C816.088 574.82 814.74 575.387 814.759 576.5C814.74 577.633 816.088 578.199 818.49 578.219C820.853 578.199 822.201 577.633 822.201 576.5C822.201 575.387 820.853 574.82 818.49 574.801ZM841.713 568.082V575.367H844.193V577.184H841.713V585.738H839.525V568.082H841.713ZM827.533 580.836C828.871 580.836 830.424 580.836 832.045 580.797V579.137C830.121 578.814 828.861 577.604 828.881 575.953C828.861 573.961 830.619 572.633 833.158 572.633C835.658 572.633 837.435 573.961 837.455 575.953C837.435 577.613 836.156 578.824 834.232 579.137V580.719C835.716 580.641 837.201 580.523 838.588 580.328L838.724 581.91C834.935 582.594 830.853 582.633 827.845 582.633L827.533 580.836ZM838.392 570.113V571.832H827.865V570.113H832.045V568.16H834.232V570.113H838.392ZM833.158 574.293C831.81 574.312 830.931 574.918 830.931 575.953C830.931 576.969 831.81 577.574 833.158 577.555C834.486 577.574 835.365 576.969 835.365 575.953C835.365 574.918 834.486 574.312 833.158 574.293ZM856.263 571.109C856.263 573.258 857.689 575.426 860.424 576.344L859.33 578.023C857.357 577.379 855.961 576.041 855.189 574.391C854.418 576.236 852.943 577.721 850.853 578.414L849.74 576.695C852.552 575.777 854.056 573.434 854.056 571.129V570.895H850.384V569.156H859.916V570.895H856.263V571.109ZM864.564 579.449V585.738H862.396V581.188H852.533V579.449H864.564ZM864.564 568.082V578.609H862.396V574.234H859.388V572.457H862.396V568.082H864.564ZM883.158 576.578V578.316H867.064V576.578H870.814V574.332C869.486 573.775 868.724 572.887 868.724 571.734C868.724 569.625 871.205 568.375 875.091 568.375C878.978 568.375 881.439 569.625 881.459 571.734C881.449 572.896 880.687 573.785 879.349 574.332V576.578H883.158ZM875.091 579.391C878.9 579.371 881.185 580.504 881.205 582.535C881.185 584.586 878.9 585.699 875.091 585.699C871.244 585.699 868.939 584.586 868.939 582.535C868.939 580.504 871.244 579.371 875.091 579.391ZM875.091 581.031C872.513 581.031 871.127 581.539 871.146 582.535C871.127 583.531 872.513 584.059 875.091 584.059C877.611 584.059 879.017 583.531 879.037 582.535C879.017 581.539 877.611 581.031 875.091 581.031ZM875.091 570.055C872.474 570.055 870.97 570.641 870.99 571.734C870.97 572.809 872.474 573.375 875.091 573.375C877.689 573.375 879.213 572.809 879.213 571.734C879.213 570.641 877.689 570.055 875.091 570.055ZM873.002 576.578H877.181V574.898C876.547 574.986 875.843 575.035 875.091 575.035C874.34 575.035 873.636 574.986 873.002 574.898V576.578Z" fill="#131314"/>
<rect x="683.5" y="143.5" width="269" height="52" rx="7.5" fill="#E0E8FF"/>
<rect x="683.5" y="143.5" width="269" height="52" rx="7.5" stroke="#CFDAFC"/>
<path d="M800.791 161.797V172.379H799.473V161.797H800.791ZM797.803 162.148V170.885H796.502V167.193H794.814C794.56 169.065 793.127 170.34 791.264 170.34C789.172 170.34 787.678 168.793 787.695 166.596C787.678 164.398 789.172 162.887 791.264 162.887C793.145 162.887 794.586 164.152 794.814 166.051H796.502V162.148H797.803ZM796.256 172.115C796.256 174.172 798.893 175.859 801.6 176.281L801.107 177.354C798.734 176.958 796.52 175.754 795.57 173.996C794.621 175.754 792.397 176.958 790.051 177.354L789.541 176.281C792.266 175.859 794.867 174.172 794.885 172.115V171.57H796.256V172.115ZM791.264 164.047C789.928 164.047 788.926 165.119 788.943 166.596C788.926 168.09 789.928 169.162 791.264 169.162C792.6 169.162 793.584 168.09 793.602 166.596C793.584 165.119 792.6 164.047 791.264 164.047ZM808.666 166.596C808.666 169.25 810.6 171.939 812.902 172.941L812.129 174.031C810.301 173.196 808.719 171.395 807.998 169.232C807.26 171.526 805.687 173.521 803.902 174.418L803.076 173.328C805.309 172.256 807.26 169.303 807.277 166.596V164.557H803.586V163.414H812.393V164.557H808.666V166.596ZM815.961 161.797V177.424H814.572V161.797H815.961ZM827.299 163.01V163.836C827.281 164.855 827.281 166.42 826.895 168.459L825.506 168.354C825.884 166.481 825.919 165.154 825.945 164.17H819.512V163.01H827.299ZM823.273 166.473V169.83C825.005 169.76 826.798 169.637 828.424 169.408L828.512 170.428C825.242 170.99 821.463 171.061 818.686 171.061L818.545 169.918C819.556 169.909 820.698 169.9 821.902 169.865V166.473H823.273ZM830.885 161.797V166.895H833.17V168.072H830.885V173.557H829.479V161.797H830.885ZM831.395 175.93V177.09H820.953V172.502H822.342V175.93H831.395ZM847.092 161.797V177.459H845.721V161.797H847.092ZM842.346 163.256V168.811H836.51V172.502C839.103 172.502 841.414 172.388 844.209 171.939L844.35 173.1C841.467 173.557 839.094 173.662 836.404 173.662H835.104V167.686H840.957V164.398H835.068V163.256H842.346Z" fill="#333333"/>
<rect x="683.5" y="273.5" width="269" height="52" rx="7.5" fill="#E0E8FF"/>
<rect x="683.5" y="273.5" width="269" height="52" rx="7.5" stroke="#CFDAFC"/>
<path d="M785.234 291.797V302.379H783.916V291.797H785.234ZM782.246 292.148V300.885H780.945V297.193H779.258C779.003 299.065 777.57 300.34 775.707 300.34C773.615 300.34 772.121 298.793 772.139 296.596C772.121 294.398 773.615 292.887 775.707 292.887C777.588 292.887 779.029 294.152 779.258 296.051H780.945V292.148H782.246ZM780.699 302.115C780.699 304.172 783.336 305.859 786.043 306.281L785.551 307.354C783.178 306.958 780.963 305.754 780.014 303.996C779.064 305.754 776.841 306.958 774.494 307.354L773.984 306.281C776.709 305.859 779.311 304.172 779.328 302.115V301.57H780.699V302.115ZM775.707 294.047C774.371 294.047 773.369 295.119 773.387 296.596C773.369 298.09 774.371 299.162 775.707 299.162C777.043 299.162 778.027 298.09 778.045 296.596C778.027 295.119 777.043 294.047 775.707 294.047ZM793.109 296.596C793.109 299.25 795.043 301.939 797.346 302.941L796.572 304.031C794.744 303.196 793.162 301.395 792.441 299.232C791.703 301.526 790.13 303.521 788.346 304.418L787.52 303.328C789.752 302.256 791.703 299.303 791.721 296.596V294.557H788.029V293.414H796.836V294.557H793.109V296.596ZM800.404 291.797V307.424H799.016V291.797H800.404ZM816.348 291.814V300.568H815.029V291.814H816.348ZM813.5 292.078V300.428H812.199V297.053H810.441V295.928H812.199V292.078H813.5ZM816.348 301.254V304.699H807.383V306.193H816.945V307.248H806.012V303.68H814.994V302.291H805.977V301.254H816.348ZM810.828 293.344V294.434H802.988V293.344H806.223V291.762H807.594V293.344H810.828ZM806.908 295.066C808.824 295.066 810.16 296.086 810.16 297.65C810.16 299.232 808.824 300.234 806.908 300.217C804.975 300.234 803.656 299.232 803.656 297.65C803.656 296.086 804.975 295.066 806.908 295.066ZM806.908 296.086C805.695 296.068 804.869 296.719 804.869 297.65C804.869 298.6 805.695 299.232 806.908 299.232C808.121 299.232 808.947 298.6 808.947 297.65C808.947 296.719 808.121 296.068 806.908 296.086ZM826.42 294.1C826.42 296.771 829.479 299.162 832.203 299.672L831.57 300.832C829.215 300.287 826.728 298.608 825.717 296.297C824.706 298.6 822.228 300.278 819.863 300.832L819.23 299.672C821.938 299.145 824.979 296.789 824.979 294.1V292.904H826.42V294.1ZM832.941 304.154V305.297H818.633V304.154H832.941ZM838.76 296.613C838.76 299.127 840.043 301.693 842.17 302.836L841.379 303.873C839.823 303.029 838.698 301.412 838.127 299.531C837.564 301.535 836.448 303.275 834.893 304.225L834.066 303.17C836.193 301.939 837.441 299.197 837.459 296.613V295.84H834.488V294.697H837.459V292.377H838.777V294.697H841.695V295.84H838.76V296.613ZM847.549 291.797V307.424H846.23V291.797H847.549ZM844.385 292.184V306.615H843.084V299.145H840.623V297.967H843.084V292.184H844.385ZM862.209 293.396V295.33C862.209 297.633 862.209 299.76 861.559 302.924L860.17 302.801C860.513 301.298 860.688 299.997 860.785 298.775L851.24 299.303L851.047 298.16L860.838 297.756C860.864 296.93 860.864 296.13 860.873 295.33V294.557H851.469V293.396H862.209ZM863.984 304.066V305.227H849.746V304.066H863.984Z" fill="#333333"/>
<rect x="683" width="270" height="56" rx="10" fill="#000B6C"/>
<path d="M788.309 20.8594H791.434L795.633 31.1328H795.809L800.008 20.8594H803.133V35H800.691V25.2734H800.555L796.629 34.9609H794.812L790.887 25.2344H790.77V35H788.309V20.8594ZM810.555 35H805.75V20.8594H810.633C814.852 20.8594 817.41 23.5156 817.41 27.9102C817.41 32.3242 814.852 35 810.555 35ZM808.289 32.793H810.418C813.367 32.793 814.871 31.1719 814.871 27.9102C814.871 24.668 813.367 23.0664 810.496 23.0664H808.289V32.793ZM819.656 20.8594H822.781L826.98 31.1328H827.156L831.355 20.8594H834.48V35H832.039V25.2734H831.902L827.977 34.9609H826.16L822.234 25.2344H822.117V35H819.656V20.8594ZM844.793 24.7461C844.676 23.5352 843.641 22.832 842.117 22.832C840.516 22.832 839.539 23.6133 839.539 24.668C839.539 25.8594 840.789 26.3477 841.961 26.6211L843.289 26.9727C845.398 27.4609 847.43 28.5742 847.43 31.0352C847.43 33.5156 845.477 35.2148 842.078 35.2148C838.777 35.2148 836.707 33.6328 836.59 30.8398H839.09C839.207 32.3242 840.457 33.0469 842.059 33.0469C843.738 33.0469 844.891 32.2266 844.891 31.0156C844.891 29.9023 843.855 29.4336 842.332 29.043L840.73 28.6328C838.406 28.0273 836.961 26.8555 836.961 24.8242C836.961 22.3242 839.188 20.6641 842.156 20.6641C845.164 20.6641 847.195 22.3633 847.234 24.7461H844.793Z" fill="white"/>
<rect x="1091.5" y="78.5" width="188" height="150" rx="7.5" fill="#F5F6F8"/>
<rect x="1091.5" y="78.5" width="188" height="150" rx="7.5" stroke="#EAEAEA"/>
<path d="M1205.77 133.336C1205.25 132.372 1204.4 131.667 1203.35 131.35L1199.09 130.05C1198.17 129.766 1197.19 130.288 1196.91 131.215C1196.63 132.139 1193.58 141.395 1193.3 142.321C1193.03 143.245 1193.55 144.216 1194.47 144.501L1198.94 145.861C1199.33 145.98 1199.73 146.038 1200.12 146.038C1201.87 146.038 1203.49 144.904 1204.03 143.145L1206.07 136.448C1206.39 135.408 1206.28 134.302 1205.77 133.336Z" fill="#9AA6B9"/>
<path d="M1195.8 125.976L1179.43 120.988C1176.05 119.956 1172.45 121.872 1171.43 125.255L1169.19 132.601C1168.69 134.241 1168.86 135.975 1169.66 137.489C1170.47 139.001 1171.82 140.109 1173.46 140.609L1179.15 142.345C1179.13 142.452 1179.08 142.552 1179.08 142.664V149.664C1179.08 151.272 1177.77 152.581 1176.17 152.581H1166.83C1165.87 152.581 1165.08 153.365 1165.08 154.331C1165.08 155.297 1165.87 156.081 1166.83 156.081H1176.17C1179.71 156.081 1182.58 153.204 1182.58 149.664V143.39L1189.82 145.595C1190.44 145.782 1191.07 145.875 1191.7 145.875C1192.74 145.875 1193.77 145.623 1194.71 145.119C1196.23 144.312 1197.33 142.965 1197.83 141.327L1200.07 133.98C1201.1 130.596 1199.19 127.005 1195.8 125.972V125.976Z" fill="#C1C7D2"/>
<path d="M1171.8 184.281C1171.43 182.523 1169.92 181.574 1168.25 181.574C1165.94 181.574 1164.15 183.35 1164.15 186.637C1164.15 189.924 1165.94 191.699 1168.25 191.699C1169.92 191.699 1171.41 190.75 1171.8 189.01H1173.38C1172.92 191.611 1170.83 193.176 1168.25 193.176C1164.98 193.176 1162.62 190.662 1162.62 186.637C1162.62 182.611 1164.98 180.098 1168.25 180.098C1170.81 180.098 1172.91 181.645 1173.38 184.281H1171.8ZM1184.28 184.281C1183.91 182.523 1182.4 181.574 1180.73 181.574C1178.42 181.574 1176.63 183.35 1176.63 186.637C1176.63 189.924 1178.42 191.699 1180.73 191.699C1182.4 191.699 1183.89 190.75 1184.28 189.01H1185.86C1185.4 191.611 1183.31 193.176 1180.73 193.176C1177.46 193.176 1175.1 190.662 1175.1 186.637C1175.1 182.611 1177.46 180.098 1180.73 180.098C1183.29 180.098 1185.39 181.645 1185.86 184.281H1184.28ZM1187.37 181.68V180.273H1196.97V181.68H1192.98V193H1191.38V181.68H1187.37ZM1199.66 180.273L1203.4 190.943H1203.54L1207.31 180.273H1208.98L1204.32 193H1202.65L1197.99 180.273H1199.66Z" fill="#333333"/>
<path d="M1137.5 429.812V431.59H1121.37V429.812H1128.32V425.965H1123.14V417.449H1135.64V425.965H1130.47V429.812H1137.5ZM1125.27 419.188V424.266H1133.5V419.188H1125.27ZM1153.83 416.102V425.379H1151.76V416.102H1153.83ZM1150.33 416.434V425.281H1148.28V421.512H1145.23V419.852H1148.28V416.434H1150.33ZM1146.27 417V418.719H1141.6V423.055C1143.72 423.035 1145.18 422.977 1146.91 422.684L1147.03 424.402C1145.04 424.734 1143.38 424.793 1140.62 424.793H1139.45V417H1146.27ZM1153.83 426.023V430.516H1143.98V431.805H1154.41V433.523H1141.82V428.895H1151.7V427.723H1141.8V426.023H1153.83ZM1176.78 424.969V426.707H1160.68V424.969H1167.62V423.27H1162.77V416.512H1164.92V418.27H1172.54V416.512H1174.69V423.27H1169.8V424.969H1176.78ZM1174.8 428.113V433.738H1172.64V429.832H1162.46V428.113H1174.8ZM1164.92 421.531H1172.54V419.891H1164.92V421.531ZM1193.28 418.445V420.203H1178.69V418.445H1184.92V416.316H1187.07V418.445H1193.28ZM1194.1 430.086V431.844H1177.97V430.086H1184.92V427.918C1181.86 427.674 1180.02 426.453 1180.04 424.5C1180.02 422.371 1182.3 421.102 1186 421.102C1189.63 421.102 1191.93 422.371 1191.93 424.5C1191.93 426.443 1190.08 427.664 1187.07 427.898V430.086H1194.1ZM1186 422.801C1183.59 422.82 1182.25 423.387 1182.27 424.5C1182.25 425.633 1183.59 426.199 1186 426.219C1188.36 426.199 1189.71 425.633 1189.71 424.5C1189.71 423.387 1188.36 422.82 1186 422.801ZM1209.22 416.082V423.367H1211.7V425.184H1209.22V433.738H1207.03V416.082H1209.22ZM1195.04 428.836C1196.38 428.836 1197.93 428.836 1199.55 428.797V427.137C1197.63 426.814 1196.37 425.604 1196.39 423.953C1196.37 421.961 1198.12 420.633 1200.66 420.633C1203.16 420.633 1204.94 421.961 1204.96 423.953C1204.94 425.613 1203.66 426.824 1201.74 427.137V428.719C1203.22 428.641 1204.71 428.523 1206.09 428.328L1206.23 429.91C1202.44 430.594 1198.36 430.633 1195.35 430.633L1195.04 428.836ZM1205.9 418.113V419.832H1195.37V418.113H1199.55V416.16H1201.74V418.113H1205.9ZM1200.66 422.293C1199.32 422.312 1198.44 422.918 1198.44 423.953C1198.44 424.969 1199.32 425.574 1200.66 425.555C1201.99 425.574 1202.87 424.969 1202.87 423.953C1202.87 422.918 1201.99 422.312 1200.66 422.293ZM1223.77 419.109C1223.77 421.258 1225.19 423.426 1227.93 424.344L1226.84 426.023C1224.86 425.379 1223.47 424.041 1222.69 422.391C1221.92 424.236 1220.45 425.721 1218.36 426.414L1217.25 424.695C1220.06 423.777 1221.56 421.434 1221.56 419.129V418.895H1217.89V417.156H1227.42V418.895H1223.77V419.109ZM1232.07 427.449V433.738H1229.9V429.188H1220.04V427.449H1232.07ZM1232.07 416.082V426.609H1229.9V422.234H1226.89V420.457H1229.9V416.082H1232.07ZM1250.66 424.578V426.316H1234.57V424.578H1238.32V422.332C1236.99 421.775 1236.23 420.887 1236.23 419.734C1236.23 417.625 1238.71 416.375 1242.6 416.375C1246.48 416.375 1248.94 417.625 1248.96 419.734C1248.95 420.896 1248.19 421.785 1246.86 422.332V424.578H1250.66ZM1242.6 427.391C1246.41 427.371 1248.69 428.504 1248.71 430.535C1248.69 432.586 1246.41 433.699 1242.6 433.699C1238.75 433.699 1236.44 432.586 1236.44 430.535C1236.44 428.504 1238.75 427.371 1242.6 427.391ZM1242.6 429.031C1240.02 429.031 1238.63 429.539 1238.65 430.535C1238.63 431.531 1240.02 432.059 1242.6 432.059C1245.12 432.059 1246.52 431.531 1246.54 430.535C1246.52 429.539 1245.12 429.031 1242.6 429.031ZM1242.6 418.055C1239.98 418.055 1238.48 418.641 1238.5 419.734C1238.48 420.809 1239.98 421.375 1242.6 421.375C1245.19 421.375 1246.72 420.809 1246.72 419.734C1246.72 418.641 1245.19 418.055 1242.6 418.055ZM1240.51 424.578H1244.69V422.898C1244.05 422.986 1243.35 423.035 1242.6 423.035C1241.85 423.035 1241.14 422.986 1240.51 422.898V424.578Z" fill="#131314"/>
<rect x="1091.5" y="241.5" width="188" height="150" rx="7.5" fill="#F5F6F8"/>
<rect x="1091.5" y="241.5" width="188" height="150" rx="7.5" stroke="#EAEAEA"/>
<path d="M1190.17 303.917H1180.83C1179.87 303.917 1179.08 304.701 1179.08 305.667V308C1179.08 311.54 1181.96 314.417 1185.5 314.417C1189.04 314.417 1191.92 311.54 1191.92 308V305.667C1191.92 304.701 1191.13 303.917 1190.17 303.917Z" fill="#9AA6B9"/>
<path d="M1196.29 304.696C1195.75 303.889 1194.66 303.674 1193.86 304.211C1193.06 304.745 1192.84 305.832 1193.38 306.637L1197.47 312.781C1197.56 312.916 1197.59 313.084 1197.55 313.243L1195.47 321.575C1195.23 322.511 1195.8 323.463 1196.74 323.696C1196.88 323.734 1197.03 323.748 1197.17 323.748C1197.95 323.748 1198.66 323.216 1198.86 322.422L1200.95 314.092C1201.23 312.977 1201.02 311.789 1200.38 310.835L1196.29 304.696Z" fill="#9AA6B9"/>
<path d="M1174.71 304.696L1170.62 310.835C1169.98 311.789 1169.77 312.979 1170.05 314.092L1172.14 322.425C1172.34 323.22 1173.05 323.75 1173.83 323.75C1173.97 323.75 1174.12 323.734 1174.26 323.699C1175.2 323.463 1175.77 322.513 1175.53 321.578L1173.45 313.243C1173.41 313.087 1173.44 312.916 1173.53 312.781L1177.62 306.64C1178.16 305.835 1177.94 304.747 1177.14 304.213C1176.33 303.679 1175.25 303.891 1174.71 304.698V304.696Z" fill="#9AA6B9"/>
<path d="M1175.58 298.667C1175.58 297.701 1174.8 296.917 1173.83 296.917H1170.92V282.333C1170.92 281.367 1170.13 280.583 1169.17 280.583C1168.2 280.583 1167.42 281.367 1167.42 282.333V296.917H1166.83C1165.87 296.917 1165.08 297.701 1165.08 298.667C1165.08 299.633 1165.87 300.417 1166.83 300.417H1173.83C1174.8 300.417 1175.58 299.633 1175.58 298.667Z" fill="#9AA6B9"/>
<path d="M1204.17 296.917H1203.58V282.333C1203.58 281.367 1202.8 280.583 1201.83 280.583C1200.87 280.583 1200.08 281.367 1200.08 282.333V296.917H1197.17C1196.2 296.917 1195.42 297.701 1195.42 298.667C1195.42 299.633 1196.2 300.417 1197.17 300.417H1204.17C1205.13 300.417 1205.92 299.633 1205.92 298.667C1205.92 297.701 1205.13 296.917 1204.17 296.917Z" fill="#9AA6B9"/>
<path d="M1194.83 292.25H1176.17C1173.91 292.25 1172.08 294.078 1172.08 296.333V303.333C1172.08 305.588 1173.91 307.417 1176.17 307.417H1194.83C1197.09 307.417 1198.92 305.588 1198.92 303.333V296.333C1198.92 294.078 1197.09 292.25 1194.83 292.25Z" fill="#C1C7D2"/>
<path d="M1206.5 280.583H1197.17C1196.2 280.583 1195.42 281.367 1195.42 282.333C1195.42 283.299 1196.2 284.083 1197.17 284.083H1206.5C1207.47 284.083 1208.25 283.299 1208.25 282.333C1208.25 281.367 1207.47 280.583 1206.5 280.583Z" fill="#C1C7D2"/>
<path d="M1175.58 282.333C1175.58 281.367 1174.8 280.583 1173.83 280.583H1164.5C1163.53 280.583 1162.75 281.367 1162.75 282.333C1162.75 283.299 1163.53 284.083 1164.5 284.083H1173.83C1174.8 284.083 1175.58 283.299 1175.58 282.333Z" fill="#C1C7D2"/>
<path d="M1183.2 349.32V350.463H1172.4V343.256H1183.04V344.398H1173.78V349.32H1183.2ZM1184.88 354.137V355.297H1170.58V354.137H1184.88ZM1200.42 350.727V351.869H1186.12V350.727H1192.58V349.004H1187.98V345.154H1197.19V343.414H1187.93V342.307H1198.58V346.174H1189.35V347.914H1198.91V349.004H1193.94V350.727H1200.42ZM1198.91 356.123V357.266H1188.01V352.924H1189.4V356.123H1198.91Z" fill="#333333"/>
<rect x="1091" width="189" height="56" rx="10" fill="#000B6C"/>
<path d="M1128.81 35V20.8594H1138.01V22.9883H1131.35V26.8555H1137.52V28.9844H1131.35V32.8516H1138.05V35H1128.81ZM1144.28 35.1953C1141.78 35.1953 1139.9 33.2031 1139.9 29.707C1139.9 26.1719 1141.84 24.2578 1144.3 24.2578C1146.17 24.2578 1146.95 25.3711 1147.32 26.1328H1147.42V20.8594H1149.9V35H1147.46V33.3203H1147.32C1146.93 34.1016 1146.11 35.1953 1144.28 35.1953ZM1144.96 33.1445C1146.56 33.1445 1147.48 31.7578 1147.48 29.6875C1147.48 27.6367 1146.58 26.2891 1144.96 26.2891C1143.3 26.2891 1142.44 27.7148 1142.44 29.6875C1142.44 31.6992 1143.32 33.1445 1144.96 33.1445ZM1157.05 39.1992C1154.24 39.1992 1152.46 37.9492 1152.29 35.957H1154.77C1154.94 36.875 1155.82 37.3242 1157.09 37.3242C1158.57 37.3242 1159.55 36.6797 1159.55 35.1172V33.0859H1159.43C1159.04 33.8672 1158.2 34.8438 1156.37 34.8438C1153.93 34.8438 1151.99 33.0664 1151.99 29.6094C1151.99 26.1133 1153.93 24.2578 1156.39 24.2578C1158.26 24.2578 1159.04 25.3711 1159.43 26.1328H1159.55V24.3945H1162.01V35.1758C1162.01 37.8906 1159.92 39.1992 1157.05 39.1992ZM1157.05 32.8906C1158.65 32.8906 1159.57 31.6797 1159.57 29.6484C1159.57 27.6367 1158.67 26.2891 1157.05 26.2891C1155.39 26.2891 1154.53 27.7148 1154.53 29.6484C1154.53 31.6016 1155.41 32.8906 1157.05 32.8906ZM1169.1 35.2148C1165.9 35.2148 1163.95 33.0859 1163.95 29.7656C1163.95 26.4844 1165.94 24.2578 1168.96 24.2578C1171.56 24.2578 1173.81 25.8789 1173.81 29.6094V30.3906H1166.41C1166.44 32.1973 1167.5 33.2617 1169.12 33.2617C1170.21 33.2617 1170.96 32.793 1171.27 32.168H1173.71C1173.26 34.0039 1171.56 35.2148 1169.1 35.2148ZM1166.43 28.6914H1171.43C1171.41 27.2461 1170.45 26.1914 1169 26.1914C1167.5 26.1914 1166.5 27.334 1166.43 28.6914ZM1185.41 35H1180.61V20.8594H1185.49C1189.71 20.8594 1192.27 23.5156 1192.27 27.9102C1192.27 32.3242 1189.71 35 1185.41 35ZM1183.14 32.793H1185.27C1188.22 32.793 1189.73 31.1719 1189.73 27.9102C1189.73 24.668 1188.22 23.0664 1185.35 23.0664H1183.14V32.793ZM1199.1 35.2148C1195.9 35.2148 1193.95 33.0859 1193.95 29.7656C1193.95 26.4844 1195.94 24.2578 1198.96 24.2578C1201.56 24.2578 1203.81 25.8789 1203.81 29.6094V30.3906H1196.41C1196.44 32.1973 1197.5 33.2617 1199.12 33.2617C1200.21 33.2617 1200.96 32.793 1201.27 32.168H1203.71C1203.26 34.0039 1201.56 35.2148 1199.1 35.2148ZM1196.43 28.6914H1201.43C1201.41 27.2461 1200.45 26.1914 1199 26.1914C1197.5 26.1914 1196.5 27.334 1196.43 28.6914ZM1214.9 24.3945L1211.11 35H1208.38L1204.59 24.3945H1207.25L1209.69 32.2852H1209.8L1212.27 24.3945H1214.9ZM1216.46 35V24.3945H1218.96V35H1216.46ZM1217.73 22.8906C1216.95 22.8906 1216.29 22.2852 1216.29 21.5234C1216.29 20.7812 1216.95 20.1758 1217.73 20.1758C1218.54 20.1758 1219.18 20.7812 1219.18 21.5234C1219.18 22.2852 1218.54 22.8906 1217.73 22.8906ZM1225.98 35.2148C1222.81 35.2148 1220.9 32.9492 1220.9 29.7461C1220.9 26.5039 1222.87 24.2578 1225.98 24.2578C1228.55 24.2578 1230.35 25.7617 1230.53 28.0469H1228.14C1227.95 27.0312 1227.21 26.25 1226 26.25C1224.45 26.25 1223.42 27.5586 1223.42 29.6875C1223.42 31.875 1224.43 33.1836 1226 33.1836C1227.11 33.1836 1227.93 32.5391 1228.14 31.3867H1230.53C1230.33 33.6328 1228.63 35.2148 1225.98 35.2148ZM1237.11 35.2148C1233.91 35.2148 1231.95 33.0859 1231.95 29.7656C1231.95 26.4844 1233.95 24.2578 1236.97 24.2578C1239.57 24.2578 1241.82 25.8789 1241.82 29.6094V30.3906H1234.41C1234.44 32.1973 1235.51 33.2617 1237.13 33.2617C1238.22 33.2617 1238.96 32.793 1239.28 32.168H1241.72C1241.27 34.0039 1239.57 35.2148 1237.11 35.2148ZM1234.43 28.6914H1239.43C1239.41 27.2461 1238.46 26.1914 1237.01 26.1914C1235.51 26.1914 1234.51 27.334 1234.43 28.6914Z" fill="white"/>
<path fill-rule="evenodd" clip-rule="evenodd" d="M1002 295L984 274L1002 253L1002 263H1039L1039 253L1057 274L1039 295V285H1002L1002 295Z" fill="black" fill-opacity="0.1"/>
<path fill-rule="evenodd" clip-rule="evenodd" d="M595 295L577 274L595 253L595 263H632L632 253L650 274L632 295V285H595L595 295Z" fill="black" fill-opacity="0.1"/>
<path fill-rule="evenodd" clip-rule="evenodd" d="M216 295L234 274L216 253L216 263H179V285H216V295Z" fill="black" fill-opacity="0.1"/>
<path d="M990.563 214V201.273H995.556C998.456 201.273 1000.11 202.908 1000.11 205.422C1000.11 207.162 999.309 208.428 997.858 209.043L1000.57 214H997.647L995.222 209.482H993.2V214H990.563ZM993.2 207.338H995.063C996.628 207.338 997.384 206.688 997.384 205.422C997.384 204.139 996.628 203.436 995.063 203.436H993.2V207.338ZM1006.05 214.193C1003.13 214.193 1001.34 212.295 1001.34 209.271C1001.34 206.318 1003.15 204.332 1005.94 204.332C1008.46 204.332 1010.43 205.914 1010.43 209.166V209.904H1003.91C1003.91 211.346 1004.77 212.242 1006.1 212.242C1006.98 212.242 1007.61 211.855 1007.88 211.275H1010.36C1009.99 213.033 1008.41 214.193 1006.05 214.193ZM1003.91 208.27H1007.97C1007.97 207.109 1007.16 206.283 1006 206.283C1004.8 206.283 1003.95 207.171 1003.91 208.27ZM1017.51 207.285C1017.41 206.617 1016.81 206.178 1015.95 206.178C1015.1 206.178 1014.45 206.582 1014.47 207.162C1014.45 207.584 1014.8 207.918 1015.7 208.111L1017.41 208.463C1019.25 208.85 1020.15 209.676 1020.17 211.047C1020.15 212.928 1018.46 214.193 1015.93 214.193C1013.34 214.193 1011.83 213.033 1011.62 211.17H1014.24C1014.36 211.926 1014.98 212.312 1015.93 212.312C1016.88 212.312 1017.51 211.926 1017.51 211.311C1017.51 210.818 1017.11 210.52 1016.21 210.326L1014.63 210.01C1012.82 209.658 1011.87 208.709 1011.89 207.303C1011.87 205.475 1013.45 204.332 1015.91 204.332C1018.32 204.332 1019.81 205.475 1019.95 207.285H1017.51ZM1026.79 204.455V206.406H1025V211.064C1025 211.82 1025.37 212.014 1025.9 212.031C1026.16 212.031 1026.62 212.014 1026.93 211.979V214.035C1026.65 214.088 1026.19 214.123 1025.54 214.123C1023.66 214.123 1022.38 213.279 1022.4 211.434V206.406H1021.08V204.455H1022.4V202.17H1025V204.455H1026.79ZM1028.69 214V201.273H1037.08V203.453H1031.33V206.547H1036.53V208.727H1031.33V214H1028.69ZM1044.28 209.939V204.455H1046.88V214H1044.39V212.277H1044.28C1043.84 213.385 1042.82 214.123 1041.38 214.123C1039.47 214.123 1038.17 212.77 1038.17 210.537V204.455H1040.77V210.08C1040.77 211.205 1041.42 211.926 1042.44 211.926C1043.39 211.926 1044.28 211.24 1044.28 209.939ZM1051.51 201.273V214H1048.91V201.273H1051.51ZM1009.74 235H1006.89L1011.31 222.273H1014.7L1019.09 235H1016.26L1015.31 232.064H1010.71L1009.74 235ZM1011.38 230.008H1014.65L1013.05 225.139H1012.96L1011.38 230.008ZM1020.53 235V222.273H1025.53C1028.43 222.273 1030.08 224.049 1030.08 226.562C1030.08 229.111 1028.39 230.852 1025.46 230.852H1023.17V235H1020.53ZM1023.17 228.725H1025.03C1026.6 228.725 1027.35 227.846 1027.35 226.562C1027.35 225.297 1026.6 224.436 1025.03 224.436H1023.17V228.725ZM1034.39 222.273V235H1031.75V222.273H1034.39Z" fill="#3649D8"/>
<path d="M583.563 214V201.273H588.556C591.456 201.273 593.108 202.908 593.108 205.422C593.108 207.162 592.309 208.428 590.858 209.043L593.565 214H590.647L588.222 209.482H586.2V214H583.563ZM586.2 207.338H588.063C589.628 207.338 590.384 206.688 590.384 205.422C590.384 204.139 589.628 203.436 588.063 203.436H586.2V207.338ZM599.05 214.193C596.132 214.193 594.339 212.295 594.339 209.271C594.339 206.318 596.149 204.332 598.944 204.332C601.458 204.332 603.427 205.914 603.427 209.166V209.904H596.905C596.905 211.346 597.767 212.242 599.103 212.242C599.981 212.242 600.614 211.855 600.878 211.275H603.356C602.987 213.033 601.405 214.193 599.05 214.193ZM596.905 208.27H600.966C600.966 207.109 600.157 206.283 598.997 206.283C597.802 206.283 596.949 207.171 596.905 208.27ZM610.511 207.285C610.405 206.617 609.808 206.178 608.946 206.178C608.103 206.178 607.452 206.582 607.47 207.162C607.452 207.584 607.804 207.918 608.7 208.111L610.405 208.463C612.251 208.85 613.147 209.676 613.165 211.047C613.147 212.928 611.46 214.193 608.929 214.193C606.345 214.193 604.833 213.033 604.622 211.17H607.241C607.364 211.926 607.979 212.312 608.929 212.312C609.878 212.312 610.511 211.926 610.511 211.311C610.511 210.818 610.106 210.52 609.21 210.326L607.628 210.01C605.817 209.658 604.868 208.709 604.886 207.303C604.868 205.475 606.45 204.332 608.911 204.332C611.319 204.332 612.813 205.475 612.954 207.285H610.511ZM619.792 204.455V206.406H617.999V211.064C617.999 211.82 618.368 212.014 618.896 212.031C619.159 212.031 619.616 212.014 619.933 211.979V214.035C619.651 214.088 619.194 214.123 618.544 214.123C616.663 214.123 615.38 213.279 615.397 211.434V206.406H614.079V204.455H615.397V202.17H617.999V204.455H619.792ZM621.69 214V201.273H630.075V203.453H624.327V206.547H629.53V208.727H624.327V214H621.69ZM637.282 209.939V204.455H639.884V214H637.388V212.277H637.282C636.843 213.385 635.823 214.123 634.382 214.123C632.466 214.123 631.165 212.77 631.165 210.537V204.455H633.767V210.08C633.767 211.205 634.417 211.926 635.437 211.926C636.386 211.926 637.282 211.24 637.282 209.939ZM644.507 201.273V214H641.905V201.273H644.507ZM602.741 235H599.894L604.306 222.273H607.698L612.093 235H609.263L608.313 232.064H603.708L602.741 235ZM604.376 230.008H607.646L606.046 225.139H605.958L604.376 230.008ZM613.534 235V222.273H618.526C621.427 222.273 623.079 224.049 623.079 226.562C623.079 229.111 621.392 230.852 618.456 230.852H616.171V235H613.534ZM616.171 228.725H618.034C619.599 228.725 620.354 227.846 620.354 226.562C620.354 225.297 619.599 224.436 618.034 224.436H616.171V228.725ZM627.386 222.273V235H624.749V222.273H627.386Z" fill="#3649D8"/>
<path d="M185.735 218.48V224H183.134V211.273H185.665V216.125H185.771C186.21 215.018 187.177 214.332 188.618 214.332C190.604 214.332 191.923 215.668 191.923 217.918V224H189.321V218.375C189.321 217.197 188.688 216.494 187.599 216.494C186.509 216.494 185.735 217.215 185.735 218.48ZM198.954 214.455V216.406H197.161V221.064C197.161 221.82 197.53 222.014 198.058 222.031C198.321 222.031 198.778 222.014 199.095 221.979V224.035C198.813 224.088 198.356 224.123 197.706 224.123C195.825 224.123 194.542 223.279 194.56 221.434V216.406H193.241V214.455H194.56V212.17H197.161V214.455H198.954ZM205.616 214.455V216.406H203.823V221.064C203.823 221.82 204.192 222.014 204.72 222.031C204.983 222.031 205.44 222.014 205.757 221.979V224.035C205.476 224.088 205.019 224.123 204.368 224.123C202.487 224.123 201.204 223.279 201.222 221.434V216.406H199.903V214.455H201.222V212.17H203.823V214.455H205.616ZM207.251 227.586V214.455H209.817V216.055H209.923C210.274 215.281 211.048 214.332 212.647 214.332C214.757 214.332 216.515 215.967 216.515 219.236C216.515 222.418 214.827 224.158 212.647 224.158C211.083 224.158 210.292 223.262 209.923 222.471H209.853V227.586H207.251ZM209.8 219.219C209.8 220.941 210.538 222.084 211.821 222.084C213.157 222.084 213.86 220.906 213.86 219.219C213.86 217.549 213.157 216.406 211.821 216.406C210.521 216.406 209.8 217.496 209.8 219.219ZM223.651 217.285C223.546 216.617 222.948 216.178 222.087 216.178C221.243 216.178 220.593 216.582 220.61 217.162C220.593 217.584 220.944 217.918 221.841 218.111L223.546 218.463C225.392 218.85 226.288 219.676 226.306 221.047C226.288 222.928 224.601 224.193 222.069 224.193C219.485 224.193 217.974 223.033 217.763 221.17H220.382C220.505 221.926 221.12 222.312 222.069 222.312C223.019 222.312 223.651 221.926 223.651 221.311C223.651 220.818 223.247 220.52 222.351 220.326L220.769 220.01C218.958 219.658 218.009 218.709 218.026 217.303C218.009 215.475 219.591 214.332 222.052 214.332C224.46 214.332 225.954 215.475 226.095 217.285H223.651Z" fill="#3649D8"/>
<defs>
<linearGradient id="paint0_linear_59_2" x1="53.7097" y1="156.582" x2="81.1218" y2="129.17" gradientUnits="userSpaceOnUse">
<stop stop-color="#5433FF"/>
<stop offset="1" stop-color="#20BDFF"/>
</linearGradient>
<linearGradient id="paint1_linear_59_2" x1="53.7097" y1="319.582" x2="81.1218" y2="292.17" gradientUnits="userSpaceOnUse">
<stop stop-color="#5433FF"/>
<stop offset="1" stop-color="#20BDFF"/>
</linearGradient>
<linearGradient id="paint2_linear_59_2" x1="490.4" y1="590.951" x2="959.836" y2="529.111" gradientUnits="userSpaceOnUse">
<stop stop-color="#73EFFF"/>
<stop offset="1" stop-color="#8559F5"/>
</linearGradient>
<clipPath id="clip0_59_2">
<rect width="37" height="38" fill="white" transform="translate(50 119)"/>
</clipPath>
<clipPath id="clip1_59_2">
<rect width="37" height="38" fill="white" transform="translate(50 282)"/>
</clipPath>
</defs>
</svg>
