<svg width="144" height="109" viewBox="0 0 144 109" fill="none" xmlns="http://www.w3.org/2000/svg">
<g id="OBJECTS" clip-path="url(#clip0_4_1683)">
<g id="Group">
<g id="Group_2">
<g id="Group_3">
<g id="Group_4">
<g id="Group_5">
<path id="Vector" d="M116.061 28.4631H22.7229C20.1482 28.4631 18.061 30.5643 18.061 33.1562V89.0348C18.061 91.6267 20.1482 93.7279 22.7229 93.7279H116.061C118.636 93.7279 120.723 91.6267 120.723 89.0348V33.1562C120.723 30.5643 118.636 28.4631 116.061 28.4631Z" fill="#5C9FDC"/>
<path id="Vector_2" d="M18.061 77.4619V89.0348C18.061 91.6164 20.1585 93.7279 22.7229 93.7279H116.061C118.625 93.7279 120.723 91.6164 120.723 89.0348V77.4619H18.061Z" fill="#73B7EA"/>
</g>
<path id="Vector_3" d="M22.2417 31.1973H116.542C117.369 31.1973 118.041 31.8736 118.041 32.706V73.6068C118.041 74.4392 117.369 75.1155 116.542 75.1155H22.2417C21.4149 75.1155 20.743 74.4392 20.743 73.6068V32.706C20.743 31.8736 21.4149 31.1973 22.2417 31.1973Z" fill="#4F5B74"/>
</g>
<path id="Vector_4" d="M94.6178 103.611H44.1663V106.293H94.6178V103.611Z" fill="#8ACFF9"/>
<g id="Group_6">
<path id="Vector_5" d="M88.042 93.7278H50.7438V103.609H88.042V93.7278Z" fill="#CAEBFF"/>
<path id="Vector_6" d="M50.7438 93.7278H88.042V99.4201L50.7438 95.5648V93.7278Z" fill="#ADDFF7"/>
</g>
</g>
<g id="Group_7">
<g id="Group_8">
<path id="Vector_7" d="M90.9788 40.5635C80.2277 40.3859 71.6739 34.1662 69.3928 32.3435C67.1136 34.1662 58.5598 40.3859 47.8069 40.5635C47.8069 40.5635 37.2447 76.6636 69.3928 88.5487C101.543 76.6618 90.9788 40.5635 90.9788 40.5635Z" fill="#F0F9FF"/>
<path id="Vector_8" d="M90.9788 40.5634C90.3783 40.5526 89.7866 40.5221 89.2021 40.4773C90.9663 50.6778 92.6058 76.8627 65.9108 87.0937C67.0121 87.6121 68.1704 88.0983 69.3911 88.5504C101.541 76.6635 90.977 40.5652 90.977 40.5652L90.9788 40.5634Z" fill="#D2EBF9"/>
</g>
<g id="Group_9">
<g id="Group_10">
<path id="Vector_9" d="M70.4318 59.7699H68.3521C64.813 59.7699 61.9314 56.8708 61.9314 53.3062V51.4548C61.9314 47.8902 64.813 44.9929 68.3521 44.9929H70.4318C73.9709 44.9929 76.8525 47.892 76.8525 51.4548V53.3062C76.8525 56.869 73.9709 59.7699 70.4318 59.7699ZM68.3521 46.9304C65.8751 46.9304 63.856 48.9612 63.856 51.4548V53.3062C63.856 55.8016 65.8733 57.8306 68.3521 57.8306H70.4318C72.9106 57.8306 74.9261 55.7998 74.9261 53.3062V51.4548C74.9261 48.9594 72.9106 46.9304 70.4318 46.9304H68.3521Z" fill="#5CA1DE"/>
<path id="Vector_10" d="M80.2205 68.9353C80.2205 72.4228 77.3871 75.2752 73.9228 75.2752H64.8575C61.395 75.2752 58.5615 72.4228 58.5615 68.9353V59.8094C58.5615 56.3237 61.395 53.4695 64.8575 53.4695H73.9228C77.3853 53.4695 80.2205 56.3237 80.2205 59.8094V68.9353Z" fill="#5CA1DE"/>
</g>
<path id="Vector_11" d="M72.6397 61.1135C72.6397 59.307 71.1856 57.8413 69.3911 57.8413C67.5966 57.8413 66.1406 59.307 66.1406 61.1135C66.1406 62.4088 66.8962 63.5192 67.9815 64.0485L66.3669 70.1767C66.3046 70.4834 66.5077 70.7328 66.8178 70.7328H71.9643C72.2744 70.7328 72.4776 70.4834 72.417 70.1767L70.8007 64.0467C71.8859 63.5174 72.6397 62.407 72.6397 61.1117V61.1135Z" fill="#F0F9FF"/>
</g>
</g>
<g id="Group_11">
<g id="Group_12">
<g id="Group_13">
<path id="Vector_12" opacity="0.9" d="M143.998 62.1753H103.237V85.592H143.998V62.1753Z" fill="#D9F1FF"/>
<path id="Vector_13" d="M143.998 62.1753H103.237V65.5838H143.998V62.1753Z" fill="#FDA353"/>
</g>
<g id="Group_14">
<path id="Vector_14" d="M105.433 63.8365C105.433 64.1074 105.214 64.3281 104.945 64.3281C104.675 64.3281 104.456 64.1074 104.456 63.8365C104.456 63.5656 104.675 63.345 104.945 63.345C105.214 63.345 105.433 63.5656 105.433 63.8365Z" fill="#D9F1FF"/>
<path id="Vector_15" d="M107.272 63.8365C107.272 64.1074 107.053 64.3281 106.784 64.3281C106.515 64.3281 106.295 64.1074 106.295 63.8365C106.295 63.5656 106.515 63.345 106.784 63.345C107.053 63.345 107.272 63.5656 107.272 63.8365Z" fill="#D9F1FF"/>
<path id="Vector_16" d="M109.109 63.8365C109.109 64.1074 108.89 64.3281 108.621 64.3281C108.352 64.3281 108.133 64.1074 108.133 63.8365C108.133 63.5656 108.352 63.345 108.621 63.345C108.89 63.345 109.109 63.5656 109.109 63.8365Z" fill="#D9F1FF"/>
</g>
</g>
<g id="Group_15">
<g id="Group_16">
<path id="Vector_17" d="M118.551 75.1906C118.551 78.3104 116.04 80.8381 112.941 80.8381C109.842 80.8381 107.331 78.3104 107.331 75.1906C107.331 72.0709 109.842 69.5432 112.941 69.5432C116.04 69.5432 118.551 72.0709 118.551 75.1906Z" fill="#FDA353"/>
<path id="Vector_18" d="M114.327 73.8361C114.327 73.0665 113.707 72.4404 112.941 72.4404C112.174 72.4404 111.554 73.0665 111.554 73.8361C111.554 74.3887 111.875 74.8641 112.34 75.0901L111.649 77.7075C111.624 77.8385 111.711 77.9443 111.843 77.9443H114.038C114.172 77.9443 114.258 77.8385 114.233 77.7075L113.543 75.0901C114.006 74.8641 114.327 74.3905 114.327 73.8361Z" fill="#005D77"/>
</g>
<g id="Group_17">
<g id="Group_18">
<path id="Vector_19" d="M131.709 69.188H121.714V69.8858H131.709V69.188Z" fill="#5CA1DE"/>
<path id="Vector_20" d="M139.752 71.0376H121.714V71.7355H139.752V71.0376Z" fill="#5CA1DE"/>
</g>
<g id="Group_19">
<path id="Vector_21" d="M139.752 75.51C139.752 76.581 138.579 77.4565 137.146 77.4565H124.319C122.885 77.4565 121.714 76.5792 121.714 75.51C121.714 74.4408 122.886 73.5618 124.319 73.5618H137.146C138.579 73.5618 139.752 74.439 139.752 75.51Z" fill="#F0F9FF"/>
<g id="Group_20">
<path id="Vector_22" d="M126.452 75.5099C126.452 75.6857 126.311 75.8274 126.137 75.8274C125.962 75.8274 125.821 75.6857 125.821 75.5099C125.821 75.3341 125.962 75.1924 126.137 75.1924C126.311 75.1924 126.452 75.3341 126.452 75.5099Z" fill="#005D77"/>
<path id="Vector_23" d="M128.291 75.5099C128.291 75.6857 128.152 75.8274 127.976 75.8274C127.8 75.8274 127.661 75.6857 127.661 75.5099C127.661 75.3341 127.803 75.1924 127.976 75.1924C128.149 75.1924 128.291 75.3341 128.291 75.5099Z" fill="#005D77"/>
<path id="Vector_24" d="M130.13 75.5099C130.13 75.6857 129.99 75.8274 129.813 75.8274C129.637 75.8274 129.498 75.6857 129.498 75.5099C129.498 75.3341 129.639 75.1924 129.813 75.1924C129.988 75.1924 130.13 75.3341 130.13 75.5099Z" fill="#005D77"/>
<path id="Vector_25" d="M131.968 75.5099C131.968 75.6857 131.829 75.8274 131.652 75.8274C131.476 75.8274 131.337 75.6857 131.337 75.5099C131.337 75.3341 131.478 75.1924 131.652 75.1924C131.827 75.1924 131.968 75.3341 131.968 75.5099Z" fill="#005D77"/>
<path id="Vector_26" d="M133.807 75.5099C133.807 75.6857 133.666 75.8274 133.491 75.8274C133.317 75.8274 133.176 75.6857 133.176 75.5099C133.176 75.3341 133.317 75.1924 133.491 75.1924C133.666 75.1924 133.807 75.3341 133.807 75.5099Z" fill="#005D77"/>
<path id="Vector_27" d="M135.644 75.5099C135.644 75.6857 135.503 75.8274 135.327 75.8274C135.15 75.8274 135.011 75.6857 135.011 75.5099C135.011 75.3341 135.154 75.1924 135.327 75.1924C135.5 75.1924 135.644 75.3341 135.644 75.5099Z" fill="#005D77"/>
</g>
</g>
<g id="Group_21">
<path id="Vector_28" d="M130.182 79.4817H121.714V82.0363H130.182V79.4817Z" fill="#6AB3EA"/>
<path id="Vector_29" opacity="0.9" d="M129.077 80.4092H122.819V81.107H129.077V80.4092Z" fill="#D9F1FF"/>
</g>
</g>
</g>
</g>
<g id="Group_22">
<g id="Group_23">
<g id="Group_24">
<g id="Group_25">
<path id="Vector_30" d="M135.528 41.8426H110.122V12.8735H129.808L135.528 19.095V41.8426Z" fill="#D9F1FF"/>
<path id="Vector_31" d="M129.808 12.8735L135.528 19.095H129.808V12.8735Z" fill="#9FDDFC"/>
</g>
<g id="Group_26">
<path id="Vector_32" d="M127.147 17.1323H112.882V17.9468H127.147V17.1323Z" fill="#9FDDFC"/>
<path id="Vector_33" d="M127.147 20.0044H112.882V20.8189H127.147V20.0044Z" fill="#9FDDFC"/>
<path id="Vector_34" d="M133.233 22.8767H112.882V23.6912H133.233V22.8767Z" fill="#9FDDFC"/>
<path id="Vector_35" d="M133.233 25.7488H112.882V26.5632H133.233V25.7488Z" fill="#9FDDFC"/>
<path id="Vector_36" d="M133.233 28.6208H112.882V29.4353H133.233V28.6208Z" fill="#9FDDFC"/>
<path id="Vector_37" d="M133.233 31.4932H112.882V32.3076H133.233V31.4932Z" fill="#9FDDFC"/>
<path id="Vector_38" d="M133.233 34.3652H112.882V35.1797H133.233V34.3652Z" fill="#9FDDFC"/>
<path id="Vector_39" d="M133.233 37.2373H112.882V38.0518H133.233V37.2373Z" fill="#9FDDFC"/>
</g>
</g>
<g id="Group_27">
<path id="Vector_40" d="M125.748 25.216C124.668 25.216 123.785 24.3351 123.785 23.257C123.785 22.1788 122.901 21.2961 121.821 21.2961H108.751C107.671 21.2961 106.887 22.1806 107.008 23.2605L109.37 44.2626C109.491 45.3426 110.474 46.227 111.554 46.227H134.728C135.808 46.227 136.809 45.3443 136.952 44.268L139.235 27.175C139.377 26.0968 138.611 25.216 137.531 25.216H125.747H125.748Z" fill="#5CA1DE"/>
<path id="Vector_41" d="M123.923 25.216C122.844 25.216 121.96 24.3351 121.96 23.257C121.96 22.1788 121.076 21.2961 119.996 21.2961H106.926C105.846 21.2961 105.062 22.1806 105.183 23.2605L107.545 44.2626C107.666 45.3426 108.65 46.227 109.729 46.227H132.905C133.985 46.227 134.986 45.3443 135.129 44.268L137.412 27.175C137.554 26.0968 136.788 25.216 135.708 25.216H123.923Z" fill="#AEDCFF"/>
</g>
</g>
<path id="Vector_42" d="M128.211 29.6706C125.112 29.6186 122.648 27.8264 121.99 27.3008C121.332 27.8264 118.868 29.6186 115.769 29.6706C115.769 29.6706 112.725 40.0757 121.99 43.5022C131.257 40.0757 128.211 29.6706 128.211 29.6706ZM123.897 39.1123C123.936 39.306 123.808 39.4621 123.612 39.4621H120.368C120.172 39.4621 120.046 39.3043 120.085 39.1123L121.103 35.2517C120.418 34.918 119.942 34.2183 119.942 33.4021C119.942 32.2647 120.86 31.3408 121.99 31.3408C123.12 31.3408 124.038 32.2647 124.038 33.4021C124.038 34.2183 123.562 34.9162 122.879 35.2499L123.897 39.1105V39.1123Z" fill="#F0F9FF"/>
</g>
<g id="Group_28">
<g id="Group_29">
<path id="Vector_43" d="M32.1571 67.3152H4.21814V85.2262H32.1571V67.3152Z" fill="#AEDCFF"/>
<path id="Vector_44" d="M4.21814 67.3152L18.1876 79.3366L32.1571 67.3152H4.21814Z" fill="#5CA1DE"/>
<g id="Clip path group">
<mask id="mask0_4_1683" style="mask-type:luminance" maskUnits="userSpaceOnUse" x="4" y="67" width="29" height="19">
<g id="clippath">
<path id="Vector_45" d="M32.1571 67.3152H4.21814V85.2262H32.1571V67.3152Z" fill="white"/>
</g>
</mask>
<g mask="url(#mask0_4_1683)">
<g id="Group_30">
<g id="Group_31">
<path id="Vector_46" d="M4.62272 85.6334C8.91745 81.6651 13.2157 77.7004 17.5123 73.7303C18.0558 73.228 17.2449 72.4172 16.7032 72.9177C12.4067 76.8842 8.11196 80.8506 3.81367 84.8171C3.26836 85.3194 4.08098 86.1321 4.62272 85.6316V85.6334Z" fill="#5CA1DE"/>
<path id="Vector_47" d="M31.847 85.6334C27.5523 81.6651 23.2558 77.7004 18.9575 73.7303C18.4139 73.228 19.223 72.4172 19.7647 72.9177C24.0612 76.8842 28.3595 80.8506 32.6543 84.8171C33.1978 85.3194 32.3887 86.1321 31.8452 85.6316L31.847 85.6334Z" fill="#5CA1DE"/>
</g>
</g>
</g>
</g>
</g>
<g id="Group_32">
<g id="Group_33">
<g id="Group_34">
<path id="Vector_48" d="M23.5248 60.7689C19.779 64.5398 19.779 70.6555 23.5248 74.4264C27.2707 78.1973 33.3457 78.1973 37.0916 74.4264C40.8374 70.6555 40.8374 64.5416 37.0916 60.7689C33.3457 56.9979 27.2707 56.9979 23.5248 60.7689ZM35.5537 72.8764C32.6561 75.7916 27.9604 75.7934 25.0628 72.8764C22.1669 69.9594 22.1669 65.2323 25.0628 62.3153C27.9586 59.4001 32.6561 59.4001 35.5537 62.3153C38.4495 65.2323 38.4495 69.9594 35.5537 72.8746V72.8764Z" fill="#F0F9FF"/>
<path id="Vector_49" d="M35.5536 72.8764C32.656 75.7916 27.9603 75.7934 25.0627 72.8764C22.1669 69.9594 22.1669 65.2323 25.0627 62.3153C27.9586 59.4001 32.656 59.4001 35.5536 62.3153C38.4495 65.2323 38.4495 69.9594 35.5536 72.8746V72.8764Z" fill="#FDA353"/>
</g>
<g id="Group_35">
<path id="Vector_50" d="M36.389 72.0388L34.7173 73.72L42.4779 81.5407L44.1497 79.8596L36.389 72.0388Z" fill="#F0F9FF"/>
<path id="Vector_51" d="M44.1538 79.8532L42.4822 81.5359L40.8107 79.8532L42.4822 78.1704L44.1538 79.8532Z" fill="#5C9FDC"/>
</g>
</g>
<path id="Vector_52" d="M34.4221 67.8803C33.7984 67.9449 33.1764 68.0113 32.5527 68.0758C32.5296 67.561 32.4084 67.0802 32.2141 66.6676C32.7719 66.3142 33.3297 65.9625 33.8875 65.6109C34.1566 65.4405 33.9089 65.0117 33.638 65.1822C33.082 65.5338 32.5242 65.8854 31.9664 66.237C31.8167 66.0182 31.6439 65.828 31.4514 65.6755C31.5993 65.4531 31.6867 65.1858 31.6867 64.8987C31.6867 64.1291 31.0683 63.5066 30.3038 63.5066C29.5393 63.5066 28.9209 64.1291 28.9209 64.8987C28.9209 65.1858 29.0082 65.4531 29.1562 65.6755C28.9637 65.828 28.7908 66.0182 28.6411 66.237C28.0834 65.8854 27.5274 65.5338 26.9696 65.1822C26.6987 65.0117 26.4528 65.4405 26.7201 65.6109C27.2779 65.9643 27.8357 66.316 28.3934 66.6676C28.1992 67.0802 28.078 67.5592 28.0548 68.0758C27.4311 68.0095 26.8092 67.9449 26.1855 67.8803C25.8701 67.8462 25.8718 68.3431 26.1855 68.3772C26.811 68.4436 27.4365 68.5082 28.062 68.5746C28.0958 69.0213 28.2045 69.4375 28.3685 69.8034C27.923 70.2214 27.4775 70.6412 27.032 71.0592C26.7985 71.2781 27.1478 71.6297 27.3812 71.4108C27.7929 71.0251 28.2045 70.6376 28.6144 70.2519C29.0261 70.8762 29.6302 71.2691 30.302 71.2691C30.9738 71.2691 31.5762 70.8762 31.9896 70.2519C32.4013 70.6376 32.8129 71.0251 33.2228 71.4108C33.4544 71.6297 33.8055 71.2781 33.5721 71.0592C33.1266 70.6412 32.681 70.2214 32.2355 69.8034C32.3995 69.4375 32.5082 69.0195 32.542 68.5746C33.1675 68.5082 33.793 68.4436 34.4185 68.3772C34.7322 68.3449 34.734 67.848 34.4185 67.8803H34.4221Z" fill="#005D77"/>
</g>
</g>
<g id="Group_36">
<g id="Group_37">
<g id="Group_38">
<path id="Vector_53" d="M33.8535 45.2583H6.95178V14.585H27.7982L33.8535 21.1742V45.2583Z" fill="white"/>
<path id="Vector_54" d="M27.7982 14.585L33.8536 21.1742H27.7982V14.585Z" fill="#9FDDFC"/>
</g>
<g id="Group_39">
<path id="Vector_55" d="M24.9789 19.0967H9.8761V19.9578H24.9789V19.0967Z" fill="#9FDDFC"/>
<path id="Vector_56" d="M24.9789 22.1375H9.8761V22.9986H24.9789V22.1375Z" fill="#9FDDFC"/>
<path id="Vector_57" d="M31.4228 25.1782H9.8761V26.0393H31.4228V25.1782Z" fill="#9FDDFC"/>
<path id="Vector_58" d="M31.4228 28.219H9.8761V29.0801H31.4228V28.219Z" fill="#9FDDFC"/>
<path id="Vector_59" d="M31.4228 31.2598H9.8761V32.1209H31.4228V31.2598Z" fill="#9FDDFC"/>
<path id="Vector_60" d="M31.4228 34.3005H9.8761V35.1616H31.4228V34.3005Z" fill="#9FDDFC"/>
<path id="Vector_61" d="M31.4228 37.3413H9.8761V38.2024H31.4228V37.3413Z" fill="#9FDDFC"/>
<path id="Vector_62" d="M31.4228 40.3804H9.8761V41.2415H31.4228V40.3804Z" fill="#9FDDFC"/>
</g>
</g>
<g id="Group_40">
<path id="Vector_63" d="M15.9101 40.4075C15.9101 44.8296 12.3478 48.4158 7.95505 48.4158C3.56231 48.4158 0 44.8314 0 40.4075C0 35.9835 3.56231 32.3992 7.95505 32.3992C12.3478 32.3992 15.9101 35.9853 15.9101 40.4075Z" fill="#FDA353"/>
<g id="Group_41">
<g id="Group_42">
<path id="Vector_64" d="M8.29542 40.2891H7.61824C6.46526 40.2891 5.52612 39.3437 5.52612 38.183V37.5802C5.52612 36.4195 6.46526 35.4741 7.61824 35.4741H8.29542C9.44841 35.4741 10.3875 36.4195 10.3875 37.5802V38.183C10.3875 39.3437 9.44841 40.2891 8.29542 40.2891ZM7.61646 36.1056C6.8092 36.1056 6.15162 36.7676 6.15162 37.5802V38.183C6.15162 38.9957 6.8092 39.6577 7.61646 39.6577H8.29364C9.10091 39.6577 9.75848 38.9957 9.75848 38.183V37.5802C9.75848 36.7676 9.10091 36.1056 8.29364 36.1056H7.61646Z" fill="#F0F9FF"/>
<path id="Vector_65" d="M6.47955 38.2368H9.4324C10.564 38.2368 11.4835 39.1625 11.4835 40.3017V43.2761C11.4835 44.4171 10.564 45.3427 9.43062 45.3427H6.47777C5.34617 45.3427 4.42664 44.4171 4.42664 43.2779V40.3035C4.42664 39.1625 5.34617 38.2368 6.47955 38.2368Z" fill="#F0F9FF"/>
</g>
<path id="Vector_66" d="M9.01368 40.7268C9.01368 40.1383 8.53965 39.6611 7.95514 39.6611C7.37063 39.6611 6.89661 40.1383 6.89661 40.7268C6.89661 41.1483 7.14253 41.5107 7.49716 41.6829L6.97145 43.6796C6.95185 43.7801 7.01779 43.8608 7.11758 43.8608H8.79448C8.89606 43.8608 8.962 43.7801 8.94239 43.6796L8.41669 41.6829C8.76954 41.5107 9.01546 41.1483 9.01546 40.7268H9.01368Z" fill="#FDA353"/>
</g>
</g>
</g>
<g id="Group_43">
<g id="Group_44">
<path id="Vector_67" d="M58.1339 18.1353C56.9114 19.9454 57.6919 21.4272 59.866 21.4272H78.1712C80.3453 21.4272 81.1241 19.9454 79.9016 18.1353L71.2391 5.30119C70.0166 3.49107 68.0171 3.49107 66.7964 5.30119L58.1339 18.1353Z" fill="#FBA153"/>
<path id="Vector_68" d="M79.8998 18.1352L71.2373 5.30109C70.4746 4.17268 69.4125 3.74751 68.4235 4.02558C69.0204 4.19421 69.5907 4.61759 70.0523 5.30109L78.7148 18.1352C79.9373 19.9453 79.1567 21.4271 76.9826 21.4271H78.1677C80.3418 21.4271 81.1205 19.9453 79.8981 18.1352H79.8998Z" fill="#F5882F"/>
</g>
<g id="Group_45">
<path id="Vector_69" d="M69.0168 8.28809C68.5749 8.28809 68.2167 8.64867 68.2167 9.09358V16.1887C68.2167 16.6336 68.5749 16.9942 69.0168 16.9942C69.4588 16.9942 69.817 16.6336 69.817 16.1887V9.09358C69.817 8.64867 69.4588 8.28809 69.0168 8.28809Z" fill="#035D77"/>
<path id="Vector_70" d="M69.0168 17.7261C68.5749 17.7261 68.2167 18.0867 68.2167 18.5316C68.2167 18.9765 68.5749 19.3371 69.0168 19.3371C69.4588 19.3371 69.817 18.9765 69.817 18.5316C69.817 18.0867 69.4588 17.7261 69.0168 17.7261Z" fill="#035D77"/>
</g>
</g>
</g>
<g id="Group_46">
<path id="Vector_71" d="M101.393 39.9877L100.555 37.2017L99.7161 39.9877L96.9486 40.8129L99.7161 41.6382L100.555 44.4224L101.393 41.6382L104.161 40.8129L101.393 39.9877Z" fill="#F0F9FF"/>
<path id="Vector_72" d="M39.9855 53.6129L39.4367 51.7866L38.886 53.6129L37.0719 54.1529L38.886 54.6946L39.4367 56.5209L39.9855 54.6946L41.7997 54.1529L39.9855 53.6129Z" fill="#F0F9FF"/>
</g>
<g id="Group_47">
<path id="Vector_73" d="M130.428 52.8468L129.792 50.7371L129.157 52.8468L127.063 53.4711L129.157 54.0954L129.792 56.2033L130.428 54.0954L132.522 53.4711L130.428 52.8468Z" fill="#5C9FDC"/>
<path id="Vector_74" d="M95.5818 13.1912L94.6177 9.98535L93.6519 13.1912L90.4691 14.1402L93.6519 15.091L94.6177 18.295L95.5818 15.091L98.7681 14.1402L95.5818 13.1912Z" fill="#5C9FDC"/>
<path id="Vector_75" d="M7.05685 57.4519L6.09099 54.2461L5.1269 57.4519L1.94238 58.4009L5.1269 59.3517L6.09099 62.5558L7.05685 59.3517L10.2414 58.4009L7.05685 57.4519Z" fill="#5C9FDC"/>
<path id="Vector_76" d="M44.0503 13.9607L43.4141 11.8528L42.7797 13.9607L40.6858 14.585L42.7797 15.2093L43.4141 17.319L44.0503 15.2093L46.1442 14.585L44.0503 13.9607Z" fill="#5C9FDC"/>
<path id="Vector_77" d="M106.814 3.43186L106.295 1.70605L105.775 3.43186L104.061 3.94314L105.775 4.45442L106.295 6.18022L106.814 4.45442L108.528 3.94314L106.814 3.43186Z" fill="#5C9FDC"/>
<path id="Vector_78" d="M31.045 3.20583L30.0791 0L29.1151 3.20583L25.9305 4.15484L29.1151 5.10385L30.0791 8.30968L31.045 5.10385L34.2295 4.15484L31.045 3.20583Z" fill="#5C9FDC"/>
</g>
</g>
<path id="Vector_79" d="M142.87 107.52C142.87 108.336 142.213 109 141.4 109H2.59824C1.78741 109 1.12805 108.338 1.12805 107.52C1.12805 106.704 1.78563 106.04 2.59824 106.04H141.4C142.211 106.04 142.87 106.702 142.87 107.52Z" fill="#CAEBFF"/>
</g>
<defs>
<clipPath id="clip0_4_1683">
<rect width="144" height="109" fill="white"/>
</clipPath>
</defs>
</svg>
