<svg width="63" height="73" viewBox="0 0 63 73" fill="none" xmlns="http://www.w3.org/2000/svg">
<path fill-rule="evenodd" clip-rule="evenodd" d="M55.8516 41.0232H6.47656V63.8739C6.47656 64.9639 7.19127 65.9255 8.23555 66.239C13.1965 67.7264 27.1474 71.9122 30.4543 72.9046C30.9172 73.0429 31.4109 73.0429 31.8738 72.9046C35.1807 71.9122 49.1316 67.7264 54.0926 66.239C55.1369 65.9255 55.8516 64.9639 55.8516 63.8739C55.8516 58.1514 55.8516 41.0232 55.8516 41.0232Z" fill="url(#paint0_linear_375_15688)"/>
<path fill-rule="evenodd" clip-rule="evenodd" d="M55.8506 41.0232H31.1631C31.1631 41.0232 30.9236 73.0083 31.1631 73.0083C31.4025 73.0083 31.6408 72.9738 31.8728 72.9046C35.1797 71.9122 49.1306 67.7264 54.0916 66.239C55.1359 65.9255 55.8506 64.9639 55.8506 63.8739C55.8506 58.1514 55.8506 41.0232 55.8506 41.0232Z" fill="url(#paint1_linear_375_15688)"/>
<path fill-rule="evenodd" clip-rule="evenodd" d="M31.1635 49.0331L6.47596 41.0232C6.47596 41.0232 2.14701 47.4419 0.211507 50.3106C-0.00574262 50.6328 -0.0588209 51.0364 0.0670854 51.4031C0.194226 51.7697 0.484304 52.0548 0.853382 52.1758C5.54277 53.699 19.4246 58.2094 23.066 59.3919C23.5881 59.5623 24.1609 59.366 24.4694 58.9105C26.1247 56.4677 31.1635 49.0331 31.1635 49.0331Z" fill="url(#paint2_linear_375_15688)"/>
<path fill-rule="evenodd" clip-rule="evenodd" d="M55.8516 41.0232L31.1641 49.0331C31.1641 49.0331 36.2028 56.4677 37.8581 58.9105C38.1667 59.366 38.7394 59.5623 39.2616 59.3919C42.903 58.2094 56.7847 53.699 61.4741 52.1758C61.8432 52.0548 62.1333 51.7697 62.2604 51.4031C62.3863 51.0364 62.3333 50.6328 62.116 50.3106C60.1805 47.4419 55.8516 41.0232 55.8516 41.0232Z" fill="url(#paint3_linear_375_15688)"/>
<path fill-rule="evenodd" clip-rule="evenodd" d="M25.1882 24.1975C24.8796 23.7445 24.3081 23.5482 23.7859 23.7185C20.147 24.8998 6.26152 29.4115 1.57213 30.9359C1.20305 31.0557 0.911742 31.3408 0.785835 31.7074C0.659929 32.074 0.713007 32.4789 0.930257 32.7998C2.71269 35.4439 6.4763 41.0232 6.4763 41.0232L31.1638 32.9862C31.1638 32.9862 26.7299 26.465 25.1882 24.1975Z" fill="url(#paint4_linear_375_15688)"/>
<path fill-rule="evenodd" clip-rule="evenodd" d="M61.3976 32.7998C61.6149 32.4789 61.6679 32.074 61.542 31.7074C61.4161 31.3408 61.1248 31.0557 60.7557 30.9359C56.0663 29.4115 42.1809 24.8998 38.5419 23.7185C38.0198 23.5482 37.4483 23.7445 37.1397 24.1975C35.5979 26.465 31.1641 32.9862 31.1641 32.9862L55.8516 41.0232C55.8516 41.0232 59.6152 35.4439 61.3976 32.7998Z" fill="url(#paint5_linear_375_15688)"/>
<path fill-rule="evenodd" clip-rule="evenodd" d="M55.8516 41.0232L31.1641 32.9862L6.47656 41.0232L31.1641 49.0331L55.8516 41.0232Z" fill="url(#paint6_linear_375_15688)"/>
<path fill-rule="evenodd" clip-rule="evenodd" d="M31.1641 49.0331V32.9862L6.47656 41.0232L31.1641 49.0331Z" fill="url(#paint7_linear_375_15688)"/>
<path fill-rule="evenodd" clip-rule="evenodd" d="M26.2042 36.5312C25.6907 36.1955 25.2278 35.8363 24.8168 35.4598C24.3156 34.9994 23.5343 35.0327 23.0726 35.5351C22.6122 36.0363 22.6455 36.8176 23.1479 37.278C23.6528 37.7422 24.2218 38.1841 24.8538 38.5976C25.4241 38.9704 26.1894 38.8099 26.5622 38.2396C26.935 37.6693 26.7745 36.904 26.2042 36.5312Z" fill="url(#paint8_linear_375_15688)"/>
<path fill-rule="evenodd" clip-rule="evenodd" d="M22.3575 32.7393C21.9909 32.2419 21.6811 31.742 21.4268 31.242C21.1182 30.6347 20.3739 30.3928 19.7666 30.7014C19.1593 31.01 18.9173 31.7543 19.2259 32.3616C19.5395 32.9763 19.9196 33.5923 20.3702 34.2033C20.7738 34.7514 21.5465 34.8686 22.0958 34.465C22.6439 34.0601 22.7612 33.2874 22.3575 32.7393Z" fill="url(#paint9_linear_375_15688)"/>
<path fill-rule="evenodd" clip-rule="evenodd" d="M20.5531 27.7019C20.5654 27.2044 20.6383 26.7218 20.7716 26.2589C20.9592 25.6047 20.5802 24.9196 19.9248 24.732C19.2706 24.5443 18.5855 24.9233 18.3979 25.5787C18.209 26.2404 18.1028 26.9304 18.0843 27.6402C18.0683 28.3215 18.6065 28.8881 19.2879 28.9042C19.9692 28.9214 20.5358 28.3832 20.5531 27.7019Z" fill="url(#paint10_linear_375_15688)"/>
<path fill-rule="evenodd" clip-rule="evenodd" d="M22.4517 23.579C22.7689 23.2853 23.1244 23.0137 23.5133 22.768C24.0897 22.4039 24.2625 21.6411 23.8996 21.0658C23.5355 20.4894 22.7726 20.3166 22.1962 20.6795C21.6741 21.0091 21.2001 21.3732 20.7742 21.7682C20.2743 22.2311 20.2446 23.0125 20.7075 23.5124C21.1704 24.0123 21.9518 24.0419 22.4517 23.579Z" fill="url(#paint11_linear_375_15688)"/>
<path fill-rule="evenodd" clip-rule="evenodd" d="M27.043 21.4498C27.6639 21.335 28.3218 21.2609 29.0155 21.2325C29.6969 21.2029 30.2252 20.6264 30.1968 19.9463C30.1684 19.2662 29.592 18.7366 28.9106 18.765C28.0959 18.7996 27.3232 18.8872 26.5937 19.0218C25.9247 19.1464 25.4803 19.7908 25.6049 20.4598C25.7284 21.1301 26.3727 21.5732 27.043 21.4498Z" fill="url(#paint12_linear_375_15688)"/>
<path fill-rule="evenodd" clip-rule="evenodd" d="M33.4755 21.3768C34.5284 21.3892 35.5085 21.3521 36.4183 21.2719C37.0972 21.2114 37.5996 20.6115 37.5391 19.9326C37.4786 19.2549 36.8787 18.7526 36.1998 18.813C35.3666 18.8859 34.4692 18.9204 33.5039 18.9081C32.8225 18.9007 32.2634 19.4475 32.256 20.1276C32.2473 20.809 32.7942 21.3694 33.4755 21.3768Z" fill="url(#paint13_linear_375_15688)"/>
<path fill-rule="evenodd" clip-rule="evenodd" d="M40.4758 20.5153C41.6979 20.1413 42.7298 19.6624 43.5939 19.1131C44.1679 18.7465 44.3382 17.9836 43.9716 17.4084C43.6062 16.8344 42.8421 16.6641 42.2669 17.0307C41.572 17.4726 40.7388 17.8528 39.7537 18.154C39.1032 18.3539 38.7354 19.0439 38.9353 19.6957C39.1341 20.3474 39.8253 20.7141 40.4758 20.5153Z" fill="url(#paint14_linear_375_15688)"/>
<path fill-rule="evenodd" clip-rule="evenodd" d="M46.7583 15.658C47.3409 14.4533 47.5644 13.1794 47.5076 11.9512C47.4755 11.2698 46.8966 10.744 46.2164 10.7761C45.5363 10.8081 45.0092 11.3858 45.0413 12.066C45.0808 12.9004 44.9302 13.7657 44.5352 14.5841C44.239 15.1976 44.4957 15.937 45.1092 16.2332C45.7227 16.5295 46.4621 16.2715 46.7583 15.658Z" fill="url(#paint15_linear_375_15688)"/>
<path fill-rule="evenodd" clip-rule="evenodd" d="M45.9732 7.58645C45.0733 6.37059 43.8525 5.52381 42.5219 5.25101C41.8541 5.11523 41.2011 5.54479 41.0641 6.21259C40.9283 6.88038 41.3591 7.53337 42.0256 7.67038C42.7934 7.82715 43.4699 8.35423 43.9895 9.05659C44.3956 9.60342 45.1696 9.71821 45.7164 9.31334C46.2645 8.90723 46.3793 8.13327 45.9732 7.58645Z" fill="url(#paint16_linear_375_15688)"/>
<path fill-rule="evenodd" clip-rule="evenodd" d="M29.8457 5.49049C31.1813 -2.07253 42.756 -1.58372 36.0176 5.49049H29.8457Z" fill="url(#paint17_linear_375_15688)"/>
<path fill-rule="evenodd" clip-rule="evenodd" d="M29.8457 7.40625C31.1813 14.968 42.756 14.4805 36.0176 7.40625H29.8457Z" fill="url(#paint18_linear_375_15688)"/>
<path fill-rule="evenodd" clip-rule="evenodd" d="M29.7344 7.69507H37.9998C38.6811 7.69507 39.2341 7.14207 39.2341 6.46069C39.2341 5.77932 38.6811 5.22632 37.9998 5.22632H29.7344C29.0542 5.22632 28.5 5.77932 28.5 6.46069C28.5 7.14207 29.0542 7.69507 29.7344 7.69507Z" fill="url(#paint19_linear_375_15688)"/>
<defs>
<linearGradient id="paint0_linear_375_15688" x1="6.47656" y1="57.0158" x2="55.8516" y2="57.0158" gradientUnits="userSpaceOnUse">
<stop stop-color="#CADCF0"/>
<stop offset="1" stop-color="#A4BBDB"/>
</linearGradient>
<linearGradient id="paint1_linear_375_15688" x1="31.0569" y1="57.0158" x2="55.8506" y2="57.0158" gradientUnits="userSpaceOnUse">
<stop stop-color="#A4BBDB"/>
<stop offset="1" stop-color="#8DA3BE"/>
</linearGradient>
<linearGradient id="paint2_linear_375_15688" x1="6.64013" y1="41.0133" x2="10.0905" y2="63.8411" gradientUnits="userSpaceOnUse">
<stop stop-color="#E9F3FC"/>
<stop offset="1" stop-color="#CADCF0"/>
</linearGradient>
<linearGradient id="paint3_linear_375_15688" x1="31.264" y1="48.9491" x2="57.2893" y2="63.917" gradientUnits="userSpaceOnUse">
<stop stop-color="#E9F3FC"/>
<stop offset="1" stop-color="#CADCF0"/>
</linearGradient>
<linearGradient id="paint4_linear_375_15688" x1="3.24471" y1="36.2326" x2="6.96887" y2="18.677" gradientUnits="userSpaceOnUse">
<stop stop-color="#E9F3FC"/>
<stop offset="1" stop-color="#CADCF0"/>
</linearGradient>
<linearGradient id="paint5_linear_375_15688" x1="37.7729" y1="23.421" x2="39.1046" y2="45.0902" gradientUnits="userSpaceOnUse">
<stop stop-color="#E9F3FC"/>
<stop offset="1" stop-color="#CADCF0"/>
</linearGradient>
<linearGradient id="paint6_linear_375_15688" x1="6.47656" y1="41.0096" x2="55.8516" y2="41.0096" gradientUnits="userSpaceOnUse">
<stop stop-color="#CADCF0"/>
<stop offset="1" stop-color="#A4BBDB"/>
</linearGradient>
<linearGradient id="paint7_linear_375_15688" x1="33.6921" y1="32.627" x2="34.2241" y2="52.5659" gradientUnits="userSpaceOnUse">
<stop stop-color="#A4BBDB"/>
<stop offset="1" stop-color="#8DA3BE"/>
</linearGradient>
<linearGradient id="paint8_linear_375_15688" x1="17.5747" y1="5.49042" x2="41.9215" y2="34.218" gradientUnits="userSpaceOnUse">
<stop stop-color="#559AFF"/>
<stop offset="1" stop-color="#2E69EF"/>
</linearGradient>
<linearGradient id="paint9_linear_375_15688" x1="17.5743" y1="5.49051" x2="41.9212" y2="34.2181" gradientUnits="userSpaceOnUse">
<stop stop-color="#559AFF"/>
<stop offset="1" stop-color="#2E69EF"/>
</linearGradient>
<linearGradient id="paint10_linear_375_15688" x1="17.5745" y1="5.49054" x2="41.9213" y2="34.2181" gradientUnits="userSpaceOnUse">
<stop stop-color="#559AFF"/>
<stop offset="1" stop-color="#2E69EF"/>
</linearGradient>
<linearGradient id="paint11_linear_375_15688" x1="17.5747" y1="5.4905" x2="41.9215" y2="34.2181" gradientUnits="userSpaceOnUse">
<stop stop-color="#559AFF"/>
<stop offset="1" stop-color="#2E69EF"/>
</linearGradient>
<linearGradient id="paint12_linear_375_15688" x1="17.5753" y1="5.49053" x2="41.9222" y2="34.2181" gradientUnits="userSpaceOnUse">
<stop stop-color="#559AFF"/>
<stop offset="1" stop-color="#2E69EF"/>
</linearGradient>
<linearGradient id="paint13_linear_375_15688" x1="17.5743" y1="5.49044" x2="41.9211" y2="34.2181" gradientUnits="userSpaceOnUse">
<stop stop-color="#559AFF"/>
<stop offset="1" stop-color="#2E69EF"/>
</linearGradient>
<linearGradient id="paint14_linear_375_15688" x1="17.5745" y1="5.49051" x2="41.9213" y2="34.2181" gradientUnits="userSpaceOnUse">
<stop stop-color="#559AFF"/>
<stop offset="1" stop-color="#2E69EF"/>
</linearGradient>
<linearGradient id="paint15_linear_375_15688" x1="17.574" y1="5.49046" x2="41.9208" y2="34.2181" gradientUnits="userSpaceOnUse">
<stop stop-color="#559AFF"/>
<stop offset="1" stop-color="#2E69EF"/>
</linearGradient>
<linearGradient id="paint16_linear_375_15688" x1="17.5751" y1="5.49048" x2="41.922" y2="34.2181" gradientUnits="userSpaceOnUse">
<stop stop-color="#559AFF"/>
<stop offset="1" stop-color="#2E69EF"/>
</linearGradient>
<linearGradient id="paint17_linear_375_15688" x1="29.8457" y1="2.74524" x2="38.1098" y2="2.74524" gradientUnits="userSpaceOnUse">
<stop stop-color="#E9F3FC"/>
<stop offset="1" stop-color="#CADCF0"/>
</linearGradient>
<linearGradient id="paint18_linear_375_15688" x1="29.8457" y1="10.1515" x2="38.1098" y2="10.1515" gradientUnits="userSpaceOnUse">
<stop stop-color="#E9F3FC"/>
<stop offset="1" stop-color="#CADCF0"/>
</linearGradient>
<linearGradient id="paint19_linear_375_15688" x1="17.5733" y1="5.49047" x2="41.9201" y2="34.2181" gradientUnits="userSpaceOnUse">
<stop stop-color="#559AFF"/>
<stop offset="1" stop-color="#2E69EF"/>
</linearGradient>
</defs>
</svg>
