<svg width="63" height="63" viewBox="0 0 63 63" fill="none" xmlns="http://www.w3.org/2000/svg">
<path d="M10.8262 1.96875C10.5676 1.96966 10.3117 2.02152 10.0732 2.12135C9.83458 2.22118 9.61801 2.36703 9.43582 2.55058C9.25363 2.73412 9.10938 2.95176 9.01131 3.19106C8.91324 3.43036 8.86328 3.68664 8.86427 3.94525V59.0693C8.86611 59.5891 9.07341 60.087 9.44095 60.4546C9.80849 60.8221 10.3065 61.0294 10.8262 61.0313H52.1729C52.6927 61.0294 53.1906 60.8221 53.5582 60.4546C53.9257 60.087 54.133 59.5891 54.1349 59.0693V21.6611C54.1374 21.1999 53.978 20.7524 53.6843 20.3967L38.9187 2.68087C38.7344 2.45861 38.5034 2.27961 38.2423 2.15655C37.9811 2.03349 37.696 1.96938 37.4073 1.96877L10.8262 1.96875Z" fill="#ECECEC"/>
<mask id="mask0_1214_5327" style="mask-type:luminance" maskUnits="userSpaceOnUse" x="37" y="1" width="19" height="22">
<path d="M37.4438 1.03711L37.3584 22.5077L55.3136 22.2513L37.4438 1.03711Z" fill="white"/>
</mask>
<g mask="url(#mask0_1214_5327)">
<path d="M10.8282 1.9707C10.5696 1.97162 10.3137 2.02347 10.0751 2.1233C9.83654 2.22313 9.61998 2.36899 9.43778 2.55254C9.25559 2.73608 9.11134 2.95371 9.01327 3.19302C8.91521 3.43232 8.86523 3.68859 8.86623 3.9472V59.0712C8.86806 59.591 9.07537 60.089 9.44291 60.4565C9.81045 60.8241 10.3084 61.0314 10.8282 61.0332H52.1749C52.6946 61.0314 53.1926 60.8241 53.5601 60.4565C53.9277 60.089 54.135 59.591 54.1368 59.0712V21.663C54.1394 21.2018 53.9799 20.7543 53.6863 20.3987L38.9207 2.68282C38.7363 2.46057 38.5054 2.28156 38.2442 2.1585C37.983 2.03544 37.6979 1.97137 37.4092 1.97076L10.8282 1.9707Z" fill="#B2B2B2"/>
</g>
</svg>
