<svg width="71" height="70" viewBox="0 0 71 70" fill="none" xmlns="http://www.w3.org/2000/svg">
<path d="M30.4715 16C38.3764 16 44.7946 22.4977 44.7946 30.5006C44.7945 33.6342 43.8063 36.534 42.1344 38.9063L53.5499 50.4634C54.3479 51.2713 54.3479 52.5853 53.5499 53.3931C52.7506 54.2023 51.4543 54.2023 50.6549 53.3931L39.3074 41.9038C36.8723 43.8411 33.8057 45.0012 30.4715 45.0012C22.5666 45.0012 16.1485 38.5035 16.1484 30.5006C16.1484 22.4977 22.5666 16 30.4715 16ZM30.4715 20.1425C24.8255 20.1425 20.2403 24.7846 20.2403 30.5006C20.2403 36.2166 24.8255 40.8576 30.4715 40.8576C36.1174 40.8575 40.7016 36.2165 40.7016 30.5006C40.7016 24.7847 36.1174 20.1426 30.4715 20.1425Z" fill="url(#paint0_linear_854_4098)"/>
<defs>
<linearGradient id="paint0_linear_854_4098" x1="-3.88538" y1="34.6981" x2="54.1486" y2="34.6981" gradientUnits="userSpaceOnUse">
<stop stop-color="#559AFF"/>
<stop offset="1" stop-color="#2E69EF"/>
</linearGradient>
</defs>
</svg>
