<svg width="21" height="20" viewBox="0 0 21 20" fill="none" xmlns="http://www.w3.org/2000/svg">
<path d="M1.93468 18.5656C1.99272 18.6237 2.06165 18.6698 2.13752 18.7012C2.2134 18.7327 2.29473 18.7489 2.37686 18.7489C2.459 18.7489 2.54033 18.7327 2.6162 18.7012C2.69207 18.6698 2.761 18.6237 2.81905 18.5656L10.5003 10.8843L18.1847 18.5656C18.302 18.6829 18.461 18.7487 18.6269 18.7487C18.7927 18.7487 18.9518 18.6829 19.0691 18.5656C19.1863 18.4483 19.2522 18.2892 19.2522 18.1234C19.2522 17.9575 19.1863 17.7985 19.0691 17.6812L11.3847 9.99996L19.0659 2.31558C19.1832 2.19831 19.2491 2.03925 19.2491 1.87339C19.2491 1.70754 19.1832 1.54848 19.0659 1.43121C18.9487 1.31393 18.7896 1.24805 18.6237 1.24805C18.4579 1.24805 18.2988 1.31393 18.1816 1.43121L10.5003 9.11558L2.81593 1.43433C2.69636 1.33194 2.54256 1.27844 2.38527 1.28451C2.22797 1.29059 2.07876 1.3558 1.96745 1.4671C1.85614 1.57841 1.79093 1.72763 1.78486 1.88492C1.77878 2.04222 1.83228 2.19602 1.93468 2.31558L9.61593 9.99996L1.93468 17.6843C1.81827 17.8014 1.75293 17.9598 1.75293 18.125C1.75293 18.2901 1.81827 18.4485 1.93468 18.5656Z" fill="white"/>
</svg>
