<svg width="400" height="580" viewBox="0 0 400 580" fill="none" xmlns="http://www.w3.org/2000/svg">
<rect width="400" height="580" fill="#009476"/>
<g clip-path="url(#clip0_204_2)">
<path d="M70.6719 464.633V462.756H73.3263V464.633H76.9637V466.412H75.0958C75.9806 467.4 76.4721 468.882 76.4721 470.562C76.4721 473.823 74.6043 476.293 72.0482 476.293C69.3939 476.293 67.526 473.823 67.526 470.562C67.526 468.882 68.0176 467.4 68.9024 466.412H67.1328V464.633H70.6719ZM71.9499 466.412C70.8685 466.412 70.0821 467.993 70.0821 470.562C70.0821 472.934 70.8685 474.515 71.9499 474.515C73.0313 474.515 73.8178 472.934 73.8178 470.562C73.8178 467.993 73.0313 466.412 71.9499 466.412ZM81.2893 469.87V480.345H78.7332V462.756H81.2893V468.092H83.747V469.87H81.2893Z" fill="white"/>
<path d="M88.6631 473.527H92.9887C94.1684 473.527 95.0532 473.527 96.1346 473.033V462.756H98.6906V468.092H101.148V469.87H98.6906V480.345H96.1346V474.811C95.2498 475.206 93.9718 475.305 92.8904 475.305H87.0902C85.9105 475.305 85.124 474.218 85.124 472.934V463.546H87.68V472.835C87.68 472.835 87.975 473.527 88.5648 473.527H88.6631Z" fill="white"/>
<path d="M109.406 462.459C112.257 462.459 114.223 464.831 114.223 467.696C114.223 469.376 113.535 470.957 112.356 471.846H117.173V473.625H106.064V477.775C106.064 477.775 106.359 478.566 106.85 478.566H115.207V480.344H105.277C104.196 480.344 103.41 479.257 103.41 478.072V473.724H101.443V471.945H106.26C105.081 470.957 104.393 469.475 104.393 467.795C104.393 465.028 106.359 462.558 109.21 462.558L109.406 462.459ZM109.406 464.238C108.128 464.238 107.145 465.819 107.145 467.696C107.145 469.771 108.128 471.155 109.406 471.155C110.684 471.155 111.667 469.672 111.667 467.696C111.667 465.72 110.684 464.238 109.505 464.238H109.406Z" fill="white"/>
<path d="M120.318 464.039V462.359H122.972V464.039H125.823V465.818H124.545C125.135 466.51 125.528 467.399 125.528 468.387C125.528 470.66 123.759 472.438 121.596 472.438C119.335 472.438 117.663 470.561 117.663 468.387C117.663 467.399 118.057 466.51 118.548 465.818H117.467V464.039H120.219H120.318ZM121.694 465.917C120.908 465.917 120.318 467.004 120.318 468.387C120.318 469.672 120.908 470.759 121.694 470.759C122.481 470.759 123.07 469.672 123.07 468.387C123.07 467.004 122.579 465.917 121.694 465.917ZM126.708 472.142V462.755H129.166V466.411H130.444V462.755H132.901V476.391C132.901 478.96 130.444 480.838 128.084 480.838C125.43 480.838 123.169 479.059 123.169 476.391C123.169 474.316 124.643 472.636 126.61 472.142H126.708ZM128.084 473.723C127.003 473.723 125.823 474.711 125.823 476.49C125.823 478.268 127.003 479.158 128.084 479.158C129.166 479.158 130.345 478.17 130.345 476.49C130.345 474.711 129.166 473.723 128.084 473.723ZM129.264 468.189V472.043C129.264 472.043 130.149 472.34 130.542 472.537V468.189H129.264Z" fill="white"/>
<path d="M49.5361 461.371C49.5361 462.655 50.6175 463.742 51.8955 463.742C53.1736 463.742 54.2549 462.655 54.2549 461.371C54.2549 461.173 54.2549 460.975 54.1566 460.778C53.96 460.383 53.7634 460.185 53.7634 459.592C53.7634 458.9 52.8786 458.9 52.4854 458.9C51.9938 458.9 51.404 458.9 50.9125 459.197C50.5192 459.394 50.2243 459.691 50.0277 459.987C49.8311 460.383 49.6344 460.778 49.6344 461.173" fill="white"/>
<path d="M63.6922 464.335C63.6922 464.335 63.2006 464.038 62.6108 464.236C61.726 464.434 58.9733 464.928 54.6478 465.125C52.6816 465.125 50.4205 465.125 48.2577 465.026C46.4881 464.829 43.0473 464.335 42.2609 464.236C41.8676 464.236 40.8846 464.137 40.4913 464.532C39.9015 465.026 39.9998 465.817 40.4913 466.509C40.4913 466.509 41.2778 467.793 43.244 468.188C45.9966 468.683 50.3222 468.485 51.6985 468.386C54.8444 468.09 57.3021 467.596 59.17 467.102C59.17 467.102 61.726 466.41 63.004 465.619C63.4955 465.323 64.1837 464.829 63.8888 464.335H63.6922Z" fill="white"/>
<path d="M54.3528 470.065C52.7799 469.176 50.912 469.176 49.3391 470.065C46.8814 471.449 45.9966 474.611 47.4712 477.18C48.6509 479.058 50.3222 478.662 50.7154 478.168C51.3053 477.477 51.1087 476.884 50.7154 476.488C50.1256 475.698 50.0273 475.204 50.0273 474.809C50.0273 473.82 50.8137 472.931 51.8951 472.931C52.3867 472.931 52.9765 473.129 53.2714 473.623C53.763 474.216 53.763 475.006 53.763 475.698C53.5664 479.65 51.9934 483.01 51.8951 483.208C51.8951 483.405 51.6985 483.801 51.9934 483.998C52.2884 484.097 52.5833 483.998 52.8782 483.702C53.5664 483.109 55.041 481.33 55.7292 479.552C56.1224 478.563 57.1055 476.093 56.8106 473.623C56.5156 471.745 55.2376 470.56 54.1562 469.967L54.3528 470.065Z" fill="white"/>
</g>
<rect x="40" y="282" width="142" height="40" rx="20" fill="#006953"/>
<path d="M80.018 299.048C80.018 301.343 81.242 303.995 83.724 305.134L82.534 306.8C80.851 306.035 79.661 304.488 78.998 302.686C78.318 304.675 77.077 306.358 75.326 307.174L74.102 305.508C76.618 304.335 77.893 301.53 77.91 299.048V298.096H74.714V296.362H83.078V298.096H80.018V299.048ZM84.234 310.03V294.9H86.376V300.68H88.586V302.448H86.376V310.03H84.234ZM93.9964 298.708C93.9794 301.173 94.6594 303.689 96.7504 305.032L95.5944 306.664C94.2854 305.882 93.4524 304.573 92.9594 303.009C92.4324 304.726 91.5144 306.154 90.1544 307.004L88.8624 305.44C91.0894 304.046 91.9224 301.377 91.9224 298.81V296.226H93.9964V298.708ZM95.1524 301.734V300H97.0904V295.138H99.0624V309.316H97.0904V301.734H95.1524ZM100.218 310.03V294.9H102.224V310.03H100.218ZM116.475 294.9V310.03H114.333V294.9H116.475ZM104.167 298.878V297.212H107.601V295.104H109.743V297.212H113.177V298.878H104.167ZM104.813 303.332C104.796 301.207 106.445 299.711 108.689 299.728C110.933 299.711 112.582 301.207 112.599 303.332C112.582 305.423 110.933 306.919 108.689 306.902C106.445 306.919 104.796 305.423 104.813 303.332ZM106.819 303.332C106.819 304.488 107.601 305.185 108.689 305.168C109.794 305.185 110.559 304.488 110.559 303.332C110.559 302.159 109.794 301.445 108.689 301.428C107.601 301.445 106.819 302.159 106.819 303.332ZM132.357 306.562V308.262H118.519V306.562H124.367V303.74H119.981V295.886H122.123V298.232H128.719V295.886H130.827V303.74H126.441V306.562H132.357ZM122.123 302.074H128.719V299.898H122.123V302.074ZM145.928 294.9V310.03H143.786V294.9H145.928ZM133.28 305.746C137.173 303.893 138.89 301.513 139.23 298.164H134.062V296.498H141.372C141.389 301.071 139.774 304.896 134.368 307.446L133.28 305.746Z" fill="white"/>
<g clip-path="url(#clip1_204_2)">
<path d="M175.849 377.879C173.524 378.477 171.245 379.11 169.001 379.761V396.343C171.245 395.692 173.524 395.059 175.849 394.461V377.879Z" fill="#42E8E0"/>
<path opacity="0.5" d="M191.718 378.574C189.233 379.047 186.784 379.555 184.371 380.091V392.418C186.784 391.883 189.233 391.375 191.718 390.902V378.574Z" fill="#42E8E0"/>
<path d="M208.593 365.068C205.966 365.407 203.374 365.782 200.81 366.192V389.322C203.374 388.921 205.975 388.546 208.593 388.198V365.068Z" fill="#42E8E0"/>
<path opacity="0.5" d="M226.332 350.494C223.58 350.69 220.864 350.922 218.166 351.19V387.111C220.864 386.843 223.58 386.612 226.332 386.415V350.494Z" fill="#42E8E0"/>
<path opacity="0.5" d="M244.828 358.201C241.97 358.246 239.138 358.326 236.324 358.442V385.845C239.138 385.729 241.97 385.648 244.828 385.604V358.201Z" fill="#42E8E0"/>
<path d="M263.502 329.513C260.715 329.397 257.901 329.326 255.078 329.281V385.603C257.91 385.647 260.715 385.728 263.502 385.835V329.513Z" fill="#42E8E0"/>
<path d="M281.553 341.118C278.872 340.86 276.156 340.628 273.431 340.432V386.397C276.165 386.593 278.872 386.825 281.553 387.084V341.118Z" fill="#42E8E0"/>
<path d="M298.855 326.106C296.3 325.705 293.708 325.339 291.09 325V388.163C293.708 388.502 296.3 388.868 298.855 389.269V326.106Z" fill="#42E8E0"/>
<g opacity="0.5">
<path opacity="0.5" d="M351.165 340.279C329.543 333.758 316.684 358.298 329.311 381.954C340.033 402.033 366.17 416.528 373 395.441C377.025 383.033 373.686 352.633 353.239 341.171C358.752 344.025 362.795 348.066 366.766 354.676C359.224 363.971 358.609 364.729 352.1 372.231C344.388 353.98 343.755 352.491 338.056 340.145C342.509 338.593 346.427 338.638 351.165 340.279ZM352.678 340.903C352.839 340.975 353.008 341.055 353.168 341.135C353.008 341.055 352.839 340.984 352.678 340.903ZM351.583 340.44C351.467 340.395 351.343 340.341 351.218 340.297C351.343 340.341 351.458 340.386 351.583 340.44ZM352.1 340.645C352.269 340.716 352.438 340.787 352.607 340.868C352.438 340.796 352.269 340.716 352.1 340.645ZM352.1 340.645C351.966 340.591 351.824 340.529 351.69 340.475C351.832 340.529 351.966 340.591 352.1 340.645Z" fill="#42E8E0"/>
<path d="M387.72 363.553C386.455 362.224 385.102 360.921 383.659 359.637V422.8C385.102 424.084 386.455 425.387 387.72 426.716V363.553Z" fill="#42E8E0"/>
<path d="M394.203 393.988C393.313 392.579 392.324 391.178 391.238 389.805V430.757C392.324 432.13 393.313 433.522 394.203 434.94V393.988Z" fill="#42E8E0"/>
<path opacity="0.5" d="M400 441.594L399.938 441.737L399.858 437.589L400 437.366V441.585V441.594ZM400 453.806V390.643C400 390.241 400 389.831 399.973 389.43C399.866 386.548 399.359 383.703 398.486 380.92V444.083C399.359 446.866 399.858 449.712 399.973 452.593C399.991 452.994 400 453.404 400 453.806Z" fill="#42E8E0"/>
<path d="M400 441.593L399.938 441.736L399.858 437.588L400 437.365V441.593Z" fill="#42E8E0"/>
<path d="M353.168 341.136C353.168 341.136 353.213 341.162 353.239 341.171C353.213 341.162 353.195 341.145 353.168 341.136ZM351.218 340.297C351.218 340.297 351.182 340.279 351.164 340.279C351.182 340.279 351.2 340.297 351.218 340.297ZM352.607 340.868C352.607 340.868 352.66 340.895 352.687 340.904C352.66 340.895 352.634 340.877 352.607 340.868ZM351.681 340.476H351.672H351.663H351.654H351.645H351.636H351.627H351.619H351.61C351.645 340.493 351.681 340.502 351.716 340.52L351.681 340.476Z" fill="#42E8E0"/>
<path d="M352.1 340.645C345.056 337.702 339.971 339.477 338.056 340.146C346.116 357.941 346.962 359.797 352.1 372.231C360.043 362.981 361.263 361.554 366.767 354.677C365.208 352.081 360.471 344.196 352.1 340.654V340.645Z" fill="#42E8E0"/>
<path opacity="0.5" d="M302.07 496.014C308.553 497.941 312.72 493.998 314.243 492.83C326.149 482.732 336.577 470.414 348.528 460.352C352.063 457.382 354.219 458.612 355.447 458.934C370.301 464.833 378.919 465.983 381.299 462.386C387.844 450.781 388.067 449.844 391.104 442.583C391.798 440.924 394.158 438.417 395.2 438.551C400.196 439.961 399.537 440.986 400 441.593V437.374C394.105 435.099 393.499 434.823 391.104 440.317C380.097 463.715 378.165 463.197 375.6 462.591C352.153 453.198 352.446 453.885 346.471 460.102C336.132 470.887 315.285 491.875 308.847 493.544C306.87 493.802 303.726 493.517 301.874 493.044C279.237 485.453 270.261 480.672 248.113 471.118L246.128 474.339C254.329 477.924 279.103 487.683 301.91 494.882L302.079 496.014H302.07ZM231.318 521.472V458.309C238.282 458.702 245.389 458.88 252.611 458.818C334.556 458.175 400 427.767 400 390.65V453.813C400 490.93 334.556 521.347 252.611 521.999C245.389 522.052 238.282 521.883 231.318 521.49V521.472Z" fill="#42E8E0"/>
<path d="M302.07 496.014C307.903 497.513 313.415 498.922 347.744 461.94C350.642 459.026 359.52 460.533 374.38 466.462C376.909 467.078 380.738 468.005 391.273 442.824C394.523 435.385 399.955 441.522 400.009 441.593V437.374C398.165 436.321 398.041 436.25 395.271 435.474C394.764 435.331 394.212 435.358 393.748 435.599C393.009 435.982 392.261 436.856 390.961 439.631C386.912 448.265 383.43 454.946 380.515 459.674C378.8 462.225 370.966 460.73 357.015 455.187C355.59 454.804 352.616 454.001 348.127 457.587C335.526 467.657 325.268 480.244 312.836 490.493C308.17 493.82 305.347 495.827 248.113 471.127L246.128 474.347C254.329 477.933 279.273 488.825 302.079 496.023L302.07 496.014Z" fill="#42E8E0"/>
</g>
</g>
<g clip-path="url(#clip2_204_2)">
<path d="M296.873 27.7294V26.1523H299.025V27.7294H301.975V29.2235H300.46C301.178 30.0535 301.576 31.2986 301.576 32.7097C301.576 35.4488 300.062 37.5239 297.989 37.5239C295.837 37.5239 294.322 35.4488 294.322 32.7097C294.322 31.2986 294.72 30.0535 295.438 29.2235H294.003V27.7294H296.873ZM297.909 29.2235C297.032 29.2235 296.395 30.5516 296.395 32.7097C296.395 34.7018 297.032 36.0298 297.909 36.0298C298.786 36.0298 299.424 34.7018 299.424 32.7097C299.424 30.5516 298.786 29.2235 297.909 29.2235ZM305.483 32.1286V40.927H303.41V26.1523H305.483V30.6346H307.476V32.1286H305.483Z" fill="white"/>
<path d="M311.383 35.1998H314.89C315.847 35.1998 316.565 35.1998 317.441 34.7848V26.1523H319.514V30.6346H321.507V32.1286H319.514V40.927H317.441V36.2788C316.724 36.6108 315.688 36.6938 314.811 36.6938H310.107C309.15 36.6938 308.513 35.7808 308.513 34.7018V26.8164H310.585V34.6187C310.585 34.6187 310.825 35.1998 311.303 35.1998H311.383Z" fill="white"/>
<path d="M330.993 32.1286C331.233 31.2986 331.312 30.2196 331.312 29.2235V27.9784H323.898V26.4844H333.465V29.1405C333.465 30.2196 333.305 31.2986 333.066 32.1286H334.979V33.6227H322.304V32.1286H330.993ZM333.385 35.0338V41.0101H325.253C324.456 41.0101 323.818 40.097 323.818 39.018V35.0338H333.385ZM325.971 36.5279V39.018C325.971 39.433 326.21 39.599 326.609 39.599H331.312V36.5279H325.971Z" fill="white"/>
<path d="M346.061 36.6948C346.061 36.6948 346.3 37.4418 346.3 37.8569C346.3 40.098 344.307 41.343 342.393 41.343C340.321 41.343 338.407 40.015 338.407 37.8569C338.407 37.4418 338.407 37.0268 338.646 36.6118V33.2916H336.016V31.7976H339.284C338.806 31.1335 338.487 30.3035 338.487 29.4735C338.487 27.5644 340.081 25.7383 342.393 25.7383C344.705 25.7383 346.3 27.4814 346.3 29.4735C346.3 30.3865 345.981 31.2165 345.502 31.7976H348.691V33.2916H346.061V36.6118V36.6948ZM342.314 35.7818C341.756 35.7818 341.038 36.1138 340.719 36.7778C340.56 37.1098 340.48 37.4418 340.48 37.8569C340.48 39.1849 341.437 39.932 342.314 39.932C343.191 39.932 344.147 39.2679 344.147 37.8569C344.147 36.4458 343.191 35.7818 342.314 35.7818ZM342.314 27.2324C341.277 27.2324 340.48 28.2284 340.48 29.5565C340.48 30.8015 341.277 31.8806 342.314 31.8806C343.35 31.8806 344.067 30.8845 344.147 29.5565C344.147 28.3114 343.35 27.2324 342.314 27.2324ZM342.314 34.2877C342.872 34.2877 343.43 34.3707 343.908 34.6197V33.3746H340.719V34.6197C341.198 34.4537 341.756 34.2877 342.314 34.2877Z" fill="white"/>
<path d="M357.062 37.2749C357.54 36.0299 357.7 34.6188 357.7 33.0417V28.4765H350.286V26.9824H359.852V33.0417C359.852 34.7848 359.613 36.2789 359.135 37.3579H361.367V38.852H348.691V37.3579H357.062V37.2749Z" fill="white"/>
<path d="M362.404 33.3747H375.08V34.8687H369.818V36.3628H367.666V34.8687H362.404V33.3747ZM373.645 32.4616H365.593C364.716 32.4616 363.999 31.5486 363.999 30.4695V28.6434H371.413V27.7304H363.999V26.2363H373.565V28.6434C373.565 29.3905 373.087 30.0545 372.529 30.0545H366.151V30.3865C366.151 30.3865 366.39 30.9676 366.789 30.9676H373.725V32.4616H373.645ZM366.071 36.9438H371.413V35.6158H373.486V41.011H365.593C364.716 41.011 363.999 40.098 363.999 39.0189V35.6158H366.071V36.9438ZM366.071 38.4379V38.8529C366.071 39.268 366.311 39.517 366.709 39.517H371.413V38.3549H366.071V38.4379Z" fill="white"/>
<path d="M279.733 24.9931C279.733 26.0721 280.61 26.9852 281.647 26.9852C282.683 26.9852 283.56 26.0721 283.56 24.9931C283.56 24.8271 283.56 24.6611 283.48 24.495C283.321 24.163 283.161 23.997 283.161 23.499C283.161 22.918 282.444 22.918 282.125 22.918C281.726 22.918 281.248 22.918 280.849 23.167C280.531 23.333 280.291 23.582 280.132 23.831C279.973 24.163 279.813 24.495 279.813 24.8271" fill="white"/>
<path d="M291.213 27.4838C291.213 27.4838 290.814 27.2348 290.336 27.4008C289.619 27.5668 287.386 27.9818 283.879 28.1479C282.284 28.1479 280.451 28.1479 278.697 28.0648C277.262 27.8988 274.472 27.4838 273.834 27.4008C273.515 27.4008 272.718 27.3178 272.399 27.6498C271.921 28.0648 272 28.7289 272.399 29.3099C272.399 29.3099 273.037 30.389 274.631 30.721C276.863 31.136 280.371 30.97 281.487 30.887C284.038 30.638 286.031 30.2229 287.546 29.8079C287.546 29.8079 289.619 29.2269 290.655 28.5629C291.054 28.3139 291.612 27.8988 291.373 27.4838H291.213Z" fill="white"/>
<path d="M283.64 32.2986C282.364 31.5515 280.849 31.5515 279.574 32.2986C277.581 33.4606 276.863 36.1167 278.059 38.2748C279.016 39.8519 280.371 39.5199 280.69 39.1049C281.168 38.6069 281.009 38.0258 280.69 37.6938C280.212 37.0298 280.132 36.6148 280.132 36.2827C280.132 35.4527 280.77 34.7057 281.647 34.7057C282.045 34.7057 282.524 34.8717 282.763 35.2037C283.161 35.7017 283.161 36.3658 283.161 36.9468C283.002 40.2669 281.726 43.0891 281.647 43.2551C281.647 43.4211 281.487 43.7531 281.726 43.9191C281.966 44.0021 282.205 43.9191 282.444 43.6701C283.002 43.1721 284.198 41.678 284.756 40.1839C285.075 39.3539 285.872 37.2788 285.633 35.2037C285.394 33.6266 284.357 32.6306 283.48 32.1326L283.64 32.2986Z" fill="white"/>
</g>
<path d="M53.344 504.76V506.136H47.744V507.352C50.272 507.496 51.776 508.376 51.776 509.848C51.776 511.464 49.936 512.376 46.88 512.376C43.808 512.376 41.968 511.464 41.952 509.848C41.968 508.376 43.472 507.496 46.048 507.336V506.136H40.48V504.76H53.344ZM41.088 502.744C43.696 502.504 45.392 501.432 45.68 500.28H41.632V498.904H52.192V500.28H48.112C48.384 501.448 50.08 502.504 52.736 502.744L52.128 504.12C49.552 503.848 47.648 502.824 46.896 501.384C46.128 502.824 44.256 503.848 41.696 504.12L41.088 502.744ZM43.744 509.848C43.728 510.616 44.832 511.048 46.88 511.032C48.912 511.048 50.032 510.616 50.048 509.848C50.032 509.064 48.912 508.648 46.88 508.632C44.832 508.648 43.728 509.064 43.744 509.848ZM67.0441 509.24V510.648H54.1481V509.24H59.6521V505.976H61.3801V509.24H67.0441ZM54.5001 504.888C57.4761 504.408 59.5721 502.28 59.5881 500.152V499.128H61.4441V500.152C61.4281 502.296 63.5721 504.408 66.5321 504.888L65.7961 506.328C63.4121 505.864 61.4601 504.504 60.5161 502.664C59.5721 504.488 57.6361 505.88 55.2681 506.328L54.5001 504.888ZM79.5923 498.264V512.376H77.8323V498.264H79.5923ZM67.9123 508.504C71.5923 506.744 73.3043 504.36 73.6243 501.144H68.6163V499.768H75.4003C75.3843 503.976 73.7523 507.544 68.8083 509.88L67.9123 508.504ZM85.3884 498.904C87.2284 498.888 88.6684 499.944 89.0204 501.496H91.5644V498.264H93.2924V505.848H91.5644V502.872H89.0364C88.7004 504.472 87.2444 505.544 85.3884 505.56C83.2284 505.544 81.6604 504.152 81.6764 502.2C81.6604 500.28 83.2284 498.888 85.3884 498.904ZM83.3084 502.2C83.3244 503.336 84.1724 504.088 85.3884 504.088C86.5884 504.088 87.4364 503.336 87.4364 502.2C87.4364 501.064 86.5884 500.328 85.3884 500.344C84.1724 500.328 83.3244 501.064 83.3084 502.2ZM83.9804 512.216V506.488H85.7084V507.992H91.5644V506.488H93.2924V512.216H83.9804ZM85.7084 510.808H91.5644V509.336H85.7084V510.808ZM106.929 498.264V512.376H105.169V498.264H106.929ZM95.2485 508.504C98.9285 506.744 100.641 504.36 100.961 501.144H95.9525V499.768H102.737C102.721 503.976 101.089 507.544 96.1445 509.88L95.2485 508.504ZM116.149 498.712C116.133 500.232 118.069 501.608 121.013 501.944L120.437 503.224C118.053 502.952 116.149 501.992 115.237 500.632C114.325 501.992 112.421 502.952 110.069 503.224L109.461 501.944C112.421 501.608 114.341 500.232 114.357 498.712V498.328H116.149V498.712ZM108.821 505.304V503.928H121.685V505.304H116.085V506.392H120.085V509.912H112.053V510.936H120.469V512.28H110.325V508.664H118.357V507.736H110.325V506.392H114.357V505.304H108.821ZM134.297 498.264V506.648H132.569V503.224H130.169V501.784H132.569V498.264H134.297ZM122.425 505.24C124.697 504.472 125.897 502.568 125.913 500.696V500.6H122.969V499.192H130.585V500.6H127.673V500.696C127.673 502.408 128.809 504.136 131.001 504.856L130.105 506.232C128.537 505.72 127.433 504.632 126.825 503.32C126.201 504.808 125.033 506.024 123.353 506.616L122.425 505.24ZM124.729 509.688C124.713 508.008 126.553 507.016 129.529 507C132.521 507.016 134.345 508.008 134.361 509.688C134.345 511.4 132.521 512.392 129.529 512.408C126.553 512.392 124.713 511.4 124.729 509.688ZM126.457 509.688C126.441 510.584 127.561 511.048 129.529 511.032C131.497 511.048 132.617 510.584 132.633 509.688C132.617 508.824 131.497 508.344 129.529 508.344C127.561 508.344 126.441 508.824 126.457 509.688ZM149.053 509.272V510.68H136.157V509.272H141.725V506.52H137.565V499.192H139.293V501.528H145.853V499.192H147.581V506.52H143.421V509.272H149.053ZM139.293 505.112H145.853V502.904H139.293V505.112ZM155.169 501.144C155.169 502.904 156.369 504.616 158.625 505.304L157.729 506.68C156.129 506.152 154.961 505.096 154.321 503.752C153.697 505.208 152.497 506.376 150.817 506.936L149.921 505.56C152.193 504.824 153.409 503 153.409 501.144V500.728H150.369V499.352H158.145V500.728H155.169V501.144ZM152.225 512.12V507.576H153.985V510.712H161.953V512.12H152.225ZM159.841 508.536V498.296H161.569V508.536H159.841ZM169.893 507.992C173.013 508.008 174.789 508.744 174.789 510.2C174.789 511.64 173.013 512.392 169.893 512.408C166.741 512.392 164.981 511.64 164.965 510.2C164.981 508.744 166.741 508.008 169.893 507.992ZM163.493 507.256V505.912H176.357V507.256H163.493ZM164.133 500.696V499.384H169.029V498.104H170.789V499.384H175.653V500.696H164.133ZM165.221 503.16C165.221 501.832 166.917 501.128 169.925 501.112C172.933 501.128 174.597 501.832 174.597 503.16C174.597 504.504 172.933 505.192 169.925 505.176C166.917 505.192 165.221 504.504 165.221 503.16ZM166.757 510.2C166.757 510.824 167.797 511.128 169.893 511.128C171.989 511.128 173.029 510.824 173.029 510.2C173.029 509.576 171.989 509.256 169.893 509.24C167.797 509.256 166.757 509.576 166.757 510.2ZM167.077 503.16C167.077 503.72 168.037 503.992 169.925 503.992C171.797 503.992 172.741 503.72 172.741 503.16C172.741 502.584 171.797 502.296 169.925 502.296C168.037 502.296 167.077 502.584 167.077 503.16ZM189.001 498.296V508.952H187.241V507.736H184.489V506.52H187.241V498.296H189.001ZM177.097 504.632C179.689 504.616 183.193 504.584 186.185 504.216L186.281 505.464C185.129 505.656 183.913 505.784 182.729 505.864V508.568H181.001V505.96C179.673 506.008 178.409 506.008 177.289 506.008L177.097 504.632ZM178.153 501.304C178.169 499.8 179.593 498.792 181.705 498.808C183.753 498.792 185.193 499.8 185.193 501.304C185.193 502.808 183.753 503.784 181.705 503.768C179.609 503.784 178.169 502.808 178.153 501.304ZM178.953 512.12V507.928H180.713V510.712H189.321V512.12H178.953ZM179.817 501.304C179.801 502.072 180.569 502.504 181.705 502.52C182.777 502.504 183.545 502.072 183.561 501.304C183.545 500.536 182.777 500.072 181.705 500.088C180.569 500.072 179.801 500.536 179.817 501.304ZM191.821 506.392C191.805 503.624 192.541 501.336 193.997 499.352H195.853C194.749 500.824 193.869 503.768 193.869 506.392C193.869 509 194.749 511.944 195.853 513.4H193.997C192.541 511.432 191.805 509.144 191.821 506.392ZM209.486 504.376V505.656H203.918V506.68H207.918V510.008H199.886V510.968H208.302V512.28H198.158V508.824H206.19V507.928H198.158V506.68H202.222V505.656H196.654V504.376H209.486ZM197.23 502.616C200.014 502.472 201.646 501.72 202.014 500.728H197.902V499.416H202.19V498.232H203.918V499.416H208.238V500.728H204.094C204.462 501.72 206.11 502.472 208.91 502.616L208.398 503.896C205.854 503.752 203.95 503.064 203.07 501.912C202.174 503.064 200.27 503.752 197.71 503.896L197.23 502.616ZM214.354 506.36C214.37 509.128 213.634 511.416 212.178 513.4H210.322C211.426 511.928 212.306 508.984 212.306 506.36C212.306 503.752 211.426 500.808 210.322 499.352H212.178C213.634 501.32 214.37 503.608 214.354 506.36ZM221.458 502.264C221.458 504.6 222.818 507.032 225.106 507.992L224.146 509.368C222.482 508.632 221.25 507.144 220.61 505.352C219.97 507.288 218.722 508.936 217.074 509.72L216.082 508.344C218.306 507.32 219.698 504.68 219.698 502.264V501.08H216.594V499.672H224.562V501.08H221.458V502.264ZM226.13 512.376V498.264H227.89V512.376H226.13ZM241.622 498.264V506.456H239.894V503.032H237.462V501.624H239.894V498.264H241.622ZM229.782 505.048C232.022 504.312 233.222 502.44 233.238 500.568V500.472H230.294V499.064H237.91V500.472H234.998V500.6C234.998 502.296 236.134 504.04 238.326 504.792L237.43 506.168C235.862 505.624 234.742 504.536 234.134 503.208C233.51 504.68 232.342 505.864 230.678 506.424L229.782 505.048ZM232.246 512.216V507.096H241.622V512.216H232.246ZM233.974 510.808H239.926V508.472H233.974V510.808Z" fill="white"/>
<path d="M40.64 525.92V524.672H49.152V525.92H45.6V536H44.192V525.92H40.64ZM53.0425 536.192C50.5945 536.176 49.0745 534.432 49.0745 531.808C49.0745 529.216 50.6105 527.408 52.9145 527.392C54.7065 527.408 56.5785 528.496 56.5945 531.648V532.224H50.4185C50.4985 534 51.5385 534.976 53.0425 534.976C54.0665 534.976 54.7065 534.544 54.9945 534.016H56.4345C56.0505 535.296 54.7865 536.176 53.0425 536.192ZM50.4185 531.072H55.2185C55.2025 529.648 54.3065 528.592 52.9145 528.608C51.4425 528.592 50.5145 529.76 50.4185 531.072ZM59.5339 524.672V536H58.1579V524.672H59.5339ZM66.3143 534.56C65.7543 534.56 65.2903 534.096 65.2903 533.536C65.2903 532.992 65.7543 532.544 66.3143 532.544C66.8583 532.544 67.3063 532.992 67.3063 533.536C67.3063 534.096 66.8583 534.56 66.3143 534.56ZM65.2903 527.808C65.2903 527.264 65.7543 526.816 66.3143 526.816C66.8583 526.816 67.3063 527.264 67.3063 527.808C67.3063 528.368 66.8583 528.832 66.3143 528.832C65.7543 528.832 65.2903 528.368 65.2903 527.808ZM76.7768 536.16C74.2648 536.16 72.8088 534.048 72.8088 530.336C72.8088 526.672 74.2808 524.528 76.7768 524.544C79.2568 524.528 80.7288 526.672 80.7128 530.336C80.7288 534.048 79.2728 536.16 76.7768 536.16ZM74.1848 530.336C74.1848 533.264 75.1288 534.912 76.7768 534.912C78.4088 534.912 79.3528 533.264 79.3688 530.336C79.3528 527.408 78.3928 525.76 76.7768 525.76C75.1448 525.76 74.1848 527.408 74.1848 530.336ZM82.18 533.696V532.544L87.268 524.672H88.996V532.448H90.564V533.696H88.996V536H87.652V533.696H82.18ZM83.684 532.448H87.652V526.464H87.524L83.684 532.352V532.448ZM92.0044 533.696V532.544L97.0924 524.672H98.8204V532.448H100.388V533.696H98.8204V536H97.4764V533.696H92.0044ZM93.5084 532.448H97.4764V526.464H97.3484L93.5084 532.352V532.448ZM106.981 529.696V530.944H102.021V529.696H106.981ZM112.67 536.16C110.27 536.16 108.622 534.832 108.638 532.992C108.622 531.536 109.646 530.336 110.942 530.112V530.08C109.806 529.808 109.07 528.768 109.054 527.52C109.07 525.808 110.574 524.528 112.67 524.544C114.718 524.528 116.222 525.808 116.222 527.52C116.222 528.768 115.47 529.808 114.366 530.08V530.112C115.646 530.336 116.67 531.536 116.67 532.992C116.67 534.832 115.006 536.16 112.67 536.16ZM110.046 532.928C110.014 534.112 111.022 534.912 112.67 534.912C114.27 534.912 115.278 534.112 115.262 532.928C115.278 531.664 114.174 530.752 112.67 530.752C111.134 530.752 110.014 531.664 110.046 532.928ZM110.43 527.648C110.43 528.784 111.358 529.552 112.67 529.568C113.934 529.552 114.862 528.784 114.878 527.648C114.862 526.512 113.966 525.744 112.67 525.76C111.31 525.744 110.43 526.512 110.43 527.648ZM122.341 536.16C120.389 536.128 118.229 534.976 118.213 530.784C118.229 526.768 119.861 524.528 122.533 524.544C124.517 524.528 125.909 525.76 126.181 527.52H124.805C124.549 526.528 123.781 525.776 122.533 525.792C120.661 525.776 119.541 527.376 119.557 530.112H119.685C120.341 529.152 121.381 528.592 122.597 528.608C124.613 528.592 126.293 530.16 126.277 532.352C126.293 534.48 124.725 536.176 122.341 536.16ZM119.749 532.384C119.749 533.696 120.837 534.912 122.341 534.912C123.813 534.912 124.917 533.76 124.933 532.352C124.917 530.976 123.861 529.84 122.373 529.824C120.901 529.84 119.765 531.04 119.749 532.384ZM128.074 536V534.976L131.914 530.912C133.258 529.488 133.898 528.72 133.898 527.68C133.898 526.512 132.922 525.76 131.658 525.76C130.314 525.76 129.466 526.608 129.45 527.872H128.138C128.106 525.872 129.658 524.528 131.69 524.544C133.754 524.528 135.21 525.904 135.242 527.68C135.21 528.944 134.634 529.92 132.618 532L130.026 534.656V534.752H135.434V536H128.074ZM142.216 529.696V530.944H137.256V529.696H142.216ZM148.097 524.672V536H146.689V526.144H146.625L143.873 527.968V526.56L146.689 524.672H148.097ZM154.953 524.672V536H153.545V526.144H153.481L150.729 527.968V526.56L153.545 524.672H154.953ZM161.809 524.672V536H160.401V526.144H160.337L157.585 527.968V526.56L160.401 524.672H161.809ZM168.472 536.16C166.072 536.16 164.424 534.832 164.44 532.992C164.424 531.536 165.448 530.336 166.744 530.112V530.08C165.608 529.808 164.872 528.768 164.856 527.52C164.872 525.808 166.376 524.528 168.472 524.544C170.52 524.528 172.024 525.808 172.024 527.52C172.024 528.768 171.272 529.808 170.168 530.08V530.112C171.448 530.336 172.472 531.536 172.472 532.992C172.472 534.832 170.808 536.16 168.472 536.16ZM165.848 532.928C165.816 534.112 166.824 534.912 168.472 534.912C170.072 534.912 171.08 534.112 171.064 532.928C171.08 531.664 169.976 530.752 168.472 530.752C166.936 530.752 165.816 531.664 165.848 532.928ZM166.232 527.648C166.232 528.784 167.16 529.552 168.472 529.568C169.736 529.552 170.664 528.784 170.68 527.648C170.664 526.512 169.768 525.744 168.472 525.76C167.112 525.744 166.232 526.512 166.232 527.648Z" fill="white"/>
<path d="M55.6 107.7V110.37C55.6 115.17 58.45 118.8 62.95 119.46V122.28C58.09 121.98 54.13 118.95 53.41 117.03C52.66 119.01 48.61 121.95 44.05 122.31V119.49C48.28 118.77 51.4 115.2 51.4 110.31V107.7H55.6ZM41.35 126.75H65.65V129.45H41.35V126.75ZM72.5617 110.4V121.68C72.5617 122.46 73.0117 122.85 73.6717 122.85H77.5117V110.4H72.5617ZM89.6617 117.15V133.35H85.6117V106.2H89.6617V114.45H93.5617V117.15H89.6617ZM81.5617 107.7V125.55H71.7817C69.9817 125.55 68.5117 123.93 68.5117 121.92V107.7H81.5617ZM95.3734 127.05H119.673V129.75H95.3734V127.05ZM98.4034 107.7H116.403V110.4H102.453V113.97H116.073V116.67H102.453V119.34C102.453 120.03 102.903 120.45 103.803 120.45H116.703V123.15H101.553C99.7534 123.15 98.4034 121.44 98.4034 119.43V107.7ZM138.915 117.3C139.575 115.71 139.665 114.06 139.665 111.87V109.2H125.415V106.5H143.715V111.78C143.715 114.06 143.385 115.8 142.845 117.3H146.685V120H139.575C141.015 121.5 141.915 123.6 141.945 126C141.915 130.83 138.555 134.25 134.535 134.25C130.335 134.25 127.125 130.86 127.125 126C127.125 123.66 128.055 121.53 129.525 120H122.385V117.3H130.695V112.35H134.775V117.3H138.915ZM137.925 126.03C137.895 122.97 136.395 120.51 134.535 120.51C132.615 120.51 131.145 123.06 131.145 126.03C131.145 129.3 132.675 131.55 134.535 131.55C136.335 131.55 137.895 129.33 137.925 126.03ZM163.197 109.5H158.577C158.847 113.28 160.797 115.77 163.797 116.52V119.31C160.317 119.01 157.167 116.76 156.387 115.11C155.547 116.79 152.397 119.07 149.097 119.31V116.52C152.247 115.77 154.047 113.34 154.317 109.5H149.547V106.8H163.197V109.5ZM170.697 113.7V126.93C170.697 131.28 166.857 133.95 163.137 133.95C159.087 133.95 155.517 131.28 155.547 126.93C155.517 122.88 159.147 119.85 163.137 119.85C164.367 119.85 165.567 120.15 166.647 120.69V106.2H170.697V111H174.597V113.7H170.697ZM163.137 122.55C161.487 122.55 159.597 124.02 159.597 126.93C159.597 129.6 161.367 131.25 163.107 131.25C164.787 131.25 166.647 129.66 166.647 126.93C166.617 123.96 164.847 122.55 163.137 122.55ZM199.203 110.4H194.553V113.16C194.523 118.02 196.533 121.86 199.803 123.12V125.97C196.173 125.46 192.873 122.31 192.333 120.66C191.793 122.34 188.613 125.4 185.103 125.97V123.12C188.343 121.83 190.323 118.08 190.353 113.1V110.4H185.553V107.7H199.203V110.4ZM207.003 106.2V133.35H202.953V106.2H207.003ZM219.614 105.75C223.334 105.75 226.724 108.93 226.724 112.68C226.724 114.54 225.944 116.19 224.714 117.42H228.764V120.12H221.564V124.65H217.484V120.12H211.664V117.42H214.484C213.254 116.19 212.474 114.54 212.474 112.68C212.474 108.93 215.624 105.75 219.614 105.75ZM219.614 108.45C218.084 108.45 216.524 110.16 216.524 112.68C216.524 115.11 217.994 116.85 219.584 116.85C221.174 116.85 222.674 115.08 222.674 112.68C222.674 110.13 221.324 108.45 219.614 108.45ZM234.314 106.2V126.75H230.264V123.9H224.414V121.2H230.264V106.2H234.314ZM221.864 130.95H234.314V133.65H219.494C217.844 133.65 216.614 131.97 216.614 130.05V125.4H220.664V129.75C220.664 130.47 221.144 130.95 221.864 130.95ZM253.226 110.4H248.576V113.16C248.546 118.02 250.556 121.86 253.826 123.12V125.97C250.196 125.46 246.896 122.31 246.356 120.66C245.816 122.34 242.636 125.4 239.126 125.97V123.12C242.366 121.83 244.346 118.08 244.376 113.1V110.4H239.576V107.7H253.226V110.4ZM260.726 117.15V133.35H256.676V106.2H260.726V114.45H264.626V117.15H260.726ZM283.088 117.27C283.568 115.74 283.718 113.79 283.718 111.84V109.5H269.468V106.8H287.768V111.75C287.768 113.79 287.498 115.77 287.018 117.27H290.738V119.97H266.438V117.27H283.088ZM273.488 125.34V129.87C273.488 130.65 273.968 130.95 274.658 130.95H283.688V125.34H273.488ZM287.738 122.64V133.65H272.198C270.698 133.65 269.438 131.97 269.438 129.93V122.64H287.738ZM293.15 107.7H303.95V110.4H297.2V121.74C297.2 122.43 297.65 122.85 298.49 122.85H301.91C303.74 122.85 305.33 122.76 306.8 121.92V106.2H310.7V114.6H312.65V106.2H316.55V133.35H312.65V117.3H310.7V133.35H306.8V124.53C305.3 125.34 303.68 125.55 301.76 125.55H296.3C294.5 125.55 293.15 123.84 293.15 121.83V107.7ZM341.791 110.4H334.981C335.881 112.95 338.701 114.15 342.061 114.15V116.94C337.741 116.94 333.871 115.74 332.491 113.79C331.171 115.77 327.091 116.94 323.161 116.94V114.15C326.431 114.15 329.311 112.98 330.211 110.4H323.491V107.7H330.511V105.6H334.711V107.7H341.791V110.4ZM320.461 118.17H344.761V120.87H334.651V122.67H341.791V126.84C341.791 128.19 340.861 129.39 339.811 129.39H327.541V129.93C327.541 130.53 327.991 130.95 328.771 130.95H342.091V133.65H326.611C324.961 133.65 323.491 131.94 323.491 129.99V126.69H337.711V125.37H323.491V122.67H330.571V120.87H320.461V118.17Z" fill="white"/>
<path d="M47.616 200.312C47.632 202.6 50.048 204.744 52.736 205.24L52.064 206.488C49.824 205.992 47.76 204.52 46.864 202.536C45.936 204.504 43.888 205.976 41.632 206.488L40.992 205.24C43.632 204.744 46.048 202.6 46.08 200.312V199.256H47.616V200.312ZM40.512 210.488V209.24H53.344V210.488H40.512ZM61.4441 199.704V208.824H54.8841V199.704H61.4441ZM56.3241 207.608H59.9401V200.888H56.3241V207.608ZM63.7801 212.312V198.328H65.2521V203.8H67.4921V205.08H65.2521V212.312H63.7801ZM79.5283 205.784V206.968H69.7682V199.48H79.4003V200.696H71.2723V202.584H79.0803V203.768H71.2723V205.784H79.5283ZM68.1683 210.552V209.336H81.0003V210.552H68.1683ZM93.9964 198.328V212.312H92.5884V198.328H93.9964ZM81.8044 208.472C83.7724 207.272 84.7964 204.728 84.7804 202.232V201.112H82.2204V199.896H88.6204V201.112H86.2204V202.232C86.2204 204.632 87.1804 207.016 89.1644 208.152L88.2684 209.24C86.9244 208.44 86.0124 207.032 85.5164 205.336C85.0204 207.16 84.0764 208.712 82.7004 209.56L81.8044 208.472ZM87.5964 204.504V203.288H89.7724V198.616H91.1804V211.608H89.7724V204.504H87.5964ZM108.657 209.368V210.584H95.8245V209.368H101.489V206.04H102.961V209.368H108.657ZM96.4325 205.4C99.0245 204.968 101.441 203.016 101.425 200.888V200.76H96.8805V199.512H107.537V200.76H102.993V200.888C102.993 203.016 105.409 204.936 108.081 205.336L107.473 206.52C105.217 206.088 103.137 204.776 102.225 202.936C101.313 204.792 99.2485 206.136 97.0405 206.584L96.4325 205.4ZM117.557 199.704V200.888H109.685V199.704H112.949V198.2H114.421V199.704H117.557ZM110.453 204.216C110.453 202.648 111.797 201.576 113.685 201.56C115.541 201.576 116.901 202.648 116.917 204.216C116.901 205.752 115.541 206.84 113.685 206.84C111.797 206.84 110.453 205.752 110.453 204.216ZM111.829 209.176V207.992H121.333V212.312H119.861V209.176H111.829ZM111.861 204.216C111.829 205.096 112.581 205.688 113.685 205.688C114.741 205.688 115.509 205.096 115.541 204.216C115.509 203.304 114.741 202.712 113.685 202.712C112.581 202.712 111.829 203.304 111.861 204.216ZM117.589 205.528V204.312H119.861V202.872H117.589V201.688H119.861V198.328H121.333V207.224H119.861V205.528H117.589ZM135.097 198.328V208.6H133.625V198.328H135.097ZM123.577 205.432C125.753 204.632 127.049 202.616 127.065 200.504V199.128H128.569V200.504C128.569 202.536 129.865 204.424 132.025 205.176L131.257 206.36C129.641 205.768 128.441 204.568 127.833 203.048C127.209 204.68 126.009 205.976 124.345 206.616L123.577 205.432ZM125.945 212.024V207.64H127.417V210.84H135.513V212.024H125.945ZM150.077 206.776V207.992H144.413V212.344H142.941V207.992H137.309V206.776H150.077ZM138.077 204.6C140.733 204.264 142.861 202.792 142.941 201.208H138.525V200.024H142.941V198.328H144.413V200.024H148.861V201.208H144.445C144.509 202.776 146.637 204.264 149.309 204.6L148.765 205.784C146.509 205.48 144.605 204.424 143.693 202.984C142.797 204.44 140.861 205.48 138.589 205.784L138.077 204.6ZM156.321 201.24C156.321 203.064 157.665 204.776 159.841 205.432L159.073 206.616C157.457 206.088 156.241 204.984 155.601 203.576C154.977 205.096 153.729 206.312 152.065 206.904L151.297 205.72C153.473 204.984 154.817 203.16 154.817 201.24V200.632H151.681V199.448H159.393V200.632H156.321V201.24ZM153.601 212.024V207.608H155.073V210.84H163.169V212.024H153.601ZM161.281 208.568V198.328H162.753V208.568H161.281ZM175.973 198.328V202.392H178.021V203.608H175.973V208.472H174.501V198.328H175.973ZM165.605 206.04V199.512H171.845V200.728H167.077V204.792C169.797 204.808 171.317 204.728 173.093 204.344L173.253 205.56C171.349 205.944 169.701 206.04 166.693 206.04H165.605ZM167.109 212.024V207.416H168.581V210.84H176.581V212.024H167.109ZM195.468 206.776V207.992H189.804V212.344H188.332V207.992H182.7V206.776H195.468ZM183.468 204.6C186.124 204.264 188.252 202.792 188.332 201.208H183.916V200.024H188.332V198.328H189.804V200.024H194.252V201.208H189.836C189.9 202.776 192.028 204.264 194.7 204.6L194.156 205.784C191.9 205.48 189.996 204.424 189.084 202.984C188.188 204.44 186.252 205.48 183.98 205.784L183.468 204.6ZM201.424 201.656C201.44 203.416 202.752 205.048 204.912 205.72L204.176 206.872C202.576 206.376 201.36 205.32 200.736 203.96C200.112 205.416 198.912 206.568 197.264 207.128L196.528 205.944C198.672 205.272 199.968 203.544 199.952 201.656V201.336H196.912V200.12H199.952V198.424H201.456V200.12H204.464V201.336H201.424V201.656ZM199.12 212.024V207.832H200.592V210.84H208.56V212.024H199.12ZM204.016 203.768V202.584H206.736V198.328H208.208V208.76H206.736V203.768H204.016ZM212.916 209.912L211.636 214.232H210.324L211.156 209.912H212.916ZM225.475 200.312C225.491 202.6 227.907 204.744 230.595 205.24L229.923 206.488C227.683 205.992 225.619 204.52 224.723 202.536C223.795 204.504 221.747 205.976 219.491 206.488L218.851 205.24C221.491 204.744 223.907 202.6 223.939 200.312V199.256H225.475V200.312ZM218.371 210.488V209.24H231.203V210.488H218.371ZM239.304 199.704V208.824H232.743V199.704H239.304ZM234.184 207.608H237.8V200.888H234.184V207.608ZM241.64 212.312V198.328H243.112V203.8H245.352V205.08H243.112V212.312H241.64ZM257.388 205.784V206.968H247.628V199.48H257.26V200.696H249.132V202.584H256.94V203.768H249.132V205.784H257.388ZM246.028 210.552V209.336H258.86V210.552H246.028ZM266.192 207.128C269.2 207.128 271.12 208.088 271.12 209.72C271.12 211.352 269.2 212.312 266.192 212.312C263.168 212.312 261.248 211.352 261.264 209.72C261.248 208.088 263.168 207.128 266.192 207.128ZM259.888 205.976V204.76H264.976V202.136H266.448V204.76H272.624V205.976H259.888ZM261.36 200.216V199H271.024V200.184C271.024 201.304 271.024 202.456 270.64 203.896L269.168 203.768C269.552 202.328 269.552 201.288 269.552 200.216H261.36ZM262.736 209.72C262.72 210.616 264.048 211.144 266.192 211.16C268.32 211.144 269.648 210.616 269.648 209.72C269.648 208.808 268.32 208.264 266.192 208.248C264.048 208.264 262.72 208.808 262.736 209.72ZM278.58 200.92C278.58 202.68 279.812 204.312 281.94 204.984L281.236 206.136C279.636 205.64 278.468 204.584 277.86 203.24C277.252 204.776 276.02 205.992 274.324 206.584L273.588 205.4C275.764 204.68 277.076 202.856 277.108 200.92V200.536H274.004V199.32H281.588V200.536H278.58V200.92ZM275.476 209.688C275.476 208.024 277.252 207.064 280.18 207.064C283.06 207.064 284.82 208.024 284.82 209.688C284.82 211.336 283.06 212.312 280.18 212.312C277.252 212.312 275.476 211.336 275.476 209.688ZM276.948 209.688C276.948 210.616 278.148 211.128 280.18 211.128C282.18 211.128 283.364 210.616 283.38 209.688C283.364 208.76 282.18 208.248 280.18 208.248C278.148 208.248 276.948 208.76 276.948 209.688ZM283.22 206.744V198.328H284.692V201.784H286.708V203.032H284.692V206.744H283.22ZM302.554 199.224V200.44C302.554 201.752 302.554 203.208 302.17 205.208H304.186V206.424H298.522V212.344H297.018V206.424H291.418V205.208H300.666C301.082 203.224 301.082 201.752 301.082 200.44V200.408H292.986V199.224H302.554ZM318.014 205.336V206.52H312.35V207.992H316.446V212.28H314.942V209.176H306.654V207.992H310.878V206.52H305.246V205.336H318.014ZM305.95 203.512C308.718 203.272 310.622 202.248 310.798 200.856H306.526V199.672H310.878V198.296H312.35V199.672H316.734V200.856H312.462C312.606 202.248 314.51 203.272 317.31 203.512L316.83 204.632C314.43 204.408 312.494 203.592 311.614 202.28C310.766 203.592 308.798 204.408 306.398 204.632L305.95 203.512ZM334.629 198.328V212.312H333.125V198.328H334.629ZM323.109 208.568C326.853 206.808 328.661 204.28 328.949 201.016H323.813V199.832H330.469C330.453 203.928 328.709 207.48 323.909 209.784L323.109 208.568ZM340.681 198.968C342.521 198.952 343.945 200.024 344.265 201.592H347.017V198.328H348.489V205.848H347.017V202.808H344.281C343.993 204.408 342.553 205.496 340.681 205.496C338.553 205.496 337.017 204.152 337.033 202.232C337.017 200.312 338.553 198.952 340.681 198.968ZM338.441 202.232C338.425 203.416 339.369 204.248 340.681 204.248C341.977 204.248 342.905 203.416 342.921 202.232C342.905 201.016 341.977 200.2 340.681 200.216C339.369 200.2 338.425 201.016 338.441 202.232ZM339.369 212.152V206.52H340.841V208.152H347.017V206.52H348.489V212.152H339.369ZM340.841 210.936H347.017V209.304H340.841V210.936Z" fill="white"/>
<path d="M46.696 229.236C46.696 232.188 48.028 235.122 50.764 236.256L49.432 238.056C47.596 237.228 46.318 235.644 45.598 233.664C44.878 235.824 43.564 237.57 41.62 238.452L40.252 236.58C43.06 235.41 44.41 232.35 44.428 229.236V226.86H46.696V229.236ZM51.592 241.656V225.6H53.86V241.656H51.592ZM69.5246 225.6V233.772H67.2926V229.776H64.2686V228.012H67.2926V225.6H69.5246ZM55.9166 232.116C58.5626 231.324 59.7506 229.38 59.7686 227.292V226.14H62.0366V227.292C62.0186 229.218 63.1346 231.072 65.6726 231.828L64.4846 233.556C62.7926 232.998 61.6046 231.936 60.9026 230.55C60.2006 232.098 58.9406 233.304 57.0686 233.88L55.9166 232.116ZM58.8686 236.148V234.42H69.5246V238.704H61.1006V239.676H69.9566V241.44H58.9046V237.048H67.2926V236.148H58.8686ZM77.4853 229.992C77.4853 232.422 78.7813 235.23 81.4093 236.436L80.1493 238.2C78.3673 237.39 77.1073 235.752 76.4053 233.844C75.6853 235.95 74.3713 237.732 72.5173 238.596L71.2213 236.832C73.8853 235.59 75.2353 232.62 75.2533 229.992V228.984H71.8693V227.148H80.7253V228.984H77.4853V229.992ZM81.9493 241.62V225.6H84.2173V231.72H86.5573V233.592H84.2173V241.62H81.9493ZM100.062 226.356V227.616C100.044 228.876 100.044 230.244 99.6659 232.08H101.79V233.88H87.1379V232.08H97.3979C97.7579 230.514 97.7939 229.272 97.7939 228.156H88.9379V226.356H100.062ZM88.8659 241.44V235.608H99.9899V241.44H88.8659ZM91.0619 239.64H97.7579V237.336H91.0619V239.64ZM113.287 234.276V236.67C114.601 236.598 115.915 236.472 117.139 236.292L117.319 237.948C113.773 238.614 109.975 238.632 107.167 238.632L106.915 236.832C108.103 236.832 109.525 236.832 111.019 236.778V234.276H113.287ZM107.239 233.052C109.651 232.422 110.839 230.928 110.965 229.308H107.743V227.508H111.019V225.744H113.287V227.508H116.563V229.308H113.305C113.449 230.856 114.637 232.314 117.067 232.908L116.059 234.636C114.187 234.168 112.873 233.124 112.153 231.81C111.451 233.196 110.173 234.294 108.283 234.78L107.239 233.052ZM118.075 241.656V225.6H120.307V241.656H118.075ZM136.224 225.6V241.62H134.1V233.592H132.588V240.828H130.5V225.888H132.588V231.792H134.1V225.6H136.224ZM122.868 237.984V227.472H128.844V229.272H125.1V236.112C126.648 236.094 128.016 236.004 129.564 235.716L129.744 237.552C127.782 237.93 126.09 237.984 123.984 237.984H122.868ZM147.361 240.18C144.553 240.18 142.555 238.632 142.501 236.436H145.165C145.219 237.354 146.137 237.984 147.361 237.984C148.639 237.984 149.539 237.282 149.521 236.256C149.539 235.23 148.621 234.492 147.109 234.492H145.957V232.548H147.109C148.387 232.53 149.251 231.846 149.233 230.82C149.251 229.866 148.513 229.2 147.397 229.2C146.263 229.2 145.327 229.83 145.309 230.82H142.753C142.807 228.624 144.787 227.094 147.397 227.112C150.043 227.094 151.807 228.678 151.789 230.676C151.807 232.116 150.817 233.124 149.377 233.376V233.484C151.267 233.7 152.293 234.834 152.293 236.436C152.293 238.614 150.223 240.18 147.361 240.18ZM159.055 240.18C155.869 240.18 153.943 237.804 153.943 233.628C153.943 229.47 155.887 227.094 159.055 227.112C162.223 227.094 164.167 229.488 164.167 233.628C164.167 237.822 162.241 240.18 159.055 240.18ZM156.643 233.628C156.625 236.58 157.579 237.984 159.055 237.984C160.531 237.984 161.485 236.58 161.467 233.628C161.467 230.73 160.531 229.272 159.055 229.272C157.597 229.272 156.643 230.73 156.643 233.628ZM178.966 235.824V241.62H176.734V237.588H167.95V235.824H178.966ZM165.682 230.388C165.664 228.12 167.518 226.464 169.93 226.464C172 226.464 173.638 227.688 174.07 229.488H176.734V225.6H178.966V235.068H176.734V231.324H174.052C173.62 233.142 171.982 234.366 169.93 234.384C167.518 234.366 165.664 232.71 165.682 230.388ZM167.806 230.388C167.806 231.702 168.724 232.458 169.93 232.476C171.118 232.458 172.018 231.702 172.018 230.388C172.018 229.146 171.118 228.372 169.93 228.372C168.724 228.372 167.806 229.146 167.806 230.388ZM194.595 225.636V237.732H192.327V236.436H189.267V234.924H192.327V225.636H194.595ZM180.951 232.728C183.903 232.692 187.863 232.674 191.247 232.224L191.355 233.844C190.095 234.06 188.799 234.204 187.503 234.294V237.336H185.235V239.532H194.955V241.332H183.003V236.544H185.235V234.438C183.813 234.492 182.445 234.492 181.239 234.492L180.951 232.728ZM182.139 229.056C182.157 227.346 183.795 226.176 186.171 226.176C188.511 226.176 190.167 227.346 190.167 229.056C190.167 230.766 188.511 231.864 186.171 231.864C183.795 231.864 182.157 230.766 182.139 229.056ZM184.263 229.056C184.263 229.83 185.037 230.244 186.171 230.244C187.251 230.244 188.025 229.83 188.043 229.056C188.025 228.246 187.251 227.814 186.171 227.832C185.037 227.814 184.263 228.246 184.263 229.056ZM199.963 238.704L198.451 243.708H196.579L197.443 238.704H199.963ZM219.949 233.412V235.176H213.901V237.984H211.633V235.176H205.333V233.412H219.949ZM206.845 229.236C206.827 227.22 209.149 225.942 212.641 225.924C216.097 225.942 218.401 227.22 218.401 229.236C218.401 231.288 216.097 232.548 212.641 232.548C209.149 232.548 206.827 231.288 206.845 229.236ZM207.061 241.332V236.544H209.329V239.532H218.329V241.332H207.061ZM209.257 229.236C209.239 230.226 210.571 230.748 212.641 230.748C214.693 230.748 216.007 230.226 216.025 229.236C216.007 228.228 214.693 227.688 212.641 227.688C210.571 227.688 209.239 228.228 209.257 229.236ZM234.39 225.636V237.3H232.158V231.576H229.53V229.776H232.158V225.636H234.39ZM220.818 233.7C223.446 232.89 224.652 230.802 224.67 228.732V228.516H221.43V226.716H230.106V228.516H226.938V228.768C226.938 230.622 228.072 232.602 230.61 233.448L229.494 235.212C227.73 234.618 226.506 233.466 225.822 232.026C225.12 233.628 223.842 234.906 221.97 235.536L220.818 233.7ZM223.77 241.332V236.292H226.002V239.532H234.75V241.332H223.77ZM242.351 229.992C242.351 232.422 243.647 235.23 246.275 236.436L245.015 238.2C243.233 237.39 241.973 235.752 241.271 233.844C240.551 235.95 239.237 237.732 237.383 238.596L236.087 236.832C238.751 235.59 240.101 232.62 240.119 229.992V228.984H236.735V227.148H245.591V228.984H242.351V229.992ZM246.815 241.62V225.6H249.083V231.72H251.423V233.592H249.083V241.62H246.815ZM264.927 226.356V227.616C264.909 228.876 264.909 230.244 264.531 232.08H266.655V233.88H252.003V232.08H262.263C262.623 230.514 262.659 229.272 262.659 228.156H253.803V226.356H264.927ZM253.731 241.44V235.608H264.855V241.44H253.731ZM255.927 239.64H262.623V237.336H255.927V239.64ZM278.152 234.276V236.67C279.466 236.598 280.78 236.472 282.004 236.292L282.184 237.948C278.638 238.614 274.84 238.632 272.032 238.632L271.78 236.832C272.968 236.832 274.39 236.832 275.884 236.778V234.276H278.152ZM272.104 233.052C274.516 232.422 275.704 230.928 275.83 229.308H272.608V227.508H275.884V225.744H278.152V227.508H281.428V229.308H278.17C278.314 230.856 279.502 232.314 281.932 232.908L280.924 234.636C279.052 234.168 277.738 233.124 277.018 231.81C276.316 233.196 275.038 234.294 273.148 234.78L272.104 233.052ZM282.94 241.656V225.6H285.172V241.656H282.94ZM301.089 225.6V241.62H298.965V233.592H297.453V240.828H295.365V225.888H297.453V231.792H298.965V225.6H301.089ZM287.733 237.984V227.472H293.709V229.272H289.965V236.112C291.513 236.094 292.881 236.004 294.429 235.716L294.609 237.552C292.647 237.93 290.955 237.984 288.849 237.984H287.733ZM312.982 227.256V240H310.354V229.776H310.246L307.33 231.612V229.272L310.498 227.256H312.982ZM320.862 240.18C317.676 240.18 315.75 237.804 315.75 233.628C315.75 229.47 317.694 227.094 320.862 227.112C324.03 227.094 325.974 229.488 325.974 233.628C325.974 237.822 324.048 240.18 320.862 240.18ZM318.45 233.628C318.432 236.58 319.386 237.984 320.862 237.984C322.338 237.984 323.292 236.58 323.274 233.628C323.274 230.73 322.338 229.272 320.862 229.272C319.404 229.272 318.45 230.73 318.45 233.628ZM340.773 235.824V241.62H338.541V237.588H329.757V235.824H340.773ZM327.489 230.388C327.471 228.12 329.325 226.464 331.737 226.464C333.807 226.464 335.445 227.688 335.877 229.488H338.541V225.6H340.773V235.068H338.541V231.324H335.859C335.427 233.142 333.789 234.366 331.737 234.384C329.325 234.366 327.471 232.71 327.489 230.388ZM329.613 230.388C329.613 231.702 330.531 232.458 331.737 232.476C332.925 232.458 333.825 231.702 333.825 230.388C333.825 229.146 332.925 228.372 331.737 228.372C330.531 228.372 329.613 229.146 329.613 230.388ZM356.401 225.636V237.732H354.133V236.436H351.073V234.924H354.133V225.636H356.401ZM342.757 232.728C345.709 232.692 349.669 232.674 353.053 232.224L353.161 233.844C351.901 234.06 350.605 234.204 349.309 234.294V237.336H347.041V239.532H356.761V241.332H344.809V236.544H347.041V234.438C345.619 234.492 344.251 234.492 343.045 234.492L342.757 232.728ZM343.945 229.056C343.963 227.346 345.601 226.176 347.977 226.176C350.317 226.176 351.973 227.346 351.973 229.056C351.973 230.766 350.317 231.864 347.977 231.864C345.601 231.864 343.963 230.766 343.945 229.056ZM346.069 229.056C346.069 229.83 346.843 230.244 347.977 230.244C349.057 230.244 349.831 229.83 349.849 229.056C349.831 228.246 349.057 227.814 347.977 227.832C346.843 227.814 346.069 228.246 346.069 229.056Z" fill="#FFFBAB"/>
<path d="M48.835 77.51V79.258C48.835 82.26 50.678 84.616 53.3 85.034V86.63C50.64 86.383 48.303 84.616 47.752 83.001C47.201 84.616 44.845 86.345 42.28 86.63V85.034C44.826 84.54 46.745 82.279 46.745 79.22V77.51H48.835ZM40.57 89.67H55.01V91.19H40.57V89.67ZM58.1509 79.03V86.383C58.1509 86.877 58.5309 87.2 59.0059 87.2H61.9509V79.03H58.1509ZM63.9459 77.51V88.72H58.0749C57.0109 88.72 56.1559 87.77 56.1559 86.516V77.51H63.9459ZM68.5059 83.4V93.66H66.5109V76.56H68.5059V81.88H70.7859V83.4H68.5059ZM73.6609 77.51H84.1109V79.03H75.6559V81.576H83.9019V83.096H75.6559V84.901C75.6559 85.338 76.0359 85.68 76.5869 85.68H84.3009V87.2H75.5419C74.4589 87.2 73.6609 86.193 73.6609 84.939V77.51ZM71.7419 89.86H86.1819V91.38H71.7419V89.86ZM97.2458 83.59C97.7398 82.564 97.8918 81.367 97.8918 79.828V78.27H89.2468V76.75H99.8868V79.847C99.8868 81.405 99.6968 82.583 99.2978 83.59H101.768V85.11H97.3598C98.3478 86.022 98.9558 87.409 98.9558 89.024C98.9558 91.988 96.9798 94.078 94.5288 94.078C92.0778 94.078 90.1398 91.912 90.1398 89.024C90.1398 87.409 90.7478 86.022 91.7168 85.11H87.3278V83.59H92.4008V80.36H94.4148V83.59H97.2458ZM92.0968 89.024C92.0968 90.943 93.1798 92.501 94.5288 92.501C95.8778 92.501 96.9608 90.943 96.9608 89.024C96.9608 87.086 95.8778 85.509 94.5288 85.509C93.1798 85.509 92.0968 87.086 92.0968 89.024ZM111.084 78.46H108.139C108.196 81.006 109.621 82.716 111.464 83.134V84.73C109.621 84.616 107.455 83.191 107.056 81.918C106.619 83.21 104.567 84.54 102.724 84.73V83.134C104.548 82.716 105.992 80.987 106.049 78.46H103.009V76.94H111.084V78.46ZM115.264 81.31V89.67C115.264 92.197 113.174 94.059 110.742 94.059C108.31 94.059 106.239 92.197 106.239 89.67C106.239 87.143 108.31 85.3 110.742 85.3C111.673 85.3 112.547 85.585 113.269 86.06V76.56H115.264V79.79H117.544V81.31H115.264ZM108.234 89.67C108.234 91.361 109.412 92.52 110.742 92.52C112.091 92.52 113.269 91.361 113.269 89.67C113.269 87.979 112.091 86.82 110.742 86.82C109.412 86.82 108.234 87.979 108.234 89.67ZM133.838 84.92C134.256 83.932 134.389 82.792 134.389 81.348V78.65H125.744V77.13H136.384V81.367C136.384 82.83 136.213 83.951 135.871 84.92H138.265V86.44H132.052V93.66H130.038V86.44H123.825V84.92H133.838ZM147.676 76.18V77.7H151.97V79.22H147.752C148.17 81.101 150.203 82.165 152.141 82.165V83.685C149.975 83.685 147.239 82.621 146.593 81.386C145.909 82.621 143.116 83.685 141.121 83.685V82.165C142.888 82.165 145.054 81.082 145.51 79.22H141.33V77.7H145.586V76.18H147.676ZM139.411 84.977H153.851V86.497H147.638V87.96H151.951V93.85H149.956V89.48H141.311V87.96H145.624V86.497H139.411V84.977ZM160.697 79.03H155.377V77.51H162.787V79.543C162.787 84.692 159.329 88.378 155.187 88.91V87.39C158.626 86.44 160.697 83.096 160.697 79.752V79.03ZM167.537 76.56V93.66H165.542V76.56H167.537ZM174.63 76.56C176.53 76.56 178.43 77.909 178.848 79.98H181.508V76.56H183.503V85.49H181.508V81.5H178.905C178.601 83.799 176.644 85.11 174.63 85.11C172.369 85.11 170.298 83.552 170.298 80.854C170.298 78.27 172.35 76.56 174.63 76.56ZM174.63 78.08C173.433 78.08 172.293 79.125 172.293 80.854C172.293 82.621 173.433 83.59 174.611 83.59C175.808 83.59 176.948 82.526 176.948 80.854C176.948 79.125 175.808 78.08 174.63 78.08ZM175.257 88.72H181.527V86.44H183.522V93.85H175.105C174.117 93.85 173.262 92.881 173.262 91.627V86.44H175.257V88.72ZM175.257 90.24V91.456C175.257 91.988 175.675 92.33 176.131 92.33H181.527V90.24H175.257ZM201.64 83.457C201.925 82.545 202.058 81.329 202.058 80.113V78.46H193.413V76.94H204.053V80.132C204.053 81.348 203.901 82.564 203.654 83.457H205.934V84.977H191.494V83.457H201.64ZM195.389 88.587V91.589C195.389 92.064 195.807 92.33 196.282 92.33H202.039V88.587H195.389ZM204.034 87.067V93.85H195.047C194.135 93.85 193.394 92.862 193.394 91.608V87.067H204.034ZM209.854 90.24C209.854 89.613 210.006 89.024 210.253 88.511V84.958H207.08V83.438H211.127C210.367 82.659 209.93 81.595 209.93 80.493C209.93 78.175 211.83 76.18 214.319 76.18C216.713 76.18 218.67 78.137 218.67 80.493C218.67 81.614 218.214 82.659 217.492 83.438H221.52V84.958H218.347V88.644C218.575 89.119 218.689 89.651 218.689 90.24C218.689 92.596 216.694 94.23 214.262 94.23C211.83 94.23 209.854 92.596 209.854 90.24ZM212.267 86.63C212.875 86.383 213.54 86.231 214.262 86.231C215.003 86.231 215.706 86.383 216.333 86.668V84.958H212.267V86.63ZM211.849 90.24C211.849 91.76 212.932 92.71 214.262 92.71C215.611 92.71 216.694 91.76 216.694 90.24C216.694 88.72 215.611 87.751 214.262 87.751C213.426 87.751 212.704 88.131 212.267 88.777C212.001 89.176 211.849 89.67 211.849 90.24ZM214.319 77.7C213.027 77.7 211.925 78.935 211.925 80.493C211.925 82.127 213.008 83.286 214.319 83.286C215.573 83.286 216.675 82.051 216.675 80.493C216.675 78.897 215.573 77.7 214.319 77.7ZM230.836 79.03H227.891V80.778C227.872 83.856 229.031 86.288 231.216 87.314V88.91C229.43 88.606 227.188 86.649 226.808 85.053C226.466 86.649 224.186 88.53 222.476 88.91V87.314C224.528 86.326 225.782 83.78 225.801 80.74V79.03H222.761V77.51H230.836V79.03ZM235.206 76.56V93.66H233.211V76.56H235.206ZM242.47 76.37C244.693 76.37 246.631 78.308 246.631 80.664C246.631 81.918 246.137 83.001 245.339 83.761H248.227V85.281H243.591V88.15H241.577V85.281H237.872V83.761H239.563C238.765 83.001 238.29 81.918 238.29 80.664C238.29 78.308 240.076 76.37 242.47 76.37ZM242.47 77.89C241.33 77.89 240.285 79.049 240.285 80.664C240.285 82.222 241.311 83.4 242.451 83.4C243.648 83.4 244.636 82.203 244.636 80.664C244.636 79.03 243.686 77.89 242.47 77.89ZM251.172 76.56V89.48H249.177V87.58H245.662V86.06H249.177V76.56H251.172ZM243.743 92.33H251.172V93.85H242.622C241.634 93.85 240.912 92.862 240.912 91.684V88.72H242.907V91.494C242.907 91.95 243.287 92.33 243.743 92.33ZM261.077 76.18C263.471 76.18 265.428 78.194 265.428 80.55C265.428 81.766 264.896 82.887 264.06 83.704H268.278V85.224H253.838V83.704H258.056C257.201 82.887 256.688 81.747 256.688 80.55C256.688 78.232 258.588 76.18 261.077 76.18ZM261.077 77.7C259.785 77.7 258.683 78.992 258.683 80.55C258.683 82.184 259.766 83.4 261.077 83.4C262.331 83.4 263.433 82.108 263.433 80.55C263.433 78.954 262.331 77.7 261.077 77.7ZM266.587 93.85H257.619C256.612 93.85 255.757 92.843 255.757 91.646V89.48H264.383V88.34H255.757V86.82H266.397V89.499C266.397 90.316 265.865 91 265.2 91H257.752V91.551C257.752 91.988 258.132 92.33 258.607 92.33H266.587V93.85ZM279.062 76.408C281.152 76.408 283.261 78.156 283.261 80.645C283.261 83.229 281.285 84.882 279.062 84.882C276.782 84.882 274.825 83.191 274.825 80.645C274.825 78.175 276.744 76.408 279.062 76.408ZM279.062 77.928C277.865 77.928 276.82 79.03 276.82 80.645C276.82 82.203 277.846 83.362 279.043 83.362C280.202 83.362 281.266 82.184 281.266 80.645C281.266 79.03 280.202 77.928 279.062 77.928ZM287.289 76.56V93.66H285.294V86.991C284.876 87.238 284.116 87.371 283.47 87.371H280.126V93.09H278.112V87.371H274.369V85.851H283.432C284.173 85.851 284.819 85.699 285.294 85.433V76.56H287.289ZM290.392 82.716C290.392 81.519 290.848 80.531 291.532 79.809H289.86V78.27H293.413V76.37H295.522V78.27H299.075V79.809H297.346C298.049 80.531 298.505 81.519 298.505 82.716C298.505 85.205 296.662 86.991 294.439 86.991C292.216 86.991 290.392 85.205 290.392 82.716ZM292.406 82.716C292.406 84.293 293.318 85.49 294.439 85.49C295.579 85.49 296.51 84.293 296.51 82.716C296.51 81.139 295.579 79.961 294.439 79.961C293.318 79.961 292.406 81.139 292.406 82.716ZM302.685 82.45V89.29H300.69V76.56H302.685V80.93H304.965V82.45H302.685ZM295.256 92.14H302.875V93.66H294.135C293.147 93.66 292.425 92.672 292.425 91.494V88.15H294.42V91.304C294.42 91.76 294.8 92.14 295.256 92.14Z" fill="#53EEEA"/>
<line x1="40" y1="262.5" x2="360" y2="262.5" stroke="white"/>
<line x1="40" y1="176.5" x2="360" y2="176.5" stroke="white"/>
<defs>
<clipPath id="clip0_204_2">
<rect width="93" height="25" fill="white" transform="translate(40 459)"/>
</clipPath>
<clipPath id="clip1_204_2">
<rect width="231" height="197" fill="white" transform="matrix(-1 0 0 1 400 325)"/>
</clipPath>
<clipPath id="clip2_204_2">
<rect width="103" height="21" fill="white" transform="translate(272 23)"/>
</clipPath>
</defs>
</svg>
