<svg width="42" height="42" viewBox="0 0 42 42" fill="none" xmlns="http://www.w3.org/2000/svg">
<path d="M13.9271 0.94768C13.949 0.835757 14.1331 0.835756 14.155 0.947679C14.4902 2.65505 15.5946 7.40851 17.8599 9.67386C20.1253 11.9392 24.8787 13.0435 26.5861 13.3787C26.698 13.4007 26.698 13.5847 26.5861 13.6067C24.8787 13.9419 20.1253 15.0462 17.8599 17.3116C15.5946 19.5769 14.4902 24.3304 14.155 26.0378C14.1331 26.1497 13.949 26.1497 13.9271 26.0378C13.5919 24.3304 12.4875 19.5769 10.2222 17.3116C7.95685 15.0462 3.20339 13.9419 1.49602 13.6067C1.3841 13.5847 1.3841 13.4007 1.49602 13.3787C3.20339 13.0435 7.95685 11.9392 10.2222 9.67386C12.4875 7.40851 13.5919 2.65505 13.9271 0.94768Z" fill="#2970FF"/>
<path d="M32.459 14.5427C32.4823 14.4311 32.6718 14.4311 32.6951 14.5427C32.9564 15.7946 33.6731 18.6084 35.057 19.9923C36.441 21.3762 39.2547 22.0929 40.5066 22.3542C40.6182 22.3775 40.6182 22.567 40.5066 22.5904C39.2547 22.8517 36.441 23.5684 35.057 24.9523C33.6731 26.3362 32.9564 29.15 32.6951 30.4018C32.6718 30.5135 32.4823 30.5135 32.459 30.4018C32.1976 29.15 31.4809 26.3362 30.097 24.9523C28.7131 23.5684 25.8993 22.8517 24.6475 22.5904C24.5358 22.567 24.5358 22.3775 24.6475 22.3542C25.8993 22.0929 28.7131 21.3762 30.097 19.9923C31.4809 18.6084 32.1976 15.7946 32.459 14.5427Z" fill="#00BFFF"/>
<path d="M13.9179 29.9685C13.9428 29.8572 14.1399 29.8572 14.1648 29.9685C14.373 30.8975 14.86 32.6282 15.7427 33.5109C16.6254 34.3936 18.3561 34.8806 19.2851 35.0888C19.3964 35.1137 19.3964 35.3108 19.2851 35.3357C18.3561 35.5439 16.6254 36.0309 15.7427 36.9136C14.86 37.7963 14.373 39.527 14.1648 40.456C14.1399 40.5673 13.9428 40.5673 13.9179 40.456C13.7097 39.527 13.2227 37.7963 12.34 36.9136C11.4573 36.0309 9.72663 35.5439 8.79761 35.3357C8.68631 35.3108 8.68631 35.1137 8.79761 35.0888C9.72663 34.8806 11.4573 34.3936 12.34 33.5109C13.2227 32.6282 13.7097 30.8975 13.9179 29.9685Z" fill="#033495"/>
</svg>
