<svg width="54" height="54" viewBox="0 0 54 54" fill="none" xmlns="http://www.w3.org/2000/svg">
<path d="M10.1245 6.38932V43.931C10.1244 44.076 10.1535 44.2196 10.21 44.3536C10.2665 44.4876 10.3493 44.6094 10.4538 44.7119C10.5583 44.8145 10.6824 44.8958 10.8189 44.9513C10.9554 45.0067 11.1018 45.0352 11.2495 45.0352H20.2506C20.549 45.0352 20.8351 44.9188 21.0461 44.7118C21.2571 44.5047 21.3756 44.2238 21.3756 43.931C21.3756 43.6381 21.2571 43.3573 21.0461 43.1502C20.8351 42.9432 20.549 42.8268 20.2506 42.8268H12.3745V7.49349H30.376L30.38 17.431C30.38 17.7238 30.4985 18.0047 30.7095 18.2118C30.9205 18.4188 31.2066 18.5352 31.505 18.5352H41.6255V42.8268H33.7473C33.4489 42.8268 33.1628 42.9432 32.9518 43.1502C32.7408 43.3573 32.6223 43.6381 32.6223 43.931C32.6223 44.2238 32.7408 44.5047 32.9518 44.7118C33.1628 44.9188 33.4489 45.0352 33.7473 45.0352H42.7506C42.8984 45.0352 43.0447 45.0067 43.1812 44.9513C43.3177 44.8958 43.4418 44.8145 43.5463 44.7119C43.6508 44.6094 43.7336 44.4876 43.7901 44.3536C43.8466 44.2196 43.8757 44.076 43.8756 43.931V17.431C43.8748 17.1376 43.7558 16.8565 43.5446 16.649L32.2962 5.60879C32.0849 5.40212 31.7989 5.28579 31.5006 5.28516H11.2495C11.1018 5.28507 10.9554 5.31358 10.8189 5.36903C10.6824 5.42449 10.5583 5.50582 10.4538 5.60837C10.3493 5.71092 10.2665 5.83268 10.21 5.96668C10.1535 6.10068 10.1244 6.2443 10.1245 6.38932ZM32.6268 9.05606L40.0348 16.3268H32.63L32.6268 9.05606ZM25.8756 46.1393V28.9298L21.046 33.67C20.8343 33.8736 20.5494 33.987 20.253 33.9855C19.9566 33.9841 19.6728 33.8679 19.4633 33.6622C19.2537 33.4565 19.1353 33.1779 19.1338 32.8871C19.1323 32.5962 19.2478 32.3165 19.4553 32.1087L26.2053 25.4837C26.3072 25.3851 26.4275 25.3067 26.5596 25.2527L26.57 25.2444L26.5729 25.2441C26.7578 25.1753 26.9581 25.1564 27.153 25.1894C27.1958 25.1949 27.2383 25.203 27.2801 25.2136C27.4739 25.256 27.6523 25.3494 27.7961 25.4837L34.5461 32.1087C34.7535 32.3165 34.869 32.5962 34.8675 32.8871C34.8661 33.178 34.7477 33.4565 34.5381 33.6622C34.3285 33.8679 34.0447 33.9841 33.7484 33.9855C33.452 33.987 33.167 33.8736 32.9553 33.67L28.1256 28.9298V46.1393C28.1256 46.4322 28.0071 46.713 27.7961 46.9201C27.5851 47.1272 27.299 47.2435 27.0006 47.2435C26.7022 47.2435 26.4161 47.1272 26.2051 46.9201C25.9941 46.713 25.8756 46.4322 25.8756 46.1393Z" fill="#BDC3D0"/>
</svg>
