<svg width="18" height="18" viewBox="0 0 18 18" fill="none" xmlns="http://www.w3.org/2000/svg">
<rect width="18" height="18" rx="4" fill="#1FA7FF"/>
<path d="M10.1055 4.16113C10.1603 4.16113 10.2149 4.17142 10.2656 4.19238C10.3164 4.21338 10.3625 4.2444 10.4014 4.2832L12.9795 6.86133V6.8623C13.0183 6.90116 13.0493 6.94732 13.0703 6.99805C13.0912 7.04874 13.1026 7.10337 13.1025 7.1582V13.0518C13.1025 13.2601 13.0193 13.46 12.8721 13.6074C12.7246 13.7549 12.524 13.8379 12.3154 13.8379H5.68457C5.47606 13.8378 5.27635 13.7549 5.12891 13.6074C4.98147 13.46 4.89852 13.2603 4.89844 13.0518V4.94727C4.89854 4.73875 4.98146 4.53905 5.12891 4.3916C5.27635 4.24415 5.47606 4.16123 5.68457 4.16113H10.1055ZM5.73535 13.001H12.2656V7.57617H10.1055C9.99451 7.57617 9.88803 7.53158 9.80957 7.45312C9.73131 7.37478 9.68664 7.26893 9.68652 7.1582V4.99805H5.73535V13.001ZM10.5234 6.73926H11.6729L10.5234 5.58887V6.73926Z" fill="white" stroke="white" stroke-width="0.1"/>
</svg>
