<svg width="22" height="23" viewBox="0 0 22 23" fill="none" xmlns="http://www.w3.org/2000/svg">
<path d="M11 3.54611H4.58333C4.0971 3.54611 3.63079 3.73926 3.28697 4.08308C2.94315 4.42689 2.75 4.89321 2.75 5.37944V18.2128C2.75 18.699 2.94315 19.1653 3.28697 19.5091C3.63079 19.853 4.0971 20.0461 4.58333 20.0461H17.4167C17.9029 20.0461 18.3692 19.853 18.713 19.5091C19.0568 19.1653 19.25 18.699 19.25 18.2128V11.7961M16.8437 3.20236C17.2084 2.83768 17.703 2.63281 18.2187 2.63281C18.7345 2.63281 19.2291 2.83768 19.5937 3.20236C19.9584 3.56703 20.1633 4.06163 20.1633 4.57736C20.1633 5.09308 19.9584 5.58768 19.5937 5.95236L11.3318 14.2152C11.1142 14.4327 10.8453 14.5919 10.5499 14.6781L7.91633 15.4481C7.83745 15.4711 7.75384 15.4725 7.67425 15.4521C7.59466 15.4317 7.52201 15.3903 7.46391 15.3322C7.40581 15.2741 7.3644 15.2014 7.34401 15.1219C7.32361 15.0423 7.32499 14.9587 7.348 14.8798L8.118 12.2462C8.20465 11.9511 8.36416 11.6825 8.58183 11.4652L16.8437 3.20236Z" stroke="#808080" stroke-width="1.5" stroke-linecap="round" stroke-linejoin="round"/>
</svg>
