<svg xmlns="http://www.w3.org/2000/svg" width="150" height="150" viewBox="0 0 150 150">
  <path id="패스_3400" data-name="패스 3400" d="M148.428,87.9c-1.743-2.8-3.536-5.574-5.328-8.345a8.339,8.339,0,0,1-1.336-4.97,8.708,8.708,0,0,1,1.536-4.474c1.766-2.718,3.544-5.431,5.245-8.19a8.252,8.252,0,0,0,.824-7.818,8.43,8.43,0,0,0-3.813-4.373c-.938-.532-1.922-.984-2.88-1.482-2.2-1.145-4.407-2.282-6.6-3.447a8.657,8.657,0,0,1-4.26-5.486,8.141,8.141,0,0,1-.1-2.438c.039-1.518.129-3.034.2-4.55h.016c.073-1.984.136-3.969.221-5.953a7.705,7.705,0,0,0-1-4.093,7.934,7.934,0,0,0-6.483-4.349,39.048,39.048,0,0,0-4.808.068q-3.809.126-7.616.3a6.434,6.434,0,0,1-3.042-.651,8.326,8.326,0,0,1-3.972-3.69c-.43-.829-.871-1.653-1.3-2.483q-1.729-3.346-3.453-6.7a8.521,8.521,0,0,0-12.4-3.309Q84,4.042,79.963,6.68A9.755,9.755,0,0,1,76.275,8.2a7.58,7.58,0,0,1-2.693-.015,10.5,10.5,0,0,1-3.733-1.647c-2.61-1.718-5.257-3.382-7.886-5.071a8.508,8.508,0,0,0-12.39,3.319c-1.542,2.983-3.042,5.989-4.64,8.941a8.052,8.052,0,0,1-7.505,4.555c-1.868,0-3.736-.135-5.6-.2-1.954-.07-3.908-.187-5.862-.184a8.372,8.372,0,0,0-8.124,8.472c.014,1.517.152,3.033.221,4.55.1,2.13.241,4.259.258,6.39a8.3,8.3,0,0,1-1.377,4.762A8.473,8.473,0,0,1,13.7,44.942q-2.884,1.479-5.76,2.974C6.617,48.6,5.27,49.25,4,50.019A8.386,8.386,0,0,0,1.144,61.351c.438.755.969,1.455,1.44,2.191,1.4,2.187,2.807,4.37,4.182,6.572A9.386,9.386,0,0,1,8.25,74.261a8.262,8.262,0,0,1-1.3,5.243C5.133,82.4,3.274,85.265,1.429,88.141A8.4,8.4,0,0,0,.474,95.61a8.217,8.217,0,0,0,4.175,4.751c2.932,1.511,5.855,3.041,8.79,4.544a8.437,8.437,0,0,1,4.876,8.371c-.031,1.08-.106,2.158-.154,3.237-.092,2.071-.162,4.143-.274,6.213a9.964,9.964,0,0,0,.426,3.708,8.282,8.282,0,0,0,7.29,5.649c1.572.049,3.149-.044,4.724-.1,2.422-.086,4.843-.237,7.267-.278a7.927,7.927,0,0,1,4.127,1.136,8.893,8.893,0,0,1,3.455,3.859c1.423,2.814,2.883,5.61,4.338,8.408a8.48,8.48,0,0,0,9.685,4.623,10.392,10.392,0,0,0,3.162-1.463q4.092-2.629,8.19-5.247a8.178,8.178,0,0,1,4.66-1.29,8.392,8.392,0,0,1,4.358,1.35c2.813,1.781,5.612,3.585,8.417,5.381a8.917,8.917,0,0,0,3.71,1.468,8.509,8.509,0,0,0,5.014-.887,8.033,8.033,0,0,0,3.391-3.205c.223-.4.308-.869.524-1.27.356-.662.8-1.278,1.15-1.942,1.145-2.168,2.22-4.375,3.407-6.521a8.108,8.108,0,0,1,7.34-4.4c1.457-.033,2.917.1,4.376.16,2.013.082,4.033.1,6.04.26a8.364,8.364,0,0,0,9.186-8.436c-.022-3.5-.25-7-.407-10.5a8.216,8.216,0,0,1,.593-3.908,8.785,8.785,0,0,1,4.18-4.315c1.548-.754,3.064-1.575,4.594-2.368,1.5-.78,3.027-1.524,4.5-2.35a8.346,8.346,0,0,0,4.052-9.762,9.836,9.836,0,0,0-1.212-2.587M102.62,102.484H85.644L65.165,73.064v29.42H47.381V47.515H64.356l20.479,29.42V47.515H102.62Z" transform="translate(0 0.001)" fill="#5fb157"/>
</svg>
