<svg width="24" height="24" viewBox="0 0 24 24" fill="none" xmlns="http://www.w3.org/2000/svg">
<path d="M20.8575 2.25H3.14251C2.82832 2.25 2.51721 2.31188 2.22694 2.43212C1.93667 2.55235 1.67292 2.72858 1.45076 2.95075C1.00208 3.39943 0.750013 4.00797 0.750013 4.6425V12C0.749442 12.0987 0.768361 12.1966 0.805684 12.2879C0.843008 12.3793 0.898001 12.4624 0.967513 12.5325L1.94251 13.5L0.967513 14.4675C0.898001 14.5376 0.843008 14.6207 0.805684 14.7121C0.768361 14.8034 0.749442 14.9013 0.750013 15V19.3575C0.750013 19.992 1.00208 20.6006 1.45076 21.0493C1.67292 21.2714 1.93667 21.4476 2.22694 21.5679C2.51721 21.6881 2.82832 21.75 3.14251 21.75H20.8575C21.1717 21.75 21.4828 21.6881 21.7731 21.5679C22.0634 21.4476 22.3271 21.2714 22.5493 21.0493C22.7714 20.8271 22.9477 20.5633 23.0679 20.2731C23.1881 19.9828 23.25 19.6717 23.25 19.3575V4.6425C23.25 4.32831 23.1881 4.0172 23.0679 3.72693C22.9477 3.43666 22.7714 3.17291 22.5493 2.95075C22.3271 2.72858 22.0634 2.55235 21.7731 2.43212C21.4828 2.31188 21.1717 2.25 20.8575 2.25ZM3.14251 3.75H20.8575C21.0942 3.75 21.3212 3.84403 21.4886 4.01141C21.656 4.17878 21.75 4.40579 21.75 4.6425V6.75H2.25001V4.6425C2.25001 4.40579 2.34404 4.17878 2.51142 4.01141C2.6788 3.84403 2.90581 3.75 3.14251 3.75ZM20.8575 20.25H3.14251C3.02531 20.25 2.90925 20.2269 2.80097 20.1821C2.69268 20.1372 2.5943 20.0715 2.51142 19.9886C2.34404 19.8212 2.25001 19.5942 2.25001 19.3575V15.3075L3.53251 14.0325C3.60281 13.9628 3.6586 13.8798 3.69668 13.7884C3.73476 13.697 3.75436 13.599 3.75436 13.5C3.75436 13.401 3.73476 13.303 3.69668 13.2116C3.6586 13.1202 3.60281 13.0372 3.53251 12.9675L2.25001 11.6925V8.25H21.75V19.3575C21.75 19.5942 21.656 19.8212 21.4886 19.9886C21.3212 20.156 21.0942 20.25 20.8575 20.25Z" fill="black"/>
<path d="M4.5 6C4.91421 6 5.25 5.66421 5.25 5.25C5.25 4.83579 4.91421 4.5 4.5 4.5C4.08579 4.5 3.75 4.83579 3.75 5.25C3.75 5.66421 4.08579 6 4.5 6Z" fill="black"/>
<path d="M7.5 6C7.91421 6 8.25 5.66421 8.25 5.25C8.25 4.83579 7.91421 4.5 7.5 4.5C7.08579 4.5 6.75 4.83579 6.75 5.25C6.75 5.66421 7.08579 6 7.5 6Z" fill="black"/>
<path d="M10.5 6C10.9142 6 11.25 5.66421 11.25 5.25C11.25 4.83579 10.9142 4.5 10.5 4.5C10.0858 4.5 9.75 4.83579 9.75 5.25C9.75 5.66421 10.0858 6 10.5 6Z" fill="black"/>
<path d="M12.5326 9.96794C12.4629 9.89765 12.38 9.84185 12.2886 9.80377C12.1972 9.7657 12.0991 9.74609 12.0001 9.74609C11.9011 9.74609 11.8031 9.7657 11.7117 9.80377C11.6203 9.84185 11.5374 9.89765 11.4676 9.96794L9.21764 12.2179C9.14771 12.2879 9.09224 12.3709 9.05439 12.4623C9.01655 12.5536 8.99707 12.6515 8.99707 12.7504C8.99707 12.8493 9.01655 12.9473 9.05439 13.0386C9.09224 13.13 9.14771 13.213 9.21764 13.2829C9.35887 13.4242 9.55041 13.5035 9.75014 13.5035C9.84903 13.5035 9.94696 13.484 10.0383 13.4462C10.1297 13.4083 10.2127 13.3529 10.2826 13.2829L11.2501 12.3079V18.0004C11.2501 18.1994 11.3292 18.3901 11.4698 18.5308C11.6105 18.6714 11.8012 18.7504 12.0001 18.7504C12.1991 18.7504 12.3898 18.6714 12.5305 18.5308C12.6711 18.3901 12.7501 18.1994 12.7501 18.0004V12.3079L13.7176 13.2829C13.7874 13.3532 13.8703 13.409 13.9617 13.4471C14.0531 13.4852 14.1511 13.5048 14.2501 13.5048C14.3491 13.5048 14.4472 13.4852 14.5386 13.4471C14.63 13.409 14.7129 13.3532 14.7826 13.2829C14.8529 13.2132 14.9087 13.1303 14.9468 13.0389C14.9849 12.9475 15.0045 12.8495 15.0045 12.7504C15.0045 12.6514 14.9849 12.5534 14.9468 12.462C14.9087 12.3706 14.8529 12.2877 14.7826 12.2179L12.5326 9.96794Z" fill="black"/>
</svg>
