<svg width="400" height="580" viewBox="0 0 400 580" fill="none" xmlns="http://www.w3.org/2000/svg">
<rect width="400" height="580" fill="#3C4576"/>
<mask id="mask0_204_4" style="mask-type:alpha" maskUnits="userSpaceOnUse" x="0" y="379" width="400" height="201">
<rect y="379" width="400" height="201" fill="#D9D9D9"/>
</mask>
<g mask="url(#mask0_204_4)">
<path d="M344.048 486.449C344.048 486.449 348.64 481.27 345.692 473.397C342.743 465.526 336.215 460.785 330.8 458.799C321.905 455.536 315.034 460.247 317.447 463.091C318.79 464.673 317.732 470.366 316.416 470.367C310.236 470.376 330.902 498.413 344.049 486.449H344.048Z" fill="#FDBAA0"/>
<path d="M290.981 476.6C290.981 476.6 292.443 479.639 294.844 483.715C295.003 483.984 295.166 484.258 295.334 484.536C295.351 484.566 295.369 484.597 295.389 484.627C296.614 486.667 298.055 488.915 299.646 491.143C299.672 491.179 299.698 491.216 299.724 491.252C303.081 495.935 307.108 500.516 311.259 502.882H311.26C313.067 503.728 315.026 504.45 317.151 505.009C317.661 505.143 318.167 505.349 318.669 505.619C320.586 506.648 322.445 508.607 324.22 511.082C325.825 513.317 327.36 515.975 328.809 518.748C329.763 520.575 330.68 522.453 331.554 524.295L370.921 517.525C369.485 515.298 367.826 512.794 366.043 510.127C363.756 506.704 361.26 503.009 358.765 499.286C358.453 498.818 358.139 498.35 357.826 497.884C357.44 497.306 357.055 496.73 356.671 496.154C356.577 496.012 356.482 495.871 356.389 495.73C355.659 494.637 354.937 493.546 354.225 492.467C353.407 491.227 352.603 489.999 351.821 488.795C351.698 488.606 351.575 488.418 351.454 488.23C351.39 488.131 351.325 488.032 351.261 487.932C351.064 487.628 350.869 487.325 350.676 487.024C350.191 486.271 349.719 485.529 349.259 484.802C349.188 484.692 349.118 484.582 349.049 484.472C348.992 484.377 348.931 484.283 348.872 484.19C348.834 484.132 348.799 484.072 348.762 484.013C348.564 483.7 348.37 483.391 348.18 483.084C348.128 483.001 348.077 482.918 348.026 482.837C347.571 482.104 347.133 481.388 346.712 480.692C346.666 480.614 346.619 480.538 346.574 480.461C346.574 480.461 346.574 480.46 346.573 480.461C346.568 480.452 346.562 480.444 346.557 480.436C346.553 480.427 346.547 480.42 346.543 480.412C345.902 479.349 345.306 478.335 344.764 477.38C342.999 474.279 341.796 471.799 341.446 470.289L331.087 471.585L330.788 471.622L329.395 471.796L323.774 472.499L317.826 473.243L316.247 473.441L315.776 473.499L314.756 469.982L309.609 474.271L306.58 474.651L306.262 474.69L305.719 474.759L295.064 476.092L294.356 476.18L292.665 476.391L290.984 476.602L290.981 476.6Z" fill="#FDBAA0"/>
<path d="M318.087 505.316C321.699 505.76 325.423 504.799 328.357 502.64C328.577 502.477 328.345 502.118 328.122 502.282C325.285 504.371 321.68 505.328 318.18 504.898C317.908 504.864 317.813 505.282 318.087 505.316Z" fill="#E79780"/>
<path d="M357.825 497.884C354.203 499.039 352.64 494.174 349.498 490.965C346.56 487.963 347.699 484.269 348.179 483.084C350.985 487.59 354.382 492.736 357.825 497.884Z" fill="#FFD1C3"/>
<path d="M349.054 494.063C348.448 494.77 347.84 495.478 347.234 496.184C346.85 496.63 347.53 497.243 347.916 496.794C348.522 496.087 349.13 495.38 349.737 494.674C350.12 494.227 349.44 493.614 349.054 494.063Z" fill="#FF8F65"/>
<path d="M346.3 480.569C345.376 484.049 343.816 487.359 341.712 490.282C341.121 491.103 340.487 491.892 339.816 492.65C339.634 492.856 339.952 493.142 340.136 492.936C342.562 490.198 344.484 487.023 345.777 483.601C346.141 482.638 346.455 481.658 346.72 480.662C346.791 480.395 346.372 480.304 346.302 480.569H346.3Z" fill="#E79780"/>
<path d="M342.796 467.956C339.653 462.768 330.256 451.679 325.418 448.779C316.37 443.353 311.57 434.738 309.896 434.899C308.223 435.059 305.49 439.824 309.469 447.266C313.393 454.606 320.188 457.952 320.77 459.618C321.353 461.283 323.695 468.841 323.695 468.841C323.695 468.841 345.233 471.979 342.795 467.957L342.796 467.956Z" fill="#FDBAA0"/>
<path d="M290.685 411.189L278.725 411.712C277.901 411.747 277.261 412.443 277.299 413.264L277.682 421.758C277.719 422.564 277.201 423.286 276.429 423.53C273.277 424.532 270.326 425.962 267.641 427.749C267.036 428.15 266.235 428.097 265.698 427.607L259.452 421.921C258.695 421.232 257.523 421.284 256.831 422.036L249.343 430.182C248.588 431.005 248.645 432.281 249.472 433.036L255.664 438.674C256.212 439.172 256.349 439.974 256.004 440.628C254.518 443.449 253.41 446.492 252.742 449.688C252.589 450.417 251.967 450.954 251.219 450.986L242.266 451.378C241.439 451.414 240.799 452.11 240.835 452.934L241.374 464.858C241.411 465.678 242.109 466.313 242.933 466.277L251.65 465.896C252.526 465.858 253.326 466.408 253.586 467.243C254.517 470.229 255.837 473.039 257.484 475.617C257.945 476.34 257.874 477.278 257.294 477.91L251.461 484.254C250.876 484.891 250.92 485.881 251.561 486.464L260.277 494.401C260.932 494.997 261.947 494.952 262.545 494.302L268.351 487.985C268.883 487.407 269.742 487.274 270.434 487.649C273.307 489.204 276.417 490.37 279.689 491.081C280.356 491.225 280.846 491.796 280.875 492.476L281.272 501.242C281.307 502.031 281.979 502.643 282.773 502.609L294.777 502.084C295.622 502.048 296.275 501.337 296.237 500.496L295.852 491.981C295.823 491.315 296.257 490.72 296.9 490.538C300.1 489.627 303.106 488.279 305.854 486.565C306.695 486.039 307.788 486.139 308.522 486.809L314.289 492.06C314.933 492.647 315.934 492.603 316.523 491.963L324.516 483.267C325.095 482.636 325.052 481.658 324.418 481.082L318.39 475.593C317.844 475.097 317.717 474.295 318.07 473.651C319.701 470.678 320.909 467.448 321.617 464.044C321.765 463.332 322.375 462.807 323.106 462.776L331.139 462.425C332.04 462.386 332.737 461.627 332.696 460.732L332.174 449.187C332.131 448.231 331.317 447.49 330.356 447.532L322.344 447.882C321.666 447.912 321.056 447.477 320.86 446.829C319.838 443.436 318.315 440.269 316.381 437.404C316.001 436.842 316.052 436.095 316.512 435.596L321.895 429.739C322.581 428.994 322.528 427.836 321.778 427.154L313.305 419.439C312.626 418.82 311.571 418.866 310.95 419.542L305.384 425.597C304.913 426.11 304.154 426.235 303.536 425.912C300.608 424.373 297.441 423.235 294.111 422.567C293.288 422.402 292.676 421.711 292.639 420.875L292.266 412.636C292.229 411.803 291.52 411.157 290.682 411.194L290.685 411.189ZM308.986 455.518C309.769 467.833 300.138 478.308 287.745 478.621C276.065 478.917 266.113 469.856 265.369 458.251C264.58 445.932 274.216 435.45 286.614 435.139C298.297 434.846 308.247 443.912 308.986 455.519V455.518Z" fill="#49B2A4"/>
<path d="M244.123 456.398C244.056 455.93 243.968 455.317 244.326 454.939C244.633 454.615 245.168 454.472 245.583 454.352C246.004 454.232 246.326 453.907 246.259 453.437C246.204 453.05 245.757 452.644 245.338 452.763C244.511 453.001 243.637 453.269 243.057 453.944C242.414 454.692 242.394 455.708 242.526 456.639C242.671 457.662 244.267 457.425 244.123 456.397V456.398Z" fill="#E9F4F6"/>
<path d="M256.487 447.407C257.124 445.701 258.047 444.202 259.275 442.856C259.974 442.089 258.678 441.127 257.985 441.887C256.673 443.325 255.671 444.98 254.991 446.801C254.629 447.77 256.125 448.378 256.487 447.408V447.407Z" fill="#E9F4F6"/>
<path d="M257.223 426.264C257.874 425.513 258.753 425.013 259.73 424.823C260.746 424.626 260.509 423.034 259.486 423.234C258.08 423.509 256.868 424.217 255.933 425.296C255.253 426.081 256.548 427.045 257.223 426.265V426.264Z" fill="#E9F4F6"/>
<path d="M279.772 415.36C280.217 413.886 282.633 414.103 283.818 413.583C284.768 413.166 284.125 411.691 283.172 412.109C281.457 412.862 278.948 412.525 278.275 414.753C277.979 415.737 279.473 416.35 279.772 415.36Z" fill="#E9F4F6"/>
<path d="M295.787 427.359C297.792 427.802 299.657 428.6 301.367 429.728C302.232 430.299 303.207 429.019 302.34 428.446C300.382 427.153 298.268 426.268 295.977 425.762C294.963 425.538 294.781 427.135 295.788 427.358L295.787 427.359Z" fill="#E9F4F6"/>
<path d="M316.095 466.727C315.876 465.79 316.755 465.447 315.175 464.273C310.28 459.555 304.216 456.25 298.131 453.216C295.599 451.955 292.88 450.696 290.067 450.988C287.254 451.279 284.477 453.777 284.963 456.562C285.321 458.618 287.202 460.007 288.945 461.157C295.436 465.433 301.072 467.621 308.36 470.328C310.243 471.027 312.32 471.203 314.123 470.319C315.925 469.436 316.552 468.68 316.096 466.726L316.095 466.727Z" fill="#FDBAA0"/>
<path d="M293.06 460.53C291.255 458.213 287.606 457.912 284.683 458.215C281.76 458.518 278.875 461.113 279.38 464.006C279.754 466.142 281.706 467.586 283.518 468.779C290.261 473.222 295.529 473.586 303.101 476.399C305.057 477.126 308.293 477.904 309.366 476.796C312.325 473.741 307.769 470.105 299.276 466.67C296.332 465.479 294.297 462.114 293.063 460.529L293.06 460.53Z" fill="#FDBAA0"/>
<path d="M305.683 477.539C305.337 476.897 300.024 473.348 294.601 472.296C292.346 471.859 289.941 471.46 287.744 472.212C285.546 472.964 283.781 475.32 284.678 477.263C285.341 478.696 287.098 479.351 288.703 479.857C294.677 481.738 294.03 481.682 300.355 482.264C301.988 482.415 304.537 482.211 305.817 481.221C307.098 480.23 306.406 478.878 305.683 477.539Z" fill="#FDBAA0"/>
<path d="M320.431 458.643C316.089 454.459 312.636 451.723 307.238 449.033C304.994 447.914 302.583 446.799 300.087 447.057C297.592 447.316 295.129 449.53 295.56 452.001C295.878 453.824 297.545 455.057 299.091 456.076C304.848 459.869 309.674 464.371 316.381 465.971C323.854 467.754 321.83 459.685 320.43 458.644L320.431 458.643Z" fill="#FDBAA0"/>
<path d="M296.277 452.179C300.463 454.298 304.551 456.607 308.522 459.104C310.368 460.265 312.313 461.396 313.99 462.795C315.404 463.974 316.492 465.609 316.409 467.513C316.393 467.883 315.818 467.885 315.834 467.515C315.925 465.431 314.505 463.842 312.919 462.686C311.166 461.411 309.304 460.264 307.463 459.121C303.732 456.806 299.901 454.656 295.983 452.674C295.654 452.506 295.947 452.011 296.276 452.179H296.277Z" fill="#E79780"/>
<path d="M309.026 449.666C312.563 452.019 316.102 454.496 319.317 457.28C320.619 458.407 321.753 459.783 322.052 461.524C322.315 463.06 321.95 464.736 320.65 465.706C319.223 466.772 317.433 466.485 315.815 466.112C315.468 466.031 315.614 465.497 315.96 465.578C317.782 465.999 320.048 466.267 321.133 464.346C322.203 462.453 321.297 460.121 319.946 458.649C318.427 456.996 316.47 455.674 314.681 454.334C312.741 452.881 310.76 451.485 308.742 450.143C308.447 449.946 308.726 449.469 309.023 449.666H309.026Z" fill="#E79780"/>
<path d="M285.964 458.084C287.948 458.168 289.484 459.554 291.01 460.667C292.401 461.681 293.817 462.659 295.274 463.578C298.079 465.347 301.017 466.896 303.907 468.518C304.223 468.695 303.937 469.179 303.621 469.003C300.826 467.433 297.987 465.934 295.266 464.237C293.89 463.378 292.547 462.466 291.23 461.519C289.664 460.393 287.997 458.733 285.965 458.648C285.605 458.633 285.601 458.07 285.963 458.085L285.964 458.084Z" fill="#E79780"/>
<path d="M287.571 472.099C288.919 471.677 290.643 472.277 291.99 472.568C293.65 472.929 295.303 473.326 296.944 473.763C298.645 474.217 300.342 474.708 301.998 475.308C303.161 475.729 304.423 476.178 305.415 476.94C306.614 477.862 307.354 480.308 305.996 481.401C305.745 481.604 305.386 481.244 305.641 481.039C306.884 480.039 305.966 477.888 304.855 477.162C303.835 476.495 302.648 476.069 301.505 475.668C298.533 474.626 295.456 473.856 292.384 473.173C291.711 473.024 291.037 472.879 290.361 472.746C289.494 472.574 288.574 472.317 287.706 472.589C287.393 472.686 287.262 472.197 287.573 472.1L287.571 472.099Z" fill="#E79780"/>
<path d="M288.475 479.64C290.686 480.382 292.986 480.89 295.279 481.301C297.781 481.749 300.392 482.13 302.938 481.921C303.84 481.848 304.963 481.712 305.639 481.041C305.869 480.811 306.226 481.172 305.994 481.402C305.418 481.975 304.576 482.2 303.797 482.327C302.64 482.513 301.454 482.502 300.287 482.436C297.498 482.276 294.719 481.778 292.002 481.142C290.77 480.854 289.542 480.533 288.341 480.13C288.034 480.027 288.165 479.538 288.475 479.641V479.64Z" fill="#E79780"/>
<path d="M302.713 467.88C304.891 469.145 307.482 469.987 309.974 470.368C312.113 470.697 315.87 470.454 315.834 467.515C315.829 467.144 316.405 467.143 316.41 467.513C316.444 470.433 313.188 471.216 310.833 471.042C309.457 470.941 308.108 470.588 306.791 470.193C305.274 469.737 303.792 469.173 302.42 468.375C302.101 468.189 302.393 467.693 302.713 467.88Z" fill="#E79780"/>
<path d="M321.83 462.342C321.232 461.112 320.041 460.111 318.921 459.364C318.316 458.96 317.653 458.578 316.951 458.373C316.259 458.171 315.852 458.407 315.349 458.883C314.635 459.558 313.167 461.565 313.994 462.541C314.235 462.826 314.591 463.061 314.89 463.278C315.993 464.078 317.227 464.806 318.564 465.124C320.349 465.548 322.556 464.508 321.83 462.344V462.342Z" fill="#FFD1C3"/>
<path d="M316.206 466.807C315.387 465.711 314.03 464.952 312.789 464.429C312.118 464.147 311.395 463.897 310.668 463.828C309.949 463.76 309.595 464.068 309.189 464.63C308.615 465.428 307.552 467.675 308.549 468.477C308.839 468.712 309.233 468.876 309.567 469.032C310.802 469.611 312.152 470.093 313.524 470.153C315.356 470.232 317.327 468.794 316.206 466.806V466.807Z" fill="#FFD1C3"/>
<path d="M310.087 473.782C309.378 472.835 308.204 472.179 307.132 471.727C306.552 471.484 305.927 471.267 305.298 471.207C304.676 471.149 304.371 471.414 304.021 471.901C303.524 472.59 302.604 474.533 303.467 475.228C303.719 475.43 304.059 475.572 304.348 475.708C305.415 476.207 306.582 476.625 307.77 476.677C309.354 476.746 311.058 475.503 310.089 473.784L310.087 473.782Z" fill="#FFD1C3"/>
<path d="M306.583 478.512C305.808 477.741 304.644 477.299 303.603 477.03C303.039 476.885 302.438 476.772 301.854 476.802C301.278 476.832 301.034 477.116 300.779 477.609C300.419 478.307 299.84 480.208 300.722 480.727C300.979 480.879 301.31 480.962 301.593 481.047C302.637 481.361 303.76 481.585 304.853 481.472C306.312 481.322 307.703 479.954 306.584 478.512H306.583Z" fill="#FFD1C3"/>
<path d="M410.5 578L355.804 593.136C354.7 590.595 345.032 565.408 338.585 549.293C332.926 535.149 328.178 522.164 329.553 521.553C330.042 521.335 330.761 521.092 331.648 520.812C336.309 519.336 345.654 516.837 351.394 511.687C355.318 508.166 358.825 505.357 361.438 503.967C363.375 502.932 364.824 502.681 365.585 503.497C367.168 505.196 404.265 567.532 410.5 578Z" fill="#F96E4D"/>
<path d="M392.304 566.298L355.804 593.136C354.7 590.595 345.032 565.408 338.585 549.293C341.467 550.135 345.872 552.818 349.791 560.989C355.887 573.694 387.593 553.651 392.304 566.298Z" fill="#EA6449"/>
<path d="M226.264 591.737C224.021 595.98 188.634 586.152 187.146 580.662C186.901 579.753 186.936 578.203 187.135 576.213C188.073 566.826 192.655 547.663 188.534 539.956L188.533 539.954C188.253 539.429 187.931 538.957 187.564 538.545C171.937 520.951 181.242 498.652 181.242 498.652L209.268 500.427L228.286 522.612C228.168 532.663 228.508 587.492 226.265 591.737H226.264Z" fill="#FFCFBF"/>
<path d="M206.479 505.777C206.538 507.781 206.329 509.788 205.83 511.732C205.311 513.758 204.485 515.654 204.406 517.774C204.333 519.726 204.579 521.722 204.935 523.638C205.263 525.396 205.738 527.142 206.454 528.784C207.253 530.617 208.348 532.297 209.782 533.696C210.073 533.98 209.627 534.427 209.336 534.143C206.757 531.628 205.294 528.259 204.525 524.785C204.122 522.964 203.87 521.088 203.785 519.225C203.687 517.063 204.122 515.14 204.773 513.095C205.533 510.712 205.921 508.282 205.847 505.779C205.836 505.373 206.466 505.374 206.478 505.779L206.479 505.777Z" fill="#E79780"/>
<path d="M192.136 540.981C190.159 540.422 188.014 539.488 187.43 538.637L187.697 538.453C188.652 539.841 196.038 542.749 202.23 540.707L202.332 541.016C198.622 542.24 194.812 541.64 192.871 541.175C192.631 541.118 192.384 541.052 192.134 540.982L192.136 540.981Z" fill="#FDBAA0"/>
<g opacity="0.6">
<path d="M187.135 576.212C188.073 566.825 192.655 547.662 188.534 539.955C188.68 540.039 197.965 545.401 196.617 551.933C195.258 558.517 191.973 563.796 192.829 568.853C193.611 573.475 190.537 577.111 187.134 576.212H187.135Z" fill="#FFE1DA"/>
</g>
<path d="M187.487 433.028C177.173 444.836 188.869 460.54 201.048 464.812C214.049 469.373 229.086 460.307 229.318 446.115C229.46 437.48 216.057 437.451 215.916 446.08C215.834 451.156 210.112 453.685 205.332 452.143C202.643 451.276 200.105 449.402 198.438 447.091C197.831 446.251 197.212 444.982 197.018 443.869C197.013 443.846 196.894 442.796 196.885 443.048C196.897 442.673 197.333 442.072 196.936 442.525C199.316 439.8 199.644 435.748 196.962 433.053C194.543 430.623 189.878 430.289 187.485 433.028H187.487Z" fill="#566B78"/>
<path d="M209.137 548.275C217.602 536.143 203.326 521.551 191.809 519.122C185.111 517.709 178.437 519.019 173.056 523.301C168.1 527.245 164.843 533.657 165.469 540.065C165.821 543.662 168.279 546.77 172.152 546.78C175.494 546.789 179.224 543.718 178.87 540.1C178.365 534.938 182.699 531.043 188.373 532.072C191.358 532.613 194.151 534.278 196.157 536.535C196.718 537.166 197.481 538.315 197.781 539.179C198.252 540.532 198.197 540.623 197.495 541.627C195.423 544.596 197.052 549.087 199.99 550.767C203.366 552.699 207.058 551.251 209.135 548.274L209.137 548.275Z" fill="#566B78"/>
<path d="M198.537 457.293C194.669 478.006 190.291 498.619 185.411 519.118C183.418 527.489 196.363 530.97 198.367 522.551C203.248 502.052 207.624 481.439 211.494 460.726C212.158 457.175 210.417 453.509 206.733 452.534C203.432 451.66 199.205 453.72 198.537 457.293Z" fill="#566B78"/>
<path d="M228.544 518.527C228.188 512.362 219.413 501.171 215.245 497.22C207.452 489.832 204.585 480.209 202.886 480C201.189 479.791 197.42 483.922 199.73 492.197C202.008 500.358 208.023 505.182 208.233 506.967C208.443 508.751 211.038 528.31 211.038 528.31C211.038 528.31 229.848 541.122 228.543 518.528L228.544 518.527Z" fill="#FFCFBF"/>
<path d="M202.889 479.953C202.889 479.953 201.863 481.598 203.074 483.253C204.286 484.908 205.167 486.001 205.167 486.001L206.823 485.944C206.823 485.944 205.197 481.318 202.888 479.953H202.889Z" fill="#F9DED7"/>
<path d="M218.952 538.399C218.903 538.385 218.862 538.35 218.844 538.3C218.811 538.216 218.855 538.122 218.939 538.091C224.58 535.972 227.45 530.456 227.478 530.401C227.519 530.321 227.617 530.29 227.696 530.33C227.776 530.371 227.808 530.469 227.767 530.548C227.739 530.604 224.814 536.23 219.053 538.396C219.019 538.408 218.984 538.409 218.952 538.4V538.399Z" fill="#FDBAA0"/>
<path d="M165.933 644.547C165.933 644.547 183.892 570.795 185.115 562.187C186.339 553.58 189.431 557.159 198.969 561.885C208.506 566.613 226.171 554.381 230.067 558.525C233.963 562.668 228.316 568.787 230.407 577.262C232.497 585.737 231.465 649.156 227.248 651.509C223.031 653.863 164.951 647.111 165.933 644.546V644.547Z" fill="#00ADC8"/>
<path d="M200.315 496.898C199.903 496.05 200.571 495.458 198.937 494.774C193.611 491.605 187.625 490.155 181.687 488.975C179.217 488.485 176.587 488.053 174.249 489.159C171.912 490.264 170.136 493.51 171.223 496.083C172.024 497.982 173.968 498.788 175.737 499.398C182.322 501.671 187.673 502.156 194.562 502.666C196.341 502.798 198.161 502.363 199.492 500.975C200.822 499.588 201.177 498.668 200.315 496.898Z" fill="#FFCFBF"/>
<path d="M179.109 497.588C177.005 495.857 173.81 496.63 171.381 497.779C168.951 498.928 167.106 502.3 168.236 504.973C169.068 506.945 171.088 507.783 172.925 508.417C179.767 510.779 184.363 509.595 191.521 510.124C193.37 510.261 196.328 510.075 196.979 508.682C198.775 504.841 194 502.627 185.905 501.759C183.099 501.458 180.548 498.773 179.109 497.588Z" fill="#FFCFBF"/>
<path d="M194.006 510.478C193.554 509.953 188.154 508.046 183.259 508.605C181.224 508.839 179.069 509.152 177.369 510.527C175.669 511.902 174.725 514.715 175.961 516.345C176.873 517.548 178.535 517.673 180.031 517.697C185.597 517.787 185.029 517.92 190.583 516.641C192.018 516.31 194.149 515.369 195.008 514.028C195.864 512.688 194.947 511.573 194.006 510.478Z" fill="#FFCFBF"/>
<path d="M202.081 487.753C197.358 484.943 193.743 483.286 188.476 482.24C186.286 481.805 183.953 481.421 181.88 482.403C179.807 483.384 178.232 486.262 179.196 488.543C179.907 490.227 181.631 490.942 183.198 491.483C189.038 493.5 194.254 496.478 200.378 496.078C207.204 495.634 203.529 488.359 202.081 487.753Z" fill="#FFCFBF"/>
<path d="M179.852 488.507C183.945 489.349 187.999 490.407 191.999 491.681C193.857 492.274 195.795 492.809 197.568 493.681C199.063 494.417 200.387 495.694 200.774 497.573C200.849 497.937 200.357 498.109 200.283 497.743C199.859 495.685 198.261 494.551 196.625 493.888C194.819 493.155 192.949 492.582 191.098 492.006C187.348 490.838 183.552 489.862 179.721 489.074C179.398 489.007 179.53 488.439 179.853 488.505L179.852 488.507Z" fill="#E79780"/>
<path d="M190.157 482.337C193.751 483.596 197.377 484.977 200.799 486.752C202.183 487.47 203.487 488.48 204.161 490.09C204.756 491.51 204.847 493.25 203.968 494.577C203.003 496.031 201.403 496.275 199.927 496.384C199.611 496.407 199.607 495.844 199.923 495.821C201.583 495.699 203.588 495.299 204.054 493.109C204.514 490.952 203.178 488.943 201.666 487.904C199.969 486.736 197.976 486.02 196.122 485.236C194.112 484.386 192.08 483.603 190.029 482.884C189.73 482.779 189.854 482.232 190.156 482.338L190.157 482.337Z" fill="#E79780"/>
<path d="M172.446 497.275C174.164 496.777 175.811 497.679 177.387 498.318C178.822 498.9 180.27 499.44 181.737 499.91C184.564 500.814 187.451 501.466 190.316 502.203C190.628 502.284 190.501 502.84 190.187 502.759C187.418 502.046 184.627 501.414 181.89 500.554C180.504 500.118 179.136 499.623 177.781 499.083C176.171 498.442 174.344 497.311 172.585 497.821C172.272 497.912 172.134 497.364 172.448 497.273L172.446 497.275Z" fill="#E79780"/>
<path d="M177.195 510.467C178.246 509.662 179.867 509.743 181.09 509.635C182.598 509.502 184.107 509.405 185.618 509.352C187.183 509.297 188.753 509.281 190.314 509.382C191.411 509.453 192.599 509.522 193.632 509.976C194.88 510.523 196.102 512.691 195.203 514.154C195.036 514.425 194.644 514.179 194.811 513.905C195.634 512.567 194.331 510.739 193.204 510.355C192.171 510.002 191.053 509.933 189.978 509.877C187.182 509.729 184.365 509.877 181.57 510.109C180.958 510.159 180.347 510.217 179.736 510.283C178.951 510.37 178.102 510.388 177.426 510.906C177.182 511.092 176.952 510.653 177.195 510.467Z" fill="#E79780"/>
<path d="M179.783 517.553C181.854 517.629 183.945 517.454 186.007 517.184C188.256 516.89 190.583 516.499 192.712 515.551C193.465 515.216 194.394 514.757 194.811 513.904C194.954 513.612 195.345 513.86 195.203 514.153C194.848 514.88 194.182 515.345 193.545 515.695C192.599 516.214 191.582 516.55 190.567 516.826C188.141 517.485 185.643 517.811 183.164 517.984C182.04 518.062 180.912 518.109 179.787 518.068C179.499 518.058 179.493 517.542 179.784 517.553H179.783Z" fill="#E79780"/>
<path d="M189.14 501.932C191.308 502.529 193.728 502.592 195.952 502.237C197.862 501.932 201.019 500.6 200.281 497.744C200.188 497.384 200.681 497.215 200.773 497.574C201.506 500.41 198.906 502.124 196.849 502.643C195.647 502.946 194.408 502.996 193.185 502.996C191.777 502.996 190.373 502.878 189.006 502.501C188.688 502.414 188.818 501.845 189.139 501.933L189.14 501.932Z" fill="#E79780"/>
<path d="M202.872 490.537C202.266 489.576 201.272 489.033 200.366 488.707C199.876 488.531 199.349 488.393 198.821 488.438C198.299 488.482 198.046 488.842 197.76 489.462C197.353 490.342 196.609 492.737 197.34 493.379C197.554 493.566 197.841 493.668 198.086 493.771C198.987 494.154 199.972 494.423 200.968 494.271C202.297 494.066 203.709 492.335 202.872 490.536V490.537Z" fill="#F9DED7"/>
<path d="M199.005 496.812C198.261 496.003 197.209 495.688 196.277 495.565C195.773 495.498 195.239 495.48 194.733 495.637C194.234 495.793 194.045 496.201 193.867 496.87C193.615 497.82 193.277 500.324 194.091 500.793C194.329 500.93 194.624 500.968 194.878 501.016C195.815 501.194 196.815 501.244 197.758 500.879C199.016 500.39 200.108 498.39 199.005 496.812Z" fill="#F9DED7"/>
<path d="M196.047 505.453C195.341 504.748 194.347 504.467 193.467 504.354C192.992 504.293 192.489 504.273 192.013 504.406C191.543 504.537 191.369 504.888 191.206 505.467C190.974 506.286 190.673 508.451 191.444 508.863C191.669 508.983 191.947 509.018 192.187 509.061C193.071 509.222 194.013 509.274 194.899 508.964C196.081 508.55 197.096 506.827 196.047 505.454V505.453Z" fill="#F9DED7"/>
<path d="M193.637 511.266C193 510.725 192.181 510.613 191.471 510.638C191.088 510.652 190.686 510.706 190.322 510.896C189.962 511.085 189.862 511.43 189.794 511.982C189.698 512.764 189.691 514.785 190.348 515.05C190.54 515.127 190.764 515.118 190.959 515.124C191.679 515.142 192.432 515.053 193.102 514.64C193.997 514.09 194.619 512.369 193.638 511.267L193.637 511.266Z" fill="#F9DED7"/>
<path d="M187.087 439.675C187.798 437.938 188.509 436.202 189.22 434.465C189.889 432.831 192.456 433.803 191.785 435.441C191.074 437.178 190.363 438.914 189.652 440.651C188.984 442.285 186.417 441.314 187.087 439.675Z" fill="#6D8591"/>
<path d="M170.705 536.006C170.435 536.557 170.166 537.108 169.896 537.659C169.581 538.303 168.808 538.732 168.105 538.408C167.467 538.113 167.02 537.306 167.356 536.618C167.626 536.067 167.895 535.516 168.165 534.965C168.48 534.321 169.253 533.892 169.956 534.216C170.594 534.511 171.041 535.318 170.705 536.006Z" fill="#6D8591"/>
<path d="M188.588 444.976C188.646 445.587 188.705 446.198 188.764 446.808C188.832 447.521 188.397 448.292 187.629 448.382C186.93 448.465 186.127 448.01 186.054 447.248C185.995 446.637 185.937 446.027 185.878 445.416C185.809 444.703 186.245 443.932 187.013 443.842C187.711 443.759 188.514 444.214 188.588 444.976Z" fill="#6D8591"/>
<path d="M51.2873 494.347C51.2873 494.347 45.5603 489.739 47.2476 480.975C48.9349 472.21 54.9285 466.088 60.2454 463.047C68.9785 458.052 77.0085 461.763 74.9881 465.169C73.8636 467.064 75.9828 472.836 77.36 472.605C83.8325 471.518 67.1786 504.539 51.2885 494.347H51.2873Z" fill="#FDBAA0"/>
<path d="M105.095 474.616C105.095 474.616 104.106 478.058 102.315 482.75C102.197 483.06 102.075 483.376 101.95 483.696C101.937 483.731 101.924 483.766 101.909 483.801C100.987 486.154 99.8801 488.763 98.6098 491.379C98.5879 491.422 98.5673 491.464 98.5477 491.508C95.8657 497.006 92.4635 502.517 88.5363 505.731H88.5352C86.7938 506.937 84.871 508.041 82.7461 509.004C82.2361 509.236 81.7422 509.54 81.2644 509.911C79.4403 511.329 77.8426 513.71 76.424 516.617C75.141 519.242 74.0062 522.296 72.9816 525.456C72.3085 527.538 71.6802 529.668 71.0933 531.75L46.4242 515.314C47.5326 512.727 31.0763 526.149 32.4695 523.041C34.2557 519.05 36.2118 514.739 38.1621 510.399C38.4068 509.855 38.6515 509.308 38.8973 508.764C39.1993 508.091 39.4991 507.418 39.7989 506.748C39.8724 506.584 39.9471 506.418 40.0195 506.254C40.5892 504.98 41.1509 503.71 41.7057 502.454C42.342 501.011 42.9645 499.581 43.5699 498.183C43.6652 497.963 43.7605 497.744 43.8524 497.526C43.903 497.41 43.9524 497.296 44.0018 497.18C44.1545 496.826 44.305 496.475 44.4532 496.126C44.8265 495.252 45.1894 494.391 45.5409 493.548C45.5961 493.42 45.65 493.292 45.7029 493.165C45.7465 493.056 45.7925 492.947 45.8384 492.839C45.8671 492.77 45.8947 492.702 45.9223 492.633C46.0739 492.27 46.2221 491.912 46.3668 491.556C46.4058 491.461 46.4449 491.364 46.4839 491.27C46.8297 490.422 47.1616 489.595 47.4787 488.793C47.5143 488.703 47.5487 488.615 47.582 488.526C47.582 488.526 47.582 488.525 47.5832 488.525C47.5866 488.515 47.5912 488.506 47.5958 488.495C47.5981 488.485 47.6016 488.477 47.6061 488.468C48.0886 487.24 48.5319 486.074 48.9305 484.977C50.2262 481.417 51.0463 478.608 51.1428 476.965L62.2178 476.483L62.5371 476.469L64.0269 476.403L70.0365 476.142L76.3953 475.865L78.0838 475.791L78.5869 475.768L79.0303 471.906L85.1812 475.481L88.4203 475.341L88.7603 475.326L89.3404 475.301L100.734 474.805L101.489 474.772L103.297 474.693H103.298L105.097 474.615L105.095 474.616Z" fill="#FDBAA0"/>
<path d="M85.4374 488.247C93.263 488.652 105.137 486.505 102.536 477.48C99.9342 468.455 87.8058 455.189 79.6931 458.077C71.5803 460.964 68.6295 464.466 69.0602 469.265C69.491 474.064 71.9892 483.497 72.1225 485.479C72.2557 487.459 80.6614 488 85.4374 488.248V488.247Z" fill="#E8A595"/>
<path d="M81.8201 509.49C78.1169 510.596 74.0484 510.252 70.5934 508.513C70.3338 508.382 70.513 507.964 70.776 508.096C74.1174 509.778 78.0617 510.141 81.6501 509.068C81.9292 508.984 82.1015 509.406 81.8212 509.49H81.8201Z" fill="#E79780"/>
<path d="M104.378 411.71C98.9081 408.554 95.4185 410 92.8617 411.06L61.0976 424.232C58.5407 425.293 57.3266 428.224 58.388 430.781L60.3085 435.409L62.5437 440.795L80.8873 484.992C81.9486 487.547 84.881 488.761 87.439 487.7L162.449 456.595C165.006 455.535 166.22 452.603 165.159 450.047L146.501 405.092C145.44 402.537 142.508 401.323 139.95 402.384L110.93 414.417C108.373 415.478 106.776 413.092 104.378 411.709V411.71Z" fill="#FF8D67"/>
<path d="M83.9965 463.083L81.543 458.541C81.2076 457.919 81.2846 457.155 81.7383 456.613L93.9103 442.068C94.6936 441.132 96.1742 441.282 96.7543 442.355L98.5197 445.623C98.8723 446.276 98.7678 447.083 98.259 447.625L92.6514 453.595C91.5154 454.804 92.5733 456.763 94.2078 456.477L102.278 455.065C103.01 454.936 103.743 455.291 104.095 455.945L105.88 459.249C106.46 460.323 105.773 461.643 104.56 461.785L85.7171 463.979C85.0153 464.06 84.3342 463.706 83.9976 463.084L83.9965 463.083Z" fill="#384955"/>
<path d="M109.395 424.65C111.301 423.62 113.631 424.934 113.737 427.097L115.544 464.04C115.6 465.172 115 466.236 114.002 466.774C112.095 467.804 109.766 466.491 109.66 464.328L107.852 427.385C107.797 426.253 108.397 425.189 109.395 424.65Z" fill="#384955"/>
<path d="M126.084 442.442L133.011 435.067C133.806 434.221 133.066 432.849 131.921 433.05L121.953 434.795C121.441 434.885 120.929 434.637 120.681 434.179L118.355 429.875C117.948 429.123 118.429 428.198 119.278 428.1L139.229 425.776C139.72 425.718 140.197 425.966 140.432 426.401L143.22 431.562C143.456 431.997 143.402 432.532 143.083 432.911L130.196 448.311C129.648 448.966 128.611 448.861 128.204 448.11L125.899 443.842C125.652 443.384 125.725 442.821 126.081 442.441L126.084 442.442Z" fill="#384955"/>
<path d="M84.8346 462.159L81.6517 456.267C81.5357 456.052 81.5622 455.789 81.7195 455.602L95.4536 439.19C95.7236 438.867 96.2347 438.919 96.4346 439.289L99.3797 444.741C99.5014 444.966 99.4658 445.245 99.2901 445.431L90.8006 454.468C90.4089 454.885 90.7741 455.561 91.337 455.462L103.554 453.324C103.806 453.279 104.059 453.402 104.181 453.627L107.147 459.116C107.347 459.487 107.11 459.942 106.692 459.99L85.4284 462.467C85.1861 462.495 84.9518 462.373 84.8357 462.158L84.8346 462.159Z" fill="white"/>
<path d="M110.811 422.824C112.717 421.794 115.047 423.108 115.153 425.271L116.961 462.213C117.016 463.345 116.416 464.41 115.418 464.948C113.511 465.978 111.182 464.665 111.076 462.502L109.268 425.559C109.213 424.427 109.813 423.363 110.811 422.824Z" fill="white"/>
<path d="M126.681 440.676L134.165 432.711C134.748 432.09 134.205 431.083 133.364 431.23L122.597 433.114C121.995 433.219 121.392 432.928 121.101 432.389L118.997 428.494C118.52 427.611 119.085 426.525 120.082 426.408L139.58 424.137C140.158 424.069 140.719 424.361 140.995 424.873L143.646 429.78C143.923 430.292 143.859 430.92 143.486 431.365L130.891 446.416C130.247 447.186 129.028 447.063 128.551 446.179L126.466 442.32C126.176 441.782 126.262 441.12 126.681 440.673V440.676Z" fill="white"/>
<path d="M113.095 427.136C113.209 427.985 113.247 428.835 113.209 429.691C113.173 430.504 114.436 430.44 114.472 429.634C114.511 428.777 114.472 427.928 114.357 427.078C114.249 426.278 112.985 426.33 113.095 427.136Z" fill="white"/>
<path d="M112.615 424.781C112.645 424.805 112.674 424.829 112.701 424.856C112.72 424.873 112.737 424.891 112.755 424.91C112.695 424.837 112.68 424.82 112.711 424.858C112.76 424.925 112.806 424.99 112.846 425.064C113.006 425.354 113.461 425.432 113.721 425.243C114.017 425.029 114.072 424.678 113.901 424.368C113.79 424.167 113.633 423.983 113.456 423.838C113.201 423.63 112.785 423.618 112.564 423.89C112.355 424.146 112.342 424.558 112.615 424.782V424.781Z" fill="white"/>
<path d="M137.926 426.122C138.362 426.099 138.797 426.075 139.234 426.052C140.047 426.008 139.99 424.747 139.176 424.79C138.74 424.813 138.305 424.837 137.868 424.86C137.055 424.904 137.112 426.166 137.926 426.122Z" fill="white"/>
<path d="M135.14 425.476C133.976 425.537 132.817 425.643 131.662 425.797C130.86 425.904 130.913 427.167 131.719 427.059C132.875 426.906 134.033 426.798 135.197 426.737C136.011 426.695 135.953 425.432 135.14 425.476Z" fill="white"/>
<path d="M114.685 460.258C114.73 460.69 114.776 461.122 114.821 461.554C114.857 461.892 115.125 462.172 115.481 462.156C115.808 462.141 116.12 461.837 116.084 461.496C116.04 461.064 115.994 460.633 115.949 460.201C115.913 459.862 115.644 459.582 115.288 459.598C114.962 459.613 114.65 459.917 114.685 460.258Z" fill="white"/>
<path d="M81.9657 454.819C82.4826 454.079 83.0328 453.365 83.6175 452.676C84.1424 452.057 83.2017 451.213 82.6733 451.835C82.0886 452.524 81.5384 453.238 81.0216 453.979C80.8251 454.26 80.7999 454.622 81.0732 454.871C81.303 455.08 81.7705 455.098 81.9657 454.819Z" fill="white"/>
<path d="M84.6092 451.434C84.7126 451.31 84.8205 451.19 84.9354 451.076C84.9894 451.023 85.0434 450.971 85.0997 450.92C85.1571 450.869 85.164 450.862 85.1215 450.899C85.1548 450.872 85.1881 450.844 85.2214 450.818C85.4776 450.611 85.6142 450.237 85.4006 449.943C85.2157 449.688 84.7999 449.541 84.5253 449.764C84.2141 450.015 83.9223 450.287 83.6662 450.595C83.4548 450.849 83.4468 451.266 83.7179 451.487C83.9763 451.697 84.3841 451.707 84.6103 451.435L84.6092 451.434Z" fill="white"/>
<path d="M143.585 428.913C143.674 429.242 143.825 429.561 144.023 429.839C144.213 430.109 144.615 430.224 144.898 430.018C145.168 429.823 145.282 429.432 145.077 429.143C145.042 429.093 145.007 429.042 144.975 428.99C144.953 428.955 144.934 428.92 144.914 428.883C144.882 428.821 144.876 428.81 144.897 428.85C144.922 428.906 144.858 428.748 144.851 428.728C144.827 428.66 144.806 428.591 144.788 428.522C144.702 428.203 144.301 428.001 143.992 428.117C143.658 428.242 143.493 428.571 143.586 428.913H143.585Z" fill="white"/>
<path d="M141.63 437.821C141.784 437.637 141.939 437.454 142.093 437.27C142.305 437.018 142.311 436.598 142.041 436.378C141.783 436.167 141.376 436.159 141.149 436.43C140.995 436.613 140.84 436.797 140.686 436.981C140.473 437.233 140.468 437.652 140.737 437.873C140.996 438.084 141.402 438.092 141.63 437.821Z" fill="white"/>
<path d="M143.019 436.216C143.515 435.551 144.056 434.925 144.643 434.337C145.217 433.762 144.273 432.923 143.699 433.497C143.112 434.084 142.571 434.709 142.074 435.375C141.592 436.022 142.53 436.869 143.019 436.216Z" fill="white"/>
<path d="M117.576 450.574C117.852 452.77 118 454.972 118.022 457.184C118.03 457.999 119.292 457.938 119.284 457.127C119.264 454.914 119.115 452.712 118.839 450.517C118.737 449.715 117.474 449.767 117.576 450.574Z" fill="white"/>
<path d="M117.526 448.04C117.531 448.409 117.537 448.779 117.541 449.149C117.546 449.49 117.869 449.766 118.202 449.751C118.553 449.735 118.809 449.435 118.805 449.091C118.8 448.722 118.795 448.352 118.79 447.982C118.785 447.641 118.463 447.365 118.129 447.379C117.778 447.396 117.522 447.696 117.526 448.04Z" fill="white"/>
<path d="M118.299 458.565C118.239 458.832 118.253 459.11 118.34 459.37C118.445 459.683 118.815 459.895 119.136 459.775C119.455 459.655 119.654 459.314 119.542 458.979C119.526 458.932 119.514 458.885 119.505 458.836C119.515 458.891 119.526 458.947 119.535 459.002C119.528 458.953 119.527 458.905 119.525 458.854C119.528 458.787 119.526 458.805 119.52 458.907C119.524 458.883 119.528 458.859 119.535 458.835C119.607 458.512 119.387 458.141 119.053 458.083C118.714 458.024 118.378 458.22 118.3 458.565H118.299Z" fill="white"/>
<path d="M47.8838 488.59C49.4701 492.069 51.6915 495.257 54.4138 497.945C55.1787 498.699 55.9816 499.413 56.819 500.087C57.0464 500.271 56.765 500.627 56.5353 500.443C53.5098 498.008 50.9323 495.024 48.9716 491.671C48.4191 490.728 47.916 489.756 47.4623 488.762C47.3405 488.494 47.7621 488.325 47.8838 488.591V488.59Z" fill="#E79780"/>
<path d="M49.3109 474.763C51.6806 468.774 59.5475 455.497 64.0972 451.601C72.6051 444.316 76.1004 434.442 77.8807 434.313C79.6611 434.185 83.3677 438.688 80.526 447.186C77.7222 455.567 71.2026 460.275 70.889 462.124C70.5755 463.971 69.4659 472.3 69.4659 472.3C69.4659 472.3 47.4754 479.409 49.3121 474.765L49.3109 474.763Z" fill="#FDBAA0"/>
<path d="M69.4611 472.025C69.3979 474.03 69.6024 476.036 70.0963 477.981C70.6109 480.01 71.4322 481.906 71.5068 484.027C71.5746 485.979 71.3242 487.975 70.9635 489.89C70.6327 491.647 70.1526 493.391 69.4324 495.032C68.6284 496.863 67.5303 498.541 66.0922 499.937C65.8004 500.22 66.2461 500.667 66.5379 500.383C69.1223 497.874 70.5937 494.508 71.3701 491.037C71.7779 489.216 72.034 487.341 72.1236 485.477C72.227 483.315 71.7974 481.391 71.1507 479.345C70.3972 476.961 70.0148 474.53 70.094 472.026C70.1066 471.62 69.476 471.619 69.4634 472.025H69.4611Z" fill="#E79780"/>
<path d="M77.8802 434.312C77.8802 434.312 78.8622 436.079 77.5126 437.741C76.163 439.401 75.1878 440.494 75.1878 440.494L73.4648 440.347C73.4648 440.347 75.4037 435.614 77.8802 434.314V434.312Z" fill="#FFD1C3"/>
<path d="M-19 586.493L52.6364 594.797C52.9167 594.127 55.7882 585.626 59.3547 574.696C65.6423 555.428 74.0732 528.625 74.1938 523.888C74.079 523.32 73.8056 522.883 73.4518 522.537L73.4312 522.525C70.7124 519.939 61.8312 522.436 57.6731 521.125C49.5546 518.604 45.2818 509.378 37.2195 507.912C36.9519 507.863 36.6739 507.823 36.4121 507.893C35.7619 508.068 35.4736 508.808 35.2657 509.448C32.501 517.964 26.8004 524.566 21.5465 531.618C16.6959 538.126 11.8441 544.635 7.00032 551.148C-1.72465 562.881 -10.5518 574.556 -18.9989 586.491L-19 586.493Z" fill="#49B2A4"/>
<path d="M68.4173 522.011C69.9254 523.365 70.1264 525.452 69.6107 527.321C68.8848 529.95 66.7311 531.771 65.1919 533.919C63.3024 536.556 62.8889 539.772 62.0125 542.816C61.1683 545.746 59.7268 548.442 57.7603 550.773C57.4307 551.164 56.8093 550.668 57.1401 550.275C58.994 548.077 60.3746 545.548 61.197 542.792C62.0011 540.097 62.3594 537.222 63.7401 534.731C65.0151 532.428 67.1848 530.734 68.3599 528.377C69.2466 526.598 69.5418 524.09 67.9176 522.632C67.5386 522.292 68.0336 521.669 68.4161 522.012L68.4173 522.011Z" fill="#63D5C2"/>
<path d="M58.11 544.254C57.87 544.604 57.6311 544.955 57.3921 545.305C57.1038 545.727 56.4836 545.228 56.7719 544.807C57.0119 544.456 57.2509 544.106 57.4909 543.756C57.7792 543.333 58.3995 543.833 58.1112 544.254H58.11Z" fill="#63D5C2"/>
<path d="M54.3916 545.183C54.3319 545.27 54.2721 545.357 54.2124 545.446C54.0952 545.618 53.8058 545.641 53.653 545.507C53.4807 545.355 53.4658 545.131 53.5921 544.948C53.6519 544.86 53.7116 544.772 53.7713 544.685C53.8885 544.512 54.1779 544.489 54.3307 544.624C54.503 544.775 54.5179 544.999 54.3916 545.183Z" fill="#63D5C2"/>
<path d="M42.6685 518.31C40.1748 518.701 39.156 521.382 38.6541 523.53C38.082 525.98 37.5456 528.225 35.8928 530.2C34.3697 532.02 32.4078 533.405 30.5666 534.879C28.4726 536.556 26.6325 538.449 25.2691 540.775C23.7276 543.405 22.8271 546.355 22.6066 549.393C22.5698 549.905 21.7819 549.79 21.8186 549.283C22.2126 543.853 24.7832 538.804 28.8884 535.239C30.887 533.504 33.1579 532.056 34.9405 530.083C35.8434 529.083 36.5796 527.961 37.0368 526.689C37.5491 525.264 37.7386 523.747 38.1556 522.296C38.7804 520.124 40.1656 517.898 42.5732 517.521C43.0809 517.442 43.1739 518.232 42.6685 518.311V518.31Z" fill="#63D5C2"/>
<path d="M48.6621 525.022C48.6173 525.921 48.4519 526.789 48.1854 527.648C48.0338 528.136 47.3044 527.817 47.4549 527.332C47.6996 526.543 47.8328 525.735 47.8741 524.912C47.8994 524.4 48.6874 524.515 48.6621 525.022Z" fill="#63D5C2"/>
<path d="M46.5524 527.182C46.3916 527.625 46.2296 528.068 46.0688 528.511C45.8931 528.992 45.1637 528.675 45.3383 528.196C45.4991 527.752 45.6611 527.309 45.8219 526.866C45.9976 526.385 46.727 526.702 46.5524 527.182Z" fill="#63D5C2"/>
<path d="M67.7882 534.2C67.5183 534.49 67.2495 534.779 66.9796 535.067C66.6327 535.439 66.009 534.944 66.3593 534.569C66.6292 534.28 66.898 533.99 67.1679 533.702C67.5148 533.33 68.1385 533.825 67.7882 534.2Z" fill="#63D5C2"/>
<path d="M47.3906 568.498C47.4079 568.078 47.4963 567.674 47.6387 567.279C47.8122 566.796 48.5416 567.114 48.3693 567.594C48.2509 567.923 48.1947 568.26 48.1797 568.608C48.1705 568.823 47.9282 568.974 47.7306 568.947C47.4997 568.915 47.3826 568.713 47.3918 568.498H47.3906Z" fill="#63D5C2"/>
<path d="M58.6093 557.64C58.5117 558.17 58.4129 558.699 58.3153 559.228C58.2222 559.731 57.4331 559.622 57.5273 559.118C57.625 558.589 57.7237 558.059 57.8214 557.53C57.9144 557.027 58.7035 557.136 58.6093 557.64Z" fill="#63D5C2"/>
<path d="M45.791 552.215C45.5314 552.594 45.2718 552.974 45.0122 553.353C44.7239 553.775 44.1037 553.276 44.392 552.855C44.6516 552.476 44.9112 552.096 45.1708 551.717C45.4591 551.294 46.0793 551.794 45.791 552.215Z" fill="#63D5C2"/>
<path d="M45.7569 550.51C45.5674 550.638 45.4261 550.794 45.3319 551.003C45.1217 551.469 44.39 551.155 44.6014 550.687C44.7507 550.357 44.9827 550.073 45.2848 549.87C45.4629 549.75 45.7098 549.777 45.8408 549.955C45.9637 550.122 45.935 550.391 45.7558 550.51H45.7569Z" fill="#63D5C2"/>
<path d="M35.1004 544.527C34.8374 545.034 34.6766 545.558 34.6122 546.126C34.5548 546.636 33.7668 546.523 33.8243 546.016C33.8955 545.383 34.077 544.776 34.3699 544.211C34.6042 543.759 35.3359 544.071 35.1004 544.527Z" fill="#63D5C2"/>
<path d="M33.9287 542.312C33.869 542.399 33.8092 542.487 33.7495 542.575C33.6324 542.747 33.3429 542.77 33.1901 542.636C33.0178 542.484 33.0029 542.26 33.1293 542.076C33.189 541.989 33.2487 541.902 33.3084 541.814C33.4256 541.641 33.7151 541.618 33.8678 541.753C34.0401 541.904 34.0551 542.128 33.9287 542.312Z" fill="#63D5C2"/>
<path d="M29.9535 559.379C29.7904 559.939 29.702 560.516 29.6687 561.098C29.6388 561.611 28.8508 561.496 28.8807 560.988C28.9186 560.329 29.0392 559.696 29.223 559.063C29.3654 558.573 30.0948 558.893 29.9535 559.379Z" fill="#63D5C2"/>
<path d="M28.2531 557.702C28.206 557.887 28.1577 558.071 28.1107 558.255C28.059 558.456 27.889 558.637 27.6615 558.594C27.4697 558.559 27.2676 558.36 27.3227 558.145C27.3698 557.962 27.418 557.777 27.4651 557.593C27.5168 557.392 27.6868 557.212 27.9142 557.254C28.1061 557.29 28.3082 557.489 28.2531 557.703V557.702Z" fill="#63D5C2"/>
<path d="M58.9534 526.132C58.7145 526.537 58.4319 526.886 58.0781 527.197C57.9173 527.339 57.6405 527.274 57.5222 527.112C57.3855 526.926 57.4452 526.699 57.6072 526.556C57.8473 526.345 58.0609 526.091 58.224 525.816C58.3331 525.631 58.5318 525.516 58.7466 525.609C58.9247 525.686 59.0637 525.946 58.9534 526.132Z" fill="#63D5C2"/>
<path d="M56.2995 527.017C56.28 527.046 56.2593 527.075 56.2397 527.104C56.1226 527.276 55.8331 527.299 55.6804 527.165C55.5081 527.013 55.4931 526.79 55.6195 526.606C55.639 526.577 55.6597 526.547 55.6792 526.519C55.7964 526.346 56.0858 526.323 56.2386 526.458C56.4109 526.609 56.4258 526.833 56.2995 527.017Z" fill="#63D5C2"/>
<path d="M65.3519 545.164C65.2106 545.57 64.9958 545.944 64.7202 546.275C64.3928 546.668 63.7714 546.172 64.0999 545.777C64.3342 545.495 64.5019 545.193 64.6214 544.848C64.7891 544.364 65.5185 544.682 65.3519 545.164Z" fill="#63D5C2"/>
<path d="M64.2166 543.482C64.1649 543.619 64.1132 543.755 64.0627 543.891C63.9891 544.086 63.7261 544.189 63.54 544.097C63.3379 544 63.254 543.783 63.3333 543.575C63.385 543.438 63.4367 543.302 63.4872 543.166C63.5607 542.971 63.8237 542.868 64.0098 542.96C64.212 543.057 64.2958 543.274 64.2166 543.482Z" fill="#63D5C2"/>
<path d="M33.7652 528.068C33.655 528.163 33.5447 528.259 33.4344 528.354C33.2759 528.491 32.9911 528.438 32.8785 528.269C32.751 528.078 32.7946 527.859 32.9635 527.713C33.0738 527.618 33.184 527.523 33.2954 527.427C33.454 527.291 33.7388 527.344 33.8514 527.512C33.9789 527.703 33.9352 527.922 33.7664 528.068H33.7652Z" fill="#63D5C2"/>
<path d="M33.7293 526.633C33.6891 526.692 33.6501 526.75 33.6099 526.808C33.4927 526.98 33.2033 527.003 33.0505 526.869C32.8782 526.717 32.8633 526.493 32.9896 526.31C33.0298 526.251 33.0689 526.192 33.1091 526.134C33.2262 525.962 33.5157 525.939 33.6684 526.073C33.8407 526.225 33.8557 526.448 33.7293 526.632V526.633Z" fill="#63D5C2"/>
<path d="M18.9126 554.058C17.4792 556.797 15.3691 559.09 12.7388 560.72C12.3069 560.988 11.8314 560.35 12.2678 560.08C14.7787 558.524 16.8118 556.362 18.1821 553.743C18.4176 553.292 19.1504 553.604 18.9126 554.059V554.058Z" fill="#63D5C2"/>
<path d="M50.6681 522.149C53.4167 524.303 53.4317 528.287 51.9281 531.175C49.8675 535.131 45.799 537.356 43.0779 540.769C40.0823 544.527 39.6114 549.624 38.7557 554.188C38.3307 556.456 37.9057 558.725 37.4807 560.992C37.0614 563.228 36.6479 565.471 35.9461 567.637C34.6482 571.641 32.0213 575.571 27.7782 576.795C27.2901 576.936 26.9926 576.198 27.4853 576.055C31.2184 574.978 33.627 571.685 34.9181 568.183C35.6808 566.116 36.1138 563.949 36.5227 561.79C36.9408 559.581 37.3509 557.37 37.7655 555.16C38.5351 551.055 38.9682 546.591 40.8439 542.805C42.7 539.058 46.2527 536.831 49.014 533.84C50.5498 532.178 51.9005 530.192 52.1211 527.883C52.3037 525.97 51.7179 523.982 50.1696 522.768C49.7664 522.452 50.2649 521.831 50.6681 522.148V522.149Z" fill="#63D5C2"/>
<path d="M49.6221 569.345C49.2637 572.162 48.3942 574.775 46.9711 577.242C45.5973 579.638 43.8583 581.8 42.125 583.947L42.8808 584.274C46.1877 580.173 49.3177 575.922 50.2458 570.624C50.6938 568.034 50.7409 565.289 51.0774 562.613C51.4266 559.775 52.1123 557.025 53.9432 554.697C54.2511 554.288 53.6239 553.793 53.3161 554.202C51.2118 556.861 50.5594 560.054 50.2171 563.306C49.9828 565.317 49.8817 567.365 49.6221 569.345Z" fill="#63D5C2"/>
</g>
<path d="M49.044 80.308C49.063 83.025 51.932 85.571 55.124 86.16L54.326 87.642C51.666 87.053 49.215 85.305 48.151 82.949C47.049 85.286 44.617 87.034 41.938 87.642L41.178 86.16C44.313 85.571 47.182 83.025 47.22 80.308V79.054H49.044V80.308ZM40.608 92.392V90.91H55.846V92.392H40.608ZM65.0849 79.586V90.416H57.2949V79.586H65.0849ZM59.0049 88.972H63.2989V80.992H59.0049V88.972ZM67.8589 94.558V77.952H69.6069V84.45H72.2669V85.97H69.6069V94.558H67.8589ZM86.1798 86.806V88.212H74.5898V79.32H86.0278V80.764H76.3758V83.006H85.6478V84.412H76.3758V86.806H86.1798ZM72.6898 92.468V91.024H87.9278V92.468H72.6898ZM96.2547 88.402C99.8267 88.402 102.107 89.542 102.107 91.48C102.107 93.418 99.8267 94.558 96.2547 94.558C92.6637 94.558 90.3837 93.418 90.4027 91.48C90.3837 89.542 92.6637 88.402 96.2547 88.402ZM88.7687 87.034V85.59H94.8107V82.474H96.5587V85.59H103.893V87.034H88.7687ZM90.5167 80.194V78.75H101.993V80.156C101.993 81.486 101.993 82.854 101.537 84.564L99.7887 84.412C100.245 82.702 100.245 81.467 100.245 80.194H90.5167ZM92.1507 91.48C92.1317 92.544 93.7087 93.171 96.2547 93.19C98.7817 93.171 100.359 92.544 100.359 91.48C100.359 90.397 98.7817 89.751 96.2547 89.732C93.7087 89.751 92.1317 90.397 92.1507 91.48ZM110.586 81.03C110.586 83.12 112.049 85.058 114.576 85.856L113.74 87.224C111.84 86.635 110.453 85.381 109.731 83.785C109.009 85.609 107.546 87.053 105.532 87.756L104.658 86.35C107.242 85.495 108.8 83.329 108.838 81.03V80.574H105.152V79.13H114.158V80.574H110.586V81.03ZM106.9 91.442C106.9 89.466 109.009 88.326 112.486 88.326C115.906 88.326 117.996 89.466 117.996 91.442C117.996 93.399 115.906 94.558 112.486 94.558C109.009 94.558 106.9 93.399 106.9 91.442ZM108.648 91.442C108.648 92.544 110.073 93.152 112.486 93.152C114.861 93.152 116.267 92.544 116.286 91.442C116.267 90.34 114.861 89.732 112.486 89.732C110.073 89.732 108.648 90.34 108.648 91.442ZM116.096 87.946V77.952H117.844V82.056H120.238V83.538H117.844V87.946H116.096ZM140.309 91.1V92.582H125.071V91.1H131.759V88.174H126.933V82.892H136.699V80.574H126.895V79.13H138.447V84.336H128.681V86.73H138.827V88.174H133.507V91.1H140.309ZM154.298 79.624V81.41C154.279 83.576 154.279 85.913 153.69 89.466L151.904 89.314C152.55 85.97 152.55 83.519 152.55 81.41V81.068H142.746V79.624H154.298ZM141.112 92.202V90.758H156.274V92.202H141.112ZM169.924 79.396C169.924 81.619 172.622 83.69 175.89 84.146L175.206 85.59C172.47 85.153 170.095 83.728 169.012 81.752C167.929 83.728 165.554 85.153 162.856 85.59L162.134 84.146C165.402 83.69 168.081 81.657 168.1 79.396V78.522H169.924V79.396ZM161.412 88.668V87.186H176.574V88.668H169.81V94.558H168.1V88.668H161.412ZM183.609 80.612C183.609 82.664 185.224 84.583 187.789 85.324L186.915 86.73C184.958 86.122 183.495 84.849 182.735 83.234C181.994 84.963 180.512 86.35 178.517 86.996L177.605 85.628C180.208 84.83 181.823 82.797 181.823 80.612V80.422H178.099V78.978H187.257V80.422H183.609V80.612ZM180.379 94.368V87.718H182.089V89.58H189.499V87.718H191.247V94.368H180.379ZM182.089 92.924H189.499V90.986H182.089V92.924ZM189.499 86.958V77.952H191.247V86.958H189.499ZM203.87 82.17C203.851 85.21 205.675 88.269 208.24 89.428L207.214 90.796C205.295 89.903 203.775 88.041 202.996 85.78C202.236 88.212 200.697 90.207 198.702 91.176L197.638 89.694C200.241 88.535 202.084 85.362 202.084 82.17V79.32H203.87V82.17ZM209.76 94.596V77.952H211.546V94.596H209.76ZM222.229 80.308C222.248 83.025 225.117 85.571 228.309 86.16L227.511 87.642C224.851 87.053 222.4 85.305 221.336 82.949C220.234 85.286 217.802 87.034 215.123 87.642L214.363 86.16C217.498 85.571 220.367 83.025 220.405 80.308V79.054H222.229V80.308ZM213.793 92.392V90.91H229.031V92.392H213.793ZM236.902 79.016V80.46H232.266V82.246H236.256V83.614H232.266V85.628C234.451 85.59 235.895 85.533 237.624 85.21L237.776 86.616C235.857 86.958 234.28 87.034 231.658 87.034H230.594V79.016H236.902ZM232.912 94.368V88.668H244.008V94.368H232.912ZM234.66 92.924H242.298V90.074H234.66V92.924ZM237.016 83.5V82.056H239.068V78.218H240.74V87.794H239.068V83.5H237.016ZM242.336 87.946V77.952H244.008V87.946H242.336ZM259.405 79.206V80.156C259.386 81.258 259.386 82.911 258.987 85.058L257.239 84.906C257.6 83.025 257.657 81.695 257.657 80.65H251.007V79.206H259.405ZM250.019 86.502C251.026 86.502 252.185 86.483 253.401 86.445V82.93H255.149V86.388C256.935 86.312 258.759 86.179 260.431 85.932L260.545 87.224C257.068 87.832 253.097 87.908 250.171 87.908L250.019 86.502ZM252.527 94.216V89.314H254.275V92.81H263.813V94.216H252.527ZM261.495 90.454V77.952H263.281V83.234H265.599V84.716H263.281V90.454H261.495ZM274.116 79.13V84.146H268.606V86.578C271.38 86.578 273.014 86.502 274.99 86.16L275.142 87.604C272.995 87.984 271.228 88.041 268.074 88.022H266.858V82.778H272.33V80.536H266.82V79.13H274.116ZM269.1 94.178V89.314H270.886V92.734H280.5V94.178H269.1ZM275.18 85.818V84.412H278.296V82.094H275.18V80.688H278.296V77.952H280.044V90.188H278.296V85.818H275.18Z" fill="white"/>
<path d="M50.68 113.48C50.65 118.4 53.02 123.23 57.22 125.12L55.24 127.7C52.27 126.23 50.17 123.44 49.03 119.99C47.89 123.62 45.73 126.65 42.7 128.18L40.6 125.54C44.92 123.53 47.32 118.43 47.38 113.48V109.28H50.68V113.48ZM54.28 118.34V115.7H59.86V107.12H63.1V133.64H59.86V118.34H54.28ZM88.5477 107.12V133.64H85.2477V107.12H88.5477ZM67.9077 127.4V109.28H71.1477V115.88H77.5677V109.28H80.8077V127.4H67.9077ZM71.1477 124.7H77.5677V118.46H71.1477V124.7ZM105.835 110.78C105.805 114.86 109.825 118.97 115.375 119.9L113.875 122.66C109.435 121.73 105.835 119.03 104.125 115.49C102.355 119 98.7255 121.7 94.3155 122.66L92.8755 119.9C98.3355 118.94 102.325 114.83 102.355 110.78V108.8H105.835V110.78ZM92.1555 130.22V127.52H116.335V130.22H92.1555ZM148.752 119.3V121.88H138.252V124.16C142.992 124.43 145.812 126.08 145.812 128.84C145.812 131.87 142.362 133.58 136.632 133.58C130.872 133.58 127.422 131.87 127.392 128.84C127.422 126.08 130.242 124.43 135.072 124.13V121.88H124.632V119.3H148.752ZM125.772 115.52C130.662 115.07 133.842 113.06 134.382 110.9H126.792V108.32H146.592V110.9H138.942C139.452 113.09 142.632 115.07 147.612 115.52L146.472 118.1C141.642 117.59 138.072 115.67 136.662 112.97C135.222 115.67 131.712 117.59 126.912 118.1L125.772 115.52ZM130.752 128.84C130.722 130.28 132.792 131.09 136.632 131.06C140.442 131.09 142.542 130.28 142.572 128.84C142.542 127.37 140.442 126.59 136.632 126.56C132.792 126.59 130.722 127.37 130.752 128.84ZM171.139 107.12V114.56H174.859V117.26H171.139V126.26H167.839V107.12H171.139ZM151.339 121.82V109.34H163.219V111.92H154.579V119.12C159.559 119.12 162.319 118.97 165.439 118.34L165.799 120.92C162.349 121.64 159.259 121.79 153.499 121.82H151.339ZM154.159 133.1V124.28H157.399V130.46H172.159V133.1H154.159ZM203.616 107.12V114.86H207.336V117.56H203.616V126.5H200.316V107.12H203.616ZM183.036 115.52C182.976 111.65 186.126 108.89 190.176 108.92C194.166 108.89 197.286 111.65 197.316 115.52C197.286 119.42 194.166 122.21 190.176 122.18C186.126 122.21 182.976 119.42 183.036 115.52ZM186.216 115.52C186.186 117.86 187.956 119.36 190.176 119.36C192.396 119.36 194.106 117.86 194.136 115.52C194.106 113.21 192.396 111.74 190.176 111.74C187.956 111.74 186.186 113.21 186.216 115.52ZM186.636 133.1V124.46H189.876V130.46H204.636V133.1H186.636ZM231.103 107.12V133.58H227.923V120.2H225.043V132.26H221.983V107.66H225.043V117.56H227.923V107.12H231.103ZM209.503 126.98V110.18H212.743V124.16C215.023 124.1 217.543 123.92 220.303 123.38L220.663 126.2C217.063 126.83 214.033 127.01 211.243 126.98H209.503Z" fill="#FFA792"/>
<path d="M47.488 177.44C47.488 179.808 50.208 181.92 52.64 182.368L52.064 183.392C49.968 182.912 47.776 181.424 46.864 179.408C45.952 181.424 43.76 182.912 41.664 183.392L41.088 182.368C43.504 181.904 46.192 179.808 46.208 177.44V176.352H47.488V177.44ZM40.576 187.392V186.368H53.28V187.392H40.576ZM61.2201 176.8V185.728H54.8201V176.8H61.2201ZM56.0041 184.736H60.0041V177.76H56.0041V184.736ZM63.7481 189.28V175.392H64.9961V180.928H67.3001V181.984H64.9961V189.28H63.7481ZM79.1443 182.88V183.904H69.5443V176.576H78.9843V177.6H70.7923V179.68H78.6963V180.672H70.7923V182.88H79.1443ZM67.9123 187.456V186.432H80.6163V187.456H67.9123ZM91.6924 184.16C94.6684 184.16 96.5564 185.088 96.5564 186.72C96.5564 188.304 94.6684 189.232 91.6924 189.248C88.7164 189.232 86.8284 188.304 86.8284 186.72C86.8284 185.088 88.7164 184.16 91.6924 184.16ZM85.4204 182.848V181.856H90.6684V179.168H91.8524V181.856H98.0604V182.848H85.4204ZM86.9244 177.088V176.096H96.4604V177.28C96.4444 178.384 96.4444 179.52 96.0444 180.96L94.8604 180.832C95.2284 179.376 95.2284 178.352 95.2444 177.28V177.088H86.9244ZM88.0444 186.72C88.0444 187.664 89.4684 188.272 91.6924 188.256C93.9004 188.272 95.3244 187.664 95.3404 186.72C95.3244 185.712 93.9004 185.104 91.6924 185.088C89.4684 185.104 88.0444 185.712 88.0444 186.72ZM103.793 178.016C103.777 179.84 105.137 181.456 107.185 182.144L106.609 183.104C105.009 182.56 103.809 181.456 103.201 180.08C102.609 181.664 101.313 182.896 99.6645 183.488L99.0245 182.528C101.105 181.808 102.561 180.016 102.577 178.016V177.44H99.4085V176.416H106.897V177.44H103.793V178.016ZM100.881 186.688C100.881 185.072 102.625 184.144 105.489 184.128C108.337 184.144 110.065 185.072 110.065 186.688C110.065 188.304 108.337 189.232 105.489 189.248C102.625 189.232 100.881 188.304 100.881 186.688ZM102.097 186.688C102.097 187.664 103.393 188.256 105.489 188.256C107.585 188.256 108.865 187.664 108.881 186.688C108.865 185.696 107.585 185.12 105.489 185.12C103.393 185.12 102.097 185.696 102.097 186.688ZM108.721 183.776V175.392H109.937V178.944H112.017V179.968H109.937V183.776H108.721ZM129.301 186.496V187.552H116.597V186.496H122.293V183.904H118.165V179.616H126.485V177.44H118.133V176.416H127.701V180.608H119.381V182.88H128.021V183.904H123.509V186.496H129.301ZM141.209 176.864V178.24C141.209 180 141.209 181.984 140.697 184.992L139.449 184.864C139.993 182.032 139.993 179.952 139.993 178.24V177.888H131.641V176.864H141.209ZM130.265 187.232V186.208H142.905V187.232H130.265ZM154.717 176.672C154.733 178.624 157.293 180.32 159.805 180.672L159.293 181.664C157.133 181.312 155.005 180.112 154.109 178.416C153.213 180.128 151.085 181.312 148.925 181.664L148.413 180.672C150.925 180.32 153.469 178.656 153.469 176.672V175.872H154.717V176.672ZM147.773 184.224V183.2H160.413V184.224H154.653V189.28H153.469V184.224H147.773ZM166.433 177.664C166.433 179.488 167.937 181.088 170.017 181.728L169.377 182.688C167.745 182.176 166.449 181.056 165.825 179.616C165.217 181.152 163.905 182.352 162.241 182.944L161.601 181.952C163.697 181.296 165.185 179.584 165.185 177.664V177.312H161.953V176.32H169.633V177.312H166.433V177.664ZM163.905 189.088V183.584H165.121V185.248H171.681V183.584H172.897V189.088H163.905ZM165.121 188.064H171.681V186.24H165.121V188.064ZM171.681 182.88V175.392H172.897V182.88H171.681ZM183.877 179.104C183.861 181.648 185.589 184.192 187.621 185.12L186.885 186.112C185.301 185.328 183.925 183.68 183.269 181.68C182.629 183.792 181.253 185.552 179.621 186.368L178.853 185.344C180.933 184.4 182.645 181.744 182.661 179.104V176.576H183.877V179.104ZM189.157 189.28V175.392H190.373V189.28H189.157ZM199.529 177.44C199.529 179.808 202.249 181.92 204.681 182.368L204.105 183.392C202.009 182.912 199.817 181.424 198.905 179.408C197.993 181.424 195.801 182.912 193.705 183.392L193.129 182.368C195.545 181.904 198.233 179.808 198.249 177.44V176.352H199.529V177.44ZM192.617 187.392V186.368H205.321V187.392H192.617ZM212.205 176.288V177.312H208.109V179.04H211.661V180H208.109V181.888C210.125 181.888 211.373 181.808 212.845 181.536L212.973 182.496C211.373 182.816 210.045 182.88 207.789 182.88H206.925V176.288H212.205ZM208.877 189.088V184.384H218.061V189.088H208.877ZM210.093 188.064H216.877V185.408H210.093V188.064ZM212.301 179.904V178.88H214.189V175.616H215.373V183.616H214.189V179.904H212.301ZM216.909 183.744V175.392H218.061V183.744H216.909ZM235.281 175.392V183.52H234.065V179.904H231.249V178.848H234.065V175.392H235.281ZM223.825 182.4C225.889 181.68 227.377 179.824 227.377 177.856V177.312H224.241V176.288H231.729V177.312H228.625V177.856C228.609 179.632 230.001 181.376 232.049 182.08L231.409 183.072C229.825 182.496 228.609 181.344 228.017 179.904C227.409 181.504 226.113 182.768 224.465 183.36L223.825 182.4ZM226.225 189.088V184.192H235.281V189.088H226.225ZM227.441 188.064H234.097V185.184H227.441V188.064ZM244.63 176.288C244.614 179.76 242.118 182.272 238.134 183.392L237.59 182.432C240.918 181.504 243.046 179.68 243.318 177.312H238.326V176.288H244.63ZM239.958 189.056V183.904H248.95V189.056H239.958ZM241.142 188.064H247.734V184.896H241.142V188.064ZM244.662 180V178.976H247.734V175.392H248.95V183.328H247.734V180H244.662ZM257.434 176.288C260.346 176.288 262.522 177.808 262.522 180.096C262.522 182.416 260.346 183.92 257.434 183.904C254.538 183.92 252.362 182.416 252.378 180.096C252.362 177.808 254.538 176.288 257.434 176.288ZM251.13 187.424V186.4H263.834V187.424H251.13ZM253.53 180.096C253.53 181.776 255.21 182.912 257.434 182.912C259.674 182.912 261.338 181.776 261.338 180.096C261.338 178.432 259.674 177.264 257.434 177.28C255.21 177.264 253.53 178.432 253.53 180.096ZM277.502 186.496V187.552H264.798V186.496H270.494V183.904H266.366V179.616H274.686V177.44H266.334V176.416H275.902V180.608H267.582V182.88H276.222V183.904H271.71V186.496H277.502ZM293.762 175.392V185.536H292.546V175.392H293.762ZM282.626 179.776C282.61 177.76 284.178 176.368 286.274 176.352C288.338 176.368 289.89 177.76 289.89 179.776C289.89 181.792 288.338 183.2 286.274 183.168C284.178 183.2 282.61 181.792 282.626 179.776ZM283.81 179.776C283.81 181.152 284.85 182.112 286.274 182.112C287.634 182.112 288.706 181.152 288.706 179.776C288.706 178.416 287.634 177.44 286.274 177.44C284.85 177.44 283.81 178.416 283.81 179.776ZM284.802 188.96V184.512H286.018V187.936H294.21V188.96H284.802ZM302.886 177.792V178.784H295.942V177.792H298.822V175.808H300.038V177.792H302.886ZM296.422 182.88C296.422 181.024 297.686 179.728 299.43 179.712C301.158 179.728 302.422 181.024 302.438 182.88C302.422 184.736 301.158 186.048 299.43 186.048C297.686 186.048 296.422 184.736 296.422 182.88ZM297.51 182.88C297.526 184.112 298.31 184.992 299.43 184.992C300.518 184.992 301.334 184.112 301.318 182.88C301.334 181.664 300.518 180.768 299.43 180.736C298.31 180.768 297.526 181.664 297.51 182.88ZM303.622 188.576V175.712H304.774V181.248H306.63V175.392H307.782V189.28H306.63V182.24H304.774V188.576H303.622ZM44.288 199.448C46.336 199.464 47.776 201.336 47.776 204.28C47.776 207.256 46.336 209.128 44.288 209.144C42.224 209.128 40.768 207.256 40.8 204.28C40.768 201.336 42.224 199.464 44.288 199.448ZM41.952 204.28C41.952 206.552 42.912 208.04 44.288 208.024C45.664 208.04 46.608 206.552 46.592 204.28C46.608 202.04 45.664 200.552 44.288 200.536C42.912 200.552 41.952 202.04 41.952 204.28ZM50.08 212.28V198.392H51.328V203.928H53.632V204.984H51.328V212.28H50.08ZM59.9081 199.896V204.76H55.8761V207.896C57.4761 207.912 58.9961 207.832 60.8041 207.544L60.9001 208.536C58.9321 208.872 57.3641 208.936 55.6201 208.952H54.6921V203.736H58.7241V200.92H54.6601V199.896H59.9081ZM61.7641 211.544V198.68H62.8841V203.864H64.9321V198.392H66.0841V212.28H64.9321V204.888H62.8841V211.544H61.7641ZM83.2403 198.392V206.52H82.0243V202.904H79.2083V201.848H82.0243V198.392H83.2403ZM71.7843 205.4C73.8483 204.68 75.3363 202.824 75.3363 200.856V200.312H72.2003V199.288H79.6883V200.312H76.5843V200.856C76.5683 202.632 77.9603 204.376 80.0083 205.08L79.3683 206.072C77.7843 205.496 76.5683 204.344 75.9763 202.904C75.3683 204.504 74.0723 205.768 72.4243 206.36L71.7843 205.4ZM74.1843 212.088V207.192H83.2403V212.088H74.1843ZM75.4003 211.064H82.0563V208.184H75.4003V211.064ZM92.5884 199.288C92.5724 202.76 90.0764 205.272 86.0924 206.392L85.5484 205.432C88.8764 204.504 91.0044 202.68 91.2764 200.312H86.2844V199.288H92.5884ZM87.9164 212.056V206.904H96.9084V212.056H87.9164ZM89.1004 211.064H95.6924V207.896H89.1004V211.064ZM92.6204 203V201.976H95.6924V198.392H96.9084V206.328H95.6924V203H92.6204ZM114.385 198.392V212.28H113.169V198.392H114.385ZM103.089 208.664C106.849 206.872 108.769 204.2 109.041 200.888H103.729V199.896H110.289C110.273 203.88 108.417 207.416 103.761 209.656L103.089 208.664ZM127.445 198.392V202.616H129.525V203.64H127.445V208.536H126.197V198.392H127.445ZM116.597 205.944C119.941 204.904 122.101 202.936 122.357 200.472H117.173V199.448H123.701C123.685 203.032 121.141 205.688 117.141 206.936L116.597 205.944ZM118.741 211.96V207.512H119.957V210.936H128.085V211.96H118.741ZM146.777 205.24V206.232H134.105V205.24H139.833V203.608H135.705V199.032H145.177V200.024H136.921V202.616H145.273V203.608H141.017V205.24H146.777ZM135.609 209.752C135.625 208.168 137.417 207.256 140.409 207.256C143.401 207.256 145.193 208.168 145.209 209.752C145.193 211.352 143.401 212.248 140.409 212.248C137.417 212.248 135.625 211.352 135.609 209.752ZM136.857 209.752C136.857 210.728 138.185 211.288 140.409 211.288C142.617 211.288 143.961 210.728 143.961 209.752C143.961 208.792 142.617 208.216 140.409 208.216C138.185 208.216 136.857 208.792 136.857 209.752ZM158.621 198.36V202.616H160.701V203.64H158.621V208.632H157.405V198.36H158.621ZM148.029 202.776C148.013 200.76 149.597 199.368 151.677 199.352C153.757 199.368 155.309 200.76 155.325 202.776C155.309 204.792 153.757 206.2 151.677 206.2C149.597 206.2 148.013 204.792 148.029 202.776ZM149.245 202.776C149.213 204.152 150.285 205.128 151.677 205.112C153.069 205.128 154.109 204.152 154.141 202.776C154.109 201.416 153.069 200.44 151.677 200.44C150.285 200.44 149.213 201.416 149.245 202.776ZM149.917 211.96V207.576H151.133V210.936H159.261V211.96H149.917ZM170.145 202.104C170.145 204.632 171.761 207.16 173.793 208.088L173.057 209.08C171.473 208.264 170.161 206.616 169.537 204.632C168.929 206.712 167.633 208.488 166.049 209.336L165.249 208.344C167.297 207.336 168.897 204.664 168.929 202.104V199.576H170.145V202.104ZM172.289 204.12V203.128H175.553V198.392H176.769V212.28H175.553V204.12H172.289ZM190.373 198.392V212.28H189.157V198.392H190.373ZM179.749 208.92V199.576H180.965V203.224H185.093V199.576H186.309V208.92H179.749ZM180.965 207.896H185.093V204.216H180.965V207.896ZM199.529 200.44C199.529 202.808 202.249 204.92 204.681 205.368L204.105 206.392C202.009 205.912 199.817 204.424 198.905 202.408C197.993 204.424 195.801 205.912 193.705 206.392L193.129 205.368C195.545 204.904 198.233 202.808 198.249 200.44V199.352H199.529V200.44ZM192.617 210.392V209.368H205.321V210.392H192.617ZM217.037 198.392V204.024H219.277V205.08H217.037V212.248H215.789V198.392H217.037ZM206.349 208.664C209.949 206.872 211.917 204.2 212.173 200.888H207.021V199.864H213.421C213.421 203.8 211.581 207.384 207.053 209.624L206.349 208.664ZM227.729 198.904C229.793 198.904 231.313 200.168 231.313 201.976C231.313 203.784 229.793 205.032 227.729 205.048C225.617 205.032 224.097 203.784 224.113 201.976C224.097 200.168 225.617 198.904 227.729 198.904ZM225.297 201.976C225.297 203.192 226.321 204.024 227.729 204.024C229.089 204.024 230.129 203.192 230.129 201.976C230.129 200.76 229.089 199.912 227.729 199.928C226.321 199.912 225.297 200.76 225.297 201.976ZM226.225 207.192V206.168H235.249V209.528H227.441V211.096H235.761V212.088H226.257V208.6H234.033V207.192H226.225ZM234.033 205.496V198.392H235.249V205.496H234.033ZM242.39 202.104C242.374 204.648 244.102 207.192 246.134 208.12L245.398 209.112C243.814 208.328 242.438 206.68 241.782 204.68C241.142 206.792 239.766 208.552 238.134 209.368L237.366 208.344C239.446 207.4 241.158 204.744 241.174 202.104V199.576H242.39V202.104ZM247.67 212.28V198.392H248.886V212.28H247.67ZM267.61 204.888V205.88H261.882V207.368C264.506 207.496 266.058 208.344 266.074 209.816C266.058 211.368 264.266 212.232 261.274 212.248C258.266 212.232 256.49 211.368 256.474 209.816C256.49 208.344 258.026 207.496 260.666 207.368V205.88H254.97V204.888H267.61ZM255.674 203.064C258.074 202.808 260.394 201.592 260.506 200.024H256.122V199.032H266.49V200.024H262.074C262.17 201.592 264.458 202.808 266.906 203.064L266.458 204.024C264.186 203.752 262.058 202.744 261.29 201.192C260.522 202.744 258.394 203.752 256.122 204.024L255.674 203.064ZM257.722 209.816C257.722 210.728 259.05 211.288 261.274 211.288C263.482 211.288 264.826 210.728 264.826 209.816C264.826 208.872 263.482 208.328 261.274 208.312C259.05 208.328 257.722 208.872 257.722 209.816ZM279.486 198.36V202.52H281.598V203.544H279.486V208.44H278.27V198.36H279.486ZM269.278 205.976V199.576H275.454V200.6H270.494V204.92C273.278 204.952 274.878 204.872 276.734 204.472L276.894 205.496C274.942 205.88 273.278 205.976 270.366 205.976H269.278ZM270.782 211.96V207.416H271.998V210.936H280.126V211.96H270.782ZM290.37 202.04V203H287.586V204.424C288.898 204.36 290.21 204.264 291.426 204.12L291.49 204.984C288.53 205.448 285.17 205.528 282.53 205.528L282.37 204.536C283.586 204.536 284.946 204.52 286.338 204.472V203H283.65V199H290.21V199.928H284.898V202.04H290.37ZM284.546 207.48V206.488H293.762V209.72H285.794V211.096H294.274V212.12H284.578V208.792H292.546V207.48H284.546ZM292.546 205.88V198.392H293.762V205.88H292.546ZM311.718 198.392V212.28H310.534V198.392H311.718ZM299.974 204.376C299.974 201.416 301.142 199.56 302.95 199.544C304.134 199.56 305.062 200.36 305.558 201.752H307.782V198.68H308.934V211.576H307.782V207H305.558C305.062 208.392 304.134 209.208 302.95 209.208C301.142 209.208 299.974 207.336 299.974 204.376ZM301.126 204.376C301.11 206.632 301.814 208.056 302.95 208.024C304.086 208.056 304.822 206.632 304.806 204.376C304.822 202.12 304.086 200.696 302.95 200.696C301.814 200.696 301.11 202.12 301.126 204.376ZM305.814 205.976H307.782V202.776H305.814C305.91 203.256 305.958 203.8 305.958 204.376C305.958 204.952 305.91 205.48 305.814 205.976ZM324.97 198.392V206.648H323.754V203.032H320.938V202.008H323.754V198.392H324.97ZM313.514 205.56C315.594 204.808 317.066 202.92 317.066 200.92V200.408H313.93V199.384H321.418V200.408H318.314V200.92C318.298 202.728 319.69 204.456 321.738 205.144L321.098 206.136C319.53 205.576 318.314 204.408 317.706 202.984C317.098 204.616 315.818 205.896 314.154 206.52L313.514 205.56ZM315.722 209.688C315.706 208.04 317.482 207.096 320.362 207.096C323.258 207.096 325.034 208.04 325.034 209.688C325.034 211.304 323.258 212.248 320.362 212.248C317.482 212.248 315.706 211.304 315.722 209.688ZM316.938 209.688C316.922 210.68 318.25 211.288 320.362 211.288C322.49 211.288 323.818 210.68 323.818 209.688C323.818 208.664 322.49 208.056 320.362 208.056C318.25 208.056 316.922 208.664 316.938 209.688ZM338.606 198.392V205.816H337.39V198.392H338.606ZM327.47 202.264C327.454 200.344 328.99 199.048 331.118 199.064C333.214 199.048 334.734 200.344 334.734 202.264C334.734 204.136 333.214 205.448 331.118 205.432C328.99 205.448 327.454 204.136 327.47 202.264ZM328.654 202.264C328.654 203.512 329.678 204.408 331.118 204.408C332.526 204.408 333.55 203.512 333.55 202.264C333.55 200.984 332.526 200.088 331.118 200.088C329.678 200.088 328.654 200.984 328.654 202.264ZM329.614 212.088V206.52H330.83V208.216H337.39V206.52H338.606V212.088H329.614ZM330.83 211.064H337.39V209.208H330.83V211.064ZM352.242 198.392V212.28H351.026V198.392H352.242ZM341.714 208.696V199.736H342.93V207.608C345.042 207.624 347.218 207.448 349.554 206.968L349.714 207.992C347.266 208.52 345.058 208.696 342.834 208.696H341.714ZM365.239 198.392V203.864H367.543V204.888H365.239V212.28H363.991V198.392H365.239ZM355.095 208.824V199.736H361.559V200.76H356.311V207.768C358.823 207.768 360.599 207.672 362.647 207.288L362.807 208.344C360.647 208.728 358.823 208.808 356.183 208.824H355.095ZM369.627 211.096C369.067 211.096 368.603 210.632 368.603 210.072C368.603 209.528 369.067 209.08 369.627 209.08C370.171 209.08 370.619 209.528 370.619 210.072C370.619 210.632 370.171 211.096 369.627 211.096ZM52 221.392V235.28H50.784V221.392H52ZM41.088 227.28C41.088 224.336 42.56 222.464 44.64 222.448C46.688 222.464 48.176 224.336 48.192 227.28C48.176 230.256 46.688 232.128 44.64 232.144C42.56 232.128 41.088 230.256 41.088 227.28ZM42.272 227.28C42.272 229.552 43.232 231.04 44.64 231.024C46.016 231.04 46.976 229.552 46.976 227.28C46.976 225.04 46.016 223.552 44.64 223.536C43.232 223.552 42.272 225.04 42.272 227.28ZM66.8841 228.24V229.264H54.2441V228.24H57.3801V226.288C56.2601 225.856 55.6361 225.152 55.6201 224.208C55.6361 222.592 57.5081 221.648 60.5481 221.648C63.5721 221.648 65.4601 222.592 65.4441 224.208C65.4601 225.136 64.8361 225.84 63.7481 226.272V228.24H66.8841ZM55.7481 232.784C55.7641 231.2 57.5401 230.32 60.5481 230.32C63.5401 230.32 65.3321 231.2 65.3481 232.784C65.3321 234.368 63.5401 235.232 60.5481 235.248C57.5401 235.232 55.7641 234.368 55.7481 232.784ZM56.9001 224.208C56.9001 225.232 58.2921 225.824 60.5481 225.808C62.8041 225.824 64.2121 225.232 64.1961 224.208C64.2121 223.216 62.8041 222.608 60.5481 222.608C58.2921 222.608 56.9001 223.216 56.9001 224.208ZM56.9961 232.784C56.9961 233.728 58.3241 234.288 60.5481 234.288C62.7561 234.288 64.1001 233.728 64.1001 232.784C64.1001 231.84 62.7561 231.28 60.5481 231.28C58.3241 231.28 56.9961 231.84 56.9961 232.784ZM58.5961 228.24H62.5321V226.608C61.9401 226.72 61.2841 226.768 60.5481 226.768C59.8281 226.768 59.1721 226.72 58.5961 226.608V228.24ZM79.8163 221.392V235.28H78.6323V221.392H79.8163ZM68.0723 227.376C68.0723 224.416 69.2403 222.56 71.0483 222.544C72.7283 222.56 73.8803 224.176 74.0403 226.8H75.8483V221.68H77.0003V234.576H75.8483V227.824H74.0403C73.9123 230.528 72.7603 232.208 71.0483 232.208C69.2403 232.208 68.0723 230.336 68.0723 227.376ZM69.2243 227.376C69.2083 229.632 69.9283 231.056 71.0483 231.024C72.1843 231.056 72.9043 229.632 72.9043 227.376C72.9043 225.12 72.1843 223.696 71.0483 223.696C69.9283 223.696 69.2083 225.12 69.2243 227.376ZM88.3004 221.616V222.928H95.1804V221.616H96.4284V226.192H87.0844V221.616H88.3004ZM85.4204 228.336V227.312H98.0604V228.336H92.3324V229.712H96.4284V232.784H88.1724V234.128H96.8444V235.12H86.9884V231.888H95.2444V230.64H86.9564V229.712H91.1164V228.336H85.4204ZM88.3004 225.232H95.1804V223.856H88.3004V225.232ZM110.577 221.392V231.728H109.361V227.696H106.993V226.64H109.361V225.04H106.993V224.048H109.361V221.392H110.577ZM99.1205 228.56L100.913 228.544V223.504H99.5045V222.512H106.865V223.504H105.457V228.384C106.097 228.336 106.737 228.272 107.345 228.208L107.377 229.136C104.689 229.552 101.521 229.6 99.2485 229.616L99.1205 228.56ZM101.649 234.96V230.864H102.865V233.936H110.961V234.96H101.649ZM102.097 228.528C102.801 228.512 103.537 228.48 104.273 228.448V223.504H102.097V228.528ZM119.061 221.616C122.165 221.632 123.973 222.48 123.957 224.016C123.973 225.584 122.165 226.448 119.061 226.448C115.973 226.448 114.149 225.584 114.133 224.016C114.149 222.48 115.973 221.632 119.061 221.616ZM112.757 228.4V227.408H125.397V228.4H112.757ZM114.293 230.544V229.584H123.765V232.688H115.509V234.128H124.181V235.12H114.325V231.792H122.581V230.544H114.293ZM115.445 224.016C115.413 224.976 116.773 225.52 119.061 225.52C121.381 225.52 122.725 224.976 122.709 224.016C122.725 223.104 121.381 222.56 119.061 222.544C116.773 222.56 115.413 223.104 115.445 224.016ZM141.721 221.392V235.28H140.505V221.392H141.721ZM130.265 231.408C132.329 229.28 133.257 226.688 133.401 223.92H130.745V222.896H134.585C134.569 226.176 133.737 229.472 131.225 232.112L130.265 231.408ZM134.361 232.368C136.489 229.904 137.193 226.832 137.321 223.92H135.033V222.896H138.457C138.457 226.16 137.945 230.016 135.417 233.04L134.361 232.368ZM155.421 221.392V235.28H154.205V229.712H151.325V228.688H154.205V226.8H151.325V225.776H154.205V221.392H155.421ZM143.965 231.632C145.981 230.672 147.517 228.304 147.517 225.904V224.784H144.317V223.792H147.517V221.648H148.733V223.792H151.869V224.784H148.701V225.904C148.717 228.192 150.285 230.48 152.349 231.408L151.645 232.336C150.061 231.616 148.749 230.112 148.125 228.272C147.517 230.208 146.221 231.808 144.637 232.56L143.965 231.632ZM168.801 228.048V229.072H159.201V222.672H168.673V223.696H160.417V228.048H168.801ZM157.601 233.36V232.336H170.305V233.36H157.601ZM182.757 221.392V235.28H181.541V229.392H178.661V228.336H181.541V225.584H178.757V224.56H181.541V221.392H182.757ZM171.749 223.664V222.64H177.861V227.568H172.997V230.992C175.093 231.008 176.821 230.912 178.917 230.608L179.045 231.632C176.821 231.968 175.029 232.048 172.805 232.048H171.781V226.576H176.645V223.664H171.749ZM193.993 223.92C193.961 225.664 195.481 227.216 197.577 227.824L196.969 228.784C195.321 228.288 194.009 227.232 193.385 225.84C192.745 227.344 191.385 228.48 189.673 229.008L189.065 228.048C191.193 227.424 192.729 225.808 192.745 223.92V223.728H189.513V222.736H197.193V223.728H193.993V223.92ZM188.841 231.28C189.977 231.28 191.337 231.28 192.745 231.248V228.4H193.993V231.184C195.353 231.12 196.729 231.008 198.025 230.8L198.121 231.728C194.937 232.304 191.513 232.32 189.001 232.336L188.841 231.28ZM198.921 235.28V221.392H200.169V235.28H198.921ZM209.357 226.224V228.272H215.085V229.296H202.445V228.272H208.141V226.224H209.357ZM203.181 225.968C205.645 225.648 208.141 224.096 208.141 222.256V221.584H209.357V222.256C209.373 224.096 211.869 225.648 214.317 225.968L213.837 226.96C211.725 226.592 209.629 225.488 208.765 223.904C207.885 225.488 205.789 226.592 203.661 226.96L203.181 225.968ZM203.949 232.848C203.965 231.296 205.741 230.448 208.749 230.448C211.741 230.448 213.533 231.296 213.549 232.848C213.533 234.384 211.741 235.232 208.749 235.248C205.741 235.232 203.965 234.384 203.949 232.848ZM205.197 232.848C205.197 233.76 206.509 234.288 208.749 234.288C210.989 234.288 212.301 233.76 212.301 232.848C212.301 231.92 210.989 231.408 208.749 231.408C206.509 231.408 205.197 231.92 205.197 232.848ZM226.962 221.392V224.944H229.042V225.968H226.962V229.456H225.746V221.392H226.962ZM216.146 223.824V222.832H219.666V221.264H220.882V222.832H224.402V223.824H216.146ZM216.946 226.896C216.914 225.424 218.258 224.48 220.274 224.464C222.274 224.48 223.602 225.424 223.602 226.896C223.602 228.384 222.274 229.344 220.274 229.328C218.258 229.344 216.914 228.384 216.946 226.896ZM218.098 226.896C218.098 227.808 218.962 228.416 220.274 228.4C221.57 228.416 222.45 227.808 222.45 226.896C222.45 226.016 221.57 225.408 220.274 225.424C218.962 225.408 218.098 226.016 218.098 226.896ZM218.194 235.088V230.064H219.41V231.536H225.746V230.064H226.962V235.088H218.194ZM219.41 234.096H225.746V232.528H219.41V234.096ZM241.206 221.392V235.28H239.99V221.392H241.206ZM230.678 231.696V222.736H231.894V230.608C234.006 230.624 236.182 230.448 238.518 229.968L238.678 230.992C236.23 231.52 234.022 231.696 231.798 231.696H230.678ZM254.202 221.392V226.864H256.506V227.888H254.202V235.28H252.954V221.392H254.202ZM244.058 231.824V222.736H250.522V223.76H245.274V230.768C247.786 230.768 249.562 230.672 251.61 230.288L251.77 231.344C249.61 231.728 247.786 231.808 245.146 231.824H244.058ZM258.59 234.096C258.03 234.096 257.566 233.632 257.566 233.072C257.566 232.528 258.03 232.08 258.59 232.08C259.134 232.08 259.582 232.528 259.582 233.072C259.582 233.632 259.134 234.096 258.59 234.096ZM51.424 244.392V247.528H53.504V248.552H51.424V251.496H50.208V244.392H51.424ZM41.152 250.952V245.288H47.584V250.952H41.152ZM42.048 257.896V252.744H43.232V256.888C44.032 256.84 45.104 256.728 46.08 256.392L46.272 257.384C44.928 257.832 43.616 257.896 42.72 257.896H42.048ZM42.368 249.96H46.4V246.28H42.368V249.96ZM45.792 253.832V252.904H48.704V251.656H49.92V252.904H52.832V253.832H45.792ZM46.72 256.296C46.704 255.08 47.76 254.344 49.312 254.312C50.816 254.344 51.888 255.08 51.904 256.296C51.888 257.48 50.816 258.232 49.312 258.248C47.76 258.232 46.704 257.48 46.72 256.296ZM47.808 256.296C47.808 256.952 48.432 257.368 49.312 257.352C50.16 257.368 50.784 256.952 50.784 256.296C50.784 255.624 50.16 255.208 49.312 255.208C48.432 255.208 47.808 255.624 47.808 256.296ZM66.8841 251.72V252.712H54.2441V251.72H66.8841ZM55.6201 247.624C55.6361 245.88 57.5401 244.856 60.5481 244.872C63.5401 244.856 65.4601 245.88 65.4441 247.624C65.4601 249.352 63.5401 250.392 60.5481 250.408C57.5401 250.392 55.6361 249.352 55.6201 247.624ZM55.8761 257.96V253.928H57.0921V256.936H65.4761V257.96H55.8761ZM56.9001 247.624C56.9001 248.728 58.3241 249.384 60.5481 249.384C62.7881 249.384 64.2121 248.728 64.1961 247.624C64.2121 246.536 62.7881 245.864 60.5481 245.864C58.3241 245.864 56.9001 246.536 56.9001 247.624ZM84.6483 246.472V247.496H82.6003V249.416H84.6483V250.472H82.6003V252.616H81.3843V244.392H82.6003V246.472H84.6483ZM72.0083 248.488C71.9923 246.552 73.5443 245.208 75.6563 245.224C77.7683 245.208 79.2883 246.552 79.3043 248.488C79.2883 250.408 77.7683 251.736 75.6563 251.752C73.5443 251.736 71.9923 250.408 72.0083 248.488ZM73.2243 248.488C73.1923 249.8 74.2323 250.696 75.6563 250.728C77.0643 250.696 78.0883 249.8 78.1203 248.488C78.0883 247.176 77.0643 246.248 75.6563 246.248C74.2323 246.248 73.1923 247.176 73.2243 248.488ZM73.5443 255.656C73.5443 254.008 75.3043 253.048 78.1523 253.032C80.9843 253.048 82.7283 254.008 82.7283 255.656C82.7283 257.272 80.9843 258.232 78.1523 258.248C75.3043 258.232 73.5443 257.272 73.5443 255.656ZM74.7603 255.656C74.7603 256.664 76.0563 257.24 78.1523 257.256C80.2483 257.24 81.5283 256.664 81.5443 255.656C81.5283 254.648 80.2483 254.056 78.1523 254.056C76.0563 254.056 74.7603 254.648 74.7603 255.656ZM92.3324 246.792V247.784H85.3884V246.792H88.2684V244.808H89.4844V246.792H92.3324ZM85.8684 251.88C85.8684 250.024 87.1324 248.728 88.8764 248.712C90.6044 248.728 91.8684 250.024 91.8844 251.88C91.8684 253.736 90.6044 255.048 88.8764 255.048C87.1324 255.048 85.8684 253.736 85.8684 251.88ZM86.9564 251.88C86.9724 253.112 87.7564 253.992 88.8764 253.992C89.9644 253.992 90.7804 253.112 90.7644 251.88C90.7804 250.664 89.9644 249.768 88.8764 249.736C87.7564 249.768 86.9724 250.664 86.9564 251.88ZM93.0684 257.576V244.712H94.2204V250.248H96.0764V244.392H97.2284V258.28H96.0764V251.24H94.2204V257.576H93.0684ZM115.601 252.616V253.608H109.809V258.28H108.625V253.608H102.897V252.616H115.601ZM104.529 250.92V244.968H105.745V246.888H112.753V244.968H113.969V250.92H104.529ZM105.745 249.928H112.753V247.88H105.745V249.928ZM123.637 245.32V246.344H118.453V248.136H123.381V249.128H118.453V251.048C121.173 251.048 122.709 250.984 124.533 250.632L124.693 251.656C122.757 251.976 121.157 252.056 118.293 252.04H117.237V245.32H123.637ZM118.357 254.504V253.48H127.445V258.28H126.229V254.504H118.357ZM126.229 252.808V244.392H127.445V248.072H129.525V249.128H127.445V252.808H126.229ZM141.465 251.048V252.072H131.865V245.672H141.337V246.696H133.081V251.048H141.465ZM130.265 256.36V255.336H142.969V256.36H130.265ZM155.389 244.392V252.008H154.173V244.392H155.389ZM144.605 246.056V245.064H150.973V248.808H145.853V250.696C148.333 250.696 150.173 250.632 152.413 250.248L152.573 251.272C150.237 251.656 148.333 251.72 145.789 251.72H144.637V247.848H149.757V246.056H144.605ZM146.365 258.088V252.712H147.581V254.376H154.173V252.712H155.389V258.088H146.365ZM147.581 257.064H154.173V255.368H147.581V257.064ZM169.025 244.392V258.28H167.809V244.392H169.025ZM158.497 254.696V245.736H159.713V253.608C161.825 253.624 164.001 253.448 166.337 252.968L166.497 253.992C164.049 254.52 161.841 254.696 159.617 254.696H158.497ZM182.021 244.392V249.864H184.325V250.888H182.021V258.28H180.773V244.392H182.021ZM171.877 254.824V245.736H178.341V246.76H173.093V253.768C175.605 253.768 177.381 253.672 179.429 253.288L179.589 254.344C177.429 254.728 175.605 254.808 172.965 254.824H171.877ZM186.409 257.096C185.849 257.096 185.385 256.632 185.385 256.072C185.385 255.528 185.849 255.08 186.409 255.08C186.953 255.08 187.401 255.528 187.401 256.072C187.401 256.632 186.953 257.096 186.409 257.096Z" fill="white"/>
<path d="M52.064 308.392V316.52H50.848V312.904H48.032V311.848H50.848V308.392H52.064ZM40.608 315.4C42.672 314.68 44.16 312.824 44.16 310.856V310.312H41.024V309.288H48.512V310.312H45.408V310.856C45.392 312.632 46.784 314.376 48.832 315.08L48.192 316.072C46.608 315.496 45.392 314.344 44.8 312.904C44.192 314.504 42.896 315.768 41.248 316.36L40.608 315.4ZM43.008 322.088V317.192H52.064V322.088H43.008ZM44.224 321.064H50.88V318.184H44.224V321.064ZM61.4121 309.288C61.3961 312.76 58.9001 315.272 54.9161 316.392L54.3721 315.432C57.7001 314.504 59.8281 312.68 60.1001 310.312H55.1081V309.288H61.4121ZM56.7401 322.056V316.904H65.7321V322.056H56.7401ZM57.9241 321.064H64.5161V317.896H57.9241V321.064ZM61.4441 313V311.976H64.5161V308.392H65.7321V316.328H64.5161V313H61.4441ZM79.3683 308.392V322.28H78.1523V308.392H79.3683ZM68.0723 318.664C71.8323 316.872 73.7523 314.2 74.0243 310.888H68.7123V309.896H75.2723C75.2563 313.88 73.4003 317.416 68.7443 319.656L68.0723 318.664ZM92.4284 308.392V312.616H94.5084V313.64H92.4284V318.536H91.1804V308.392H92.4284ZM81.5804 315.944C84.9244 314.904 87.0844 312.936 87.3404 310.472H82.1564V309.448H88.6844C88.6684 313.032 86.1244 315.688 82.1244 316.936L81.5804 315.944ZM83.7244 321.96V317.512H84.9404V320.936H93.0684V321.96H83.7244Z" fill="white"/>
<path d="M107.056 321V319.976L110.896 315.912C112.24 314.488 112.88 313.72 112.88 312.68C112.88 311.512 111.904 310.76 110.64 310.76C109.296 310.76 108.448 311.608 108.432 312.872H107.12C107.088 310.872 108.64 309.528 110.672 309.544C112.736 309.528 114.192 310.904 114.224 312.68C114.192 313.944 113.616 314.92 111.6 317L109.008 319.656V319.752H114.416V321H107.056ZM120.014 321.16C117.502 321.16 116.046 319.048 116.046 315.336C116.046 311.672 117.518 309.528 120.014 309.544C122.494 309.528 123.966 311.672 123.95 315.336C123.966 319.048 122.51 321.16 120.014 321.16ZM117.422 315.336C117.422 318.264 118.366 319.912 120.014 319.912C121.646 319.912 122.59 318.264 122.606 315.336C122.59 312.408 121.63 310.76 120.014 310.76C118.382 310.76 117.422 312.408 117.422 315.336ZM125.674 321V319.976L129.514 315.912C130.858 314.488 131.498 313.72 131.498 312.68C131.498 311.512 130.522 310.76 129.258 310.76C127.914 310.76 127.066 311.608 127.05 312.872H125.738C125.706 310.872 127.258 309.528 129.29 309.544C131.354 309.528 132.81 310.904 132.842 312.68C132.81 313.944 132.234 314.92 130.218 317L127.626 319.656V319.752H133.034V321H125.674ZM134.429 318.696V317.544L139.517 309.672H141.245V317.448H142.813V318.696H141.245V321H139.901V318.696H134.429ZM135.933 317.448H139.901V311.464H139.773L135.933 317.352V317.448ZM155.518 308.392V318.664H154.302V313.864H150.302V312.872H154.302V311.208H150.302V310.216H154.302V308.392H155.518ZM144.862 316.616V309.384H146.078V315.56C147.998 315.56 149.822 315.448 151.966 315.048L152.094 316.072C149.822 316.504 147.934 316.584 145.886 316.616H144.862ZM146.59 321.96V317.8H147.806V320.936H155.902V321.96H146.59ZM166.018 309.672V321H164.61V311.144H164.546L161.794 312.968V311.56L164.61 309.672H166.018ZM168.874 321V319.976L172.714 315.912C174.058 314.488 174.698 313.72 174.698 312.68C174.698 311.512 173.722 310.76 172.458 310.76C171.114 310.76 170.266 311.608 170.25 312.872H168.938C168.906 310.872 170.458 309.528 172.49 309.544C174.554 309.528 176.01 310.904 176.042 312.68C176.01 313.944 175.434 314.92 173.418 317L170.826 319.656V319.752H176.234V321H168.874ZM189.064 308.392V316.584H187.848V315.816H185.032V314.984H187.848V308.392H189.064ZM177.576 313.64C180.264 313.64 183.704 313.608 186.696 313.288L186.792 314.088C185.432 314.28 184.008 314.392 182.632 314.456V316.616H181.416V314.504C180.104 314.536 178.856 314.536 177.736 314.536L177.576 313.64ZM178.664 310.76C178.648 309.464 180.008 308.664 182.12 308.648C184.184 308.664 185.544 309.464 185.576 310.76C185.544 312.056 184.184 312.824 182.12 312.808C180.008 312.824 178.648 312.056 178.664 310.76ZM179.72 317.96V317.064H189.064V319.944H180.968V321.192H189.544V322.12H179.752V319.112H187.848V317.96H179.72ZM179.816 310.76C179.8 311.48 180.712 311.976 182.12 311.976C183.496 311.976 184.408 311.48 184.392 310.76C184.408 310.008 183.496 309.512 182.12 309.512C180.712 309.512 179.8 310.008 179.816 310.76ZM195.628 321V319.976L199.468 315.912C200.812 314.488 201.452 313.72 201.452 312.68C201.452 311.512 200.476 310.76 199.212 310.76C197.868 310.76 197.02 311.608 197.004 312.872H195.692C195.66 310.872 197.212 309.528 199.244 309.544C201.308 309.528 202.764 310.904 202.796 312.68C202.764 313.944 202.188 314.92 200.172 317L197.58 319.656V319.752H202.988V321H195.628ZM208.81 321.16C206.858 321.128 204.698 319.976 204.682 315.784C204.698 311.768 206.33 309.528 209.002 309.544C210.986 309.528 212.378 310.76 212.65 312.52H211.274C211.018 311.528 210.25 310.776 209.002 310.792C207.13 310.776 206.01 312.376 206.026 315.112H206.154C206.81 314.152 207.85 313.592 209.066 313.608C211.082 313.592 212.762 315.16 212.746 317.352C212.762 319.48 211.194 321.176 208.81 321.16ZM206.218 317.384C206.218 318.696 207.306 319.912 208.81 319.912C210.282 319.912 211.386 318.76 211.402 317.352C211.386 315.976 210.33 314.84 208.842 314.824C207.37 314.84 206.234 316.04 206.218 317.384ZM215.022 316.232C215.022 313.448 215.774 311.128 217.134 309.16H218.318C217.262 310.632 216.414 313.608 216.43 316.232C216.414 318.872 217.262 321.848 218.318 323.304H217.134C215.774 321.336 215.022 319.016 215.022 316.232ZM230.38 308.968V313.672H226.252V315.432H231.98V316.424H219.34V315.432H225.036V313.672H220.972V308.968H230.38ZM220.716 318.888V317.896H230.412V322.28H229.196V318.888H220.716ZM222.156 312.68H229.164V309.96H222.156V312.68ZM236.336 316.232C236.336 319.016 235.584 321.336 234.224 323.304H233.04C234.096 321.832 234.944 318.856 234.928 316.232C234.944 313.592 234.096 310.616 233.04 309.16H234.224C235.584 311.128 236.336 313.448 236.336 316.232ZM242.605 321V319.976L246.445 315.912C247.789 314.488 248.429 313.72 248.429 312.68C248.429 311.512 247.453 310.76 246.189 310.76C244.845 310.76 243.997 311.608 243.981 312.872H242.669C242.637 310.872 244.189 309.528 246.221 309.544C248.285 309.528 249.741 310.904 249.773 312.68C249.741 313.944 249.165 314.92 247.149 317L244.557 319.656V319.752H249.965V321H242.605ZM255.564 321.16C253.052 321.16 251.596 319.048 251.596 315.336C251.596 311.672 253.068 309.528 255.564 309.544C258.044 309.528 259.516 311.672 259.5 315.336C259.516 319.048 258.06 321.16 255.564 321.16ZM252.972 315.336C252.972 318.264 253.916 319.912 255.564 319.912C257.196 319.912 258.14 318.264 258.156 315.336C258.14 312.408 257.18 310.76 255.564 310.76C253.932 310.76 252.972 312.408 252.972 315.336ZM262.215 321.096C261.655 321.096 261.191 320.632 261.191 320.072C261.191 319.528 261.655 319.08 262.215 319.08C262.759 319.08 263.207 319.528 263.207 320.072C263.207 320.632 262.759 321.096 262.215 321.096ZM261.191 313.8C261.191 313.256 261.655 312.808 262.215 312.808C262.759 312.808 263.207 313.256 263.207 313.8C263.207 314.36 262.759 314.824 262.215 314.824C261.655 314.824 261.191 314.36 261.191 313.8ZM268.837 321.16C266.325 321.16 264.869 319.048 264.869 315.336C264.869 311.672 266.341 309.528 268.837 309.544C271.317 309.528 272.789 311.672 272.773 315.336C272.789 319.048 271.333 321.16 268.837 321.16ZM266.245 315.336C266.245 318.264 267.189 319.912 268.837 319.912C270.469 319.912 271.413 318.264 271.429 315.336C271.413 312.408 270.453 310.76 268.837 310.76C267.205 310.76 266.245 312.408 266.245 315.336ZM278.209 321.16C275.697 321.16 274.241 319.048 274.241 315.336C274.241 311.672 275.713 309.528 278.209 309.544C280.689 309.528 282.161 311.672 282.145 315.336C282.161 319.048 280.705 321.16 278.209 321.16ZM275.617 315.336C275.617 318.264 276.561 319.912 278.209 319.912C279.841 319.912 280.785 318.264 280.801 315.336C280.785 312.408 279.825 310.76 278.209 310.76C276.577 310.76 275.617 312.408 275.617 315.336ZM287.804 317.64C287.772 315.8 288.86 315.096 290.012 315.08C290.748 315.096 291.292 315.4 292.092 316.104C292.636 316.552 292.892 316.728 293.308 316.744C293.916 316.728 294.316 316.264 294.3 315.4H295.516C295.564 317.24 294.46 317.96 293.34 317.96C292.572 317.96 292.028 317.656 291.228 316.936C290.684 316.488 290.428 316.296 290.044 316.296C289.452 316.296 289.004 316.696 289.02 317.64H287.804ZM301.435 321V319.976L305.275 315.912C306.619 314.488 307.259 313.72 307.259 312.68C307.259 311.512 306.283 310.76 305.019 310.76C303.675 310.76 302.827 311.608 302.811 312.872H301.499C301.467 310.872 303.019 309.528 305.051 309.544C307.115 309.528 308.571 310.904 308.603 312.68C308.571 313.944 307.995 314.92 305.979 317L303.387 319.656V319.752H308.795V321H301.435ZM310.191 318.696V317.544L315.279 309.672H317.007V317.448H318.575V318.696H317.007V321H315.663V318.696H310.191ZM311.695 317.448H315.663V311.464H315.535L311.695 317.352V317.448ZM321.263 321.096C320.703 321.096 320.239 320.632 320.239 320.072C320.239 319.528 320.703 319.08 321.263 319.08C321.807 319.08 322.255 319.528 322.255 320.072C322.255 320.632 321.807 321.096 321.263 321.096ZM320.239 313.8C320.239 313.256 320.703 312.808 321.263 312.808C321.807 312.808 322.255 313.256 322.255 313.8C322.255 314.36 321.807 314.824 321.263 314.824C320.703 314.824 320.239 314.36 320.239 313.8ZM327.885 321.16C325.373 321.16 323.917 319.048 323.917 315.336C323.917 311.672 325.389 309.528 327.885 309.544C330.365 309.528 331.837 311.672 331.821 315.336C331.837 319.048 330.381 321.16 327.885 321.16ZM325.293 315.336C325.293 318.264 326.237 319.912 327.885 319.912C329.517 319.912 330.461 318.264 330.477 315.336C330.461 312.408 329.501 310.76 327.885 310.76C326.253 310.76 325.293 312.408 325.293 315.336ZM337.257 321.16C334.745 321.16 333.289 319.048 333.289 315.336C333.289 311.672 334.761 309.528 337.257 309.544C339.737 309.528 341.209 311.672 341.193 315.336C341.209 319.048 339.753 321.16 337.257 321.16ZM334.665 315.336C334.665 318.264 335.609 319.912 337.257 319.912C338.889 319.912 339.833 318.264 339.849 315.336C339.833 312.408 338.873 310.76 337.257 310.76C335.625 310.76 334.665 312.408 334.665 315.336Z" fill="white"/>
</svg>
