<svg width="19" height="19" viewBox="0 0 19 19" fill="none" xmlns="http://www.w3.org/2000/svg">
<path fill-rule="evenodd" clip-rule="evenodd" d="M10.3906 8.60938H15.7344C15.9706 8.60938 16.1971 8.70321 16.3641 8.87023C16.5312 9.03726 16.625 9.26379 16.625 9.5C16.625 9.73621 16.5312 9.96274 16.3641 10.1298C16.1971 10.2968 15.9706 10.3906 15.7344 10.3906H10.3906V15.7344C10.3906 15.9706 10.2968 16.1971 10.1298 16.3641C9.96274 16.5312 9.73621 16.625 9.5 16.625C9.26379 16.625 9.03726 16.5312 8.87023 16.3641C8.70321 16.1971 8.60938 15.9706 8.60938 15.7344V10.3906H3.26562C3.02942 10.3906 2.80288 10.2968 2.63586 10.1298C2.46883 9.96274 2.375 9.73621 2.375 9.5C2.375 9.26379 2.46883 9.03726 2.63586 8.87023C2.80288 8.70321 3.02942 8.60938 3.26562 8.60938H8.60938V3.26562C8.60938 3.02942 8.70321 2.80288 8.87023 2.63586C9.03726 2.46883 9.26379 2.375 9.5 2.375C9.73621 2.375 9.96274 2.46883 10.1298 2.63586C10.2968 2.80288 10.3906 3.02942 10.3906 3.26562V8.60938Z" fill="#2970FF"/>
</svg>
