<svg width="20" height="20" viewBox="0 0 20 20" fill="none" xmlns="http://www.w3.org/2000/svg">
<path fill-rule="evenodd" clip-rule="evenodd" d="M7.78947 6.68421C7.78947 5.46337 8.77916 4.47368 10 4.47368C11.2208 4.47368 12.2105 5.46337 12.2105 6.68421C12.2105 7.90505 11.2208 8.89474 10 8.89474C8.77916 8.89474 7.78947 7.90505 7.78947 6.68421ZM10 3C7.96527 3 6.31579 4.64948 6.31579 6.68421C6.31579 8.71894 7.96527 10.3684 10 10.3684C12.0347 10.3684 13.6842 8.71894 13.6842 6.68421C13.6842 4.64948 12.0347 3 10 3ZM7.05263 11.1053C5.99216 11.1053 4.98594 11.4284 4.23194 12.0667C3.46626 12.7148 3 13.6575 3 14.7895V15.8947C3 16.5052 3.49484 17 4.10526 17H15.8947C16.5052 17 17 16.5052 17 15.8947V14.7895C17 13.6575 16.5337 12.7148 15.7681 12.0667C15.0141 11.4284 14.0078 11.1053 12.9474 11.1053H7.05263ZM4.47368 14.7895C4.47368 14.0902 4.74969 13.5592 5.18409 13.1915C5.63017 12.8139 6.28185 12.5789 7.05263 12.5789H12.9474C13.7182 12.5789 14.3698 12.8139 14.8159 13.1915C15.2503 13.5592 15.5263 14.0902 15.5263 14.7895V15.5263H4.47368V14.7895Z" fill="white"/>
</svg>
