<svg width="60" height="73" viewBox="0 0 60 73" fill="none" xmlns="http://www.w3.org/2000/svg">
<g clip-path="url(#clip0_407_4)">
<path d="M59.2387 65.4746H1V47.862L12.7417 41.9912V47.862L24.4834 41.9912V47.862L36.225 41.9912V47.862H59.2387V65.4746Z" stroke="white" stroke-opacity="0.7" stroke-width="1.8" stroke-miterlimit="10"/>
<path d="M57.36 47.862H50.3149L51.4891 25.5528H56.1858L57.36 47.862Z" stroke="white" stroke-opacity="0.7" stroke-width="1.8" stroke-miterlimit="10"/>
<path d="M46.7926 47.862H39.7476L40.9217 25.5528H45.6184L46.7926 47.862Z" stroke="white" stroke-opacity="0.7" stroke-width="1.8" stroke-miterlimit="10"/>
<path d="M50.9023 29.0753H56.7732" stroke="white" stroke-opacity="0.7" stroke-width="1.8" stroke-miterlimit="10"/>
<path d="M40.3345 29.0753H46.2053" stroke="white" stroke-opacity="0.7" stroke-width="1.8" stroke-miterlimit="10"/>
<path d="M54.5418 54.907H41.626V65.4746H54.5418V54.907Z" stroke="white" stroke-opacity="0.7" stroke-width="1.8" stroke-miterlimit="10"/>
<path d="M35.7555 54.907H28.7104V60.7779H35.7555V54.907Z" stroke="white" stroke-opacity="0.7" stroke-width="1.8" stroke-miterlimit="10"/>
<path d="M24.0138 54.907H16.9688V60.7779H24.0138V54.907Z" stroke="white" stroke-opacity="0.7" stroke-width="1.8" stroke-miterlimit="10"/>
<path d="M12.2721 54.907H5.22705V60.7779H12.2721V54.907Z" stroke="white" stroke-opacity="0.7" stroke-width="1.8" stroke-miterlimit="10"/>
<path d="M41.626 58.4296H54.5418" stroke="white" stroke-opacity="0.7" stroke-width="1.8" stroke-miterlimit="10"/>
<path d="M41.626 61.952H54.5418" stroke="white" stroke-opacity="0.7" stroke-width="1.8" stroke-miterlimit="10"/>
<path d="M7.30239 24.9191L4.76416 24.0164C4.76416 22.5019 4.76416 22.4981 4.76416 20.9836L7.30239 20.0809L8.21673 17.8735L7.06018 15.4405C8.13101 14.3697 8.13384 14.3668 9.20466 13.296L11.6377 14.4526C12.5188 14.0876 12.9639 13.9032 13.8451 13.5382L14.7478 11C16.2622 11 16.2661 11 17.7806 11L18.6832 13.5382C19.5643 13.9032 20.0094 14.0876 20.8906 14.4526L23.3237 13.296C24.3945 14.3668 24.3973 14.3697 25.4681 15.4405L24.3116 17.8735C24.6766 18.7546 24.8609 19.1998 25.2259 20.0809L27.7642 20.9836C27.7642 22.4981 27.7642 22.5019 27.7642 24.0164L25.2259 24.9191C24.8609 25.8001 24.6766 26.2453 24.3116 27.1265L25.4681 29.5595C24.3973 30.6303 24.3945 30.6332 23.3237 31.704L20.8906 30.5474C20.0095 30.9124 19.5644 31.0968 18.6832 31.4618L17.7806 34C16.2661 34 16.2622 34 14.7478 34L13.8451 31.4618L11.6377 30.5474L9.20466 31.704C8.13384 30.6332 8.13101 30.6303 7.06018 29.5595L8.21673 27.1265L7.30239 24.9191Z" stroke="white" stroke-opacity="0.7" stroke-width="1.8" stroke-miterlimit="10"/>
<path d="M32.7142 9.85269C32.2428 10.0106 31.9887 10.5206 32.1466 10.9919C32.3045 11.4633 32.8145 11.7174 33.2858 11.5595L32.7142 9.85269ZM49.8703 21.4855C50.3008 21.734 50.8512 21.5866 51.0997 21.1561L55.1497 14.1413C55.3983 13.7108 55.2508 13.1604 54.8203 12.9119C54.3898 12.6633 53.8394 12.8108 53.5909 13.2413L49.9909 19.4767L43.7555 15.8767C43.325 15.6281 42.7746 15.7756 42.5261 16.2061C42.2776 16.6366 42.425 17.187 42.8555 17.4355L49.8703 21.4855ZM33 10.7061L33.2858 11.5595C35.3802 10.858 38.7179 10.4873 41.8647 11.6388C44.9528 12.7688 47.9675 15.4027 49.451 20.939L50.3203 20.7061L51.1896 20.4732C49.5649 14.4095 46.1586 11.2934 42.4832 9.9484C38.8665 8.62492 35.0981 9.05419 32.7142 9.85269L33 10.7061Z" fill="white" fill-opacity="0.7"/>
<circle cx="16.25" cy="22.65" r="5.35" stroke="white" stroke-opacity="0.7" stroke-width="1.8"/>
</g>
<defs>
<clipPath id="clip0_407_4">
<rect width="60" height="60" fill="white" transform="translate(0 6.5)"/>
</clipPath>
</defs>
</svg>
